<svg width="469.829529" height="335.305206" viewBox="0 0 469.83 335.305" fill="none" xmlns="http://www.w3.org/2000/svg" xmlns:xlink="http://www.w3.org/1999/xlink">
	<desc>
			Created with Pixso.
	</desc>
	<defs/>
	<path id="Line 11 (Border)" d="M82.49 327.95L431.44 327.95C432 327.95 432.44 328.39 432.44 328.95C432.44 329.51 432 329.95 431.44 329.95L82.49 329.95C81.93 329.95 81.49 329.51 81.49 328.95C81.49 328.39 81.93 327.95 82.49 327.95Z" fill="#30325B" fill-opacity="1.000000" fill-rule="evenodd"/>
	<path id="Vector" d="M38.76 100.27L44.49 123.73L30.28 129.35C30.28 129.35 22.56 105.48 26.49 103.05C30.41 100.61 38.76 100.26 38.76 100.26L38.76 100.27Z" fill="#FFFFFF" fill-opacity="1.000000" fill-rule="nonzero"/>
	<path id="Vector" d="M30.28 130.05C30.18 130.07 30.09 130.07 29.99 130.05C29.82 129.97 29.68 129.82 29.63 129.64C28.33 125.51 22.02 105.1 26.13 102.56C30.25 100.01 38.38 99.67 38.74 99.66C39.07 99.65 39.37 99.86 39.45 100.19L45.18 123.64C45.27 123.98 45.09 124.34 44.76 124.46L30.55 130.07C30.47 130.07 30.39 130.07 30.3 130.06L30.28 130.05ZM38.23 101.08C36.31 101.2 29.95 101.8 26.85 103.73C24.57 105.1 27.68 118.9 30.71 128.57L43.69 123.44L38.23 101.08Z" fill="#30325B" fill-opacity="1.000000" fill-rule="nonzero"/>
	<path id="Vector" d="M87.81 245.24C87.81 245.24 79.21 240.78 78.6 239.64C76.41 236.68 73.94 233.93 71.19 231.47C68.99 229.7 70.43 223.42 69.96 220.96C68.73 214.86 65.06 220.02 64.52 223.46L63.69 228.66C63.69 228.86 63.6 229.05 63.45 229.19C63.26 229.27 63.04 229.27 62.84 229.19C53.87 225.57 50.43 245.07 55.39 249.8C59.38 253.59 87.01 262.21 87.01 262.21L87.81 245.26L87.81 245.24Z" fill="#FFFFFF" fill-opacity="1.000000" fill-rule="nonzero"/>
	<path id="Vector" d="M87.01 262.79C86.94 262.79 86.87 262.79 86.8 262.79C85.68 262.46 58.99 254.11 54.9 250.23C51.14 246.67 51.86 236.68 55.14 231.54C57.18 228.36 59.98 227.26 63.03 228.47L63.83 223.37C64.21 220.99 66.04 217.51 68.07 217.47C69.29 217.47 70.13 218.6 70.59 220.85C70.72 222.08 70.72 223.3 70.59 224.52C70.49 226.98 70.35 230.04 71.53 230.97C74.34 233.48 76.89 236.3 79.11 239.36C79.54 240.01 84.07 242.63 88.04 244.67C88.29 244.79 88.42 245.05 88.41 245.32L87.61 262.18C87.59 262.4 87.48 262.59 87.31 262.73C87.21 262.78 87.12 262.81 87.02 262.81L87.01 262.79ZM60.7 229.35C58.84 229.5 57.17 230.6 56.31 232.26C53.13 237.21 52.87 246.4 55.84 249.21C58.8 252.03 76.61 258.13 86.34 261.19L87.08 245.65C84.32 244.17 78.57 241.11 77.97 239.95C75.85 237.09 73.45 234.42 70.81 232C69.07 230.63 69.22 227.32 69.34 224.43C69.44 223.31 69.44 222.18 69.34 221.07C69 219.4 68.5 218.81 68.18 218.81C67.29 218.81 65.63 221.29 65.28 223.56L64.47 228.75C64.42 229.16 64.21 229.53 63.85 229.76C63.47 229.96 63.03 229.96 62.66 229.76C62.03 229.49 61.37 229.35 60.69 229.35L60.7 229.35Z" fill="#30325B" fill-opacity="1.000000" fill-rule="nonzero"/>
	<path id="Vector" d="M140.33 111.08C147.65 111.65 153.99 116.44 156.54 123.33C158.44 128.75 158.02 135.4 162.18 139.37C164.76 141.7 168.32 142.6 171.69 141.78C175.02 140.91 177.93 138.86 179.84 136C181.56 142.98 178.92 150.29 173.16 154.56C168.17 158.14 161.51 158.82 155.55 157.39C149.62 155.76 144.12 152.85 139.43 148.85C131.7 143 126.36 134.56 124.39 125.07C122.5 115.95 132.05 110.56 140.33 111.08Z" fill="#FFFFFF" fill-opacity="1.000000" fill-rule="nonzero"/>
	<path id="Vector" d="M161.43 158.79C159.39 158.79 157.37 158.54 155.39 158.07C149.35 156.42 143.75 153.46 139 149.39C131.14 143.45 125.71 134.86 123.7 125.22C122.92 121.88 123.82 118.37 126.1 115.81C129.81 111.97 135.04 109.98 140.37 110.4C147.97 111 154.53 115.96 157.18 123.11C157.78 125.02 158.24 126.97 158.55 128.95C159.3 132.78 159.92 136.41 162.59 138.9C165.01 141.05 168.32 141.88 171.47 141.11C174.65 140.28 177.41 138.33 179.22 135.59C179.37 135.36 179.64 135.25 179.91 135.31C180.17 135.36 180.39 135.57 180.46 135.83C182.29 143.07 179.57 150.71 173.57 155.14C170.01 157.61 165.75 158.88 161.43 158.8L161.43 158.79ZM139.24 111.75C134.7 111.67 130.33 113.46 127.15 116.7C125.15 118.95 124.38 122.04 125.07 124.98C127.03 134.28 132.3 142.54 139.88 148.25C144.47 152.19 149.88 155.06 155.71 156.67C161.53 158.2 167.72 157.2 172.76 153.91C177.85 150.09 180.43 143.81 179.49 137.51C177.52 139.89 174.84 141.59 171.85 142.35C168.25 143.22 164.45 142.26 161.7 139.77C158.78 137.01 158.01 132.97 157.26 129.08C156.93 127.17 156.47 125.29 155.89 123.44C153.43 116.81 147.34 112.21 140.29 111.65L139.25 111.72L139.24 111.75Z" fill="#30325B" fill-opacity="1.000000" fill-rule="nonzero"/>
	<path id="Vector" d="M133.51 126.19C131.57 123.78 128.93 122.01 125.97 121.14C123.67 120.65 121.29 120.79 119.08 121.55C117.46 121.89 116.06 122.9 115.22 124.31C114.69 126 114.89 127.83 115.76 129.38C118.1 134.9 125.72 146.93 132.91 146.03C143.06 144.78 137.37 130.43 133.53 126.19L133.51 126.19Z" fill="#30325B" fill-opacity="1.000000" fill-rule="nonzero"/>
	<path id="Vector" d="M132.19 146.77C124.91 146.77 117.65 135.4 115.19 129.64C114.24 127.93 114.05 125.9 114.66 124.04C115.56 122.39 117.12 121.24 118.96 120.87C121.27 120.1 123.75 119.95 126.14 120.45C129.25 121.36 132.01 123.2 134.05 125.71C136.81 128.73 140.81 137.17 138.81 142.56C137.87 144.95 135.63 146.57 133.06 146.69C132.77 146.74 132.49 146.77 132.2 146.77L132.19 146.77ZM123.48 121.52C122.08 121.52 120.68 121.75 119.35 122.19C117.91 122.47 116.66 123.36 115.91 124.62C115.48 126.13 115.67 127.75 116.45 129.12C118.79 134.56 126.1 146.21 132.88 145.37C134.93 145.3 136.75 144.01 137.5 142.09C139.22 137.48 135.57 129.46 133 126.63C131.16 124.32 128.64 122.64 125.82 121.79C125.06 121.62 124.27 121.54 123.48 121.54L123.48 121.52Z" fill="#30325B" fill-opacity="1.000000" fill-rule="nonzero"/>
	<path id="Vector" d="M184.15 304.57L185.43 327.25L113.48 327.25L109.77 295.45L184.15 304.57Z" fill="#30325B" fill-opacity="1.000000" fill-rule="nonzero"/>
	<path id="Vector" d="M185.43 327.95L113.48 327.95C113.13 327.95 112.83 327.69 112.79 327.33L109.09 295.6C109.04 295.23 109.28 294.88 109.65 294.83C109.72 294.83 109.78 294.83 109.85 294.83L184.23 303.95C184.57 303.99 184.82 304.26 184.84 304.6L186.11 327.31C186.14 327.67 185.86 327.99 185.51 328.03C185.48 328.03 185.46 328.03 185.43 328.03L185.43 327.96L185.43 327.95ZM114.08 326.57L184.7 326.57L183.51 305.19L110.57 296.24L114.09 326.57L114.08 326.57Z" fill="#30325B" fill-opacity="1.000000" fill-rule="nonzero"/>
	<path id="Vector" d="M142.37 191.04C142.37 191.04 171.96 199.32 179.25 211.73C186.53 224.14 188.4 308.87 188.4 308.87C188.4 308.87 135.66 316.61 108.86 304.56C108.86 304.56 102.76 271.02 98.08 247.77C95.87 236.73 96.71 221.9 96.21 221.37C94.73 219.76 46.76 191.84 43.55 186.88C40.35 181.91 27 125.94 27 125.94L44.61 116.98C44.61 116.98 63.57 167.16 66.76 171.35C69.96 175.54 109.74 195.43 109.74 195.43L142.35 191.02L142.37 191.04Z" fill="#FF5A57" fill-opacity="1.000000" fill-rule="nonzero"/>
	<path id="Vector" d="M49.1 88.12L49.34 88.44C49.94 89.27 51.09 89.45 51.92 88.85C51.92 88.85 51.94 88.85 51.95 88.84C52.77 88.23 52.94 87.07 52.34 86.24C52.34 86.15 52.18 86.04 52.11 85.93C40.65 70.19 42.7 56.11 48.46 48.16C52.51 42.57 58.39 39.88 63.08 41.43C67.77 42.98 70.62 46.8 71.35 52.69C71.69 55.69 71.57 58.74 70.99 61.7C70.74 62.71 71.35 63.71 72.36 63.96C73.37 64.2 74.37 63.59 74.62 62.59C74.62 62.57 74.62 62.56 74.62 62.54C76.19 55.73 75.99 41.85 64.25 37.9C58.01 35.82 50.46 39.06 45.46 45.97C38.93 54.99 36.47 70.77 49.11 88.13L49.1 88.12Z" fill="#FFFFFF" fill-opacity="1.000000" fill-rule="nonzero"/>
	<path id="Vector" d="M50.84 89.89L50.46 89.89C49.79 89.8 49.18 89.45 48.76 88.92L48.51 88.58C35.66 70.92 38.2 54.81 44.86 45.62C50.05 38.47 57.92 35.12 64.44 37.34C76.71 41.47 76.84 55.77 75.27 62.8C74.96 64.18 73.58 65.03 72.21 64.72C70.84 64.41 69.98 63.03 70.3 61.66C70.87 58.77 70.99 55.81 70.66 52.88C69.94 47.28 67.31 43.69 62.82 42.19C58.34 40.7 52.86 43.32 49.03 48.66C43.42 56.4 41.42 70.17 52.67 85.63C52.78 85.75 52.87 85.9 52.96 86.04C53.72 87.17 53.46 88.7 52.34 89.5C51.9 89.78 51.37 89.91 50.82 89.87L50.84 89.89ZM49.65 87.7L49.89 88.02C50.08 88.28 50.35 88.44 50.66 88.5C50.97 88.54 51.29 88.47 51.53 88.28C52.03 87.89 52.14 87.18 51.77 86.65L51.52 86.32C39.83 70.28 41.98 55.87 47.87 47.68C52.1 41.87 58.28 39.06 63.27 40.79C68.26 42.52 71.25 46.43 72.03 52.62C72.39 55.72 72.25 58.85 71.64 61.89C71.52 62.52 71.91 63.13 72.54 63.27C73.16 63.4 73.77 63.01 73.91 62.38C75.44 55.8 75.28 42.33 63.99 38.55C58.05 36.58 50.81 39.72 45.96 46.38C39.59 55.19 37.18 70.66 49.61 87.78L49.65 87.71L49.65 87.7Z" fill="#30325B" fill-opacity="1.000000" fill-rule="nonzero"/>
	<path id="Vector" d="M58.12 100.52C70.82 117.91 86.52 120.41 97.1 116.94C105.2 114.29 110.61 108.08 110.56 101.51C110.45 89.1 97.25 84.66 90.3 84.07C89.28 83.98 88.38 84.76 88.3 85.79C88.23 86.8 88.97 87.68 89.97 87.78C92.97 88.12 95.91 88.93 98.65 90.2C104.04 92.71 106.78 96.53 106.82 101.54C106.86 106.54 102.49 111.19 95.94 113.39C86.6 116.45 72.58 114.09 61.11 98.33L60.89 98.02C60.29 97.19 59.13 97 58.3 97.61C57.47 98.19 57.26 99.35 57.86 100.19C57.86 100.19 57.86 100.19 57.86 100.21L58.09 100.53L58.12 100.52Z" fill="#FFFFFF" fill-opacity="1.000000" fill-rule="nonzero"/>
	<path id="Vector" d="M88.52 118.97C78.87 118.97 67.26 114.25 57.56 100.93L57.32 100.59C56.92 100.04 56.76 99.36 56.88 98.7C57.09 97.31 58.39 96.36 59.78 96.56C60.46 96.67 61.07 97.04 61.46 97.61L61.61 97.81C72.93 113.38 86.66 115.74 95.73 112.74C102.01 110.69 106.18 106.19 106.14 101.55C106.1 96.91 103.48 93.27 98.38 90.81C95.71 89.6 92.85 88.81 89.93 88.46C88.54 88.2 87.62 86.88 87.88 85.49C88.1 84.3 89.14 83.41 90.36 83.4C97.54 84.03 111.14 88.59 111.26 101.52C111.26 108.42 105.75 114.87 97.34 117.61C94.5 118.52 91.52 118.98 88.53 118.95L88.52 118.97ZM58.69 100.12C71.1 117.2 86.56 119.66 96.9 116.29C104.73 113.73 109.93 107.8 109.88 101.52C109.77 89.59 97.04 85.34 90.26 84.8C89.62 84.71 89.02 85.14 88.92 85.78C88.83 86.42 89.26 87.02 89.9 87.11C89.96 87.11 90 87.11 90.05 87.11C93.14 87.47 96.15 88.31 98.98 89.59C104.62 92.24 107.5 96.25 107.54 101.56C107.58 106.88 103.02 111.83 96.18 114.09C86.66 117.2 72.28 114.82 60.59 98.76L60.35 98.44C59.97 97.92 59.25 97.81 58.73 98.19C58.47 98.37 58.3 98.64 58.26 98.95C58.2 99.25 58.27 99.57 58.45 99.82L58.69 100.15L58.69 100.12Z" fill="#30325B" fill-opacity="1.000000" fill-rule="nonzero"/>
	<path id="Vector" d="M1.19 112.25L20.49 138.74C21.19 139.67 22.51 139.88 23.44 139.18C23.97 138.79 24.29 138.18 24.3 137.51L24.35 122.05L24.29 121.96L57.78 97.53L51.79 89.25L18.28 113.77L18.28 113.66L3.59 109.01C2.49 108.62 1.28 109.18 0.89 110.28C0.64 110.95 0.75 111.69 1.17 112.25L1.19 112.25Z" fill="#FFFFFF" fill-opacity="1.000000" fill-rule="nonzero"/>
	<path id="Vector" d="M22.15 140.28C21.25 140.28 20.43 139.86 19.91 139.14L0.6 112.64C-0.35 111.46 -0.16 109.72 1.02 108.77C1.78 108.16 2.79 108 3.7 108.34L18.2 112.93L51.3 88.78C51.45 88.68 51.64 88.63 51.83 88.66C52.01 88.69 52.17 88.78 52.26 88.93L58.42 97.21C58.64 97.53 58.57 97.95 58.27 98.18L25.17 122.33L25.09 137.5C25.09 138.71 24.31 139.78 23.16 140.15C22.83 140.26 22.51 140.3 22.17 140.28L22.15 140.28ZM2.87 109.63C2.42 109.63 1.99 109.86 1.74 110.24C1.36 110.73 1.36 111.42 1.74 111.91L21.05 138.39C21.4 138.9 22.06 139.12 22.64 138.91C23.24 138.74 23.65 138.16 23.62 137.54L23.7 122.23C23.62 121.96 23.7 121.66 23.9 121.45L56.87 97.44L51.65 90.32L18.69 114.33C18.54 114.44 18.36 114.48 18.17 114.45C18.03 114.43 17.9 114.36 17.8 114.26L3.32 109.64C3.17 109.61 3.02 109.61 2.87 109.64L2.87 109.63Z" fill="#30325B" fill-opacity="1.000000" fill-rule="nonzero"/>
	<path id="Vector" d="M45.02 100.59C36.84 89.34 39.31 73.6 50.55 65.43L76.4 46.6L106.01 87.28L80.16 106.11C68.94 114.29 53.2 111.82 45.02 100.59Z" fill="#FFFFFF" fill-opacity="1.000000" fill-rule="nonzero"/>
	<path id="Vector" d="M65.39 111.63C57.11 111.63 49.33 107.68 44.45 100.98C36.05 89.45 38.58 73.29 50.1 64.88C50.1 64.88 50.12 64.87 50.13 64.86L75.92 46.05C76.23 45.82 76.65 45.89 76.89 46.2L106.49 86.89C106.6 87.04 106.64 87.22 106.62 87.41C106.59 87.59 106.49 87.75 106.35 87.86L80.54 106.65C76.14 109.87 70.84 111.61 65.39 111.6L65.39 111.63ZM76.18 47.59L50.95 65.97C40.03 73.92 37.62 89.23 45.56 100.15C45.56 100.15 45.56 100.15 45.56 100.16C53.5 111.09 68.79 113.52 79.7 105.58C79.7 105.58 79.73 105.56 79.74 105.55L104.97 87.15L76.17 47.59L76.18 47.59Z" fill="#30325B" fill-opacity="1.000000" fill-rule="nonzero"/>
	<path id="Vector" d="M85.42 71.15L72.29 75.43L64.17 64.27L64.18 78.08L51.07 82.35L64.19 86.61L64.21 100.42L72.31 89.25L85.43 93.49L77.31 82.33L85.42 71.15Z" fill="#FFFFFF" fill-opacity="1.000000" fill-rule="nonzero"/>
	<path id="Vector" d="M64.21 101.12C64.14 101.12 64.06 101.12 63.99 101.12C63.7 101.02 63.51 100.76 63.51 100.46L63.51 87.11L50.85 82.98C50.47 82.9 50.23 82.53 50.29 82.15C50.35 81.88 50.56 81.66 50.85 81.59L63.5 77.46L63.5 64.27C63.5 63.97 63.69 63.71 63.98 63.61C64.26 63.51 64.57 63.61 64.75 63.85L72.59 74.62L85.24 70.48C85.53 70.39 85.84 70.48 86.02 70.73C86.19 70.97 86.19 71.3 86.02 71.54L78.22 82.33L86.02 93.08C86.18 93.33 86.18 93.65 86.02 93.9C85.84 94.14 85.53 94.24 85.24 94.14L72.58 90.01L64.78 100.79C64.67 100.99 64.45 101.12 64.22 101.13L64.21 101.12ZM53.3 82.37L64.33 85.97C64.62 86.05 64.82 86.32 64.82 86.62L64.82 98.31L71.71 88.85C71.88 88.61 72.2 88.51 72.48 88.61L83.52 92.21L76.63 82.76C76.45 82.53 76.45 82.2 76.63 81.96L83.52 72.5L72.48 76.11C72.2 76.22 71.88 76.11 71.71 75.87L64.82 66.43L64.82 78.13C64.82 78.42 64.63 78.68 64.34 78.78L53.3 82.41L53.3 82.37Z" fill="#30325B" fill-opacity="1.000000" fill-rule="nonzero"/>
	<path id="Vector" d="M132.15 132.09C131.57 131.26 130.98 130.46 130.38 129.68C124.87 122.57 115.92 122.45 108.32 126.08C106.79 126.81 105.22 127.95 105.12 129.63C101.85 128.47 98.12 130.26 95.99 133C89.1 141.81 90.38 154.78 93.78 164.73C94.44 167.05 95.56 169.22 97.08 171.11C98.68 172.78 100.65 174.07 102.83 174.89C117.62 181.07 138.21 173.58 140.07 156.02C140.93 147.72 136.93 138.94 132.16 132.07L132.15 132.09Z" fill="#FFFFFF" fill-opacity="1.000000" fill-rule="nonzero"/>
	<path id="Vector" d="M113.83 177.66C109.99 177.69 106.17 176.94 102.61 175.48C100.33 174.64 98.26 173.29 96.59 171.53C95.01 169.57 93.86 167.33 93.16 164.92C91.06 158.76 87.06 143.28 95.49 132.59C97.46 130.09 101.07 127.95 104.65 128.77C105.29 127.25 106.52 126.06 108.07 125.48C115.12 122.09 124.83 121.35 130.94 129.27C131.54 130.06 132.14 130.88 132.72 131.72C136.14 136.64 141.74 146.38 140.75 156.06C140 163.4 135.75 169.91 129.34 173.54C124.63 176.27 119.28 177.69 113.85 177.66L113.83 177.66ZM103.03 129.95C100.48 130.1 98.12 131.38 96.57 133.42C88.57 143.59 92.44 158.52 94.47 164.46C95.11 166.7 96.18 168.79 97.62 170.62C99.16 172.22 101.05 173.46 103.14 174.22C111.47 177.52 120.86 176.84 128.63 172.36C134.66 168.94 138.67 162.83 139.39 155.92C140.33 146.67 134.91 137.28 131.61 132.47C131.02 131.64 130.45 130.84 129.87 130.07C124.25 122.77 115.25 123.53 108.68 126.68C107.46 127.27 105.92 128.27 105.92 129.63C105.91 130.01 105.58 130.31 105.2 130.28C105.14 130.28 105.08 130.26 105.01 130.24C104.37 130.03 103.71 129.92 103.04 129.95L103.03 129.95Z" fill="#30325B" fill-opacity="1.000000" fill-rule="nonzero"/>
	<path id="Vector" d="M111.96 178.69L114.28 192.66C114.28 192.66 118.82 199.81 127.57 195.97C136.33 192.14 136.36 185.37 136.36 185.37L131.66 159.56C131.47 158.46 126.86 155.21 125.9 154.52C123.28 152.62 120.42 151.05 117.42 149.86C116.01 149.38 114.62 148.8 113.29 148.12C109.91 146.16 107.77 142.61 107.64 138.71C108.21 141.83 107.41 145.06 105.43 147.56C104.06 149.24 102.26 150.51 101.05 152.3C98.86 155.58 100.01 158.2 100.71 161.56C101.51 165.44 101.26 169.34 102.46 173.21C104.58 180.01 111.85 178.64 111.98 178.71L111.96 178.69Z" fill="#FFFFFF" fill-opacity="1.000000" fill-rule="nonzero"/>
	<path id="Vector" d="M122.61 197.79C119.05 197.7 115.75 195.95 113.68 193.04C113.64 192.95 113.6 192.86 113.59 192.78L111.39 179.41C106.47 179.66 103.11 177.54 101.82 173.4C101.21 171.15 100.81 168.84 100.68 166.51C100.57 164.89 100.37 163.29 100.05 161.7L99.73 160.2C99.08 157.44 98.49 154.91 100.5 151.92C101.25 150.92 102.09 149.99 103.03 149.16C103.71 148.54 104.35 147.87 104.93 147.16C106.43 145.27 107.21 142.91 107.16 140.5C107.05 139.93 107 139.36 106.98 138.78C106.98 138.41 107.24 138.11 107.61 138.07C107.96 138.03 108.3 138.27 108.36 138.64C108.46 139.21 108.53 139.78 108.55 140.37C109.13 143.4 110.99 146.03 113.67 147.59C114.65 148.13 115.68 148.59 116.73 148.96L117.68 149.33C120.75 150.52 123.66 152.13 126.31 154.07L126.59 154.26C131.17 157.59 132.2 158.77 132.35 159.55C132.35 159.75 137.04 185.35 137.04 185.35C137.04 185.78 136.92 192.74 127.86 196.71C126.2 197.43 124.42 197.79 122.61 197.78L122.61 197.79ZM114.97 192.42C115.6 193.31 119.74 198.71 127.38 195.36C135.57 191.76 135.75 185.71 135.75 185.4C134.01 175.91 131.08 159.74 131.06 159.7C131.05 159.66 130.31 158.53 125.84 155.29L125.56 155.09C123 153.23 120.22 151.69 117.28 150.52L116.35 150.17C115.23 149.79 114.14 149.33 113.08 148.8C111.01 147.6 109.32 145.79 108.29 143.62C107.88 145.23 107.13 146.74 106.11 148.05C105.49 148.8 104.81 149.5 104.09 150.17C103.22 150.94 102.45 151.81 101.75 152.75C100.07 155.27 100.56 157.33 101.17 159.96C101.29 160.46 101.4 160.96 101.51 161.49C101.82 163.14 102.04 164.8 102.16 166.46C102.28 168.69 102.65 170.9 103.25 173.06C104.36 176.68 107.38 178.42 111.77 178.07C111.98 178.03 112.2 178.07 112.41 178.15C112.6 178.24 112.72 178.42 112.75 178.64L114.95 192.42L114.97 192.42Z" fill="#30325B" fill-opacity="1.000000" fill-rule="nonzero"/>
	<path id="Vector" d="M126.21 160.08C126.31 158.76 126.81 157.52 127.68 156.52C128.52 155.63 129.5 154.9 130.59 154.34C131.16 153.98 131.8 153.74 132.46 153.65C132.94 153.64 133.4 153.72 133.83 153.89C134.91 154.19 135.85 154.87 136.46 155.81C136.85 156.61 137.05 157.51 137.04 158.41C137.11 159.37 137.04 160.35 136.84 161.3C135.95 165.26 132.03 167.75 128.07 166.86C128.02 166.86 127.96 166.84 127.91 166.82L126.21 160.08Z" fill="#FFFFFF" fill-opacity="1.000000" fill-rule="nonzero"/>
	<path id="Vector" d="M129.65 167.69C129.01 167.69 128.37 167.63 127.75 167.48C127.37 167.38 127.14 167 127.22 166.62C127.31 166.24 127.69 166.01 128.07 166.09C131.63 166.97 135.25 164.8 136.13 161.24C136.13 161.19 136.14 161.15 136.16 161.11C136.35 160.2 136.42 159.28 136.35 158.35C136.38 157.56 136.2 156.79 135.86 156.08C135.32 155.31 134.53 154.74 133.62 154.47C133.26 154.33 132.87 154.25 132.49 154.26C131.93 154.34 131.4 154.55 130.93 154.87C129.89 155.39 128.97 156.07 128.17 156.9C127.41 157.78 126.96 158.88 126.89 160.04C126.85 160.42 126.54 160.69 126.16 160.69C125.78 160.66 125.49 160.34 125.5 159.96C125.6 158.49 126.17 157.1 127.14 155.99C128.03 155.04 129.08 154.25 130.23 153.65C130.89 153.23 131.63 152.97 132.39 152.87C132.95 152.86 133.51 152.96 134.04 153.15C135.27 153.51 136.33 154.3 137.03 155.38C137.48 156.27 137.71 157.28 137.71 158.28C137.76 159.32 137.69 160.37 137.48 161.37C136.63 165.03 133.37 167.61 129.62 167.6L129.62 167.67L129.65 167.69Z" fill="#30325B" fill-opacity="1.000000" fill-rule="nonzero"/>
	<path id="Vector" d="M111.63 155.42C111.63 155.42 107.83 163.3 109.14 164.39C110.46 165.48 113.56 164.2 113.56 164.2L111.63 155.42Z" fill="#FFFFFF" fill-opacity="1.000000" fill-rule="nonzero"/>
	<path id="Vector" d="M110.69 165.5C109.99 165.55 109.28 165.33 108.71 164.91C107.19 163.67 109.5 158.24 111.02 155.1C111.18 154.76 111.58 154.63 111.92 154.78C112.26 154.94 112.41 155.35 112.26 155.69C110.46 159.4 109.23 163.21 109.62 163.85C110.34 164.44 112.38 163.85 113.3 163.53C113.64 163.38 114.04 163.53 114.19 163.89C114.19 163.89 114.19 163.89 114.19 163.9C114.32 164.25 114.16 164.65 113.82 164.8C112.83 165.21 111.77 165.44 110.69 165.48L110.69 165.5Z" fill="#30325B" fill-opacity="1.000000" fill-rule="nonzero"/>
	<path id="Vector" d="M118.54 152.47C118.75 153.39 118.4 154.25 117.76 154.39C117.11 154.54 116.42 153.92 116.21 153.01C116 152.09 116.35 151.23 117 151.08C117.64 150.94 118.33 151.56 118.54 152.47Z" fill="#30325B" fill-opacity="1.000000" fill-rule="evenodd"/>
	<path id="Vector" d="M107.5 154.72C107.59 155.66 107.13 156.47 106.47 156.53C105.81 156.59 105.21 155.88 105.12 154.95C105.03 154.01 105.49 153.21 106.15 153.14C106.81 153.08 107.41 153.79 107.5 154.72Z" fill="#30325B" fill-opacity="1.000000" fill-rule="evenodd"/>
	<path id="Vector" d="M111.96 178.69C111.96 178.69 120.98 179.26 125.61 175.48C125.61 175.48 121.89 188.14 113.55 188.26L111.96 178.71L111.96 178.69Z" fill="#30325B" fill-opacity="1.000000" fill-rule="nonzero"/>
	<path id="Vector" d="M113.59 188.94C113.25 188.94 112.96 188.71 112.91 188.37L111.32 178.8C111.28 178.6 111.35 178.38 111.48 178.22C111.62 178.07 111.82 177.99 112.04 178C112.13 178 120.86 178.5 125.22 174.94C125.52 174.71 125.95 174.75 126.18 175.06C126.32 175.24 126.36 175.47 126.31 175.67C126.16 176.22 122.34 188.82 113.59 188.94ZM112.81 179.41L114.19 187.54C119.7 187.01 122.99 180.5 124.32 177.2C120.26 179.32 114.87 179.44 112.76 179.41L112.8 179.41L112.81 179.41Z" fill="#30325B" fill-opacity="1.000000" fill-rule="nonzero"/>
	<path id="Vector" d="M111.21 193.28L111.96 200.66L142.37 191.04L139.02 184.23L111.21 193.28Z" fill="#FFFFFF" fill-opacity="1.000000" fill-rule="nonzero"/>
	<path id="Vector" d="M111.96 201.34C111.82 201.34 111.69 201.3 111.58 201.23C111.41 201.13 111.29 200.93 111.28 200.73L110.53 193.35C110.49 193.02 110.69 192.72 111.01 192.61L138.83 183.57C139.16 183.46 139.51 183.61 139.66 183.91L143.01 190.72C143.09 190.91 143.09 191.12 143.01 191.31C142.92 191.49 142.76 191.64 142.59 191.69L112.17 201.34C112.17 201.34 112.04 201.34 111.98 201.32L111.96 201.34ZM111.96 193.77L112.56 199.74L141.39 190.63L138.63 185.11L111.96 193.76L111.96 193.77Z" fill="#30325B" fill-opacity="1.000000" fill-rule="nonzero"/>
	<path id="Vector" d="M129.28 310.61C129 310.61 128.74 310.45 128.63 310.19C122.91 296.01 122.61 201.1 122.6 197.03C122.6 196.65 122.91 196.34 123.29 196.34C123.67 196.34 123.98 196.65 123.98 197.03C123.98 198.01 124.28 295.68 129.91 309.62C130.04 309.97 129.88 310.38 129.53 310.51C129.46 310.57 129.36 310.6 129.28 310.61Z" fill="#30325B" fill-opacity="1.000000" fill-rule="nonzero"/>
	<path id="Vector" d="M39.75 93.41C41.83 96.87 42.75 100.91 42.37 104.95C42.37 105.37 42.24 105.87 41.84 106.06C41.54 106.19 41.22 106.19 40.92 106.06C39.79 105.58 38.95 104.6 38.61 103.41C38.61 104.6 39.06 105.77 39.04 106.95C39.03 108.13 38.27 109.5 37.07 109.49C36.12 109.49 35.41 108.61 34.86 107.82C35.05 108.68 35.05 109.56 34.86 110.42C34.67 111.29 33.95 111.95 33.05 112.06C31.94 112.06 31.17 110.97 30.63 109.99C31.46 111.08 31.24 112.64 30.16 113.47C29.97 113.61 29.76 113.73 29.54 113.81C27.99 114.26 26.32 113.83 25.2 112.69C22.72 110.46 22.12 106.76 22.61 103.45C23.05 100.16 24.65 97.16 27.14 94.97C29.01 93.45 31.36 92.63 33.77 92.66C35.97 92.59 38.42 91.23 39.72 93.42L39.75 93.41Z" fill="#FFFFFF" fill-opacity="1.000000" fill-rule="nonzero"/>
	<path id="Vector" d="M28.46 114.64C27.1 114.58 25.81 114.03 24.82 113.11C22.45 110.97 21.4 107.29 22.06 103.26C22.49 99.81 24.19 96.63 26.81 94.33C28.81 92.71 31.31 91.84 33.89 91.87C34.46 91.84 35.03 91.78 35.59 91.67C37.18 91.39 39.16 91.05 40.35 93.04C42.51 96.63 43.49 100.82 43.1 104.99C43.1 105.67 42.77 106.31 42.18 106.68C41.71 106.89 41.18 106.89 40.7 106.68C40.36 106.54 40.03 106.35 39.75 106.12C39.76 106.39 39.76 106.66 39.75 106.93C39.86 108.54 38.7 109.95 37.1 110.14C36.61 110.14 36.12 109.99 35.73 109.71C35.7 109.99 35.66 110.28 35.59 110.56C35.33 111.73 34.34 112.6 33.14 112.71C32.66 112.73 32.18 112.59 31.77 112.33C31.47 113.28 30.78 114.05 29.87 114.43C29.42 114.58 28.95 114.64 28.46 114.62L28.46 114.64ZM33.86 93.27C31.61 93.24 29.42 93.99 27.67 95.41C25.3 97.49 23.78 100.35 23.39 103.48C22.7 106.57 23.58 109.79 25.74 112.09C26.69 113.04 28.08 113.43 29.38 113.09C29.98 112.81 30.41 112.26 30.54 111.6C30.58 111.39 30.58 111.18 30.54 110.96C30.36 110.67 30.21 110.4 30.11 110.21C29.95 109.91 30.03 109.55 30.29 109.34C30.55 109.11 30.93 109.11 31.19 109.34C31.47 109.6 31.69 109.93 31.81 110.29C32.26 110.95 32.71 111.26 33.12 111.22C33.53 111.18 34.12 110.62 34.26 110.09C34.39 109.33 34.37 108.54 34.19 107.78C34.14 107.4 34.38 107.04 34.76 106.99C35.02 106.95 35.28 107.06 35.43 107.27C35.94 108 36.47 108.65 37.1 108.65C37.82 108.65 38.35 107.67 38.36 106.8C38.35 106.24 38.28 105.68 38.16 105.14C38.02 104.53 37.94 103.89 37.93 103.26C37.93 102.87 38.25 102.57 38.65 102.57C38.96 102.57 39.22 102.79 39.31 103.07C39.57 104.05 40.27 104.85 41.2 105.25C41.31 105.32 41.43 105.34 41.56 105.33C41.56 105.33 41.65 105.33 41.69 104.77C42.02 100.9 41.12 97.02 39.1 93.71C38.43 92.6 37.44 92.71 35.75 93C35.12 93.12 34.45 93.2 33.8 93.22L33.85 93.22L33.86 93.27Z" fill="#30325B" fill-opacity="1.000000" fill-rule="nonzero"/>
	<path id="Vector" d="M111.02 175.43C110.82 175.43 110.6 175.4 110.39 175.35C107.21 174.4 108.06 168.62 108.18 167.97C108.23 167.64 108.51 167.39 108.85 167.38C114.72 167.16 114.78 167.3 115.03 167.75C115.35 168.41 114.32 172.72 112.94 174.4C112.49 175.01 111.79 175.39 111.03 175.42L111.02 175.43ZM109.44 168.74C109.27 170.4 109.24 173.57 110.82 174.03C111.06 174.11 111.33 174.04 111.52 173.88C112.66 173.04 113.44 170.02 113.67 168.69C112.77 168.66 111.09 168.69 109.43 168.74L109.44 168.74Z" fill="#30325B" fill-opacity="1.000000" fill-rule="nonzero"/>
	<path id="Vector" d="M161.31 233.36C161.31 233.36 148.9 255.62 146.46 260.02C144.01 264.43 85.04 240.12 85.04 240.12L82.59 264.41C82.59 264.41 162.86 306.9 166.07 297.18C169.27 287.46 183.49 230.02 183.49 230.02L161.31 233.36Z" fill="#FF5A57" fill-opacity="1.000000" fill-rule="nonzero"/>
	<path id="Vector" d="M144.84 260.93C134.4 260.93 95.51 246.09 90.8 244.26C90.45 244.13 90.27 243.73 90.41 243.38C90.54 243.03 90.94 242.84 91.29 242.97C111.03 250.57 141.93 261.23 146.17 259.38C151.85 256.89 158.97 240.06 159.04 239.86C159.22 239.52 159.64 239.4 159.98 239.57C160.26 239.72 160.41 240.06 160.32 240.39C160.03 241.11 152.91 257.94 146.73 260.66C146.12 260.88 145.48 260.97 144.84 260.93Z" fill="#30325B" fill-opacity="1.000000" fill-rule="nonzero"/>
	<path id="Vector" d="M159.23 299.42C150.59 299.42 98.78 272.19 92.77 269.06C92.43 268.89 92.29 268.46 92.47 268.14C92.65 267.81 93.06 267.69 93.4 267.85C117.5 280.59 154.99 299.14 159.52 298.09C164.04 297.04 173.89 276.17 179.5 262.4C179.61 262.03 180.01 261.83 180.36 261.94C180.73 262.05 180.93 262.44 180.82 262.79C180.82 262.84 180.8 262.88 180.77 262.92C179.31 266.49 166.36 297.87 159.83 299.42C159.62 299.45 159.42 299.45 159.22 299.44L159.23 299.42Z" fill="#30325B" fill-opacity="1.000000" fill-rule="nonzero"/>
	<path id="Vector" d="M291.12 283.58L292.68 328.95L210.05 328.95L212.89 280.69L291.12 283.58Z" fill="#30325B" fill-opacity="1.000000" fill-rule="nonzero"/>
	<path id="Vector" d="M292.68 329.64L210.04 329.64C209.85 329.64 209.66 329.56 209.53 329.43C209.4 329.29 209.33 329.1 209.34 328.91L212.18 280.62C212.21 280.25 212.52 279.97 212.9 279.97L291.12 282.86C291.49 282.86 291.78 283.17 291.78 283.54L293.37 328.9C293.37 329.09 293.31 329.26 293.18 329.41C293.06 329.55 292.87 329.64 292.68 329.64ZM210.77 328.27L291.96 328.27L290.43 284.26L213.52 281.41L210.76 328.27L210.77 328.27Z" fill="#30325B" fill-opacity="1.000000" fill-rule="nonzero"/>
	<path id="Vector" d="M294.57 184.14L294.12 184.36L294.12 184.28C294.12 184.28 294.12 184.19 294.12 184.14C294.12 184.14 268.51 173.74 262.71 171.5L262.15 171.3L261.86 171.19C261.36 171.04 260.83 170.94 260.3 170.93L259.65 170.93C259.23 170.93 258.76 170.93 258.28 170.85L252.99 170.85C250.23 170.85 247.02 171 244.01 171.15C241.82 171.23 239.71 171.36 237.88 171.45C237.05 171.45 236.28 171.54 235.57 171.58L235.43 171.58C234.56 171.58 233.8 171.7 233.19 171.72L232.4 171.8L231.28 171.87C231.28 171.87 211.71 182.25 210.5 184.13C210.16 184.72 193.76 193.04 192.74 283.61L225.84 283.61C226.21 286.15 227.7 288.38 229.9 289.7C243.74 288.44 257.49 286.4 271.09 283.61L291.19 283.61L291.34 278.91C298.48 276.99 303.93 275.11 305.96 273.47C314.4 266.48 294.57 184.13 294.57 184.13L294.57 184.14ZM222.08 266.55C222.08 266.43 222.19 266.48 222.27 266.68C222.12 266.62 222.04 266.57 222.08 266.51L222.08 266.55Z" fill="#FF5A57" fill-opacity="1.000000" fill-rule="nonzero"/>
	<path id="Vector" d="M210.32 254.37C210.06 254.37 209.83 254.23 209.71 254.01C206.95 249.04 196.94 247.26 196.84 247.23C196.46 247.16 196.2 246.81 196.27 246.43C196.34 246.05 196.69 245.79 197.07 245.85C197.51 245.92 207.86 247.76 210.87 253.33C211.04 253.67 210.92 254.08 210.59 254.27C210.51 254.32 210.42 254.37 210.32 254.38L210.32 254.37Z" fill="#30325B" fill-opacity="1.000000" fill-rule="nonzero"/>
	<path id="Vector" d="M222.27 266.64C222.12 266.64 222.04 266.57 222.08 266.51C222.12 266.44 222.19 266.44 222.27 266.64Z" fill="#FF5A57" fill-opacity="1.000000" fill-rule="nonzero"/>
	<path id="Vector" d="M214.06 267.59L213.96 267.59C213.58 267.54 213.33 267.2 213.37 266.82L223.5 194.88C223.57 194.52 223.91 194.26 224.29 194.3C224.66 194.35 224.92 194.69 224.88 195.08L214.74 266.94C214.71 267.29 214.43 267.58 214.06 267.59Z" fill="#30325B" fill-opacity="1.000000" fill-rule="nonzero"/>
	<path id="Vector" d="M267.69 136.78C269.06 133.7 269.47 129.54 270.01 126.25C270.41 123.77 271.48 119.76 270.34 117.35C269.61 115.79 267.07 114.19 265.59 113.41C264.85 107.21 259.02 103.4 253.18 103.09C249.63 103.06 246.11 103.69 242.8 104.92C239.5 105.98 235.99 107.4 234.27 110.44C233.94 111.12 233.56 111.76 233.11 112.36C232.5 112.9 231.82 113.37 231.1 113.73C226.48 116.72 226.97 120.86 227.57 125.59C228.2 130.6 229.92 135.58 230.41 140.52C236.21 140.87 242.06 141.37 247.92 141.29C252.55 141.24 265.23 142.26 267.72 136.78L267.69 136.78Z" fill="#FFFFFF" fill-opacity="1.000000" fill-rule="nonzero"/>
	<path id="Vector" d="M252.65 142.04L247.89 142.04C243.14 142.11 238.33 141.79 233.67 141.48L230.34 141.26C230 141.25 229.73 140.98 229.7 140.64C229.37 138.04 228.88 135.47 228.25 132.94C227.7 130.58 227.16 128.16 226.87 125.72C226.28 120.97 225.72 116.45 230.7 113.2C230.88 113.08 231.06 112.97 231.25 112.88C231.75 112.62 232.23 112.28 232.62 111.87C232.92 111.5 233.16 111.11 233.37 110.69C233.46 110.48 233.57 110.29 233.68 110.08C235.5 106.93 239.05 105.44 242.62 104.28C246.02 103.01 249.62 102.38 253.26 102.42C259.04 102.73 265.3 106.46 266.28 112.98C267.65 113.73 270.21 115.34 271.02 117.12C272.05 119.31 271.46 122.5 271.02 125.07C270.93 125.56 270.84 126.01 270.78 126.44C270.71 126.88 270.59 127.68 270.49 128.35C270.19 131.37 269.5 134.32 268.43 137.16C266.31 141.55 258.55 142.03 252.66 142.03L252.65 142.04ZM248.44 140.67L250.12 140.67C255.35 140.75 265.07 140.87 267.04 136.53C268.06 133.83 268.72 131 269 128.12C269.09 127.45 269.19 126.74 269.28 126.19C269.38 125.63 269.45 125.29 269.53 124.81C269.95 122.58 270.52 119.51 269.68 117.72C268.53 116.14 266.99 114.87 265.21 114.07C265.01 113.96 264.88 113.77 264.85 113.54C264.15 107.55 258.4 104.12 253.08 103.89C249.62 103.86 246.18 104.47 242.95 105.7C239.63 106.76 236.37 108.12 234.78 110.86C234.67 111.04 234.58 111.23 234.48 111.42C234.24 111.95 233.93 112.45 233.56 112.9C233.07 113.41 232.51 113.83 231.9 114.15L231.4 114.47C227.12 117.23 227.58 120.95 228.16 125.66C228.5 128.03 228.97 130.39 229.54 132.73C230.12 135.13 230.58 137.57 230.91 140.03L233.67 140.2C238.29 140.5 243.07 140.83 247.79 140.76L248.4 140.69L248.44 140.67Z" fill="#30325B" fill-opacity="1.000000" fill-rule="nonzero"/>
	<path id="Vector" d="M236.63 137.63C235.83 131.26 225.38 129.35 225.6 136.82C225.6 139.41 226.49 141.93 228.15 143.93C229.89 145.91 232.65 146.66 235.15 145.82L236.63 137.63Z" fill="#FFFFFF" fill-opacity="1.000000" fill-rule="nonzero"/>
	<path id="Vector" d="M233.18 146.88C231.07 146.85 229.07 145.94 227.66 144.38C225.88 142.27 224.9 139.59 224.9 136.83C224.77 133.02 227.14 131.47 229.41 131.31C233.25 131.04 236.66 133.75 237.27 137.55C237.32 137.92 237.05 138.26 236.68 138.31C236.3 138.37 235.96 138.1 235.91 137.72C235.37 134.66 232.63 132.49 229.54 132.68C227.39 132.86 226.21 134.36 226.29 136.82C226.29 139.25 227.12 141.6 228.67 143.48C230.2 145.25 232.66 145.93 234.89 145.21C235.24 145.07 235.65 145.23 235.79 145.59C235.94 145.93 235.79 146.32 235.43 146.47C235.43 146.47 235.43 146.47 235.42 146.47C234.71 146.74 233.95 146.87 233.21 146.85L233.18 146.88Z" fill="#30325B" fill-opacity="1.000000" fill-rule="nonzero"/>
	<path id="Vector" d="M259.39 137.63C260.18 131.26 270.63 129.35 270.42 136.82C270.42 139.41 269.53 141.93 267.87 143.93C266.14 145.93 263.37 146.67 260.87 145.82L259.39 137.63Z" fill="#FFFFFF" fill-opacity="1.000000" fill-rule="nonzero"/>
	<path id="Vector" d="M262.83 146.88C262.05 146.88 261.28 146.74 260.57 146.46C260.22 146.32 260.06 145.93 260.19 145.57C260.19 145.57 260.19 145.57 260.19 145.56C260.33 145.21 260.74 145.03 261.09 145.18C263.32 145.9 265.76 145.22 267.31 143.45C268.86 141.58 269.69 139.22 269.69 136.79C269.77 134.34 268.6 132.86 266.44 132.66C263.34 132.47 260.6 134.63 260.07 137.69C260.01 138.06 259.68 138.33 259.29 138.29C258.93 138.25 258.66 137.91 258.7 137.54C259.31 133.75 262.71 131.03 266.55 131.3C268.81 131.47 271.2 133.02 271.06 136.82C271.06 139.58 270.08 142.26 268.3 144.36C266.9 145.93 264.92 146.85 262.83 146.91L262.83 146.88Z" fill="#30325B" fill-opacity="1.000000" fill-rule="nonzero"/>
	<path id="Vector" d="M235.81 169.33C239.96 171.11 244.43 172.04 248.94 172.09C257.22 172.37 258.59 170.13 258.59 170.13L258.38 165.68L257.94 155.36L257.51 145.71L238.57 145.04L237.66 152.9L237.39 155.44L235.81 169.34L235.81 169.33Z" fill="#FFFFFF" fill-opacity="1.000000" fill-rule="nonzero"/>
	<path id="Vector" d="M250.34 172.79L248.97 172.79C244.35 172.76 239.78 171.81 235.54 169.96C235.28 169.83 235.15 169.56 235.18 169.27L237.93 145C237.96 144.64 238.29 144.36 238.64 144.39L257.58 145.04C257.94 145.06 258.23 145.34 258.25 145.71L259.34 170.13C259.34 170.26 259.31 170.4 259.23 170.51C259.04 170.73 257.54 172.79 250.34 172.79ZM236.55 168.9C240.5 170.48 244.7 171.32 248.95 171.39C255.37 171.61 257.41 170.29 257.91 169.86L256.86 146.4L239.2 145.78L236.55 168.9Z" fill="#30325B" fill-opacity="1.000000" fill-rule="nonzero"/>
	<path id="Vector" d="M237.39 155.43C238.9 157.8 240.98 159.75 243.44 161.1C247.36 163.45 253.44 166.21 258.4 165.67L257.95 155.35C254.31 155.67 250.65 155.58 247.04 155.05C243.82 154.82 240.67 154.1 237.68 152.9L237.4 155.44L237.39 155.43Z" fill="#30325B" fill-opacity="1.000000" fill-rule="nonzero"/>
	<path id="Vector" d="M257.03 166.44C251.83 166.44 246.17 163.55 243.11 161.7C240.56 160.28 238.4 158.26 236.83 155.78C236.77 155.66 236.72 155.51 236.74 155.38L237.02 152.83C237.05 152.62 237.17 152.41 237.36 152.29C237.55 152.19 237.78 152.19 237.99 152.29C240.92 153.45 244.01 154.15 247.15 154.37C250.71 154.9 254.32 155.01 257.91 154.67C258.1 154.66 258.29 154.71 258.44 154.83C258.59 154.95 258.67 155.13 258.67 155.34L259.12 165.65C259.15 166.02 258.87 166.33 258.51 166.37C258.02 166.43 257.51 166.44 257.01 166.44L257.03 166.44ZM238.14 155.28C239.58 157.46 241.52 159.26 243.8 160.53C246.3 162.02 252.45 165.34 257.7 165.06L257.32 156.11C253.87 156.35 250.39 156.23 246.97 155.74C244.01 155.5 241.1 154.87 238.3 153.89L238.15 155.29L238.14 155.28Z" fill="#30325B" fill-opacity="1.000000" fill-rule="nonzero"/>
	<path id="Vector" d="M264.58 120.46L263.78 143.45C263.75 144.43 263.62 145.41 263.4 146.36C261.75 153.04 255.65 157.65 248.78 157.4L247.08 157.4C240.64 157.17 235.12 152.72 233.52 146.48C233.16 145.14 233.02 143.74 233.08 142.35L233.87 119.37C233.87 119.37 237.47 124.09 247.74 124C253.55 124.07 259.29 122.87 264.58 120.46Z" fill="#FFFFFF" fill-opacity="1.000000" fill-rule="nonzero"/>
	<path id="Vector" d="M249.27 158.16L247.05 158.16C240.31 157.89 234.55 153.24 232.85 146.73C232.5 145.33 232.34 143.89 232.4 142.43L233.19 119.44C233.21 119.16 233.4 118.9 233.68 118.8C233.97 118.72 234.27 118.82 234.44 119.05C234.44 119.05 237.95 123.41 247.47 123.41L247.74 123.41C253.45 123.45 259.09 122.27 264.29 119.92C264.51 119.78 264.77 119.78 264.99 119.92C265.19 120.05 265.33 120.29 265.31 120.53L264.51 143.52C264.49 144.55 264.35 145.57 264.1 146.57C262.42 153.38 256.31 158.16 249.29 158.16L249.27 158.16ZM234.5 120.98L233.76 142.41C233.71 143.72 233.86 145.04 234.17 146.32C235.72 152.26 240.96 156.48 247.09 156.71L248.79 156.71C256.4 156.98 262.8 151.04 263.07 143.42C263.07 143.41 263.07 143.38 263.07 143.37L263.83 121.51C258.72 123.6 253.25 124.68 247.72 124.66C240.35 124.8 236.32 122.45 234.48 120.97L234.5 120.98Z" fill="#30325B" fill-opacity="1.000000" fill-rule="nonzero"/>
	<path id="Vector" d="M248.59 133.35C248.59 133.35 253.36 143.87 251.25 144.08C249.47 144.01 247.72 143.53 246.14 142.7L248.59 133.35Z" fill="#FFFFFF" fill-opacity="1.000000" fill-rule="nonzero"/>
	<path id="Vector" d="M250.88 144.77C249.12 144.62 247.39 144.12 245.82 143.29C245.48 143.11 245.34 142.69 245.52 142.35C245.69 142.01 246.11 141.88 246.45 142.05C247.87 142.85 249.44 143.33 251.07 143.42C251.36 142.5 249.97 138.14 247.96 133.68C247.8 133.32 247.96 132.92 248.3 132.77C248.66 132.6 249.06 132.77 249.21 133.11C250.45 135.87 253.25 142.45 252.23 144.15C252.04 144.49 251.69 144.7 251.3 144.74L250.88 144.74L250.88 144.77Z" fill="#30325B" fill-opacity="1.000000" fill-rule="nonzero"/>
	<path id="Vector" d="M243.41 131.75C243.41 132.99 242.97 133.99 242.42 133.99C241.87 133.99 241.43 132.99 241.43 131.75C241.43 130.51 241.87 129.5 242.42 129.5C242.97 129.5 243.41 130.51 243.41 131.75Z" fill="#30325B" fill-opacity="1.000000" fill-rule="evenodd"/>
	<path id="Vector" d="M256.71 131.75C256.71 132.99 256.27 133.99 255.72 133.99C255.17 133.99 254.73 132.99 254.73 131.75C254.73 130.51 255.17 129.5 255.72 129.5C256.27 129.5 256.71 130.51 256.71 131.75Z" fill="#30325B" fill-opacity="1.000000" fill-rule="evenodd"/>
	<path id="Vector" d="M231.13 165.75L264.58 165.75L264.58 173.04L231.13 173.04L231.13 165.75Z" fill="#FFFFFF" fill-opacity="1.000000" fill-rule="evenodd"/>
	<path id="Vector" d="M264.58 173.73L231.13 173.73C230.75 173.73 230.43 173.42 230.43 173.04L230.43 165.75C230.43 165.37 230.75 165.06 231.13 165.06L264.58 165.06C264.96 165.06 265.27 165.37 265.27 165.75L265.27 173.1C265.23 173.46 264.93 173.73 264.58 173.73ZM231.81 172.36L263.91 172.36L263.91 166.46L231.81 166.46L231.81 172.36Z" fill="#30325B" fill-opacity="1.000000" fill-rule="nonzero"/>
	<path id="Vector" d="M222.27 266.64C222.12 266.64 222.04 266.57 222.08 266.51C222.12 266.44 222.19 266.44 222.27 266.64Z" fill="#FF5A57" fill-opacity="1.000000" fill-rule="nonzero"/>
	<path id="Vector" d="M227.16 274C226.78 274.05 226.42 273.78 226.37 273.4C226.32 273.02 226.59 272.67 226.97 272.61C250.6 265.72 276.33 257.18 277.48 254.98C278.59 252.44 276.93 219.62 275.55 198.15C275.53 197.77 275.82 197.44 276.2 197.41C276.57 197.41 276.89 197.69 276.93 198.07C277.29 203.59 280.37 251.88 278.74 255.52C277.11 259.17 235.65 271.51 227.36 273.93C227.31 273.96 227.24 273.98 227.17 273.98L227.16 274Z" fill="#30325B" fill-opacity="1.000000" fill-rule="nonzero"/>
	<path id="Vector" d="M199.53 219.7L199.06 219.7C197.89 219.82 196.84 218.96 196.72 217.79C196.6 216.62 197.45 215.58 198.62 215.46C198.77 215.46 198.92 215.46 199.07 215.46C221.26 213.17 231.67 200.64 234.03 189.62C235.69 181.89 233.48 174.8 228.52 172C223.56 169.2 218.16 169.69 212.58 173.57C209.77 175.58 207.27 178.03 205.2 180.8C204.59 181.81 203.27 182.13 202.26 181.51C201.26 180.9 200.93 179.58 201.56 178.57C201.61 178.49 201.65 178.42 201.72 178.34C206.3 171.79 218.27 161.25 230.68 168.29C237.23 172.03 240.24 180.95 238.21 190.51C235.54 202.99 223.99 217.17 199.52 219.7L199.53 219.7Z" fill="#FFFFFF" fill-opacity="1.000000" fill-rule="nonzero"/>
	<path id="Vector" d="M198.85 220.43C198.2 220.43 197.56 220.2 197.06 219.78C196.48 219.3 196.11 218.62 196.04 217.88C195.91 216.34 197.03 214.97 198.57 214.8C198.68 214.8 198.79 214.8 198.89 214.8C220.85 212.55 231.09 200.24 233.37 189.49C234.96 182.05 232.88 175.28 228.22 172.63C223.56 169.98 218.35 170.45 213.05 174.17C210.3 176.12 207.86 178.5 205.84 181.22C204.94 182.5 203.19 182.81 201.91 181.91C200.63 181.02 200.32 179.26 201.22 177.99C205.92 171.26 218.24 160.45 231.04 167.73C237.84 171.61 241.02 180.83 238.91 190.7C236.15 203.38 224.45 217.86 199.62 220.43L198.84 220.43L198.85 220.43ZM222.08 169.49C224.51 169.49 226.89 170.15 228.97 171.39C234.16 174.34 236.48 181.71 234.77 189.75C232.36 200.96 221.78 213.8 199.19 216.13L198.85 216.13C198.04 216.19 197.41 216.91 197.47 217.73C197.5 218.11 197.69 218.46 198 218.69C198.28 218.94 198.66 219.06 199.04 219.02L199.52 219.02C223.63 216.52 235 202.58 237.59 190.37C239.58 181.1 236.68 172.44 230.39 168.9C218.45 162.11 206.83 172.37 202.37 178.75C201.91 179.4 202.07 180.31 202.73 180.76C203.38 181.22 204.29 181.06 204.74 180.41C206.86 177.56 209.41 175.06 212.29 173.01C215.11 170.86 218.52 169.64 222.06 169.49L222.08 169.49Z" fill="#30325B" fill-opacity="1.000000" fill-rule="nonzero"/>
	<path id="Vector" d="M182.05 221.51C157.57 224.05 143.43 212.53 138.2 200.81C134.24 191.87 135.44 182.51 141.02 177.52C151.7 168.09 165.56 175.95 171.37 181.43C172.21 182.25 172.21 183.61 171.37 184.44C170.56 185.25 169.29 185.29 168.43 184.54C165.83 182.25 162.9 180.39 159.73 179.02C153.47 176.37 148.12 176.95 143.82 180.76C139.53 184.57 138.88 191.89 142.07 199.13C146.62 209.42 159.38 219.55 181.57 217.26L182.02 217.26C183.2 217.37 184.07 218.41 183.96 219.57C183.89 220.42 183.32 221.14 182.52 221.41L182.02 221.51L182.05 221.51Z" fill="#FFFFFF" fill-opacity="1.000000" fill-rule="nonzero"/>
	<path id="Vector" d="M175.37 222.55C154.69 222.55 142.27 211.88 137.57 201.14C133.44 191.92 134.7 182.24 140.57 177.06C151.61 167.29 165.89 175.35 171.87 180.98C173.01 182.04 173.08 183.83 172 184.97C170.94 186.12 169.15 186.18 168.01 185.11C165.48 182.87 162.6 181.03 159.5 179.67C153.51 177.13 148.47 177.69 144.34 181.29C140.21 184.89 139.68 191.91 142.75 198.85C147.19 208.92 159.72 218.85 181.56 216.58L181.98 216.58C183.53 216.41 184.91 217.52 185.09 219.07C185.27 220.62 184.15 222.01 182.6 222.18L182.13 222.18C179.88 222.43 177.63 222.54 175.37 222.54L175.37 222.55ZM152.5 173.87C148.43 173.83 144.49 175.33 141.47 178.09C136.05 182.88 134.99 191.89 138.81 200.58C143.88 211.99 157.86 223.31 181.95 220.83L182.43 220.83C183.21 220.73 183.78 220.02 183.7 219.22C183.65 218.46 183 217.89 182.24 217.94C182.19 217.94 182.15 217.94 182.11 217.94L181.75 217.94C159.09 220.3 146.09 209.89 141.46 199.41C138.13 191.91 138.9 184.24 143.39 180.24C147.87 176.25 153.5 175.63 160.02 178.39C163.28 179.81 166.28 181.74 168.95 184.09C169.53 184.63 170.44 184.61 170.98 184.02C171.53 183.44 171.5 182.53 170.92 181.98C167.15 178.42 159.95 173.85 152.5 173.85L152.5 173.87Z" fill="#30325B" fill-opacity="1.000000" fill-rule="nonzero"/>
	<path id="Vector" d="M215.65 279.01L178.42 282.88C177.09 282.98 175.93 281.99 175.82 280.66C175.77 279.94 176.03 279.23 176.54 278.73L189.61 266.85L189.75 266.85L184.86 219.59L196.48 218.38L201.33 265.56L201.46 265.56L216.63 274.51C217.78 275.18 218.18 276.65 217.52 277.8C217.13 278.48 216.44 278.93 215.65 279L215.65 279.01Z" fill="#FFFFFF" fill-opacity="1.000000" fill-rule="nonzero"/>
	<path id="Vector" d="M178.1 283.58C176.39 283.58 175.01 282.18 175.01 280.47C175.01 279.6 175.39 278.76 176.03 278.17L188.96 266.41L184.12 219.59C184.1 219.4 184.15 219.22 184.27 219.07C184.38 218.94 184.55 218.84 184.72 218.83L196.34 217.63C196.72 217.59 197.06 217.86 197.1 218.24L201.94 265.07L217.01 273.94C218.49 274.81 218.98 276.72 218.12 278.19C217.62 279.04 216.75 279.6 215.76 279.71L178.39 283.57L178.09 283.57L178.1 283.58ZM189.87 267.47L176.96 279.2C176.26 279.86 176.2 280.96 176.85 281.67C177.24 282.07 177.78 282.28 178.34 282.22L215.66 278.36C216.42 278.29 217.04 277.72 217.18 276.99C217.36 276.25 217.02 275.51 216.37 275.14L201.34 266.29C200.99 266.29 200.7 266.02 200.67 265.66L195.86 219.07L185.62 220.13L190.44 266.72C190.48 267.09 190.24 267.42 189.87 267.49L189.87 267.47Z" fill="#30325B" fill-opacity="1.000000" fill-rule="nonzero"/>
	<path id="Vector" d="M156.65 170.6L213.99 164.66L217.76 201.06C219.4 216.9 207.89 231.08 192.05 232.72C176.22 234.37 162.04 222.85 160.4 207L156.64 170.6L156.65 170.6Z" fill="#FFFFFF" fill-opacity="1.000000" fill-rule="nonzero"/>
	<path id="Vector" d="M189.03 233.58C173.93 233.55 161.28 222.12 159.72 207.09L155.96 170.68C155.96 170.51 156 170.32 156.11 170.17C156.23 170.03 156.39 169.95 156.58 169.92L213.91 164C214.29 163.97 214.63 164.24 214.67 164.62L218.41 201.02C220.07 217.24 208.3 231.74 192.09 233.43C191.07 233.54 190.05 233.58 189.03 233.58ZM157.41 171.24L161.11 206.94C162.5 222.43 176.19 233.84 191.67 232.44C207.14 231.04 218.54 217.34 217.14 201.86C217.12 201.63 217.1 201.38 217.08 201.15L213.38 165.45L157.41 171.24Z" fill="#30325B" fill-opacity="1.000000" fill-rule="nonzero"/>
	<path id="Vector" d="M186.16 175.74L192.56 190.19L208.3 188.58L196.52 199.14L202.93 213.61L189.25 205.67L177.48 216.24L180.8 200.77L167.11 192.83L182.83 191.21L186.16 175.74Z" fill="#FFFFFF" fill-opacity="1.000000" fill-rule="nonzero"/>
	<path id="Vector" d="M177.48 216.94C177.36 216.94 177.24 216.91 177.14 216.84C176.88 216.71 176.75 216.41 176.81 216.11L180.01 201.13L166.77 193.44C166.45 193.25 166.32 192.83 166.51 192.51C166.62 192.32 166.81 192.19 167.03 192.17L182.28 190.59L185.48 175.61C185.54 175.32 185.78 175.1 186.08 175.06C186.38 175.04 186.65 175.2 186.79 175.46L193 189.46L208.24 187.88C208.62 187.84 208.96 188.13 208.99 188.51C209 188.73 208.92 188.94 208.76 189.08L197.37 199.32L203.58 213.32C203.71 213.59 203.64 213.91 203.42 214.11C203.2 214.31 202.86 214.34 202.6 214.19L189.36 206.52L177.97 216.75C177.85 216.87 177.68 216.92 177.52 216.92L177.48 216.94ZM169.29 193.31L181.14 200.2C181.39 200.35 181.53 200.64 181.46 200.94L178.59 214.34L188.79 205.19C189 205 189.33 204.96 189.59 205.11L201.44 212L195.92 199.47C195.8 199.19 195.86 198.88 196.08 198.68L206.27 189.53L192.64 190.9C192.35 190.93 192.06 190.75 191.94 190.49L186.42 177.97L183.55 191.36C183.5 191.66 183.25 191.88 182.94 191.92L169.27 193.31L169.29 193.31Z" fill="#30325B" fill-opacity="1.000000" fill-rule="nonzero"/>
	<path id="Vector" d="M227.92 274.17C227.92 274.17 221.55 274.99 217.81 272.8C214.07 270.61 205.27 266.38 207.67 270.53C210.08 274.68 214.07 276.81 213.27 276.81C212.47 276.81 189.52 274.68 189.26 278.19C189 281.69 195.13 284.06 198.73 286.47C202.33 288.87 229.82 289.66 229.82 289.66L227.92 274.17Z" fill="#FFFFFF" fill-opacity="1.000000" fill-rule="nonzero"/>
	<path id="Vector" d="M229.82 290.39C226.98 290.31 202.03 289.51 198.36 287.06C197.54 286.51 196.58 285.96 195.61 285.38C192.06 283.35 188.39 281.24 188.62 278.16C188.76 276.32 191.61 274.64 211.56 276.06C209.81 274.62 208.31 272.9 207.13 270.94C206.5 269.89 206.46 269.1 206.98 268.57C208.58 266.96 215.99 270.99 218.2 272.26C221.7 274.26 227.85 273.51 227.85 273.51C228.03 273.48 228.22 273.54 228.37 273.64C228.52 273.75 228.61 273.92 228.63 274.09L230.54 289.59C230.56 289.8 230.5 289.99 230.37 290.15C230.22 290.3 230.03 290.38 229.81 290.37L229.82 290.39ZM199.18 276.93C190.18 276.93 189.95 278.19 189.95 278.31C189.78 280.51 193.21 282.44 196.23 284.21C197.28 284.81 198.26 285.36 199.13 285.95C201.88 287.77 220.92 288.71 229.05 289.01L227.32 274.99C225.53 275.14 220.68 275.33 217.47 273.49C213.34 271.14 208.98 269.36 207.97 269.58C208.04 269.82 208.13 270.07 208.27 270.29C209.53 272.31 211.15 274.11 213.03 275.57C213.88 276.28 214.22 276.57 214.03 277.11C213.9 277.41 213.6 277.6 213.27 277.61L212.14 277.55C206.52 277.04 202.31 276.89 199.18 276.89L199.18 276.93Z" fill="#30325B" fill-opacity="1.000000" fill-rule="nonzero"/>
	<path id="Vector" d="M194.07 236.58C194.45 237.17 194.07 237.96 193.69 238.51C192.29 240.54 190.57 242.31 188.57 243.76C190.2 242.5 192.14 241.68 194.18 241.38C194.94 241.27 196 241.53 195.92 242.29C195.85 242.56 195.69 242.81 195.48 242.99C194.07 244.45 192.56 245.83 190.99 247.12C192.89 246.21 195.27 245.34 196.95 246.59C197.21 246.75 197.39 247 197.47 247.3C197.54 247.79 197.13 248.18 196.73 248.48C195.23 249.69 193.62 250.79 191.96 251.77C193.72 250.86 195.8 250.76 197.62 251.54C197.93 251.63 198.2 251.85 198.35 252.15C198.42 252.42 198.39 252.69 198.28 252.95C197.06 256.73 193.62 259.34 190.12 261.23C188.42 262.14 186.45 262.96 184.6 262.32C179.49 260.51 179.6 249.39 180.67 245.09C181.39 242.86 182.85 240.96 184.8 239.68C186.12 238.62 192.56 234.26 194.07 236.58Z" fill="#FFFFFF" fill-opacity="1.000000" fill-rule="nonzero"/>
	<path id="Vector" d="M185.99 263.19C185.44 263.19 184.9 263.11 184.38 262.93C178.66 260.91 178.95 249.21 180.02 244.89C180.77 242.51 182.3 240.47 184.38 239.11C184.38 239.11 190.12 234.73 193.17 235.24C193.77 235.32 194.3 235.66 194.66 236.15C194.97 236.65 195.19 237.52 194.26 238.91C193.76 239.64 193.21 240.35 192.62 241C193.11 240.88 193.6 240.77 194.1 240.7C194.85 240.58 195.62 240.78 196.22 241.26C196.52 241.56 196.65 241.98 196.6 242.39C196.53 242.81 196.3 243.2 195.97 243.48C195.35 244.13 194.71 244.74 194.06 245.35C195.21 245.12 196.41 245.38 197.37 246.06C197.78 246.32 198.07 246.74 198.15 247.21C198.17 247.95 197.79 248.66 197.17 249.04C196.61 249.48 196.04 249.92 195.44 250.41C196.29 250.45 197.11 250.64 197.9 250.98C198.39 251.14 198.8 251.51 199 251.99C199.15 252.38 199.15 252.83 199 253.22C197.92 256.57 195.14 259.41 190.51 261.91C189.14 262.7 187.59 263.13 186 263.18L185.99 263.19ZM192.62 236.58C190.57 236.58 186.53 239.19 185.23 240.21C183.4 241.4 182.03 243.16 181.37 245.23C180.32 249.36 180.25 260.01 184.86 261.64C186.46 262.21 188.34 261.38 189.78 260.59C194.1 258.25 196.67 255.68 197.63 252.68C197.67 252.57 197.7 252.45 197.7 252.34C197.7 252.34 197.7 252.26 197.36 252.14C195.73 251.47 193.88 251.54 192.29 252.34C191.96 252.52 191.54 252.41 191.35 252.08C191.18 251.76 191.29 251.33 191.61 251.14C193.24 250.18 194.82 249.1 196.3 247.91C196.79 247.54 196.78 247.38 196.78 247.36C196.78 247.35 196.78 247.24 196.54 247.11C195.17 246.07 193 246.89 191.27 247.72C190.93 247.88 190.51 247.73 190.35 247.39C190.21 247.11 190.29 246.75 190.54 246.56C192.1 245.27 193.58 243.88 194.98 242.43C195.09 242.35 195.17 242.24 195.23 242.13C194.93 241.99 194.6 241.94 194.27 241.99C192.49 242.25 190.8 242.95 189.33 243.99L188.98 244.24C188.69 244.47 188.27 244.41 188.05 244.13C188.05 244.13 188.04 244.11 188.02 244.1C187.81 243.8 187.86 243.37 188.15 243.14L188.5 242.88C190.29 241.53 191.84 239.9 193.12 238.06C193.47 237.52 193.64 237.1 193.49 236.9C193.36 236.72 193.16 236.61 192.94 236.6L192.62 236.6L192.62 236.58Z" fill="#30325B" fill-opacity="1.000000" fill-rule="nonzero"/>
	<path id="Vector" d="M248.94 267.13C248.56 267.13 248.25 266.82 248.25 266.44L248.25 173.1C248.25 172.72 248.56 172.41 248.94 172.41C249.32 172.41 249.62 172.72 249.63 173.1L249.63 266.52C249.59 266.87 249.29 267.13 248.94 267.15L248.94 267.13Z" fill="#30325B" fill-opacity="1.000000" fill-rule="nonzero"/>
	<path id="Vector" d="M249.91 148.65C246.96 148.63 244.24 147.01 242.81 144.42C242.59 144.11 242.66 143.68 242.96 143.45C243.26 143.22 243.7 143.3 243.93 143.6C243.95 143.64 243.98 143.68 243.99 143.72C245.26 145.98 247.68 147.34 250.26 147.25C250.63 147.21 250.97 147.46 251.02 147.83C251.02 147.83 251.02 147.84 251.02 147.86C251.06 148.24 250.79 148.58 250.41 148.62C250.41 148.62 250.19 148.65 249.89 148.65L249.91 148.65Z" fill="#30325B" fill-opacity="1.000000" fill-rule="nonzero"/>
	<path id="Vector" d="M196.61 242.74C196.68 244.07 197.32 245.31 198.37 246.15C198.69 246.36 199.06 246.44 199.44 246.4C202.2 245.91 202.5 238.46 201.03 236.64C200.02 235.43 198.24 235.25 197.02 236.23C195.46 237.59 196.34 240.99 196.63 242.74L196.61 242.74Z" fill="#FFFFFF" fill-opacity="1.000000" fill-rule="nonzero"/>
	<path id="Vector" d="M199.23 247.09C198.8 247.09 198.39 246.96 198.03 246.74C196.8 245.8 196.04 244.39 195.95 242.85L195.82 242.22C195.46 240.23 194.89 237.19 196.57 235.7C197.25 235.1 198.15 234.83 199.06 234.91C200.04 234.98 200.95 235.44 201.59 236.19C202.78 237.67 202.96 241.93 201.95 244.62C201.27 246.41 200.28 246.94 199.57 247.06L199.25 247.09L199.23 247.09ZM197.29 242.62C197.33 243.75 197.83 244.79 198.66 245.54C198.84 245.66 199.06 245.72 199.28 245.71C199.95 245.58 200.39 244.67 200.65 244.13C201.53 241.79 201.3 238.04 200.5 237.04C200.1 236.58 199.55 236.31 198.94 236.27C198.41 236.2 197.88 236.37 197.47 236.71C196.38 237.67 196.87 240.35 197.18 241.95L197.28 242.61L197.29 242.62Z" fill="#30325B" fill-opacity="1.000000" fill-rule="nonzero"/>
	<path id="Vector" d="M444.04 75.81C444.61 77.57 444.86 79.4 444.76 81.24C444.79 85.86 443.61 90.42 441.34 94.44C439.43 97.63 434.84 102.72 430.66 102.72C426.77 102.72 426.95 101.14 427.61 97.77C428.28 94.4 428.99 86.55 430.49 83.4C432.88 78.22 433.36 72.62 434.87 67.21C438.51 68.76 442.61 71.97 444.04 75.8L444.04 75.81Z" fill="#FFFFFF" fill-opacity="1.000000" fill-rule="nonzero"/>
	<path id="Vector" d="M430.81 103.41L430.72 103.41C429.43 103.59 428.14 103.18 427.19 102.3C426.31 101.21 426.63 99.54 427.01 97.65C427.21 96.66 427.41 95.3 427.64 93.81C428.2 90.09 428.88 85.44 429.96 83.11C431.35 79.78 432.35 76.3 432.95 72.75C433.35 70.88 433.75 68.93 434.33 67.04C434.38 66.85 434.52 66.69 434.69 66.61C434.87 66.53 435.07 66.53 435.26 66.61C438.67 67.98 443.23 71.26 444.82 75.61C445.41 77.45 445.67 79.36 445.58 81.28C445.6 86.04 444.39 90.73 442.06 94.88C439.87 98.33 435.21 103.43 430.81 103.43L430.81 103.41ZM435.33 68.23C434.91 69.85 434.56 71.49 434.23 73.08C433.61 76.74 432.57 80.31 431.15 83.74C430.15 85.87 429.47 90.42 428.94 94.06C428.71 95.58 428.51 96.94 428.31 97.95C427.97 99.73 427.76 100.93 428.2 101.47C428.63 102.01 429.34 102.07 430.68 102.08C434.3 102.08 438.8 97.5 440.77 94.18C442.98 90.24 444.12 85.79 444.1 81.27C444.19 79.51 443.96 77.77 443.42 76.1C442.15 72.63 438.58 69.72 435.34 68.21L435.33 68.23Z" fill="#30325B" fill-opacity="1.000000" fill-rule="nonzero"/>
	<path id="Vector" d="M319.97 307.88L319.97 328.95L392.2 327.25L391.94 286.97L319.97 307.88Z" fill="#30325B" fill-opacity="1.000000" fill-rule="nonzero"/>
	<path id="Vector" d="M319.97 329.64C319.59 329.64 319.27 329.33 319.27 328.95L319.27 307.88C319.27 307.57 319.48 307.31 319.78 307.21L391.75 286.25C391.96 286.18 392.19 286.22 392.36 286.34C392.53 286.48 392.64 286.68 392.64 286.9L392.88 327.2C392.88 327.58 392.58 327.88 392.2 327.89L319.98 329.59L319.95 329.64L319.97 329.64ZM320.66 308.41L320.66 328.26L391.5 326.6L391.26 287.89L320.66 308.41Z" fill="#30325B" fill-opacity="1.000000" fill-rule="nonzero"/>
	<path id="Vector" d="M376.55 313.86C376.55 313.86 381.4 316.92 382.27 316.62C383.14 316.32 387.45 314.76 389.06 314.8C390.68 314.84 391.89 315.35 394.1 317.74C396.32 320.11 398.23 321.13 396.44 323.43C396.44 323.43 399.78 324.02 397.05 327.81C394.32 331.6 391.54 334.38 389.78 334.57C388.03 334.76 364.22 322.48 364.22 322.48L376.53 313.86L376.55 313.86Z" fill="#FFFFFF" fill-opacity="1.000000" fill-rule="nonzero"/>
	<path id="Vector" d="M389.8 335.27C387.69 335.27 369.5 325.99 363.92 323.12C363.71 323.01 363.56 322.79 363.56 322.55C363.53 322.3 363.64 322.07 363.84 321.94L376.14 313.25C376.37 313.1 376.68 313.1 376.91 313.25C378.55 314.38 380.3 315.3 382.15 316.01L383.08 315.7C385.01 314.92 387.02 314.42 389.09 314.17C391.1 314.17 392.46 314.99 394.61 317.33C394.99 317.74 395.37 318.1 395.71 318.44C397.19 319.92 398.47 321.2 397.49 323.15C398 323.42 398.41 323.85 398.64 324.38C399.05 325.42 398.71 326.74 397.61 328.26C395.79 330.77 392.38 335.03 389.86 335.3L389.81 335.26L389.8 335.27ZM365.57 322.41C374.56 327.03 388.3 333.83 389.76 333.9C391.13 333.75 393.76 331.21 396.5 327.42C397.28 326.34 397.58 325.43 397.37 324.87C397.15 324.49 396.77 324.22 396.33 324.14C396.09 324.08 395.9 323.92 395.8 323.7C395.72 323.49 395.75 323.23 395.9 323.04C396.93 321.66 396.48 321.12 394.73 319.38C394.38 319.03 394 318.65 393.6 318.22C391.5 315.97 390.46 315.55 389.05 315.46C387.16 315.75 385.31 316.24 383.53 316.92L382.46 317.26C381.71 317.46 379.7 316.57 376.59 314.59L365.57 322.4L365.57 322.41Z" fill="#30325B" fill-opacity="1.000000" fill-rule="nonzero"/>
	<path id="Vector" d="M343.07 189.13C343.07 189.13 315.18 202.04 309.97 215.47C304.75 228.9 316.47 312.83 316.47 312.83C316.47 312.83 369.78 312.05 394.31 295.83C394.31 295.83 396.09 217.74 397.28 215.92C398.48 214.1 428.74 148.93 431.12 143.52C433.5 138.11 448.19 86.09 448.19 86.09L428.88 83.92C428.88 83.92 411.66 129.53 409.19 134.19C406.71 138.86 375.98 188.3 375.98 188.3L343.08 189.16L343.07 189.13Z" fill="#FF5A57" fill-opacity="1.000000" fill-rule="nonzero"/>
	<path id="Vector" d="M429.07 53.04L428.74 53.29C427.91 53.91 426.73 53.75 426.1 52.92C425.48 52.09 425.64 50.91 426.47 50.28C426.57 50.19 426.68 50.1 426.78 50.05C442.19 38.13 444.16 24.06 440.83 14.8C438.5 8.3 433.62 4.06 428.69 4.26C423.75 4.46 419.94 7.29 417.58 12.74C416.4 15.53 415.68 18.49 415.42 21.51C415.3 22.53 414.36 23.27 413.35 23.13C412.41 23.02 411.71 22.22 411.71 21.28C412.09 14.31 416.13 1 428.55 0.59C435.11 0.34 441.46 5.57 444.34 13.6C448.1 24.07 446.04 39.93 429.05 53.05L429.07 53.04Z" fill="#FFFFFF" fill-opacity="1.000000" fill-rule="nonzero"/>
	<path id="Vector" d="M427.61 54.43L427.27 54.43C425.89 54.25 424.89 52.99 425.06 51.6C425.14 50.92 425.49 50.31 426.04 49.89C426.04 49.89 426.17 49.76 426.27 49.7C441.43 37.95 443.42 24.16 440.18 15.2C437.97 8.99 433.37 4.94 428.71 5.12C424.05 5.29 420.44 8 418.22 13.19C417.08 15.91 416.38 18.78 416.12 21.7C415.97 23.1 414.72 24.12 413.32 23.97C412.01 23.84 411.02 22.72 411.03 21.4C411.43 14.21 415.61 0.48 428.54 0C435.43 -0.27 442.03 5.17 445.01 13.48C448.84 24.08 446.79 40.23 429.43 53.61L429.11 53.86C428.69 54.21 428.17 54.41 427.63 54.44L427.61 54.43ZM429.07 3.61C434.19 3.61 439.18 7.99 441.55 14.65C444.95 24.1 442.93 38.53 427.26 50.68L427.12 50.78L426.95 50.92C426.44 51.31 426.35 52.04 426.74 52.55C426.93 52.8 427.2 52.96 427.52 53C427.83 53.04 428.14 52.96 428.39 52.77L428.7 52.52C445.4 39.62 447.42 24.08 443.76 13.89C441 6.14 434.95 1.07 428.59 1.32C416.66 1.77 412.79 14.67 412.41 21.43C412.31 22.07 412.75 22.67 413.39 22.76C414.02 22.86 414.62 22.42 414.72 21.79C414.72 21.72 414.73 21.65 414.72 21.57C415 18.45 415.76 15.4 416.99 12.51C419.46 6.8 423.4 3.81 428.7 3.61L429.04 3.61L429.07 3.61Z" fill="#30325B" fill-opacity="1.000000" fill-rule="nonzero"/>
	<path id="Vector" d="M416.92 62.44C399.95 75.57 384.1 73.57 374.9 67.29C367.87 62.48 364.41 55.01 366.32 48.7C369.9 36.79 383.79 36.29 390.63 37.66C391.63 37.87 392.28 38.85 392.09 39.85C391.9 40.86 390.91 41.51 389.91 41.32C386.93 40.82 383.89 40.78 380.88 41.2C375.03 42.12 371.33 45.02 369.85 49.81C368.37 54.59 371.3 60.34 376.98 64.24C385.11 69.76 399.21 71.44 414.62 59.53L414.93 59.28C415.75 58.64 416.92 58.79 417.54 59.61C418.18 60.42 418.03 61.59 417.22 62.22L416.92 62.44Z" fill="#FFFFFF" fill-opacity="1.000000" fill-rule="nonzero"/>
	<path id="Vector" d="M391.39 72.86C385.39 72.92 379.51 71.18 374.52 67.86C367.23 62.88 363.67 55.09 365.65 48.54C369.37 36.13 383.71 35.57 390.76 36.98C392.15 37.26 393.04 38.62 392.76 39.99C392.49 41.38 391.13 42.27 389.76 41.99C386.86 41.5 383.9 41.46 380.98 41.88C375.46 42.75 371.89 45.48 370.53 50.01C369.17 54.54 371.9 59.95 377.42 63.67C385.29 69.03 399.08 70.63 414.24 58.94L414.54 58.71C415.64 57.84 417.24 58.03 418.1 59.15C418.97 60.25 418.78 61.85 417.68 62.72L417.41 62.94C408.06 70.14 399.06 72.86 391.37 72.86L391.39 72.86ZM385 37.87C378.11 37.87 369.6 40.19 366.95 48.91C365.15 54.92 368.5 62.07 375.23 66.7C384.21 72.85 399.74 74.79 416.44 61.89L416.71 61.69C416.96 61.5 417.12 61.21 417.15 60.9C417.24 60.57 417.19 60.22 417 59.95C416.61 59.44 415.87 59.35 415.36 59.74L415.13 59.92C399.34 72.12 384.88 70.39 376.59 64.72C370.65 60.67 367.66 54.55 369.18 49.55C370.71 44.54 374.6 41.4 380.76 40.45C383.83 40 386.97 40.04 390.03 40.57C390.67 40.7 391.28 40.27 391.4 39.64C391.52 39 391.1 38.39 390.46 38.26C388.66 37.95 386.82 37.83 384.99 37.87L385 37.87Z" fill="#30325B" fill-opacity="1.000000" fill-rule="nonzero"/>
	<path id="Vector" d="M468.3 89.63L442.4 109.63C441.47 110.35 440.15 110.17 439.43 109.26C439.03 108.73 438.89 108.02 439.07 107.38L443.31 92.56L443.4 92.5L418.05 59.7L426.12 53.46L451.49 86.28L451.58 86.28L466.99 85.93C468.16 85.97 469.07 86.94 469.03 88.1C469.02 88.7 468.74 89.26 468.3 89.64L468.3 89.63Z" fill="#FFFFFF" fill-opacity="1.000000" fill-rule="nonzero"/>
	<path id="Vector" d="M441.11 110.8C440.55 110.8 439.99 110.62 439.53 110.29C438.52 109.63 438.08 108.38 438.42 107.22L442.55 92.58L417.52 60.11C417.39 59.96 417.34 59.78 417.37 59.59C417.39 59.42 417.49 59.25 417.64 59.15L425.7 52.91C426 52.69 426.43 52.74 426.66 53.03L451.73 85.49L466.9 85.15C468.13 85.09 469.26 85.85 469.65 87.02C470.08 88.16 469.7 89.44 468.73 90.16L442.82 110.2C442.33 110.59 441.72 110.8 441.09 110.8L441.11 110.8ZM443.86 92.99L439.73 107.6C439.56 108.19 439.79 108.82 440.3 109.16C440.79 109.55 441.49 109.55 441.98 109.16L467.89 89.12C468.39 88.76 468.58 88.1 468.36 87.52C468.16 86.94 467.6 86.55 466.99 86.58L451.72 86.94C451.62 86.95 451.53 86.95 451.45 86.94C451.26 86.94 451.08 86.85 450.93 86.72L426.02 54.43L419.04 59.83L443.97 92.09C444.18 92.36 444.16 92.74 443.93 92.99L443.88 92.99L443.86 92.99Z" fill="#30325B" fill-opacity="1.000000" fill-rule="nonzero"/>
	<path id="Vector" d="M374.73 36.4L414.54 5.62L434.05 30.89C442.55 41.89 440.52 57.7 429.53 66.2C418.54 74.71 402.73 72.69 394.24 61.67L374.73 36.4Z" fill="#FFFFFF" fill-opacity="1.000000" fill-rule="nonzero"/>
	<path id="Vector" d="M414.17 72.12C413.06 72.12 411.95 72.05 410.83 71.9C404.02 71.06 397.84 67.51 393.67 62.06L374.16 36.79C374.03 36.66 373.98 36.47 374.02 36.28C374.03 36.1 374.13 35.92 374.28 35.83L414.08 5.06C414.38 4.83 414.81 4.89 415.04 5.18L434.56 30.45C443.28 41.74 441.2 57.98 429.92 66.7C425.42 70.21 419.88 72.12 414.17 72.12ZM375.64 36.48L394.74 61.2C402.99 71.9 418.36 73.87 429.04 65.62C429.04 65.62 429.04 65.62 429.05 65.62C439.75 57.36 441.72 41.99 433.47 31.3C433.47 31.3 433.47 31.3 433.47 31.29L414.39 6.58L375.65 36.51L375.64 36.48Z" fill="#30325B" fill-opacity="1.000000" fill-rule="nonzero"/>
	<path id="Vector" d="M398.93 26.6L410.33 34.37L421.25 25.93L417.38 39.19L428.79 46.98L414.98 47.39L411.12 60.64L406.46 47.64L392.66 48.04L403.59 39.61L398.93 26.6Z" fill="#FFFFFF" fill-opacity="1.000000" fill-rule="nonzero"/>
	<path id="Vector" d="M411.1 61.32C410.82 61.32 410.56 61.13 410.45 60.87L405.97 48.34L392.68 48.72C392.38 48.72 392.12 48.54 392.01 48.27C391.92 48.01 391.97 47.71 392.17 47.52L402.69 39.38L398.26 26.82C398.17 26.53 398.26 26.22 398.49 26.04C398.74 25.86 399.06 25.86 399.31 26.04L410.34 33.53L420.82 25.43C421.13 25.2 421.55 25.27 421.78 25.58C421.91 25.74 421.95 25.96 421.89 26.16L418.16 38.94L429.19 46.45C429.43 46.61 429.56 46.92 429.46 47.21C429.38 47.49 429.11 47.7 428.81 47.71L415.52 48.09L411.78 60.87C411.7 61.16 411.44 61.36 411.14 61.38L411.08 61.32L411.1 61.32ZM406.46 46.94C406.74 46.94 407 47.11 407.11 47.39L411.05 58.43L414.32 47.21C414.42 46.92 414.68 46.73 414.98 46.72L426.65 46.38L417 39.79C416.76 39.62 416.63 39.31 416.73 39.02L420.02 27.81L410.78 34.96C410.53 35.14 410.21 35.14 409.96 34.96L400.31 28.37L404.25 39.4C404.35 39.69 404.25 40 404.02 40.18L394.78 47.33L406.47 46.99L406.5 46.95L406.46 46.94Z" fill="#30325B" fill-opacity="1.000000" fill-rule="nonzero"/>
	<path id="Vector" d="M344.6 129.6C347.86 125.29 352.54 121.7 357.21 121.73C360.83 121.67 364.05 124.01 365.13 127.46C367.84 123.07 373.59 121.7 377.99 124.39C379.69 125.62 381.03 127.26 381.9 129.16C386.03 137.55 383.27 147.68 385.16 156.86C385.5 158.52 386.54 160.53 388.21 160.27C388.97 162.19 387.38 164.4 385.45 164.99C383.42 165.41 381.3 165.12 379.46 164.17C377.62 163.23 375.68 162.55 373.67 162.15C369.18 161.63 364.74 163.98 360.45 164.91C355.32 165.93 350.13 166.65 344.98 167.53C342.37 168.16 339.66 168.22 337.01 167.71C333.87 166.81 331.42 164.36 330.51 161.24C331.1 161.93 332.1 162.09 332.88 161.6C333.61 161.13 334.21 160.45 334.59 159.66C337.18 155.27 338.87 150.39 339.53 145.33C339.74 142.58 340.15 139.85 340.73 137.16C341.56 134.42 342.88 131.86 344.6 129.59L344.6 129.6Z" fill="#FFFFFF" fill-opacity="1.000000" fill-rule="nonzero"/>
	<path id="Vector" d="M339.97 168.71C338.89 168.71 337.84 168.59 336.8 168.32C333.45 167.38 330.8 164.77 329.82 161.43C329.72 161.1 329.87 160.75 330.18 160.61C330.48 160.47 330.85 160.57 331.04 160.84C331.44 161.22 332.03 161.3 332.51 161C333.11 160.57 333.58 159.98 333.88 159.31C336.42 154.98 338.08 150.2 338.75 145.23C338.85 144.42 338.94 143.6 339.02 142.77C339.15 140.82 339.47 138.87 339.95 136.97C340.82 134.17 342.18 131.54 343.96 129.23C347.81 124.12 352.69 121.09 357.04 121.09L357.12 121.09C360.53 121.09 363.65 122.98 365.23 126C366.64 124.3 368.59 123.11 370.75 122.64C373.34 121.97 376.1 122.41 378.34 123.86C380.14 125.15 381.56 126.89 382.47 128.89C385.03 134.06 385.04 139.93 385.04 145.55C384.92 149.3 385.18 153.05 385.79 156.75C386.05 158 386.88 159.81 388.06 159.62C388.37 159.56 388.68 159.74 388.8 160.04C389.17 161.02 389.1 162.12 388.63 163.04C388 164.29 386.9 165.25 385.57 165.67C383.38 166.12 381.11 165.82 379.12 164.82L377.93 164.31C376.55 163.6 375.05 163.11 373.52 162.84C370.58 162.74 367.67 163.25 364.94 164.31C363.49 164.8 362.01 165.21 360.51 165.53C357.09 166.23 353.62 166.77 350.19 167.31L345.02 168.16C343.35 168.47 341.65 168.65 339.94 168.69L339.97 168.71ZM331.69 162.5C332.81 164.69 334.76 166.31 337.13 166.99C339.67 167.46 342.29 167.39 344.81 166.78L349.97 165.94C353.35 165.4 356.86 164.85 360.24 164.17C361.7 163.85 363.12 163.45 364.54 162.99C367.44 161.85 370.56 161.33 373.68 161.47C375.35 161.74 376.98 162.27 378.5 163.03L379.66 163.55C381.36 164.4 383.3 164.69 385.18 164.34C386.14 164.02 386.94 163.34 387.39 162.43C387.61 162.01 387.7 161.52 387.65 161.06C385.96 160.91 384.89 159.05 384.44 157.09C383.8 153.3 383.55 149.45 383.67 145.61C383.67 139.88 383.67 134.45 381.24 129.57C380.42 127.78 379.16 126.23 377.55 125.07C373.52 122.58 368.22 123.81 365.69 127.83C365.56 128.08 365.28 128.21 365 128.17C364.71 128.13 364.48 127.93 364.41 127.64C363.41 124.49 360.46 122.37 357.14 122.43C353.16 122.43 348.72 125.19 345.1 130.02C343.42 132.21 342.14 134.67 341.31 137.31C340.87 139.12 340.57 140.96 340.42 142.83C340.34 143.67 340.25 144.5 340.15 145.34C339.44 150.48 337.73 155.44 335.12 159.93C334.66 160.83 333.98 161.58 333.13 162.12C332.7 162.38 332.21 162.51 331.71 162.51L331.68 162.51L331.69 162.5Z" fill="#30325B" fill-opacity="1.000000" fill-rule="nonzero"/>
	<path id="Vector" d="M371.11 172.07L371.11 186.22C368.86 190.94 363.46 193.25 358.5 191.62C349.25 189.23 348.15 182.57 348.15 182.57L348.65 156.35C348.65 155.96 351.59 153.35 351.93 152.67C353.3 149.82 353.83 146.17 354.93 143.09C355.45 141.53 356.08 140.03 356.84 138.59C358.22 136.22 360.74 134.09 363.37 134.81C365.99 135.53 366.98 138.22 367.38 140.69C368.22 138.64 370.35 137.4 372.55 137.72C374.22 137.97 377.32 140.73 377.95 141.85C378.69 143.22 378.57 145.89 378.76 147.37C379.52 153.09 380.47 159.28 379.66 165.04C378.63 172.11 371.26 171.96 371.13 172.07L371.11 172.07Z" fill="#FFFFFF" fill-opacity="1.000000" fill-rule="nonzero"/>
	<path id="Vector" d="M361.85 192.76C360.65 192.76 359.45 192.6 358.3 192.29C348.72 189.8 347.47 182.96 347.41 182.64C347.36 182.31 347.92 156.52 347.92 156.29C347.92 155.85 348.24 155.48 349.74 153.96C350.28 153.45 350.78 152.89 351.26 152.3C352.06 150.53 352.67 148.69 353.09 146.78C353.43 145.48 353.79 144.11 354.24 142.84C354.77 141.25 355.42 139.7 356.21 138.22C357.7 135.59 360.53 133.31 363.5 134.09C365.61 134.85 367.17 136.65 367.63 138.84C368.87 137.42 370.76 136.71 372.62 136.97C374.6 137.28 377.84 140.26 378.5 141.52C379.03 142.88 379.31 144.32 379.28 145.79C379.28 146.36 379.35 146.88 379.4 147.31L379.56 148.61C380.3 154.13 381.06 159.74 380.28 165.16C379.69 169.46 376.67 172.06 371.81 172.63L371.81 186.17C371.81 186.27 371.81 186.36 371.81 186.44C369.97 190.29 366.1 192.74 361.83 192.76L361.85 192.76ZM349.29 156.55C349.29 158.07 349.02 171.36 348.79 182.61C348.79 182.73 349.96 188.75 358.64 190.98C366.67 193.05 369.9 187.07 370.38 186.1L370.38 172.1C370.38 171.88 370.47 171.68 370.64 171.54C370.83 171.42 371.04 171.36 371.26 171.38C375.72 171 378.36 168.81 378.87 165.06C379.62 159.81 378.87 154.23 378.15 148.85L377.99 147.56C377.92 147.11 377.89 146.54 377.85 145.94C377.88 144.68 377.68 143.42 377.24 142.24C376 140.53 374.31 139.21 372.35 138.41C370.46 138.15 368.64 139.2 367.93 140.96C367.89 141.35 367.55 141.62 367.17 141.59C366.79 141.55 366.52 141.21 366.55 140.83C366.37 139.75 365.6 136.19 363.03 135.49C360.77 134.86 358.48 136.86 357.29 138.94C356.55 140.35 355.92 141.82 355.42 143.34C355 144.55 354.64 145.9 354.32 147.18C353.88 149.19 353.23 151.15 352.37 153.01C351.86 153.74 351.27 154.41 350.61 155.01C350.23 155.5 349.49 156.21 349.29 156.55Z" fill="#30325B" fill-opacity="1.000000" fill-rule="nonzero"/>
	<path id="Vector" d="M354.06 155.97C353.76 154.7 353.05 153.54 352.05 152.7C351.07 151.95 349.98 151.38 348.81 151C348.19 150.74 347.52 150.6 346.86 150.62C346.37 150.69 345.91 150.85 345.49 151.09C344.47 151.57 343.66 152.38 343.22 153.42C342.94 154.27 342.89 155.19 343.05 156.07C343.15 157.05 343.38 158 343.73 158.91C345.28 162.68 349.59 164.47 353.35 162.92C353.35 162.92 353.38 162.92 353.39 162.91L354.06 155.97Z" fill="#FFFFFF" fill-opacity="1.000000" fill-rule="nonzero"/>
	<path id="Vector" d="M350.57 164.16C347.31 164.16 344.37 162.17 343.13 159.17C342.77 158.2 342.52 157.18 342.41 156.15C342.22 155.16 342.29 154.14 342.6 153.17C343.11 151.99 344.03 151.04 345.2 150.5C345.69 150.21 346.23 150.03 346.79 149.95C347.56 149.92 348.34 150.06 349.05 150.36C350.28 150.77 351.45 151.38 352.48 152.17C353.61 153.11 354.39 154.4 354.71 155.82C354.81 156.19 354.59 156.56 354.22 156.65C354.22 156.65 354.21 156.65 354.2 156.65C353.83 156.74 353.45 156.5 353.37 156.14C353.09 155.01 352.47 153.99 351.59 153.24C350.68 152.55 349.66 152.02 348.57 151.66C348.05 151.43 347.5 151.31 346.93 151.32C346.55 151.38 346.18 151.51 345.85 151.71C345 152.11 344.3 152.81 343.9 153.66C343.66 154.41 343.62 155.21 343.77 155.99C343.87 156.9 344.07 157.8 344.4 158.65C345.8 162.07 349.7 163.7 353.11 162.3C353.14 162.3 353.16 162.27 353.19 162.27C353.54 162.12 353.94 162.28 354.09 162.62C354.24 162.98 354.09 163.37 353.73 163.53C352.73 163.95 351.65 164.17 350.58 164.17L350.57 164.16Z" fill="#30325B" fill-opacity="1.000000" fill-rule="nonzero"/>
	<path id="Vector" d="M367.72 149.04C367.72 149.04 372.73 156.21 371.6 157.5C370.47 158.79 367.21 158.01 367.21 158.01L367.72 149.04Z" fill="#FFFFFF" fill-opacity="1.000000" fill-rule="nonzero"/>
	<path id="Vector" d="M369.22 158.92C368.49 158.92 367.77 158.83 367.06 158.68C366.68 158.6 366.44 158.22 366.53 157.84C366.61 157.46 367 157.21 367.38 157.31C368.31 157.52 370.43 157.74 371.09 157.02C371.34 156.35 369.51 152.78 367.16 149.42C366.94 149.11 367.02 148.67 367.34 148.46C367.63 148.24 368.06 148.31 368.27 148.61C370.26 151.45 373.41 156.45 372.1 157.92C371.32 158.64 370.27 159 369.21 158.92L369.22 158.92Z" fill="#30325B" fill-opacity="1.000000" fill-rule="nonzero"/>
	<path id="Vector" d="M363.81 145.75C364.47 145.8 364.96 146.59 364.9 147.53C364.84 148.47 364.25 149.19 363.59 149.15C362.93 149.1 362.45 148.31 362.51 147.37C362.57 146.44 363.15 145.71 363.81 145.75Z" fill="#30325B" fill-opacity="1.000000" fill-rule="evenodd"/>
	<path id="Vector" d="M375.27 147.42C375.33 148.36 374.85 149.15 374.19 149.2C373.53 149.24 372.95 148.52 372.89 147.58C372.82 146.64 373.31 145.85 373.96 145.81C374.62 145.76 375.21 146.49 375.27 147.42Z" fill="#30325B" fill-opacity="1.000000" fill-rule="evenodd"/>
	<path id="Vector" d="M368 163.22C365.24 163.22 361.48 162.78 359.03 160.79C358.73 160.56 358.68 160.13 358.91 159.84C358.91 159.84 358.91 159.84 358.92 159.82C359.17 159.52 359.6 159.48 359.9 159.73C363.69 162.8 371.56 161.59 371.63 161.58C372.01 161.52 372.36 161.78 372.43 162.16C372.49 162.54 372.23 162.89 371.86 162.95C370.58 163.14 369.31 163.23 368.01 163.22L368 163.22Z" fill="#30325B" fill-opacity="1.000000" fill-rule="nonzero"/>
	<path id="Vector" d="M371.11 172.07C371.11 172.07 362.29 174.07 357.13 171.09C357.13 171.09 362.82 182.99 371.09 181.78L371.11 172.07Z" fill="#30325B" fill-opacity="1.000000" fill-rule="nonzero"/>
	<path id="Vector" d="M369.88 182.55C361.94 182.55 356.72 171.85 356.48 171.39C356.36 171.11 356.42 170.78 356.64 170.58C356.86 170.37 357.2 170.34 357.46 170.49C362.33 173.25 370.87 171.41 370.95 171.39C371.15 171.34 371.37 171.39 371.53 171.53C371.7 171.65 371.79 171.85 371.79 172.07L371.79 181.72C371.79 182.06 371.53 182.36 371.19 182.42C370.76 182.49 370.31 182.54 369.88 182.55ZM358.72 172.55C360.58 175.61 364.88 181.52 370.39 181.14L370.39 172.86C368.37 173.27 363.01 174 358.72 172.55Z" fill="#30325B" fill-opacity="1.000000" fill-rule="nonzero"/>
	<path id="Vector" d="M374.18 186.35L374.63 193.74L343.07 189.13L345.28 181.87L374.18 186.35Z" fill="#FFFFFF" fill-opacity="1.000000" fill-rule="nonzero"/>
	<path id="Vector" d="M374.63 194.44L374.54 194.44L342.98 189.81C342.78 189.79 342.6 189.68 342.5 189.5C342.39 189.34 342.36 189.12 342.41 188.93L344.62 181.67C344.71 181.34 345.04 181.13 345.38 181.18L374.33 185.65C374.66 185.71 374.89 185.98 374.92 186.31L375.35 193.7C375.35 193.91 375.28 194.11 375.13 194.26C375 194.4 374.81 194.45 374.62 194.44L374.63 194.44ZM343.92 188.56L373.84 192.95L373.49 186.95L345.73 182.65L343.94 188.55L343.92 188.56Z" fill="#30325B" fill-opacity="1.000000" fill-rule="nonzero"/>
	<path id="Vector" d="M331.15 233.95C331.15 233.95 337.97 281.92 341.06 285.89C344.14 289.86 380.27 313.85 380.27 313.85L367.36 325.99C367.36 325.99 324.78 316.96 320.05 307.86C315.32 298.77 308.81 234.19 308.81 234.19L331.15 233.95Z" fill="#FF5A57" fill-opacity="1.000000" fill-rule="nonzero"/>
	<path id="Vector" d="M375.01 305.08L374.86 305.08C374.5 305 374.25 304.63 374.33 304.26C377.66 289.6 362.33 193.14 362.19 192.17C362.12 191.8 362.36 191.45 362.73 191.38C362.73 191.38 362.73 191.38 362.74 191.38C363.12 191.32 363.48 191.58 363.54 191.96C364.18 195.93 379.06 289.65 375.68 304.57C375.6 304.87 375.31 305.09 375 305.09L375.01 305.08Z" fill="#30325B" fill-opacity="1.000000" fill-rule="nonzero"/>
	<path id="Vector" d="M380.27 314.58C380.15 314.58 380.03 314.55 379.92 314.49C376.07 312.23 342.2 292.12 340.4 286.1C338.61 280.07 331.24 221.83 330.93 219.34C330.93 219 331.18 218.7 331.52 218.64C331.88 218.6 332.22 218.85 332.28 219.23C332.36 219.85 339.97 279.95 341.71 285.76C343.08 290.42 370.26 307.25 380.6 313.36C380.92 313.56 381.03 313.98 380.84 314.31C380.71 314.47 380.49 314.58 380.27 314.57L380.27 314.58Z" fill="#30325B" fill-opacity="1.000000" fill-rule="nonzero"/>
	<path id="Vector" d="M437.25 61.88C434.3 64.64 432.29 68.25 431.51 72.22C431.36 72.63 431.44 73.09 431.7 73.43C431.96 73.62 432.3 73.71 432.61 73.62C433.84 73.49 434.91 72.78 435.55 71.74C435.22 72.88 434.46 73.86 434.18 75.01C433.89 76.17 434.18 77.68 435.36 77.99C436.32 78.08 437.29 77.73 437.95 77.01C437.52 77.77 437.26 78.61 437.18 79.5C437.11 80.4 437.61 81.22 438.43 81.58C439.5 81.92 440.55 81.05 441.34 80.21C440.24 81.03 440.02 82.6 440.85 83.7C440.98 83.89 441.15 84.05 441.34 84.19C442.7 85.05 444.42 85.09 445.82 84.3C448.81 82.92 450.44 79.47 450.89 76.17C451.35 72.92 450.64 69.6 448.86 66.84C447.51 64.83 445.48 63.36 443.14 62.71C441.09 62.14 439.09 60.15 437.26 61.88L437.25 61.88Z" fill="#FFFFFF" fill-opacity="1.000000" fill-rule="nonzero"/>
	<path id="Vector" d="M443.46 85.62C442.52 85.63 441.61 85.34 440.85 84.79C440.09 84.16 439.62 83.22 439.61 82.23C439.16 82.37 438.69 82.37 438.24 82.23C437.11 81.8 436.4 80.68 436.49 79.47C436.5 79.19 436.54 78.89 436.59 78.6C436.15 78.74 435.67 78.74 435.22 78.6C433.74 77.98 433.01 76.29 433.56 74.78C433.65 74.52 433.73 74.26 433.84 74.01C433.5 74.14 433.13 74.22 432.76 74.26C432.27 74.35 431.77 74.21 431.39 73.9C430.94 73.39 430.78 72.69 430.98 72.03C431.74 67.94 433.77 64.19 436.78 61.32C438.48 59.76 440.29 60.63 441.73 61.32C442.25 61.58 442.78 61.81 443.33 62C445.81 62.68 447.97 64.22 449.44 66.34C451.34 69.29 452.07 72.85 451.5 76.32C450.96 80.35 448.93 83.6 446.07 84.98C445.26 85.39 444.38 85.6 443.47 85.62L443.46 85.62ZM441.17 81.33C441.08 81.52 441.02 81.73 441.01 81.95C440.94 82.61 441.2 83.26 441.72 83.7C442.89 84.38 444.31 84.38 445.48 83.7C447.93 82.52 449.61 79.68 450.14 76.1C450.63 73 449.98 69.82 448.29 67.15C447.02 65.3 445.11 63.96 442.94 63.37C442.32 63.17 441.7 62.91 441.12 62.61C439.58 61.85 438.66 61.47 437.71 62.35C434.84 65.02 432.91 68.53 432.18 72.37C432.1 72.85 432.18 72.96 432.18 72.96C432.3 73 432.42 73 432.53 72.96C433.52 72.84 434.41 72.25 434.94 71.4C435.13 71.07 435.55 70.95 435.87 71.14C436.16 71.3 436.28 71.63 436.19 71.94C436 72.54 435.74 73.12 435.44 73.68C435.17 74.17 434.95 74.69 434.77 75.22C434.54 76.06 434.77 77.15 435.48 77.34C436.19 77.53 436.78 77.04 437.46 76.48C437.72 76.29 438.06 76.29 438.32 76.48C438.58 76.68 438.66 77.02 438.51 77.32C438.13 78 437.89 78.75 437.79 79.51C437.74 80.1 438.06 80.65 438.59 80.89C438.99 81.02 439.49 80.89 440.11 80.35C440.33 80.04 440.63 79.78 440.97 79.61C441.31 79.44 441.73 79.61 441.88 79.95C442 80.21 441.95 80.49 441.77 80.69C441.58 80.91 441.38 81.12 441.16 81.32L441.17 81.33Z" fill="#30325B" fill-opacity="1.000000" fill-rule="nonzero"/>
</svg>
