<svg width="80.000000" height="186.902832" viewBox="0 0 80 186.903" fill="none" xmlns="http://www.w3.org/2000/svg" xmlns:xlink="http://www.w3.org/1999/xlink">
	<desc>
			Created with Pixso.
	</desc>
	<defs/>
	<path id="Vector" d="M77.21 147.09C77.08 146.93 77 146.74 76.91 146.56C76.91 146.56 76.89 146.58 76.88 146.58C76.55 146.76 76.12 146.76 75.71 146.76C75.28 146.76 74.84 146.75 74.44 146.6C73.87 146.39 73.53 145.95 73.21 145.51C72.56 144.64 71.89 143.71 71.93 142.7C71.94 142.28 72.08 141.88 72.24 141.51C72.51 140.89 72.95 140.24 73.72 140.04C73.98 139.97 74.26 139.96 74.52 139.97C74.92 139.97 75.31 140 75.68 140.12C76.04 140.22 76.33 140.39 76.6 140.59C77.15 137.7 78.22 134.84 78.09 131.92C77.98 129.31 76.85 126.68 74.62 124.79C72.38 122.9 68.98 121.87 65.8 122.39C64.22 122.66 62.77 123.28 61.35 123.89C59.28 124.78 57.21 125.67 55.14 126.56C54.92 126.66 54.69 126.76 54.51 126.9C54.19 127.14 54.04 127.49 53.87 127.82C52.66 130.24 50.43 132.34 47.61 133.65C46.97 133.95 46.28 134.23 45.81 134.7C45.2 135.32 45.09 136.15 44.76 136.9C43.67 139.36 39.63 140.62 36.77 139.38C35.24 138.72 33.73 137.44 32.1 137.91C30.06 138.5 30.28 141.16 28.42 142.05C27.85 142.32 27.12 142.41 26.69 142.81C26.38 143.11 26.29 143.53 26.13 143.9C25.37 145.56 22.74 146.24 20.63 145.78C20.53 145.76 20.42 145.74 20.32 145.71C20.28 145.46 20.25 145.19 20.24 144.92C20.16 143.11 20.87 141.25 20.27 139.49C19.63 137.62 17.43 136.18 15.01 136.05C14.5 139.59 13.99 143.16 14.56 146.69C14.71 147.65 14.94 148.58 15.1 149.54C15.25 150.48 15.32 151.41 15.34 152.36C15.44 152.09 15.54 151.82 15.63 151.56C15.1 153.12 14.49 154.79 12.9 155.8C11.08 156.96 8.39 156.89 6.28 156.1C4.75 155.53 3.47 154.65 2.26 153.7C1.25 154.52 0.02 155.31 0.24 156.4C0.41 157.22 1.37 157.75 1.97 158.44C4.04 160.84 1.24 164.43 3.04 166.95C4.17 168.53 6.88 169.28 7.32 171.06C7.5 171.76 7.26 172.49 7.11 173.2C6.33 176.85 7.75 180.77 10.86 183.5C11.59 184.14 12.41 184.72 12.99 185.44C13.29 185.82 13.55 186.24 14.02 186.48C15.11 187.04 16.49 186.33 17.55 185.73C23.3 182.48 30.71 182.1 37.56 180.89C45.38 179.51 52.88 176.89 59.5 173.26C60.94 172.47 62.33 171.62 63.45 170.55C66.42 167.69 66.88 163.69 67.16 159.96C67.2 159.31 67.25 158.64 67.61 158.05C67.97 157.46 68.62 157.02 69.24 156.6C71.84 154.82 74.45 153.05 77.06 151.27C77.97 150.64 78.91 149.98 79.73 149.25C78.75 148.62 77.83 147.94 77.22 147.1L77.21 147.09ZM63.12 159.93C62.71 160.32 61.98 160.32 61.43 160.56C60.63 160.89 60.18 161.69 59.31 161.84C58.87 161.92 58.33 161.83 58.03 162.09C57.89 162.22 57.83 162.37 57.79 162.54C57.58 163.22 57.39 163.91 57.18 164.59C56.52 164.59 55.85 164.51 55.27 164.26C54.81 164.07 54.43 163.8 54.05 163.53C53.45 163.1 52.85 162.66 52.25 162.24C51.56 161.75 50.81 161.05 51.17 160.37C52.18 160.06 53.12 159.62 53.96 159.07C53.13 158.7 53.17 157.54 54.01 157.22C54.29 157.12 54.61 157.09 54.83 156.91C55.24 156.59 55.01 156.02 55.08 155.56C55.23 154.65 56.56 154.26 57.67 154.06C58.01 153.99 58.37 153.92 58.72 153.99C59.2 154.07 59.57 154.37 59.98 154.59C60.78 155.04 61.79 155.24 62.47 155.8C63.4 156.56 63.45 157.77 63.45 158.84C63.45 159.22 63.42 159.64 63.12 159.93Z" fill="#FF5A57" fill-opacity="1.000000" fill-rule="nonzero"/>
	<path id="Vector" d="M14.9 186.84C14.53 186.84 14.2 186.76 13.9 186.61C13.48 186.4 13.23 186.06 12.99 185.74C12.93 185.66 12.88 185.6 12.81 185.52C12.39 185.02 11.86 184.57 11.33 184.14C11.11 183.96 10.9 183.78 10.7 183.6C7.57 180.84 6.1 176.85 6.9 173.17C6.93 173.05 6.96 172.94 6.97 172.83C7.11 172.25 7.25 171.65 7.1 171.1C6.85 170.13 5.9 169.47 4.88 168.78C4.12 168.26 3.33 167.72 2.84 167.03C1.93 165.75 2.15 164.23 2.35 162.75C2.57 161.19 2.78 159.71 1.77 158.54C1.6 158.33 1.36 158.12 1.14 157.92C0.64 157.49 0.15 157.03 0.02 156.43C-0.18 155.38 0.8 154.62 1.75 153.87C1.87 153.77 1.98 153.68 2.11 153.59L2.24 153.48L2.39 153.59C3.46 154.43 4.77 155.36 6.37 155.95C7.37 156.32 8.45 156.52 9.51 156.52C10.78 156.52 11.91 156.23 12.78 155.67C14.01 154.89 14.63 153.71 15.14 152.35C15.11 151.28 15.03 150.4 14.89 149.57C14.82 149.13 14.72 148.69 14.63 148.25C14.53 147.74 14.42 147.24 14.34 146.73C13.77 143.15 14.28 139.55 14.79 136.04L14.82 135.89L15.01 135.89C17.51 136.02 19.79 137.51 20.45 139.46C20.83 140.58 20.7 141.75 20.56 142.89C20.47 143.55 20.39 144.25 20.42 144.92C20.42 145.13 20.45 145.35 20.49 145.58L20.65 145.62C21.05 145.71 21.5 145.76 21.94 145.76C23.48 145.76 25.31 145.17 25.91 143.84C25.95 143.74 25.99 143.64 26.03 143.54C26.14 143.25 26.25 142.95 26.51 142.71C26.82 142.42 27.25 142.28 27.65 142.15C27.88 142.07 28.09 142.01 28.28 141.92C29.11 141.53 29.51 140.73 29.91 139.95C30.36 139.03 30.85 138.1 32 137.77C32.27 137.69 32.53 137.66 32.8 137.66C33.81 137.66 34.78 138.17 35.69 138.67C36.07 138.87 36.46 139.09 36.84 139.25C37.53 139.55 38.35 139.7 39.2 139.7C41.56 139.7 43.81 138.5 44.54 136.85C44.64 136.63 44.72 136.4 44.8 136.16C44.98 135.62 45.17 135.06 45.63 134.61C46.06 134.17 46.65 133.91 47.23 133.64L47.49 133.52C50.28 132.21 52.47 130.18 53.67 127.77L53.71 127.7C53.88 127.37 54.03 127.05 54.36 126.79C54.56 126.64 54.81 126.53 55.03 126.43L61.24 123.76C62.66 123.14 64.14 122.51 65.75 122.24C68.84 121.73 72.41 122.71 74.75 124.69C76.92 126.52 78.17 129.09 78.29 131.94C78.37 134 77.86 136.06 77.37 138.07C77.17 138.91 76.95 139.78 76.78 140.65L76.73 140.96L76.44 140.75C76.15 140.53 75.87 140.38 75.6 140.3C75.22 140.19 74.81 140.18 74.49 140.17L74.4 140.17C74.22 140.17 73.97 140.17 73.75 140.24C73.18 140.38 72.73 140.84 72.4 141.6C72.2 142.04 72.11 142.41 72.09 142.74C72.05 143.74 72.77 144.7 73.35 145.47C73.62 145.84 73.97 146.29 74.49 146.49C74.85 146.63 75.26 146.63 75.68 146.64L75.83 146.64C76.15 146.64 76.48 146.63 76.73 146.49L76.93 146.38L77.09 146.59C77.17 146.76 77.25 146.91 77.36 147.06C77.97 147.92 78.95 148.59 79.83 149.16L80 149.27L79.84 149.41C79.13 150.03 78.27 150.67 77.14 151.44L69.32 156.77C68.74 157.16 68.09 157.61 67.74 158.19C67.39 158.74 67.35 159.4 67.29 160.02C67 164.03 66.49 167.86 63.53 170.72C62.38 171.82 60.94 172.68 59.54 173.44C52.94 177.07 45.34 179.72 37.53 181.1C35.98 181.38 34.36 181.61 32.8 181.85C27.49 182.63 22.01 183.43 17.61 185.92C16.77 186.4 15.79 186.9 14.85 186.9L14.9 186.84ZM2.26 153.91C2.19 153.97 2.11 154.03 2.04 154.08C1.13 154.79 0.26 155.47 0.44 156.34C0.53 156.85 0.99 157.24 1.46 157.66C1.69 157.88 1.93 158.09 2.13 158.32C3.24 159.6 3.02 161.2 2.79 162.76C2.59 164.19 2.38 165.67 3.22 166.85C3.68 167.49 4.44 168 5.18 168.51C6.2 169.22 7.26 169.94 7.54 171.02C7.69 171.64 7.54 172.28 7.41 172.89C7.39 173 7.36 173.11 7.35 173.22C6.57 176.81 7.99 180.7 11.04 183.38C11.25 183.56 11.46 183.74 11.68 183.92C12.21 184.36 12.77 184.82 13.19 185.35C13.25 185.43 13.32 185.51 13.37 185.57C13.61 185.87 13.83 186.16 14.16 186.34C14.39 186.46 14.64 186.52 14.93 186.52C15.74 186.52 16.65 186.04 17.45 185.6C21.94 183.06 27.47 182.26 32.82 181.47C34.38 181.25 35.99 181 37.53 180.73C45.28 179.36 52.84 176.73 59.39 173.12C60.76 172.36 62.18 171.53 63.29 170.45C66.18 167.68 66.67 163.91 66.96 159.96C67 159.32 67.06 158.61 67.43 158C67.82 157.36 68.51 156.9 69.11 156.48L76.93 151.15C77.97 150.45 78.77 149.85 79.44 149.27C78.59 148.71 77.66 148.04 77.06 147.19C76.98 147.07 76.89 146.95 76.84 146.81C76.55 146.91 76.22 146.94 75.9 146.94L75.73 146.94C75.31 146.94 74.82 146.92 74.38 146.76C73.75 146.53 73.36 146.01 73.06 145.61C72.45 144.8 71.71 143.8 71.75 142.7C71.76 142.33 71.87 141.93 72.08 141.45C72.45 140.57 72.99 140.06 73.69 139.88C73.97 139.81 74.24 139.8 74.46 139.8L74.56 139.8C74.91 139.8 75.36 139.84 75.79 139.95C76.04 140.02 76.26 140.12 76.49 140.26C76.64 139.49 76.84 138.71 77.03 137.97C77.51 135.99 78.02 133.95 77.93 131.91C77.82 129.19 76.56 126.63 74.51 124.89C72.66 123.33 70.05 122.4 67.51 122.4C66.96 122.4 66.41 122.44 65.87 122.53C64.31 122.79 62.87 123.41 61.47 124.01L55.27 126.68C55.06 126.77 54.84 126.86 54.68 127C54.41 127.2 54.28 127.5 54.12 127.77L54.08 127.85C52.85 130.33 50.59 132.42 47.73 133.76L47.45 133.88C46.91 134.13 46.35 134.38 45.97 134.76C45.57 135.16 45.41 135.67 45.23 136.2C45.15 136.43 45.06 136.68 44.97 136.91C44.18 138.69 41.77 139.98 39.24 139.98C38.33 139.98 37.45 139.8 36.69 139.48C36.29 139.3 35.89 139.09 35.49 138.88C34.62 138.41 33.73 137.92 32.83 137.92C32.61 137.92 32.39 137.96 32.17 138.01C31.19 138.3 30.76 139.12 30.31 140C29.89 140.83 29.45 141.68 28.51 142.13C28.29 142.24 28.06 142.31 27.83 142.39C27.44 142.51 27.08 142.62 26.85 142.85C26.64 143.04 26.54 143.3 26.45 143.58C26.4 143.69 26.36 143.8 26.32 143.9C25.65 145.37 23.65 146.02 21.95 146.02C21.47 146.02 21.01 145.98 20.57 145.88C20.5 145.87 20.43 145.85 20.36 145.84L18.83 145.48L20.07 145.48C20.05 145.27 20.02 145.07 20.02 144.87C19.99 144.18 20.07 143.46 20.16 142.78C20.3 141.63 20.42 140.54 20.06 139.48C19.47 137.72 17.44 136.35 15.19 136.17C14.7 139.6 14.21 143.14 14.77 146.61C14.85 147.13 14.94 147.63 15.05 148.13C15.15 148.57 15.23 149.02 15.32 149.46C15.43 150.09 15.5 150.73 15.54 151.47L15.85 151.53C15.73 151.88 15.61 152.27 15.45 152.66L15.19 153.36L15.19 153.27C14.74 154.24 14.1 155.2 13.06 155.86C12.12 156.46 10.89 156.78 9.52 156.78C8.42 156.78 7.26 156.57 6.21 156.18C4.63 155.59 3.33 154.69 2.27 153.87L2.26 153.91ZM57.08 164.76C56.34 164.76 55.71 164.65 55.17 164.43C54.7 164.23 54.3 163.95 53.92 163.67L52.11 162.38C51.05 161.61 50.66 160.92 50.98 160.32L51.01 160.26L51.09 160.24C52 159.96 52.84 159.58 53.6 159.1C53.3 158.88 53.12 158.53 53.13 158.15C53.14 157.67 53.45 157.28 53.9 157.1C54 157.05 54.11 157.03 54.22 157C54.39 156.95 54.55 156.91 54.66 156.82C54.88 156.65 54.87 156.38 54.84 156.07C54.84 155.91 54.83 155.74 54.84 155.57C54.98 154.78 55.87 154.25 57.59 153.92C57.93 153.86 58.33 153.79 58.73 153.85C59.14 153.91 59.47 154.11 59.78 154.3C59.87 154.36 59.97 154.41 60.07 154.47C60.37 154.64 60.72 154.78 61.06 154.9C61.6 155.12 62.15 155.33 62.58 155.69C63.54 156.5 63.63 157.7 63.61 158.87C63.61 159.31 63.57 159.75 63.24 160.07C62.95 160.35 62.52 160.45 62.11 160.55C61.89 160.6 61.67 160.66 61.49 160.74C61.18 160.87 60.92 161.08 60.65 161.3C60.26 161.61 59.87 161.94 59.31 162.04C59.16 162.06 59.01 162.07 58.84 162.08C58.54 162.09 58.29 162.1 58.14 162.24C58.04 162.33 58 162.45 57.96 162.61L57.31 164.79L57.03 164.79L57.08 164.76ZM51.32 160.51C51.14 160.96 51.5 161.5 52.37 162.13L54.18 163.42C54.54 163.68 54.92 163.95 55.35 164.13C55.82 164.32 56.37 164.42 57.01 164.43L57.57 162.5C57.61 162.35 57.68 162.15 57.85 161.99C58.11 161.76 58.5 161.74 58.84 161.73C58.98 161.73 59.12 161.72 59.24 161.69C59.68 161.61 60.01 161.35 60.37 161.05C60.66 160.81 60.95 160.58 61.31 160.42C61.53 160.34 61.78 160.27 62 160.21C62.37 160.12 62.72 160.03 62.92 159.83C63.17 159.59 63.2 159.23 63.2 158.84C63.2 157.75 63.14 156.62 62.29 155.92C61.9 155.61 61.41 155.41 60.88 155.19C60.54 155.06 60.16 154.92 59.85 154.73C59.75 154.67 59.64 154.6 59.54 154.55C59.25 154.37 58.98 154.2 58.66 154.16C58.34 154.1 58 154.17 57.7 154.23C56.16 154.52 55.37 154.96 55.27 155.59C55.24 155.73 55.25 155.88 55.27 156.04C55.28 156.38 55.31 156.77 54.96 157.04C54.79 157.17 54.56 157.24 54.37 157.3C54.28 157.32 54.18 157.35 54.1 157.39C53.71 157.53 53.56 157.88 53.56 158.15C53.56 158.43 53.67 158.78 54.05 158.94L54.33 159.07L54.1 159.22C53.27 159.77 52.34 160.2 51.34 160.52L51.32 160.51Z" fill="#FFFFFF" fill-opacity="1.000000" fill-rule="nonzero"/>
	<path id="Vector" d="M66.65 5.96C66.45 5.69 65.98 5.67 65.65 5.5C65.23 5.28 65.1 4.83 64.83 4.49C64.64 4.24 64.37 4.04 64.08 3.85C62.86 4.34 61.41 4.43 60.04 4.49C58.62 4.55 57.03 4.56 56.01 3.77C55.67 3.5 55.42 3.15 55.07 2.88C53.95 1.99 51.84 2.22 51.04 3.3C47.92 4.6 44.41 5.29 40.91 5.29C39.21 5.29 37.07 5.33 36.41 6.6C33.42 6.84 30.43 7.08 27.43 7.32C26.81 7.37 26.15 7.41 25.58 7.18C24.98 6.93 24.63 6.42 24.31 5.94C23.33 4.47 22.32 2.92 22.23 1.24C21.69 0.83 21.11 0.51 20.51 0.27L20.51 46.96L47.75 46.96C48.04 47.27 48.63 47.27 49.07 47.12C49.5 46.96 49.85 46.67 50.27 46.47C51.89 45.7 53.91 46.42 55.74 46.8C56.63 46.97 57.55 47.07 58.45 47.16C59.39 47.25 60.33 47.35 61.27 47.45C62.07 47.53 62.91 47.62 63.68 47.44C64.46 47.26 65.19 46.78 65.28 46.12C65.35 45.7 65.16 45.25 65.45 44.9C66 44.28 67.3 44.87 68.15 44.52C68.84 44.23 68.89 43.48 69.1 42.88C69.39 41.97 70.15 41.25 71.07 40.66C66.9 33.34 62.75 26.02 58.59 18.68C56.89 15.69 55.15 12.44 55.96 9.21C56.8 9.21 57.64 9.22 58.48 9.23C59.34 12.74 61.32 16.05 64.2 18.78C65.55 15.61 66.18 12.24 66.05 8.89C66.35 8.92 66.65 8.95 66.94 8.98C66.78 8.15 66.7 7.32 66.74 6.47C66.74 6.3 66.75 6.12 66.65 5.96Z" fill="#FF5A57" fill-opacity="1.000000" fill-rule="nonzero"/>
	<path id="Vector" d="M62.65 47.7C62.17 47.7 61.68 47.65 61.26 47.61L58.44 47.32C57.53 47.22 56.61 47.13 55.7 46.94C55.38 46.88 55.05 46.8 54.71 46.72C53.8 46.51 52.84 46.29 51.95 46.29C51.35 46.29 50.83 46.39 50.37 46.61C50.2 46.69 50.05 46.78 49.89 46.88C49.66 47.01 49.43 47.16 49.16 47.26C48.63 47.45 47.98 47.4 47.66 47.12L20.32 47.12L20.32 0L20.61 0.12C21.29 0.41 21.86 0.73 22.37 1.13L22.43 1.17L22.43 1.23C22.53 2.91 23.57 4.48 24.49 5.87C24.82 6.38 25.14 6.83 25.67 7.04C25.93 7.14 26.24 7.19 26.65 7.19C26.9 7.19 27.16 7.17 27.41 7.15L36.28 6.44C37.07 5.12 39.44 5.12 40.86 5.12L40.92 5.28L40.92 5.12C44.37 5.12 47.83 4.45 50.9 3.18C51.39 2.55 52.3 2.17 53.31 2.17C54.04 2.17 54.71 2.38 55.2 2.75C55.38 2.9 55.54 3.05 55.69 3.22C55.85 3.38 55.97 3.52 56.14 3.66C56.76 4.14 57.65 4.36 59.04 4.36C59.38 4.36 59.7 4.35 60.02 4.34C61.52 4.28 62.86 4.19 63.99 3.72L64.11 3.68L64.21 3.74C64.48 3.92 64.78 4.13 65 4.42C65.09 4.53 65.16 4.65 65.23 4.78C65.37 5.02 65.51 5.26 65.76 5.38C65.86 5.43 65.99 5.48 66.12 5.52C66.36 5.59 66.65 5.68 66.81 5.9C66.96 6.09 66.94 6.3 66.94 6.48C66.92 7.29 66.98 8.12 67.15 8.96L67.19 9.17L66.26 9.07C66.35 12.4 65.72 15.69 64.38 18.84L64.27 19.1L64.06 18.89C61.19 16.18 59.21 12.9 58.32 9.41L56.13 9.41C55.43 12.4 56.92 15.37 58.78 18.64L71.32 40.72L71.21 40.8C70.16 41.48 69.56 42.17 69.3 42.94C69.26 43.05 69.24 43.18 69.2 43.29C69.06 43.81 68.9 44.4 68.27 44.67C68.04 44.77 67.77 44.82 67.42 44.82C67.24 44.82 67.07 44.81 66.89 44.8C66.72 44.8 66.57 44.78 66.41 44.78C66.01 44.78 65.78 44.85 65.64 45.02C65.49 45.19 65.5 45.44 65.51 45.7C65.51 45.85 65.52 46.01 65.51 46.15C65.4 46.91 64.56 47.42 63.77 47.6C63.44 47.67 63.09 47.7 62.68 47.7L62.65 47.7ZM51.95 45.97C52.89 45.97 53.86 46.2 54.81 46.42C55.15 46.51 55.47 46.58 55.81 46.64C56.68 46.82 57.61 46.91 58.49 47L61.31 47.3C61.72 47.34 62.2 47.39 62.65 47.39C63.02 47.39 63.35 47.36 63.64 47.3C64.31 47.15 65.02 46.72 65.1 46.11C65.11 45.99 65.1 45.85 65.1 45.71C65.09 45.41 65.07 45.1 65.31 44.83C65.59 44.51 66.04 44.47 66.39 44.47C66.56 44.47 66.72 44.47 66.89 44.49C67.06 44.49 67.23 44.51 67.39 44.51C67.68 44.51 67.9 44.48 68.06 44.4C68.54 44.21 68.67 43.73 68.8 43.23C68.84 43.1 68.86 42.98 68.9 42.85C69.16 42.04 69.78 41.34 70.82 40.63L58.41 18.77C56.49 15.4 54.97 12.35 55.77 9.2L55.81 9.07L58.63 9.1L58.66 9.22C59.49 12.62 61.37 15.81 64.11 18.48C65.38 15.39 65.96 12.16 65.85 8.9L65.85 8.71L66.7 8.8C66.56 8 66.49 7.22 66.52 6.47C66.52 6.32 66.52 6.16 66.45 6.05C66.36 5.92 66.17 5.87 65.95 5.8C65.81 5.76 65.65 5.7 65.51 5.63C65.18 5.46 65.01 5.17 64.85 4.9C64.79 4.79 64.71 4.68 64.64 4.57C64.47 4.36 64.25 4.19 64.03 4.03C62.86 4.48 61.52 4.57 60.02 4.63C59.7 4.64 59.35 4.66 59.02 4.66C58.01 4.66 56.75 4.57 55.85 3.87C55.66 3.73 55.51 3.56 55.36 3.41C55.2 3.25 55.07 3.1 54.9 2.98C54.49 2.66 53.93 2.48 53.28 2.48C52.38 2.48 51.58 2.82 51.17 3.38L51.14 3.42L51.09 3.44C47.94 4.75 44.43 5.44 40.89 5.44L40.83 5.44C38.99 5.44 37.14 5.54 36.56 6.66L36.51 6.74L27.41 7.47C27.14 7.49 26.88 7.51 26.61 7.51C26.15 7.51 25.78 7.45 25.47 7.33C24.84 7.07 24.49 6.59 24.11 6.03C23.19 4.62 22.14 3.04 22.01 1.33C21.61 1.02 21.18 0.76 20.67 0.54L20.67 46.82L47.82 46.82L47.88 46.88C48.04 47.06 48.31 47.08 48.46 47.08C48.63 47.08 48.81 47.05 48.98 46.98C49.21 46.9 49.43 46.77 49.65 46.64C49.81 46.55 49.98 46.44 50.16 46.35C50.68 46.1 51.26 45.99 51.94 45.99L51.95 45.97Z" fill="#FFFFFF" fill-opacity="1.000000" fill-rule="nonzero"/>
</svg>
