<svg width="100.000000" height="124.872314" viewBox="0 0 100 124.872" fill="none" xmlns="http://www.w3.org/2000/svg" xmlns:xlink="http://www.w3.org/1999/xlink">
	<desc>
			Created with Pixso.
	</desc>
	<defs/>
	<path id="Vector" d="M99.49 58.2C98.64 56.46 95.98 55.27 96.15 53.4C96.2 52.83 96.54 52.26 96.4 51.7C96.18 50.81 94.84 50 95.43 49.22C96.19 48.22 98.93 49.27 99.27 48.13C99.52 47.3 97.95 46.93 97.5 46.16C97.19 45.65 97.45 45.03 97.3 44.47C97.05 43.61 95.87 43.12 94.78 43.07C93.68 43.02 92.6 43.28 91.51 43.34C89.67 43.47 87.85 43.04 86.06 42.63C83.35 41.99 80.46 41.27 78.75 39.46C76.72 39.14 74.69 38.82 72.66 38.49C72.13 38.41 71.59 38.31 71.16 38.06C70.51 37.69 70.2 37.01 69.52 36.67C68.82 36.33 67.92 36.48 67.09 36.39C64.1 36.1 62.6 32.96 59.64 32.48C59.14 30.82 59.73 29.07 60 27.37C60.27 25.67 60.12 23.71 58.53 22.56C57.67 21.94 56.53 21.66 55.5 21.26C53.91 20.65 52.51 19.72 51.45 18.58C50.27 17.3 49.74 15.19 51.41 14.34C52.12 13.98 53.05 13.96 53.68 13.53C54.7 12.8 54.28 11.46 53.77 10.44C53.05 8.97 52.33 7.52 51.61 6.06C51.06 4.93 50.44 3.75 49.24 3.02C48.78 2.74 48.21 2.52 47.93 2.11C47.5 1.5 47.71 0.55 46.94 0.22C46.66 0.1 46.33 0.11 46.02 0.12C45.23 0.15 44.46 0.18 43.68 0.21C43.87 1.31 42.88 2.42 41.66 3.02C40.36 3.66 38.79 3.94 37.29 3.8C35.22 3.6 33.33 2.64 31.25 2.52C29.17 2.41 26.7 3.86 27.43 5.44C27.79 6.21 28.81 6.7 29.09 7.49C29.27 7.99 29.13 8.53 29.18 9.05C29.25 9.74 29.67 10.37 30.11 10.98C31.12 12.33 32.33 13.6 33.72 14.73C34.05 15 34.4 15.27 34.57 15.63C35.2 16.99 32.96 17.95 31.67 18.96C30.45 19.94 29.98 21.47 30.49 22.79C27.55 24.56 25.21 26.98 23.78 29.72C23.5 30.24 23.24 30.82 22.73 31.21C22.28 31.55 21.68 31.75 21.21 32.07C20.04 32.9 19.99 34.38 18.99 35.34C17.09 37.14 13.48 36.02 10.58 36.38C8.28 36.67 6.25 38.07 5.56 39.87C7.33 40.41 8.73 41.67 9.21 43.16C9.33 43.53 9.4 43.93 9.65 44.27C9.87 44.57 10.2 44.79 10.47 45.06C10.88 45.48 11.11 45.98 11.34 46.46C12.18 48.26 13.03 50.05 13.86 51.85C10.35 52.19 6.85 52.53 3.34 52.88C2.6 52.96 1.83 53.04 1.23 53.4C0.5 53.85 0.28 54.49 0.24 55.23C1.07 55.47 1.81 55.81 2.18 56.44C1.43 57.5 3.18 58.68 4.69 58.64C6.19 58.6 7.62 57.96 9.12 58.03C10.62 58.1 12.08 59.62 11 60.48C10.66 60.73 10.2 60.84 9.75 60.92C7.62 61.36 5.47 61.79 3.34 62.23C3.4 63.02 4.18 63.63 4.92 64.16C8.08 66.46 11.41 68.83 15.51 69.76C15.58 68.46 16.36 67.14 17.67 66.42C17.67 64.99 18 63.56 18.67 62.23C19.52 61.63 20.9 62.26 21.35 63.09C21.8 63.92 21.73 64.88 22.09 65.73C22.33 66.31 22.77 66.83 23 67.41C23.32 68.21 23.23 69.07 23.17 69.91C22.95 72.97 23.14 76.05 23.75 79.07C24.36 82.16 25.58 85.41 28.58 87.4C28.58 89.75 28.58 92.11 28.58 94.47C28.58 95.02 28.58 95.6 28.91 96.09C29.26 96.6 29.89 96.93 30.36 97.35C32.16 98.96 31.42 101.49 32.11 103.59C32.57 104.99 33.69 106.18 34.73 107.36C39.31 112.58 42.82 118.4 45.08 124.52C46.62 123.19 48.16 121.84 49.71 120.5C51.99 118.51 54.36 116.42 55.41 113.84C55.91 112.61 56.11 111.31 56.25 110.03C56.48 107.9 56.57 105.77 56.66 103.64C56.81 100.07 56.98 96.51 57.13 92.95C57.16 92.34 57.21 91.69 57.69 91.22C58.17 90.74 59 90.57 59.74 90.37C63.16 89.43 65.67 87.05 67.47 84.52C69.27 81.99 70.51 79.24 72.41 76.76C74.34 74.26 76.9 72.09 79.82 70.32C80.58 69.85 81.4 69.4 82.34 69.25C84.42 68.91 87.03 69.96 88.47 68.7C88.98 68.24 89.15 67.6 89.46 67.03C90.96 64.12 95.43 63.34 99.45 63.28C99.45 63.02 99.47 62.77 99.51 62.51C99.67 61.06 100.2 59.54 99.54 58.17L99.49 58.2Z" fill="#FF5A57" fill-opacity="1.000000" fill-rule="nonzero"/>
	<path id="Vector" d="M44.96 124.85L44.86 124.59C42.6 118.45 39.12 112.69 34.54 107.48L34.3 107.2C33.33 106.11 32.33 104.97 31.89 103.65C31.64 102.88 31.57 102.05 31.51 101.25C31.39 99.82 31.29 98.47 30.18 97.49C30.02 97.34 29.84 97.2 29.64 97.06C29.3 96.8 28.94 96.55 28.69 96.19C28.33 95.66 28.33 95.04 28.33 94.5L28.33 87.5C25.07 85.29 24.02 81.67 23.5 79.13C22.88 76.1 22.69 73 22.91 69.93L22.91 69.78C22.97 69.01 23.04 68.21 22.76 67.49C22.64 67.2 22.47 66.93 22.29 66.64C22.13 66.37 21.96 66.1 21.84 65.81C21.68 65.4 21.6 64.99 21.52 64.57C21.43 64.07 21.34 63.61 21.11 63.17C20.8 62.61 20.04 62.17 19.39 62.17C19.14 62.17 18.94 62.23 18.76 62.34C18.12 63.63 17.78 65.05 17.79 66.44L17.79 66.52L17.7 66.56C16.5 67.23 15.7 68.46 15.62 69.79L15.62 69.99L15.38 69.93C11.15 68.98 7.72 66.49 4.71 64.29C3.91 63.72 3.14 63.09 3.08 62.26L3.08 62.14L9.65 60.8C10.05 60.71 10.51 60.62 10.8 60.38C11.21 60.06 11.15 59.69 11.02 59.42C10.73 58.79 9.87 58.25 9.04 58.21C8.26 58.16 7.5 58.33 6.7 58.51C6.04 58.65 5.34 58.8 4.63 58.82L4.56 58.82C3.56 58.82 2.48 58.34 2 57.68C1.7 57.27 1.68 56.85 1.91 56.46C1.6 56 1.04 55.66 0.12 55.39L0 55.35L0 55.24C0.03 54.62 0.17 53.83 1.06 53.3C1.72 52.91 2.57 52.82 3.26 52.75L13.54 51.74L11.11 46.55C10.89 46.07 10.66 45.58 10.26 45.19C10.17 45.1 10.06 45 9.95 44.91C9.76 44.74 9.57 44.58 9.43 44.37C9.22 44.09 9.15 43.78 9.06 43.48C9.03 43.4 9 43.3 8.98 43.22C8.52 41.79 7.17 40.56 5.46 40.05L5.29 39.99L5.34 39.85C6.06 37.99 8.14 36.55 10.52 36.25C10.94 36.2 11.43 36.17 12 36.17C12.56 36.17 13.1 36.19 13.64 36.22C14.17 36.24 14.71 36.26 15.24 36.26C16.48 36.26 17.88 36.14 18.82 35.25C19.26 34.84 19.52 34.29 19.77 33.77C20.08 33.12 20.4 32.44 21.07 31.98C21.3 31.81 21.57 31.69 21.82 31.55C22.1 31.42 22.36 31.28 22.58 31.12C23.01 30.78 23.27 30.29 23.51 29.82L23.59 29.68C25.02 26.94 27.33 24.55 30.25 22.75C29.77 21.4 30.27 19.85 31.52 18.87C31.83 18.63 32.19 18.38 32.54 18.15C33.71 17.38 34.8 16.64 34.36 15.71C34.22 15.41 33.91 15.15 33.62 14.91L33.56 14.87C32.16 13.73 30.94 12.45 29.93 11.08C29.48 10.47 29.05 9.81 28.98 9.08C28.95 8.87 28.98 8.68 28.98 8.48C28.98 8.16 29 7.85 28.9 7.57C28.76 7.18 28.44 6.87 28.09 6.55C27.77 6.24 27.43 5.92 27.24 5.53C26.97 4.95 27.07 4.35 27.55 3.8C28.29 2.93 29.86 2.35 31.25 2.41C32.37 2.47 33.45 2.77 34.48 3.06C35.39 3.32 36.34 3.59 37.29 3.68C38.74 3.81 40.3 3.54 41.53 2.92C42.59 2.39 43.64 1.33 43.46 0.25L43.43 0.09L45.98 0C46.07 0 46.17 0 46.26 0C46.48 0 46.75 0.01 47.01 0.12C47.56 0.36 47.67 0.84 47.79 1.3C47.85 1.57 47.93 1.85 48.09 2.07C48.28 2.34 48.61 2.53 48.97 2.72C49.1 2.8 49.23 2.86 49.35 2.93C50.63 3.71 51.26 5 51.77 6.04L53.93 10.42C54.71 11.99 54.67 13.06 53.79 13.68C53.41 13.95 52.93 14.08 52.48 14.19C52.13 14.29 51.8 14.37 51.5 14.51C51.02 14.76 50.71 15.15 50.59 15.64C50.39 16.49 50.8 17.66 51.59 18.53C52.64 19.65 54.01 20.56 55.58 21.17C55.85 21.28 56.13 21.37 56.41 21.47C57.2 21.74 58.01 22.02 58.66 22.5C60.39 23.74 60.45 25.88 60.19 27.45C60.13 27.83 60.05 28.2 59.97 28.59C59.72 29.85 59.45 31.17 59.79 32.4C61.23 32.67 62.33 33.53 63.39 34.37C64.55 35.29 65.64 36.15 67.12 36.29C67.36 36.31 67.63 36.32 67.89 36.32C68.48 36.32 69.1 36.33 69.63 36.59C70.02 36.78 70.29 37.07 70.56 37.36C70.78 37.6 71 37.83 71.27 37.99C71.68 38.23 72.22 38.31 72.7 38.4L78.87 39.38L78.9 39.42C80.52 41.12 83.13 41.84 86.13 42.54C87.86 42.94 89.67 43.35 91.5 43.24C91.9 43.21 92.31 43.16 92.71 43.11C93.38 43.01 94.07 42.93 94.79 42.96C95.89 43.01 97.21 43.52 97.48 44.48C97.55 44.74 97.54 45 97.53 45.25C97.53 45.57 97.51 45.87 97.67 46.14C97.84 46.42 98.18 46.66 98.53 46.89C99.07 47.25 99.63 47.64 99.45 48.22C99.24 48.92 98.27 48.93 97.42 48.93C96.68 48.93 95.91 48.93 95.59 49.35C95.29 49.74 95.61 50.18 95.98 50.68C96.23 51.01 96.49 51.35 96.58 51.71C96.67 52.1 96.58 52.47 96.46 52.83C96.4 53.05 96.34 53.25 96.33 53.45C96.24 54.49 97.1 55.33 98.02 56.21C98.64 56.83 99.3 57.45 99.66 58.18C100.19 59.27 99.98 60.46 99.79 61.6C99.74 61.93 99.67 62.26 99.63 62.58C99.61 62.82 99.6 63.07 99.58 63.34L99.58 63.48L99.39 63.48C95.74 63.54 91.08 64.22 89.56 67.14C89.48 67.3 89.42 67.46 89.34 67.61C89.15 68.05 88.94 68.5 88.53 68.87C87.99 69.34 87.27 69.55 86.2 69.55C85.73 69.55 85.23 69.51 84.75 69.47C83.89 69.39 82.98 69.34 82.31 69.46C81.39 69.61 80.56 70.07 79.87 70.49C76.84 72.34 74.37 74.49 72.52 76.89C71.49 78.23 70.63 79.69 69.81 81.09C69.11 82.28 68.39 83.5 67.57 84.65C65.37 87.75 62.74 89.74 59.74 90.56L59.43 90.64C58.8 90.81 58.16 90.98 57.78 91.37C57.35 91.79 57.3 92.36 57.28 93L56.8 103.69C56.71 105.79 56.61 107.95 56.38 110.08C56.22 111.54 56.02 112.77 55.54 113.94C54.45 116.6 51.97 118.75 49.8 120.65L44.94 124.87L44.96 124.85ZM19.41 61.85C20.22 61.85 21.12 62.35 21.48 63.03C21.74 63.5 21.83 64.01 21.92 64.51C22 64.9 22.06 65.31 22.22 65.68C22.33 65.95 22.5 66.22 22.65 66.48C22.83 66.76 23.01 67.06 23.13 67.37C23.44 68.15 23.37 68.98 23.31 69.78L23.31 69.93C23.08 72.98 23.27 76.05 23.87 79.06C24.37 81.57 25.43 85.16 28.64 87.29L28.71 87.35L28.71 94.49C28.71 95 28.71 95.58 29.03 96.04C29.23 96.34 29.55 96.58 29.9 96.84C30.09 96.97 30.29 97.12 30.47 97.28C31.66 98.35 31.78 99.82 31.88 101.24C31.94 102.03 32.01 102.84 32.25 103.58C32.68 104.84 33.65 105.95 34.59 107.02L34.84 107.3C39.37 112.47 42.83 118.18 45.12 124.25L49.51 120.42C51.67 118.54 54.11 116.42 55.18 113.82C55.66 112.68 55.85 111.48 56 110.04C56.23 107.92 56.32 105.75 56.41 103.66L56.89 92.96C56.92 92.42 56.94 91.67 57.48 91.14C57.94 90.69 58.64 90.5 59.32 90.32L59.63 90.24C62.53 89.44 65.09 87.49 67.25 84.46C68.06 83.32 68.78 82.1 69.47 80.93C70.31 79.52 71.17 78.05 72.2 76.7C74.07 74.26 76.58 72.08 79.65 70.21C80.38 69.77 81.24 69.29 82.25 69.13C82.95 69.01 83.92 69.06 84.8 69.13C85.3 69.17 85.77 69.21 86.22 69.21C87.17 69.21 87.8 69.03 88.26 68.62C88.62 68.31 88.8 67.9 88.98 67.47C89.04 67.31 89.12 67.14 89.2 66.99C90.45 64.58 93.9 63.26 99.18 63.14C99.18 62.92 99.2 62.72 99.22 62.51C99.26 62.18 99.33 61.85 99.38 61.5C99.57 60.4 99.76 59.26 99.27 58.25C98.94 57.56 98.31 56.96 97.69 56.37C96.77 55.48 95.8 54.55 95.92 53.38C95.95 53.15 96 52.94 96.06 52.72C96.16 52.38 96.25 52.05 96.16 51.72C96.09 51.41 95.84 51.09 95.62 50.78C95.23 50.24 94.8 49.69 95.23 49.13C95.65 48.57 96.58 48.57 97.39 48.56C98.34 48.56 98.91 48.52 99.04 48.08C99.16 47.69 98.73 47.4 98.25 47.07C97.87 46.82 97.49 46.56 97.28 46.22C97.09 45.88 97.1 45.53 97.1 45.19C97.1 44.95 97.1 44.71 97.05 44.51C96.82 43.7 95.68 43.27 94.71 43.22C94.06 43.19 93.38 43.27 92.72 43.36C92.32 43.42 91.9 43.47 91.49 43.5C89.6 43.62 87.66 43.18 85.97 42.78C83.63 42.23 80.43 41.5 78.6 39.61L72.57 38.65C72.05 38.56 71.46 38.47 71 38.19C70.68 38 70.44 37.74 70.2 37.5C69.95 37.23 69.72 36.97 69.38 36.81C68.94 36.6 68.4 36.59 67.84 36.59C67.57 36.59 67.3 36.59 67.03 36.56C65.42 36.41 64.24 35.47 63.08 34.56C62.03 33.73 60.94 32.87 59.56 32.65L59.45 32.63L59.42 32.54C59.02 31.21 59.29 29.83 59.56 28.49C59.64 28.12 59.72 27.74 59.78 27.36C60.03 25.87 59.97 23.85 58.37 22.7C57.76 22.26 56.98 21.99 56.22 21.72C55.94 21.63 55.66 21.52 55.37 21.42C53.75 20.8 52.33 19.85 51.25 18.68C50.37 17.73 49.95 16.51 50.17 15.55C50.31 14.97 50.68 14.51 51.26 14.21C51.59 14.05 51.95 13.95 52.31 13.86C52.75 13.75 53.18 13.64 53.48 13.41C54.23 12.89 54.24 11.93 53.52 10.5L51.36 6.12C50.87 5.12 50.26 3.87 49.06 3.15C48.95 3.08 48.82 3.01 48.7 2.94C48.33 2.73 47.93 2.53 47.7 2.19C47.51 1.93 47.44 1.62 47.37 1.33C47.26 0.91 47.17 0.53 46.79 0.37C46.65 0.31 46.47 0.29 46.22 0.29C46.13 0.29 46.04 0.29 45.95 0.29L43.82 0.37C43.91 1.52 42.84 2.6 41.7 3.17C40.36 3.83 38.76 4.12 37.2 3.97C36.2 3.87 35.23 3.59 34.3 3.33C33.28 3.05 32.24 2.75 31.17 2.69C29.89 2.63 28.5 3.16 27.82 3.95C27.54 4.27 27.27 4.79 27.55 5.4C27.7 5.74 28.01 6.03 28.32 6.33C28.68 6.67 29.04 7.03 29.21 7.46C29.32 7.79 29.31 8.15 29.31 8.48C29.31 8.68 29.3 8.86 29.31 9.05C29.37 9.71 29.79 10.33 30.21 10.92C31.21 12.26 32.42 13.52 33.79 14.65L33.85 14.69C34.17 14.96 34.51 15.23 34.68 15.6C35.21 16.75 33.9 17.62 32.74 18.4C32.38 18.64 32.05 18.87 31.75 19.11C30.58 20.04 30.13 21.51 30.62 22.78L30.66 22.88L30.56 22.95C27.63 24.72 25.34 27.08 23.91 29.8L23.83 29.95C23.58 30.44 23.31 30.96 22.81 31.35C22.55 31.54 22.27 31.69 21.97 31.82C21.71 31.95 21.48 32.06 21.28 32.22C20.69 32.64 20.39 33.25 20.08 33.9C19.83 34.45 19.56 35.02 19.07 35.47C18.03 36.46 16.52 36.59 15.19 36.59C14.66 36.59 14.11 36.57 13.58 36.54C13.04 36.52 12.49 36.49 11.96 36.49C11.43 36.49 10.96 36.51 10.55 36.56C8.37 36.83 6.46 38.13 5.74 39.81C7.49 40.4 8.86 41.66 9.33 43.14C9.35 43.23 9.38 43.31 9.4 43.41C9.48 43.7 9.56 43.97 9.74 44.2C9.87 44.38 10.03 44.53 10.21 44.68C10.33 44.78 10.43 44.88 10.53 44.98C10.96 45.42 11.2 45.93 11.43 46.42L14.04 51.99L3.27 53.05C2.59 53.11 1.83 53.2 1.25 53.54C0.69 53.88 0.42 54.37 0.35 55.14C1.34 55.44 1.94 55.82 2.27 56.39L2.31 56.46L2.26 56.54C1.99 56.92 2.13 57.28 2.3 57.51C2.71 58.07 3.66 58.5 4.52 58.5L4.58 58.5C5.25 58.47 5.92 58.33 6.56 58.19C7.36 58.02 8.19 57.84 9.03 57.89C9.99 57.95 11.01 58.57 11.36 59.3C11.59 59.8 11.47 60.26 11.03 60.6C10.66 60.89 10.14 61.01 9.7 61.09L3.44 62.36C3.57 63.02 4.25 63.57 4.93 64.06C7.86 66.2 11.18 68.61 15.22 69.58C15.37 68.28 16.18 67.06 17.37 66.36C17.37 64.94 17.73 63.5 18.39 62.19L18.44 62.13C18.69 61.95 19.02 61.85 19.36 61.85L19.41 61.85Z" fill="#FFFFFF" fill-opacity="1.000000" fill-rule="nonzero"/>
</svg>
