<svg width="97.660645" height="147.290527" viewBox="0 0 97.6606 147.291" fill="none" xmlns="http://www.w3.org/2000/svg" xmlns:xlink="http://www.w3.org/1999/xlink">
	<desc>
			Created with Pixso.
	</desc>
	<defs/>
	<path id="Vector" d="M97.41 24.74C97.18 24.89 96.85 24.69 96.73 24.48C96.62 24.26 96.57 24 96.33 23.86C96.01 23.68 95.53 23.84 95.22 23.66C94.95 23.51 94.93 23.19 94.81 22.95C94.43 22.1 93.02 22.01 91.9 22.06C91.83 21.68 91.76 21.29 91.7 20.9C91.21 20.9 90.74 20.9 90.25 20.9C90.48 20.42 89.53 20.17 89.16 19.75C89.05 19.62 88.99 19.46 88.9 19.32C88.61 18.86 87.96 18.56 87.31 18.6C87.68 18.11 86.86 17.58 86.16 17.48C84.16 17.19 82.18 17.86 80.22 18.29C80.4 17.8 79.83 17.24 79.2 17.28C78.33 17.34 77.87 18.28 77 18.34C76.22 18.4 75.55 17.72 74.78 17.82C74.73 18.26 74.12 18.57 73.61 18.43C73.76 17.78 73.91 17.12 74.06 16.47C74.12 16.25 73.69 16.08 73.57 16.28C71.54 16.1 69.42 15.89 67.7 15C67.29 14.8 66.91 14.55 66.48 14.39C65.42 14 64.07 14.19 63.23 14.83C63.52 15.07 63.36 15.5 63.02 15.69C62.68 15.88 62.25 15.9 61.84 15.91C61.52 15.92 61.16 15.91 60.95 15.72C60.54 15.34 61.18 14.8 61.76 14.59C62.33 14.38 63.06 13.99 62.81 13.52C63.16 13.51 63.51 13.5 63.86 13.49C63.95 13.25 63.69 13.03 63.46 12.86C62.72 12.33 61.96 11.79 61.03 11.51C60.1 11.23 58.96 11.27 58.24 11.81C58.3 12.28 58.27 12.76 58.16 13.22C57.58 13.08 56.99 12.95 56.41 12.81C56 12.55 56.12 11.99 56.49 11.68C56.85 11.37 57.37 11.23 57.84 11.03C58.93 10.58 59.78 9.79 60.2 8.87C59.73 8.54 59.15 8.19 58.55 8.3C58.52 7.91 58.49 7.51 58.46 7.12C57.99 7 57.52 6.87 57.05 6.75C56.44 6.13 56.03 5.39 55.85 4.61C55.77 4.61 55.69 4.61 55.6 4.6C55.45 4.67 55.3 4.74 55.15 4.81C54.85 4.95 54.53 5.09 54.18 5.15C54.02 5.18 53.85 5.19 53.7 5.23C53.37 5.34 53.17 5.62 53.11 5.91C53.06 6.2 53.13 6.49 53.21 6.77C52.38 6.89 51.42 6.34 50.74 6.74C50.59 6.82 50.47 6.95 50.31 7.02C49.82 7.23 49.25 6.83 49.08 6.41C48.93 6.05 48.92 5.66 48.76 5.31C48.74 5.31 48.73 5.31 48.71 5.31C48.55 5.31 48.38 5.25 48.24 5.31C48.05 5.39 48.04 5.62 47.88 5.75C47.76 5.84 47.59 5.85 47.42 5.85C46.65 5.88 45.86 5.91 45.09 5.94C44.98 6.2 45.09 6.49 45.11 6.77C45.14 7.05 45.06 7.38 44.74 7.49C44.6 7.54 44.43 7.54 44.28 7.51C43.48 7.34 43.16 6.64 42.67 6.08C42.67 6.18 42.67 6.28 42.64 6.38C42.54 6.78 42.11 7.14 41.61 7.16C41.13 7.19 40.5 6.98 40.25 7.31C40.04 7.57 40.32 7.95 40.13 8.21C39.98 8.41 39.65 8.45 39.36 8.46C38.27 8.48 36.96 8.27 36.57 7.45C36.51 7.31 36.48 7.16 36.37 7.03C36.27 6.91 36.11 6.83 35.96 6.75C35.6 6.57 35.24 6.39 34.88 6.21C34.85 5.52 34.82 4.82 35.01 4.15C35.28 3.26 35.94 2.31 35.41 1.51C35.35 1.42 35.27 1.33 35.16 1.29C35.01 1.23 34.83 1.26 34.67 1.22C34.23 1.13 34.11 0.67 33.8 0.4C33.65 0.26 33.46 0.18 33.26 0.13C33.29 0.28 33.27 0.44 33.17 0.58C32.95 0.9 32.46 1 32.05 1.14C31.65 1.29 31.24 1.64 31.42 1.97C30.76 1.97 30.1 1.97 29.44 1.97C29.26 1.97 29.06 1.97 28.9 2.05C28.54 2.21 28.55 2.63 28.47 2.96C28.38 3.29 27.89 3.64 27.6 3.39C27.86 3.21 27.55 2.86 27.22 2.79C26.89 2.73 26.5 2.79 26.21 2.65C26.02 2.55 25.92 2.38 25.78 2.24C25.31 1.76 24.39 1.59 23.7 1.87C23.59 2.3 23.72 2.74 23.85 3.16C23.93 3.42 24 3.66 24.08 3.92C24.33 4.75 24.83 5.77 25.89 5.81C25.86 6.24 25.74 6.67 25.43 7.01C25.11 7.35 24.55 7.56 24.05 7.45C24.29 7.69 24.23 8.06 23.98 8.28C23.72 8.51 23.32 8.59 22.95 8.55C22.72 8.52 22.5 8.46 22.29 8.5C21.76 8.61 21.71 9.19 21.78 9.63C20.92 9.55 20.06 9.48 19.2 9.4C18.88 9.37 18.53 9.34 18.26 9.18C17.98 9.03 17.82 8.72 17.99 8.49C17.12 8.34 16.6 7.72 16.24 7.03C15.83 7.3 15.15 7.35 14.57 7.34C13.64 7.33 12.7 7.32 11.77 7.3C11.08 7.29 10.23 7.36 9.96 7.87C9.76 8.24 10.01 8.69 10.41 8.94C10.8 9.19 11.31 9.29 11.8 9.39C11.76 9.59 11.71 9.79 11.67 10C11.14 9.81 10.48 9.9 10.06 10.23C9.64 10.55 9.5 11.08 9.7 11.51C9.95 12.02 10.64 12.56 10.25 13.01C10.99 13.54 11.15 14.43 11 15.22C10.85 16 10.43 16.74 9.83 17.36C9.96 18.32 9.72 19.32 8.75 19.83C8.23 20.11 7.58 20.18 6.98 20.33C5.63 20.66 4.47 21.38 3.47 22.18C3.03 22.54 2.61 22.91 2.22 23.31C2.04 23.49 1.87 23.68 1.79 23.91C1.63 24.39 1.94 24.97 1.55 25.35C1.32 25.58 0.87 25.69 0.8 25.98C0.76 26.19 0.94 26.38 0.95 26.59C0.96 26.78 0.85 26.95 0.76 27.12C0.5 27.6 0.4 28.13 0.49 28.64C0.6 29.35 1.04 30.01 1.52 30.61C1.83 30.99 2.15 31.36 2.51 31.72C3.14 32.37 3.88 33 4.86 33.26C5.38 33.39 5.94 33.42 6.49 33.38C7.09 33.34 7.8 33.09 7.81 32.61C8.16 33.65 8.51 34.7 8.86 35.75C9.52 35.81 10.16 35.62 10.82 35.61C11.4 35.6 12.08 35.83 12.26 36.25C12.54 36.08 12.82 35.91 13.11 35.74C13.45 35.53 13.8 35.33 14.15 35.13C14.44 34.96 14.77 34.72 14.7 34.43C15.17 34.43 15.65 34.43 16.12 34.43C16.13 34.01 16.33 33.6 16.67 33.29C17.13 33.29 17.59 33.28 18.05 33.28C18.44 32.63 19.54 32.58 20.42 32.61C20.65 32.63 20.88 32.64 21.07 32.73C21.37 32.87 21.49 33.17 21.5 33.45C21.53 34.13 21.04 34.75 20.93 35.42C20.83 36.1 21.47 36.95 22.27 36.74C22.31 37.18 22.33 37.62 22.37 38.06C22.63 37.84 23.1 37.98 23.39 38.19C23.67 38.39 23.92 38.67 24.29 38.73C24.57 38.78 24.85 38.7 25.13 38.65C26.63 38.37 28.39 39.35 28.29 40.59C28.86 40.56 29.43 40.53 30 40.51C29.86 40.86 30.35 41.18 30.81 41.21C31.27 41.24 31.73 41.11 32.18 41.14C32.64 41.17 33.14 41.5 32.99 41.85C33.43 41.84 33.87 41.83 34.31 41.82C33.74 43.29 33.78 44.9 34.44 46.34C34.61 46.69 34.82 47.05 35.21 47.26C35.82 47.58 36.62 47.41 37.34 47.31C38.06 47.2 38.96 47.24 39.3 47.76C39.51 48.1 39.4 48.49 39.38 48.87C39.35 49.24 39.49 49.69 39.93 49.8C40.19 49.87 40.51 49.8 40.72 49.94C40.92 50.07 40.9 50.32 40.87 50.53C40.59 52.34 40.32 54.15 40.04 55.95C39.89 56.02 39.74 56.09 39.59 56.16C40.47 57.51 40.73 59.12 40.3 60.61C41.78 60.88 43.66 60.27 44.65 61.19C45.01 61.53 45.13 62 45.24 62.45C45.42 63.24 45.61 64.03 45.79 64.82C46.55 65.18 47.57 64.81 48.37 65.12C48.96 65.35 49.27 65.89 49.29 66.42C49.31 66.94 49.09 67.45 48.88 67.94C49.29 68.33 48.63 68.98 48.89 69.45C49.08 69.76 49.53 69.89 49.86 70.12C50.28 70.41 50.47 70.9 50.34 71.33C50.01 71.48 49.68 71.63 49.35 71.78C49.64 72.15 49.26 72.65 48.8 72.88C48.33 73.12 47.77 73.23 47.39 73.54C46.81 74 46.78 74.8 46.14 75.21C45.82 75.42 45.4 75.49 45.02 75.62C43.92 76.04 43.32 77 42.81 77.89C42.47 78.49 42.12 79.08 41.78 79.68C42.56 80.07 43.5 80.26 44.42 80.22C44.94 80.47 44.57 81.23 45.03 81.55C45.38 81.79 45.95 81.61 46.36 81.79C46.75 81.97 46.82 82.4 47.14 82.66C47.67 83.1 48.65 82.86 49.31 83.17C49.68 83.35 49.91 83.68 50.09 84C50.69 85.11 50.95 86.33 50.85 87.54C50.85 87.63 50.83 87.72 50.83 87.81C50.93 87.73 51.02 87.65 51.14 87.58C51.75 87.19 52.65 86.97 52.86 86.36C52.95 86.09 52.89 85.78 53.08 85.54C53.27 85.32 53.63 85.25 53.9 85.09C55.14 84.4 54 82.57 55.32 81.97C55.22 81.48 55.13 80.97 55.32 80.5C55.51 80.02 56.07 79.61 56.68 79.68C56.84 79.69 57.01 79.74 57.15 79.67C57.29 79.58 57.27 79.4 57.25 79.26C57.14 78.28 58.36 77.35 59.57 77.5C59.24 77.13 59.68 76.62 60.17 76.4C60.66 76.17 61.27 76.01 61.48 75.59C61.56 75.43 61.57 75.24 61.69 75.09C61.86 74.88 62.2 74.8 62.48 74.69C63.69 74.23 64.18 72.84 63.46 71.93C63.27 71.69 63.01 71.48 62.87 71.21C62.65 70.79 62.78 70.3 62.91 69.85C63.3 68.58 63.89 67.11 65.42 66.68C66.23 66.45 67.23 66.54 67.8 66.03C67.99 65.86 68.11 65.65 68.3 65.48C68.53 65.28 68.83 65.17 69.13 65.06C69.92 64.77 70.71 64.48 71.5 64.19C71.86 64.06 72.24 63.92 72.44 63.64C72.61 63.42 72.62 63.13 72.77 62.89C73.04 62.47 73.69 62.28 74.27 62.32C74.86 62.36 75.39 62.58 75.91 62.79C76.53 61.9 77.81 61.34 79.08 61.39C79.4 61.41 79.75 61.45 80.05 61.34C80.51 61.16 80.64 60.66 81.08 60.45C81.43 60.27 81.89 60.33 82.27 60.19C82.86 59.97 83.05 59.39 83.17 58.88C83.5 57.51 83.82 56.14 84.14 54.78C84.24 54.4 84.33 54.02 84.54 53.68C85.08 52.86 86.37 52.16 86.03 51.27C86.48 51.4 86.99 51.14 87.2 50.8C87.42 50.46 87.42 50.06 87.41 49.67C87.38 48.15 86.53 46.35 87.41 45C87.93 44.21 87.54 43.1 86.57 42.66C86.57 42.02 86.56 41.39 86.56 40.75C86.84 40.65 87.13 40.55 87.42 40.45C86.99 39.94 87.4 39.24 87.95 38.81C88.5 38.39 89.2 38.06 89.54 37.51C89.62 37.39 89.67 37.25 89.78 37.15C89.97 36.98 90.29 36.93 90.54 36.82C91.06 36.61 91.38 36.12 91.32 35.65C91.83 35.84 92.45 35.64 92.81 35.29C93.18 34.95 93.34 34.51 93.5 34.07C93.96 34.12 94.45 34.1 94.9 34C95.1 32.88 95.3 31.77 95.51 30.65C95.83 30.59 96.14 30.53 96.46 30.47C96.46 30.07 96.46 29.66 96.46 29.25C96.71 29.24 96.97 29.24 97.22 29.23C97.58 27.75 97.63 26.23 97.39 24.74L97.41 24.74Z" fill="#FF5A57" fill-opacity="1.000000" fill-rule="nonzero"/>
	<path id="Vector" d="M50.73 88.04L50.76 87.81C50.76 87.72 50.78 87.64 50.78 87.55C50.88 86.36 50.62 85.15 50.02 84.05C49.86 83.75 49.65 83.42 49.28 83.25C49.01 83.13 48.65 83.09 48.32 83.07C47.88 83.03 47.41 82.99 47.09 82.73C46.95 82.61 46.86 82.46 46.77 82.32C46.65 82.14 46.54 81.96 46.33 81.87C46.17 81.8 45.97 81.79 45.75 81.78C45.48 81.77 45.2 81.77 44.99 81.61C44.74 81.44 44.71 81.17 44.68 80.9C44.65 80.65 44.62 80.42 44.42 80.3C43.49 80.33 42.55 80.14 41.76 79.75L41.69 79.71L42.75 77.86C43.31 76.88 43.9 75.96 45.01 75.56C45.14 75.51 45.27 75.47 45.4 75.43C45.66 75.35 45.91 75.28 46.11 75.15C46.43 74.94 46.59 74.63 46.76 74.31C46.91 74.01 47.07 73.71 47.35 73.48C47.6 73.28 47.92 73.16 48.23 73.04C48.42 72.97 48.6 72.9 48.77 72.81C49.21 72.58 49.53 72.13 49.29 71.81L49.24 71.75L50.28 71.28C50.38 70.88 50.21 70.44 49.82 70.17C49.72 70.1 49.59 70.04 49.48 69.97C49.23 69.84 48.97 69.71 48.84 69.48C48.7 69.24 48.78 68.96 48.86 68.7C48.94 68.42 49.02 68.17 48.83 67.99L48.8 67.96L48.82 67.91C49.01 67.45 49.23 66.93 49.21 66.42C49.2 65.86 48.86 65.38 48.35 65.19C48.06 65.08 47.74 65.06 47.45 65.06C47.35 65.06 47.25 65.06 47.14 65.06C47.04 65.06 46.93 65.06 46.83 65.06C46.49 65.06 46.1 65.04 45.76 64.88L45.72 64.86L45.16 62.46C45.06 62.04 44.95 61.57 44.59 61.23C44.11 60.79 43.41 60.73 42.73 60.73C42.51 60.73 42.27 60.73 42.04 60.74C41.81 60.75 41.56 60.76 41.33 60.76C40.92 60.76 40.59 60.73 40.3 60.68L40.2 60.66L40.22 60.59C40.64 59.12 40.38 57.52 39.51 56.19L39.46 56.12L39.95 55.89L40.78 50.51C40.81 50.31 40.82 50.1 40.66 49.99C40.56 49.92 40.42 49.92 40.26 49.91C40.15 49.9 40.03 49.89 39.91 49.86C39.42 49.73 39.27 49.24 39.29 48.85C39.29 48.77 39.3 48.69 39.3 48.61C39.34 48.31 39.37 48.03 39.21 47.79C38.97 47.41 38.4 47.33 37.96 47.33C37.77 47.33 37.57 47.34 37.36 47.38L37.14 47.41C36.8 47.46 36.44 47.52 36.08 47.52C35.71 47.52 35.4 47.45 35.15 47.32C34.72 47.09 34.5 46.69 34.35 46.36C33.7 44.93 33.63 43.36 34.17 41.9L32.85 41.93L32.9 41.82C32.95 41.7 32.89 41.59 32.83 41.52C32.7 41.36 32.43 41.23 32.17 41.22C31.96 41.2 31.73 41.23 31.5 41.25C31.28 41.28 31.03 41.31 30.8 41.29C30.48 41.27 30.15 41.12 29.99 40.92C29.9 40.82 29.86 40.7 29.87 40.59L28.18 40.66L28.18 40.57C28.23 40.15 28.02 39.72 27.61 39.37C26.99 38.84 25.97 38.56 25.14 38.72C25.09 38.73 25.04 38.74 24.99 38.75C24.75 38.8 24.49 38.85 24.26 38.81C23.95 38.76 23.72 38.57 23.51 38.39C23.44 38.34 23.38 38.29 23.31 38.24C23.14 38.11 22.89 38.02 22.71 38.02C22.59 38.02 22.5 38.06 22.42 38.11L22.27 38.24L22.17 36.84C21.84 36.88 21.52 36.78 21.26 36.54C20.94 36.25 20.77 35.79 20.83 35.41C20.88 35.11 20.99 34.82 21.11 34.55C21.27 34.18 21.41 33.82 21.4 33.45C21.39 33.14 21.24 32.89 21.01 32.78C20.83 32.7 20.61 32.69 20.41 32.68C20.28 32.68 20.14 32.67 20 32.67C18.99 32.67 18.38 32.88 18.13 33.3L18.1 33.34L16.7 33.36C16.39 33.65 16.22 34.04 16.2 34.42L16.2 34.5L14.79 34.5C14.79 34.79 14.45 35.02 14.19 35.18L13.15 35.79C12.87 35.96 12.59 36.13 12.31 36.3L12.2 36.37L12.15 36.26C11.99 35.88 11.37 35.68 10.85 35.68L10.81 35.68C10.55 35.68 10.28 35.72 10.03 35.75C9.63 35.8 9.21 35.85 8.84 35.81L8.78 35.81L7.8 32.9C7.59 33.22 7.04 33.4 6.5 33.44C5.88 33.49 5.32 33.45 4.83 33.32C3.78 33.05 3 32.34 2.42 31.76C2.07 31.4 1.74 31.02 1.43 30.64C0.98 30.07 0.5 29.4 0.38 28.63C0.29 28.1 0.39 27.56 0.65 27.07L0.69 27.01C0.77 26.86 0.85 26.73 0.83 26.58C0.83 26.51 0.79 26.43 0.76 26.34C0.7 26.22 0.65 26.09 0.68 25.95C0.72 25.74 0.94 25.61 1.14 25.49C1.25 25.43 1.37 25.36 1.45 25.28C1.66 25.08 1.64 24.8 1.62 24.5C1.61 24.29 1.6 24.08 1.67 23.87C1.75 23.63 1.94 23.43 2.13 23.24C2.51 22.84 2.94 22.46 3.38 22.1C4.58 21.13 5.75 20.52 6.94 20.23C7.1 20.2 7.26 20.16 7.43 20.13C7.86 20.04 8.31 19.94 8.68 19.75C9.78 19.17 9.8 18 9.71 17.35L9.71 17.32L9.73 17.3C10.34 16.67 10.74 15.95 10.88 15.2C11.05 14.3 10.78 13.5 10.16 13.06L10.1 13.01L10.15 12.95C10.39 12.68 10.15 12.35 9.89 11.99C9.78 11.84 9.67 11.69 9.59 11.53C9.37 11.07 9.52 10.5 9.97 10.15C10.25 9.94 10.65 9.81 11.06 9.81C11.23 9.81 11.4 9.83 11.57 9.88L11.66 9.44C11.21 9.35 10.72 9.24 10.33 8.99C9.92 8.73 9.63 8.25 9.85 7.83C10.06 7.41 10.65 7.21 11.62 7.21C11.66 7.21 11.7 7.21 11.74 7.21L11.82 7.21L14.65 7.25C15.33 7.25 15.85 7.14 16.15 6.95L16.26 6.88L16.31 6.98C16.73 7.81 17.28 8.28 17.98 8.39L18.12 8.41L18.05 8.51C17.9 8.7 18.05 8.97 18.28 9.1C18.54 9.24 18.88 9.27 19.18 9.3L21.65 9.52C21.57 8.91 21.79 8.49 22.23 8.4C22.4 8.37 22.59 8.4 22.76 8.42C22.82 8.43 22.87 8.44 22.93 8.45C23.3 8.49 23.67 8.4 23.88 8.21C24.11 8 24.14 7.67 23.95 7.48L23.75 7.28L24.04 7.35C24.47 7.45 25.01 7.27 25.32 6.94C25.57 6.67 25.71 6.32 25.76 5.86C24.92 5.78 24.31 5.12 23.95 3.91L23.72 3.16C23.59 2.75 23.46 2.28 23.57 1.83L23.57 1.8L23.63 1.78C23.86 1.69 24.13 1.63 24.4 1.63C24.97 1.63 25.5 1.83 25.83 2.17C25.87 2.21 25.91 2.25 25.94 2.29C26.03 2.4 26.12 2.5 26.24 2.56C26.4 2.64 26.61 2.65 26.82 2.66C26.95 2.67 27.09 2.67 27.21 2.7C27.46 2.74 27.7 2.93 27.75 3.12C27.78 3.21 27.77 3.29 27.72 3.36C27.92 3.45 28.28 3.19 28.34 2.93C28.36 2.86 28.38 2.79 28.38 2.72C28.43 2.44 28.49 2.11 28.82 1.96C29 1.88 29.22 1.87 29.41 1.87L31.26 1.87C31.24 1.78 31.25 1.68 31.29 1.59C31.39 1.38 31.66 1.17 31.98 1.05C32.07 1.02 32.15 0.99 32.24 0.96C32.58 0.85 32.9 0.75 33.05 0.53C33.13 0.41 33.16 0.27 33.12 0.12L33.1 0L33.25 0.03C33.5 0.1 33.69 0.18 33.84 0.32C33.96 0.43 34.05 0.55 34.14 0.67C34.28 0.88 34.42 1.08 34.67 1.13C34.73 1.14 34.78 1.14 34.86 1.14C34.96 1.14 35.07 1.15 35.18 1.19C35.3 1.24 35.39 1.32 35.48 1.44C35.89 2.08 35.61 2.8 35.33 3.49C35.25 3.71 35.16 3.93 35.09 4.15C34.9 4.8 34.93 5.48 34.96 6.14L35.99 6.66C36.14 6.74 36.32 6.83 36.44 6.96C36.52 7.06 36.55 7.16 36.59 7.27C36.61 7.31 36.63 7.35 36.65 7.4C37.04 8.26 38.53 8.36 39.16 8.36C39.22 8.36 39.28 8.36 39.34 8.36C39.59 8.35 39.89 8.32 40.02 8.15C40.1 8.04 40.08 7.9 40.06 7.75C40.04 7.58 40.02 7.4 40.13 7.24C40.29 7.04 40.56 7.02 40.75 7.02C40.87 7.02 41 7.03 41.13 7.04C41.28 7.05 41.43 7.06 41.58 7.06C42.02 7.04 42.42 6.73 42.53 6.34C42.55 6.25 42.56 6.15 42.55 6.05L42.53 5.78L42.73 6C42.85 6.14 42.96 6.28 43.06 6.42C43.39 6.86 43.71 7.28 44.28 7.4C44.43 7.43 44.57 7.42 44.67 7.39C44.95 7.29 45.01 6.99 44.99 6.74C44.98 6.67 44.97 6.6 44.96 6.53C44.92 6.32 44.88 6.1 44.97 5.88L44.99 5.83L47.4 5.74C47.56 5.74 47.7 5.72 47.79 5.66C47.84 5.61 47.88 5.55 47.91 5.48C47.97 5.38 48.03 5.27 48.18 5.21C48.27 5.17 48.41 5.18 48.54 5.19C48.59 5.2 48.64 5.21 48.69 5.21C48.71 5.21 48.72 5.21 48.73 5.21L48.8 5.21L48.83 5.26C48.92 5.45 48.97 5.66 49.01 5.86C49.05 6.03 49.09 6.2 49.16 6.36C49.28 6.66 49.64 6.98 50.02 6.98C50.1 6.98 50.18 6.96 50.25 6.93C50.34 6.9 50.41 6.84 50.48 6.78C50.54 6.74 50.6 6.69 50.66 6.65C50.85 6.55 51.07 6.49 51.33 6.49C51.59 6.49 51.87 6.55 52.13 6.59C52.45 6.65 52.79 6.71 53.08 6.69C53.01 6.44 52.95 6.16 53 5.88C53.06 5.61 53.25 5.27 53.66 5.14C53.77 5.1 53.89 5.09 54 5.08C54.06 5.07 54.1 5.07 54.15 5.06C54.49 5 54.8 4.86 55.09 4.72L55.56 4.51L55.92 4.52L55.93 4.59C56.1 5.35 56.5 6.06 57.09 6.67L58.54 7.05L58.62 8.2C58.67 8.2 58.72 8.2 58.77 8.2C59.3 8.2 59.79 8.49 60.24 8.8L60.29 8.84L60.27 8.89C59.86 9.84 58.98 10.64 57.88 11.1C57.76 11.15 57.64 11.2 57.52 11.24C57.15 11.38 56.81 11.51 56.54 11.73C56.34 11.9 56.22 12.16 56.24 12.38C56.24 12.48 56.29 12.63 56.44 12.74L58.07 13.11C58.16 12.68 58.18 12.25 58.13 11.81L58.13 11.78L58.16 11.75C58.59 11.42 59.18 11.25 59.86 11.25C60.26 11.25 60.67 11.32 61.05 11.43C62.01 11.72 62.81 12.29 63.51 12.8C63.75 12.97 64.05 13.22 63.95 13.51L63.93 13.57L62.93 13.59C63.03 13.97 62.61 14.36 61.79 14.66C61.42 14.79 61 15.08 60.92 15.37C60.89 15.48 60.92 15.58 61.02 15.67C61.18 15.82 61.46 15.84 61.68 15.84C61.73 15.84 61.78 15.84 61.83 15.84C62.19 15.83 62.64 15.81 62.97 15.63C63.14 15.53 63.26 15.36 63.28 15.19C63.29 15.11 63.28 14.99 63.16 14.89L63.09 14.83L63.16 14.78C63.71 14.35 64.49 14.11 65.29 14.11C65.72 14.11 66.15 14.18 66.53 14.32C66.83 14.43 67.12 14.59 67.4 14.74C67.51 14.8 67.63 14.87 67.75 14.93C69.48 15.82 71.62 16.03 73.52 16.19C73.65 16.07 73.93 16.09 74.08 16.24C74.16 16.31 74.19 16.39 74.17 16.48L73.73 18.38C73.78 18.38 73.82 18.39 73.88 18.39C74.28 18.39 74.66 18.12 74.7 17.82L74.7 17.75L74.78 17.74C75.2 17.69 75.59 17.85 75.97 18.01C76.31 18.16 76.64 18.29 76.99 18.27C77.39 18.23 77.7 18 78.03 17.75C78.37 17.5 78.72 17.24 79.19 17.2C79.53 17.17 79.89 17.32 80.11 17.56C80.28 17.75 80.36 17.97 80.34 18.17C80.68 18.09 81.04 18.01 81.38 17.93C82.61 17.63 83.88 17.33 85.14 17.33C85.5 17.33 85.84 17.35 86.17 17.4C86.63 17.47 87.22 17.73 87.42 18.1C87.5 18.24 87.52 18.38 87.46 18.51C88.09 18.52 88.7 18.83 88.98 19.28C89.01 19.34 89.04 19.39 89.07 19.45C89.12 19.54 89.16 19.63 89.23 19.71C89.36 19.85 89.55 19.98 89.75 20.1C90.08 20.31 90.42 20.52 90.37 20.83L91.78 20.83L91.98 21.99C92.11 21.98 92.25 21.98 92.38 21.98C93.76 21.98 94.61 22.3 94.9 22.93C94.93 22.99 94.96 23.07 94.98 23.15C95.04 23.33 95.1 23.51 95.27 23.6C95.41 23.68 95.58 23.68 95.78 23.69C95.99 23.7 96.21 23.71 96.39 23.81C96.59 23.92 96.67 24.1 96.75 24.28C96.77 24.33 96.8 24.39 96.82 24.45C96.93 24.64 97.2 24.78 97.35 24.69L97.48 24.6L97.5 24.74C97.75 26.24 97.69 27.76 97.34 29.25L97.33 29.32L96.58 29.34L96.58 30.55L95.62 30.72L95.01 34.08L94.94 34.09C94.51 34.19 94.04 34.21 93.59 34.18C93.45 34.58 93.28 35.02 92.91 35.36C92.53 35.71 91.93 35.89 91.45 35.78C91.45 36.24 91.12 36.7 90.61 36.91C90.52 36.94 90.44 36.97 90.35 37C90.17 37.05 89.99 37.11 89.87 37.22C89.8 37.29 89.75 37.37 89.7 37.46C89.68 37.5 89.66 37.53 89.64 37.56C89.4 37.96 88.97 38.24 88.55 38.52C88.37 38.64 88.2 38.76 88.03 38.89C87.51 39.29 87.12 39.95 87.51 40.42L87.57 40.5L86.67 40.83L86.69 42.64C87.66 43.12 88.04 44.24 87.51 45.07C86.93 45.95 87.13 47.07 87.33 48.16C87.42 48.68 87.52 49.21 87.52 49.7C87.52 50.07 87.54 50.5 87.3 50.86C87.08 51.22 86.59 51.45 86.18 51.4C86.3 51.99 85.8 52.49 85.32 52.98C85.07 53.23 84.82 53.48 84.65 53.75C84.44 54.09 84.35 54.46 84.26 54.82L83.29 58.92C83.15 59.5 82.94 60.07 82.33 60.3C82.15 60.36 81.94 60.39 81.75 60.41C81.53 60.44 81.32 60.46 81.15 60.55C80.96 60.64 80.83 60.8 80.69 60.96C80.53 61.14 80.37 61.34 80.11 61.44C79.96 61.5 79.79 61.53 79.59 61.53C79.48 61.53 79.37 61.52 79.26 61.52C79.21 61.52 79.15 61.51 79.1 61.51C77.87 61.47 76.62 62.02 76.02 62.87L75.98 62.94L75.89 62.9C75.41 62.7 74.86 62.48 74.29 62.44C74.24 62.44 74.2 62.44 74.15 62.44C73.59 62.44 73.09 62.65 72.89 62.97C72.82 63.08 72.78 63.19 72.75 63.31C72.7 63.45 72.65 63.6 72.55 63.73C72.33 64.03 71.91 64.19 71.57 64.31L69.19 65.18C68.92 65.28 68.61 65.39 68.4 65.58C68.31 65.66 68.24 65.75 68.16 65.85C68.08 65.94 68 66.04 67.9 66.13C67.51 66.48 66.91 66.57 66.34 66.65C66.05 66.69 65.75 66.73 65.48 66.81C64.04 67.22 63.44 68.61 63.04 69.92C62.89 70.41 62.78 70.84 62.99 71.23C63.07 71.39 63.2 71.53 63.34 71.68C63.42 71.76 63.5 71.85 63.57 71.93C63.93 72.39 64.02 72.98 63.82 73.55C63.61 74.12 63.15 74.58 62.55 74.81C62.49 74.83 62.43 74.86 62.37 74.88C62.14 74.96 61.92 75.03 61.8 75.19C61.74 75.27 61.71 75.36 61.68 75.46C61.66 75.54 61.63 75.61 61.59 75.68C61.41 76.04 60.98 76.22 60.56 76.39C60.45 76.43 60.34 76.48 60.24 76.52C59.92 76.67 59.65 76.93 59.59 77.16C59.56 77.29 59.59 77.41 59.67 77.51L59.8 77.66L59.57 77.63C58.98 77.56 58.33 77.77 57.88 78.17C57.51 78.5 57.32 78.91 57.37 79.31C57.39 79.47 57.41 79.68 57.22 79.79C57.11 79.86 56.93 79.85 56.77 79.83C56.74 79.83 56.71 79.82 56.69 79.82C56.1 79.75 55.59 80.17 55.43 80.58C55.25 81.04 55.35 81.56 55.43 82.02L55.45 82.07L55.39 82.1C54.77 82.38 54.73 82.96 54.7 83.58C54.66 84.21 54.62 84.85 53.98 85.21C53.88 85.27 53.77 85.31 53.66 85.36C53.47 85.44 53.29 85.51 53.19 85.64C53.08 85.76 53.06 85.93 53.04 86.1C53.03 86.21 53.02 86.33 52.98 86.44C52.82 86.89 52.31 87.14 51.81 87.38C51.61 87.48 51.4 87.58 51.21 87.69C51.12 87.75 51.02 87.82 50.92 87.91L50.72 88.08L50.73 88.04ZM44.47 80.15L44.5 80.16C44.81 80.32 44.84 80.61 44.88 80.9C44.9 81.14 44.94 81.37 45.13 81.51C45.29 81.62 45.52 81.63 45.77 81.63C45.99 81.64 46.23 81.65 46.43 81.74C46.69 81.86 46.82 82.06 46.94 82.26C47.03 82.39 47.11 82.53 47.24 82.63C47.51 82.85 47.91 82.88 48.35 82.92C48.71 82.94 49.07 82.97 49.38 83.12C49.8 83.31 50.03 83.67 50.21 83.99C50.82 85.11 51.08 86.35 50.98 87.56C50.98 87.59 50.98 87.6 50.98 87.62C51.02 87.59 51.06 87.56 51.1 87.54C51.29 87.42 51.51 87.31 51.72 87.21C52.21 86.97 52.66 86.75 52.79 86.36C52.83 86.26 52.84 86.16 52.85 86.05C52.87 85.87 52.89 85.68 53.03 85.51C53.17 85.35 53.38 85.27 53.59 85.18C53.69 85.14 53.79 85.1 53.88 85.05C54.45 84.73 54.48 84.15 54.51 83.55C54.55 82.93 54.58 82.29 55.24 81.96C55.15 81.5 55.07 80.98 55.26 80.5C55.45 80.03 56.03 79.54 56.73 79.63C56.75 79.63 56.79 79.63 56.81 79.64C56.94 79.65 57.05 79.66 57.12 79.63C57.22 79.57 57.2 79.43 57.18 79.3C57.13 78.85 57.34 78.38 57.75 78.02C58.2 77.62 58.82 77.4 59.43 77.42C59.39 77.32 59.38 77.21 59.41 77.1C59.5 76.78 59.84 76.49 60.16 76.35C60.26 76.3 60.37 76.25 60.48 76.21C60.86 76.05 61.27 75.88 61.42 75.58C61.46 75.51 61.48 75.45 61.5 75.38C61.53 75.27 61.56 75.16 61.65 75.06C61.8 74.87 62.05 74.78 62.3 74.69C62.36 74.67 62.42 74.65 62.47 74.63C63.02 74.42 63.44 73.99 63.63 73.46C63.82 72.94 63.74 72.39 63.41 71.98C63.34 71.89 63.27 71.81 63.19 71.73C63.05 71.58 62.91 71.43 62.82 71.25C62.57 70.78 62.74 70.23 62.86 69.83C63.27 68.48 63.9 67.04 65.44 66.61C65.72 66.53 66.02 66.49 66.32 66.45C66.88 66.37 67.41 66.29 67.77 65.98C67.87 65.9 67.94 65.81 68.01 65.72C68.09 65.62 68.17 65.52 68.27 65.43C68.51 65.22 68.84 65.1 69.13 65L71.5 64.13C71.89 63.99 72.22 63.85 72.39 63.61C72.48 63.5 72.52 63.37 72.57 63.23C72.61 63.11 72.65 62.98 72.73 62.86C72.96 62.49 73.53 62.24 74.16 62.24C74.22 62.24 74.27 62.24 74.32 62.24C74.9 62.28 75.44 62.49 75.92 62.69C76.57 61.81 77.83 61.25 79.12 61.31C79.18 61.31 79.24 61.31 79.3 61.32C79.4 61.32 79.51 61.33 79.6 61.33C79.79 61.33 79.92 61.31 80.04 61.26C80.26 61.18 80.4 61.01 80.55 60.83C80.69 60.66 80.84 60.48 81.06 60.37C81.27 60.26 81.51 60.24 81.74 60.21C81.93 60.19 82.11 60.17 82.26 60.11C82.79 59.92 82.98 59.39 83.11 58.86L84.08 54.76C84.17 54.38 84.26 53.99 84.48 53.64C84.66 53.36 84.93 53.1 85.18 52.85C85.69 52.34 86.18 51.85 85.97 51.29L85.91 51.13L86.09 51.19C86.45 51.29 86.93 51.09 87.14 50.76C87.35 50.43 87.35 50.02 87.34 49.67C87.33 49.18 87.24 48.68 87.14 48.15C86.94 47.04 86.74 45.89 87.35 44.96C87.84 44.2 87.47 43.15 86.55 42.72L86.5 42.7L86.48 40.7L87.3 40.41C86.95 39.87 87.35 39.18 87.91 38.76C88.08 38.62 88.26 38.5 88.44 38.39C88.85 38.11 89.25 37.84 89.48 37.48C89.5 37.44 89.51 37.41 89.53 37.38C89.58 37.28 89.64 37.18 89.73 37.1C89.88 36.96 90.08 36.9 90.28 36.83C90.36 36.81 90.44 36.78 90.52 36.75C91 36.55 91.31 36.09 91.25 35.66L91.23 35.52L91.38 35.58C91.8 35.74 92.4 35.58 92.76 35.24C93.12 34.91 93.28 34.45 93.43 34.05L93.45 33.99L93.54 34C93.97 34.04 94.41 34.02 94.84 33.94L95.45 30.58L96.39 30.41L96.39 29.17L97.16 29.14C97.5 27.72 97.55 26.28 97.33 24.85C97.3 24.86 97.26 24.86 97.24 24.86C96.98 24.86 96.75 24.67 96.65 24.5C96.62 24.44 96.59 24.38 96.56 24.31C96.5 24.15 96.43 24.01 96.28 23.92C96.15 23.84 95.97 23.84 95.77 23.83C95.56 23.83 95.34 23.82 95.16 23.72C94.94 23.59 94.86 23.38 94.8 23.18C94.77 23.11 94.75 23.04 94.72 22.97C94.47 22.41 93.68 22.13 92.39 22.13C92.23 22.13 92.06 22.13 91.91 22.14L91.81 22.14L91.61 20.98L90.12 20.98L90.16 20.87C90.27 20.63 90.04 20.46 89.64 20.22C89.44 20.09 89.22 19.96 89.08 19.79C89.01 19.7 88.95 19.6 88.9 19.5C88.87 19.45 88.85 19.4 88.82 19.35C88.55 18.91 87.93 18.63 87.33 18.67L87.14 18.68L87.23 18.55C87.33 18.43 87.34 18.29 87.26 18.16C87.1 17.88 86.63 17.62 86.15 17.55C85.84 17.5 85.5 17.48 85.16 17.48C83.92 17.48 82.67 17.78 81.45 18.08C81.06 18.17 80.65 18.27 80.25 18.36L80.08 18.39L80.13 18.26C80.21 18.07 80.15 17.84 79.98 17.65C79.79 17.45 79.5 17.33 79.22 17.35C78.82 17.38 78.51 17.62 78.17 17.87C77.83 18.12 77.49 18.38 77.02 18.42C76.61 18.45 76.24 18.29 75.88 18.14C75.54 18 75.21 17.87 74.88 17.89C74.8 18.24 74.35 18.53 73.88 18.53C73.78 18.53 73.68 18.52 73.59 18.5L73.51 18.48L73.98 16.44C73.99 16.39 73.97 16.35 73.94 16.33C73.9 16.29 73.82 16.26 73.76 16.26C73.71 16.26 73.69 16.28 73.67 16.31L73.64 16.36L73.57 16.36C71.63 16.18 69.43 15.98 67.66 15.06C67.53 15 67.41 14.93 67.29 14.87C67.02 14.72 66.75 14.57 66.45 14.45C66.11 14.32 65.71 14.25 65.3 14.25C64.59 14.25 63.89 14.47 63.38 14.83C63.46 14.93 63.5 15.06 63.49 15.2C63.46 15.41 63.31 15.62 63.09 15.75C62.72 15.96 62.23 15.98 61.85 15.99C61.8 15.99 61.74 15.99 61.69 15.99C61.42 15.99 61.09 15.96 60.88 15.77C60.74 15.64 60.7 15.49 60.74 15.32C60.84 14.99 61.31 14.66 61.72 14.51C62.03 14.4 62.98 14.01 62.73 13.54L62.67 13.43L63.79 13.41C63.8 13.23 63.58 13.04 63.4 12.92C62.71 12.42 61.93 11.86 61.01 11.58C60.65 11.47 60.25 11.41 59.88 11.41C59.45 11.41 58.84 11.49 58.35 11.84C58.41 12.3 58.37 12.77 58.26 13.23L58.24 13.32L56.35 12.87C56.18 12.76 56.08 12.59 56.06 12.39C56.04 12.12 56.18 11.82 56.42 11.62C56.71 11.38 57.09 11.23 57.45 11.1C57.57 11.05 57.69 11.01 57.81 10.96C58.85 10.53 59.67 9.77 60.09 8.89C59.67 8.61 59.24 8.36 58.79 8.36C58.71 8.36 58.64 8.36 58.57 8.38L58.46 8.4L58.37 7.17L56.99 6.81L56.97 6.79C56.37 6.18 55.96 5.45 55.77 4.68L55.63 4.68L55.21 4.87C54.91 5.01 54.57 5.16 54.21 5.22C54.15 5.23 54.1 5.24 54.05 5.25C53.94 5.26 53.84 5.27 53.75 5.3C53.48 5.39 53.27 5.63 53.22 5.92C53.17 6.19 53.24 6.48 53.31 6.75L53.33 6.83L53.23 6.85C53.15 6.86 53.06 6.87 52.96 6.87C52.68 6.87 52.39 6.82 52.11 6.76C51.84 6.72 51.59 6.67 51.35 6.67C51.13 6.67 50.95 6.71 50.8 6.8C50.74 6.83 50.69 6.87 50.64 6.92C50.55 6.98 50.47 7.04 50.36 7.09C50.26 7.13 50.15 7.16 50.04 7.16C49.57 7.16 49.14 6.79 48.99 6.43C48.92 6.26 48.88 6.08 48.84 5.9C48.8 5.72 48.76 5.55 48.7 5.39C48.65 5.39 48.59 5.38 48.54 5.38C48.45 5.37 48.35 5.36 48.29 5.38C48.22 5.41 48.18 5.48 48.13 5.57C48.09 5.65 48.05 5.74 47.96 5.8C47.82 5.91 47.63 5.93 47.44 5.93L45.18 6.02C45.13 6.18 45.16 6.36 45.19 6.54C45.2 6.62 45.22 6.69 45.22 6.76C45.26 7.06 45.16 7.43 44.79 7.56C44.64 7.62 44.46 7.62 44.26 7.59C43.62 7.45 43.27 6.99 42.93 6.54C42.88 6.47 42.82 6.39 42.77 6.32C42.77 6.35 42.75 6.37 42.75 6.4C42.63 6.85 42.15 7.22 41.62 7.24C41.47 7.25 41.3 7.24 41.14 7.22C41.02 7.21 40.89 7.2 40.78 7.2C40.55 7.2 40.42 7.25 40.34 7.35C40.25 7.46 40.27 7.61 40.29 7.76C40.31 7.93 40.34 8.1 40.22 8.26C40.05 8.49 39.68 8.53 39.38 8.53C39.32 8.53 39.25 8.53 39.19 8.53C38.53 8.53 36.94 8.43 36.5 7.48C36.48 7.43 36.46 7.39 36.44 7.34C36.4 7.24 36.36 7.15 36.3 7.07C36.21 6.96 36.05 6.88 35.91 6.82L34.8 6.25L34.8 6.21C34.76 5.52 34.73 4.81 34.93 4.13C34.99 3.91 35.08 3.68 35.18 3.46C35.44 2.8 35.72 2.12 35.33 1.54C35.27 1.45 35.2 1.39 35.13 1.36C35.06 1.33 34.97 1.33 34.88 1.33C34.81 1.33 34.73 1.32 34.66 1.31C34.33 1.24 34.16 1.01 34.01 0.78C33.93 0.66 33.84 0.54 33.74 0.45C33.64 0.37 33.52 0.3 33.37 0.25C33.37 0.39 33.34 0.52 33.26 0.63C33.07 0.9 32.71 1.02 32.35 1.13C32.26 1.16 32.18 1.19 32.1 1.22C31.82 1.32 31.59 1.49 31.51 1.67C31.47 1.76 31.47 1.85 31.51 1.93L31.57 2.05L29.44 2.05C29.28 2.05 29.09 2.05 28.95 2.11C28.7 2.23 28.66 2.49 28.6 2.76C28.59 2.83 28.58 2.9 28.56 2.97C28.49 3.25 28.17 3.55 27.83 3.55C27.71 3.55 27.6 3.52 27.52 3.44L27.45 3.38L27.53 3.33C27.59 3.28 27.6 3.24 27.59 3.17C27.55 3.04 27.36 2.9 27.19 2.87C27.08 2.85 26.96 2.84 26.83 2.84C26.6 2.83 26.36 2.82 26.15 2.71C26 2.63 25.9 2.51 25.8 2.4C25.77 2.37 25.73 2.33 25.7 2.29C25.4 1.99 24.93 1.81 24.43 1.81C24.2 1.81 23.98 1.85 23.78 1.92C23.69 2.33 23.82 2.75 23.93 3.14L24.16 3.89C24.51 5.08 25.1 5.69 25.89 5.73L25.98 5.73L25.98 5.81C25.95 6.35 25.78 6.75 25.5 7.05C25.19 7.39 24.69 7.58 24.23 7.55C24.36 7.8 24.29 8.11 24.04 8.33C23.79 8.56 23.35 8.67 22.93 8.62C22.87 8.62 22.8 8.61 22.74 8.6C22.58 8.57 22.43 8.55 22.31 8.58C21.76 8.68 21.84 9.4 21.88 9.62L21.89 9.72L19.19 9.48C18.86 9.45 18.5 9.42 18.2 9.25C17.93 9.09 17.75 8.8 17.85 8.54C17.17 8.39 16.62 7.93 16.2 7.15C15.85 7.33 15.34 7.42 14.68 7.42L14.57 7.42L11.64 7.38C10.75 7.38 10.23 7.55 10.04 7.9C9.86 8.25 10.12 8.66 10.46 8.88C10.85 9.13 11.36 9.23 11.81 9.32L11.9 9.33L11.74 10.12L11.62 10.07C11.46 10.02 11.27 9.98 11.08 9.98C10.72 9.98 10.36 10.1 10.12 10.29C9.72 10.59 9.59 11.08 9.79 11.49C9.86 11.63 9.97 11.78 10.08 11.92C10.34 12.28 10.61 12.65 10.36 12.99C10.99 13.48 11.26 14.31 11.08 15.23C10.94 16 10.53 16.74 9.92 17.38C10.01 18.07 9.97 19.28 8.8 19.89C8.4 20.11 7.93 20.2 7.48 20.3C7.32 20.33 7.16 20.36 7.01 20.4C5.85 20.69 4.71 21.29 3.54 22.24C3.1 22.59 2.68 22.96 2.3 23.35C2.13 23.53 1.96 23.72 1.89 23.93C1.83 24.11 1.84 24.32 1.85 24.51C1.87 24.82 1.88 25.15 1.62 25.4C1.53 25.49 1.4 25.57 1.28 25.64C1.1 25.74 0.93 25.84 0.89 25.99C0.87 26.09 0.91 26.19 0.96 26.31C1 26.39 1.04 26.49 1.04 26.59C1.06 26.77 0.96 26.93 0.88 27.09L0.84 27.15C0.59 27.62 0.5 28.13 0.58 28.63C0.7 29.36 1.16 30.02 1.6 30.57C1.9 30.95 2.23 31.32 2.58 31.68C3.13 32.24 3.89 32.93 4.88 33.19C5.34 33.31 5.88 33.35 6.48 33.31C7.07 33.26 7.7 33.03 7.71 32.61L7.71 32.04L8.93 35.68C9.25 35.7 9.63 35.66 9.99 35.61C10.26 35.58 10.53 35.55 10.8 35.54L10.85 35.54C11.38 35.54 12.04 35.73 12.29 36.14C12.54 35.98 12.79 35.84 13.04 35.69L14.08 35.08C14.32 34.93 14.65 34.7 14.59 34.45L14.57 34.36L16.02 34.36C16.05 33.95 16.25 33.55 16.58 33.25L16.61 33.22L17.98 33.21C18.28 32.76 18.94 32.54 19.99 32.54C20.14 32.54 20.27 32.54 20.41 32.55C20.62 32.56 20.88 32.57 21.1 32.67C21.52 32.87 21.57 33.29 21.59 33.46C21.6 33.86 21.44 34.24 21.29 34.61C21.18 34.88 21.07 35.16 21.02 35.44C20.97 35.78 21.12 36.19 21.41 36.45C21.53 36.56 21.74 36.7 22.01 36.7C22.08 36.7 22.16 36.69 22.23 36.67L22.35 36.64L22.44 37.92C22.71 37.82 23.14 37.91 23.44 38.14C23.51 38.19 23.57 38.25 23.64 38.3C23.84 38.47 24.04 38.62 24.29 38.67C24.48 38.7 24.7 38.66 24.93 38.61C24.98 38.6 25.04 38.59 25.09 38.58C25.27 38.55 25.46 38.52 25.64 38.52C26.42 38.52 27.21 38.8 27.75 39.27C28.17 39.63 28.39 40.06 28.38 40.51L30.12 40.43L30.08 40.54C30.03 40.66 30.09 40.78 30.15 40.84C30.28 41 30.55 41.13 30.81 41.14C31.03 41.16 31.24 41.13 31.47 41.11C31.7 41.08 31.94 41.05 32.18 41.07C32.5 41.09 32.83 41.24 32.99 41.44C33.09 41.55 33.12 41.67 33.11 41.78L34.44 41.76L34.4 41.86C33.84 43.31 33.88 44.9 34.53 46.33C34.68 46.65 34.88 47.01 35.25 47.2C35.48 47.32 35.74 47.38 36.08 47.38C36.41 47.38 36.76 47.32 37.1 47.27L37.31 47.24C37.53 47.21 37.74 47.19 37.95 47.19C38.44 47.19 39.08 47.29 39.37 47.74C39.55 48.02 39.51 48.34 39.48 48.65C39.47 48.72 39.46 48.8 39.46 48.88C39.44 49.21 39.55 49.63 39.95 49.73C40.04 49.75 40.14 49.76 40.25 49.76C40.43 49.77 40.61 49.78 40.77 49.88C41 50.04 41 50.31 40.96 50.55L40.11 56.01L39.7 56.2C40.54 57.52 40.8 59.1 40.41 60.56C40.66 60.6 40.94 60.62 41.3 60.62C41.53 60.62 41.77 60.61 42 60.6C42.24 60.6 42.47 60.59 42.7 60.59C43.39 60.59 44.17 60.65 44.71 61.14C45.11 61.51 45.22 62.02 45.32 62.44L45.87 64.78C46.26 64.94 46.69 64.92 47.11 64.91C47.22 64.91 47.32 64.91 47.42 64.91C47.73 64.91 48.08 64.93 48.4 65.06C48.97 65.27 49.35 65.81 49.38 66.42C49.4 66.95 49.18 67.48 48.99 67.94C49.19 68.17 49.1 68.47 49.02 68.75C48.95 68.98 48.87 69.23 48.99 69.42C49.1 69.61 49.32 69.73 49.55 69.85C49.68 69.92 49.81 69.98 49.93 70.07C50.37 70.38 50.57 70.9 50.44 71.36L50.42 71.39L49.48 71.82C49.7 72.21 49.35 72.7 48.85 72.96C48.67 73.05 48.48 73.12 48.29 73.19C47.98 73.31 47.69 73.42 47.46 73.61C47.2 73.81 47.05 74.1 46.91 74.38C46.74 74.71 46.56 75.05 46.2 75.28C45.97 75.43 45.7 75.51 45.44 75.59C45.31 75.62 45.18 75.66 45.06 75.71C44.01 76.09 43.44 76.99 42.89 77.93L41.9 79.66C42.65 80.01 43.55 80.18 44.41 80.15L44.44 80.15L44.47 80.15Z" fill="#FFFFFF" fill-opacity="1.000000" fill-rule="nonzero"/>
	<path id="Vector" d="M27.98 61.5C28.39 61.62 28.79 61.74 29.21 61.86C29.14 62.05 29.11 62.26 29.21 62.45C29.41 62.81 29.96 62.93 30.4 63.11C30.84 63.28 31.28 63.71 30.99 64.04C31.4 63.75 32.05 64.01 32.42 64.34C32.79 64.67 33.14 65.09 33.69 65.13C33.9 65.14 34.13 65.1 34.32 65.18C34.57 65.28 34.63 65.56 34.88 65.67C35.17 65.81 35.55 65.64 35.87 65.72C36.29 65.83 36.41 66.29 36.81 66.43C37.1 66.54 37.44 66.44 37.73 66.54C38.06 66.65 38.21 66.95 38.4 67.19C38.61 67.43 39.04 67.63 39.3 67.43C39.47 67.98 40.28 68.33 40.94 68.14C41.23 68.36 41.09 68.76 40.81 68.98C40.53 69.21 40.15 69.33 39.85 69.54C39.17 70.02 39.13 70.98 39.77 71.49C39.45 71.58 39.19 71.78 39.06 72.03C39.93 72.64 41.08 72.97 42.24 72.96C42.79 72.95 43.35 72.86 43.89 72.95C44.43 73.04 44.97 73.39 44.97 73.83C44.97 74.11 44.76 74.39 44.89 74.65C44.96 74.79 45.13 74.89 45.28 74.98L45.91 75.35C46 75.31 46.09 75.27 46.16 75.22C46.8 74.8 46.84 74.01 47.41 73.54C47.79 73.23 48.35 73.12 48.82 72.89C49.28 72.65 49.65 72.16 49.37 71.78C49.7 71.64 50.03 71.48 50.36 71.34C50.49 70.9 50.3 70.41 49.88 70.12C49.55 69.9 49.1 69.76 48.91 69.45C48.65 68.99 49.31 68.34 48.9 67.95C49.11 67.46 49.33 66.95 49.31 66.42C49.29 65.9 48.97 65.35 48.39 65.13C47.59 64.82 46.57 65.19 45.81 64.83C45.63 64.04 45.44 63.24 45.26 62.45C45.15 62.01 45.03 61.54 44.67 61.2C43.67 60.28 41.8 60.89 40.32 60.62C40.75 59.13 40.49 57.52 39.61 56.16C39.76 56.1 39.91 56.03 40.06 55.96C40.08 55.82 40.1 55.67 40.12 55.53C39.97 55.46 39.82 55.4 39.67 55.32C39.44 55.2 39.19 55.06 38.91 55.01C38.43 54.93 37.94 55.12 37.45 55.1C36.89 55.08 36.4 54.8 35.85 54.7C34.96 54.54 34.02 54.86 33.12 54.73C32.53 54.63 31.96 54.34 31.37 54.45C30.94 54.52 30.62 54.8 30.35 55.09C29.79 55.71 29.41 56.42 29.1 57.15C28.69 58.14 28.41 59.15 28.26 60.18C28.1 60.2 27.94 60.22 27.79 60.24C28.07 60.59 28.04 61.07 27.98 61.5L27.98 61.5Z" fill="#FF5A57" fill-opacity="1.000000" fill-rule="nonzero"/>
	<path id="Vector" d="M45.91 75.44L45.24 75.05C45.09 74.96 44.9 74.86 44.81 74.69C44.72 74.51 44.77 74.32 44.82 74.14C44.85 74.03 44.88 73.94 44.88 73.84C44.88 73.43 44.37 73.12 43.88 73.04C43.58 72.99 43.16 73 42.77 73.02C42.6 73.03 42.42 73.04 42.25 73.04L42.16 73.04C41.02 73.04 39.87 72.7 39 72.09L38.95 72.05L38.98 72C39.1 71.77 39.34 71.58 39.62 71.47C39.36 71.21 39.22 70.87 39.23 70.5C39.25 70.1 39.46 69.72 39.81 69.48C39.95 69.38 40.11 69.3 40.26 69.22C40.45 69.13 40.62 69.05 40.76 68.93C40.92 68.81 41.02 68.62 41.02 68.45C41.02 68.36 40.98 68.29 40.92 68.23C40.81 68.26 40.7 68.27 40.57 68.27C39.99 68.27 39.45 67.97 39.25 67.56C39.19 67.58 39.12 67.59 39.05 67.59C38.76 67.59 38.47 67.41 38.33 67.24C38.28 67.18 38.23 67.12 38.19 67.05C38.05 66.87 37.92 66.69 37.7 66.61C37.57 66.57 37.43 66.57 37.28 66.56C37.11 66.56 36.94 66.56 36.77 66.5C36.55 66.42 36.42 66.27 36.29 66.12C36.16 65.97 36.03 65.84 35.84 65.79C35.73 65.76 35.57 65.77 35.42 65.79C35.2 65.81 34.98 65.81 34.83 65.74C34.69 65.68 34.61 65.57 34.52 65.47C34.45 65.37 34.38 65.29 34.27 65.24C34.19 65.2 34.09 65.2 33.99 65.2L33.8 65.2C33.76 65.2 33.72 65.2 33.68 65.2C33.18 65.16 32.84 64.85 32.52 64.55C32.46 64.49 32.4 64.43 32.34 64.39C32.07 64.15 31.7 63.99 31.41 63.99C31.27 63.99 31.14 64.02 31.05 64.09L30.44 64.52L30.9 63.99C30.98 63.9 30.99 63.81 30.96 63.7C30.9 63.5 30.65 63.29 30.35 63.17C30.27 63.14 30.18 63.11 30.09 63.07C29.7 62.94 29.29 62.8 29.12 62.47C29.03 62.31 29.02 62.12 29.09 61.9L27.88 61.55L27.88 61.49C27.94 61.08 27.98 60.61 27.7 60.28L27.62 60.18L27.93 60.14C28.01 60.13 28.09 60.12 28.17 60.11C28.32 59.1 28.6 58.09 29.01 57.13C29.38 56.25 29.78 55.58 30.28 55.04C30.5 54.79 30.86 54.46 31.35 54.37C31.45 54.36 31.54 54.35 31.63 54.35C31.95 54.35 32.26 54.43 32.56 54.51C32.75 54.57 32.95 54.62 33.14 54.65C33.52 54.71 34 54.68 34.44 54.63C34.93 54.58 35.46 54.55 35.87 54.63C36.1 54.67 36.33 54.75 36.54 54.82C36.85 54.93 37.14 55.02 37.45 55.03C37.65 55.04 37.86 55.01 38.06 54.98C38.35 54.94 38.66 54.9 38.93 54.95C39.2 54.99 39.43 55.11 39.66 55.24L39.71 55.26C39.79 55.3 39.89 55.35 39.98 55.39C40.04 55.42 40.09 55.44 40.15 55.47L40.21 55.49L40.13 56.01L39.72 56.2C40.55 57.52 40.81 59.11 40.42 60.56C40.68 60.6 40.96 60.62 41.31 60.62C41.55 60.62 41.78 60.61 42.02 60.6C42.25 60.6 42.49 60.59 42.71 60.59C43.41 60.59 44.18 60.66 44.72 61.15C45.12 61.51 45.24 62.03 45.33 62.44L45.88 64.78C46.27 64.94 46.7 64.93 47.12 64.91C47.23 64.91 47.33 64.91 47.44 64.91C47.74 64.91 48.1 64.93 48.42 65.06C48.99 65.27 49.36 65.81 49.39 66.42C49.41 66.95 49.19 67.48 49 67.94C49.2 68.17 49.12 68.47 49.03 68.75C48.96 68.98 48.89 69.23 49 69.42C49.11 69.61 49.33 69.73 49.57 69.85C49.69 69.92 49.82 69.99 49.94 70.07C50.38 70.38 50.59 70.9 50.45 71.36L50.44 71.39L49.5 71.82C49.71 72.22 49.36 72.71 48.86 72.96C48.69 73.05 48.49 73.12 48.31 73.19C47.99 73.31 47.7 73.42 47.47 73.61C47.22 73.81 47.07 74.1 46.92 74.38C46.75 74.71 46.58 75.05 46.22 75.28C46.14 75.33 46.05 75.38 45.95 75.42L45.9 75.44L45.91 75.44ZM43.35 72.84C43.56 72.84 43.75 72.86 43.92 72.89C44.48 72.98 45.07 73.34 45.07 73.84C45.07 73.96 45.04 74.07 45.01 74.17C44.96 74.33 44.92 74.49 44.99 74.62C45.05 74.74 45.18 74.83 45.35 74.92L45.92 75.25C45.99 75.22 46.05 75.19 46.1 75.15C46.42 74.95 46.58 74.64 46.75 74.31C46.9 74.02 47.06 73.72 47.34 73.49C47.59 73.29 47.91 73.16 48.23 73.04C48.41 72.97 48.59 72.91 48.76 72.82C49.21 72.59 49.52 72.14 49.29 71.82L49.23 71.75L50.27 71.28C50.38 70.89 50.2 70.44 49.82 70.18C49.71 70.11 49.59 70.04 49.47 69.98C49.22 69.85 48.96 69.71 48.83 69.49C48.69 69.24 48.77 68.97 48.85 68.71C48.93 68.43 49.01 68.18 48.82 68L48.79 67.96L48.81 67.92C49.01 67.46 49.23 66.93 49.21 66.42C49.19 65.87 48.85 65.38 48.35 65.19C48.06 65.08 47.73 65.07 47.44 65.07C47.34 65.07 47.24 65.07 47.14 65.07C47.03 65.07 46.93 65.07 46.82 65.07C46.48 65.07 46.09 65.05 45.75 64.89L45.71 64.87L45.15 62.45C45.05 62.04 44.94 61.57 44.58 61.24C44.1 60.79 43.41 60.73 42.72 60.73C42.5 60.73 42.26 60.73 42.04 60.75C41.8 60.75 41.56 60.76 41.32 60.76C40.91 60.76 40.58 60.73 40.29 60.68L40.19 60.67L40.21 60.59C40.63 59.12 40.37 57.52 39.5 56.19L39.45 56.12L39.94 55.9L40 55.56C39.96 55.55 39.92 55.53 39.88 55.51C39.79 55.47 39.69 55.43 39.6 55.38L39.55 55.35C39.34 55.24 39.12 55.13 38.88 55.08C38.65 55.04 38.37 55.08 38.09 55.11C37.87 55.15 37.65 55.18 37.43 55.17C37.08 55.16 36.76 55.05 36.45 54.95C36.24 54.88 36.02 54.8 35.81 54.76C35.42 54.69 34.92 54.73 34.45 54.77C33.99 54.81 33.49 54.85 33.09 54.78C32.88 54.75 32.68 54.69 32.48 54.64C32.18 54.56 31.9 54.48 31.62 54.48C31.54 54.48 31.46 54.49 31.38 54.5C30.95 54.58 30.62 54.89 30.41 55.11C29.93 55.64 29.54 56.29 29.17 57.16C28.76 58.14 28.48 59.15 28.34 60.17L28.34 60.23L28.26 60.24C28.15 60.25 28.04 60.27 27.94 60.28L27.92 60.28C28.14 60.62 28.12 61.04 28.07 61.42L29.3 61.78L29.28 61.85C29.22 61.99 29.19 62.21 29.28 62.39C29.41 62.65 29.79 62.79 30.15 62.91C30.24 62.94 30.33 62.97 30.41 63.01C30.7 63.12 31.03 63.36 31.13 63.64C31.14 63.71 31.15 63.77 31.14 63.83C31.22 63.81 31.3 63.8 31.39 63.8C31.8 63.8 32.23 64.04 32.46 64.26C32.52 64.31 32.58 64.37 32.64 64.42C32.94 64.7 33.25 64.99 33.67 65.02C33.71 65.02 33.75 65.02 33.78 65.02L33.97 65.02C34.08 65.02 34.22 65.02 34.34 65.08C34.49 65.14 34.57 65.25 34.66 65.36C34.73 65.45 34.8 65.53 34.9 65.58C35.02 65.63 35.2 65.63 35.38 65.61C35.55 65.59 35.74 65.58 35.88 65.62C36.13 65.68 36.28 65.85 36.42 66.01C36.55 66.15 36.67 66.27 36.83 66.34C36.95 66.39 37.1 66.39 37.26 66.39C37.42 66.39 37.59 66.39 37.74 66.44C38.02 66.54 38.18 66.75 38.33 66.95C38.38 67.01 38.42 67.07 38.47 67.12C38.66 67.36 39.04 67.49 39.21 67.35L39.34 67.26L39.38 67.39C39.5 67.79 40.01 68.09 40.55 68.09C40.66 68.09 40.78 68.08 40.89 68.05L40.95 68.03L41 68.06C41.12 68.15 41.19 68.28 41.19 68.43C41.19 68.64 41.07 68.86 40.88 69.03C40.72 69.15 40.53 69.25 40.35 69.34C40.19 69.42 40.05 69.49 39.92 69.58C39.61 69.8 39.43 70.13 39.42 70.49C39.4 70.85 39.55 71.19 39.84 71.42L39.95 71.51L39.8 71.55C39.53 71.63 39.3 71.79 39.17 71.99C39.99 72.55 41.07 72.86 42.15 72.86L42.23 72.86C42.4 72.86 42.57 72.85 42.73 72.84C42.93 72.83 43.13 72.82 43.33 72.82L43.35 72.84Z" fill="#FFFFFF" fill-opacity="1.000000" fill-rule="nonzero"/>
	<path id="Vector" d="M39.98 88.83C40.25 89.31 40.49 89.87 41.09 90.09C41.7 90.3 42.49 90.07 43.02 90.4C43.47 90.68 43.79 91.33 44.3 91.14C44.75 90.97 44.51 90.34 44.87 90.06C45.11 89.87 45.5 89.92 45.83 89.95C47.37 90.09 48.98 89.6 50.01 88.66C50.3 88.39 50.55 88.09 50.85 87.83C50.87 87.75 50.87 87.66 50.88 87.57C50.98 86.36 50.72 85.14 50.12 84.03C49.94 83.7 49.72 83.37 49.33 83.2C48.67 82.89 47.7 83.13 47.16 82.69C46.85 82.43 46.78 81.99 46.39 81.82C45.98 81.64 45.41 81.82 45.06 81.58C44.6 81.26 44.96 80.5 44.45 80.24C43.53 80.29 42.59 80.1 41.81 79.71C41.85 79.63 41.89 79.55 41.94 79.48C41.74 79.55 41.53 79.62 41.34 79.7C40.82 79.9 40.27 80.15 40.05 80.58C39.91 80.86 39.93 81.17 39.91 81.48C39.91 81.78 39.86 82.09 39.82 82.39C39.68 83.5 39.53 84.59 39.38 85.69C39.36 85.89 39.32 86.11 39.17 86.27C39.03 86.41 38.82 86.49 38.68 86.62C38.33 86.92 38.44 87.41 38.56 87.81C38.57 87.84 38.58 87.87 38.59 87.9C39.23 87.86 39.72 88.37 39.98 88.85L39.98 88.83Z" fill="#FF5A57" fill-opacity="1.000000" fill-rule="nonzero"/>
	<path id="Vector" d="M44.11 91.25C43.81 91.25 43.58 91.02 43.36 90.8C43.23 90.67 43.1 90.54 42.96 90.45C42.7 90.29 42.34 90.28 41.97 90.27C41.66 90.26 41.34 90.25 41.06 90.15C40.48 89.95 40.21 89.45 39.97 89L39.89 88.86C39.78 88.64 39.32 87.92 38.61 87.96L38.52 87.96L38.47 87.81C38.33 87.37 38.24 86.87 38.61 86.54C38.68 86.48 38.76 86.43 38.85 86.37C38.94 86.32 39.02 86.27 39.09 86.2C39.23 86.05 39.26 85.84 39.29 85.67L39.72 82.37C39.76 82.07 39.8 81.76 39.81 81.46L39.81 81.32C39.82 81.06 39.83 80.78 39.96 80.52C40.2 80.06 40.78 79.81 41.29 79.6C41.42 79.55 41.54 79.51 41.66 79.47C41.74 79.44 41.82 79.42 41.9 79.38L42.14 79.29L41.94 79.65C42.69 80.01 43.56 80.18 44.44 80.14L44.47 80.14L44.5 80.15C44.81 80.31 44.84 80.6 44.88 80.89C44.9 81.13 44.94 81.36 45.13 81.5C45.29 81.61 45.52 81.62 45.77 81.62C45.99 81.63 46.23 81.64 46.43 81.73C46.69 81.85 46.82 82.05 46.94 82.25C47.03 82.38 47.11 82.52 47.24 82.62C47.51 82.84 47.92 82.87 48.35 82.91C48.71 82.93 49.07 82.96 49.39 83.11C49.8 83.3 50.03 83.66 50.21 83.98C50.82 85.1 51.08 86.34 50.98 87.56C50.97 87.64 50.96 87.73 50.95 87.82L50.95 87.85L50.93 87.87C50.76 88.01 50.61 88.17 50.46 88.32C50.34 88.45 50.21 88.58 50.08 88.69C49.16 89.53 47.77 90.03 46.36 90.03C46.18 90.03 45.99 90.02 45.82 90.01L45.78 90.01C45.65 89.99 45.52 89.98 45.39 89.98C45.18 89.98 45.03 90.02 44.93 90.1C44.79 90.21 44.75 90.4 44.71 90.59C44.67 90.83 44.62 91.09 44.32 91.2C44.25 91.22 44.17 91.24 44.1 91.24L44.11 91.25ZM38.68 87.8C39.45 87.8 39.91 88.49 40.08 88.79L40.15 88.95C40.39 89.38 40.63 89.84 41.13 90.01C41.39 90.1 41.68 90.11 41.98 90.11C42.36 90.12 42.76 90.13 43.08 90.33C43.24 90.42 43.37 90.56 43.51 90.7C43.75 90.94 43.98 91.17 44.26 91.07C44.46 90.99 44.49 90.8 44.54 90.58C44.58 90.36 44.62 90.15 44.81 90C44.95 89.89 45.14 89.84 45.41 89.84C45.54 89.84 45.68 89.85 45.81 89.86L45.85 89.86C46.02 89.89 46.2 89.89 46.37 89.89C47.73 89.89 49.06 89.41 49.94 88.6C50.07 88.49 50.19 88.36 50.31 88.24C50.45 88.09 50.6 87.93 50.76 87.8C50.77 87.71 50.78 87.63 50.79 87.56C50.89 86.36 50.63 85.15 50.03 84.06C49.87 83.75 49.65 83.43 49.29 83.26C49.01 83.13 48.66 83.1 48.33 83.07C47.88 83.04 47.42 83 47.1 82.74C46.96 82.62 46.86 82.47 46.77 82.33C46.65 82.14 46.54 81.97 46.34 81.88C46.18 81.8 45.98 81.8 45.76 81.79C45.49 81.78 45.21 81.77 45 81.62C44.75 81.45 44.71 81.17 44.69 80.9C44.66 80.65 44.63 80.42 44.43 80.31C43.49 80.34 42.56 80.15 41.77 79.75L41.7 79.72L41.75 79.61C41.63 79.65 41.51 79.7 41.4 79.74C40.91 79.93 40.37 80.17 40.15 80.58C40.04 80.81 40.03 81.07 40.03 81.32L40.03 81.46C40.02 81.77 39.98 82.08 39.94 82.38L39.5 85.68C39.48 85.87 39.44 86.11 39.27 86.3C39.19 86.38 39.08 86.44 38.99 86.5C38.91 86.54 38.83 86.59 38.77 86.64C38.46 86.91 38.55 87.34 38.68 87.76L38.68 87.79L38.69 87.79L38.68 87.8Z" fill="#FFFFFF" fill-opacity="1.000000" fill-rule="nonzero"/>
	<path id="Vector" d="M38.68 86.59C38.82 86.46 39.03 86.39 39.17 86.25C39.32 86.09 39.36 85.87 39.38 85.67C39.53 84.57 39.68 83.47 39.82 82.37C39.86 82.07 39.9 81.76 39.91 81.45C39.92 81.15 39.9 80.83 40.05 80.55C40.27 80.13 40.82 79.87 41.34 79.67C41.53 79.59 41.74 79.53 41.94 79.46C42.24 78.93 42.53 78.42 42.83 77.9C43.34 77.01 43.94 76.04 45.05 75.63C45.33 75.52 45.64 75.46 45.92 75.34L45.29 74.98C45.13 74.89 44.97 74.79 44.9 74.64C44.77 74.39 44.97 74.11 44.98 73.83C44.98 73.38 44.44 73.04 43.9 72.95C43.35 72.86 42.79 72.95 42.24 72.95C41.09 72.97 39.93 72.63 39.06 72.02C39.19 71.77 39.46 71.58 39.77 71.49C39.13 70.96 39.18 70.01 39.86 69.53C40.15 69.32 40.54 69.2 40.82 68.98C41.1 68.76 41.23 68.35 40.94 68.13C40.28 68.32 39.47 67.97 39.3 67.42C39.04 67.62 38.61 67.42 38.41 67.18C38.21 66.95 38.06 66.64 37.74 66.53C37.45 66.44 37.1 66.53 36.82 66.43C36.42 66.28 36.29 65.82 35.87 65.71C35.55 65.63 35.17 65.8 34.88 65.67C34.64 65.56 34.57 65.28 34.33 65.17C34.14 65.09 33.91 65.13 33.7 65.12C33.15 65.08 32.8 64.66 32.43 64.33C32.05 64.01 31.41 63.74 31 64.03C31.28 63.71 30.85 63.27 30.41 63.1C29.96 62.93 29.41 62.81 29.22 62.44C29.12 62.26 29.14 62.04 29.21 61.85C28.81 61.73 28.4 61.61 27.99 61.5C28.05 61.06 28.08 60.58 27.79 60.24C26.69 60.37 25.57 60.39 24.46 60.28C24.53 60.63 24.59 61 24.44 61.33C24.29 61.67 23.84 61.94 23.42 61.84C22.86 61.71 22.7 61.03 22.13 60.9C21.93 60.85 21.71 60.89 21.5 60.89C20.3 60.92 18.99 60.07 18.01 60.64C18 61.18 17.74 61.91 17.07 61.86C16.74 61.83 16.33 61.61 16.14 61.83C16.45 62.16 16.58 62.59 16.48 62.99C16.42 63.04 16.35 63.06 16.28 63.07C16.38 63.16 16.49 63.25 16.56 63.35C16.83 63.69 16.75 64.17 16.4 64.45C15.66 65.03 14.08 64.69 13.67 65.46C13.57 65.66 13.58 65.88 13.51 66.09C13.36 66.5 12.86 66.84 12.92 67.27C12.96 67.61 13.36 67.85 13.53 68.17C13.98 68.99 12.85 69.96 13.25 70.8C13.34 70.97 13.49 71.14 13.51 71.34C13.54 71.87 12.59 72.05 12.32 72.53C12.23 72.69 12.23 72.87 12.17 73.05C12 73.56 11.37 73.87 10.8 74.14C10.91 74.54 10.94 74.95 10.89 75.36C10.12 75.49 10.01 76.33 10.13 76.95C10.16 77.09 10.2 77.25 10.12 77.38C10.06 77.51 9.91 77.59 9.81 77.7C9.49 78.03 9.61 78.5 9.65 78.92C9.74 79.82 9.35 80.73 8.6 81.39C8.12 81.81 7.44 82.27 7.59 82.83C7.71 83.27 8.32 83.55 8.4 84C8.46 84.36 8.14 84.74 8.32 85.08C8.45 85.33 8.8 85.45 9.06 85.63C9.83 86.16 9.67 87.13 9.44 87.93C9.24 88.59 9.25 89.31 9.3 89.99C9.35 90.68 9.03 91.49 8.22 91.69C8.35 92.38 8.47 93.08 8.32 93.77C8.17 94.45 7.7 95.13 6.92 95.43C6.73 95.51 6.51 95.56 6.37 95.7C6.24 95.84 6.22 96.01 6.22 96.18C6.2 96.98 6.39 97.78 6.77 98.51C6.97 98.89 7.22 99.27 7.18 99.68C7.16 99.98 6.98 100.24 6.85 100.52C6.61 101.05 6.54 101.63 6.67 102.19C5.85 102.39 5.38 103.08 5.16 103.75C4.94 104.42 4.87 105.14 4.47 105.75C4.32 105.97 4.12 106.19 4.14 106.45C4.16 106.7 4.4 106.9 4.59 107.11C5.7 108.32 5.14 110.03 4.45 111.43C4.36 111.61 4.27 111.81 4.32 112C4.37 112.26 4.65 112.44 4.82 112.66C5.52 113.59 4.22 115 5.12 115.82C5.34 116.02 5.65 116.13 5.9 116.31C6.15 116.49 6.33 116.78 6.18 117.02C6.06 117.19 5.8 117.26 5.61 117.4C5.11 117.75 5.3 118.4 5.32 118.94C5.34 119.39 5.22 119.84 5.09 120.28C4.77 121.41 4.45 122.54 4.13 123.66C3.83 124.71 2.45 125.47 2.7 126.53C2.79 126.88 3.07 127.29 2.81 127.58C2.58 127.82 2.09 127.82 1.89 128.08C1.72 128.28 1.83 128.56 1.79 128.8C1.68 129.54 0.31 129.81 0.15 130.55C0.04 131.04 0.53 131.49 1.02 131.79C1.51 132.1 2.09 132.41 2.24 132.89C2.31 133.09 2.3 133.31 2.39 133.5C2.64 133.97 3.41 134.07 3.82 134.46C4.26 134.89 4.13 135.51 4.22 136.06C4.24 136.23 4.3 136.4 4.45 136.52C4.72 136.73 5.18 136.65 5.52 136.78C5.76 136.87 5.92 137.06 6.17 137.14C6.47 137.25 6.82 137.16 7.14 137.11C7.98 136.98 8.82 137.11 9.62 137.36C9.66 137.26 9.72 137.17 9.83 137.11C10.07 136.97 10.42 137.03 10.67 137.16C10.91 137.29 11.1 137.47 11.34 137.62C11.73 137.87 12.34 137.88 12.83 137.84C12.51 137.56 12.18 137.28 11.85 137C11.59 136.77 11.31 136.52 11.18 136.22C10.87 135.43 11.72 134.57 11.39 133.78C11.29 133.56 11.11 133.36 11.02 133.13C10.85 132.7 11.08 132.19 11.56 131.95C12.01 131.73 12.66 131.71 12.92 131.34C13.01 131.21 13.04 131.06 13.1 130.91C13.21 130.65 13.45 130.44 13.76 130.32C13.91 130.27 14.08 130.23 14.19 130.14C14.45 129.93 14.31 129.58 14.3 129.29C14.29 128.66 15.14 128.11 15.9 128.25C15.73 127.89 15.85 127.44 16.19 127.16C16.33 127.04 16.51 126.95 16.63 126.82C16.83 126.61 16.87 126.32 17.03 126.09C17.2 125.85 17.6 125.67 17.85 125.85C18.39 125.69 18.08 124.88 18.59 124.66C18.73 124.6 18.88 124.6 19.03 124.58C19.84 124.46 20.23 123.54 19.69 123.05C19.03 122.47 17.77 122.74 16.97 122.29C16.66 122.12 16.45 121.86 16.18 121.64C15.91 121.43 15.52 121.27 15.17 121.37C15.41 120.72 15.27 120.03 15.34 119.36C15.4 118.69 15.81 117.93 16.62 117.78C16.86 117.73 17.13 117.75 17.34 117.64C17.51 117.57 17.61 117.44 17.72 117.32C18.33 116.67 19.24 116.21 20.23 116.06C20.43 116.03 20.63 116 20.8 115.91C21.12 115.74 21.18 115.37 21.2 115.05C21.24 114.35 21.28 113.65 21.32 112.96C21.33 112.68 21.36 112.39 21.56 112.17C21.76 111.95 22.21 111.84 22.45 112.03C22.24 111.64 22.12 111.22 22.08 110.8C22.66 110.61 23.2 111.11 23.79 111.28C24.31 111.43 24.93 111.28 25.25 110.92C25.58 110.57 25.59 110.05 25.28 109.69C24.81 109.55 24.44 110.03 23.98 110.19C23.45 110.39 22.84 110.13 22.4 109.82C21.97 109.5 21.55 109.07 20.99 108.93C21.36 107.95 21.59 106.94 21.69 105.93C22.25 105.84 22.82 105.81 23.38 105.86C23.47 106.06 23.55 106.26 23.64 106.47C24.31 106.33 24.98 106.66 25.59 106.91C26.21 107.16 27.04 107.33 27.54 106.94C28 106.59 28.15 105.84 28.79 105.88C29.29 105.22 28.06 104.45 28.25 103.7C28.35 103.29 28.83 103.01 28.97 102.61C29.12 102.16 28.71 101.64 28.14 101.57C28.07 101.22 28.19 100.85 28.43 100.56C28.98 100.29 29.77 100.41 30.17 100.82C30.29 100.94 30.37 101.09 30.52 101.19C30.69 101.29 30.91 101.32 31.12 101.34C32.64 101.45 34.11 100.91 35.49 100.38C35.72 100.3 35.94 100.21 36.17 100.12C36.78 99.88 37.4 99.65 38 99.39C38.97 98.98 39.9 98.52 40.79 98.01C40.49 97.42 41.26 96.84 41.94 96.52C42.64 96.2 43.46 95.74 43.34 95.1C43.23 94.56 42.49 94.29 41.89 94.01C41.3 93.73 40.74 93.11 41.15 92.67C41.27 92.55 41.45 92.47 41.58 92.34C42.07 91.84 41.3 91.12 40.53 91.01C39.76 90.9 38.93 91.07 38.21 90.83C38.12 90.46 38.26 90.06 38.59 89.79C38.7 89.69 38.84 89.6 38.88 89.48C38.95 89.29 38.77 89.1 38.66 88.92C38.44 88.6 38.43 88.19 38.62 87.85C38.63 87.85 38.63 87.85 38.64 87.85C38.63 87.82 38.62 87.79 38.61 87.76C38.48 87.35 38.38 86.87 38.72 86.57L38.68 86.59Z" fill="#FF5A57" fill-opacity="1.000000" fill-rule="nonzero"/>
	<path id="Vector" d="M12.38 137.95C11.89 137.95 11.51 137.87 11.24 137.7C11.14 137.63 11.05 137.57 10.96 137.5C10.84 137.4 10.72 137.31 10.57 137.24C10.33 137.11 10.03 137.09 9.85 137.19C9.77 137.23 9.72 137.3 9.68 137.4L9.65 137.49L9.55 137.45C8.64 137.17 7.85 137.1 7.12 137.21C7.07 137.21 7.02 137.22 6.97 137.23C6.67 137.29 6.33 137.32 6.09 137.23C5.95 137.19 5.83 137.11 5.73 137.03C5.64 136.97 5.54 136.91 5.44 136.87C5.31 136.82 5.16 136.8 5 136.78C4.76 136.76 4.52 136.73 4.34 136.6C4.15 136.45 4.1 136.24 4.07 136.09C4.05 135.94 4.05 135.78 4.04 135.64C4.02 135.22 4 134.82 3.7 134.53C3.54 134.38 3.3 134.27 3.07 134.15C2.75 134 2.41 133.84 2.26 133.55C2.2 133.43 2.18 133.3 2.16 133.17C2.15 133.09 2.13 133.01 2.11 132.94C1.98 132.53 1.52 132.25 1.08 131.97L0.93 131.88C0.23 131.45 -0.08 130.99 0.01 130.55C0.1 130.16 0.49 129.9 0.87 129.65C1.25 129.39 1.6 129.16 1.65 128.81C1.66 128.73 1.66 128.65 1.65 128.56C1.64 128.39 1.63 128.21 1.75 128.06C1.87 127.9 2.07 127.83 2.26 127.77C2.43 127.71 2.58 127.66 2.68 127.56C2.85 127.37 2.75 127.12 2.66 126.86C2.62 126.76 2.58 126.66 2.56 126.56C2.4 125.91 2.85 125.36 3.27 124.83C3.56 124.46 3.87 124.08 3.99 123.66L4.95 120.28C5.07 119.85 5.2 119.41 5.18 118.96C5.18 118.86 5.16 118.76 5.15 118.65C5.11 118.17 5.06 117.68 5.5 117.35C5.57 117.3 5.65 117.26 5.73 117.22C5.86 117.15 5.98 117.09 6.05 117C6.18 116.81 6.02 116.55 5.8 116.39C5.7 116.32 5.59 116.26 5.47 116.19C5.31 116.11 5.15 116.02 5.01 115.89C4.51 115.44 4.64 114.82 4.78 114.22C4.9 113.69 5.01 113.14 4.69 112.72C4.64 112.65 4.58 112.58 4.51 112.52C4.37 112.37 4.22 112.23 4.18 112.04C4.13 111.82 4.23 111.6 4.32 111.42C4.92 110.19 5.59 108.4 4.47 107.18C4.43 107.14 4.4 107.11 4.37 107.07C4.2 106.89 4.02 106.71 4 106.47C3.98 106.24 4.13 106.04 4.26 105.84C4.29 105.8 4.32 105.77 4.34 105.73C4.62 105.33 4.73 104.86 4.84 104.4C4.9 104.19 4.96 103.97 5.03 103.75C5.19 103.27 5.6 102.43 6.53 102.16C6.42 101.61 6.48 101.04 6.73 100.52C6.76 100.45 6.79 100.38 6.83 100.31C6.94 100.1 7.03 99.91 7.05 99.7C7.09 99.37 6.91 99.05 6.74 98.73C6.71 98.67 6.68 98.62 6.65 98.56C6.26 97.82 6.07 97.01 6.09 96.21C6.09 96.02 6.11 95.82 6.26 95.67C6.38 95.55 6.56 95.48 6.72 95.42C6.76 95.41 6.8 95.4 6.84 95.38C7.52 95.12 8.03 94.52 8.19 93.77C8.34 93.09 8.21 92.39 8.09 91.72L8.08 91.65L8.16 91.63C8.91 91.45 9.2 90.69 9.16 90.02C9.12 89.34 9.11 88.61 9.31 87.93C9.53 87.16 9.69 86.22 8.97 85.71C8.89 85.66 8.81 85.61 8.72 85.56C8.52 85.45 8.3 85.33 8.2 85.13C8.08 84.92 8.14 84.7 8.2 84.49C8.25 84.33 8.29 84.18 8.26 84.03C8.23 83.82 8.06 83.65 7.88 83.46C7.7 83.28 7.52 83.09 7.46 82.86C7.32 82.34 7.82 81.92 8.27 81.55C8.34 81.48 8.42 81.42 8.48 81.36C9.21 80.72 9.59 79.82 9.52 78.95C9.52 78.88 9.5 78.82 9.5 78.75C9.45 78.37 9.4 77.97 9.69 77.67C9.73 77.62 9.78 77.59 9.82 77.55C9.89 77.49 9.96 77.43 9.99 77.36C10.05 77.25 10.03 77.12 9.99 76.99C9.84 76.26 10.03 75.48 10.75 75.31C10.79 74.93 10.76 74.54 10.65 74.17L10.64 74.11L10.7 74.09C11.29 73.82 11.88 73.52 12.04 73.05C12.06 72.98 12.07 72.92 12.08 72.85C12.1 72.74 12.13 72.63 12.19 72.52C12.31 72.29 12.57 72.14 12.81 71.98C13.12 71.78 13.38 71.62 13.36 71.36C13.36 71.25 13.29 71.14 13.22 71.03C13.18 70.97 13.15 70.91 13.12 70.85C12.91 70.41 13.09 69.94 13.27 69.49C13.44 69.04 13.61 68.61 13.4 68.22C13.33 68.11 13.23 68 13.13 67.89C12.97 67.71 12.81 67.53 12.78 67.3C12.74 67.01 12.92 66.76 13.1 66.53C13.2 66.39 13.31 66.24 13.37 66.09C13.4 66 13.42 65.92 13.43 65.83C13.45 65.7 13.47 65.57 13.54 65.45C13.78 64.99 14.41 64.9 15.01 64.81C15.49 64.74 15.98 64.67 16.28 64.42C16.6 64.16 16.67 63.73 16.43 63.42C16.36 63.33 16.26 63.24 16.16 63.15L16.05 63.06L16.2 63.02C16.26 63.01 16.31 62.99 16.34 62.97C16.43 62.6 16.3 62.2 16.02 61.91L15.97 61.86L16.01 61.81C16.08 61.72 16.2 61.68 16.34 61.68C16.47 61.68 16.6 61.71 16.73 61.74C16.84 61.77 16.94 61.79 17.03 61.8C17.05 61.8 17.07 61.8 17.09 61.8C17.68 61.8 17.86 61.05 17.86 60.65L17.86 60.61L17.9 60.59C18.15 60.45 18.43 60.38 18.76 60.38C19.18 60.38 19.6 60.49 20.05 60.6C20.5 60.71 20.95 60.83 21.39 60.83L21.45 60.83C21.5 60.83 21.56 60.83 21.61 60.82C21.79 60.81 21.97 60.81 22.11 60.84C22.42 60.92 22.62 61.13 22.81 61.34C22.99 61.53 23.16 61.72 23.4 61.78C23.74 61.86 24.16 61.63 24.3 61.32C24.45 61 24.38 60.63 24.33 60.31L24.31 60.21L24.43 60.22C25.5 60.32 26.62 60.31 27.74 60.17L27.79 60.17L27.83 60.21C28.12 60.57 28.1 61.04 28.05 61.47L29.28 61.82L29.26 61.89C29.21 62.04 29.17 62.25 29.26 62.43C29.39 62.69 29.77 62.83 30.13 62.95C30.22 62.98 30.31 63.02 30.39 63.05C30.68 63.16 31.01 63.4 31.11 63.68C31.13 63.75 31.13 63.81 31.13 63.88C31.2 63.85 31.28 63.84 31.37 63.84C31.79 63.84 32.21 64.09 32.45 64.3C32.5 64.35 32.56 64.41 32.62 64.46C32.92 64.74 33.23 65.03 33.65 65.06C33.69 65.06 33.73 65.06 33.76 65.06L33.95 65.06C34.07 65.06 34.2 65.06 34.32 65.12C34.47 65.18 34.56 65.29 34.64 65.4C34.71 65.49 34.78 65.57 34.88 65.62C34.99 65.67 35.18 65.67 35.36 65.65C35.54 65.64 35.72 65.63 35.86 65.66C36.11 65.73 36.26 65.89 36.4 66.05C36.53 66.19 36.65 66.32 36.81 66.38C36.93 66.43 37.08 66.43 37.24 66.43C37.4 66.43 37.57 66.43 37.72 66.48C38 66.58 38.16 66.79 38.31 66.99C38.36 67.05 38.4 67.11 38.45 67.16C38.64 67.4 39.02 67.53 39.19 67.39L39.32 67.3L39.36 67.43C39.48 67.83 39.99 68.13 40.53 68.13C40.64 68.13 40.76 68.12 40.87 68.09L40.93 68.07L40.98 68.1C41.1 68.19 41.17 68.32 41.17 68.47C41.17 68.68 41.06 68.9 40.86 69.07C40.7 69.19 40.51 69.29 40.33 69.38C40.17 69.46 40.03 69.53 39.9 69.62C39.59 69.84 39.41 70.17 39.4 70.53C39.38 70.89 39.53 71.23 39.82 71.46L39.93 71.55L39.78 71.59C39.51 71.67 39.29 71.83 39.15 72.03C39.97 72.59 41.06 72.91 42.13 72.91L42.21 72.91C42.38 72.91 42.55 72.89 42.71 72.88C43.12 72.86 43.55 72.85 43.88 72.91C44.45 73 45.04 73.36 45.04 73.86C45.04 73.98 45.01 74.09 44.98 74.19C44.93 74.35 44.88 74.51 44.96 74.64C45.01 74.76 45.14 74.85 45.31 74.94L46.06 75.37L45.93 75.44C45.77 75.51 45.6 75.56 45.43 75.61C45.3 75.65 45.18 75.68 45.05 75.73C44.01 76.12 43.43 77.01 42.88 77.96L41.98 79.54L41.94 79.55C41.87 79.58 41.79 79.61 41.7 79.64C41.58 79.68 41.46 79.72 41.34 79.77C40.85 79.96 40.32 80.2 40.1 80.61C39.98 80.83 39.98 81.09 39.98 81.34L39.98 81.48C39.96 81.79 39.93 82.1 39.89 82.4L39.45 85.7C39.42 85.9 39.39 86.14 39.21 86.32C39.13 86.41 39.03 86.46 38.93 86.52C38.85 86.57 38.78 86.62 38.72 86.67C38.41 86.94 38.49 87.37 38.63 87.79L38.68 87.97L38.61 87.97C38.46 88.28 38.48 88.65 38.66 88.94C38.68 88.97 38.7 89 38.73 89.03C38.83 89.18 38.96 89.36 38.89 89.55C38.85 89.67 38.74 89.76 38.64 89.84C38.62 89.85 38.59 89.87 38.57 89.89C38.29 90.14 38.15 90.49 38.21 90.82C38.57 90.93 38.95 90.94 39.3 90.94L39.69 90.94C39.94 90.94 40.21 90.94 40.47 90.99C40.99 91.06 41.51 91.4 41.69 91.77C41.8 92.01 41.76 92.25 41.58 92.44C41.51 92.5 41.43 92.56 41.36 92.61C41.28 92.66 41.21 92.71 41.15 92.77C41.04 92.88 41.01 93.02 41.05 93.17C41.13 93.51 41.52 93.82 41.87 93.99C41.94 94.02 42.02 94.05 42.09 94.09C42.63 94.34 43.25 94.62 43.35 95.13C43.48 95.81 42.65 96.29 41.9 96.63C41.19 96.96 40.53 97.5 40.79 98.03L40.81 98.09L40.75 98.12C39.86 98.64 38.92 99.1 37.95 99.51C37.36 99.76 36.75 100 36.16 100.22L35.44 100.5C34.29 100.93 32.87 101.48 31.43 101.48C31.29 101.48 31.15 101.48 31.01 101.46C30.8 101.45 30.56 101.41 30.37 101.29C30.26 101.22 30.18 101.12 30.1 101.03C30.07 100.99 30.03 100.96 30 100.92C29.77 100.69 29.39 100.54 29 100.54C28.78 100.54 28.58 100.59 28.4 100.67C28.19 100.92 28.09 101.24 28.13 101.55C28.4 101.6 28.65 101.75 28.81 101.95C28.99 102.18 29.05 102.44 28.97 102.68C28.9 102.88 28.75 103.05 28.6 103.22C28.45 103.4 28.3 103.56 28.25 103.76C28.17 104.08 28.38 104.42 28.58 104.75C28.83 105.16 29.08 105.58 28.78 105.98L28.75 106.02L28.69 106.02C28.69 106.02 28.66 106.02 28.64 106.02C28.34 106.02 28.16 106.26 27.96 106.55C27.83 106.73 27.7 106.92 27.52 107.06C27.3 107.22 27.02 107.31 26.68 107.31C26.22 107.31 25.76 107.16 25.46 107.04L25.26 106.95C24.81 106.76 24.34 106.57 23.87 106.57C23.77 106.57 23.67 106.59 23.57 106.61L23.49 106.62L23.22 105.99C22.71 105.96 22.2 105.98 21.69 106.05C21.59 107.03 21.37 108 21.03 108.94C21.42 109.06 21.75 109.33 22.07 109.58C22.18 109.66 22.28 109.75 22.38 109.82C22.89 110.19 23.45 110.33 23.85 110.19C24.01 110.13 24.15 110.04 24.29 109.94C24.52 109.8 24.76 109.64 25.02 109.64C25.1 109.64 25.17 109.65 25.23 109.67L25.26 109.68L25.28 109.71C25.62 110.1 25.61 110.65 25.25 111.03C25 111.3 24.57 111.47 24.12 111.47C23.97 111.47 23.82 111.45 23.68 111.41C23.48 111.36 23.28 111.26 23.08 111.16C22.74 110.99 22.42 110.84 22.12 110.91C22.16 111.3 22.28 111.69 22.47 112.06L22.67 112.44L22.31 112.15C22.23 112.08 22.13 112.07 22.06 112.07C21.88 112.07 21.69 112.15 21.58 112.27C21.39 112.48 21.37 112.78 21.36 113.02L21.24 115.11C21.22 115.48 21.14 115.85 20.79 116.04C20.63 116.13 20.44 116.15 20.26 116.18L20.18 116.19C19.22 116.34 18.33 116.79 17.73 117.42L17.69 117.46C17.59 117.57 17.49 117.69 17.32 117.77C17.17 117.84 16.98 117.86 16.81 117.88C16.73 117.89 16.66 117.9 16.58 117.91C15.77 118.06 15.42 118.81 15.36 119.42C15.34 119.65 15.34 119.89 15.34 120.12C15.34 120.52 15.36 120.92 15.23 121.31C15.53 121.29 15.88 121.41 16.17 121.64C16.28 121.72 16.37 121.81 16.46 121.89C16.62 122.04 16.76 122.18 16.95 122.28C17.3 122.48 17.75 122.53 18.19 122.58C18.74 122.65 19.31 122.72 19.69 123.05C19.96 123.3 20.04 123.68 19.88 124.04C19.73 124.4 19.38 124.66 18.98 124.71C18.93 124.72 18.89 124.72 18.84 124.73C18.74 124.74 18.64 124.75 18.56 124.78C18.35 124.87 18.3 125.09 18.26 125.33C18.2 125.6 18.14 125.88 17.81 125.98L17.75 125.99L17.71 125.96C17.54 125.84 17.18 125.97 17.04 126.18C16.98 126.27 16.94 126.37 16.89 126.48C16.83 126.63 16.76 126.79 16.63 126.92C16.55 127.01 16.45 127.08 16.36 127.14C16.3 127.18 16.23 127.22 16.17 127.27C15.87 127.53 15.75 127.94 15.92 128.28L15.98 128.42L15.8 128.38C15.42 128.31 14.98 128.42 14.67 128.68C14.44 128.87 14.31 129.1 14.32 129.34C14.32 129.41 14.33 129.49 14.34 129.56C14.37 129.8 14.4 130.06 14.17 130.25C14.08 130.33 13.95 130.37 13.83 130.41C13.79 130.42 13.75 130.43 13.71 130.44C13.43 130.55 13.2 130.75 13.1 130.99C13.08 131.03 13.06 131.09 13.04 131.13C13.01 131.23 12.98 131.33 12.91 131.43C12.73 131.69 12.38 131.79 12.04 131.88C11.86 131.94 11.67 131.98 11.52 132.06C11.08 132.28 10.86 132.75 11.02 133.15C11.06 133.26 11.13 133.36 11.2 133.47C11.27 133.58 11.34 133.68 11.39 133.8C11.57 134.22 11.42 134.65 11.29 135.07C11.16 135.48 11.04 135.87 11.18 136.24C11.3 136.53 11.58 136.77 11.83 136.99L12.95 137.96L12.75 137.97C12.6 137.98 12.46 137.99 12.33 137.99L12.38 137.95ZM10.12 136.96C10.31 136.96 10.5 137.01 10.68 137.1C10.83 137.18 10.97 137.28 11.09 137.38C11.17 137.44 11.27 137.51 11.36 137.58C11.63 137.74 12.04 137.81 12.58 137.79L11.74 137.06C11.48 136.84 11.17 136.58 11.04 136.25C10.88 135.84 11.02 135.41 11.15 135C11.28 134.58 11.4 134.19 11.25 133.82C11.21 133.71 11.14 133.62 11.08 133.51C11.01 133.4 10.93 133.29 10.88 133.16C10.7 132.69 10.95 132.15 11.47 131.89C11.64 131.81 11.83 131.76 12.02 131.7C12.34 131.61 12.64 131.52 12.8 131.31C12.85 131.24 12.88 131.15 12.91 131.06C12.93 131 12.94 130.94 12.96 130.89C13.09 130.61 13.35 130.38 13.68 130.26C13.72 130.24 13.76 130.23 13.81 130.22C13.91 130.18 14.02 130.15 14.09 130.09C14.25 129.96 14.22 129.75 14.19 129.54C14.18 129.46 14.17 129.38 14.17 129.31C14.17 129.03 14.31 128.75 14.58 128.53C14.89 128.27 15.32 128.13 15.73 128.17C15.62 127.8 15.75 127.39 16.07 127.12C16.13 127.06 16.2 127.02 16.27 126.98C16.36 126.91 16.45 126.85 16.52 126.78C16.63 126.67 16.69 126.53 16.75 126.38C16.79 126.27 16.84 126.16 16.91 126.06C17.05 125.86 17.33 125.71 17.57 125.71C17.66 125.71 17.75 125.73 17.83 125.77C18.01 125.69 18.05 125.49 18.1 125.26C18.15 125.01 18.21 124.73 18.5 124.6C18.62 124.56 18.74 124.54 18.86 124.53C18.9 124.53 18.94 124.52 18.98 124.51C19.31 124.47 19.6 124.24 19.73 123.94C19.85 123.63 19.8 123.32 19.57 123.11C19.24 122.82 18.73 122.75 18.19 122.69C17.73 122.64 17.25 122.58 16.87 122.36C16.67 122.25 16.51 122.09 16.35 121.95C16.26 121.86 16.17 121.78 16.07 121.7C15.78 121.47 15.43 121.37 15.16 121.45L14.98 121.5L15.04 121.35C15.19 120.94 15.19 120.52 15.19 120.07C15.19 119.83 15.19 119.59 15.21 119.35C15.27 118.7 15.67 117.88 16.57 117.71C16.66 117.69 16.74 117.68 16.83 117.68C16.99 117.66 17.14 117.64 17.26 117.58C17.39 117.52 17.48 117.42 17.58 117.32L17.62 117.28C18.24 116.62 19.18 116.15 20.18 115.98L20.26 115.97C20.43 115.95 20.59 115.92 20.72 115.85C21 115.7 21.05 115.38 21.07 115.05L21.2 112.96C21.21 112.7 21.23 112.37 21.45 112.13C21.63 111.93 21.96 111.82 22.23 111.87C22.08 111.53 21.98 111.17 21.95 110.81L21.95 110.75L22.01 110.73C22.11 110.7 22.21 110.68 22.31 110.68C22.63 110.68 22.93 110.83 23.22 110.97C23.4 111.06 23.59 111.16 23.78 111.21C23.9 111.24 24.02 111.26 24.16 111.26C24.54 111.26 24.91 111.11 25.13 110.88C25.42 110.57 25.44 110.09 25.17 109.76C24.93 109.71 24.7 109.85 24.45 110.02C24.3 110.12 24.14 110.22 23.97 110.28C23.84 110.33 23.69 110.35 23.54 110.35C23.01 110.35 22.53 110.06 22.29 109.89C22.19 109.81 22.08 109.73 21.97 109.64C21.65 109.38 21.31 109.12 20.92 109.02L20.83 109L20.86 108.93C21.22 107.96 21.45 106.95 21.55 105.94L21.55 105.88L21.63 105.87C22.19 105.78 22.78 105.76 23.35 105.79L23.42 105.79L23.67 106.39C23.75 106.38 23.84 106.37 23.93 106.37C24.44 106.37 24.93 106.57 25.4 106.77L25.6 106.85C25.88 106.97 26.3 107.11 26.72 107.11C27.02 107.11 27.25 107.04 27.43 106.9C27.59 106.78 27.72 106.61 27.83 106.44C28.05 106.14 28.26 105.82 28.69 105.82C28.88 105.51 28.68 105.16 28.45 104.79C28.24 104.43 28.02 104.07 28.11 103.7C28.17 103.47 28.33 103.29 28.49 103.11C28.63 102.94 28.77 102.79 28.83 102.61C28.89 102.42 28.85 102.2 28.7 102.01C28.55 101.82 28.32 101.69 28.07 101.66L28 101.65L27.99 101.59C27.92 101.23 28.04 100.84 28.3 100.54L28.32 100.52C28.53 100.41 28.78 100.35 29.05 100.35C29.51 100.35 29.94 100.52 30.2 100.79C30.24 100.83 30.27 100.88 30.31 100.92C30.38 101 30.45 101.08 30.53 101.14C30.68 101.23 30.89 101.26 31.07 101.28C31.2 101.29 31.33 101.29 31.47 101.29C32.86 101.29 34.27 100.76 35.39 100.33L36.11 100.05C36.7 99.83 37.31 99.59 37.9 99.35C38.83 98.95 39.75 98.5 40.61 98.01C40.38 97.41 41.08 96.83 41.84 96.47C42.53 96.16 43.3 95.71 43.18 95.14C43.1 94.7 42.55 94.45 42.02 94.21C41.94 94.17 41.87 94.14 41.79 94.1C41.4 93.92 40.97 93.56 40.87 93.18C40.83 92.99 40.87 92.8 41.02 92.65C41.08 92.58 41.17 92.53 41.24 92.47C41.32 92.42 41.38 92.37 41.43 92.32C41.61 92.14 41.58 91.94 41.51 91.81C41.36 91.48 40.9 91.19 40.45 91.12C40.2 91.09 39.94 91.08 39.7 91.08L39.32 91.08C38.94 91.08 38.5 91.07 38.1 90.93L38.06 90.92L38.04 90.88C37.95 90.48 38.1 90.05 38.45 89.76C38.48 89.74 38.49 89.72 38.52 89.7C38.61 89.63 38.7 89.56 38.72 89.48C38.76 89.35 38.67 89.22 38.57 89.08C38.55 89.05 38.53 89.01 38.51 88.98C38.29 88.64 38.27 88.2 38.46 87.84L38.45 87.8C38.31 87.36 38.22 86.86 38.59 86.54C38.66 86.47 38.74 86.42 38.83 86.37C38.92 86.32 39 86.26 39.07 86.19C39.21 86.05 39.24 85.84 39.27 85.66L39.7 82.36C39.74 82.06 39.78 81.76 39.79 81.45L39.79 81.31C39.8 81.05 39.81 80.77 39.94 80.52C40.18 80.05 40.75 79.8 41.27 79.59C41.39 79.55 41.52 79.51 41.64 79.46C41.71 79.44 41.78 79.42 41.85 79.39L42.73 77.86C43.29 76.88 43.88 75.96 44.99 75.56C45.12 75.51 45.25 75.47 45.38 75.43C45.49 75.4 45.6 75.37 45.71 75.32L45.22 75.04C45.07 74.95 44.88 74.85 44.79 74.68C44.7 74.5 44.75 74.31 44.81 74.13C44.83 74.02 44.86 73.93 44.86 73.83C44.86 73.42 44.35 73.11 43.86 73.03C43.55 72.97 43.14 72.99 42.75 73.01C42.58 73.02 42.4 73.03 42.23 73.03L42.14 73.03C41 73.03 39.85 72.68 38.98 72.08L38.93 72.04L38.96 71.99C39.08 71.76 39.32 71.57 39.6 71.46C39.34 71.2 39.2 70.85 39.21 70.49C39.23 70.08 39.44 69.71 39.79 69.47C39.93 69.37 40.09 69.29 40.25 69.21C40.43 69.12 40.6 69.04 40.74 68.92C40.9 68.79 41 68.6 41 68.44C41 68.35 40.96 68.28 40.91 68.22C40.79 68.25 40.68 68.26 40.55 68.26C39.97 68.26 39.43 67.96 39.23 67.54C39.17 67.57 39.1 67.58 39.03 67.58C38.74 67.58 38.46 67.4 38.31 67.23C38.26 67.17 38.21 67.11 38.17 67.04C38.03 66.85 37.9 66.67 37.68 66.6C37.55 66.56 37.41 66.56 37.26 66.55C37.09 66.55 36.92 66.55 36.75 66.49C36.53 66.41 36.4 66.26 36.27 66.11C36.14 65.96 36.01 65.83 35.82 65.78C35.71 65.75 35.55 65.76 35.4 65.78C35.18 65.8 34.96 65.8 34.81 65.73C34.67 65.67 34.59 65.56 34.5 65.46C34.43 65.36 34.36 65.28 34.25 65.23C34.17 65.19 34.07 65.19 33.97 65.19L33.78 65.19C33.75 65.19 33.7 65.19 33.66 65.19C33.16 65.15 32.82 64.83 32.5 64.53C32.44 64.48 32.38 64.42 32.32 64.38C32.05 64.13 31.68 63.98 31.39 63.98C31.25 63.98 31.13 64.01 31.03 64.08L30.42 64.51L30.88 63.98C30.96 63.89 30.98 63.8 30.94 63.69C30.88 63.49 30.63 63.27 30.34 63.16C30.25 63.13 30.16 63.09 30.07 63.06C29.68 62.93 29.27 62.78 29.1 62.46C29.02 62.29 29 62.1 29.07 61.89L27.86 61.54L27.86 61.48C27.92 61.08 27.96 60.64 27.72 60.31C26.65 60.43 25.58 60.45 24.55 60.36C24.6 60.66 24.65 61.02 24.5 61.34C24.31 61.74 23.8 62 23.36 61.9C23.04 61.82 22.86 61.61 22.67 61.4C22.49 61.2 22.32 61.02 22.07 60.96C21.96 60.93 21.8 60.94 21.64 60.94C21.59 60.94 21.53 60.95 21.48 60.95L21.41 60.95C20.95 60.95 20.47 60.83 20.01 60.72C19.58 60.61 19.16 60.5 18.78 60.5C18.51 60.5 18.28 60.55 18.08 60.66C18.05 61.3 17.71 61.97 17.03 61.91C16.92 61.9 16.81 61.88 16.7 61.85C16.51 61.8 16.33 61.77 16.24 61.82C16.53 62.16 16.65 62.59 16.54 62.99L16.54 63.02L16.51 63.03C16.49 63.05 16.45 63.07 16.42 63.08C16.49 63.15 16.56 63.22 16.62 63.29C16.9 63.66 16.82 64.18 16.44 64.49C16.09 64.77 15.56 64.85 15.06 64.92C14.48 65 13.94 65.09 13.74 65.47C13.68 65.58 13.66 65.69 13.64 65.81C13.62 65.9 13.61 66 13.57 66.09C13.51 66.26 13.4 66.42 13.28 66.57C13.12 66.79 12.95 67 12.98 67.24C13.01 67.43 13.15 67.59 13.3 67.75C13.41 67.87 13.52 67.98 13.59 68.12C13.83 68.56 13.65 69.04 13.47 69.5C13.29 69.94 13.13 70.36 13.32 70.75C13.34 70.81 13.38 70.86 13.42 70.92C13.49 71.04 13.57 71.17 13.58 71.31C13.6 71.66 13.27 71.86 12.95 72.06C12.72 72.2 12.49 72.35 12.38 72.54C12.34 72.63 12.31 72.73 12.29 72.84C12.28 72.91 12.27 72.98 12.24 73.05C12.07 73.56 11.48 73.88 10.87 74.15C10.98 74.55 11.01 74.95 10.95 75.35L10.95 75.4L10.87 75.41C10.21 75.53 10.06 76.27 10.2 76.92C10.23 77.06 10.26 77.23 10.18 77.39C10.13 77.48 10.04 77.55 9.97 77.62C9.93 77.65 9.89 77.68 9.86 77.72C9.61 77.98 9.65 78.34 9.7 78.69C9.7 78.76 9.72 78.82 9.72 78.88C9.8 79.79 9.4 80.74 8.64 81.41C8.57 81.48 8.5 81.54 8.42 81.6C7.99 81.97 7.54 82.34 7.66 82.78C7.71 82.97 7.87 83.14 8.04 83.31C8.23 83.51 8.42 83.71 8.46 83.96C8.49 84.13 8.44 84.3 8.4 84.47C8.35 84.67 8.29 84.86 8.38 85.02C8.46 85.17 8.64 85.27 8.83 85.38C8.92 85.42 9.01 85.48 9.1 85.54C9.9 86.09 9.74 87.1 9.5 87.91C9.31 88.57 9.33 89.28 9.37 89.95C9.41 90.65 9.1 91.46 8.3 91.7C8.42 92.37 8.54 93.06 8.39 93.74C8.21 94.54 7.67 95.18 6.92 95.47C6.88 95.48 6.84 95.5 6.8 95.51C6.65 95.56 6.51 95.61 6.42 95.7C6.3 95.82 6.29 95.99 6.28 96.14C6.26 96.92 6.45 97.71 6.82 98.43C6.85 98.49 6.88 98.55 6.92 98.6C7.1 98.93 7.28 99.27 7.25 99.65C7.23 99.88 7.12 100.1 7.01 100.3C6.98 100.37 6.94 100.44 6.92 100.51C6.68 101.02 6.62 101.59 6.74 102.13L6.75 102.2L6.67 102.22C5.77 102.44 5.37 103.26 5.22 103.73C5.15 103.94 5.09 104.16 5.04 104.37C4.92 104.83 4.8 105.31 4.52 105.75C4.49 105.78 4.47 105.82 4.44 105.86C4.31 106.05 4.19 106.22 4.2 106.41C4.22 106.59 4.37 106.75 4.53 106.92C4.56 106.95 4.6 106.99 4.64 107.03C5.81 108.31 5.13 110.15 4.51 111.42C4.43 111.59 4.34 111.78 4.38 111.96C4.41 112.1 4.54 112.23 4.67 112.36C4.74 112.43 4.81 112.51 4.87 112.58C5.23 113.06 5.1 113.63 4.98 114.19C4.84 114.78 4.72 115.34 5.16 115.74C5.28 115.85 5.43 115.93 5.59 116.01C5.71 116.07 5.82 116.14 5.94 116.22C6.21 116.41 6.42 116.74 6.23 117.02C6.14 117.15 5.99 117.22 5.85 117.3C5.77 117.34 5.7 117.38 5.64 117.42C5.27 117.68 5.32 118.14 5.36 118.58C5.37 118.69 5.38 118.8 5.39 118.9C5.41 119.36 5.28 119.82 5.15 120.26L4.19 123.64C4.07 124.09 3.75 124.48 3.45 124.86C3.02 125.39 2.62 125.88 2.77 126.47C2.79 126.56 2.83 126.66 2.86 126.76C2.97 127.05 3.08 127.34 2.85 127.59C2.73 127.72 2.54 127.79 2.36 127.86C2.19 127.92 2.02 127.98 1.94 128.09C1.85 128.2 1.86 128.35 1.87 128.5C1.87 128.59 1.88 128.69 1.87 128.78C1.81 129.19 1.4 129.46 1.01 129.72C0.64 129.97 0.29 130.2 0.22 130.53C0.12 131 0.62 131.42 1.06 131.7L1.21 131.79C1.68 132.08 2.16 132.38 2.31 132.84C2.34 132.93 2.35 133.02 2.36 133.1C2.38 133.22 2.4 133.33 2.45 133.44C2.58 133.68 2.87 133.82 3.19 133.97C3.43 134.08 3.68 134.2 3.86 134.38C4.21 134.71 4.23 135.16 4.25 135.58C4.26 135.73 4.26 135.88 4.28 136.02C4.3 136.15 4.34 136.33 4.48 136.43C4.62 136.54 4.82 136.56 5.03 136.58C5.2 136.6 5.37 136.62 5.53 136.68C5.65 136.73 5.76 136.8 5.86 136.87C5.96 136.94 6.05 137.01 6.17 137.04C6.37 137.11 6.66 137.08 6.94 137.03C6.99 137.02 7.03 137.02 7.09 137.01C7.83 136.89 8.63 136.96 9.53 137.23C9.57 137.16 9.63 137.08 9.74 137.01C9.85 136.95 9.98 136.92 10.12 136.92L10.12 136.96Z" fill="#FFFFFF" fill-opacity="1.000000" fill-rule="nonzero"/>
	<path id="Vector" d="M20.8 144.89C20.74 144.87 20.66 144.86 20.59 144.86C20.05 144.8 19.52 144.74 18.99 144.68C18.79 144.66 18.6 144.64 18.41 144.67C18.07 144.71 17.75 144.9 17.41 144.85C17.51 144.7 17.24 144.56 17.03 144.58C16.83 144.59 16.6 144.67 16.43 144.58C16.58 144.43 16.33 144.22 16.09 144.19C15.86 144.16 15.58 144.2 15.41 144.07C15.11 143.87 15.32 143.4 15.01 143.21C14.87 143.12 14.63 143.12 14.55 142.99C14.53 142.94 14.53 142.88 14.53 142.83C14.53 142.42 14.54 142.02 14.55 141.61C14.26 141.33 13.82 141.15 13.37 141.14C13.11 141.14 12.79 141.17 12.64 141C12.59 140.94 12.57 140.88 12.55 140.81C12.46 140.46 12.42 140.1 12.44 139.74C12.45 139.57 12.47 139.41 12.38 139.25C12.26 139.02 11.92 138.91 11.61 138.88C11.61 138.88 11.61 138.88 11.6 138.88C11.58 139.7 11.66 140.5 11.76 141.31C11.84 141.97 11.91 142.63 11.99 143.29C12.02 143.59 12.06 143.9 12.14 144.19C12.38 145.06 12.99 145.79 13.62 146.53C13.49 146.3 13.34 146.07 13.13 145.87C13.33 145.73 13.64 145.72 13.85 145.84C14.06 145.96 14.15 146.2 14.06 146.39C14.33 146.39 14.62 146.39 14.85 146.52C15.07 146.63 15.2 146.91 15.03 147.08C15.4 147.17 15.8 147.21 16.19 147.2C16.19 146.92 16.23 146.65 16.32 146.39C16.53 146.39 16.71 146.49 16.86 146.59C17.02 146.69 17.2 146.8 17.41 146.81C17.61 146.82 17.84 146.68 17.8 146.52C17.94 146.52 18.07 146.52 18.2 146.52C18.3 146.32 18.34 146.11 18.3 145.89C18.79 145.88 19.28 145.87 19.77 145.86C20.14 145.86 20.54 145.84 20.82 145.64C21.1 145.45 21.14 145 20.8 144.89L20.8 144.89Z" fill="#FF5A57" fill-opacity="1.000000" fill-rule="nonzero"/>
	<path id="Vector" d="M16.02 147.29C15.68 147.29 15.33 147.24 15 147.16L14.87 147.12L14.96 147.03C15.02 146.97 15.02 146.9 15.01 146.85C14.99 146.75 14.9 146.64 14.8 146.59C14.59 146.48 14.31 146.48 14.07 146.48L13.92 146.48L13.98 146.37C14.05 146.22 13.98 146.01 13.8 145.91C13.66 145.83 13.44 145.82 13.28 145.89C13.45 146.07 13.6 146.28 13.72 146.5L14.07 147.2L13.55 146.58C12.96 145.89 12.3 145.11 12.06 144.21C11.97 143.91 11.94 143.6 11.9 143.3L11.67 141.31C11.57 140.49 11.49 139.68 11.51 138.88L11.51 138.78L11.63 138.8C12.04 138.84 12.36 138.99 12.48 139.22C12.57 139.37 12.55 139.54 12.54 139.7L12.54 139.74C12.51 140.1 12.55 140.45 12.65 140.8C12.67 140.85 12.68 140.91 12.72 140.95C12.81 141.06 13 141.07 13.23 141.07L13.38 141.07C13.86 141.08 14.32 141.26 14.62 141.57L14.64 141.59L14.62 142.83C14.62 142.87 14.62 142.92 14.64 142.95C14.68 143 14.75 143.03 14.85 143.06C14.92 143.08 15 143.11 15.07 143.15C15.26 143.27 15.29 143.46 15.32 143.64C15.34 143.79 15.36 143.93 15.47 144.01C15.58 144.09 15.73 144.09 15.89 144.1C15.96 144.1 16.04 144.1 16.11 144.11C16.3 144.14 16.49 144.25 16.55 144.39C16.58 144.44 16.58 144.49 16.56 144.54C16.64 144.55 16.74 144.54 16.85 144.52C16.91 144.51 16.97 144.5 17.03 144.5C17.2 144.49 17.41 144.56 17.49 144.67C17.52 144.7 17.53 144.74 17.53 144.78C17.68 144.78 17.83 144.73 17.99 144.68C18.13 144.64 18.26 144.6 18.39 144.59C18.58 144.57 18.81 144.59 19 144.6L20.6 144.78C20.67 144.78 20.76 144.79 20.84 144.82C21.01 144.88 21.12 145 21.14 145.15C21.18 145.36 21.08 145.58 20.9 145.7C20.59 145.91 20.2 145.94 19.77 145.94L18.41 145.97C18.43 146.17 18.39 146.36 18.29 146.55L18.26 146.6L17.9 146.6C17.88 146.65 17.86 146.7 17.81 146.74C17.72 146.83 17.57 146.89 17.43 146.89L17.4 146.89C17.17 146.88 16.96 146.75 16.81 146.66C16.67 146.57 16.54 146.5 16.39 146.47C16.32 146.71 16.28 146.95 16.29 147.2L16.29 147.28L16.2 147.28C16.14 147.28 16.08 147.28 16.02 147.28L16.02 147.29ZM15.18 147.04C15.48 147.1 15.79 147.13 16.09 147.13C16.09 146.87 16.14 146.62 16.22 146.37L16.24 146.32L16.32 146.32C16.55 146.32 16.75 146.43 16.92 146.54C17.07 146.63 17.23 146.73 17.41 146.74C17.51 146.74 17.61 146.7 17.66 146.65C17.69 146.62 17.71 146.58 17.7 146.54L17.68 146.44L18.14 146.44C18.22 146.27 18.24 146.08 18.22 145.9L18.2 145.82L19.78 145.79C20.16 145.78 20.53 145.76 20.78 145.59C20.91 145.49 20.99 145.33 20.96 145.18C20.95 145.12 20.91 145.01 20.78 144.97C20.72 144.95 20.65 144.94 20.59 144.93L19 144.77C18.8 144.75 18.62 144.72 18.43 144.75C18.32 144.77 18.2 144.8 18.07 144.84C17.86 144.9 17.64 144.97 17.4 144.93L17.26 144.91L17.33 144.82C17.33 144.82 17.35 144.79 17.33 144.76C17.29 144.71 17.17 144.66 17.07 144.66C17 144.66 16.94 144.68 16.89 144.68C16.71 144.71 16.52 144.72 16.38 144.66L16.28 144.61L16.36 144.54C16.36 144.54 16.39 144.5 16.37 144.45C16.33 144.37 16.2 144.29 16.08 144.28C16.02 144.27 15.95 144.27 15.88 144.26C15.69 144.25 15.5 144.24 15.34 144.13C15.17 144.01 15.14 143.82 15.12 143.66C15.09 143.5 15.07 143.36 14.95 143.28C14.9 143.25 14.85 143.23 14.78 143.21C14.66 143.17 14.53 143.13 14.46 143.02C14.42 142.96 14.42 142.88 14.42 142.83L14.44 141.64C14.17 141.39 13.77 141.23 13.36 141.23L13.28 141.23L13.21 141.23C13 141.23 12.71 141.23 12.55 141.05C12.49 140.99 12.47 140.91 12.45 140.84C12.34 140.48 12.3 140.11 12.33 139.74L12.33 139.7C12.34 139.56 12.35 139.41 12.29 139.29C12.18 139.09 11.89 139.02 11.69 138.98C11.68 139.75 11.76 140.52 11.85 141.31L12.08 143.3C12.12 143.59 12.15 143.9 12.23 144.19C12.4 144.77 12.74 145.3 13.11 145.79C13.34 145.66 13.68 145.66 13.91 145.79C14.11 145.91 14.23 146.13 14.19 146.33C14.42 146.33 14.68 146.35 14.9 146.46C15.06 146.54 15.17 146.68 15.2 146.83C15.21 146.9 15.2 146.97 15.17 147.04L15.18 147.04Z" fill="#FFFFFF" fill-opacity="1.000000" fill-rule="nonzero"/>
</svg>
