<svg width="139" height="30" viewBox="0 0 139 30" fill="none" xmlns="http://www.w3.org/2000/svg">
<g clip-path="url(#clip0_99_3463)">
<path d="M42.4653 29.8618C42.031 29.7504 41.6036 29.634 41.1608 29.5327C37.0249 28.5607 35.0035 25.3611 35.6808 21.2502C36.3167 17.3992 38.3501 14.4797 41.4641 12.2319C43.4855 10.7569 45.9377 9.9621 48.4571 9.9621C50.1373 9.9621 51.8588 9.99754 53.4908 10.3401C56.248 10.9173 58.2504 12.5458 58.7588 15.3724C59.1345 17.465 58.8105 19.5593 57.9678 21.5607C56.0722 26.085 52.5223 28.5624 47.7368 29.5192C47.1319 29.6407 46.5305 29.7471 45.9153 29.8567L42.4653 29.8618ZM53.6665 18.0253C53.863 15.4939 52.5378 13.8418 51.2178 13.4233C48.9775 12.7128 46.801 12.939 44.952 14.3919C42.5394 16.2904 40.9591 18.7307 40.7972 21.8543C40.6903 23.9115 41.4554 25.7037 43.2959 26.4361C44.5935 26.9525 45.917 26.8428 47.2594 26.5306C50.4957 25.7779 53.7992 21.6147 53.6579 18.0253H53.6665Z" fill="white"/>
<path d="M77.4477 29.8617C76.7446 29.6541 76.0208 29.4955 75.3401 29.2306C72.3055 28.0493 71.6317 26.1929 72.2176 23.3865C72.9534 19.8764 73.9994 16.427 74.9162 12.9523C75.0885 12.2773 75.3195 11.6023 75.478 10.9273C75.5883 10.4581 75.8416 10.2776 76.3224 10.2843C77.4132 10.3029 78.5041 10.3029 79.5966 10.2843C80.2859 10.2742 80.4169 10.5476 80.2411 11.1787C79.3088 14.5066 78.3989 17.8395 77.5132 21.1792C77.2978 21.9352 77.1634 22.7098 77.1117 23.4928C77.0272 25.3492 78.0405 26.441 79.9292 26.652C82.9053 26.9895 85.4936 25.447 86.3984 22.6119C87.2927 19.8106 88.0131 16.9552 88.8109 14.1218C89.1056 13.0688 89.3417 11.9972 89.7139 10.9711C89.819 10.6758 90.2861 10.3501 90.6152 10.3198C91.5837 10.2337 92.5659 10.3096 93.5448 10.2809C94.2892 10.2573 94.4495 10.6033 94.2806 11.2293C93.4999 14.132 92.7296 17.0396 91.9318 19.9372C91.6026 21.2163 91.1994 22.4769 90.7255 23.7122C89.2021 27.4552 86.2743 29.3537 82.2332 29.7115C82.0712 29.7436 81.9127 29.7942 81.761 29.8617H77.4477Z" fill="white"/>
<path d="M131.389 11.1349C131.076 11.3948 130.69 11.6041 130.459 11.9213C126.349 17.5696 122.278 23.2381 118.16 28.8762C117.924 29.1986 117.386 29.4264 116.954 29.477C116.163 29.5715 115.349 29.5057 114.541 29.504C113.454 29.504 113.085 29.0855 112.906 28.0038C112.649 26.463 112.278 24.9408 111.965 23.4085C111.753 22.3724 111.568 21.3295 111.35 20.2933C111.06 18.9281 110.745 17.5662 110.45 16.201C110.173 14.9201 109.912 13.6359 109.63 12.3567C109.554 12.0158 109.373 11.7053 109.113 11.4657C108.978 11.734 108.863 12.0108 108.768 12.2943C107.389 17.713 106.021 23.1301 104.689 28.5573C104.517 29.2863 104.162 29.531 103.447 29.5125C102.328 29.4821 101.206 29.4871 100.088 29.5125C99.4193 29.526 99.1901 29.2492 99.3607 28.6315C99.8174 26.9895 100.281 25.3492 100.739 23.7056C101.181 22.0906 101.601 20.4688 102.046 18.8521C102.471 17.2996 102.93 15.7538 103.343 14.1978C103.796 12.4951 104.205 10.7822 104.653 9.07778C104.915 8.07537 105.18 7.07127 105.515 6.09418C105.656 5.81742 105.926 5.62504 106.238 5.5761C108.391 5.53391 110.546 5.53053 112.697 5.5761C112.938 5.5761 113.331 5.96592 113.386 6.22581C114.238 10.6033 115.046 14.9876 115.861 19.3719C116.051 20.3844 116.221 21.4155 116.425 22.4314C116.473 22.666 116.626 22.8787 116.821 23.2921C117.248 22.7706 117.589 22.3825 117.901 21.9724C120.75 18.2446 123.597 14.5151 126.438 10.7839C127.481 9.41361 128.515 8.03656 129.54 6.65276C130.092 5.90517 130.712 5.47147 131.751 5.52041C133.526 5.61322 135.312 5.54234 137.093 5.54741C137.4 5.54741 137.707 5.57441 138.157 5.59635C137.867 6.74895 137.616 7.80368 137.336 8.84996C135.815 14.5674 134.29 20.2832 132.759 25.9989C132.508 26.944 132.289 27.9008 131.979 28.8273C131.886 29.1024 131.538 29.4838 131.289 29.4922C129.689 29.5513 128.086 29.5226 126.406 29.5226C126.406 29.234 126.356 29.0079 126.414 28.8104C127.305 25.7374 128.22 22.6711 129.106 19.5963C129.871 16.9452 130.607 14.2873 131.346 11.6311C131.372 11.464 131.379 11.2935 131.365 11.1248C131.377 11.1045 131.388 11.0843 131.398 11.064L131.389 11.1349Z" fill="white"/>
<path d="M22.6598 13.2646C23.2319 13.1786 23.8006 13.0368 24.3727 13.0182C26.9818 12.9322 29.6097 12.8495 32.1447 13.5448C33.2183 13.8384 34.2178 14.3514 35.0742 15.0501C36.1633 15.9681 36.2478 17.4683 35.2465 18.9045C34.3246 20.2562 33.2234 21.4814 31.9723 22.5479C28.5258 25.4167 24.4847 27.3119 20.3799 29.0771C19.8285 29.3133 19.2339 29.445 18.6325 29.4635C17.1815 29.499 15.7288 29.4247 14.2761 29.4129C12.7923 29.4011 11.3103 29.4011 9.82833 29.4129C6.93323 29.4281 4.03814 29.4517 1.14305 29.4669C1.10341 29.4669 1.06378 29.4011 0.894897 29.2526C1.25678 29.1142 1.62729 28.9961 2.00296 28.8965C9.68357 27.3203 17.0592 24.9392 23.8144 20.9245C25.3067 20.0385 26.7956 19.107 27.8089 17.6523C28.8222 16.1976 28.562 15.0602 26.9042 14.4172C25.8323 14.0021 24.6347 13.8907 23.4904 13.6561C23.2285 13.6021 22.9562 13.5971 22.6874 13.5684L22.6598 13.2646Z" fill="white"/>
<path d="M24.888 0.825623L40.0527 0.840811C39.7529 1.00957 39.4754 1.25595 39.1532 1.33358C33.1218 2.795 27.2506 4.74751 21.7723 7.64505C19.7492 8.71328 17.8725 10.1072 16.1217 11.5821C14.314 13.1009 14.9413 15.261 17.266 15.8331C18.7842 16.206 20.3558 16.3765 22.0721 16.6651C21.5879 16.8051 21.2105 16.9823 20.8383 17.0026C18.2137 17.195 15.5875 17.4616 12.9578 17.4869C11.7291 17.4987 10.4487 17.1663 9.27687 16.7579C6.91427 15.936 6.5903 13.9194 7.61564 11.9635C8.39111 10.4734 9.63014 9.37818 10.9329 8.36395C15.1463 5.08165 19.8595 2.67013 24.888 0.825623Z" fill="white"/>
<path d="M62.7257 26.1491H70.2202C71.1629 26.1491 71.3886 26.468 71.1439 27.3675C70.5614 29.5039 70.5614 29.5225 68.316 29.4989C66.224 29.4769 64.1319 29.4027 62.0399 29.3723C60.6699 29.352 59.2999 29.352 57.9299 29.3723C57.2182 29.3841 56.9872 29.0972 57.1699 28.4391C57.661 26.6806 58.1573 24.9239 58.633 23.1638C59.4015 20.3219 60.1546 17.475 60.9163 14.6315C61.242 13.413 61.597 12.1997 61.9003 10.9762C62.0399 10.4159 62.4035 10.2792 62.9136 10.2826C63.9182 10.2826 64.9229 10.2978 65.9276 10.2826C66.6289 10.2691 66.8237 10.4902 66.6324 11.1973C65.3744 15.806 64.1543 20.4265 62.9274 25.0353C62.8377 25.3593 62.805 25.6884 62.7257 26.1491Z" fill="white"/>
</g>
<defs>
<clipPath id="clip0_99_3463">
<rect width="137.262" height="29.0362" fill="white" transform="translate(0.894897 0.8255)"/>
</clipPath>
</defs>
</svg>
