<svg width="991.401733" height="971.193359" viewBox="0 0 991.402 971.193" fill="none" xmlns="http://www.w3.org/2000/svg" xmlns:xlink="http://www.w3.org/1999/xlink">
	<desc>
			Created with Pixso.
	</desc>
	<defs>
		<filter id="filter_33_215_dd" x="113.100708" y="0.000000" width="878.301025" height="860.383911" filterUnits="userSpaceOnUse" color-interpolation-filters="sRGB">
			<feFlood flood-opacity="0" result="BackgroundImageFix"/>
			<feBlend mode="normal" in="SourceGraphic" in2="BackgroundImageFix" result="shape"/>
			<feGaussianBlur stdDeviation="106.75" result="effect_layerBlur_1"/>
		</filter>
		<filter id="filter_33_214_dd" x="0.000000" y="110.809357" width="878.300903" height="860.384033" filterUnits="userSpaceOnUse" color-interpolation-filters="sRGB">
			<feFlood flood-opacity="0" result="BackgroundImageFix"/>
			<feBlend mode="normal" in="SourceGraphic" in2="BackgroundImageFix" result="shape"/>
			<feGaussianBlur stdDeviation="106.75" result="effect_layerBlur_1"/>
		</filter>
	</defs>
	<g filter="url(#filter_33_215_dd)">
		<path id="Ellipse 28" d="M655.2 375.23C688.03 427.8 668.55 495.03 611.69 525.38C554.83 555.74 482.12 537.72 449.29 485.15C416.47 432.57 435.95 365.35 492.81 334.99C549.67 304.64 622.37 322.65 655.2 375.23Z" fill="#FF5A57" fill-opacity="1.000000" fill-rule="evenodd"/>
	</g>
	<g filter="url(#filter_33_214_dd)">
		<path id="Ellipse 29" d="M542.1 486.03C574.93 538.61 555.45 605.84 498.59 636.19C441.73 666.55 369.02 648.53 336.19 595.96C303.36 543.38 322.85 476.15 379.71 445.8C436.57 415.45 509.27 433.46 542.1 486.03Z" fill="#9A2AEB" fill-opacity="1.000000" fill-rule="evenodd"/>
	</g>
</svg>
