<svg width="479.059448" height="361.423340" viewBox="0 0 479.059 361.423" fill="none" xmlns="http://www.w3.org/2000/svg" xmlns:xlink="http://www.w3.org/1999/xlink">
	<desc>
			Created with Pixso.
	</desc>
	<defs/>
	<path id="Vector" d="M478.26 308.72L23.92 308.72C23.71 308.72 23.51 308.64 23.36 308.49C23.21 308.34 23.13 308.14 23.13 307.93C23.13 307.72 23.21 307.52 23.36 307.37C23.51 307.22 23.71 307.14 23.92 307.14L478.26 307.14C478.47 307.14 478.67 307.22 478.82 307.37C478.97 307.52 479.05 307.72 479.05 307.93C479.05 308.14 478.97 308.34 478.82 308.49C478.67 308.64 478.47 308.72 478.26 308.72Z" fill="#30325B" fill-opacity="1.000000" fill-rule="nonzero"/>
	<path id="Vector" d="M96.78 15.01L403.68 15.01L403.68 245.27L96.78 245.27L96.78 15.01Z" fill="#FFFFFF" fill-opacity="1.000000" fill-rule="evenodd"/>
	<path id="Vector" d="M403.7 246.09L96.71 246.09C96.49 246.09 96.28 246.01 96.13 245.85C95.98 245.7 95.89 245.49 95.89 245.27L95.89 15.01C95.89 14.9 95.91 14.8 95.95 14.7C95.99 14.6 96.05 14.51 96.13 14.44C96.21 14.36 96.3 14.3 96.4 14.26C96.5 14.22 96.6 14.2 96.71 14.21L403.7 14.21C403.91 14.21 404.12 14.29 404.27 14.44C404.42 14.59 404.51 14.8 404.51 15.01L404.51 245.27C404.51 245.38 404.49 245.48 404.45 245.58C404.41 245.68 404.35 245.77 404.28 245.85C404.2 245.93 404.11 245.99 404.01 246.03C403.91 246.07 403.81 246.09 403.7 246.09ZM97.61 244.51L402.86 244.51L402.86 15.83L97.6 15.83L97.61 244.51Z" fill="#30325B" fill-opacity="1.000000" fill-rule="nonzero"/>
	<path id="Vector" d="M174.38 224.68L150.77 224.68C150.57 224.68 150.37 224.6 150.23 224.46C150.09 224.32 150.01 224.12 150.01 223.92L150.01 111.38C150.01 111.18 150.09 110.99 150.24 110.85C150.38 110.71 150.57 110.63 150.77 110.62L174.38 110.62C174.58 110.63 174.77 110.71 174.91 110.85C175.05 110.99 175.13 111.18 175.14 111.38L175.14 223.92C175.14 224.12 175.06 224.32 174.91 224.46C174.77 224.6 174.58 224.68 174.38 224.68ZM151.53 223.18L173.68 223.18L173.68 112.14L151.53 112.14L151.53 223.18Z" fill="#D1D3D4" fill-opacity="1.000000" fill-rule="nonzero"/>
	<path id="Vector" d="M217.92 224.68L194.32 224.68C194.11 224.68 193.92 224.6 193.78 224.46C193.64 224.32 193.56 224.12 193.56 223.92L193.56 157.92C193.56 157.72 193.64 157.53 193.78 157.39C193.93 157.25 194.12 157.18 194.32 157.18L217.92 157.18C218.12 157.18 218.31 157.25 218.46 157.39C218.6 157.53 218.68 157.72 218.68 157.92L218.68 223.92C218.68 224.12 218.6 224.32 218.46 224.46C218.32 224.6 218.13 224.68 217.92 224.68ZM195.07 223.18L217.23 223.18L217.23 158.68L195.07 158.68L195.07 223.18Z" fill="#D1D3D4" fill-opacity="1.000000" fill-rule="nonzero"/>
	<path id="Vector" d="M261.47 224.68L237.86 224.68C237.76 224.68 237.67 224.66 237.58 224.62C237.48 224.59 237.4 224.53 237.33 224.46C237.26 224.39 237.21 224.3 237.17 224.21C237.14 224.12 237.12 224.02 237.12 223.92L237.12 127.6C237.12 127.4 237.2 127.21 237.34 127.08C237.48 126.94 237.67 126.86 237.86 126.86L261.47 126.86C261.57 126.86 261.67 126.87 261.76 126.91C261.85 126.95 261.94 127 262.01 127.07C262.08 127.14 262.14 127.22 262.17 127.31C262.21 127.4 262.23 127.5 262.23 127.6L262.23 223.92C262.24 224.02 262.22 224.12 262.18 224.22C262.14 224.31 262.09 224.39 262.01 224.46C261.94 224.54 261.86 224.59 261.77 224.63C261.67 224.67 261.57 224.68 261.47 224.68ZM238.62 223.18L260.78 223.18L260.78 128.36L238.62 128.36L238.62 223.18Z" fill="#D1D3D4" fill-opacity="1.000000" fill-rule="nonzero"/>
	<path id="Vector" d="M305.02 224.68L281.41 224.68C281.31 224.68 281.21 224.66 281.12 224.62C281.03 224.59 280.95 224.53 280.88 224.46C280.81 224.39 280.76 224.3 280.72 224.21C280.68 224.12 280.67 224.02 280.67 223.92L280.67 182.61C280.67 182.41 280.75 182.22 280.88 182.07C281.02 181.93 281.21 181.85 281.41 181.85L305.02 181.85C305.22 181.85 305.42 181.93 305.56 182.07C305.7 182.21 305.78 182.4 305.78 182.61L305.78 223.92C305.78 224.02 305.76 224.12 305.73 224.22C305.69 224.31 305.63 224.39 305.56 224.46C305.49 224.54 305.41 224.59 305.31 224.63C305.22 224.67 305.12 224.68 305.02 224.68ZM282.17 223.18L304.32 223.18L304.32 183.37L282.17 183.37L282.17 223.18Z" fill="#D1D3D4" fill-opacity="1.000000" fill-rule="nonzero"/>
	<path id="Vector" d="M348.59 224.68L324.98 224.68C324.88 224.68 324.78 224.67 324.68 224.63C324.59 224.59 324.5 224.54 324.43 224.46C324.36 224.39 324.31 224.31 324.27 224.22C324.23 224.12 324.21 224.02 324.22 223.92L324.22 127.6C324.22 127.5 324.24 127.4 324.27 127.31C324.31 127.22 324.37 127.14 324.44 127.07C324.51 127 324.59 126.95 324.69 126.91C324.78 126.87 324.88 126.86 324.98 126.86L348.59 126.86C348.78 126.86 348.97 126.94 349.11 127.08C349.25 127.21 349.33 127.4 349.33 127.6L349.33 223.92C349.33 224.02 349.31 224.12 349.28 224.21C349.24 224.3 349.19 224.39 349.12 224.46C349.05 224.53 348.96 224.59 348.87 224.62C348.78 224.66 348.68 224.68 348.59 224.68ZM325.72 223.18L347.87 223.18L347.87 128.36L325.72 128.36L325.72 223.18Z" fill="#D1D3D4" fill-opacity="1.000000" fill-rule="nonzero"/>
	<path id="Vector" d="M348.02 72.82L308.07 72.82C307.87 72.82 307.66 72.73 307.51 72.59C307.37 72.44 307.28 72.24 307.28 72.03C307.28 71.82 307.37 71.62 307.51 71.47C307.66 71.32 307.87 71.24 308.07 71.24L348.02 71.24C348.23 71.24 348.43 71.32 348.57 71.47C348.72 71.62 348.81 71.82 348.81 72.03C348.81 72.24 348.72 72.44 348.57 72.59C348.43 72.73 348.23 72.82 348.02 72.82Z" fill="#D1D3D4" fill-opacity="1.000000" fill-rule="nonzero"/>
	<path id="Vector" d="M348.02 81.63L308.07 81.63C307.97 81.65 307.86 81.64 307.75 81.61C307.65 81.58 307.55 81.53 307.47 81.45C307.39 81.38 307.32 81.3 307.27 81.2C307.23 81.1 307.21 80.99 307.21 80.88C307.21 80.77 307.23 80.66 307.27 80.56C307.32 80.47 307.39 80.38 307.47 80.31C307.55 80.23 307.65 80.18 307.75 80.15C307.86 80.12 307.97 80.11 308.07 80.13L348.02 80.13C348.12 80.11 348.23 80.12 348.34 80.15C348.44 80.18 348.54 80.23 348.62 80.31C348.7 80.38 348.77 80.47 348.82 80.56C348.86 80.66 348.88 80.77 348.88 80.88C348.88 80.99 348.86 81.1 348.82 81.2C348.77 81.3 348.7 81.38 348.62 81.45C348.54 81.53 348.44 81.58 348.34 81.61C348.23 81.64 348.12 81.65 348.02 81.63Z" fill="#D1D3D4" fill-opacity="1.000000" fill-rule="nonzero"/>
	<path id="Vector" d="M334.07 90.53L308.07 90.53C307.87 90.53 307.66 90.44 307.51 90.29C307.37 90.15 307.28 89.94 307.28 89.73C307.28 89.52 307.37 89.32 307.51 89.17C307.66 89.03 307.87 88.94 308.07 88.94L334.07 88.94C334.28 88.94 334.49 89.03 334.63 89.17C334.78 89.32 334.87 89.52 334.87 89.73C334.87 89.94 334.78 90.15 334.63 90.29C334.49 90.44 334.28 90.53 334.07 90.53Z" fill="#D1D3D4" fill-opacity="1.000000" fill-rule="nonzero"/>
	<path id="Vector" d="M192.7 53.05L152.76 53.05C152.65 53.07 152.54 53.06 152.44 53.03C152.33 53 152.24 52.95 152.16 52.88C152.07 52.8 152.01 52.72 151.96 52.62C151.92 52.52 151.89 52.41 151.89 52.3C151.89 52.19 151.92 52.09 151.96 51.99C152.01 51.89 152.07 51.8 152.16 51.73C152.24 51.66 152.33 51.6 152.44 51.57C152.54 51.54 152.65 51.53 152.76 51.55L192.7 51.55C192.81 51.53 192.92 51.54 193.02 51.57C193.13 51.6 193.23 51.66 193.31 51.73C193.39 51.8 193.46 51.89 193.5 51.99C193.55 52.09 193.57 52.19 193.57 52.3C193.57 52.41 193.55 52.52 193.5 52.62C193.46 52.72 193.39 52.8 193.31 52.88C193.23 52.95 193.13 53 193.02 53.03C192.92 53.06 192.81 53.07 192.7 53.05Z" fill="#D1D3D4" fill-opacity="1.000000" fill-rule="nonzero"/>
	<path id="Vector" d="M178.81 61.87L152.76 61.87C152.55 61.87 152.35 61.78 152.2 61.64C152.05 61.49 151.97 61.29 151.97 61.08C151.97 60.87 152.05 60.66 152.2 60.52C152.35 60.37 152.55 60.28 152.76 60.28L178.81 60.28C179.02 60.28 179.22 60.37 179.37 60.52C179.52 60.66 179.6 60.87 179.6 61.08C179.6 61.29 179.52 61.49 179.37 61.64C179.22 61.78 179.02 61.87 178.81 61.87Z" fill="#D1D3D4" fill-opacity="1.000000" fill-rule="nonzero"/>
	<path id="Vector" d="M296.1 142.65C283.75 142.65 272.88 128.72 264.12 117.49C258.26 109.99 252.72 102.92 248.8 102.92L248.7 102.92C244.43 103.04 238.72 106.35 232.64 109.86C224.57 114.61 215.41 119.82 206.88 119.36C190.9 118.49 160.61 82.87 159.41 81.38C159.34 81.31 159.28 81.23 159.24 81.14C159.21 81.04 159.19 80.95 159.19 80.85C159.19 80.75 159.21 80.65 159.24 80.56C159.28 80.47 159.34 80.39 159.41 80.32C159.56 80.19 159.76 80.13 159.96 80.15C160.17 80.17 160.35 80.26 160.48 80.41C160.78 80.78 191.63 117.05 206.96 117.87C215.05 118.34 224 113.12 231.9 108.56C238.12 104.97 244 101.55 248.66 101.41L248.81 101.41C253.47 101.41 258.7 108.12 265.3 116.57C273.94 127.54 284.56 141.16 296.1 141.16L296.79 141.16C307.19 140.66 312.06 131.76 317.24 122.35C321.98 113.57 327.03 104.5 336.88 102.61C337.07 102.58 337.28 102.62 337.44 102.73C337.61 102.85 337.72 103.02 337.76 103.22C337.8 103.41 337.76 103.62 337.64 103.78C337.53 103.95 337.36 104.06 337.16 104.1C328.01 105.84 323.2 114.61 318.57 123.09C313.42 132.46 308.11 142.08 296.87 142.68L296.1 142.65Z" fill="#D1D3D4" fill-opacity="1.000000" fill-rule="nonzero"/>
	<path id="Vector" d="M368.78 224.68L131.68 224.68C131.58 224.7 131.47 224.69 131.36 224.66C131.26 224.63 131.16 224.58 131.08 224.5C131 224.43 130.93 224.35 130.88 224.25C130.84 224.15 130.81 224.04 130.81 223.93C130.81 223.82 130.84 223.71 130.88 223.61C130.93 223.52 131 223.43 131.08 223.36C131.16 223.28 131.26 223.23 131.36 223.2C131.47 223.17 131.58 223.16 131.68 223.18L368.78 223.18C368.96 223.2 369.12 223.3 369.24 223.43C369.36 223.57 369.43 223.75 369.43 223.93C369.43 224.11 369.36 224.29 369.24 224.43C369.12 224.57 368.96 224.66 368.78 224.68Z" fill="#D1D3D4" fill-opacity="1.000000" fill-rule="nonzero"/>
	<path id="Vector" d="M160.55 85.45C159.61 85.45 158.69 85.17 157.91 84.65C157.13 84.12 156.52 83.38 156.16 82.51C155.8 81.65 155.71 80.69 155.89 79.77C156.07 78.85 156.53 78.01 157.19 77.34C157.85 76.68 158.7 76.23 159.62 76.04C160.54 75.86 161.5 75.95 162.36 76.31C163.23 76.67 163.97 77.28 164.49 78.06C165.02 78.84 165.29 79.76 165.29 80.7C165.29 81.96 164.79 83.16 163.9 84.05C163.01 84.95 161.81 85.45 160.55 85.45ZM160.55 77.53C159.92 77.53 159.31 77.72 158.79 78.07C158.27 78.41 157.86 78.91 157.62 79.49C157.38 80.07 157.32 80.7 157.44 81.32C157.56 81.93 157.87 82.49 158.31 82.94C158.75 83.38 159.32 83.68 159.93 83.8C160.54 83.92 161.18 83.86 161.76 83.62C162.34 83.38 162.83 82.98 163.18 82.46C163.53 81.94 163.71 81.32 163.71 80.7C163.71 79.86 163.37 79.06 162.78 78.47C162.19 77.88 161.38 77.55 160.55 77.55L160.55 77.53Z" fill="#D1D3D4" fill-opacity="1.000000" fill-rule="nonzero"/>
	<path id="Vector" d="M337.08 108.01C336.14 108.01 335.22 107.73 334.44 107.21C333.66 106.69 333.05 105.95 332.69 105.08C332.34 104.21 332.24 103.26 332.42 102.34C332.61 101.42 333.06 100.57 333.72 99.91C334.39 99.24 335.23 98.79 336.15 98.61C337.08 98.42 338.03 98.52 338.9 98.88C339.77 99.24 340.51 99.85 341.03 100.63C341.55 101.41 341.83 102.32 341.83 103.26C341.83 104.52 341.33 105.73 340.44 106.62C339.55 107.51 338.34 108.01 337.08 108.01ZM337.08 100.1C336.45 100.1 335.84 100.28 335.32 100.63C334.8 100.98 334.4 101.47 334.16 102.05C333.92 102.63 333.85 103.27 333.98 103.88C334.1 104.5 334.4 105.06 334.84 105.5C335.29 105.94 335.85 106.25 336.46 106.37C337.08 106.49 337.71 106.43 338.29 106.19C338.87 105.95 339.36 105.54 339.71 105.02C340.06 104.5 340.25 103.89 340.25 103.26C340.24 102.43 339.9 101.63 339.31 101.05C338.71 100.46 337.91 100.13 337.08 100.13L337.08 100.1Z" fill="#D1D3D4" fill-opacity="1.000000" fill-rule="nonzero"/>
	<path id="Vector" d="M96.78 15.01L403.68 15.01L403.68 33.61L96.78 33.61L96.78 15.01Z" fill="#FFFFFF" fill-opacity="1.000000" fill-rule="evenodd"/>
	<path id="Vector" d="M403.7 34.43L96.71 34.43C96.6 34.43 96.5 34.41 96.4 34.37C96.3 34.33 96.21 34.27 96.13 34.2C96.05 34.12 95.99 34.03 95.95 33.93C95.91 33.83 95.89 33.73 95.89 33.62L95.89 15.01C95.89 14.9 95.91 14.8 95.95 14.7C95.99 14.6 96.05 14.51 96.13 14.44C96.21 14.36 96.3 14.3 96.4 14.26C96.5 14.22 96.6 14.2 96.71 14.21L403.7 14.21C403.91 14.21 404.12 14.29 404.27 14.44C404.42 14.59 404.51 14.8 404.51 15.01L404.51 33.56C404.52 33.67 404.5 33.78 404.47 33.89C404.43 33.99 404.37 34.09 404.29 34.17C404.22 34.25 404.13 34.32 404.02 34.36C403.92 34.41 403.81 34.43 403.7 34.43ZM97.61 32.85L402.86 32.85L402.86 15.84L97.6 15.84L97.61 32.85Z" fill="#30325B" fill-opacity="1.000000" fill-rule="nonzero"/>
	<path id="Vector" d="M231.52 0.79L362.34 0.79L362.34 92.6L231.52 92.6L231.52 0.79Z" fill="#FFFFFF" fill-opacity="1.000000" fill-rule="evenodd"/>
	<path id="Vector" d="M362.34 93.4L231.52 93.4C231.3 93.4 231.1 93.32 230.94 93.17C230.79 93.02 230.7 92.81 230.7 92.6L230.7 0.82C230.7 0.71 230.72 0.6 230.76 0.5C230.8 0.4 230.86 0.31 230.94 0.24C231.01 0.16 231.1 0.1 231.2 0.06C231.3 0.02 231.41 0 231.52 0L362.34 0C362.44 0 362.55 0.02 362.65 0.06C362.75 0.1 362.84 0.16 362.91 0.24C362.99 0.31 363.05 0.4 363.09 0.5C363.13 0.6 363.15 0.71 363.14 0.82L363.14 92.6C363.14 92.81 363.06 93.02 362.91 93.17C362.76 93.32 362.55 93.4 362.34 93.4ZM232.34 91.82L361.51 91.82L361.51 1.62L232.34 1.62L232.34 91.82Z" fill="#30325B" fill-opacity="1.000000" fill-rule="nonzero"/>
	<path id="Vector" d="M269.2 24.93L293.29 49.02C293.42 49.15 293.57 49.26 293.73 49.33C293.9 49.4 294.08 49.44 294.26 49.43C306.35 49.43 318.45 49.43 330.56 49.43L331.16 49.43C330.96 55.13 329.39 60.71 326.59 65.68C323.79 70.65 319.83 74.88 315.05 78C310.27 81.12 304.81 83.04 299.13 83.61C293.45 84.18 287.71 83.38 282.41 81.26C277.11 79.15 272.39 75.8 268.65 71.48C264.92 67.16 262.28 62.01 260.95 56.46C259.62 50.91 259.65 45.12 261.03 39.58C262.41 34.04 265.1 28.91 268.88 24.63L269.2 24.93Z" fill="#FF5A57" fill-opacity="1.000000" fill-rule="nonzero"/>
	<path id="Vector" d="M296.79 12.53L296.79 46.9L297.14 46.9L330.37 46.9C331.1 46.9 331.1 46.9 331.05 46.14C330.64 39.6 328.45 33.3 324.72 27.91C320.98 22.53 315.84 18.27 309.86 15.6C306.21 14.01 302.33 13.03 298.36 12.69L296.79 12.53Z" fill="#D1D3D4" fill-opacity="1.000000" fill-rule="nonzero"/>
	<path id="Vector" d="M294.26 46.44L294.26 12.56C290.26 12.77 286.32 13.59 282.58 15.01C278.11 16.79 274.03 19.42 270.57 22.77L294.26 46.44Z" fill="#D1D3D4" fill-opacity="1.000000" fill-rule="nonzero"/>
	<path id="Vector" d="M348.82 66.79L333.62 66.79C333.41 66.79 333.2 66.71 333.06 66.56C332.91 66.41 332.82 66.21 332.82 66C332.82 65.79 332.91 65.59 333.06 65.44C333.2 65.29 333.41 65.21 333.62 65.21L348.82 65.21C349.03 65.21 349.23 65.29 349.38 65.44C349.53 65.59 349.61 65.79 349.61 66C349.61 66.21 349.53 66.41 349.38 66.56C349.23 66.71 349.03 66.79 348.82 66.79Z" fill="#D1D3D4" fill-opacity="1.000000" fill-rule="nonzero"/>
	<path id="Vector" d="M348.82 73.59L333.62 73.59C333.41 73.59 333.2 73.51 333.06 73.36C332.91 73.21 332.82 73.01 332.82 72.8C332.82 72.59 332.91 72.39 333.06 72.24C333.2 72.09 333.41 72.01 333.62 72.01L348.82 72.01C349.03 72.01 349.23 72.09 349.38 72.24C349.53 72.39 349.61 72.59 349.61 72.8C349.61 73.01 349.53 73.21 349.38 73.36C349.23 73.51 349.03 73.59 348.82 73.59Z" fill="#D1D3D4" fill-opacity="1.000000" fill-rule="nonzero"/>
	<path id="Vector" d="M344.28 80.38L333.62 80.38C333.41 80.38 333.2 80.3 333.06 80.15C332.91 80 332.82 79.8 332.82 79.59C332.82 79.38 332.91 79.18 333.06 79.03C333.2 78.88 333.41 78.8 333.62 78.8L344.28 78.8C344.49 78.8 344.69 78.88 344.84 79.03C344.99 79.18 345.07 79.38 345.07 79.59C345.07 79.8 344.99 80 344.84 80.15C344.69 80.3 344.49 80.38 344.28 80.38Z" fill="#D1D3D4" fill-opacity="1.000000" fill-rule="nonzero"/>
	<path id="Vector" d="M267.87 10.34L251.54 10.34C251.33 10.34 251.12 10.26 250.98 10.11C250.83 9.96 250.74 9.76 250.74 9.55C250.74 9.34 250.83 9.14 250.98 8.99C251.12 8.84 251.33 8.76 251.54 8.76L267.87 8.76C268.07 8.76 268.28 8.84 268.43 8.99C268.57 9.14 268.66 9.34 268.66 9.55C268.66 9.76 268.57 9.96 268.43 10.11C268.28 10.26 268.07 10.34 267.87 10.34Z" fill="#D1D3D4" fill-opacity="1.000000" fill-rule="nonzero"/>
	<path id="Vector" d="M267.87 14.73L251.54 14.73C251.33 14.73 251.12 14.64 250.98 14.5C250.83 14.35 250.74 14.15 250.74 13.94C250.74 13.73 250.83 13.52 250.98 13.38C251.12 13.23 251.33 13.14 251.54 13.14L267.87 13.14C268.07 13.14 268.28 13.23 268.43 13.38C268.57 13.52 268.66 13.73 268.66 13.94C268.66 14.15 268.57 14.35 268.43 14.5C268.28 14.64 268.07 14.73 267.87 14.73Z" fill="#D1D3D4" fill-opacity="1.000000" fill-rule="nonzero"/>
	<path id="Vector" d="M262.99 19.09L251.54 19.09C251.33 19.09 251.12 19.01 250.98 18.86C250.83 18.71 250.74 18.51 250.74 18.3C250.74 18.09 250.83 17.89 250.98 17.74C251.12 17.6 251.33 17.51 251.54 17.51L262.99 17.51C263.2 17.51 263.4 17.6 263.55 17.74C263.7 17.89 263.78 18.09 263.78 18.3C263.78 18.51 263.7 18.71 263.55 18.86C263.4 19.01 263.2 19.09 262.99 19.09Z" fill="#D1D3D4" fill-opacity="1.000000" fill-rule="nonzero"/>
	<path id="Vector" d="M102.79 319.85C102.79 319.85 103.68 339.12 104.56 339.6C105.45 340.07 117.9 341.18 120.12 337.86L121.7 324.09L102.79 319.85Z" fill="#FFFFFF" fill-opacity="1.000000" fill-rule="nonzero"/>
	<path id="Vector" d="M110.95 341.01C108.7 341.09 106.45 340.85 104.26 340.31C103.77 340.06 102.96 339.63 102.06 319.9C102.05 319.77 102.08 319.65 102.12 319.53C102.17 319.41 102.25 319.31 102.35 319.23C102.44 319.15 102.55 319.09 102.67 319.06C102.79 319.03 102.92 319.03 103.04 319.06L121.92 323.3C122.12 323.34 122.29 323.45 122.41 323.62C122.53 323.78 122.58 323.98 122.55 324.18L120.97 337.94C120.96 338.07 120.92 338.19 120.84 338.3C119.39 340.4 114.86 341.01 110.95 341.01ZM105.13 338.96C106.97 339.41 117.28 340.06 119.37 337.57L120.83 324.77L103.71 320.91C103.87 326.95 104.34 332.97 105.13 338.96Z" fill="#30325B" fill-opacity="1.000000" fill-rule="nonzero"/>
	<path id="Vector" d="M42.29 331.8C42.29 331.8 40.22 342.3 40.96 343.05C41.71 343.79 51.76 344.63 53.39 344.22C55.02 343.81 58.56 340.37 58.56 340.37L61.82 326.92L42.29 331.8Z" fill="#FFFFFF" fill-opacity="1.000000" fill-rule="nonzero"/>
	<path id="Vector" d="M51.71 345.14C48.18 345.14 41.33 344.57 40.38 343.55C40.08 343.24 39.33 342.51 41.49 331.57C41.52 331.42 41.6 331.28 41.7 331.17C41.81 331.06 41.95 330.98 42.1 330.94L61.61 326.07C61.75 326.04 61.89 326.04 62.03 326.07C62.16 326.11 62.29 326.18 62.39 326.27C62.49 326.37 62.56 326.5 62.6 326.63C62.64 326.77 62.64 326.91 62.61 327.05L59.35 340.55C59.32 340.7 59.24 340.83 59.13 340.94C58.75 341.31 55.38 344.5 53.61 344.98C52.98 345.09 52.34 345.15 51.71 345.14ZM41.63 342.51C45.43 343.26 49.3 343.57 53.16 343.44C54.92 342.53 56.52 341.35 57.91 339.94L60.79 328.05L43.07 332.46C42.31 335.76 41.83 339.13 41.63 342.51Z" fill="#30325B" fill-opacity="1.000000" fill-rule="nonzero"/>
	<path id="Vector" d="M48.24 185.22C48.24 185.22 44.7 276.28 39.11 331.51C39.11 331.51 48.61 337.84 66.39 332.59C66.39 332.59 84.15 263.1 81.69 204.89C81.69 204.89 98.97 281.59 98.37 329.8C107.17 330.23 115.93 328.49 123.88 324.72C123.88 324.72 120.18 212.91 113.53 182.73C106.89 152.56 106.63 156.72 106.63 156.72L52.4 173.74L48.24 185.22Z" fill="#30325B" fill-opacity="1.000000" fill-rule="nonzero"/>
	<path id="Vector" d="M52.86 335.51C43.8 335.51 38.95 332.35 38.62 332.16C38.5 332.08 38.41 331.97 38.35 331.84C38.29 331.72 38.26 331.57 38.27 331.43C43.8 276.85 47.37 186.1 47.4 185.19C47.39 185.11 47.39 185.03 47.4 184.95L51.61 173.48C51.66 173.36 51.72 173.26 51.81 173.17C51.9 173.09 52 173.02 52.12 172.99L105.92 156.04C105.99 155.94 106.08 155.86 106.19 155.81C106.29 155.75 106.41 155.71 106.52 155.7C107.44 155.7 108.22 155.56 114.17 182.61C120.75 212.5 124.5 323.6 124.53 324.72C124.54 324.87 124.5 325.02 124.43 325.15C124.35 325.28 124.24 325.38 124.1 325.45C116.06 329.28 107.19 331.05 98.29 330.59C98.09 330.58 97.91 330.48 97.77 330.33C97.63 330.18 97.56 329.99 97.57 329.79C98.04 291.52 87.07 234.59 82.69 213.38C83.21 269.16 67.33 332.06 67.15 332.78C67.12 332.91 67.05 333.03 66.96 333.13C66.86 333.23 66.75 333.31 66.61 333.35C62.16 334.74 57.53 335.47 52.86 335.51ZM39.95 331.05C41.9 332.11 50.84 336.26 65.74 331.92C67.23 325.94 83.15 259.94 80.9 204.89C80.89 204.69 80.96 204.49 81.09 204.34C81.22 204.19 81.4 204.09 81.6 204.06C81.8 204.04 81.99 204.09 82.15 204.2C82.32 204.32 82.43 204.49 82.47 204.68C82.64 205.44 99.58 281.22 99.18 329.03C107.41 329.27 115.59 327.61 123.08 324.17C122.79 315.94 119.09 211.56 112.76 182.84C108.64 164.22 107.06 158.98 106.43 157.52L53.07 174.39L49.02 185.39C48.88 189.25 45.35 277.35 39.95 331.05Z" fill="#30325B" fill-opacity="1.000000" fill-rule="nonzero"/>
	<path id="Vector" d="M65.06 57.83C64.3 54.46 62.44 51.72 61.66 48.34C60.82 44.62 60.98 40.74 62.12 37.1C62.52 35.6 63.3 34.24 64.4 33.15C65.46 32.18 66.55 32.67 67.75 32.31C68.96 31.94 69.34 31.44 70.32 30.73C72.56 29.02 75.23 27.96 78.04 27.66C81.63 27.08 85.31 27.38 88.77 28.53C90.5 29.1 92.1 30.03 93.46 31.25C94.82 32.47 95.92 33.95 96.68 35.61C98.26 39.24 97.39 43.1 97.34 46.88C97.26 50.59 95.78 54.14 93.21 56.82C90.68 59.4 87.39 61.11 83.82 61.68C80.26 62.23 76.64 62.13 73.12 61.39C71.24 61.14 69.43 60.52 67.79 59.59C66.14 58.51 65.51 59.67 65.06 57.83Z" fill="#FFFFFF" fill-opacity="1.000000" fill-rule="nonzero"/>
	<path id="Vector" d="M79.5 62.8C77.31 62.78 75.12 62.56 72.98 62.14C71 61.85 69.1 61.2 67.36 60.22C67.01 59.99 66.61 59.85 66.19 59.84C65.24 59.73 64.6 59.41 64.35 58.01C63.98 56.42 63.45 54.88 62.77 53.4C62.04 51.84 61.45 50.2 61.03 48.53C60.14 44.67 60.31 40.64 61.5 36.87C61.95 35.23 62.81 33.75 64 32.55C64.72 31.93 65.65 31.62 66.6 31.67C66.97 31.67 67.33 31.63 67.69 31.55C68.26 31.4 68.77 31.09 69.18 30.66C69.4 30.47 69.65 30.25 69.98 30.01C72.35 28.24 75.16 27.14 78.1 26.85C81.82 26.26 85.61 26.58 89.18 27.77C91.01 28.38 92.69 29.37 94.12 30.67C95.55 31.96 96.69 33.54 97.49 35.3C98.46 38.14 98.75 41.18 98.33 44.16C98.33 45.06 98.22 45.98 98.2 46.9C98.08 50.8 96.49 54.51 93.75 57.29C91.1 60.01 87.65 61.8 83.91 62.41C82.45 62.67 80.98 62.8 79.5 62.8ZM66.11 58.2L66.31 58.2C67 58.25 67.66 58.49 68.23 58.88C69.79 59.75 71.5 60.33 73.28 60.59C76.7 61.31 80.23 61.4 83.69 60.85C87.08 60.31 90.22 58.7 92.63 56.25C95.06 53.72 96.46 50.36 96.54 46.85C96.54 45.92 96.62 44.98 96.66 44.03C97.06 41.31 96.81 38.53 95.95 35.92C95.24 34.36 94.22 32.97 92.96 31.83C91.69 30.69 90.2 29.82 88.58 29.29C85.25 28.19 81.71 27.9 78.25 28.45C75.58 28.73 73.04 29.74 70.9 31.36L70.13 31.98C69.54 32.56 68.82 32.98 68.02 33.19C67.54 33.32 67.04 33.39 66.54 33.38C66.25 33.35 65.97 33.38 65.7 33.45C65.43 33.53 65.17 33.67 64.95 33.84C63.97 34.84 63.26 36.08 62.91 37.43C61.81 40.93 61.66 44.67 62.48 48.24C62.87 49.82 63.4 51.36 64.07 52.83C64.8 54.41 65.38 56.05 65.81 57.74C65.9 58.16 65.98 58.28 66 58.28L66.11 58.2Z" fill="#30325B" fill-opacity="1.000000" fill-rule="nonzero"/>
	<path id="Vector" d="M113.53 170.56C109.07 149.74 100.87 82.3 98.85 81.41C94.1 79.21 68.78 76.74 62.99 86.49C61.2 89.54 60.03 156.02 62.33 173.74L113.53 170.56Z" fill="#FFFFFF" fill-opacity="1.000000" fill-rule="nonzero"/>
	<path id="Vector" d="M62.33 174.57C62.13 174.57 61.94 174.49 61.79 174.36C61.64 174.23 61.55 174.05 61.52 173.86C59.22 156.13 60.33 89.42 62.29 86.08C68.45 75.57 94.61 78.58 99.18 80.67C100.42 81.22 101.52 87.44 106.62 122.22C109.39 141.21 112.25 160.67 114.32 170.39C114.35 170.5 114.35 170.62 114.33 170.74C114.3 170.85 114.25 170.96 114.18 171.05C114.11 171.15 114.02 171.22 113.92 171.28C113.81 171.33 113.7 171.36 113.58 171.37L62.39 174.54L62.33 174.57ZM84.18 80.26C75.87 80.26 66.68 81.84 63.7 86.9C62.12 90.07 60.76 153.25 63.05 172.87L112.54 169.8C110.46 159.77 107.69 140.81 105 122.46C102.38 104.55 99.42 84.29 98.33 82.08C93.74 80.73 88.96 80.11 84.18 80.26Z" fill="#30325B" fill-opacity="1.000000" fill-rule="nonzero"/>
	<path id="Vector" d="M89.21 91.02L85.98 98.61L93.8 143.84L88.25 153.25L79.26 146.65L82.41 98.25L74.4 88.33L89.21 91.02Z" fill="#30325B" fill-opacity="1.000000" fill-rule="nonzero"/>
	<path id="Vector" d="M88.25 154.04C88.08 154.05 87.92 153.99 87.79 153.89L78.78 147.29C78.68 147.21 78.59 147.11 78.54 146.99C78.48 146.87 78.46 146.74 78.47 146.61L81.63 98.5L73.81 88.82C73.72 88.69 73.67 88.53 73.67 88.37C73.67 88.21 73.72 88.06 73.81 87.93C73.9 87.79 74.02 87.68 74.17 87.61C74.31 87.54 74.48 87.52 74.64 87.55L89.45 90.22C89.57 90.25 89.68 90.3 89.77 90.37C89.87 90.44 89.95 90.53 90 90.64C90.05 90.74 90.08 90.86 90.08 90.98C90.08 91.09 90.05 91.21 90 91.32L86.84 98.71L94.61 143.69C94.64 143.88 94.61 144.07 94.51 144.23L88.96 153.73C88.9 153.82 88.83 153.9 88.74 153.97C88.65 154.03 88.54 154.07 88.44 154.09L88.25 154.04ZM80.07 146.27L87.98 152.1L92.93 143.68L85.18 98.74C85.13 98.59 85.13 98.44 85.18 98.29L88.02 91.62L76.27 89.48L82.95 97.74C83.07 97.9 83.13 98.1 83.12 98.29L80.07 146.27Z" fill="#30325B" fill-opacity="1.000000" fill-rule="nonzero"/>
	<path id="Vector" d="M76.76 194.52L69.59 82.96L93.99 82.09L93.31 192.76L119.07 192.76C115.5 161.23 115.15 86.55 112.16 83.31C100.92 71.11 72.14 75.19 72.14 75.19C72.14 75.19 51.39 76.19 44.82 88.33C43.24 91.38 42.51 183.27 42.74 196.45L76.76 194.52Z" fill="#FF5A57" fill-opacity="1.000000" fill-rule="nonzero"/>
	<path id="Vector" d="M92.08 74.84L93.39 83.36C93.39 83.36 92.04 95.75 82.68 93.58C79.86 92.85 77.23 91.53 74.97 89.7C72.72 87.87 70.88 85.57 69.59 82.96L68.4 60.46C68.4 60.46 75.29 56.69 73.15 41.66C80.82 44.88 89.22 45.97 97.46 44.82C97.46 44.82 100.79 60.28 99.73 67.53C99.57 69.47 98.7 71.29 97.29 72.63C95.88 73.98 94.02 74.77 92.08 74.84Z" fill="#FFFFFF" fill-opacity="1.000000" fill-rule="nonzero"/>
	<path id="Vector" d="M84.8 94.64C84.02 94.64 83.24 94.55 82.49 94.37C79.54 93.63 76.8 92.25 74.44 90.34C72.08 88.43 70.17 86.02 68.85 83.29C68.83 83.2 68.83 83.1 68.85 83.01L67.58 60.46C67.57 60.31 67.61 60.15 67.68 60.02C67.76 59.88 67.87 59.77 68.01 59.7C68.01 59.7 74.34 55.93 72.31 41.76C72.29 41.61 72.3 41.46 72.36 41.32C72.42 41.18 72.51 41.06 72.63 40.97C72.75 40.89 72.89 40.83 73.04 40.82C73.18 40.81 73.33 40.83 73.47 40.9C81 44.05 89.22 45.14 97.31 44.07C97.52 44.03 97.73 44.07 97.9 44.19C98.07 44.31 98.19 44.49 98.23 44.7C98.36 45.33 101.59 60.4 100.51 67.71C100.34 69.68 99.5 71.53 98.14 72.97C96.78 74.41 94.97 75.34 93.01 75.62L94.2 83.29C94.21 83.36 94.21 83.43 94.2 83.5C94.2 83.78 93.4 90.35 89.24 93.31C87.94 94.22 86.38 94.68 84.8 94.64ZM70.4 82.76C71.65 85.21 73.41 87.37 75.56 89.1C77.71 90.83 80.2 92.08 82.87 92.77C83.78 93.04 84.74 93.1 85.67 92.95C86.61 92.8 87.51 92.45 88.29 91.92C91.62 89.58 92.46 84.16 92.57 83.36L91.27 74.95C91.25 74.84 91.26 74.72 91.3 74.61C91.33 74.5 91.38 74.39 91.46 74.31C91.53 74.22 91.62 74.14 91.73 74.1C91.83 74.05 91.94 74.02 92.06 74.02C93.81 73.95 95.47 73.24 96.73 72.02C97.99 70.8 98.76 69.17 98.9 67.42C99.8 61.28 97.42 48.86 96.78 45.73C89.11 46.68 81.33 45.76 74.1 43.05C75.49 55.32 70.76 59.84 69.24 60.95L70.4 82.76Z" fill="#30325B" fill-opacity="1.000000" fill-rule="nonzero"/>
	<path id="Vector" d="M87.22 53.88C87.22 53.88 91.66 62.04 90.38 63.26C89.1 64.48 85.63 63.26 85.63 63.26L87.22 53.88Z" fill="#FFFFFF" fill-opacity="1.000000" fill-rule="nonzero"/>
	<path id="Vector" d="M88.5 64.6C87.42 64.58 86.35 64.39 85.33 64.04C85.14 63.96 84.98 63.82 84.89 63.63C84.8 63.44 84.79 63.22 84.86 63.02C84.89 62.92 84.95 62.83 85.02 62.75C85.09 62.68 85.17 62.61 85.26 62.57C85.36 62.52 85.46 62.5 85.57 62.5C85.67 62.49 85.77 62.51 85.87 62.55C86.82 62.88 89.04 63.35 89.77 62.67C90.07 61.99 88.56 58.04 86.51 54.26C86.45 54.17 86.42 54.07 86.4 53.96C86.39 53.86 86.4 53.75 86.43 53.65C86.46 53.55 86.5 53.46 86.57 53.38C86.63 53.3 86.71 53.23 86.81 53.18C86.9 53.13 87 53.1 87.1 53.09C87.21 53.08 87.31 53.08 87.41 53.11C87.51 53.14 87.6 53.19 87.68 53.26C87.77 53.32 87.83 53.4 87.88 53.5C90.05 57.47 92.31 62.48 90.83 63.85C90.16 64.37 89.34 64.64 88.5 64.6Z" fill="#30325B" fill-opacity="1.000000" fill-rule="nonzero"/>
	<path id="Vector" d="M83.76 52.35C83.81 53.51 83.44 54.47 82.93 54.49C82.43 54.52 81.98 53.59 81.93 52.43C81.88 51.27 82.25 50.31 82.76 50.29C83.26 50.27 83.71 51.19 83.76 52.35Z" fill="#30325B" fill-opacity="1.000000" fill-rule="evenodd"/>
	<path id="Vector" d="M95.81 52.35C95.86 53.51 95.49 54.47 94.98 54.49C94.48 54.52 94.03 53.59 93.98 52.43C93.93 51.27 94.3 50.31 94.81 50.29C95.31 50.27 95.76 51.19 95.81 52.35Z" fill="#30325B" fill-opacity="1.000000" fill-rule="evenodd"/>
	<path id="Vector" d="M74.4 56.58C73.58 55.18 72.51 53.94 71.24 52.93C70.56 52.34 69.72 51.97 68.83 51.87C68.1 51.88 67.39 52.09 66.77 52.48C65.85 53.02 65.05 53.75 64.43 54.62C63.81 55.49 63.38 56.48 63.16 57.53C62.95 58.5 62.97 59.5 63.23 60.46C63.76 61.93 64.79 63.16 66.14 63.96C67.49 64.74 68.92 65.36 70.41 65.81L74.4 56.58Z" fill="#FFFFFF" fill-opacity="1.000000" fill-rule="nonzero"/>
	<path id="Vector" d="M70.41 66.63L70.14 66.63C68.6 66.16 67.11 65.51 65.71 64.7C64.19 63.81 63.04 62.41 62.45 60.74C62.13 59.66 62.09 58.51 62.33 57.4C62.56 56.24 63.04 55.14 63.72 54.18C64.41 53.21 65.29 52.4 66.31 51.8C67.06 51.32 67.93 51.08 68.81 51.09C69.87 51.19 70.87 51.62 71.68 52.31C73.06 53.38 74.22 54.7 75.11 56.2C75.22 56.39 75.25 56.62 75.19 56.83C75.14 57.04 75 57.22 74.81 57.33C74.72 57.38 74.62 57.41 74.51 57.43C74.41 57.44 74.3 57.43 74.19 57.41C74.09 57.38 74 57.33 73.91 57.27C73.83 57.2 73.76 57.12 73.7 57.03C72.92 55.71 71.89 54.55 70.68 53.61C70.15 53.12 69.47 52.81 68.75 52.72C68.18 52.73 67.63 52.91 67.17 53.23C66.35 53.71 65.65 54.36 65.11 55.14C64.56 55.91 64.19 56.79 64 57.72C63.8 58.55 63.8 59.42 64 60.25C64.51 61.54 65.44 62.61 66.65 63.29C67.94 64.03 69.32 64.62 70.74 65.05C70.85 65.08 70.94 65.14 71.02 65.21C71.1 65.28 71.17 65.36 71.21 65.46C71.26 65.55 71.29 65.66 71.29 65.76C71.3 65.87 71.29 65.98 71.25 66.08C71.19 66.25 71.08 66.4 70.93 66.5C70.77 66.6 70.59 66.64 70.41 66.63Z" fill="#30325B" fill-opacity="1.000000" fill-rule="nonzero"/>
	<path id="Vector" d="M92.08 74.84C86.69 75.67 81.19 74.76 76.36 72.25C76.36 72.25 84.37 84.56 93.31 82.82L92.08 74.84Z" fill="#30325B" fill-opacity="1.000000" fill-rule="nonzero"/>
	<path id="Vector" d="M91.54 83.78C83.02 83.78 76.01 73.17 75.71 72.71C75.61 72.57 75.55 72.4 75.55 72.22C75.55 72.05 75.61 71.88 75.71 71.74C75.83 71.61 75.99 71.52 76.16 71.49C76.33 71.46 76.51 71.49 76.66 71.57C81.37 74 86.73 74.88 91.96 74.07C92.07 74.04 92.18 74.04 92.29 74.06C92.39 74.08 92.49 74.12 92.58 74.18C92.67 74.24 92.75 74.32 92.81 74.41C92.86 74.51 92.9 74.61 92.91 74.72L94.15 82.63C94.18 82.83 94.13 83.04 94.01 83.2C93.9 83.37 93.72 83.48 93.52 83.51C92.87 83.67 92.2 83.76 91.54 83.78ZM78.88 74.19C81.54 77.36 86.79 82.71 92.47 82.11L91.47 75.78C87.19 76.29 82.84 75.75 78.81 74.19L78.88 74.19Z" fill="#30325B" fill-opacity="1.000000" fill-rule="nonzero"/>
	<path id="Vector" d="M80.19 60.1C78.67 60.1 77.17 59.65 75.9 58.8C74.63 57.96 73.64 56.75 73.06 55.35C72.47 53.94 72.32 52.39 72.62 50.89C72.91 49.39 73.65 48.02 74.73 46.94C75.81 45.86 77.18 45.13 78.68 44.83C80.17 44.53 81.72 44.69 83.13 45.27C84.54 45.86 85.74 46.85 86.59 48.12C87.44 49.39 87.89 50.88 87.88 52.4C87.88 54.44 87.07 56.4 85.62 57.84C84.18 59.28 82.23 60.09 80.19 60.1ZM80.19 46.33C78.99 46.33 77.81 46.68 76.81 47.34C75.81 48.01 75.03 48.96 74.57 50.07C74.1 51.18 73.98 52.4 74.21 53.58C74.45 54.76 75.02 55.84 75.87 56.7C76.72 57.55 77.81 58.13 78.98 58.36C80.16 58.6 81.39 58.48 82.5 58.02C83.61 57.56 84.56 56.78 85.23 55.78C85.9 54.78 86.25 53.61 86.25 52.4C86.25 50.8 85.61 49.25 84.48 48.11C83.34 46.97 81.8 46.33 80.19 46.33Z" fill="#30325B" fill-opacity="1.000000" fill-rule="nonzero"/>
	<path id="Vector" d="M95.03 60.1C93.51 60.1 92.02 59.65 90.75 58.8C89.48 57.96 88.49 56.75 87.9 55.35C87.32 53.94 87.16 52.39 87.46 50.89C87.76 49.39 88.49 48.02 89.57 46.94C90.65 45.86 92.02 45.13 93.52 44.83C95.02 44.53 96.57 44.69 97.98 45.27C99.38 45.86 100.59 46.85 101.43 48.12C102.28 49.39 102.73 50.88 102.73 52.4C102.72 54.44 101.91 56.4 100.47 57.84C99.03 59.28 97.07 60.09 95.03 60.1ZM95.03 46.33C93.83 46.33 92.66 46.68 91.65 47.34C90.65 48.01 89.87 48.96 89.41 50.07C88.95 51.18 88.82 52.4 89.06 53.58C89.29 54.76 89.87 55.84 90.72 56.7C91.57 57.55 92.65 58.13 93.83 58.36C95.01 58.6 96.23 58.48 97.34 58.02C98.45 57.56 99.4 56.78 100.07 55.78C100.74 54.78 101.1 53.61 101.1 52.4C101.1 50.8 100.46 49.25 99.32 48.11C98.18 46.97 96.64 46.33 95.03 46.33Z" fill="#30325B" fill-opacity="1.000000" fill-rule="nonzero"/>
	<path id="Vector" d="M183.9 104.67C183.9 103.61 189.16 100.73 190.01 99.92L199.39 90.84C200.24 89.83 201.43 89.16 202.73 88.94C202.97 88.92 203.21 88.97 203.41 89.08C204.02 89.48 203.73 90.41 203.41 91.03C202 93.5 200.42 95.86 198.67 98.1C203.21 95.26 207.83 92.55 212.53 89.97C213.26 89.58 214.11 89.18 214.89 89.62C215.1 89.79 215.28 90 215.41 90.23C215.55 90.47 215.63 90.73 215.66 91C215.92 93.28 215.35 95.57 214.08 97.47C210.57 103.69 204.59 107.92 198.59 111.49C195.68 113.22 193.16 115.23 190.33 117.09C189.77 117.47 184.6 120.26 184.62 120.88L183.9 104.67Z" fill="#FFFFFF" fill-opacity="1.000000" fill-rule="nonzero"/>
	<path id="Vector" d="M184.62 121.6C184.41 121.6 184.21 121.52 184.06 121.38C183.91 121.23 183.82 121.04 183.81 120.83L183.08 104.77C183.08 103.71 184.43 102.69 187.59 100.65C188.23 100.26 188.85 99.83 189.44 99.37L195.64 93.37L198.81 90.21C199.81 89.03 201.21 88.26 202.73 88.04C203.15 88.01 203.57 88.11 203.92 88.33C204.78 88.91 204.87 90.1 204.13 91.36C203.38 92.63 202.54 93.93 201.75 95.16C205.17 93.1 208.65 91.09 212.13 89.18C212.58 88.85 213.12 88.65 213.67 88.59C214.23 88.53 214.79 88.62 215.3 88.85C215.61 89.07 215.88 89.35 216.07 89.68C216.27 90.01 216.39 90.38 216.44 90.76C216.78 93.22 216.22 95.73 214.86 97.8C211.18 104.31 204.81 108.69 199.03 112.05C197.29 113.07 195.72 114.2 194.08 115.37C193 116.13 191.94 116.95 190.82 117.63C190.69 117.73 190.33 117.93 189.84 118.2C188.3 119.03 186.83 119.96 185.42 120.99C185.37 121.14 185.27 121.28 185.14 121.38C185.01 121.48 184.86 121.53 184.69 121.54L184.62 121.6ZM184.73 104.74L185.36 118.98C186.15 118.44 187.31 117.76 189 116.78C189.44 116.54 189.77 116.35 189.88 116.27C190.99 115.54 192.04 114.8 193.05 114.04C194.63 112.9 196.33 111.71 198.11 110.64C203.68 107.33 209.84 103.11 213.32 96.93C214.49 95.2 215 93.1 214.76 91.02C214.74 90.69 214.6 90.39 214.36 90.16C213.97 89.92 213.11 90.4 212.78 90.54C208.11 93.1 203.46 95.83 198.97 98.66C198.8 98.76 198.61 98.8 198.42 98.78C198.23 98.75 198.05 98.66 197.92 98.52C197.8 98.37 197.73 98.19 197.73 97.99C197.73 97.8 197.8 97.62 197.92 97.47C199.68 95.27 201.29 92.95 202.73 90.52C202.9 90.26 203 89.95 203.02 89.64C203.02 89.64 203.02 89.64 202.88 89.64C201.77 89.87 200.78 90.48 200.08 91.36L196.91 94.53L190.71 100.53C190.05 101.07 189.34 101.56 188.6 102C187.21 102.78 185.91 103.71 184.73 104.77L184.73 104.74Z" fill="#30325B" fill-opacity="1.000000" fill-rule="nonzero"/>
	<path id="Vector" d="M112.16 83.31C112.16 83.31 138.63 105.07 143.71 107.58C148.79 110.1 186.44 98.71 186.44 98.71L196.48 116.44C196.48 116.44 157.54 135.77 141.87 135.16C126.21 134.56 106.62 107.6 106.62 107.6L112.16 83.31Z" fill="#FF5A57" fill-opacity="1.000000" fill-rule="nonzero"/>
	<path id="Vector" d="M196.69 107.57C196.52 107.57 196.35 107.51 196.21 107.41C196.04 107.28 195.92 107.09 195.89 106.88C195.85 106.67 195.9 106.45 196.02 106.27C199.44 101.52 197.97 98.53 197.91 98.36C197.83 98.17 197.83 97.96 197.9 97.77C197.97 97.58 198.1 97.42 198.28 97.33C198.46 97.23 198.67 97.2 198.86 97.25C199.06 97.3 199.23 97.42 199.35 97.58C199.35 97.72 201.4 101.49 197.35 107.08C197.3 107.21 197.2 107.33 197.09 107.41C196.97 107.5 196.83 107.55 196.69 107.57Z" fill="#30325B" fill-opacity="1.000000" fill-rule="nonzero"/>
	<path id="Vector" d="M87.53 69.27C85.75 69.27 83.99 68.81 82.44 67.93C80.88 67.05 79.58 65.79 78.66 64.26C78.6 64.17 78.55 64.07 78.53 63.97C78.51 63.87 78.51 63.76 78.53 63.66C78.55 63.56 78.59 63.46 78.64 63.37C78.7 63.28 78.78 63.21 78.86 63.15C79.04 63.03 79.25 62.99 79.46 63.03C79.67 63.08 79.85 63.2 79.97 63.37C81.07 65.21 82.8 66.59 84.83 67.26C86.86 67.93 89.07 67.85 91.05 67.03C91.24 66.95 91.44 66.96 91.63 67.04C91.82 67.11 91.97 67.26 92.05 67.44C92.13 67.62 92.14 67.83 92.08 68.02C92.01 68.21 91.87 68.37 91.7 68.47C90.37 69 88.96 69.27 87.53 69.27Z" fill="#30325B" fill-opacity="1.000000" fill-rule="nonzero"/>
	<path id="Vector" d="M115.02 143.16C114.91 143.15 114.81 143.12 114.72 143.07C114.62 143.02 114.54 142.95 114.47 142.87C114.4 142.78 114.35 142.69 114.32 142.59C114.29 142.48 114.28 142.38 114.29 142.27L118.34 100.62C118.41 100.45 118.53 100.31 118.68 100.21C118.83 100.12 119.02 100.07 119.2 100.09C119.38 100.11 119.55 100.19 119.68 100.31C119.81 100.44 119.9 100.6 119.93 100.78L115.88 142.43C115.85 142.63 115.75 142.82 115.59 142.96C115.43 143.09 115.23 143.16 115.02 143.16Z" fill="#30325B" fill-opacity="1.000000" fill-rule="nonzero"/>
	<path id="Vector" d="M69.32 162.59L79.31 114.75L123.88 118.17L111.57 167.13L69.32 162.59Z" fill="#FFFFFF" fill-opacity="1.000000" fill-rule="nonzero"/>
	<path id="Vector" d="M111.57 167.95L111.48 167.95L69.23 163.41C69 163.38 68.8 163.26 68.66 163.08C68.59 162.99 68.54 162.88 68.51 162.77C68.49 162.66 68.49 162.54 68.51 162.43L78.51 114.59C78.55 114.4 78.66 114.23 78.82 114.11C78.98 113.99 79.17 113.93 79.37 113.94L123.95 117.43C124.06 117.43 124.18 117.47 124.28 117.53C124.39 117.58 124.48 117.66 124.55 117.76C124.62 117.86 124.67 117.97 124.69 118.08C124.71 118.2 124.7 118.32 124.67 118.44L112.36 167.4C112.31 167.56 112.2 167.7 112.06 167.8C111.91 167.9 111.74 167.96 111.57 167.95ZM70.3 161.88L110.95 166.24L122.85 118.91L79.95 115.62L70.3 161.88Z" fill="#30325B" fill-opacity="1.000000" fill-rule="nonzero"/>
	<path id="Vector" d="M59.6 140.56C59.6 140.56 70.25 133.39 74.1 131.98C79.32 130.09 84.15 129.52 84.83 132.22C85.51 134.93 83.55 141.72 81.46 143.3C79.37 144.88 74.83 146.24 72.3 148.71C69.76 151.18 59.64 154.34 59.64 154.34L59.6 140.56Z" fill="#FFFFFF" fill-opacity="1.000000" fill-rule="nonzero"/>
	<path id="Vector" d="M59.6 155.12C59.39 155.11 59.19 155.02 59.04 154.86C58.89 154.71 58.8 154.51 58.8 154.3L58.8 140.56C58.79 140.43 58.82 140.3 58.88 140.18C58.94 140.06 59.03 139.96 59.15 139.88C59.59 139.58 69.92 132.65 73.83 131.23C76.55 130.21 81.52 128.74 84.1 130.12C84.49 130.3 84.83 130.56 85.1 130.89C85.38 131.22 85.58 131.6 85.68 132.02C86.41 134.91 84.48 142.02 82.01 143.9C80.86 144.69 79.63 145.37 78.34 145.91C76.36 146.74 74.51 147.86 72.87 149.25C70.21 151.83 60.21 154.95 59.86 155.07C59.78 155.1 59.69 155.12 59.6 155.12ZM60.43 140.99L60.43 153.17C63.72 152.08 69.92 149.79 71.73 148.08C73.5 146.57 75.49 145.34 77.63 144.44C78.79 143.93 79.91 143.32 80.97 142.62C82.74 141.26 84.65 134.88 84.04 132.41C83.99 132.23 83.91 132.05 83.79 131.91C83.66 131.76 83.51 131.64 83.34 131.56C81.88 130.78 78.59 131.24 74.38 132.76C71.06 133.98 62.31 139.74 60.43 140.99Z" fill="#30325B" fill-opacity="1.000000" fill-rule="nonzero"/>
	<path id="Vector" d="M48.94 83.31C48.94 83.31 0 135.18 0 158.01C0 180.85 61.16 156.99 61.16 156.99L62.33 135.66L31.17 144.33L61.23 114.8L48.94 83.31Z" fill="#FF5A57" fill-opacity="1.000000" fill-rule="nonzero"/>
	<path id="Vector" d="M23.92 147.14C23.74 147.15 23.57 147.09 23.42 146.98C23.28 146.87 23.18 146.72 23.13 146.54C23.1 146.44 23.09 146.33 23.1 146.22C23.11 146.12 23.15 146.02 23.2 145.92C23.25 145.83 23.33 145.75 23.41 145.68C23.5 145.62 23.6 145.57 23.7 145.55L62.12 134.83C62.22 134.8 62.33 134.8 62.44 134.81C62.55 134.83 62.65 134.86 62.74 134.91C62.84 134.97 62.92 135.04 62.98 135.12C63.05 135.21 63.1 135.31 63.13 135.41C63.15 135.51 63.16 135.62 63.15 135.73C63.13 135.84 63.1 135.94 63.04 136.03C62.99 136.13 62.92 136.21 62.83 136.27C62.75 136.34 62.65 136.39 62.55 136.42L24.05 147.14L23.92 147.14Z" fill="#30325B" fill-opacity="1.000000" fill-rule="nonzero"/>
	<path id="Vector" d="M38.87 140.04C38.72 140.04 38.56 139.99 38.43 139.9C38.3 139.82 38.19 139.69 38.13 139.55C38.06 139.4 38.04 139.24 38.07 139.08C38.1 138.92 38.17 138.78 38.27 138.66L56.55 118.61C56.7 118.48 56.9 118.41 57.1 118.41C57.3 118.42 57.5 118.49 57.65 118.63C57.79 118.77 57.89 118.95 57.91 119.16C57.93 119.36 57.87 119.56 57.75 119.72L39.48 139.77C39.4 139.85 39.31 139.92 39.2 139.97C39.1 140.01 38.99 140.04 38.87 140.04Z" fill="#30325B" fill-opacity="1.000000" fill-rule="nonzero"/>
	<path id="Vector" d="M40.96 343.05C40.57 345.61 40.52 348.22 40.81 350.8C41.33 354.14 80.05 365.04 80.71 357.91C81.38 350.77 58.56 340.37 58.56 340.37C58.56 340.37 45.25 345.29 40.96 343.05Z" fill="#30325B" fill-opacity="1.000000" fill-rule="nonzero"/>
	<path id="Vector" d="M74.94 361.12C64.94 361.12 40.6 354.65 40.01 350.99C39.72 348.33 39.78 345.63 40.19 342.98C40.2 342.86 40.25 342.74 40.32 342.64C40.39 342.54 40.49 342.45 40.6 342.4C40.71 342.34 40.84 342.31 40.96 342.31C41.09 342.31 41.21 342.34 41.33 342.4C44.59 344.09 54.68 341.02 58.29 339.69C58.49 339.62 58.7 339.62 58.89 339.69C61.28 340.78 82.19 350.56 81.49 358.02C81.32 359.93 79.34 360.96 75.6 361.07L74.94 361.12ZM41.71 344.19C41.44 346.37 41.44 348.57 41.71 350.75C42.8 352.94 68.61 361.01 77.77 359.33C79.21 359.06 79.99 358.57 80.05 357.89C80.54 352.6 65.05 344.26 58.65 341.29C56.33 342.02 46.42 345.39 41.63 344.12L41.71 344.19Z" fill="#30325B" fill-opacity="1.000000" fill-rule="nonzero"/>
	<path id="Vector" d="M104.62 339.6C104.62 339.6 100.64 348.06 104.62 351.61C108.61 355.15 145.25 361.59 144.36 356.48C143.47 351.37 120.18 337.86 120.18 337.86C120.18 337.86 109.45 340.89 104.62 339.6Z" fill="#30325B" fill-opacity="1.000000" fill-rule="nonzero"/>
	<path id="Vector" d="M138.25 359.16C127.6 359.16 107.33 355.12 104.04 352.19C99.66 348.3 103.68 339.63 103.85 339.26C103.93 339.1 104.06 338.96 104.23 338.88C104.4 338.81 104.59 338.79 104.77 338.84C109.39 340.07 119.8 337.13 119.89 337.1C119.99 337.05 120.1 337.03 120.2 337.03C120.31 337.03 120.41 337.05 120.51 337.1C122.93 338.5 144.15 350.97 145.07 356.29C145.14 356.69 145.08 357.1 144.89 357.46C144.7 357.82 144.39 358.1 144.01 358.25C142.18 358.97 140.21 359.28 138.25 359.16ZM105.02 340.51C104.24 342.4 102.12 348.43 105.02 351.01C108.58 354.17 138.53 359.52 143.17 356.94C143.47 356.77 143.46 356.67 143.46 356.62C142.86 353.21 128.85 343.96 119.94 338.69C118.22 339.19 109.8 341.37 105.04 340.55L105.02 340.51Z" fill="#30325B" fill-opacity="1.000000" fill-rule="nonzero"/>
	<path id="Vector" d="M110.31 23.84C110.31 25.19 109.21 26.28 107.87 26.28C106.52 26.28 105.43 25.19 105.43 23.84C105.43 22.5 106.52 21.41 107.87 21.41C109.21 21.41 110.31 22.5 110.31 23.84Z" fill="#FF5A57" fill-opacity="1.000000" fill-rule="evenodd"/>
	<path id="Vector" d="M118.22 23.84C118.22 25.19 117.13 26.28 115.78 26.28C114.43 26.28 113.34 25.19 113.34 23.84C113.34 22.5 114.43 21.41 115.78 21.41C117.13 21.41 118.22 22.5 118.22 23.84Z" fill="#FF5A57" fill-opacity="1.000000" fill-rule="evenodd"/>
	<path id="Vector" d="M126.13 23.84C126.13 25.19 125.04 26.28 123.69 26.28C122.35 26.28 121.26 25.19 121.26 23.84C121.26 22.5 122.35 21.41 123.69 21.41C125.04 21.41 126.13 22.5 126.13 23.84Z" fill="#FF5A57" fill-opacity="1.000000" fill-rule="evenodd"/>
	<path id="Vector" d="M422.86 269.56C422.86 269.56 427.47 320.91 433.42 343.05C434.45 346.86 447.66 347.08 451.05 344.88C454.43 342.68 448.5 272.95 448.48 272.84L422.86 269.56Z" fill="#FFFFFF" fill-opacity="1.000000" fill-rule="nonzero"/>
	<path id="Vector" d="M443.37 347.1C440.76 347.16 438.16 346.78 435.68 345.96C434.99 345.78 434.36 345.45 433.83 344.98C433.29 344.51 432.88 343.91 432.63 343.25C426.72 321.3 422.1 270.14 422.06 269.64C422.05 269.52 422.06 269.39 422.1 269.28C422.14 269.16 422.21 269.06 422.29 268.97C422.38 268.89 422.49 268.82 422.61 268.79C422.73 268.75 422.85 268.74 422.97 268.75L448.58 272.01C448.75 272.03 448.91 272.11 449.03 272.22C449.16 272.34 449.24 272.49 449.27 272.66C449.42 273.31 455.6 342.92 451.49 345.56C448.95 346.73 446.16 347.26 443.37 347.1ZM423.78 270.51C424.46 277.82 428.8 322.73 434.19 342.84C434.35 343.41 435.08 343.98 436.25 344.42C440.41 346.01 448.36 345.64 450.6 344.19C453.02 341.02 448.63 283.03 447.72 273.55L423.78 270.51Z" fill="#30325B" fill-opacity="1.000000" fill-rule="nonzero"/>
	<path id="Vector" d="M376.37 264.92L374.79 335.51C374.79 335.51 384.93 343.2 392.59 341.43L401.88 268.51L376.37 264.92Z" fill="#FFFFFF" fill-opacity="1.000000" fill-rule="nonzero"/>
	<path id="Vector" d="M390.19 342.52C382.8 342.52 374.69 336.45 374.36 336.19C374.26 336.11 374.18 336.01 374.13 335.89C374.07 335.77 374.04 335.64 374.05 335.51L375.63 264.94C375.63 264.82 375.66 264.71 375.71 264.61C375.76 264.5 375.83 264.41 375.91 264.34C376 264.26 376.11 264.21 376.22 264.18C376.33 264.14 376.45 264.13 376.56 264.15L402.01 267.76C402.22 267.79 402.41 267.9 402.54 268.07C402.67 268.24 402.73 268.46 402.7 268.67L393.43 341.61C393.41 341.77 393.33 341.93 393.22 342.05C393.11 342.18 392.96 342.26 392.8 342.3C391.94 342.47 391.06 342.55 390.19 342.52ZM375.63 335.1C377.35 336.34 385.5 341.8 391.88 340.75L400.98 269.21L377.24 265.87L375.63 335.1Z" fill="#30325B" fill-opacity="1.000000" fill-rule="nonzero"/>
	<path id="Vector" d="M376.21 171.7L369.33 286.1C369.33 286.1 431.04 301.64 456.65 289.54C456.65 289.54 449.16 200.68 434.29 172.3L376.21 171.7Z" fill="#30325B" fill-opacity="1.000000" fill-rule="nonzero"/>
	<path id="Vector" d="M428.86 294.96C420.31 294.87 411.76 294.24 403.29 293.07C391.8 291.57 380.4 289.46 369.14 286.74C368.96 286.7 368.8 286.59 368.69 286.44C368.58 286.29 368.53 286.11 368.54 285.92L375.42 171.53C375.43 171.33 375.52 171.14 375.67 171C375.82 170.86 376.01 170.78 376.21 170.79L434.29 171.39C434.43 171.39 434.57 171.43 434.69 171.51C434.82 171.58 434.92 171.69 434.98 171.81C449.78 200 457.36 288.47 457.44 289.35C457.45 289.52 457.42 289.68 457.33 289.82C457.25 289.96 457.13 290.07 456.98 290.13C450.35 293.39 440.93 294.96 428.86 294.96ZM370.15 285.46C376.72 287.04 431.87 299.8 455.81 289.02C455.14 281.51 447.69 200.23 433.8 173.06L376.96 172.48L370.15 285.46Z" fill="#30325B" fill-opacity="1.000000" fill-rule="nonzero"/>
	<path id="Vector" d="M339.68 164.76C339.68 164.76 335.66 167.51 332.73 167.18C329.8 166.85 323.23 165.77 322.97 169.3C322.7 172.83 330.29 184.2 330.28 184.32C330.26 184.43 347.79 173.98 347.79 173.98L339.68 164.76Z" fill="#FFFFFF" fill-opacity="1.000000" fill-rule="nonzero"/>
	<path id="Vector" d="M330.1 185.07C330.02 185.06 329.94 185.04 329.87 185C329.74 184.91 329.63 184.79 329.56 184.65C329.56 184.55 329.37 184.35 329.18 184.03C324.33 176.29 322.03 171.47 322.17 169.25C322.19 168.84 322.29 168.43 322.48 168.06C322.67 167.69 322.93 167.36 323.25 167.1C325.23 165.52 329.42 165.97 332.21 166.31L332.81 166.39C335.44 166.7 339.14 164.12 339.23 164.11C339.39 163.99 339.59 163.94 339.78 163.97C339.97 163.99 340.15 164.09 340.28 164.23L348.4 173.46C348.47 173.55 348.52 173.65 348.56 173.76C348.59 173.88 348.6 173.99 348.58 174.11C348.56 174.22 348.52 174.33 348.45 174.43C348.39 174.52 348.3 174.6 348.21 174.66C332.92 183.76 330.72 185.07 330.1 185.07ZM327.74 167.54C326.52 167.43 325.29 167.7 324.23 168.32C324.08 168.44 323.96 168.6 323.87 168.78C323.79 168.95 323.74 169.15 323.74 169.35C323.74 170.61 324.77 174.09 330.5 183.19C332.76 181.89 340.67 177.19 346.51 173.7L339.47 165.69C338.19 166.48 335.12 168.16 332.57 167.86L331.94 167.86C330.55 167.67 329.15 167.56 327.74 167.54Z" fill="#30325B" fill-opacity="1.000000" fill-rule="nonzero"/>
	<path id="Vector" d="M383.9 90.03C383.9 90.03 365.72 141.43 359.65 144.17C353.57 146.91 335.51 162.51 335.51 162.51L345.77 178.24C345.77 178.24 367.53 164.6 376.55 156.5C385.57 148.39 383.9 90.03 383.9 90.03Z" fill="#FF5A57" fill-opacity="1.000000" fill-rule="nonzero"/>
	<path id="Vector" d="M288.22 173.86L321.81 155.43L345.02 197.73L311.44 216.16L288.22 173.86Z" fill="#FFFFFF" fill-opacity="1.000000" fill-rule="evenodd"/>
	<path id="Vector" d="M311.45 216.96C311.37 216.98 311.29 216.98 311.21 216.96C311.11 216.93 311.01 216.89 310.93 216.82C310.85 216.75 310.78 216.67 310.73 216.58L287.5 174.28C287.4 174.09 287.38 173.87 287.44 173.66C287.5 173.45 287.65 173.28 287.84 173.17L321.41 154.69C321.62 154.61 321.84 154.61 322.05 154.69C322.15 154.72 322.24 154.77 322.32 154.84C322.41 154.91 322.47 154.99 322.52 155.09L345.75 197.39C345.85 197.58 345.88 197.8 345.81 198.01C345.75 198.22 345.61 198.39 345.42 198.49L311.92 216.87C311.77 216.94 311.61 216.97 311.45 216.96ZM289.29 174.24L311.71 215.11L343.87 197.45L321.45 156.59L289.29 174.24Z" fill="#30325B" fill-opacity="1.000000" fill-rule="nonzero"/>
	<path id="Vector" d="M415.19 47.48C418.69 51.11 419.29 54.05 420.49 58.7C421.68 63.01 423.35 67.16 425.47 71.09C429.65 79.16 434.89 86.71 438.13 95.27C439.33 98.14 439.95 101.23 439.94 104.34C439.73 107.18 438.85 109.93 437.37 112.36C435.89 114.79 433.85 116.84 431.42 118.33C426.51 121.26 420.78 122.54 415.08 121.97C412.88 121.89 410.72 121.35 408.75 120.39C406.54 119.06 404.71 117.18 403.45 114.93C400.54 109.81 398.64 104.19 397.86 98.36C397.01 93.41 396.28 88.28 392.4 84.59C389.54 81.85 385.5 80.83 382.15 78.72C379.5 76.99 377.31 74.65 375.76 71.9C374.21 69.14 373.35 66.06 373.24 62.9C373.05 56.77 375.77 52.58 378.94 47.71C380.52 45.33 384.73 40.46 387.23 45.32C386.17 43.27 390.6 40.06 392.05 39.63C395.2 39.05 398.44 39.16 401.55 39.95C406.74 41.05 411.49 43.67 415.19 47.48Z" fill="#FFFFFF" fill-opacity="1.000000" fill-rule="nonzero"/>
	<path id="Vector" d="M417.45 122.79C416.63 122.79 415.87 122.79 414.97 122.7C412.66 122.59 410.41 122.01 408.34 121C406.01 119.62 404.09 117.65 402.77 115.29C399.82 110.08 397.89 104.37 397.09 98.44L397.01 97.96C396.2 93.29 395.42 88.47 391.83 85.08C390.04 83.54 388 82.31 385.8 81.43C384.39 80.8 383.03 80.1 381.7 79.31C378.94 77.51 376.66 75.07 375.04 72.2C373.43 69.33 372.54 66.11 372.45 62.82C372.26 56.49 375.03 52.21 378.22 47.28C378.81 46.39 381.64 42.28 384.55 42.44C385.29 42.46 385.99 42.76 386.53 43.26C387.74 41.27 389.56 39.72 391.72 38.84C395 38.22 398.37 38.33 401.6 39.14C406.95 40.29 411.84 43.01 415.63 46.96C419.08 50.52 419.86 53.56 420.93 57.77L421.12 58.51C422.3 62.76 423.96 66.86 426.06 70.73C427.47 73.48 429.03 76.2 430.55 78.85C433.71 84 436.44 89.4 438.7 95C439.95 97.96 440.58 101.14 440.55 104.36C440.34 107.31 439.43 110.18 437.89 112.71C436.35 115.24 434.22 117.37 431.69 118.91C427.41 121.52 422.47 122.87 417.45 122.79ZM384.46 43.89C382.88 43.89 380.79 46.01 379.47 48.01C376.31 52.75 373.71 56.91 373.9 62.79C373.98 65.84 374.8 68.83 376.29 71.49C377.79 74.16 379.9 76.42 382.46 78.09C383.74 78.84 385.07 79.53 386.42 80.14C388.76 81.08 390.92 82.41 392.83 84.05C396.72 87.77 397.58 92.84 398.43 97.72L398.51 98.22C399.29 103.95 401.15 109.49 403.99 114.53C405.18 116.68 406.92 118.47 409.03 119.74C410.92 120.68 412.98 121.21 415.08 121.32C420.62 121.87 426.19 120.62 430.98 117.77C433.31 116.35 435.28 114.4 436.7 112.06C438.13 109.73 438.98 107.1 439.18 104.37C439.18 101.35 438.58 98.37 437.41 95.59C435.17 90.06 432.48 84.72 429.37 79.64C427.78 77 426.2 74.24 424.84 71.47C422.68 67.48 420.98 63.26 419.79 58.88L419.6 58.15C418.54 54 417.85 51.28 414.67 47.97C411.07 44.24 406.43 41.67 401.36 40.58C399.08 40.11 394.87 39.44 392.2 40.24C390.4 41.01 388.9 42.32 387.88 43.99C387.64 44.56 387.78 44.82 387.88 44.9C387.96 45.08 387.97 45.28 387.92 45.46C387.86 45.64 387.73 45.79 387.56 45.88C387.39 45.97 387.19 45.98 387.01 45.92C386.82 45.87 386.67 45.74 386.58 45.57C386.02 44.48 385.38 43.99 384.62 43.89L384.46 43.89Z" fill="#30325B" fill-opacity="1.000000" fill-rule="nonzero"/>
	<path id="Vector" d="M439.08 176.36C438.89 178.06 403.19 177.35 400.65 177.16C394.08 176.69 381.42 176.53 376.21 171.7C372.56 168.32 376.21 161.37 376.55 156.5C376.86 148.75 376.53 140.99 375.58 133.3C374.58 123.37 374.98 113.36 376.77 103.55C377.92 97.22 379.27 92.65 383.9 90.03C391.25 85.9 402.1 83.91 410.55 83.29C414.63 82.99 431.9 91.82 435.71 99.97C439.53 108.12 439.1 175.22 439.08 176.36Z" fill="#FF5A57" fill-opacity="1.000000" fill-rule="nonzero"/>
	<path id="Vector" d="M377.65 141.16C377.49 141.16 377.32 141.11 377.19 141.02C377.05 140.92 376.95 140.78 376.89 140.62C369.84 119.48 378.3 94.61 378.38 94.35C378.45 94.16 378.6 94 378.79 93.91C378.98 93.82 379.2 93.81 379.39 93.88C379.59 93.95 379.75 94.09 379.84 94.28C379.94 94.46 379.95 94.68 379.88 94.88C379.81 95.13 371.5 119.5 378.4 140.12C378.43 140.22 378.45 140.32 378.44 140.42C378.43 140.53 378.4 140.63 378.36 140.72C378.31 140.82 378.24 140.9 378.16 140.97C378.08 141.03 377.99 141.08 377.89 141.11C377.82 141.14 377.74 141.16 377.65 141.16Z" fill="#30325B" fill-opacity="1.000000" fill-rule="nonzero"/>
	<path id="Vector" d="M408.75 98.44C408.75 98.44 397.42 119.5 394.51 128.76C391.59 138.01 384.9 153.46 384.9 153.46C384.9 153.46 381.58 119.61 392.59 91.92L408.75 98.44Z" fill="#30325B" fill-opacity="1.000000" fill-rule="nonzero"/>
	<path id="Vector" d="M384.84 154.11L384.71 154.11C384.56 154.08 384.42 154.01 384.31 153.9C384.21 153.79 384.14 153.64 384.13 153.49C384.13 153.16 380.96 119.15 391.88 91.62C391.91 91.53 391.96 91.45 392.02 91.39C392.08 91.32 392.16 91.27 392.24 91.24C392.42 91.17 392.61 91.17 392.78 91.24L409 97.76C409.09 97.79 409.17 97.85 409.24 97.92C409.31 97.99 409.36 98.07 409.4 98.16C409.43 98.25 409.44 98.35 409.43 98.45C409.43 98.54 409.4 98.64 409.35 98.72C409.24 98.94 398.02 119.85 395.11 128.95C392.2 138.05 385.61 153.54 385.47 153.69C385.42 153.82 385.33 153.92 385.22 154C385.1 154.07 384.97 154.11 384.84 154.11ZM392.92 92.77C384.2 115.23 384.84 141.83 385.33 150.45C387.35 145.62 391.58 135.32 393.78 128.5C396.48 120.12 405.77 102.5 407.77 98.74L392.92 92.77Z" fill="#30325B" fill-opacity="1.000000" fill-rule="nonzero"/>
	<path id="Vector" d="M390.57 86.85L392.84 98.88C392.84 98.88 395.52 108.07 401.31 105.92C403.76 105.01 405.99 103.59 407.86 101.77C409.74 99.96 411.22 97.77 412.21 95.35L410.17 71.06C408.86 66.86 408.19 62.48 408.19 58.07C404.21 58.12 400.26 57.24 396.67 55.51C395.25 54.86 387.53 52.02 387.97 50.05C386.88 54.97 385.64 60.14 382.23 63.86C381.71 64.35 381.28 64.93 380.98 65.57C380.83 66.08 380.79 66.62 380.83 67.15C380.91 72.28 380.83 77.3 382.05 82.3C383.71 88.78 390.57 86.85 390.57 86.85Z" fill="#FFFFFF" fill-opacity="1.000000" fill-rule="nonzero"/>
	<path id="Vector" d="M399.59 106.98C398.79 106.98 398 106.79 397.29 106.43C393.81 104.67 392.21 99.31 392.15 99.09L389.98 87.71C388.12 88.06 386.19 87.77 384.51 86.9C383.7 86.41 383 85.76 382.46 84.98C381.91 84.21 381.53 83.33 381.34 82.41C380.41 78.08 380 73.65 380.12 69.23L380.12 67.09C380.06 66.44 380.15 65.78 380.4 65.18C380.65 64.57 381.04 64.04 381.55 63.62L381.72 63.43C385.11 59.75 386.28 54.54 387.29 49.94C387.33 49.75 387.45 49.58 387.61 49.48C387.77 49.38 387.97 49.34 388.16 49.38C388.35 49.42 388.51 49.54 388.62 49.7C388.72 49.87 388.76 50.06 388.71 50.25C388.71 50.51 389.02 51.57 395.99 54.48C396.44 54.65 396.79 54.79 397.01 54.9C400.49 56.54 404.31 57.36 408.16 57.29C408.35 57.29 408.54 57.36 408.68 57.48C408.75 57.55 408.81 57.63 408.85 57.72C408.88 57.8 408.91 57.9 408.91 57.99C408.88 61.96 409.45 65.9 410.58 69.7C410.73 70.1 410.83 70.51 410.88 70.93C410.88 71.14 412.94 95.22 412.94 95.22C412.96 95.32 412.96 95.43 412.94 95.53C411.93 98.06 410.4 100.36 408.45 102.27C406.5 104.18 404.17 105.65 401.61 106.6C400.97 106.85 400.28 106.98 399.59 106.98ZM393.56 98.75C393.56 98.75 395.03 103.66 397.94 105.08C398.43 105.33 398.96 105.48 399.51 105.5C400.06 105.52 400.6 105.42 401.1 105.21C403.41 104.33 405.52 103 407.3 101.29C409.09 99.59 410.51 97.54 411.49 95.27C409.44 71.11 409.44 71.12 409.44 71.08C409.39 70.78 409.31 70.49 409.21 70.21C408.1 66.53 407.52 62.72 407.48 58.88C403.64 58.8 399.87 57.9 396.41 56.23L395.44 55.82C392.89 54.92 390.49 53.66 388.3 52.07C387.32 56.23 385.96 60.97 382.8 64.42L382.61 64.62C382.23 64.91 381.94 65.29 381.76 65.73C381.58 66.17 381.52 66.65 381.59 67.12L381.59 69.27C381.46 73.58 381.86 77.89 382.76 82.11C382.91 82.84 383.21 83.54 383.63 84.16C384.06 84.78 384.61 85.3 385.25 85.7C386.84 86.47 388.66 86.66 390.38 86.22C390.47 86.19 390.58 86.18 390.68 86.2C390.78 86.21 390.88 86.24 390.96 86.3C391.13 86.41 391.24 86.58 391.28 86.77L393.57 98.82L393.56 98.75Z" fill="#30325B" fill-opacity="1.000000" fill-rule="nonzero"/>
	<path id="Vector" d="M392.12 95.05C395.21 94.02 397.98 92.2 400.16 89.78C401.15 88.76 401.92 87.54 402.4 86.2C402.88 84.86 403.07 83.43 402.94 82.01C399.28 84.62 395.03 86.28 390.57 86.85L392.12 95.05Z" fill="#30325B" fill-opacity="1.000000" fill-rule="nonzero"/>
	<path id="Vector" d="M392.12 95.75C391.99 95.75 391.86 95.72 391.75 95.65C391.67 95.6 391.6 95.53 391.54 95.45C391.49 95.37 391.45 95.27 391.44 95.18L389.85 86.98C389.84 86.88 389.84 86.78 389.87 86.69C389.89 86.59 389.94 86.5 390 86.43C390.06 86.35 390.13 86.28 390.22 86.24C390.31 86.19 390.4 86.16 390.5 86.16C394.83 85.57 398.96 83.94 402.51 81.41C402.61 81.34 402.72 81.3 402.84 81.28C402.96 81.26 403.08 81.28 403.19 81.32C403.3 81.36 403.4 81.43 403.47 81.52C403.55 81.61 403.6 81.72 403.62 81.84C403.77 83.36 403.58 84.9 403.07 86.34C402.56 87.79 401.74 89.1 400.66 90.19C398.39 92.71 395.51 94.6 392.29 95.68L392.12 95.75ZM391.39 87.47L392.66 94.13C395.31 93.1 397.7 91.48 399.63 89.39C401.19 87.74 402.13 85.61 402.29 83.36C399 85.5 395.28 86.9 391.39 87.47Z" fill="#30325B" fill-opacity="1.000000" fill-rule="nonzero"/>
	<path id="Vector" d="M392.32 62.25C392.32 62.25 388.11 69.19 389.24 70.32C390.36 71.44 393.34 70.54 393.34 70.54L392.32 62.25Z" fill="#FFFFFF" fill-opacity="1.000000" fill-rule="nonzero"/>
	<path id="Vector" d="M391.04 71.54C390.19 71.59 389.34 71.32 388.68 70.78C387.43 69.53 389.63 65.22 391.67 61.84C391.77 61.68 391.93 61.56 392.11 61.52C392.29 61.48 392.48 61.5 392.64 61.6C392.72 61.65 392.79 61.71 392.84 61.78C392.9 61.86 392.94 61.94 392.96 62.03C392.98 62.12 392.99 62.21 392.97 62.31C392.96 62.4 392.93 62.48 392.88 62.56C390.93 65.73 389.44 69.18 389.71 69.83C390.3 70.4 392.24 70.08 393.08 69.83C393.26 69.78 393.44 69.8 393.6 69.89C393.76 69.98 393.87 70.12 393.93 70.29C393.98 70.47 393.96 70.65 393.88 70.81C393.8 70.97 393.66 71.1 393.49 71.16C392.7 71.39 391.87 71.52 391.04 71.54Z" fill="#30325B" fill-opacity="1.000000" fill-rule="nonzero"/>
	<path id="Vector" d="M386.14 65.66C386.15 66.47 385.8 67.12 385.37 67.12C384.95 67.12 384.6 66.47 384.59 65.67C384.59 64.87 384.93 64.21 385.36 64.21C385.79 64.21 386.14 64.86 386.14 65.66Z" fill="#30325B" fill-opacity="1.000000" fill-rule="evenodd"/>
	<path id="Vector" d="M398.82 64C398.83 64.81 398.48 65.46 398.06 65.46C397.63 65.46 397.28 64.81 397.27 64.01C397.27 63.2 397.61 62.55 398.04 62.55C398.47 62.55 398.82 63.2 398.82 64Z" fill="#30325B" fill-opacity="1.000000" fill-rule="evenodd"/>
	<path id="Vector" d="M405.16 64.07C405.99 61.55 409.08 60.51 411.49 60.9C412.28 61 413.02 61.32 413.63 61.84C414.24 62.36 414.67 63.05 414.89 63.81C415.13 64.76 415.18 65.75 415.05 66.73C414.83 68.54 414.3 70.29 413.46 71.92C413.09 72.74 412.52 73.47 411.8 74.02C411.34 74.34 410.79 74.52 410.22 74.52C409.65 74.52 409.1 74.34 408.64 74.02L405.16 64.07Z" fill="#FFFFFF" fill-opacity="1.000000" fill-rule="nonzero"/>
	<path id="Vector" d="M410.43 75.18C409.69 75.16 408.98 74.94 408.37 74.54C408.2 74.44 408.09 74.28 408.05 74.09C408 73.9 408.04 73.7 408.14 73.54C408.24 73.37 408.41 73.26 408.59 73.22C408.78 73.17 408.98 73.21 409.14 73.31C409.49 73.55 409.9 73.68 410.31 73.68C410.73 73.68 411.14 73.55 411.49 73.31C412.1 72.82 412.58 72.19 412.89 71.47C413.67 69.93 414.16 68.25 414.35 66.54C414.48 65.66 414.43 64.77 414.21 63.91C414.03 63.27 413.67 62.7 413.17 62.27C412.67 61.84 412.05 61.58 411.39 61.5C409.25 61.19 406.53 62.12 405.85 64.21C405.83 64.31 405.78 64.4 405.72 64.48C405.66 64.56 405.58 64.62 405.5 64.67C405.41 64.72 405.31 64.75 405.21 64.76C405.11 64.77 405.01 64.76 404.92 64.73C404.82 64.69 404.73 64.64 404.66 64.58C404.58 64.51 404.52 64.43 404.48 64.33C404.44 64.24 404.42 64.14 404.42 64.04C404.42 63.94 404.44 63.84 404.48 63.75C405.41 60.92 408.84 59.65 411.61 60.08C412.56 60.2 413.44 60.61 414.15 61.24C414.86 61.87 415.37 62.7 415.6 63.62C415.87 64.66 415.93 65.73 415.79 66.79C415.6 68.68 415.06 70.52 414.21 72.22C413.79 73.16 413.14 73.98 412.32 74.61C411.76 74.98 411.1 75.18 410.43 75.18Z" fill="#30325B" fill-opacity="1.000000" fill-rule="nonzero"/>
	<path id="Vector" d="M343.57 137.48L345.86 136.24C346.44 135.8 346.82 135.15 346.92 134.43C347.02 133.71 346.84 132.98 346.42 132.39L328.63 99.43C328.36 98.75 327.84 98.2 327.18 97.89C326.52 97.58 325.76 97.53 325.07 97.76L322.78 98.97C322.2 99.42 321.82 100.07 321.72 100.79C321.61 101.51 321.79 102.25 322.22 102.84L340.09 135.78C340.35 136.45 340.85 137 341.5 137.31C342.14 137.63 342.88 137.68 343.57 137.48Z" fill="#FFFFFF" fill-opacity="1.000000" fill-rule="nonzero"/>
	<path id="Vector" d="M342.76 138.47C342.04 138.42 341.35 138.18 340.76 137.78C340.17 137.37 339.7 136.81 339.39 136.16L321.53 103.18C320.98 102.22 320.83 101.09 321.1 100.02C321.31 99.34 321.77 98.78 322.4 98.44L324.71 97.22C325.56 96.87 326.53 96.86 327.39 97.2C328.25 97.54 328.95 98.21 329.33 99.05L347.19 132.02C347.48 132.51 347.66 133.05 347.74 133.61C347.81 134.17 347.77 134.75 347.62 135.29C347.52 135.63 347.35 135.94 347.13 136.21C346.91 136.48 346.63 136.71 346.32 136.87L344.01 138.11C343.63 138.33 343.2 138.46 342.76 138.47ZM325.94 98.34C325.77 98.34 325.6 98.38 325.45 98.45L323.14 99.69C322.88 99.84 322.68 100.09 322.6 100.38C322.44 101.09 322.55 101.83 322.92 102.46L340.78 135.42C341.39 136.54 342.52 137.16 343.25 136.76L345.56 135.55C345.7 135.47 345.81 135.37 345.9 135.24C346 135.12 346.06 134.98 346.1 134.83C346.26 134.13 346.15 133.39 345.78 132.78L327.93 99.81C327.75 99.42 327.48 99.08 327.13 98.82C326.78 98.56 326.37 98.4 325.94 98.34Z" fill="#30325B" fill-opacity="1.000000" fill-rule="nonzero"/>
	<path id="Vector" d="M324.56 104.1L307 71.79L310.39 69.99L324.56 104.1Z" fill="#30325B" fill-opacity="1.000000" fill-rule="nonzero"/>
	<path id="Vector" d="M324.58 104.89C324.44 104.9 324.3 104.86 324.17 104.79C324.05 104.71 323.95 104.61 323.88 104.48L306.32 72.15C306.24 71.96 306.24 71.74 306.32 71.55C306.39 71.35 306.53 71.18 306.71 71.08L310.08 69.29C310.27 69.19 310.49 69.17 310.69 69.23C310.89 69.29 311.06 69.42 311.16 69.61C311.21 69.7 311.24 69.8 311.25 69.9C311.26 70.01 311.25 70.11 311.22 70.21C311.19 70.31 311.14 70.41 311.07 70.49C311 70.57 310.92 70.63 310.83 70.68L308.15 72.11L325.34 103.75C325.39 103.85 325.42 103.95 325.43 104.05C325.44 104.15 325.43 104.26 325.4 104.36C325.38 104.46 325.33 104.55 325.26 104.63C325.2 104.71 325.11 104.78 325.02 104.83C324.88 104.89 324.73 104.91 324.58 104.89Z" fill="#30325B" fill-opacity="1.000000" fill-rule="nonzero"/>
	<path id="Vector" d="M332.1 78.89C337.09 87.73 335.34 98.17 328.2 102.19C321.06 106.22 311.23 102.31 306.24 93.46C301.26 84.61 303 74.18 310.15 70.15C317.29 66.13 327.12 70.04 332.1 78.89Z" fill="#30325B" fill-opacity="1.000000" fill-rule="evenodd"/>
	<path id="Vector" d="M322.06 104.53C315.73 104.53 309.12 100.42 305.37 93.45C302.63 88.65 301.9 82.96 303.34 77.63C303.84 75.85 304.68 74.19 305.83 72.75C306.97 71.3 308.39 70.1 310.01 69.21C317.62 65.14 327.92 69.42 332.97 78.7C335.71 83.5 336.43 89.2 334.98 94.53C334.48 96.31 333.64 97.97 332.5 99.42C331.35 100.87 329.93 102.07 328.31 102.96C326.39 103.99 324.24 104.53 322.06 104.53ZM306.75 92.74C311.38 101.27 320.73 105.26 327.57 101.6C329.01 100.81 330.27 99.75 331.28 98.46C332.3 97.17 333.04 95.7 333.47 94.12C334.78 89.2 334.1 83.96 331.57 79.54C326.94 71.01 317.59 67.04 310.75 70.68C309.31 71.47 308.05 72.54 307.04 73.82C306.03 75.11 305.29 76.59 304.86 78.17C303.54 83.08 304.22 88.32 306.75 92.74Z" fill="#30325B" fill-opacity="1.000000" fill-rule="nonzero"/>
	<path id="Vector" d="M328.71 80.69C333.7 89.54 331.95 99.98 324.81 104C317.66 108.03 307.83 104.12 302.85 95.27C297.86 86.42 299.61 75.99 306.75 71.96C313.89 67.94 323.73 71.85 328.71 80.69Z" fill="#FFFFFF" fill-opacity="1.000000" fill-rule="evenodd"/>
	<path id="Vector" d="M318.68 106.35C312.35 106.35 305.73 102.22 301.98 95.27C299.24 90.47 298.51 84.78 299.96 79.45C300.45 77.67 301.3 76.01 302.45 74.56C303.59 73.11 305.02 71.9 306.64 71.01C314.25 66.96 324.53 71.24 329.58 80.51C332.32 85.31 333.04 91 331.61 96.33C331.11 98.11 330.26 99.77 329.11 101.21C327.97 102.66 326.54 103.86 324.93 104.75C323.01 105.8 320.86 106.34 318.68 106.35ZM312.9 71.14C310.98 71.13 309.08 71.6 307.38 72.5C305.94 73.28 304.67 74.35 303.66 75.64C302.64 76.92 301.9 78.4 301.48 79.99C300.17 84.9 300.85 90.14 303.38 94.56C308.01 103.09 317.35 107.06 324.18 103.42C325.62 102.64 326.89 101.57 327.9 100.28C328.91 99 329.66 97.52 330.09 95.94C331.4 91.02 330.72 85.78 328.19 81.36C324.72 74.95 318.63 71.12 312.9 71.12L312.9 71.14Z" fill="#30325B" fill-opacity="1.000000" fill-rule="nonzero"/>
	<path id="Vector" d="M324.75 82.92C328.21 89.06 327 96.3 322.04 99.09C317.08 101.89 310.26 99.18 306.8 93.04C303.35 86.9 304.56 79.66 309.52 76.87C314.47 74.08 321.29 76.79 324.75 82.92Z" fill="#FFFFFF" fill-opacity="1.000000" fill-rule="evenodd"/>
	<path id="Vector" d="M317.79 100.94C315.31 100.8 312.92 100.01 310.85 98.64C308.78 97.28 307.1 95.39 306 93.17C304.09 89.81 303.58 85.83 304.58 82.09C304.93 80.83 305.54 79.65 306.35 78.62C307.17 77.59 308.18 76.73 309.32 76.09C314.72 73.23 321.98 76.24 325.56 82.79C327.47 86.15 327.98 90.13 326.99 93.86C326.63 95.13 326.03 96.3 325.21 97.33C324.4 98.36 323.39 99.21 322.24 99.85C320.87 100.57 319.34 100.95 317.79 100.94ZM313.79 76.52C312.49 76.52 311.21 76.83 310.07 77.44C309.1 77.97 308.25 78.69 307.56 79.55C306.88 80.42 306.38 81.42 306.1 82.49C305.2 85.83 305.67 89.4 307.39 92.41C310.56 98.2 316.89 100.92 321.49 98.45C322.46 97.92 323.32 97.21 324 96.34C324.68 95.47 325.18 94.47 325.47 93.4C325.91 91.75 326.03 90.02 325.8 88.31C325.58 86.61 325.03 84.97 324.17 83.48C323.2 81.51 321.74 79.83 319.91 78.61C318.09 77.38 315.98 76.66 313.79 76.52Z" fill="#30325B" fill-opacity="1.000000" fill-rule="nonzero"/>
	<path id="Vector" d="M346.92 124.72L360.12 136.29L347.9 146.32C342.18 136.54 341.1 129.96 338.41 129.77C334.58 129.5 329.83 128.82 328.69 125.37C327.81 123.31 327.63 121.01 328.17 118.83C328.26 118.44 328.43 118.07 328.68 117.75C328.92 117.43 329.23 117.16 329.58 116.97C330.02 116.84 330.49 116.81 330.94 116.87C333.49 117.02 338.06 117.6 338.27 117.49C339.19 116.94 339.85 116.33 339.6 115.29C342.94 117.58 343.71 122.27 346.92 124.72Z" fill="#FFFFFF" fill-opacity="1.000000" fill-rule="nonzero"/>
	<path id="Vector" d="M347.9 147.11L347.78 147.11C347.66 147.09 347.55 147.05 347.46 146.99C347.36 146.92 347.28 146.83 347.22 146.73C345.27 143.36 343.52 139.87 341.99 136.29C340.51 133.01 339.44 130.64 338.36 130.56C333.92 130.26 329.2 129.42 327.95 125.64C326.99 123.42 326.81 120.94 327.43 118.6C327.49 118.2 327.62 117.82 327.83 117.47C328.04 117.13 328.32 116.83 328.64 116.6C328.97 116.37 329.34 116.2 329.73 116.12C330.12 116.03 330.53 116.02 330.93 116.1C332.18 116.1 333.79 116.33 335.21 116.48C336.34 116.59 337.57 116.71 338.01 116.73C338.81 116.22 338.92 115.91 338.82 115.46C338.79 115.31 338.81 115.15 338.86 115C338.92 114.86 339.02 114.73 339.15 114.64C339.28 114.55 339.44 114.51 339.6 114.51C339.75 114.51 339.91 114.55 340.04 114.64C341.75 116 343.13 117.72 344.07 119.69C344.88 121.36 346.01 122.86 347.4 124.09L360.6 135.67C360.68 135.75 360.75 135.84 360.8 135.94C360.84 136.05 360.87 136.16 360.86 136.27C360.86 136.39 360.84 136.5 360.79 136.61C360.74 136.71 360.67 136.8 360.58 136.87L348.36 146.91C348.24 147.02 348.08 147.09 347.9 147.11ZM330.37 117.63C330.2 117.62 330.04 117.65 329.88 117.71C329.41 117.89 329.12 118.55 328.92 119.1C328.43 121.12 328.62 123.24 329.45 125.13C330.42 128.04 334.77 128.71 338.47 128.98C340.5 129.12 341.64 131.57 343.43 135.62C344.84 138.87 346.42 142.04 348.17 145.12L358.95 136.27L346.42 125.34C344.86 123.98 343.6 122.33 342.7 120.48C342.01 119.15 341.15 117.91 340.15 116.79C339.79 117.38 339.28 117.85 338.66 118.15C338.36 118.34 338.27 118.36 335.06 118.03C333.66 117.89 332.06 117.73 330.89 117.66L330.37 117.63Z" fill="#30325B" fill-opacity="1.000000" fill-rule="nonzero"/>
	<path id="Vector" d="M411.87 110.84C401.14 123.5 383.92 143.12 383.92 143.12L350.07 124.01L334.53 137.03C334.53 137.03 368.24 174.14 386.44 170.67C405.33 162.68 421.44 149.28 432.74 132.16L411.87 110.84Z" fill="#FF5A57" fill-opacity="1.000000" fill-rule="nonzero"/>
	<path id="Vector" d="M384 171.66C365.14 171.66 335.28 139.03 333.95 137.57C333.88 137.49 333.82 137.4 333.79 137.3C333.75 137.2 333.74 137.09 333.74 136.99C333.75 136.87 333.79 136.76 333.85 136.66C333.9 136.57 333.98 136.48 334.07 136.42L349.6 123.39C349.72 123.29 349.87 123.22 350.03 123.2C350.19 123.19 350.36 123.22 350.5 123.3L383.73 142.1C386.44 139.01 401.56 121.76 411.23 110.31C411.37 110.14 411.56 110.04 411.77 110.03C411.99 110.01 412.19 110.07 412.36 110.21C412.52 110.35 412.62 110.54 412.64 110.75C412.65 110.96 412.59 111.17 412.45 111.33C401.83 123.9 384.66 143.42 384.49 143.63C384.37 143.77 384.21 143.86 384.03 143.88C383.85 143.91 383.67 143.88 383.51 143.79L350.12 124.96L335.66 137.11C340.12 141.86 369.98 173 386.29 169.88C404.95 161.87 420.86 148.59 432.07 131.67C432.13 131.58 432.2 131.5 432.28 131.44C432.37 131.38 432.47 131.34 432.57 131.32C432.67 131.3 432.78 131.29 432.88 131.31C432.98 131.33 433.08 131.37 433.16 131.43C433.34 131.54 433.46 131.72 433.51 131.93C433.55 132.13 433.52 132.35 433.4 132.52C421.96 149.75 405.73 163.25 386.71 171.36C385.81 171.54 384.91 171.64 384 171.66Z" fill="#30325B" fill-opacity="1.000000" fill-rule="nonzero"/>
	<path id="Vector" d="M388.08 75.7L393.68 74.53C393.68 74.53 394.98 84.02 391.82 83.15C388.65 82.28 388.08 75.7 388.08 75.7Z" fill="#FFFFFF" fill-opacity="1.000000" fill-rule="nonzero"/>
	<path id="Vector" d="M392.18 83.91C392 83.93 391.82 83.93 391.64 83.91C388.1 83.01 387.45 76.57 387.39 75.84C387.37 75.67 387.41 75.5 387.52 75.36C387.62 75.22 387.77 75.13 387.94 75.1L393.54 73.93C393.64 73.9 393.73 73.9 393.83 73.92C393.93 73.94 394.02 73.98 394.09 74.04C394.17 74.09 394.24 74.16 394.29 74.24C394.33 74.33 394.37 74.42 394.38 74.51C394.54 75.71 395.28 81.84 393.4 83.51C393.06 83.8 392.62 83.94 392.18 83.91ZM388.84 76.28C389.13 78.28 390.01 82.01 392.01 82.5C392.08 82.55 392.16 82.57 392.24 82.57C392.33 82.57 392.41 82.55 392.48 82.5C393.37 81.71 393.38 78.15 393.1 75.48L388.84 76.28Z" fill="#30325B" fill-opacity="1.000000" fill-rule="nonzero"/>
	<path id="Vector" d="M330.2 167.29C328.92 167.14 327.62 167.25 326.39 167.62C325.15 167.98 324 168.58 323 169.39C322.88 169.47 322.78 169.58 322.71 169.71C322.67 169.84 322.67 169.99 322.71 170.12C322.82 170.48 323.03 170.81 323.3 171.07C323.58 171.32 323.92 171.5 324.29 171.58C325.06 171.7 325.85 171.67 326.6 171.5L330.99 170.79C330.88 171.12 330.86 171.46 330.92 171.81C330.98 172.15 331.11 172.47 331.32 172.75C331.74 173.3 332.28 173.76 332.9 174.08C333.77 174.57 334.69 174.95 335.66 175.2L330.2 167.29Z" fill="#FFFFFF" fill-opacity="1.000000" fill-rule="nonzero"/>
	<path id="Vector" d="M335.66 175.98L335.45 175.98C334.42 175.71 333.42 175.3 332.49 174.77C331.77 174.39 331.14 173.85 330.66 173.19C330.35 172.76 330.15 172.26 330.09 171.73L326.73 172.29C325.87 172.46 324.98 172.46 324.12 172.29C323.59 172.19 323.09 171.94 322.69 171.57C322.29 171.2 322 170.73 321.86 170.2C321.76 169.91 321.76 169.6 321.86 169.31C321.97 169.05 322.15 168.83 322.38 168.66C323.47 167.79 324.72 167.13 326.06 166.74C327.4 166.35 328.81 166.23 330.2 166.39C330.31 166.38 330.43 166.4 330.54 166.45C330.65 166.49 330.74 166.56 330.82 166.65C330.9 166.73 330.96 166.83 331 166.94C331.03 167.06 331.04 167.17 331.03 167.29C331.02 167.4 330.98 167.52 330.92 167.62C330.86 167.71 330.77 167.8 330.68 167.86C330.58 167.93 330.47 167.97 330.35 167.99C330.24 168.01 330.12 168 330.01 167.97C328.83 167.84 327.65 167.94 326.51 168.27C325.38 168.6 324.32 169.15 323.41 169.9C323.5 170.1 323.64 170.27 323.82 170.41C324 170.54 324.2 170.63 324.42 170.66C325.09 170.74 325.77 170.71 326.43 170.56L330.81 169.85C330.95 169.83 331.1 169.84 331.23 169.89C331.37 169.94 331.49 170.02 331.57 170.14C331.66 170.25 331.72 170.38 331.74 170.52C331.77 170.66 331.75 170.81 331.7 170.94C331.65 171.15 331.64 171.37 331.68 171.58C331.72 171.79 331.81 171.99 331.94 172.16C332.29 172.61 332.74 172.98 333.25 173.24C334.05 173.7 334.92 174.05 335.81 174.28C336.02 174.34 336.2 174.48 336.31 174.66C336.42 174.85 336.45 175.07 336.4 175.28C336.38 175.46 336.29 175.63 336.15 175.76C336.02 175.89 335.84 175.96 335.66 175.98Z" fill="#30325B" fill-opacity="1.000000" fill-rule="nonzero"/>
	<path id="Vector" d="M392.62 341.43C392.62 341.43 394.21 351.75 392.86 352.41C391.52 353.08 349.85 355.93 351.2 350.5C351.92 347.56 361.67 341.24 374.82 335.51C378.79 342.13 389.54 340.82 392.62 341.43Z" fill="#30325B" fill-opacity="1.000000" fill-rule="nonzero"/>
	<path id="Vector" d="M368.59 354.55C358.87 354.55 353.02 353.79 351.18 352.27C350.88 352.06 350.64 351.75 350.51 351.4C350.38 351.05 350.35 350.67 350.44 350.31C351.4 346.45 363.59 339.55 374.52 334.79C374.7 334.71 374.9 334.7 375.08 334.76C375.26 334.81 375.42 334.94 375.52 335.1C378.41 339.94 385.23 340.23 389.76 340.42C390.82 340.42 391.88 340.5 392.92 340.66C393.08 340.69 393.22 340.78 393.33 340.89C393.44 341.01 393.52 341.16 393.54 341.32C395.23 352.22 393.79 352.9 393.34 353.13C392.37 353.59 382.08 354.3 373.7 354.49C371.8 354.52 370.14 354.55 368.59 354.55ZM374.5 336.51C361.1 342.41 352.53 348.33 351.94 350.75C351.94 350.75 351.94 350.9 352.08 351.05C355.77 354.49 389.46 352.43 392.42 351.78C392.84 350.83 392.51 346.26 391.93 342.19C391.33 342.19 390.52 342.1 389.63 342.07C385.25 341.81 378.02 341.51 374.5 336.51Z" fill="#30325B" fill-opacity="1.000000" fill-rule="nonzero"/>
	<path id="Vector" d="M433.42 343.05L434.51 354.93C438.78 357.86 475.18 363.63 471.92 358.82C468.66 354.01 451.57 341.04 451.57 341.04C448.99 342.94 445.95 344.13 442.76 344.48C439.58 344.83 436.35 344.34 433.42 343.05Z" fill="#30325B" fill-opacity="1.000000" fill-rule="nonzero"/>
	<path id="Vector" d="M466.9 361.42C456.82 361.42 436.95 357.56 434.07 355.58C433.97 355.52 433.88 355.43 433.82 355.33C433.76 355.23 433.73 355.11 433.72 354.99L432.63 343.13C432.61 342.99 432.63 342.85 432.69 342.73C432.74 342.6 432.83 342.49 432.94 342.41C433.05 342.33 433.18 342.28 433.32 342.26C433.45 342.24 433.59 342.26 433.72 342.32C436.53 343.57 439.62 344.06 442.68 343.73C445.73 343.39 448.65 342.26 451.13 340.44C451.26 340.32 451.44 340.26 451.62 340.26C451.8 340.26 451.97 340.32 452.11 340.44C452.8 340.97 469.32 353.55 472.68 358.41C472.9 358.71 473.01 359.07 473 359.44C472.98 359.81 472.83 360.16 472.58 360.44C471.74 361.12 469.7 361.42 466.9 361.42ZM435.25 354.46C440.57 357.43 469.64 361.39 471.36 359.2C468.41 354.99 454.35 344.09 451.57 341.96C449.08 343.67 446.21 344.76 443.21 345.15C440.21 345.53 437.16 345.19 434.32 344.15L435.25 354.46Z" fill="#30325B" fill-opacity="1.000000" fill-rule="nonzero"/>
	<path id="Vector" d="M150.75 182.61L242.25 182.61L242.25 261.22L150.75 261.22L150.75 182.61Z" fill="#FFFFFF" fill-opacity="1.000000" fill-rule="evenodd"/>
	<path id="Vector" d="M242.29 262.04L150.75 262.04C150.54 262.04 150.33 261.96 150.18 261.81C150.03 261.66 149.94 261.45 149.94 261.24L149.94 182.61C149.94 182.39 150.03 182.19 150.18 182.04C150.33 181.88 150.54 181.8 150.75 181.8L242.29 181.8C242.4 181.8 242.51 181.82 242.61 181.86C242.71 181.9 242.8 181.95 242.88 182.03C242.95 182.1 243.01 182.19 243.05 182.29C243.1 182.39 243.12 182.5 243.12 182.61L243.12 261.24C243.12 261.34 243.1 261.45 243.05 261.55C243.01 261.65 242.95 261.74 242.88 261.81C242.8 261.89 242.71 261.95 242.61 261.99C242.51 262.03 242.4 262.04 242.29 262.04ZM151.62 260.46L241.49 260.46L241.49 183.43L151.57 183.43L151.62 260.46Z" fill="#30325B" fill-opacity="1.000000" fill-rule="nonzero"/>
	<path id="Vector" d="M226.11 249.91L164 249.91C163.9 249.91 163.8 249.89 163.7 249.85C163.61 249.81 163.53 249.76 163.45 249.69C163.38 249.62 163.33 249.53 163.29 249.44C163.25 249.35 163.24 249.25 163.24 249.15L163.24 197.69C163.24 197.59 163.25 197.49 163.29 197.39C163.33 197.3 163.38 197.22 163.45 197.14C163.53 197.07 163.61 197.02 163.7 196.98C163.8 196.94 163.9 196.92 164 196.93C164.2 196.93 164.39 197.01 164.53 197.15C164.68 197.29 164.76 197.48 164.76 197.69L164.76 248.32L226.11 248.32C226.31 248.32 226.5 248.4 226.64 248.55C226.79 248.69 226.87 248.88 226.87 249.08C226.88 249.19 226.87 249.3 226.83 249.4C226.8 249.5 226.74 249.59 226.67 249.67C226.6 249.74 226.51 249.81 226.42 249.85C226.32 249.89 226.21 249.91 226.11 249.91Z" fill="#D1D3D4" fill-opacity="1.000000" fill-rule="nonzero"/>
	<path id="Vector" d="M169.93 245.47C169.81 245.47 169.7 245.44 169.6 245.39C169.49 245.34 169.4 245.27 169.33 245.17C169.21 245.01 169.16 244.81 169.18 244.62C169.21 244.42 169.31 244.24 169.47 244.11L222.61 203.29C222.77 203.17 222.97 203.11 223.17 203.14C223.37 203.17 223.55 203.27 223.67 203.43C223.79 203.59 223.84 203.79 223.82 203.99C223.79 204.18 223.7 204.36 223.54 204.49L170.39 245.32C170.26 245.42 170.1 245.47 169.93 245.47Z" fill="#D1D3D4" fill-opacity="1.000000" fill-rule="nonzero"/>
	<path id="Vector" d="M221.72 212.04L221.58 212.04C221.38 212 221.21 211.89 221.1 211.72C220.98 211.55 220.94 211.35 220.98 211.15L222.21 204.6L214.59 204.21C214.49 204.2 214.39 204.18 214.3 204.14C214.21 204.09 214.13 204.03 214.06 203.96C213.99 203.89 213.94 203.8 213.9 203.71C213.87 203.61 213.85 203.51 213.86 203.41C213.87 203.21 213.97 203.03 214.12 202.89C214.27 202.75 214.46 202.68 214.67 202.69L223.16 203.15C223.27 203.15 223.38 203.17 223.47 203.22C223.57 203.27 223.65 203.34 223.72 203.43C223.78 203.52 223.83 203.61 223.85 203.72C223.88 203.82 223.88 203.93 223.86 204.03L222.47 211.42C222.43 211.59 222.34 211.75 222.2 211.86C222.07 211.97 221.9 212.04 221.72 212.04Z" fill="#D1D3D4" fill-opacity="1.000000" fill-rule="nonzero"/>
</svg>
