<svg width="909.004944" height="815.262756" viewBox="0 0 909.005 815.263" fill="none" xmlns="http://www.w3.org/2000/svg" xmlns:xlink="http://www.w3.org/1999/xlink">
	<desc>
			Created with Pixso.
	</desc>
	<defs>
		<filter id="filter_33_505_dd" x="39.107498" y="0.000000" width="869.897461" height="750.617188" filterUnits="userSpaceOnUse" color-interpolation-filters="sRGB">
			<feFlood flood-opacity="0" result="BackgroundImageFix"/>
			<feBlend mode="normal" in="SourceGraphic" in2="BackgroundImageFix" result="shape"/>
			<feGaussianBlur stdDeviation="106.75" result="effect_layerBlur_1"/>
		</filter>
		<filter id="filter_33_504_dd" x="0.000000" y="64.645538" width="833.519592" height="750.617188" filterUnits="userSpaceOnUse" color-interpolation-filters="sRGB">
			<feFlood flood-opacity="0" result="BackgroundImageFix"/>
			<feBlend mode="normal" in="SourceGraphic" in2="BackgroundImageFix" result="shape"/>
			<feGaussianBlur stdDeviation="106.75" result="effect_layerBlur_1"/>
		</filter>
	</defs>
	<g filter="url(#filter_33_505_dd)">
		<path id="Ellipse 28" d="M573.37 347.78C605.03 374.11 586.24 407.78 531.39 422.98C476.54 438.18 406.4 429.16 374.74 402.83C343.07 376.5 361.86 342.83 416.71 327.63C471.56 312.43 541.7 321.45 573.37 347.78Z" fill="#FF5A57" fill-opacity="1.000000" fill-rule="evenodd"/>
	</g>
	<g filter="url(#filter_33_504_dd)">
		<path id="Ellipse 29" d="M500.32 412.42C526.97 438.75 511.15 472.42 465 487.62C418.85 502.83 359.84 493.8 333.19 467.47C306.54 441.14 322.36 407.48 368.51 392.28C414.66 377.07 473.68 386.1 500.32 412.42Z" fill="#9A2AEB" fill-opacity="1.000000" fill-rule="evenodd"/>
	</g>
</svg>
