<svg width="8" height="5" viewBox="0 0 8 5" fill="none" xmlns="http://www.w3.org/2000/svg">
<path d="M0.896358 0.930176H6.82861C6.93361 0.930198 7.03625 0.961352 7.12355 1.0197C7.21085 1.07805 7.27889 1.16097 7.31908 1.25798C7.35926 1.35499 7.36977 1.46174 7.34929 1.56473C7.32881 1.66772 7.27826 1.76232 7.20402 1.83658L4.2379 4.80271C4.13832 4.90225 4.00328 4.95817 3.86248 4.95817C3.72168 4.95817 3.58665 4.90225 3.48707 4.80271L0.520946 1.83658C0.446708 1.76232 0.396154 1.66772 0.375675 1.56473C0.355196 1.46174 0.365712 1.35499 0.405892 1.25798C0.446072 1.16097 0.514113 1.07805 0.601414 1.0197C0.688714 0.961352 0.791354 0.930198 0.896358 0.930176Z" fill="#16004D"/>
</svg>
