<svg width="115" height="96" viewBox="0 0 115 96" fill="none" xmlns="http://www.w3.org/2000/svg">
<path d="M0.0591511 33.7619C1.40493 32.3217 2.7661 30.8977 4.0965 29.4584L25.9657 5.95232C26.209 5.71407 26.5179 5.55404 26.8526 5.49278L47.4674 2.26155C52.055 1.60261 56.7802 0.791392 61.4601 0.0708194C61.7085 0.040523 61.9605 0.0716487 62.1941 0.161463L91.4339 10.7906C91.7019 10.8922 91.9426 11.0548 92.1371 11.2655C99.4377 19.5668 106.727 27.868 114.006 36.1692C114.162 36.3467 114.275 36.5579 114.336 36.7864C114.397 37.0149 114.404 37.2545 114.357 37.4862C113.761 42.7541 113.181 48.0229 112.584 53.2917C112.542 53.554 112.425 53.7985 112.248 53.9959C109.388 57.2281 106.498 60.4594 103.623 63.6942C103.379 63.986 103.211 64.3334 103.133 64.7057C102.552 67.7684 102.002 70.725 101.466 73.727C101.449 73.8778 101.386 74.0195 101.284 74.1322C101.183 74.2449 101.049 74.3228 100.901 74.3551C95.1083 76.4071 89.3242 78.49 83.5239 80.4813C83.3138 80.543 83.1237 80.6594 82.9732 80.8186C82.8226 80.9778 82.7169 81.1742 82.6668 81.3877C81.1382 85.9821 79.6087 90.5766 78.1706 95.0804C78.1241 95.2269 78.0678 95.3701 78.0023 95.5091C76.9018 94.1921 75.8456 92.9205 74.8057 91.6497C71.3702 87.484 67.9242 83.3231 64.4676 79.167C64.2477 78.8998 63.971 78.6852 63.6576 78.5389C58.5188 76.1189 53.3963 73.6681 48.2114 71.3405C46.8484 70.8303 45.4402 70.451 44.0057 70.2075C40.0145 69.2884 36.0233 68.4156 32.0466 67.4965C31.7691 67.3889 31.5371 67.1888 31.3895 66.93C29.4781 63.4858 27.5966 60.0415 25.6698 56.6072C25.4913 56.2989 25.2174 56.0571 24.8896 55.9184C19.2314 53.6313 13.568 51.3542 7.89945 49.087C7.71963 49.0244 7.55455 48.9255 7.41444 48.7964C7.27433 48.6673 7.16218 48.5108 7.08491 48.3365C4.84164 43.6838 2.58329 39.038 0.309852 34.3991C0.231966 34.2459 0.144916 34.0976 0.0491943 33.955L0.0591511 33.7619ZM100.246 71.8363C100.263 71.6709 100.309 71.5099 100.384 71.3613C100.827 68.9884 101.271 66.6137 101.684 64.2399C101.778 63.7242 102.017 63.2461 102.372 62.8613C104.88 60.0896 107.358 57.2861 109.85 54.499L110.248 54.0395L91.7126 52.5077L92.0031 50.9768L111.181 52.5077L112.709 38.1261L91.8194 49.92L91.223 48.5413L110.186 37.8207V37.6829L96.407 34.4517L96.7283 32.9199L112.527 36.8255L92.1253 13.4989C92.386 18.6299 92.6149 23.5597 92.8593 28.5239H91.3307L90.6121 14.0662H90.4899L79.663 30.3929L78.4087 29.5663L89.5568 12.8726L73.5839 16.7301L73.3124 15.1983L88.7586 11.5229V11.3852L63.3118 2.19628L68.266 12.6106L66.8903 13.1925L61.7371 2.47182L52.1483 18.9362L50.9581 17.9864L60.3632 1.75215L29.4256 6.59224L43.5713 18.6299L42.5622 19.7329L27.8798 7.25027V28.4306L26.3512 28.0934V7.95362H26.1521L2.60048 33.3468L21.9772 32.4404L22.237 33.9713L2.23575 34.9212L7.98633 46.7449L23.0035 35.1505L24.1502 36.162L9.08232 47.8054L9.28053 47.9586C14.2359 50.0003 19.2012 51.9965 24.1764 53.947C24.4178 54.0387 24.6844 54.0387 24.9258 53.947C25.858 53.5636 26.7766 53.1313 27.7088 52.7216L36.6858 48.7399L37.2514 50.0994L26.5458 54.8969L32.1742 65.3112L38.6434 51.527L40.0507 52.0481L33.3679 66.2919L46.1226 69.1715L41.6725 52.0336L43.0645 51.498L47.4684 68.131L57.6554 50.1185L58.955 50.8535L49.2567 68.0068L63.0964 63.6108L63.1869 65.1426L48.5254 69.7371L64.3988 77.1495L65.9283 69.1552L67.3048 69.844C66.8152 72.5088 66.3093 75.1282 65.7753 77.7468C65.738 78.0374 65.8088 78.3317 65.9744 78.5734C68.5333 81.6363 71.0818 84.7353 73.6201 87.8701L77.367 92.4646L77.5353 92.0966C78.7897 88.2674 80.0489 84.4437 81.3129 80.6254C81.3581 80.4922 81.3633 80.3487 81.3279 80.2126C81.2925 80.0765 81.2181 79.9537 81.1138 79.8595L76.7099 74.6931L72.2907 69.4706L73.4989 68.5978L73.8962 69.0582C76.6638 72.3049 79.4322 75.5515 82.1691 78.8145C82.2617 78.9693 82.4101 79.0827 82.5838 79.1311C82.7574 79.1795 82.943 79.1593 83.1022 79.0746C85.6869 78.1247 88.3016 77.2065 90.9017 76.2875L98.3492 73.5765L75.1804 66.1641L75.5479 64.7085L98.7167 72.1979C95.3979 66.397 92.1715 60.7412 88.9133 55.0899L90.2591 54.4011L100.246 71.8363Z" fill="white"/>
<path d="M61.9334 49.7351C60.778 49.7381 59.6476 49.3979 58.6852 48.7576C57.7228 48.1172 56.9716 47.2055 56.5266 46.1376C56.0817 45.0697 55.9629 43.8936 56.1853 42.7581C56.4078 41.6226 56.9614 40.5786 57.7763 39.7582C58.5911 38.9378 59.6306 38.3779 60.7632 38.1491C61.8959 37.9204 63.0708 38.0332 64.1394 38.4732C65.2081 38.9132 66.1224 39.6607 66.7669 40.6211C67.4113 41.5815 67.7569 42.7118 67.76 43.869V43.8844C67.7636 45.4317 67.1535 46.9172 66.0637 48.0142C64.974 49.1112 63.4939 49.7298 61.9488 49.7342L61.9334 49.7351Z" fill="white"/>
<path d="M47.6504 28.1096C46.7037 28.1064 45.7792 27.8221 44.9938 27.2927C44.2085 26.7632 43.5975 26.0124 43.2382 25.1353C42.8788 24.2581 42.7873 23.2939 42.9752 22.3646C43.163 21.4353 43.6218 20.5827 44.2935 19.9145C44.9653 19.2464 45.8197 18.7927 46.7489 18.6109C47.678 18.4291 48.6401 18.5273 49.5136 18.8932C50.387 19.259 51.1324 19.8759 51.6557 20.6661C52.179 21.4562 52.4566 22.384 52.4534 23.3321C52.4534 23.3575 52.4534 23.382 52.4534 23.4083C52.4329 24.6676 51.9169 25.868 51.0175 26.7483C50.1181 27.6287 48.908 28.1179 47.6504 28.1096Z" fill="white"/>
<path d="M73.8788 64.007C73.8787 64.9156 73.6094 65.8038 73.1052 66.5592C72.601 67.3147 71.8845 67.9034 71.0462 68.251C70.2079 68.5987 69.2855 68.6895 68.3957 68.5121C67.5058 68.3347 66.6885 67.8971 66.047 67.2545C65.4055 66.6119 64.9686 65.7933 64.7917 64.902C64.6148 64.0108 64.7056 63.0871 65.0529 62.2476C65.4002 61.4082 65.9882 60.6907 66.7426 60.1859C67.497 59.6811 68.3839 59.4116 69.2912 59.4116C69.8938 59.4116 70.4904 59.5305 71.047 59.7614C71.6037 59.9924 72.1094 60.3309 72.5355 60.7576C72.9615 61.1843 73.2994 61.6909 73.5299 62.2485C73.7604 62.806 73.879 63.4036 73.8788 64.007Z" fill="white"/>
<path d="M87.6722 53.8554C86.9061 53.8493 86.1737 53.5395 85.6352 52.9937C85.0968 52.4479 84.7962 51.7108 84.7992 50.9435C84.8023 50.1763 85.1087 49.4415 85.6515 48.9001C86.1943 48.3587 86.9292 48.0547 87.6953 48.0547C88.4614 48.0547 89.1963 48.3587 89.7391 48.9001C90.2818 49.4415 90.5883 50.1763 90.5914 50.9435C90.5944 51.7108 90.2938 52.4479 89.7553 52.9937C89.2169 53.5395 88.4844 53.8493 87.7184 53.8554H87.6722Z" fill="white"/>
<path d="M26.3169 35.2924C25.7428 35.2894 25.1825 35.1161 24.7066 34.7945C24.2308 34.4728 23.8607 34.0172 23.6431 33.4851C23.4255 32.9531 23.3701 32.3684 23.484 31.8048C23.5979 31.2413 23.8758 30.7242 24.2829 30.3187C24.6899 29.9132 25.2077 29.6375 25.771 29.5265C26.3343 29.4154 26.9178 29.474 27.4479 29.6947C27.978 29.9154 28.431 30.2884 28.7497 30.7667C29.0683 31.245 29.2384 31.8071 29.2384 32.382C29.2424 32.7602 29.1721 33.1354 29.0313 33.4864C28.8906 33.8373 28.6822 34.157 28.418 34.4273C28.1539 34.6975 27.8392 34.913 27.4919 35.0615C27.1446 35.2099 26.7715 35.2884 26.3939 35.2924H26.3169Z" fill="white"/>
<path d="M66.3551 16.7916C66.3435 16.0243 66.6366 15.2838 67.17 14.733C67.7034 14.1821 68.4335 13.8659 69.1996 13.854H69.2765C70.0423 13.8675 70.7722 14.1816 71.309 14.7288C71.8458 15.2759 72.1465 16.0123 72.1465 16.7793C72.1465 17.5464 71.8458 18.2828 71.309 18.8299C70.7722 19.377 70.0423 19.6912 69.2765 19.7047C68.5142 19.7168 67.7783 19.4252 67.2307 18.8941C66.683 18.3629 66.3684 17.6357 66.356 16.8722C66.3548 16.8438 66.3545 16.817 66.3551 16.7916Z" fill="white"/>
<path d="M79.5833 33.5154C79.6077 34.0967 79.4594 34.6721 79.1572 35.169C78.855 35.6658 78.4125 36.0618 77.8856 36.3067C77.3587 36.5517 76.7711 36.6346 76.1971 36.5451C75.6231 36.4555 75.0885 36.1975 74.661 35.8037C74.2334 35.4099 73.9321 34.8979 73.7951 34.3325C73.6581 33.7672 73.6916 33.1738 73.8914 32.6275C74.0911 32.0813 74.4481 31.6066 74.9173 31.2635C75.3865 30.9204 75.9466 30.7244 76.527 30.7002C76.5723 30.7002 76.6176 30.7002 76.6619 30.7002C77.419 30.696 78.1479 30.9879 78.6935 31.5136C79.2391 32.0394 79.5584 32.7576 79.5833 33.5154Z" fill="white"/>
<path d="M37.9407 47.7899C37.9245 47.0264 38.2117 46.2878 38.7392 45.7364C39.2667 45.185 39.9912 44.866 40.7536 44.8496H40.8314C41.606 44.8498 42.3489 45.1582 42.8966 45.7069C43.4443 46.2555 43.7519 46.9996 43.7519 47.7754V47.7908C43.7519 48.5626 43.4458 49.3027 42.9009 49.8485C42.356 50.3942 41.6169 50.7008 40.8463 50.7008C40.0757 50.7008 39.3367 50.3942 38.7918 49.8485C38.2468 49.3027 37.9407 48.5626 37.9407 47.7908V47.7899Z" fill="white"/>
<path d="M92.3073 29.9014C93.0713 29.9034 93.8034 30.2091 94.3426 30.7512C94.8817 31.2934 95.184 32.0277 95.183 32.7929C95.182 33.5581 94.8777 34.2917 94.3371 34.8324C93.7965 35.3731 93.0636 35.6768 92.2996 35.6768C91.5355 35.6768 90.8027 35.3731 90.262 34.8324C89.7214 34.2917 89.4172 33.5581 89.4161 32.7929C89.4151 32.0277 89.7174 31.2934 90.2566 30.7512C90.7958 30.2091 91.5278 29.9034 92.2919 29.9014H92.3073Z" fill="white"/>
<path d="M67.3491 20.6809L68.7709 21.0942C67.3491 26.3322 66.0033 31.5548 64.596 36.8236L63.1742 36.4556L67.3491 20.6809Z" fill="white"/>
<path d="M83.3304 50.9603L68.8789 46.8099L69.307 45.386L83.5449 49.4756L83.3304 50.9603Z" fill="white"/>
<path d="M43.1396 44.1146L41.7631 43.5481L46.0167 29.366L47.5462 29.5799L43.1396 44.1146Z" fill="white"/>
<path d="M30.6465 32.2289L30.2944 30.6972L41.9015 25.7202L42.6807 27.0218L30.6465 32.2289Z" fill="white"/>
<path d="M29.1162 35.7985L30.0945 34.6492L38.8571 43.9459L37.6678 44.8831L29.1162 35.7985Z" fill="white"/>
<path d="M83.7888 52.8293L84.6604 54.0539L74.2616 60.1801L73.1602 59.0779L83.7888 52.8293Z" fill="white"/>
<path d="M53.9068 22.5799L53.5856 21.1297L64.9175 16.9177L65.2387 18.4495L53.9068 22.5799Z" fill="white"/>
<path d="M78.2068 37.605L79.4738 36.8391L85.8208 47.0087L84.5972 47.8815L78.2068 37.605Z" fill="white"/>
<path d="M50.8477 28.7069L52.0405 27.8005L58.3259 37.2342L57.087 38.0771L50.8477 28.7069Z" fill="white"/>
<path d="M90.5798 36.8198L92.017 37.2023C91.1916 40.4952 90.3807 43.7727 89.5553 47.0819L88.1172 46.6531L90.5798 36.8198Z" fill="white"/>
<path d="M75.7591 29.3044L74.3681 29.8863L70.9117 20.8043L72.196 19.9768L75.7591 29.3044Z" fill="white"/>
<path d="M44.9001 46.2582L54.3822 44.4817L54.6727 46.0126L45.1717 47.7293L44.9001 46.2582Z" fill="white"/>
<path d="M67.2099 58.1125L65.8641 58.786L63.4784 51.3265L64.8857 50.8669L67.2099 58.1125Z" fill="white"/>
<path d="M72.7014 35.293L73.5268 36.5492L68.312 39.8883L67.3481 38.6629L72.7014 35.293Z" fill="white"/>
</svg>
