<svg width="23.184692" height="23.185547" viewBox="0 0 23.1847 23.1855" fill="none" xmlns="http://www.w3.org/2000/svg" xmlns:xlink="http://www.w3.org/1999/xlink">
	<desc>
			Created with Pixso.
	</desc>
	<defs/>
	<path id="Vector (Border)" d="M0.27 9.04C0.09 9.87 0 10.72 0 11.59C0 12.46 0.09 13.31 0.27 14.14C0.42 14.8 0.63 15.46 0.91 16.1C1.18 16.75 1.51 17.37 1.89 17.95C2.32 18.6 2.82 19.22 3.39 19.78C3.96 20.35 4.57 20.85 5.23 21.28C5.81 21.66 6.42 21.99 7.07 22.27C7.72 22.54 8.37 22.75 9.04 22.9C9.87 23.09 10.72 23.18 11.59 23.18C12.46 23.18 13.31 23.09 14.14 22.9C14.8 22.75 15.46 22.54 16.1 22.27C16.75 21.99 17.37 21.66 17.95 21.28C18.61 20.85 19.22 20.35 19.78 19.78C20.35 19.22 20.85 18.6 21.28 17.95C21.66 17.37 21.99 16.75 22.27 16.1C22.54 15.46 22.75 14.8 22.9 14.13C23.09 13.31 23.18 12.46 23.18 11.59C23.18 10.72 23.09 9.87 22.9 9.04C22.75 8.37 22.54 7.72 22.27 7.08C21.99 6.42 21.66 5.81 21.28 5.23C20.85 4.57 20.35 3.96 19.78 3.39C19.22 2.82 18.6 2.32 17.95 1.89C17.37 1.51 16.75 1.18 16.1 0.91C15.46 0.64 14.8 0.42 14.13 0.27C13.31 0.09 12.46 0 11.59 0C10.72 0 9.87 0.09 9.04 0.27C8.37 0.42 7.72 0.64 7.07 0.91C6.42 1.18 5.81 1.51 5.23 1.89C4.57 2.32 3.96 2.82 3.39 3.39C2.82 3.96 2.32 4.57 1.89 5.23C1.51 5.81 1.18 6.42 0.91 7.08C0.63 7.72 0.42 8.37 0.27 9.04ZM0.48 14.09C0.3 13.28 0.21 12.44 0.21 11.59C0.21 10.73 0.3 9.9 0.48 9.08C0.63 8.43 0.84 7.79 1.1 7.16C1.37 6.52 1.69 5.91 2.07 5.34C2.49 4.7 2.98 4.1 3.54 3.54C4.1 2.98 4.7 2.49 5.35 2.07C5.92 1.69 6.52 1.37 7.16 1.1C7.79 0.84 8.43 0.63 9.08 0.48C9.9 0.3 10.73 0.21 11.59 0.21C12.44 0.21 13.28 0.3 14.09 0.48C14.75 0.63 15.39 0.84 16.02 1.1C16.66 1.37 17.26 1.69 17.83 2.07C18.47 2.49 19.08 2.98 19.63 3.54C20.19 4.1 20.68 4.7 21.11 5.34C21.48 5.91 21.8 6.52 22.07 7.16C22.34 7.79 22.54 8.43 22.69 9.08C22.88 9.9 22.97 10.73 22.97 11.59C22.97 12.44 22.88 13.28 22.69 14.09C22.55 14.75 22.34 15.39 22.07 16.02C21.8 16.66 21.48 17.26 21.11 17.83C20.68 18.48 20.19 19.08 19.63 19.63C19.08 20.19 18.47 20.68 17.83 21.11C17.26 21.48 16.66 21.8 16.02 22.07C15.39 22.34 14.75 22.55 14.09 22.69C13.28 22.88 12.44 22.97 11.59 22.97C10.73 22.97 9.9 22.88 9.08 22.69C8.43 22.55 7.79 22.34 7.16 22.07C6.52 21.8 5.91 21.48 5.34 21.11C4.7 20.68 4.1 20.19 3.54 19.63C2.98 19.08 2.49 18.48 2.07 17.83C1.69 17.26 1.37 16.66 1.1 16.02C0.84 15.39 0.63 14.75 0.48 14.09Z" fill="#0D0622" fill-opacity="1.000000" fill-rule="evenodd"/>
	<path id="Vector" d="M10.03 17.74L12.51 17.74L12.51 11.53L14.24 11.53L14.43 9.45L12.51 9.45L12.51 8.27C12.51 7.78 12.61 7.59 13.09 7.59L14.43 7.59L14.43 5.43L12.71 5.43C10.87 5.43 10.03 6.25 10.03 7.8L10.03 9.46L8.74 9.46L8.74 11.57L10.03 11.57L10.03 17.75L10.03 17.74Z" fill="#0D0622" fill-opacity="1.000000" fill-rule="nonzero"/>
</svg>
