<svg width="24" height="24" viewBox="0 0 24 24" fill="none" xmlns="http://www.w3.org/2000/svg">
<path fill-rule="evenodd" clip-rule="evenodd" d="M11.9325 0.511929C5.64748 0.511929 0.552822 5.60659 0.552822 11.8916C0.552822 18.1462 5.59016 23.2187 11.8262 23.2758V23.2713H11.9325C18.2176 23.2713 23.3122 18.1767 23.3122 11.8916C23.3122 5.60659 18.2176 0.511929 11.9325 0.511929ZM12.0388 23.4835C18.3923 23.4264 23.5248 18.2586 23.5248 11.8916C23.5248 5.48917 18.335 0.299316 11.9325 0.299316C5.53006 0.299316 0.34021 5.48917 0.34021 11.8916C0.34021 18.299 5.53003 23.4889 11.9325 23.4889H12.0388V23.4835Z" fill="#0D0622"/>
<path d="M11.9327 7.31769C13.4259 7.31769 13.5989 7.32264 14.1873 7.3523C14.7312 7.37703 15.0279 7.46603 15.2257 7.54514C15.4877 7.64403 15.6707 7.76764 15.8685 7.96048C16.0662 8.15825 16.1849 8.3412 16.2838 8.60325C16.358 8.80103 16.4519 9.0977 16.4766 9.64159C16.5013 10.23 16.5112 10.408 16.5112 11.8963C16.5112 13.3846 16.5063 13.5626 16.4766 14.151C16.4519 14.6948 16.3629 14.9915 16.2838 15.1893C16.1849 15.4513 16.0613 15.6343 15.8685 15.8321C15.6756 16.0299 15.4877 16.1485 15.2257 16.2474C15.0279 16.3216 14.7312 16.4155 14.1873 16.4402C13.5989 16.465 13.4209 16.4749 11.9327 16.4749C10.4444 16.4749 10.2664 16.4699 9.67797 16.4402C9.13408 16.4155 8.83741 16.3265 8.63963 16.2474C8.37758 16.1485 8.19463 16.0249 7.99685 15.8321C7.79907 15.6343 7.68041 15.4513 7.58152 15.1893C7.50735 14.9915 7.4134 14.6948 7.38868 14.151C7.36396 13.5626 7.35407 13.3846 7.35407 11.8963C7.35407 10.408 7.35901 10.23 7.38868 9.64159C7.4134 9.0977 7.5024 8.80103 7.58152 8.60325C7.68041 8.3412 7.80402 8.15825 7.99685 7.96048C8.19463 7.7627 8.37758 7.64403 8.63963 7.54514C8.83741 7.47097 9.13408 7.37703 9.67797 7.3523C10.2664 7.32758 10.4444 7.31769 11.9327 7.31769ZM11.9327 6.31396C10.4147 6.31396 10.2268 6.31891 9.62853 6.34858C9.03519 6.3733 8.62974 6.47219 8.27374 6.61063C7.90785 6.75402 7.59635 6.94191 7.28485 7.25342C6.97335 7.56492 6.78546 7.87642 6.64207 8.24231C6.50362 8.59831 6.40968 9.00376 6.38495 9.59709C6.35529 10.1904 6.35034 10.3833 6.35034 11.9012C6.35034 13.4192 6.35529 13.6071 6.38495 14.2053C6.40968 14.7987 6.50857 15.2041 6.64207 15.5601C6.78546 15.926 6.97335 16.2375 7.28485 16.549C7.59635 16.8605 7.90785 17.0484 8.27374 17.1918C8.62974 17.3303 9.03519 17.4242 9.62853 17.4539C10.2219 17.4786 10.4147 17.4885 11.9327 17.4885C13.4506 17.4885 13.6385 17.4835 14.2368 17.4539C14.8301 17.4291 15.2356 17.3303 15.5916 17.1918C15.9575 17.0484 16.269 16.8605 16.5805 16.549C16.892 16.2375 17.0799 15.926 17.2232 15.5601C17.3617 15.2041 17.4556 14.7987 17.4804 14.2053C17.5051 13.612 17.515 13.4192 17.515 11.9012C17.515 10.3833 17.51 10.1954 17.4804 9.59709C17.4556 9.00376 17.3567 8.59831 17.2232 8.24231C17.0799 7.87642 16.892 7.56492 16.5805 7.25342C16.269 6.94191 15.9575 6.75402 15.5916 6.61063C15.2356 6.47219 14.8301 6.37824 14.2368 6.34858C13.6434 6.32385 13.4506 6.31396 11.9327 6.31396Z" fill="#0D0622"/>
<path d="M11.9326 9.02881C10.3504 9.02881 9.06482 10.3144 9.06482 11.8966C9.06482 13.4788 10.3504 14.7644 11.9326 14.7644C13.5148 14.7644 14.8004 13.4788 14.8004 11.8966C14.8004 10.3144 13.5148 9.02881 11.9326 9.02881ZM11.9326 13.7557C10.9042 13.7557 10.0735 12.9201 10.0735 11.8966C10.0735 10.8731 10.9091 10.0375 11.9326 10.0375C12.9561 10.0375 13.7917 10.8731 13.7917 11.8966C13.7917 12.9201 12.9561 13.7557 11.9326 13.7557Z" fill="#0D0622"/>
<path d="M15.5823 8.91556C15.5823 9.28664 15.2805 9.58845 14.9095 9.58845C14.5384 9.58845 14.2366 9.28664 14.2366 8.91556C14.2366 8.54449 14.5384 8.24268 14.9095 8.24268C15.2805 8.24268 15.5823 8.54449 15.5823 8.91556Z" fill="#0D0622"/>
</svg>
