<svg width="24" height="24" viewBox="0 0 24 24" fill="none" xmlns="http://www.w3.org/2000/svg">
<path fill-rule="evenodd" clip-rule="evenodd" d="M11.8782 0.511929C5.59316 0.511929 0.498501 5.60659 0.498501 11.8916C0.498501 18.1767 5.59316 23.2713 11.8782 23.2713C18.1633 23.2713 23.2579 18.1767 23.2579 11.8916C23.2579 5.60659 18.1633 0.511929 11.8782 0.511929ZM0.285889 11.8916C0.285889 5.48916 5.47574 0.299316 11.8782 0.299316C18.2807 0.299316 23.4705 5.48916 23.4705 11.8916C23.4705 18.2941 18.2807 23.4839 11.8782 23.4839C5.47574 23.4839 0.285889 18.2941 0.285889 11.8916Z" fill="#0D0622"/>
<path d="M9.20059 9.5249H7.09424V16.3334H9.20059V9.5249Z" fill="#0D0622"/>
<path d="M8.13725 8.63435C8.82453 8.63435 9.38325 8.07068 9.38325 7.37845C9.38325 6.68623 8.82453 6.12256 8.13725 6.12256C7.44997 6.12256 6.89124 6.68623 6.89124 7.37845C6.89124 8.07068 7.44997 8.63435 8.13725 8.63435Z" fill="#0D0622"/>
<path d="M12.5725 12.7631C12.5725 11.8039 13.0125 11.2353 13.858 11.2353C14.6343 11.2353 15.0051 11.7841 15.0051 12.7631V16.338H17.1016V12.0264C17.1016 10.2019 16.0682 9.32178 14.6244 9.32178C13.1806 9.32178 12.5725 10.4491 12.5725 10.4491V9.52945H10.5502V16.338H12.5725V12.7631Z" fill="#0D0622"/>
</svg>
