<svg width="124" height="88" viewBox="0 0 124 88" fill="none" xmlns="http://www.w3.org/2000/svg">
<path d="M92.921 29.5404L86.1227 21.7668L87.07 11.4857L77.0117 9.20103L71.7458 0.285156L62.2727 4.35302L52.7996 0.285156L47.5336 9.17317L37.4754 11.43L38.4227 21.739L31.6244 29.5404L38.4227 37.3139L37.4754 47.6229L47.5336 49.9075L52.7996 58.7956L62.2727 54.6998L71.7458 58.7677L77.0117 49.8797L87.07 47.595L86.1227 37.3139L92.921 29.5404ZM56.951 42.6913L46.3634 32.0758L50.487 27.9522L56.951 34.4441L73.2504 18.089L77.374 22.2126L56.951 42.6913Z" fill="white"/>
<path d="M123.96 87.6182H120.324V80.4002L117.642 87.6182H116.022L113.34 80.4002V87.6182H109.704V75.6122H114.726L116.832 81.3722L118.938 75.6122H123.96V87.6182Z" fill="white"/>
<path d="M106.273 86.4302C105.277 87.3662 103.801 87.8342 101.845 87.8342C99.8892 87.8342 98.4072 87.3662 97.3992 86.4302C96.4032 85.4822 95.9052 84.2342 95.9052 82.6862V75.6122H99.5952V82.5602C99.5952 83.1602 99.7872 83.6582 100.171 84.0542C100.567 84.4382 101.125 84.6302 101.845 84.6302C102.553 84.6302 103.099 84.4382 103.483 84.0542C103.879 83.6582 104.077 83.1602 104.077 82.5602V75.6122H107.767V82.6682C107.767 84.2282 107.269 85.4822 106.273 86.4302Z" fill="white"/>
<path d="M89.5281 87.8341C87.2241 87.8341 85.3641 87.1981 83.9481 85.9261L85.8381 83.2261C86.9181 84.2581 88.2081 84.7741 89.7081 84.7741C90.5961 84.7741 91.0401 84.5581 91.0401 84.1261C91.0401 83.9221 90.8061 83.7661 90.3381 83.6581C89.8821 83.5501 89.3241 83.4361 88.6641 83.3161C88.0161 83.1961 87.3621 83.0221 86.7021 82.7941C86.0541 82.5661 85.4961 82.1641 85.0281 81.5881C84.5721 81.0121 84.3441 80.2861 84.3441 79.4101C84.3441 78.3181 84.7821 77.3821 85.6581 76.6021C86.5461 75.8221 87.7701 75.4321 89.3301 75.4321C91.3581 75.4321 93.0561 75.9901 94.4241 77.1061L92.4801 79.6801C91.4361 78.8881 90.2601 78.4921 88.9521 78.4921C88.3401 78.4921 88.0341 78.6721 88.0341 79.0321C88.0341 79.2001 88.1961 79.3441 88.5201 79.4641C88.8561 79.5841 89.2701 79.6801 89.7621 79.7521C90.2541 79.8121 90.7881 79.9321 91.3641 80.1121C91.9521 80.2801 92.4921 80.4841 92.9841 80.7241C93.4761 80.9641 93.8841 81.3421 94.2081 81.8581C94.5441 82.3621 94.7121 82.9621 94.7121 83.6581C94.7121 84.9781 94.2501 86.0041 93.3261 86.7361C92.4141 87.4681 91.1481 87.8341 89.5281 87.8341Z" fill="white"/>
<path d="M76.5841 87.6182H72.9481V75.6122H79.3561C80.7121 75.6122 81.7681 76.0082 82.5241 76.8002C83.2921 77.5802 83.6761 78.5582 83.6761 79.7342C83.6761 80.8982 83.2921 81.8762 82.5241 82.6682C81.7681 83.4482 80.7121 83.8382 79.3561 83.8382H76.5841V87.6182ZM78.8881 80.6702C79.2121 80.6702 79.4761 80.5922 79.6801 80.4362C79.8841 80.2682 79.9861 80.0342 79.9861 79.7342C79.9861 79.4222 79.8841 79.1882 79.6801 79.0322C79.4761 78.8642 79.2121 78.7802 78.8881 78.7802H76.5841V80.6702H78.8881Z" fill="white"/>
<path d="M71.0119 87.6182H67.3759V75.6122H71.0119V87.6182Z" fill="white"/>
<path d="M60.8369 87.6182H57.2009V80.4002L54.5189 87.6182H52.8989L50.2169 80.4002V87.6182H46.5809V75.6122H51.6029L53.7089 81.3722L55.8149 75.6122H60.8369V87.6182Z" fill="white"/>
<path d="M44.9663 87.6182H35.8583V75.6122H44.9663V78.7802H39.4943V79.9682H44.8403V83.1362H39.4943V84.4502H44.9663V87.6182Z" fill="white"/>
<path d="M34.4051 87.6182H30.2651L28.6091 83.8382H27.2951V87.6182H23.6591V75.6122H30.0671C31.4231 75.6122 32.4791 76.0082 33.2351 76.8002C34.0031 77.5802 34.3871 78.5582 34.3871 79.7342C34.3871 80.6702 34.1711 81.4382 33.7391 82.0382C33.3191 82.6382 32.8151 83.0822 32.2271 83.3702L34.4051 87.6182ZM29.5091 80.6702C29.8451 80.6702 30.1271 80.5922 30.3551 80.4362C30.5831 80.2682 30.6971 80.0282 30.6971 79.7162C30.6971 79.4162 30.5831 79.1882 30.3551 79.0322C30.1271 78.8642 29.8451 78.7802 29.5091 78.7802H27.2951V80.6702H29.5091Z" fill="white"/>
<path d="M20.4799 86.1062C19.2319 87.2582 17.6719 87.8342 15.7999 87.8342C13.9279 87.8342 12.3619 87.2582 11.1019 86.1062C9.85386 84.9422 9.22986 83.4482 9.22986 81.6242C9.22986 79.8002 9.85386 78.3122 11.1019 77.1602C12.3619 75.9962 13.9279 75.4142 15.7999 75.4142C17.6719 75.4142 19.2319 75.9962 20.4799 77.1602C21.7399 78.3122 22.3699 79.8002 22.3699 81.6242C22.3699 83.4482 21.7399 84.9422 20.4799 86.1062ZM13.7119 83.7662C14.2519 84.3422 14.9479 84.6302 15.7999 84.6302C16.6519 84.6302 17.3419 84.3422 17.8699 83.7662C18.4099 83.1902 18.6799 82.4762 18.6799 81.6242C18.6799 80.7722 18.4099 80.0582 17.8699 79.4822C17.3419 78.9062 16.6519 78.6182 15.7999 78.6182C14.9479 78.6182 14.2519 78.9062 13.7119 79.4822C13.1839 80.0582 12.9199 80.7722 12.9199 81.6242C12.9199 82.4762 13.1839 83.1902 13.7119 83.7662Z" fill="white"/>
<path d="M8.76898 87.6182H0.578979V75.6122H4.21498V84.4502H8.76898V87.6182Z" fill="white"/>
</svg>
