<svg width="66" height="66" viewBox="0 0 66 66" fill="none" xmlns="http://www.w3.org/2000/svg">
<path d="M60.6167 33.03C60.6167 48.3559 48.1926 60.78 32.8667 60.78C17.5408 60.78 5.1167 48.3559 5.1167 33.03C5.1167 17.7041 17.5408 5.28003 32.8667 5.28003C48.1926 5.28003 60.6167 17.7041 60.6167 33.03Z" fill="#FF5A57"/>
<path d="M65.618 33.0299C65.618 51.1179 50.9548 65.7811 32.8668 65.7811C14.7788 65.7811 0.115601 51.1179 0.115601 33.0299C0.115601 14.9419 14.7788 0.278687 32.8668 0.278687C50.9548 0.278687 65.618 14.9419 65.618 33.0299Z" fill="#FF5A57" fill-opacity="0.15"/>
<path d="M38.8667 33.03L29.8667 38.2262L29.8667 27.8339L38.8667 33.03Z" fill="white"/>
</svg>
