<svg width="25" height="25" viewBox="0 0 25 25" fill="none" xmlns="http://www.w3.org/2000/svg">
<path d="M23.9231 23.2326L17.959 17.2685C19.5843 15.2808 20.3834 12.7444 20.191 10.1839C19.9987 7.6235 18.8295 5.23496 16.9255 3.51237C15.0214 1.78977 12.5281 0.864915 9.96124 0.929094C7.3944 0.993273 4.95042 2.04158 3.13483 3.85718C1.31923 5.67277 0.270922 8.11676 0.206743 10.6836C0.142564 13.2504 1.06742 15.7438 2.79002 17.6478C4.51261 19.5519 6.90115 20.721 9.46158 20.9134C12.022 21.1058 14.5584 20.3067 16.5462 18.6814L22.5103 24.6455C22.6987 24.8275 22.9511 24.9282 23.2131 24.9259C23.4751 24.9236 23.7257 24.8186 23.911 24.6333C24.0962 24.4481 24.2013 24.1974 24.2036 23.9355C24.2059 23.6735 24.1051 23.4211 23.9231 23.2326ZM10.2274 18.9432C8.64643 18.9432 7.10099 18.4744 5.78647 17.596C4.47196 16.7177 3.44742 15.4693 2.84242 14.0087C2.23741 12.5481 2.07912 10.9409 2.38754 9.39029C2.69597 7.83972 3.45727 6.41543 4.57518 5.29753C5.69308 4.17962 7.11737 3.41832 8.66794 3.1099C10.2185 2.80147 11.8257 2.95976 13.2863 3.56477C14.7469 4.16977 15.9954 5.19431 16.8737 6.50882C17.752 7.82334 18.2208 9.36878 18.2208 10.9497C18.2184 13.069 17.3755 15.1008 15.877 16.5993C14.3784 18.0979 12.3466 18.9408 10.2274 18.9432Z" fill="#30325B"/>
</svg>
