<svg width="24" height="24" viewBox="0 0 24 24" fill="none" xmlns="http://www.w3.org/2000/svg">
<path fill-rule="evenodd" clip-rule="evenodd" d="M12.4054 0.511929C6.12039 0.511929 1.02572 5.60659 1.02572 11.8916C1.02572 18.1767 6.12039 23.2713 12.4054 23.2713C18.6905 23.2713 23.7851 18.1767 23.7851 11.8916C23.7851 5.60659 18.6905 0.511929 12.4054 0.511929ZM0.81311 11.8916C0.81311 5.48916 6.00296 0.299316 12.4054 0.299316C18.8079 0.299316 23.9977 5.48916 23.9977 11.8916C23.9977 18.2941 18.8079 23.4839 12.4054 23.4839C6.00296 23.4839 0.81311 18.2941 0.81311 11.8916Z" fill="#0D0622"/>
<path d="M6.98151 15.7631C7.96546 16.396 9.1373 16.7619 10.3932 16.7619C14.5268 16.7619 16.8606 13.2711 16.7221 10.1363C17.1572 9.82476 17.533 9.4292 17.8346 8.9842C17.4341 9.1622 17.004 9.28087 16.554 9.33526C17.0138 9.05837 17.3649 8.62326 17.533 8.10409C17.1028 8.3612 16.6282 8.54415 16.1189 8.64304C15.7134 8.20792 15.1349 7.94092 14.4922 7.94092C13.0533 7.94092 12.0002 9.28087 12.3215 10.6752C10.4723 10.5813 8.83074 9.69621 7.73307 8.34637C7.14962 9.34515 7.43145 10.6554 8.42035 11.318C8.05446 11.3081 7.71329 11.2043 7.41168 11.0411C7.38696 12.0745 8.12863 13.0387 9.19663 13.2513C8.88513 13.3353 8.53902 13.3551 8.19291 13.2908C8.47474 14.1759 9.30046 14.8187 10.2745 14.8385C9.34002 15.5702 8.15829 15.9015 6.97656 15.7581L6.98151 15.7631Z" fill="#0D0622"/>
</svg>
