<svg width="224.860352" height="157.720703" viewBox="0 0 224.86 157.721" fill="none" xmlns="http://www.w3.org/2000/svg" xmlns:xlink="http://www.w3.org/1999/xlink">
	<desc>
			Created with Pixso.
	</desc>
	<defs/>
	<path id="Vector" d="M190.9 68.47L190.9 157.35L26.8 157.35L26.8 68.47L108.85 18.86L190.9 68.47Z" fill="#F1F2F2" fill-opacity="1.000000" fill-rule="nonzero"/>
	<path id="Vector" d="M190.9 157.71L26.78 157.71C26.68 157.71 26.59 157.67 26.52 157.61C26.45 157.54 26.41 157.44 26.41 157.35L26.41 68.47C26.41 68.41 26.43 68.34 26.46 68.29C26.49 68.23 26.54 68.19 26.59 68.15L108.68 18.54C108.74 18.51 108.81 18.49 108.88 18.49C108.94 18.49 109.01 18.51 109.07 18.54L191.11 68.15C191.17 68.19 191.21 68.23 191.24 68.29C191.27 68.34 191.29 68.41 191.29 68.47L191.29 157.35C191.29 157.39 191.28 157.45 191.26 157.49C191.24 157.54 191.21 157.58 191.17 157.61C191.14 157.65 191.09 157.67 191.05 157.69C191 157.71 190.95 157.72 190.9 157.71ZM27.17 156.98L190.55 156.98L190.55 68.66L108.86 19.27L27.17 68.66L27.17 156.98Z" fill="#30325B" fill-opacity="1.000000" fill-rule="nonzero"/>
	<path id="Vector" d="M144.49 31.47C144.49 31.47 148.28 24.39 147.78 19.69C147.29 15 142.63 14.16 142.63 14.16C142.63 14.16 131.39 8.31 128.79 4.25L128.88 10.18C126.84 9.48 124.95 8.38 123.34 6.95C123.34 6.95 121.58 9.98 123.48 12.67C123.48 12.67 120.16 13.32 117.99 11.12C117.99 11.12 119.1 20.03 126.95 21.18C132.12 21.9 138.86 31.81 144.49 31.47Z" fill="#FFFFFF" fill-opacity="1.000000" fill-rule="nonzero"/>
	<path id="Vector" d="M144.2 31.84C141.1 31.84 137.76 29.05 134.54 26.34C131.77 24.03 129.17 21.83 126.91 21.51C118.88 20.33 117.65 11.21 117.63 11.13C117.63 11.06 117.64 10.98 117.68 10.91C117.71 10.85 117.77 10.79 117.84 10.76C117.91 10.73 117.99 10.72 118.06 10.73C118.14 10.74 118.21 10.78 118.26 10.83C118.88 11.38 119.61 11.8 120.41 12.05C121.2 12.31 122.04 12.39 122.87 12.3C121.39 9.6 122.96 6.82 123.04 6.7C123.06 6.65 123.1 6.61 123.14 6.58C123.18 6.55 123.23 6.53 123.29 6.52C123.34 6.51 123.39 6.51 123.45 6.52C123.5 6.54 123.55 6.56 123.59 6.6C125.06 7.86 126.72 8.87 128.52 9.6L128.44 4.19C128.43 4.11 128.46 4.04 128.5 3.97C128.55 3.91 128.62 3.86 128.69 3.84C128.77 3.81 128.85 3.82 128.93 3.84C129 3.87 129.07 3.92 129.11 3.99C131.56 7.78 141.99 13.33 142.77 13.74C143.34 13.86 147.66 14.94 148.15 19.62C148.65 24.42 144.97 31.36 144.81 31.65C144.78 31.71 144.74 31.75 144.69 31.79C144.63 31.82 144.57 31.84 144.51 31.84L144.2 31.84ZM118.56 12.03C119.12 14.33 121.08 19.91 127.02 20.78C129.47 21.14 132.18 23.39 135.01 25.78C138.14 28.4 141.36 31.11 144.2 31.11L144.26 31.11C144.84 29.97 147.85 23.84 147.42 19.69C146.96 15.28 142.76 14.54 142.58 14.48L142.48 14.44C142.05 14.22 132.65 9.29 129.19 5.33L129.26 10.14C129.26 10.2 129.25 10.25 129.23 10.3C129.2 10.35 129.17 10.4 129.12 10.43C129.08 10.47 129.02 10.49 128.97 10.5C128.91 10.52 128.85 10.51 128.8 10.5C126.85 9.83 125.05 8.81 123.48 7.47C123.11 8.25 122.94 9.11 122.99 9.97C123.04 10.84 123.32 11.67 123.79 12.4C123.83 12.45 123.85 12.51 123.85 12.57C123.86 12.63 123.85 12.69 123.83 12.75C123.81 12.81 123.77 12.86 123.72 12.9C123.67 12.93 123.62 12.96 123.56 12.97C121.83 13.27 120.06 12.94 118.56 12.03Z" fill="#30325B" fill-opacity="1.000000" fill-rule="nonzero"/>
	<path id="Vector" d="M138.66 104.76C138.66 104.76 156.77 82.82 159.77 66.06C162.76 49.31 152.3 45.46 148.65 44.21C145 42.96 125.97 35.07 116.42 41.95C106.87 48.84 97.35 91.82 97.35 91.82L138.66 104.76Z" fill="#FF5A57" fill-opacity="1.000000" fill-rule="nonzero"/>
	<path id="Vector" d="M73.36 126.6L92.84 102.31C92.84 102.31 106.39 85.02 98.82 83.17C98.82 83.17 88.31 84.54 71.14 90.53C66.04 92.31 57.28 112.56 51.74 126.6L73.36 126.6Z" fill="#30325B" fill-opacity="1.000000" fill-rule="nonzero"/>
	<path id="Vector" d="M73.36 126.97L51.7 126.97C51.64 126.97 51.58 126.95 51.53 126.92C51.48 126.89 51.43 126.85 51.4 126.8C51.37 126.75 51.36 126.69 51.36 126.63C51.36 126.58 51.37 126.52 51.4 126.47C57.54 110.89 65.93 91.95 71.02 90.17C88.02 84.29 98.66 82.81 98.78 82.81L98.91 82.81C99.44 82.91 99.94 83.14 100.36 83.5C100.77 83.85 101.09 84.3 101.27 84.82C103.02 89.82 93.54 101.99 93.13 102.48L73.64 126.77C73.62 126.82 73.57 126.87 73.52 126.9C73.47 126.94 73.42 126.96 73.36 126.97ZM52.29 126.23L73.18 126.23L92.49 102.05C92.59 101.93 102.12 89.69 100.52 85.07C100.38 84.68 100.15 84.34 99.83 84.07C99.52 83.81 99.14 83.63 98.74 83.56C97.81 83.68 87.42 85.23 71.21 90.87C67.47 92.18 60.76 104.72 52.25 126.23L52.29 126.23Z" fill="#30325B" fill-opacity="1.000000" fill-rule="nonzero"/>
	<path id="Vector" d="M105.98 126.6L110.93 114.55C110.93 114.55 123 118.16 131.05 115.13C136.72 113 138.44 105.67 141.01 99.74C141.01 99.74 107.15 91.72 99.59 88.45C99.59 88.45 99.12 88.45 90.46 97.55C86.59 101.63 83.5 114.08 81.28 126.6L105.98 126.6Z" fill="#30325B" fill-opacity="1.000000" fill-rule="nonzero"/>
	<path id="Vector" d="M105.98 126.97L81.28 126.97C81.23 126.97 81.17 126.96 81.12 126.93C81.08 126.91 81.03 126.88 81 126.83C80.96 126.79 80.94 126.75 80.92 126.7C80.91 126.64 80.91 126.59 80.91 126.54C83.74 110.64 86.87 100.78 90.2 97.3C98.97 88.06 99.44 88.08 99.61 88.08C99.65 88.08 99.7 88.08 99.74 88.08C107.21 91.37 140.76 99.31 141.07 99.39C141.12 99.4 141.17 99.43 141.21 99.46C141.25 99.49 141.28 99.53 141.31 99.58C141.33 99.63 141.34 99.68 141.34 99.74C141.34 99.79 141.33 99.84 141.31 99.89C140.83 100.99 140.37 102.17 139.93 103.31C137.95 108.41 135.9 113.68 131.14 115.48C123.7 118.27 113.12 115.55 111.1 114.99L106.28 126.77C106.26 126.82 106.21 126.87 106.16 126.91C106.11 126.94 106.05 126.96 105.98 126.97ZM81.7 126.23L105.74 126.23L110.6 114.41C110.63 114.33 110.69 114.26 110.78 114.22C110.86 114.18 110.95 114.17 111.04 114.2C111.16 114.2 123.09 117.74 130.91 114.79C135.33 113.12 137.35 107.99 139.28 103.01C139.67 102 140.07 100.97 140.49 99.97C136.58 99.04 107 91.93 99.62 88.84C99.2 89.15 97.47 90.68 90.72 97.78C87.58 101.13 84.46 110.95 81.72 126.23L81.7 126.23Z" fill="#30325B" fill-opacity="1.000000" fill-rule="nonzero"/>
	<path id="Vector" d="M116.42 41.95C116.42 41.95 108.32 50.79 103.81 55.2C99.29 59.62 90.43 65.33 90.43 65.33C90.43 65.33 64 67.46 63.72 67.88C63.45 68.3 63.72 77.07 63.72 77.07C63.72 77.07 89.54 82.03 94.25 81.17C98.96 80.32 110.08 72.85 110.08 72.85L116.42 41.95Z" fill="#FF5A57" fill-opacity="1.000000" fill-rule="nonzero"/>
	<path id="Vector" d="M127.66 37.57L126.85 45.88C126.85 45.88 128.32 50.65 133.93 49.79C139.53 48.94 140.55 45.1 140.55 45.1L144.19 28.86C144.19 28.86 140.82 26.43 137.65 16.94C137.65 16.94 125.93 14.73 125.53 19.25C125.53 19.25 123.22 27.35 123.39 31.62C123.54 35.78 127.59 37.5 127.66 37.57Z" fill="#FFFFFF" fill-opacity="1.000000" fill-rule="nonzero"/>
	<path id="Vector" d="M132.64 50.26C131.3 50.27 129.99 49.87 128.89 49.1C127.79 48.33 126.96 47.25 126.5 45.99C126.49 45.94 126.49 45.89 126.5 45.85L127.28 37.75C124.65 36.32 123.12 34.07 123.03 31.6C122.86 27.3 125.09 19.45 125.18 19.09C125.22 18.71 125.34 18.35 125.53 18.03C125.72 17.71 125.97 17.43 126.28 17.22C129.22 14.97 137.39 16.48 137.72 16.48C137.79 16.5 137.85 16.52 137.9 16.57C137.95 16.61 137.99 16.67 138.01 16.73C141.09 25.95 144.38 28.45 144.41 28.51C144.47 28.55 144.51 28.61 144.54 28.67C144.56 28.74 144.57 28.81 144.55 28.88L140.92 45.12C140.87 45.3 139.74 49.22 133.99 50.1C133.55 50.19 133.09 50.24 132.64 50.26ZM127.22 45.85C127.43 46.42 128.97 50.19 133.85 49.44C139.12 48.63 140.16 45.02 140.17 45.02L143.75 29.03C142.98 28.36 140.07 25.45 137.34 17.25C136.05 17.03 129.16 15.97 126.68 17.85C126.45 18.01 126.26 18.22 126.12 18.47C125.97 18.71 125.89 18.99 125.87 19.27C125.87 19.42 123.56 27.37 123.73 31.59C123.85 34.73 126.28 36.44 127.72 37.18C127.78 37.21 127.84 37.24 127.89 37.29C127.93 37.33 127.96 37.37 127.98 37.43C128 37.48 128.01 37.53 128 37.59L127.22 45.85Z" fill="#30325B" fill-opacity="1.000000" fill-rule="nonzero"/>
	<path id="Vector" d="M140.15 29.14C140.4 28.41 140.89 27.77 141.53 27.34C142.49 26.63 143.7 26.33 144.88 26.51C146.24 26.9 146.93 28.56 146.64 29.94C146.45 30.77 146.06 31.54 145.5 32.18C144.94 32.82 144.23 33.3 143.43 33.59C142.88 33.75 142.3 33.8 141.73 33.74C141.16 33.68 140.6 33.51 140.1 33.23L140.15 29.14Z" fill="#FFFFFF" fill-opacity="1.000000" fill-rule="nonzero"/>
	<path id="Vector" d="M142.2 34.13C141.4 34.13 140.62 33.94 139.92 33.56C139.88 33.53 139.84 33.5 139.81 33.46C139.78 33.43 139.76 33.38 139.75 33.34C139.73 33.29 139.73 33.24 139.73 33.19C139.74 33.15 139.75 33.1 139.78 33.06C139.8 33.01 139.83 32.98 139.87 32.95C139.91 32.92 139.95 32.89 140 32.88C140.04 32.87 140.09 32.86 140.14 32.87C140.19 32.87 140.23 32.89 140.28 32.91C141.21 33.41 142.31 33.53 143.32 33.23C144.06 32.97 144.71 32.52 145.23 31.93C145.74 31.34 146.1 30.63 146.27 29.87C146.51 28.71 145.96 27.2 144.8 26.87C144.27 26.79 143.72 26.81 143.2 26.94C142.68 27.06 142.18 27.29 141.75 27.61C141.17 28 140.74 28.56 140.52 29.22C140.49 29.32 140.42 29.4 140.33 29.45C140.24 29.5 140.13 29.5 140.03 29.47C139.94 29.44 139.86 29.37 139.81 29.28C139.76 29.19 139.75 29.08 139.78 28.99C140.06 28.18 140.59 27.48 141.3 27C141.82 26.61 142.42 26.34 143.05 26.19C143.68 26.04 144.34 26.01 144.98 26.12C146.58 26.57 147.32 28.48 147 29.98C146.81 30.89 146.4 31.73 145.79 32.43C145.18 33.12 144.4 33.65 143.53 33.96C143.1 34.08 142.65 34.14 142.2 34.13Z" fill="#30325B" fill-opacity="1.000000" fill-rule="nonzero"/>
	<path id="Vector" d="M131.95 25.07C131.95 25.07 128.58 28.98 129.17 29.8C129.75 30.63 131.71 30.36 131.71 30.36L131.95 25.07Z" fill="#FFFFFF" fill-opacity="1.000000" fill-rule="nonzero"/>
	<path id="Vector" d="M131.02 30.78C130.63 30.82 130.23 30.77 129.86 30.65C129.49 30.52 129.15 30.31 128.86 30.04C128.21 29.12 130.33 26.36 131.67 24.89C131.73 24.83 131.82 24.79 131.91 24.79C132 24.79 132.09 24.82 132.15 24.88C132.22 24.94 132.27 25.02 132.28 25.11C132.29 25.2 132.27 25.29 132.22 25.37C130.6 27.25 129.31 29.25 129.47 29.66C129.8 30.11 130.99 30.14 131.67 30.05C131.77 30.04 131.87 30.07 131.95 30.13C132.03 30.19 132.08 30.28 132.09 30.37C132.1 30.47 132.08 30.57 132.02 30.65C131.96 30.73 131.87 30.78 131.77 30.79C131.52 30.8 131.27 30.79 131.02 30.78Z" fill="#30325B" fill-opacity="1.000000" fill-rule="nonzero"/>
	<path id="Vector" d="M137.53 23.48C137.92 23.54 138.16 24.03 138.07 24.58C137.98 25.12 137.6 25.51 137.21 25.45C136.83 25.39 136.59 24.9 136.67 24.35C136.76 23.8 137.15 23.41 137.53 23.48Z" fill="#30325B" fill-opacity="1.000000" fill-rule="evenodd"/>
	<path id="Vector" d="M129.53 23.9C129.55 24.46 129.25 24.92 128.86 24.93C128.47 24.94 128.14 24.51 128.12 23.95C128.1 23.4 128.4 22.94 128.79 22.93C129.18 22.91 129.52 23.35 129.53 23.9Z" fill="#30325B" fill-opacity="1.000000" fill-rule="evenodd"/>
	<path id="Vector" d="M127.66 37.57C127.66 37.57 132.71 39.27 135.93 37.83C135.93 37.83 131.88 44.45 127.1 43.26L127.66 37.57Z" fill="#30325B" fill-opacity="1.000000" fill-rule="nonzero"/>
	<path id="Vector" d="M128.29 43.78C127.86 43.78 127.43 43.73 127.02 43.62C126.93 43.6 126.86 43.55 126.81 43.48C126.76 43.41 126.73 43.32 126.74 43.23L127.3 37.54C127.3 37.48 127.32 37.43 127.35 37.38C127.38 37.33 127.41 37.29 127.46 37.26C127.51 37.24 127.56 37.22 127.62 37.22C127.67 37.22 127.73 37.24 127.78 37.26C127.83 37.26 132.74 38.89 135.78 37.52C135.85 37.49 135.93 37.49 136.01 37.5C136.09 37.52 136.16 37.56 136.21 37.62C136.25 37.68 136.28 37.76 136.28 37.84C136.28 37.91 136.25 37.99 136.21 38.05C136.09 38.27 132.68 43.78 128.29 43.78ZM127.5 42.98C130.81 43.56 133.76 40.2 135 38.56C132.35 39.21 129.14 38.42 127.98 38.08L127.5 42.98Z" fill="#30325B" fill-opacity="1.000000" fill-rule="nonzero"/>
	<path id="Vector" d="M127.73 26.54L127.49 26.54L124.77 26.32C123.99 26.26 123.27 25.89 122.77 25.3C122.26 24.7 122.01 23.93 122.07 23.16L122.25 20.95C122.26 20.85 122.3 20.76 122.38 20.7C122.45 20.64 122.55 20.61 122.64 20.62L130.49 21.24C130.59 21.25 130.68 21.29 130.74 21.37C130.77 21.4 130.8 21.45 130.81 21.49C130.83 21.54 130.83 21.58 130.83 21.63L130.65 23.84C130.59 24.58 130.25 25.27 129.71 25.77C129.16 26.27 128.45 26.54 127.71 26.54L127.73 26.54ZM122.95 21.38L122.81 23.19C122.76 23.78 122.95 24.35 123.33 24.8C123.71 25.24 124.25 25.52 124.83 25.56L127.55 25.78C127.83 25.8 128.12 25.77 128.4 25.68C128.68 25.59 128.93 25.45 129.15 25.26C129.59 24.89 129.87 24.36 129.92 23.79L130.06 21.98L122.95 21.38Z" fill="#30325B" fill-opacity="1.000000" fill-rule="nonzero"/>
	<path id="Vector" d="M137.49 27.34L137.25 27.34L134.53 27.12C133.75 27.05 133.03 26.69 132.53 26.09C132.02 25.5 131.77 24.73 131.83 23.95L132.01 21.74C132.01 21.7 132.02 21.65 132.05 21.61C132.07 21.56 132.1 21.52 132.14 21.49C132.17 21.46 132.22 21.44 132.26 21.42C132.31 21.41 132.36 21.4 132.4 21.41L140.25 22.03C140.3 22.04 140.34 22.05 140.39 22.07C140.43 22.09 140.47 22.12 140.5 22.16C140.53 22.19 140.55 22.24 140.57 22.28C140.58 22.33 140.59 22.37 140.58 22.42L140.41 24.63C140.35 25.37 140.02 26.06 139.47 26.56C138.92 27.06 138.21 27.34 137.47 27.34L137.49 27.34ZM137.31 26.6C137.89 26.65 138.47 26.46 138.91 26.08C139.34 25.7 139.6 25.17 139.65 24.61L139.79 22.8L132.71 22.19L132.57 23.99C132.52 24.57 132.71 25.15 133.09 25.59C133.47 26.04 134.01 26.31 134.59 26.36L137.31 26.6Z" fill="#30325B" fill-opacity="1.000000" fill-rule="nonzero"/>
	<path id="Vector" d="M132.23 23.52L130.32 23.37C130.27 23.37 130.22 23.35 130.18 23.33C130.14 23.31 130.1 23.28 130.07 23.24C130.04 23.21 130.01 23.16 130 23.12C129.98 23.07 129.98 23.02 129.98 22.97C129.99 22.88 130.04 22.79 130.11 22.73C130.19 22.66 130.28 22.63 130.38 22.63L132.29 22.79C132.39 22.79 132.48 22.83 132.55 22.9C132.62 22.97 132.66 23.06 132.66 23.16C132.66 23.25 132.62 23.35 132.55 23.42C132.48 23.49 132.39 23.52 132.29 23.52L132.23 23.52Z" fill="#30325B" fill-opacity="1.000000" fill-rule="nonzero"/>
	<path id="Vector" d="M131.05 36.51C128.74 36.51 126.93 34.73 126.2 32.65C126.18 32.59 126.17 32.53 126.18 32.47C126.19 32.41 126.22 32.35 126.26 32.3C126.29 32.25 126.34 32.21 126.39 32.19C126.44 32.16 126.51 32.15 126.57 32.16C129.71 32.32 132.85 31.82 135.78 30.69C135.84 30.66 135.9 30.65 135.97 30.66C136.03 30.66 136.09 30.69 136.14 30.72C136.19 30.76 136.24 30.81 136.26 30.87C136.29 30.92 136.3 30.99 136.3 31.05C136.3 31.22 135.91 35.26 132.36 36.28C131.93 36.42 131.49 36.5 131.05 36.51ZM127.08 32.91C127.85 34.54 129.64 36.33 132.14 35.61C134.43 34.95 135.2 32.73 135.44 31.64C132.75 32.57 129.92 33 127.08 32.91Z" fill="#30325B" fill-opacity="1.000000" fill-rule="nonzero"/>
	<path id="Vector" d="M158.08 51.02C162.36 53.03 169.31 100.1 161.75 103.28C149.98 108.18 118.1 91.5 118.1 91.5L124.38 79.16C124.38 79.16 146.03 85.6 147.53 81.2C149.03 76.8 141.6 52.6 144.13 49.96C146.66 47.33 158.08 51.02 158.08 51.02Z" fill="#FF5A57" fill-opacity="1.000000" fill-rule="nonzero"/>
	<path id="Vector" d="M125.56 84.14C121.87 83.39 118.28 82.24 114.85 80.7C112.22 79.44 109.94 78.24 107.01 77.6C103.36 76.81 99.61 76.67 95.91 77.19C95.76 77.2 95.62 77.25 95.49 77.33C95.06 77.7 95.7 78.33 96.23 78.5C97.66 78.92 99.15 79.13 100.65 79.11C96.87 79.45 93.16 80.31 89.61 81.64C89.2 81.8 88.72 82.09 88.79 82.5C88.86 82.92 89.56 83.05 90.06 82.97L98.82 81.5C96.58 81.76 94.4 82.4 92.37 83.38C92.09 83.52 91.75 83.73 91.74 84.05C91.74 84.61 92.52 84.71 93.07 84.6C95.76 84.06 98.39 83.29 100.95 82.28L95.14 84.68C95.11 84.78 95.11 84.88 95.12 84.98C95.14 85.08 95.17 85.18 95.22 85.27C95.27 85.36 95.34 85.43 95.42 85.5C95.51 85.56 95.6 85.6 95.7 85.63C96.11 85.7 96.53 85.67 96.91 85.53L103.12 83.87L99.14 85.34C98.51 85.57 97.75 85.99 97.86 86.66C97.97 87.44 99.06 87.5 99.84 87.39C102.92 86.93 106.05 86.82 109.16 87.05C110.3 87.11 111.44 86.92 112.53 87.25C114.1 87.73 115.68 88.86 117.14 89.63C119.42 90.82 121.69 92.04 123.97 93.25L125.56 84.14Z" fill="#FFFFFF" fill-opacity="1.000000" fill-rule="nonzero"/>
	<path id="Vector" d="M124 93.53C123.94 93.53 123.89 93.52 123.84 93.49C121.57 92.28 119.29 91.07 117.01 89.87C116.55 89.64 116.08 89.36 115.6 89.07C114.62 88.44 113.56 87.92 112.46 87.52C111.76 87.36 111.05 87.29 110.33 87.34C109.94 87.34 109.56 87.34 109.17 87.34C106.08 87.11 102.98 87.23 99.92 87.69C99.26 87.83 98.58 87.73 97.99 87.41C97.87 87.33 97.77 87.22 97.7 87.09C97.62 86.96 97.57 86.82 97.56 86.68C97.53 86.47 97.55 86.27 97.63 86.08C97.7 85.88 97.83 85.72 97.99 85.59L97.03 85.85C96.58 86.01 96.09 86.04 95.63 85.94C95.47 85.88 95.32 85.8 95.19 85.69C95.07 85.58 94.96 85.45 94.89 85.29C94.84 85.18 94.81 85.05 94.81 84.93C94.81 84.8 94.84 84.67 94.89 84.56C94.32 84.69 93.77 84.82 93.2 84.93C92.95 85 92.69 85.01 92.44 84.96C92.18 84.92 91.94 84.83 91.73 84.68C91.63 84.6 91.56 84.5 91.51 84.39C91.47 84.28 91.45 84.16 91.45 84.04C91.45 83.46 92.06 83.18 92.27 83.08L92.7 82.88L90.16 83.31C89.71 83.41 89.24 83.34 88.84 83.12C88.75 83.05 88.67 82.97 88.62 82.87C88.56 82.78 88.52 82.67 88.5 82.56C88.46 82.27 88.5 81.72 89.53 81.34C92.14 80.34 94.83 79.6 97.58 79.13C97.1 79.07 96.64 78.97 96.17 78.86C95.91 78.78 95.68 78.65 95.48 78.47C95.29 78.29 95.14 78.06 95.05 77.81C95.03 77.68 95.04 77.55 95.08 77.43C95.13 77.3 95.2 77.19 95.3 77.11C95.47 76.99 95.67 76.91 95.88 76.9C99.62 76.37 103.41 76.51 107.09 77.31C109.53 77.91 111.87 78.81 114.08 79.99L115.02 80.44C118.42 81.94 121.97 83.07 125.61 83.81C125.7 83.83 125.77 83.88 125.82 83.96C125.87 84.04 125.88 84.13 125.86 84.21C125.85 84.26 125.83 84.3 125.81 84.33C125.78 84.37 125.75 84.4 125.71 84.42C125.67 84.45 125.63 84.46 125.59 84.47C125.54 84.48 125.5 84.47 125.46 84.46C121.75 83.7 118.14 82.54 114.68 81.01L113.74 80.55C111.58 79.4 109.28 78.52 106.9 77.94C103.3 77.15 99.58 77.01 95.93 77.53C95.84 77.53 95.76 77.55 95.69 77.6C95.69 77.8 96 78.08 96.31 78.18C97.71 78.59 99.17 78.79 100.62 78.77C100.71 78.78 100.78 78.82 100.83 78.88C100.88 78.94 100.91 79.02 100.91 79.1C100.91 79.18 100.88 79.26 100.83 79.32C100.78 79.38 100.71 79.42 100.62 79.44C96.88 79.79 93.21 80.64 89.69 81.96C89.39 82.07 89.05 82.27 89.08 82.45C89.09 82.48 89.09 82.5 89.11 82.52C89.12 82.54 89.13 82.55 89.15 82.56C89.41 82.68 89.7 82.71 89.97 82.64L96.75 81.49C97.4 81.34 98.07 81.23 98.74 81.15C98.83 81.14 98.91 81.17 98.98 81.22C99.05 81.27 99.1 81.35 99.12 81.44C99.13 81.53 99.11 81.62 99.05 81.69C99 81.76 98.92 81.81 98.84 81.82L96.87 82.15C95.34 82.49 93.86 83 92.46 83.68C92.09 83.85 92.01 83.98 92.01 84.06C92.01 84.08 92.01 84.1 92.02 84.12C92.03 84.14 92.04 84.16 92.06 84.17C92.33 84.31 92.64 84.34 92.93 84.26C95.61 83.73 98.23 82.96 100.77 81.96C100.85 81.93 100.94 81.93 101.02 81.96C101.1 82 101.16 82.06 101.2 82.14C101.23 82.23 101.23 82.32 101.2 82.4C101.16 82.48 101.1 82.55 101.02 82.59L95.38 84.91C95.37 84.94 95.37 84.98 95.38 85.01C95.44 85.14 95.56 85.25 95.7 85.29C96.05 85.36 96.4 85.32 96.73 85.2L102.94 83.53C103.02 83.52 103.1 83.53 103.17 83.58C103.24 83.62 103.29 83.68 103.31 83.76C103.34 83.84 103.33 83.92 103.3 84C103.27 84.07 103.21 84.13 103.13 84.17L99.16 85.64C98.81 85.77 98.02 86.11 98.09 86.59C98.1 86.65 98.12 86.7 98.15 86.75C98.18 86.8 98.22 86.84 98.26 86.87C98.7 87.08 99.21 87.14 99.68 87.02C102.8 86.55 105.95 86.44 109.09 86.67C109.46 86.67 109.82 86.67 110.2 86.67C110.98 86.62 111.77 86.69 112.53 86.88C113.69 87.29 114.79 87.83 115.81 88.5C116.29 88.77 116.75 89.04 117.2 89.28C119.48 90.47 121.76 91.68 124.03 92.9C124.07 92.92 124.1 92.95 124.13 92.98C124.16 93.01 124.18 93.05 124.2 93.1C124.21 93.14 124.21 93.18 124.21 93.23C124.2 93.27 124.19 93.31 124.17 93.35C124.14 93.43 124.08 93.5 124 93.53Z" fill="#30325B" fill-opacity="1.000000" fill-rule="nonzero"/>
	<path id="Vector" d="M117.76 46.29C116.24 47.18 108.07 65.55 104.52 74.31L117.76 46.29Z" fill="#FFFFFF" fill-opacity="1.000000" fill-rule="nonzero"/>
	<path id="Vector" d="M104.54 74.65C104.48 74.65 104.43 74.64 104.38 74.61C104.33 74.59 104.29 74.55 104.26 74.5C104.23 74.46 104.21 74.41 104.2 74.35C104.19 74.3 104.2 74.24 104.22 74.19C107.44 66.22 115.86 47.01 117.6 45.99C117.63 45.97 117.68 45.95 117.72 45.94C117.77 45.94 117.81 45.94 117.86 45.95C117.9 45.96 117.94 45.98 117.98 46C118.02 46.03 118.05 46.06 118.07 46.1C118.09 46.14 118.11 46.19 118.12 46.23C118.12 46.28 118.12 46.32 118.11 46.37C118.09 46.41 118.07 46.45 118.05 46.49C118.02 46.52 117.98 46.55 117.94 46.58C116.64 47.31 108.87 64.48 104.85 74.44C104.82 74.5 104.78 74.55 104.73 74.59C104.67 74.63 104.61 74.65 104.54 74.65Z" fill="#30325B" fill-opacity="1.000000" fill-rule="nonzero"/>
	<path id="Vector" d="M59.52 81.61L59.1 85.35L106.83 105.9L106.98 101.97L59.52 81.61Z" fill="#FFFFFF" fill-opacity="1.000000" fill-rule="nonzero"/>
	<path id="Vector" d="M106.83 106.27C106.78 106.28 106.73 106.28 106.68 106.27L58.95 85.71C58.88 85.68 58.82 85.63 58.78 85.56C58.74 85.49 58.72 85.41 58.73 85.33L59.15 81.59C59.16 81.54 59.18 81.48 59.21 81.43C59.24 81.39 59.29 81.35 59.34 81.32C59.39 81.29 59.44 81.28 59.5 81.28C59.56 81.28 59.62 81.29 59.67 81.32L107.12 101.67C107.19 101.7 107.25 101.75 107.29 101.81C107.33 101.88 107.35 101.95 107.34 102.02L107.2 105.95C107.19 106.01 107.18 106.07 107.14 106.13C107.11 106.18 107.07 106.22 107.02 106.26C106.96 106.28 106.89 106.28 106.83 106.27ZM59.49 85.12L106.47 105.35L106.6 102.2L59.83 82.13L59.49 85.12Z" fill="#30325B" fill-opacity="1.000000" fill-rule="nonzero"/>
	<path id="Vector" d="M59.52 81.61C59.52 81.61 73.42 74.94 73.78 75.13C74.13 75.32 123.3 95 123.3 95L106.97 101.97L59.52 81.61Z" fill="#FFFFFF" fill-opacity="1.000000" fill-rule="nonzero"/>
	<path id="Vector" d="M106.98 102.34C106.93 102.35 106.88 102.35 106.83 102.34L59.37 81.95C59.31 81.92 59.25 81.87 59.21 81.81C59.17 81.75 59.15 81.69 59.15 81.62C59.15 81.54 59.17 81.48 59.21 81.41C59.24 81.36 59.29 81.31 59.36 81.28C73.44 74.52 73.75 74.69 73.95 74.81C74.69 75.14 122.95 94.47 123.44 94.68C123.51 94.71 123.57 94.75 123.61 94.81C123.65 94.87 123.67 94.94 123.67 95.02C123.67 95.09 123.65 95.16 123.61 95.22C123.57 95.28 123.51 95.33 123.45 95.36L107.12 102.33C107.08 102.34 107.03 102.35 106.98 102.34ZM60.41 81.59L106.98 101.58L122.34 95.05C114.74 92 76.15 76.55 73.72 75.54C72.76 75.76 65.4 79.2 60.41 81.59Z" fill="#30325B" fill-opacity="1.000000" fill-rule="nonzero"/>
	<path id="Vector" d="M106.83 105.9L122.69 98.52L123.3 95L106.97 101.97L106.83 105.9Z" fill="#FFFFFF" fill-opacity="1.000000" fill-rule="nonzero"/>
	<path id="Vector" d="M106.83 106.27C106.76 106.27 106.68 106.25 106.62 106.21C106.57 106.18 106.53 106.13 106.5 106.07C106.47 106.02 106.46 105.95 106.46 105.89L106.61 101.96C106.61 101.89 106.64 101.82 106.67 101.77C106.71 101.71 106.77 101.66 106.83 101.64L123.16 94.66C123.22 94.64 123.29 94.63 123.35 94.64C123.42 94.65 123.48 94.67 123.53 94.72C123.58 94.76 123.62 94.81 123.65 94.87C123.67 94.94 123.68 95 123.66 95.07L123.06 98.58C123.05 98.64 123.02 98.69 122.99 98.74C122.95 98.79 122.9 98.83 122.85 98.85L106.98 106.21C106.94 106.24 106.88 106.26 106.83 106.27ZM107.34 102.22L107.21 105.35L122.36 98.3L122.81 95.64L107.34 102.22Z" fill="#30325B" fill-opacity="1.000000" fill-rule="nonzero"/>
	<path id="Vector" d="M59.52 81.61L58.54 47.07L108.51 70.01L106.97 101.97L59.52 81.61Z" fill="#FFFFFF" fill-opacity="1.000000" fill-rule="nonzero"/>
	<path id="Vector" d="M106.98 102.34C106.93 102.35 106.88 102.35 106.83 102.34L59.37 81.95C59.31 81.92 59.25 81.87 59.21 81.81C59.17 81.76 59.15 81.69 59.15 81.62L58.17 47.08C58.16 47.01 58.18 46.95 58.21 46.9C58.24 46.84 58.28 46.79 58.33 46.76C58.39 46.73 58.45 46.71 58.51 46.71C58.57 46.71 58.63 46.73 58.69 46.76L108.68 69.68C108.75 69.71 108.81 69.76 108.85 69.82C108.88 69.88 108.9 69.95 108.9 70.02L107.37 101.99C107.36 102.05 107.35 102.1 107.32 102.16C107.29 102.21 107.25 102.25 107.2 102.28C107.13 102.33 107.05 102.35 106.98 102.34ZM59.87 81.36L106.63 101.43L108.1 70.24L58.92 47.65L59.87 81.36Z" fill="#30325B" fill-opacity="1.000000" fill-rule="nonzero"/>
	<path id="Vector" d="M133.58 100.2C133.53 100.21 133.48 100.21 133.43 100.2L123.32 95.54C123.24 95.5 123.18 95.44 123.14 95.37C123.11 95.29 123.1 95.2 123.12 95.12L126.17 82.34C126.19 82.25 126.24 82.17 126.32 82.12C126.4 82.07 126.5 82.05 126.59 82.06L146.34 85.23L145.69 53.92C145.69 53.87 145.7 53.82 145.72 53.78C145.74 53.73 145.76 53.69 145.8 53.66C145.83 53.62 145.87 53.59 145.91 53.57C145.96 53.55 146.01 53.54 146.06 53.54C146.15 53.55 146.24 53.58 146.31 53.65C146.38 53.72 146.42 53.81 146.42 53.91L147.08 85.66C147.08 85.71 147.07 85.76 147.04 85.81C147.02 85.86 146.99 85.9 146.95 85.93C146.91 85.97 146.86 86 146.81 86.01C146.76 86.03 146.7 86.03 146.65 86.02L126.78 82.84L123.87 94.99L133.71 99.46C133.75 99.48 133.79 99.51 133.82 99.54C133.85 99.58 133.88 99.62 133.9 99.67C133.91 99.71 133.92 99.76 133.92 99.81C133.92 99.86 133.9 99.9 133.88 99.95C133.86 100.01 133.82 100.07 133.77 100.12C133.72 100.16 133.65 100.19 133.58 100.2Z" fill="#30325B" fill-opacity="1.000000" fill-rule="nonzero"/>
	<path id="Vector" d="M46.01 126.6C44.29 125.3 42.24 124.62 40.79 126.6L46.01 126.6Z" fill="#FFFFFF" fill-opacity="1.000000" fill-rule="nonzero"/>
	<path id="Vector" d="M46.01 126.94L40.79 126.94C40.73 126.94 40.67 126.92 40.61 126.89C40.56 126.85 40.52 126.81 40.49 126.75C40.46 126.7 40.44 126.64 40.44 126.58C40.44 126.51 40.46 126.45 40.49 126.4C40.72 126.05 41.03 125.74 41.39 125.51C41.74 125.28 42.14 125.12 42.56 125.05C43.63 124.89 44.85 125.33 46.18 126.33C46.24 126.38 46.28 126.44 46.3 126.5C46.32 126.57 46.32 126.64 46.3 126.71C46.28 126.77 46.24 126.82 46.19 126.86C46.13 126.91 46.07 126.93 46.01 126.94ZM41.54 126.27L44.89 126.27C44.23 125.85 43.46 125.65 42.68 125.72C42.25 125.78 41.86 125.98 41.54 126.27Z" fill="#30325B" fill-opacity="1.000000" fill-rule="nonzero"/>
	<path id="Vector" d="M83.61 115.54L83.55 115.54C83.45 115.53 83.37 115.47 83.31 115.4C83.25 115.32 83.23 115.22 83.25 115.12C83.31 114.76 84.72 106.12 87.45 101.73C87.5 101.66 87.58 101.6 87.67 101.59C87.76 101.57 87.86 101.59 87.94 101.63C88.02 101.68 88.07 101.76 88.1 101.85C88.12 101.93 88.12 102.03 88.07 102.11C85.45 106.37 83.98 115.15 83.97 115.24C83.95 115.33 83.91 115.4 83.84 115.46C83.78 115.52 83.69 115.55 83.61 115.54Z" fill="#FFFFFF" fill-opacity="1.000000" fill-rule="nonzero"/>
	<path id="Vector" d="M129.09 51.4L129.84 53.91L120.46 73.24L123.13 80.15L128.99 75.15L131.39 53.9L132.64 52.62L131.36 50.48L129.09 51.4Z" fill="#30325B" fill-opacity="1.000000" fill-rule="nonzero"/>
	<path id="Vector" d="M190.9 68.47L190.9 157.35L26.8 157.35L26.8 68.47L108.85 124.35L190.9 68.47Z" fill="#FFFFFF" fill-opacity="1.000000" fill-rule="nonzero"/>
	<path id="Vector" d="M190.9 157.71L26.78 157.71C26.68 157.71 26.59 157.67 26.52 157.61C26.45 157.54 26.41 157.44 26.41 157.35L26.41 68.47C26.41 68.4 26.43 68.34 26.46 68.28C26.5 68.22 26.55 68.18 26.61 68.15C26.67 68.11 26.73 68.09 26.8 68.09C26.87 68.09 26.93 68.11 26.99 68.15L108.83 123.89L190.67 68.15C190.73 68.11 190.79 68.09 190.86 68.09C190.93 68.09 190.99 68.11 191.05 68.15C191.11 68.18 191.16 68.22 191.19 68.28C191.23 68.34 191.25 68.4 191.25 68.47L191.25 157.35C191.25 157.44 191.21 157.53 191.14 157.6C191.08 157.67 190.99 157.71 190.9 157.71ZM27.17 156.98L190.55 156.98L190.55 69.16L109.08 124.65C109.02 124.69 108.95 124.71 108.88 124.71C108.8 124.71 108.73 124.69 108.67 124.65L27.17 69.16L27.17 156.98Z" fill="#30325B" fill-opacity="1.000000" fill-rule="nonzero"/>
	<path id="Vector" d="M108.85 124.71C108.78 124.71 108.71 124.69 108.65 124.66L26.59 68.77C26.51 68.72 26.46 68.63 26.44 68.54C26.42 68.44 26.44 68.35 26.5 68.27C26.55 68.18 26.64 68.13 26.73 68.11C26.83 68.09 26.93 68.11 27.01 68.16L108.85 123.9L190.69 68.16C190.77 68.11 190.87 68.09 190.97 68.11C191.06 68.13 191.15 68.18 191.2 68.27C191.23 68.3 191.25 68.35 191.26 68.4C191.27 68.44 191.27 68.49 191.26 68.54C191.25 68.59 191.23 68.63 191.21 68.67C191.18 68.71 191.14 68.75 191.1 68.77L109.06 124.66C109 124.69 108.93 124.71 108.85 124.71Z" fill="#30325B" fill-opacity="1.000000" fill-rule="nonzero"/>
	<path id="Vector" d="M26.8 157.35L108.85 106.2L190.9 157.35L26.8 157.35Z" fill="#FFFFFF" fill-opacity="1.000000" fill-rule="nonzero"/>
	<path id="Vector" d="M190.9 157.72L26.78 157.72C26.7 157.72 26.62 157.69 26.56 157.64C26.49 157.59 26.45 157.53 26.42 157.45C26.4 157.37 26.41 157.29 26.44 157.22C26.46 157.14 26.52 157.08 26.59 157.04L108.68 105.9C108.74 105.86 108.81 105.84 108.88 105.84C108.95 105.84 109.02 105.86 109.07 105.9L191.11 157.04C191.18 157.08 191.23 157.14 191.26 157.22C191.29 157.29 191.3 157.37 191.27 157.45C191.25 157.53 191.2 157.6 191.13 157.65C191.06 157.7 190.98 157.72 190.9 157.72ZM28.09 156.98L189.64 156.98L108.88 106.64L28.09 156.98Z" fill="#30325B" fill-opacity="1.000000" fill-rule="nonzero"/>
	<path id="Vector" d="M150.62 124.92L196.49 113.2L202.99 138.62L157.12 150.35L150.62 124.92Z" fill="#FF5A57" fill-opacity="1.000000" fill-rule="evenodd"/>
	<path id="Vector" d="M157.12 150.72C157.05 150.72 156.98 150.7 156.92 150.67C156.84 150.62 156.78 150.53 156.76 150.44L150.26 125.02C150.23 124.92 150.25 124.82 150.3 124.74C150.35 124.65 150.43 124.59 150.52 124.57L196.4 112.84C196.49 112.81 196.59 112.81 196.68 112.84C196.72 112.87 196.75 112.9 196.78 112.94C196.81 112.98 196.83 113.02 196.84 113.07L203.34 138.5C203.35 138.54 203.36 138.59 203.35 138.64C203.34 138.69 203.33 138.74 203.3 138.78C203.28 138.82 203.25 138.85 203.21 138.88C203.17 138.91 203.13 138.93 203.08 138.95L157.21 150.67L157.12 150.72ZM151.07 125.22L157.38 149.93L202.54 138.39L196.26 113.64L151.07 125.22Z" fill="#30325B" fill-opacity="1.000000" fill-rule="nonzero"/>
	<path id="Vector" d="M157.12 150.36L176.41 130.23L202.99 138.62L157.12 150.36Z" fill="#FF5A57" fill-opacity="1.000000" fill-rule="nonzero"/>
	<path id="Vector" d="M157.12 150.72C157.05 150.72 156.99 150.71 156.93 150.67C156.88 150.64 156.83 150.6 156.8 150.54C156.76 150.47 156.74 150.39 156.75 150.31C156.76 150.23 156.8 150.15 156.85 150.1L176.14 129.98C176.19 129.93 176.25 129.89 176.32 129.87C176.38 129.85 176.45 129.85 176.52 129.87L203.1 138.28C203.18 138.3 203.24 138.35 203.29 138.42C203.34 138.48 203.36 138.56 203.36 138.64C203.35 138.72 203.33 138.8 203.28 138.86C203.22 138.92 203.16 138.96 203.08 138.98L157.21 150.71L157.12 150.72ZM176.52 130.64L158.27 149.68L201.65 138.59L176.52 130.64Z" fill="#30325B" fill-opacity="1.000000" fill-rule="nonzero"/>
	<path id="Vector" d="M150.62 124.93L177.53 134.6L196.49 113.2L150.62 124.93Z" fill="#FF5A57" fill-opacity="1.000000" fill-rule="nonzero"/>
	<path id="Vector" d="M177.53 134.97C177.48 134.97 177.44 134.97 177.4 134.97L150.49 125.3C150.42 125.27 150.36 125.22 150.31 125.15C150.27 125.09 150.25 125.01 150.25 124.93C150.25 124.86 150.28 124.78 150.33 124.72C150.38 124.66 150.45 124.61 150.52 124.59L196.4 112.86C196.47 112.85 196.55 112.85 196.63 112.88C196.7 112.91 196.76 112.96 196.8 113.03C196.84 113.09 196.86 113.17 196.86 113.25C196.85 113.33 196.82 113.41 196.77 113.47L177.8 134.86C177.76 134.9 177.72 134.93 177.67 134.94C177.63 134.96 177.58 134.97 177.53 134.97ZM151.87 124.99L177.42 134.16L195.42 113.85L151.87 124.99Z" fill="#30325B" fill-opacity="1.000000" fill-rule="nonzero"/>
	<path id="Vector" d="M194.61 95.8L220.79 89.32L224.38 103.84L198.2 110.31L194.61 95.8Z" fill="#FF5A57" fill-opacity="1.000000" fill-rule="evenodd"/>
	<path id="Vector" d="M198.2 110.67C198.12 110.67 198.04 110.64 197.97 110.59C197.91 110.54 197.86 110.47 197.84 110.39L194.26 95.88C194.23 95.79 194.25 95.69 194.3 95.61C194.35 95.52 194.43 95.46 194.52 95.44L220.7 88.97C220.75 88.95 220.79 88.95 220.84 88.96C220.89 88.96 220.94 88.98 220.98 89C221.02 89.03 221.05 89.06 221.08 89.1C221.11 89.14 221.13 89.18 221.14 89.23L224.73 103.74C224.74 103.78 224.75 103.83 224.74 103.88C224.73 103.93 224.71 103.98 224.69 104.02C224.66 104.06 224.63 104.1 224.59 104.13C224.55 104.15 224.51 104.18 224.46 104.19L198.29 110.66L198.2 110.67ZM195.06 96.06L198.47 109.85L223.93 103.56L220.55 89.77L195.06 96.06Z" fill="#30325B" fill-opacity="1.000000" fill-rule="nonzero"/>
	<path id="Vector" d="M198.2 110.3L209.27 98.93L224.37 103.83L198.2 110.3Z" fill="#FF5A57" fill-opacity="1.000000" fill-rule="nonzero"/>
	<path id="Vector" d="M198.2 110.67C198.13 110.67 198.07 110.66 198.02 110.62C197.96 110.59 197.91 110.54 197.88 110.49C197.84 110.42 197.82 110.34 197.83 110.26C197.84 110.18 197.88 110.1 197.93 110.05L209.01 98.67C209.06 98.62 209.12 98.59 209.18 98.57C209.25 98.56 209.32 98.56 209.39 98.58L224.49 103.48C224.59 103.48 224.68 103.52 224.75 103.59C224.82 103.66 224.86 103.75 224.86 103.85C224.86 103.95 224.82 104.04 224.75 104.11C224.68 104.18 224.59 104.22 224.49 104.22L198.32 110.69L198.2 110.67ZM209.38 99.35L199.36 109.66L223.03 103.81L209.38 99.35Z" fill="#30325B" fill-opacity="1.000000" fill-rule="nonzero"/>
	<path id="Vector" d="M194.61 95.8L209.89 101.42L220.79 89.32L194.61 95.8Z" fill="#FF5A57" fill-opacity="1.000000" fill-rule="nonzero"/>
	<path id="Vector" d="M209.89 101.79C209.85 101.8 209.8 101.8 209.76 101.79L194.48 96.17C194.41 96.14 194.35 96.09 194.3 96.02C194.26 95.95 194.24 95.88 194.25 95.8C194.25 95.72 194.28 95.64 194.33 95.58C194.37 95.52 194.44 95.48 194.52 95.46L220.7 88.99C220.77 88.97 220.85 88.98 220.93 89C221 89.03 221.06 89.09 221.1 89.15C221.14 89.22 221.16 89.3 221.15 89.38C221.14 89.46 221.11 89.53 221.06 89.59L210.17 101.67C210.09 101.74 210 101.79 209.89 101.79ZM195.87 95.9L209.78 101.05L219.71 90.01L195.87 95.9Z" fill="#30325B" fill-opacity="1.000000" fill-rule="nonzero"/>
	<path id="Vector" d="M160.33 95.27L181.79 85.66L187.11 97.55L165.66 107.16L160.33 95.27Z" fill="#FF5A57" fill-opacity="1.000000" fill-rule="evenodd"/>
	<path id="Vector" d="M165.66 107.56C165.59 107.56 165.52 107.54 165.46 107.5C165.4 107.46 165.35 107.41 165.32 107.34L160 95.45C159.98 95.41 159.97 95.36 159.97 95.31C159.97 95.26 159.97 95.21 159.99 95.17C160.01 95.12 160.03 95.08 160.07 95.05C160.1 95.01 160.14 94.98 160.19 94.96L181.63 85.36C181.72 85.32 181.82 85.32 181.92 85.35C182.01 85.39 182.08 85.46 182.13 85.54L187.43 97.4C187.47 97.49 187.47 97.59 187.43 97.68C187.39 97.77 187.33 97.84 187.24 97.89L165.79 107.45C165.75 107.5 165.71 107.53 165.66 107.56ZM160.82 95.49L165.85 106.7L186.62 97.4L181.6 86.18L160.82 95.49Z" fill="#30325B" fill-opacity="1.000000" fill-rule="nonzero"/>
	<path id="Vector" d="M165.66 107.15L173.4 95.69L187.11 97.55L165.66 107.15Z" fill="#FF5A57" fill-opacity="1.000000" fill-rule="nonzero"/>
	<path id="Vector" d="M165.66 107.56C165.59 107.56 165.53 107.55 165.47 107.51C165.41 107.48 165.36 107.43 165.33 107.37C165.29 107.31 165.28 107.24 165.28 107.17C165.29 107.1 165.31 107.04 165.35 106.98L173.1 95.52C173.13 95.46 173.19 95.41 173.25 95.39C173.31 95.36 173.38 95.35 173.45 95.36L187.16 97.22C187.24 97.24 187.31 97.27 187.37 97.33C187.43 97.38 187.46 97.46 187.48 97.53C187.49 97.61 187.47 97.69 187.43 97.76C187.39 97.83 187.34 97.89 187.26 97.92L165.81 107.49C165.77 107.52 165.72 107.55 165.66 107.56ZM173.57 96.11L166.68 106.33L185.78 97.78L173.57 96.11Z" fill="#30325B" fill-opacity="1.000000" fill-rule="nonzero"/>
	<path id="Vector" d="M160.33 95.27L174.32 97.72L181.79 85.66L160.33 95.27Z" fill="#FF5A57" fill-opacity="1.000000" fill-rule="nonzero"/>
	<path id="Vector" d="M174.31 98.09L174.25 98.09L160.27 95.63C160.19 95.62 160.12 95.58 160.07 95.53C160.02 95.47 159.98 95.4 159.97 95.32C159.96 95.24 159.98 95.16 160.02 95.09C160.06 95.02 160.11 94.97 160.19 94.94L181.63 85.33C181.71 85.3 181.79 85.29 181.87 85.31C181.94 85.33 182.01 85.37 182.07 85.43C182.11 85.49 182.14 85.57 182.14 85.64C182.14 85.72 182.11 85.8 182.07 85.86L174.6 97.93C174.56 97.98 174.52 98.02 174.47 98.04C174.42 98.07 174.37 98.09 174.31 98.09ZM161.58 95.15L174.13 97.36L180.85 86.52L161.58 95.15Z" fill="#30325B" fill-opacity="1.000000" fill-rule="nonzero"/>
	<path id="Vector" d="M87.66 0.36L44.5 0.36C43.15 0.36 41.85 0.9 40.89 1.86C39.94 2.81 39.4 4.11 39.4 5.46L39.4 27.54C39.4 28.21 39.53 28.88 39.79 29.49C40.04 30.11 40.42 30.68 40.89 31.15C41.37 31.62 41.93 32 42.55 32.25C43.17 32.51 43.83 32.64 44.5 32.64L82.92 32.64L87.5 40.49L87.56 32.64L87.69 32.64C88.36 32.64 89.02 32.51 89.64 32.25C90.26 32 90.82 31.62 91.29 31.15C91.77 30.68 92.14 30.11 92.4 29.49C92.65 28.88 92.79 28.21 92.79 27.54L92.79 5.46C92.79 4.79 92.65 4.13 92.39 3.5C92.14 2.88 91.76 2.32 91.28 1.85C90.8 1.37 90.24 1 89.62 0.74C88.99 0.49 88.33 0.36 87.66 0.36Z" fill="#FFFFFF" fill-opacity="1.000000" fill-rule="nonzero"/>
	<path id="Vector" d="M87.47 40.86C87.41 40.86 87.35 40.84 87.29 40.81C87.24 40.77 87.19 40.73 87.16 40.67L82.69 33.01L44.5 33.01C43.05 33.01 41.66 32.43 40.64 31.41C39.61 30.38 39.03 28.99 39.03 27.54L39.03 5.46C39.03 4.01 39.61 2.62 40.64 1.6C41.66 0.57 43.05 0 44.5 0L87.66 0C89.11 0 90.5 0.57 91.52 1.6C92.55 2.62 93.13 4.01 93.13 5.46L93.13 27.54C93.12 28.95 92.58 30.3 91.61 31.32C90.63 32.34 89.31 32.94 87.9 33L87.84 40.5C87.84 40.58 87.82 40.65 87.77 40.72C87.72 40.78 87.65 40.82 87.57 40.84C87.54 40.85 87.51 40.86 87.47 40.86ZM44.5 0.73C43.25 0.73 42.04 1.23 41.16 2.12C40.27 3.01 39.77 4.21 39.77 5.46L39.77 27.54C39.77 28.8 40.27 30 41.16 30.89C42.04 31.77 43.25 32.27 44.5 32.27L82.93 32.27C82.99 32.27 83.06 32.29 83.11 32.32C83.17 32.36 83.22 32.4 83.25 32.46L87.15 39.15L87.19 32.64C87.19 32.54 87.23 32.45 87.3 32.38C87.37 32.31 87.46 32.27 87.56 32.27L87.69 32.27C88.94 32.27 90.14 31.77 91.03 30.89C91.92 30 92.42 28.8 92.42 27.54L92.42 5.46C92.42 4.21 91.92 3 91.03 2.12C90.15 1.23 88.94 0.73 87.69 0.73L44.5 0.73Z" fill="#30325B" fill-opacity="1.000000" fill-rule="nonzero"/>
	<path id="Vector" d="M58.97 17.66L78.31 5.83L61.92 12.65L58.97 17.66Z" fill="#30325B" fill-opacity="1.000000" fill-rule="nonzero"/>
	<path id="Vector" d="M58.97 18.03C58.87 18.03 58.78 17.99 58.71 17.92C58.65 17.86 58.62 17.78 58.61 17.7C58.59 17.62 58.61 17.54 58.65 17.47L61.6 12.46C61.64 12.39 61.7 12.34 61.77 12.31L78.16 5.48C78.25 5.44 78.34 5.44 78.43 5.47C78.52 5.5 78.59 5.57 78.63 5.65C78.67 5.74 78.68 5.83 78.66 5.92C78.63 6.01 78.57 6.09 78.49 6.13L59.16 17.97C59.1 18 59.04 18.03 58.97 18.03ZM62.18 12.94L60.04 16.57L74.09 7.99L62.18 12.94Z" fill="#30325B" fill-opacity="1.000000" fill-rule="nonzero"/>
	<path id="Vector" d="M61.92 12.65L68.25 15.88L78.31 5.82L61.92 12.65Z" fill="#FF5A57" fill-opacity="1.000000" fill-rule="nonzero"/>
	<path id="Vector" d="M68.25 16.22C68.2 16.23 68.15 16.23 68.09 16.22L61.77 12.99C61.71 12.95 61.65 12.9 61.61 12.83C61.58 12.77 61.57 12.69 61.58 12.62C61.58 12.55 61.6 12.49 61.64 12.44C61.68 12.39 61.73 12.35 61.79 12.32L78.18 5.49C78.25 5.47 78.33 5.47 78.4 5.49C78.47 5.51 78.54 5.56 78.58 5.63C78.62 5.69 78.64 5.77 78.63 5.84C78.62 5.92 78.59 5.99 78.54 6.04L68.49 16.11C68.42 16.18 68.34 16.21 68.25 16.22ZM62.72 12.68L68.21 15.47L76.89 6.79L62.72 12.68Z" fill="#30325B" fill-opacity="1.000000" fill-rule="nonzero"/>
	<path id="Vector" d="M78.31 5.83L57.49 10.79L52.76 8.09L78.31 5.83Z" fill="#FF5A57" fill-opacity="1.000000" fill-rule="nonzero"/>
	<path id="Vector" d="M57.49 11.15C57.43 11.15 57.37 11.13 57.33 11.1L52.59 8.39C52.53 8.36 52.48 8.3 52.45 8.24C52.42 8.17 52.41 8.1 52.42 8.03C52.44 7.96 52.48 7.9 52.53 7.85C52.59 7.8 52.65 7.77 52.73 7.77L78.28 5.5C78.36 5.5 78.45 5.52 78.51 5.57C78.58 5.62 78.62 5.7 78.64 5.78C78.65 5.86 78.64 5.95 78.59 6.02C78.54 6.09 78.47 6.14 78.39 6.16L57.57 11.15L57.49 11.15ZM53.85 8.34L57.53 10.45L73.72 6.58L53.85 8.34Z" fill="#30325B" fill-opacity="1.000000" fill-rule="nonzero"/>
	<path id="Vector" d="M57.49 10.79L58.97 17.66L61.92 12.65L78.31 5.83L57.49 10.79Z" fill="#FF5A57" fill-opacity="1.000000" fill-rule="nonzero"/>
	<path id="Vector" d="M58.97 17.99L58.92 17.99C58.85 17.98 58.79 17.95 58.74 17.9C58.69 17.85 58.66 17.79 58.64 17.72L57.17 10.87C57.16 10.82 57.16 10.78 57.17 10.74C57.17 10.69 57.19 10.65 57.21 10.61C57.24 10.58 57.27 10.54 57.3 10.52C57.34 10.5 57.38 10.48 57.42 10.47L78.24 5.49C78.32 5.47 78.4 5.49 78.48 5.53C78.55 5.57 78.61 5.63 78.64 5.71C78.66 5.79 78.66 5.88 78.62 5.96C78.59 6.04 78.53 6.1 78.45 6.13L62.15 12.91L59.26 17.83C59.23 17.88 59.19 17.92 59.14 17.95C59.08 17.97 59.03 17.99 58.97 17.99ZM57.9 11.04L59.13 16.75L61.65 12.48C61.68 12.41 61.74 12.36 61.81 12.34L74.32 7.12L57.9 11.04Z" fill="#30325B" fill-opacity="1.000000" fill-rule="nonzero"/>
	<path id="Vector" d="M84.69 148.66C84.59 148.66 84.5 148.62 84.43 148.55C84.36 148.48 84.32 148.39 84.32 148.29C84.32 148.19 84.36 148.1 84.43 148.03C84.5 147.96 84.59 147.92 84.69 147.92C85.67 147.92 86.65 147.92 87.63 147.85C87.73 147.85 87.83 147.89 87.89 147.96C87.96 148.03 88 148.12 88 148.22C88 148.32 87.96 148.41 87.89 148.48C87.83 148.55 87.73 148.59 87.63 148.59C86.65 148.62 85.66 148.64 84.69 148.66ZM81.75 148.66C80.77 148.66 79.78 148.66 78.8 148.59C78.71 148.58 78.62 148.54 78.55 148.47C78.48 148.4 78.45 148.31 78.45 148.21C78.46 148.11 78.5 148.02 78.57 147.96C78.64 147.89 78.73 147.85 78.83 147.85C79.81 147.89 80.78 147.91 81.78 147.92C81.87 147.92 81.97 147.96 82.04 148.03C82.11 148.1 82.14 148.19 82.14 148.29C82.14 148.39 82.11 148.48 82.04 148.55C81.97 148.62 81.87 148.66 81.78 148.66L81.75 148.66ZM90.58 148.45C90.48 148.45 90.4 148.42 90.33 148.35C90.26 148.29 90.22 148.2 90.22 148.11C90.21 148.06 90.22 148.01 90.24 147.97C90.25 147.92 90.28 147.88 90.31 147.84C90.34 147.81 90.38 147.78 90.42 147.75C90.47 147.73 90.51 147.72 90.56 147.72C91.54 147.67 92.51 147.6 93.51 147.52C93.55 147.52 93.6 147.52 93.65 147.54C93.7 147.55 93.74 147.58 93.77 147.61C93.81 147.64 93.84 147.68 93.86 147.72C93.88 147.76 93.89 147.81 93.9 147.86C93.9 147.91 93.9 147.96 93.88 148C93.87 148.05 93.84 148.09 93.81 148.13C93.78 148.16 93.74 148.19 93.7 148.22C93.65 148.24 93.61 148.25 93.56 148.25C92.58 148.33 91.6 148.39 90.62 148.45L90.58 148.45ZM75.86 148.45C74.87 148.39 73.89 148.33 72.91 148.25C72.87 148.24 72.82 148.23 72.78 148.21C72.73 148.19 72.69 148.16 72.66 148.12C72.63 148.08 72.61 148.04 72.59 147.99C72.58 147.95 72.57 147.9 72.58 147.85C72.58 147.8 72.59 147.75 72.62 147.71C72.64 147.67 72.67 147.63 72.71 147.6C72.74 147.57 72.78 147.54 72.83 147.53C72.88 147.51 72.93 147.51 72.97 147.51C73.95 147.59 74.92 147.66 75.92 147.72C76.01 147.72 76.11 147.76 76.18 147.83C76.25 147.89 76.29 147.99 76.29 148.09C76.29 148.18 76.25 148.28 76.18 148.35C76.11 148.42 76.01 148.45 75.92 148.45L75.86 148.45ZM96.47 147.99C96.37 147.99 96.29 147.95 96.22 147.89C96.15 147.83 96.11 147.75 96.1 147.66C96.09 147.61 96.1 147.56 96.11 147.52C96.12 147.47 96.15 147.42 96.18 147.39C96.21 147.35 96.25 147.32 96.29 147.3C96.33 147.27 96.38 147.26 96.43 147.25C97.41 147.15 98.39 147.04 99.37 146.92C99.42 146.92 99.47 146.92 99.52 146.93C99.56 146.95 99.61 146.97 99.65 147C99.69 147.03 99.72 147.06 99.74 147.11C99.77 147.15 99.78 147.2 99.79 147.24C99.79 147.29 99.79 147.34 99.78 147.39C99.77 147.43 99.74 147.48 99.71 147.52C99.68 147.56 99.65 147.59 99.61 147.61C99.56 147.64 99.52 147.65 99.47 147.66C98.49 147.79 97.51 147.9 96.52 147.99L96.47 147.99ZM70.02 147.99L69.99 147.99C69.01 147.88 68.03 147.76 67.04 147.64C66.94 147.62 66.86 147.57 66.8 147.5C66.74 147.42 66.71 147.32 66.72 147.22C66.73 147.12 66.79 147.03 66.86 146.97C66.94 146.92 67.04 146.89 67.14 146.9C68.1 147.03 69.07 147.14 70.08 147.25C70.18 147.25 70.27 147.3 70.33 147.37C70.4 147.44 70.43 147.54 70.43 147.64C70.42 147.73 70.38 147.83 70.3 147.89C70.23 147.96 70.13 147.99 70.04 147.98L70.02 147.99ZM102.31 147.25C102.22 147.25 102.14 147.22 102.07 147.17C102.01 147.11 101.96 147.03 101.95 146.95C101.94 146.9 101.94 146.85 101.95 146.8C101.96 146.75 101.98 146.71 102.01 146.67C102.04 146.63 102.08 146.6 102.12 146.57C102.16 146.55 102.21 146.53 102.26 146.53C103.22 146.38 104.19 146.22 105.16 146.06C105.21 146.05 105.25 146.06 105.3 146.07C105.35 146.08 105.39 146.1 105.43 146.12C105.47 146.15 105.5 146.19 105.53 146.23C105.55 146.27 105.57 146.32 105.58 146.36C105.59 146.41 105.59 146.46 105.58 146.51C105.57 146.55 105.55 146.6 105.52 146.64C105.49 146.68 105.46 146.71 105.42 146.73C105.38 146.76 105.33 146.78 105.28 146.78C104.31 146.95 103.34 147.11 102.34 147.25L102.31 147.25ZM64.19 147.2L64.13 147.2C63.16 147.04 62.19 146.87 61.23 146.7C61.18 146.69 61.13 146.67 61.09 146.64C61.05 146.62 61.01 146.58 60.99 146.54C60.96 146.5 60.94 146.45 60.93 146.41C60.92 146.36 60.92 146.31 60.93 146.26C60.93 146.21 60.95 146.17 60.98 146.13C61.01 146.08 61.04 146.05 61.08 146.02C61.12 145.99 61.17 145.97 61.21 145.96C61.26 145.95 61.31 145.95 61.36 145.96C62.32 146.14 63.29 146.31 64.25 146.46C64.3 146.46 64.35 146.48 64.39 146.5C64.43 146.52 64.47 146.55 64.5 146.59C64.54 146.63 64.56 146.67 64.57 146.71C64.59 146.76 64.59 146.81 64.59 146.86C64.59 146.91 64.57 146.95 64.55 147C64.53 147.04 64.5 147.08 64.46 147.11C64.43 147.14 64.38 147.16 64.34 147.18C64.29 147.19 64.24 147.2 64.19 147.2ZM108.12 146.26C108.02 146.27 107.92 146.24 107.85 146.18C107.77 146.12 107.72 146.03 107.71 145.93C107.7 145.83 107.73 145.73 107.79 145.66C107.86 145.58 107.95 145.53 108.04 145.52C109.01 145.33 109.97 145.14 110.92 144.93C111.02 144.91 111.12 144.93 111.2 144.98C111.29 145.03 111.35 145.12 111.37 145.22C111.39 145.31 111.37 145.42 111.32 145.5C111.27 145.58 111.18 145.64 111.08 145.67L108.19 146.26L108.12 146.26ZM58.42 146.11L58.33 146.11C57.37 145.91 56.41 145.69 55.46 145.45C55.41 145.44 55.37 145.42 55.33 145.39C55.29 145.36 55.26 145.33 55.23 145.29C55.21 145.25 55.19 145.2 55.18 145.15C55.18 145.1 55.18 145.06 55.19 145.01C55.22 144.92 55.27 144.83 55.36 144.78C55.44 144.73 55.54 144.72 55.63 144.74C56.58 144.97 57.53 145.19 58.49 145.39C58.54 145.4 58.58 145.42 58.62 145.45C58.66 145.48 58.7 145.51 58.72 145.56C58.75 145.6 58.77 145.64 58.77 145.69C58.78 145.74 58.78 145.79 58.77 145.83C58.75 145.92 58.7 145.99 58.63 146.04C58.56 146.09 58.48 146.12 58.39 146.11L58.42 146.11ZM113.84 145C113.75 145 113.67 144.98 113.61 144.92C113.55 144.87 113.5 144.8 113.48 144.72C113.47 144.68 113.47 144.63 113.47 144.58C113.48 144.53 113.5 144.48 113.52 144.44C113.55 144.4 113.58 144.37 113.62 144.34C113.66 144.31 113.7 144.28 113.75 144.27C114.7 144.04 115.65 143.79 116.6 143.54C116.69 143.51 116.79 143.53 116.87 143.57C116.96 143.62 117.02 143.7 117.04 143.8C117.07 143.89 117.05 143.99 117.01 144.07C116.96 144.16 116.88 144.22 116.79 144.25C115.84 144.5 114.88 144.75 113.92 144.99L113.84 145ZM52.67 144.72L52.57 144.72C51.62 144.46 50.67 144.19 49.73 143.9C49.63 143.87 49.55 143.8 49.5 143.71C49.46 143.62 49.45 143.52 49.47 143.42C49.5 143.32 49.57 143.24 49.66 143.19C49.75 143.14 49.85 143.13 49.95 143.16C50.88 143.45 51.82 143.72 52.76 143.98C52.86 144.01 52.94 144.07 52.99 144.16C53.03 144.24 53.05 144.34 53.02 144.44C53 144.51 52.96 144.58 52.9 144.64C52.84 144.69 52.76 144.72 52.68 144.72L52.67 144.72ZM119.52 143.46C119.43 143.48 119.33 143.45 119.25 143.39C119.17 143.33 119.12 143.25 119.1 143.15C119.09 143.05 119.12 142.95 119.18 142.87C119.23 142.79 119.32 142.74 119.42 142.73C120.36 142.46 121.3 142.16 122.22 141.87C122.27 141.85 122.32 141.85 122.37 141.85C122.43 141.86 122.47 141.87 122.52 141.89C122.56 141.92 122.6 141.95 122.64 141.99C122.67 142.03 122.69 142.07 122.71 142.12C122.72 142.17 122.73 142.22 122.72 142.27C122.72 142.32 122.7 142.37 122.68 142.41C122.66 142.46 122.62 142.5 122.59 142.53C122.55 142.56 122.5 142.59 122.45 142.6C121.52 142.9 120.58 143.19 119.63 143.47C119.6 143.47 119.57 143.47 119.54 143.46L119.52 143.46ZM47.05 142.99C47.01 143 46.97 143 46.93 142.99C45.99 142.68 45.07 142.34 44.15 141.99C44.07 141.95 44.01 141.88 43.98 141.8C43.94 141.71 43.94 141.62 43.98 141.53C44.01 141.45 44.07 141.38 44.15 141.34C44.23 141.3 44.32 141.28 44.41 141.31C45.32 141.65 46.24 141.98 47.16 142.29C47.25 142.33 47.33 142.39 47.37 142.48C47.42 142.57 47.42 142.67 47.39 142.77C47.37 142.83 47.32 142.89 47.26 142.93C47.2 142.97 47.13 142.99 47.06 142.99L47.05 142.99ZM125.13 141.65C125.06 141.65 124.98 141.63 124.92 141.59C124.86 141.55 124.81 141.48 124.79 141.41C124.76 141.32 124.76 141.22 124.8 141.13C124.85 141.04 124.92 140.97 125.01 140.94C125.94 140.62 126.86 140.28 127.77 139.93C127.82 139.91 127.87 139.91 127.92 139.91C127.96 139.91 128.01 139.92 128.06 139.94C128.1 139.96 128.14 139.99 128.17 140.02C128.2 140.06 128.23 140.1 128.25 140.14C128.26 140.19 128.27 140.24 128.27 140.29C128.27 140.34 128.26 140.38 128.24 140.43C128.22 140.47 128.19 140.51 128.15 140.55C128.12 140.58 128.08 140.61 128.03 140.62C127.12 140.97 126.19 141.31 125.26 141.64C125.22 141.65 125.18 141.65 125.15 141.65L125.13 141.65ZM41.55 140.92C41.5 140.93 41.45 140.93 41.41 140.92C40.5 140.53 39.58 140.14 38.7 139.74C38.66 139.72 38.62 139.69 38.58 139.65C38.55 139.62 38.52 139.58 38.51 139.53C38.49 139.48 38.48 139.44 38.49 139.39C38.49 139.34 38.5 139.29 38.52 139.25C38.54 139.2 38.57 139.16 38.61 139.13C38.64 139.1 38.68 139.07 38.73 139.06C38.77 139.04 38.82 139.03 38.87 139.03C38.92 139.04 38.97 139.05 39.01 139.07C39.88 139.47 40.78 139.87 41.69 140.24C41.73 140.26 41.77 140.28 41.81 140.32C41.84 140.35 41.87 140.39 41.89 140.44C41.91 140.48 41.92 140.53 41.92 140.58C41.92 140.63 41.91 140.67 41.89 140.72C41.86 140.78 41.81 140.83 41.75 140.86C41.69 140.89 41.63 140.91 41.56 140.91L41.55 140.92ZM130.64 139.56C130.57 139.57 130.5 139.54 130.44 139.5C130.38 139.46 130.33 139.4 130.31 139.34C130.29 139.29 130.28 139.24 130.28 139.2C130.28 139.15 130.28 139.1 130.3 139.05C130.32 139.01 130.35 138.97 130.38 138.94C130.42 138.9 130.46 138.88 130.5 138.86C131.41 138.48 132.31 138.12 133.2 137.7C133.24 137.68 133.29 137.67 133.34 137.67C133.39 137.67 133.44 137.68 133.48 137.7C133.53 137.71 133.57 137.74 133.6 137.77C133.64 137.81 133.66 137.85 133.68 137.89C133.72 137.98 133.72 138.08 133.69 138.17C133.66 138.26 133.59 138.34 133.5 138.38C132.6 138.78 131.7 139.16 130.78 139.54C130.74 139.55 130.7 139.56 130.66 139.56L130.64 139.56ZM36.22 138.47C36.16 138.47 36.11 138.45 36.06 138.43C35.17 137.99 34.3 137.52 33.44 137.05C33.4 137.03 33.36 137 33.33 136.96C33.3 136.92 33.28 136.88 33.27 136.83C33.25 136.79 33.25 136.74 33.25 136.69C33.26 136.64 33.27 136.6 33.3 136.55C33.35 136.47 33.42 136.41 33.52 136.38C33.61 136.35 33.71 136.36 33.8 136.41C34.64 136.88 35.51 137.33 36.39 137.77C36.47 137.81 36.54 137.89 36.57 137.99C36.6 138.08 36.59 138.18 36.55 138.27C36.52 138.33 36.47 138.38 36.41 138.41C36.35 138.45 36.29 138.47 36.22 138.47ZM136.04 137.17C135.97 137.17 135.9 137.16 135.84 137.12C135.78 137.08 135.74 137.03 135.71 136.97C135.69 136.92 135.67 136.88 135.67 136.83C135.67 136.78 135.67 136.73 135.69 136.68C135.71 136.64 135.73 136.6 135.76 136.56C135.79 136.52 135.83 136.49 135.88 136.47C136.76 136.05 137.64 135.61 138.5 135.16C138.59 135.12 138.69 135.11 138.78 135.14C138.88 135.17 138.96 135.23 139 135.32C139.05 135.41 139.06 135.51 139.02 135.6C139 135.7 138.93 135.77 138.84 135.82C137.97 136.27 137.09 136.71 136.19 137.14C136.14 137.16 136.09 137.17 136.04 137.16L136.04 137.17ZM31.08 135.63C31.01 135.62 30.94 135.6 30.88 135.57C30.04 135.06 29.2 134.53 28.38 133.99C28.3 133.94 28.24 133.85 28.23 133.76C28.21 133.66 28.22 133.57 28.28 133.48C28.3 133.44 28.34 133.41 28.38 133.38C28.42 133.35 28.46 133.34 28.51 133.33C28.56 133.32 28.61 133.32 28.65 133.33C28.7 133.34 28.75 133.35 28.79 133.38C29.6 133.91 30.43 134.43 31.27 134.94C31.35 134.99 31.41 135.07 31.43 135.17C31.46 135.26 31.44 135.36 31.39 135.44C31.36 135.5 31.31 135.54 31.26 135.58C31.2 135.61 31.14 135.63 31.08 135.63ZM141.26 134.46C141.2 134.46 141.14 134.44 141.08 134.41C141.02 134.37 140.97 134.33 140.94 134.27C140.89 134.19 140.89 134.09 140.91 133.99C140.94 133.9 141 133.82 141.09 133.77C141.94 133.29 142.79 132.8 143.62 132.3C143.66 132.27 143.71 132.26 143.75 132.25C143.8 132.24 143.85 132.25 143.9 132.26C143.95 132.27 143.99 132.29 144.03 132.32C144.07 132.35 144.1 132.38 144.13 132.42C144.15 132.47 144.17 132.51 144.18 132.56C144.18 132.61 144.18 132.66 144.17 132.7C144.16 132.75 144.14 132.8 144.11 132.84C144.08 132.87 144.04 132.91 144 132.93C143.16 133.42 142.31 133.91 141.44 134.4C141.39 134.44 141.33 134.45 141.26 134.46ZM26.17 132.38C26.09 132.38 26.02 132.36 25.95 132.31C25.15 131.73 24.36 131.13 23.59 130.53C23.51 130.47 23.47 130.38 23.46 130.28C23.44 130.18 23.47 130.09 23.53 130.01C23.59 129.94 23.68 129.89 23.78 129.88C23.88 129.87 23.98 129.89 24.05 129.95C24.79 130.56 25.59 131.14 26.38 131.72C26.42 131.75 26.45 131.78 26.48 131.82C26.5 131.86 26.52 131.91 26.53 131.96C26.54 132 26.54 132.05 26.53 132.1C26.52 132.15 26.5 132.19 26.47 132.23C26.43 132.28 26.39 132.32 26.33 132.34C26.28 132.37 26.22 132.38 26.17 132.38ZM21.56 128.7C21.47 128.7 21.38 128.67 21.32 128.61C20.65 128.03 19.99 127.43 19.36 126.84L19.13 126.62C19.1 126.58 19.07 126.54 19.05 126.5C19.03 126.46 19.02 126.41 19.02 126.36C19.02 126.31 19.03 126.27 19.05 126.22C19.07 126.18 19.1 126.14 19.13 126.1C19.16 126.07 19.2 126.04 19.25 126.02C19.29 126 19.34 125.99 19.39 125.99C19.44 125.99 19.49 126 19.53 126.02C19.58 126.04 19.62 126.07 19.65 126.1L19.87 126.32C20.51 126.91 21.15 127.5 21.82 128.07C21.87 128.12 21.91 128.18 21.93 128.26C21.95 128.33 21.95 128.41 21.92 128.48C21.9 128.55 21.85 128.61 21.79 128.65C21.72 128.69 21.65 128.72 21.57 128.72L21.56 128.7ZM17.29 124.65C17.19 124.65 17.1 124.61 17.03 124.54C16.33 123.81 15.66 123.07 15.01 122.38C14.97 122.35 14.95 122.31 14.93 122.26C14.91 122.22 14.9 122.17 14.9 122.12C14.9 122.07 14.91 122.03 14.93 121.98C14.95 121.94 14.97 121.9 15.01 121.86C15.04 121.83 15.08 121.8 15.13 121.78C15.17 121.77 15.22 121.76 15.27 121.76C15.32 121.76 15.37 121.77 15.41 121.78C15.46 121.8 15.5 121.83 15.53 121.86C16.18 122.6 16.85 123.34 17.53 124.01C17.57 124.04 17.59 124.08 17.61 124.13C17.63 124.17 17.64 124.22 17.64 124.27C17.64 124.32 17.63 124.36 17.61 124.41C17.59 124.45 17.57 124.49 17.53 124.53C17.47 124.61 17.39 124.66 17.29 124.68L17.29 124.65ZM13.36 120.24C13.3 120.24 13.25 120.22 13.2 120.2C13.15 120.18 13.11 120.14 13.07 120.1C12.44 119.36 11.83 118.55 11.24 117.78C11.18 117.7 11.16 117.6 11.17 117.51C11.19 117.41 11.24 117.32 11.31 117.26C11.39 117.21 11.49 117.18 11.59 117.19C11.68 117.21 11.77 117.26 11.83 117.34C12.41 118.07 13.02 118.88 13.64 119.63C13.67 119.67 13.7 119.71 13.71 119.76C13.73 119.8 13.73 119.85 13.73 119.9C13.72 119.95 13.71 120 13.69 120.04C13.66 120.08 13.63 120.12 13.6 120.15C13.54 120.23 13.46 120.28 13.36 120.3L13.36 120.24ZM9.82 115.53C9.76 115.53 9.7 115.52 9.65 115.49C9.6 115.46 9.55 115.42 9.52 115.37C8.96 114.56 8.41 113.72 7.91 112.89C7.87 112.8 7.86 112.71 7.88 112.62C7.91 112.53 7.96 112.45 8.04 112.41C8.12 112.36 8.22 112.34 8.31 112.36C8.4 112.38 8.48 112.43 8.53 112.5C9.03 113.32 9.57 114.15 10.12 114.96C10.15 115 10.17 115.04 10.18 115.09C10.19 115.14 10.19 115.19 10.18 115.23C10.17 115.28 10.15 115.33 10.13 115.37C10.1 115.41 10.07 115.44 10.03 115.47C9.98 115.54 9.9 115.58 9.82 115.6L9.82 115.53ZM6.74 110.52C6.68 110.52 6.61 110.5 6.56 110.47C6.5 110.44 6.45 110.39 6.42 110.33C5.94 109.46 5.49 108.57 5.06 107.7C5.04 107.65 5.03 107.6 5.02 107.56C5.02 107.51 5.03 107.46 5.04 107.41C5.06 107.37 5.09 107.32 5.12 107.29C5.15 107.25 5.19 107.22 5.24 107.2C5.28 107.18 5.33 107.17 5.37 107.17C5.42 107.16 5.47 107.17 5.51 107.19C5.56 107.2 5.6 107.23 5.64 107.26C5.67 107.29 5.7 107.33 5.72 107.37C6.14 108.24 6.6 109.12 7.06 109.98C7.08 110.02 7.1 110.06 7.11 110.11C7.11 110.16 7.11 110.21 7.1 110.25C7.08 110.3 7.06 110.34 7.03 110.38C7 110.42 6.96 110.45 6.92 110.47C6.88 110.53 6.81 110.57 6.74 110.59L6.74 110.52ZM4.18 105.28C4.1 105.28 4.03 105.26 3.97 105.22C3.91 105.18 3.86 105.12 3.83 105.05C3.45 104.15 3.09 103.21 2.77 102.29C2.74 102.2 2.75 102.1 2.79 102.02C2.83 101.93 2.9 101.87 2.99 101.83C3.08 101.8 3.18 101.8 3.27 101.84C3.36 101.88 3.43 101.96 3.46 102.04C3.79 102.96 4.14 103.88 4.51 104.77C4.55 104.86 4.55 104.96 4.51 105.05C4.47 105.14 4.4 105.21 4.32 105.25C4.27 105.27 4.22 105.28 4.18 105.28ZM2.22 99.73C2.14 99.73 2.06 99.71 2 99.66C1.93 99.61 1.89 99.54 1.86 99.47C1.59 98.52 1.34 97.55 1.13 96.6C1.12 96.55 1.12 96.5 1.12 96.45C1.13 96.41 1.15 96.36 1.18 96.32C1.2 96.28 1.24 96.24 1.28 96.21C1.32 96.19 1.36 96.17 1.41 96.16C1.5 96.14 1.6 96.15 1.68 96.21C1.76 96.26 1.82 96.34 1.84 96.44C2.06 97.38 2.3 98.33 2.58 99.26C2.59 99.31 2.6 99.36 2.59 99.41C2.59 99.45 2.57 99.5 2.55 99.54C2.52 99.58 2.49 99.62 2.45 99.65C2.42 99.68 2.37 99.71 2.33 99.72C2.3 99.73 2.26 99.73 2.23 99.73L2.22 99.73ZM0.93 93.99C0.84 93.99 0.76 93.96 0.69 93.91C0.62 93.85 0.58 93.77 0.56 93.68C0.41 92.7 0.28 91.72 0.19 90.74C0.18 90.64 0.21 90.54 0.27 90.47C0.33 90.39 0.42 90.35 0.52 90.34C0.62 90.33 0.72 90.36 0.79 90.42C0.87 90.49 0.91 90.58 0.92 90.67C1.02 91.63 1.14 92.6 1.3 93.57C1.31 93.61 1.3 93.66 1.29 93.71C1.28 93.76 1.26 93.8 1.24 93.84C1.21 93.88 1.17 93.91 1.13 93.94C1.09 93.97 1.04 93.98 1 93.99L0.93 93.99ZM0.36 88.14C0.27 88.14 0.18 88.1 0.11 88.03C0.04 87.97 0 87.88 0 87.78C0 87.29 0 86.81 0 86.31C0 85.81 0 85.29 0 84.79C0 84.74 0.01 84.7 0.03 84.65C0.05 84.61 0.08 84.57 0.11 84.53C0.15 84.5 0.19 84.48 0.23 84.46C0.28 84.44 0.33 84.44 0.38 84.44C0.47 84.44 0.57 84.48 0.63 84.55C0.7 84.62 0.73 84.72 0.73 84.81C0.73 85.31 0.73 85.81 0.73 86.29C0.73 86.77 0.73 87.24 0.73 87.71C0.73 87.76 0.73 87.81 0.71 87.86C0.69 87.9 0.66 87.95 0.63 87.98C0.6 88.02 0.56 88.05 0.51 88.07C0.47 88.09 0.42 88.1 0.37 88.1L0.36 88.14ZM0.56 82.25C0.51 82.25 0.47 82.24 0.42 82.21C0.38 82.19 0.34 82.16 0.31 82.12C0.28 82.09 0.26 82.04 0.24 82C0.23 81.95 0.23 81.9 0.23 81.86C0.33 80.87 0.47 79.88 0.64 78.91C0.64 78.86 0.66 78.82 0.68 78.78C0.71 78.74 0.74 78.7 0.78 78.67C0.82 78.64 0.87 78.62 0.91 78.61C0.96 78.6 1.01 78.6 1.05 78.61C1.1 78.62 1.15 78.64 1.19 78.66C1.23 78.69 1.27 78.72 1.29 78.76C1.32 78.8 1.34 78.85 1.35 78.89C1.36 78.94 1.37 78.99 1.36 79.04C1.19 79.99 1.06 80.96 0.97 81.93C0.95 82.02 0.91 82.11 0.83 82.17C0.76 82.23 0.67 82.26 0.58 82.26L0.56 82.25ZM1.56 76.45L1.47 76.45C1.42 76.44 1.38 76.42 1.34 76.39C1.3 76.36 1.27 76.33 1.24 76.29C1.22 76.24 1.2 76.2 1.19 76.15C1.19 76.1 1.19 76.05 1.2 76C1.43 75.04 1.7 74.08 2 73.15C2.03 73.06 2.1 72.98 2.19 72.94C2.27 72.89 2.37 72.88 2.47 72.91C2.51 72.93 2.56 72.95 2.59 72.98C2.63 73.01 2.66 73.05 2.68 73.09C2.7 73.14 2.72 73.18 2.72 73.23C2.72 73.28 2.72 73.33 2.7 73.37C2.41 74.29 2.14 75.23 1.92 76.18C1.9 76.26 1.85 76.33 1.79 76.38C1.73 76.43 1.65 76.46 1.57 76.46L1.56 76.45ZM3.36 70.85C3.31 70.86 3.26 70.86 3.22 70.85C3.17 70.84 3.13 70.81 3.1 70.78C3.06 70.74 3.04 70.7 3.02 70.66C3 70.61 2.99 70.56 2.99 70.52C2.99 70.47 3 70.42 3.01 70.37C3.38 69.46 3.79 68.55 4.23 67.67C4.24 67.62 4.27 67.57 4.31 67.54C4.34 67.5 4.39 67.47 4.44 67.45C4.48 67.43 4.54 67.42 4.59 67.42C4.64 67.42 4.69 67.44 4.74 67.46C4.78 67.48 4.83 67.52 4.86 67.56C4.89 67.6 4.91 67.64 4.93 67.69C4.94 67.74 4.95 67.79 4.94 67.85C4.93 67.9 4.91 67.95 4.88 67.99C4.46 68.86 4.06 69.75 3.7 70.66C3.67 70.71 3.62 70.77 3.56 70.8C3.51 70.84 3.44 70.86 3.37 70.86L3.36 70.85ZM5.96 65.61C5.9 65.61 5.83 65.59 5.78 65.55C5.74 65.53 5.7 65.5 5.67 65.46C5.64 65.42 5.62 65.38 5.61 65.33C5.6 65.29 5.59 65.24 5.6 65.19C5.61 65.14 5.62 65.1 5.65 65.05C6.15 64.21 6.67 63.36 7.21 62.54C7.27 62.47 7.35 62.42 7.45 62.4C7.54 62.39 7.63 62.41 7.7 62.46C7.78 62.51 7.84 62.59 7.86 62.68C7.88 62.77 7.87 62.86 7.83 62.94C7.3 63.75 6.77 64.59 6.28 65.42C6.25 65.48 6.2 65.52 6.15 65.56C6.09 65.59 6.03 65.61 5.96 65.61ZM9.21 60.69C9.13 60.69 9.05 60.67 8.99 60.62C8.91 60.56 8.86 60.47 8.84 60.38C8.83 60.28 8.85 60.19 8.91 60.11C9.5 59.31 10.11 58.53 10.73 57.77C10.76 57.73 10.8 57.7 10.84 57.68C10.88 57.65 10.93 57.64 10.98 57.63C11.03 57.63 11.08 57.63 11.12 57.65C11.17 57.66 11.21 57.69 11.25 57.72C11.32 57.78 11.37 57.87 11.38 57.96C11.39 58.06 11.36 58.16 11.3 58.23C10.68 58.97 10.08 59.75 9.5 60.54C9.47 60.58 9.42 60.62 9.37 60.64C9.32 60.66 9.26 60.67 9.21 60.67L9.21 60.69ZM12.94 56.14C12.9 56.14 12.85 56.13 12.81 56.12C12.77 56.1 12.73 56.08 12.7 56.05C12.66 56.01 12.64 55.97 12.62 55.93C12.6 55.88 12.59 55.83 12.59 55.78C12.59 55.74 12.6 55.69 12.62 55.64C12.64 55.6 12.66 55.56 12.7 55.52C13.36 54.79 14.06 54.05 14.76 53.4C14.79 53.36 14.83 53.33 14.88 53.32C14.92 53.3 14.97 53.29 15.02 53.29C15.06 53.29 15.11 53.3 15.16 53.32C15.2 53.33 15.24 53.36 15.27 53.4C15.31 53.43 15.34 53.47 15.35 53.52C15.37 53.56 15.38 53.61 15.38 53.66C15.38 53.71 15.37 53.75 15.35 53.8C15.34 53.84 15.31 53.88 15.27 53.92C14.58 54.59 13.9 55.29 13.24 56.02C13.2 56.05 13.15 56.08 13.1 56.1C13.05 56.12 12.99 56.12 12.94 56.12L12.94 56.14ZM17.15 52.03C17.1 52.03 17.05 52.02 17 52C16.95 51.97 16.91 51.94 16.88 51.9C16.84 51.87 16.82 51.83 16.8 51.78C16.78 51.74 16.77 51.69 16.77 51.64C16.77 51.6 16.78 51.55 16.8 51.5C16.82 51.46 16.84 51.42 16.88 51.39C17.61 50.73 18.39 50.1 19.17 49.5C19.25 49.45 19.34 49.43 19.43 49.45C19.52 49.47 19.6 49.52 19.66 49.59C19.71 49.66 19.74 49.75 19.73 49.84C19.73 49.93 19.69 50.02 19.62 50.08C18.89 50.67 18.1 51.3 17.36 51.94C17.3 51.98 17.23 52.01 17.15 52.01L17.15 52.03ZM78.31 50.86C78.24 50.86 78.18 50.85 78.12 50.81C78.06 50.78 78.02 50.73 77.99 50.67C77.5 49.84 76.93 49.07 76.28 48.38C76.21 48.3 76.18 48.21 76.18 48.11C76.19 48.01 76.23 47.92 76.31 47.85C76.38 47.79 76.48 47.76 76.58 47.76C76.67 47.77 76.76 47.81 76.83 47.88C77.53 48.62 78.13 49.44 78.63 50.33C78.66 50.37 78.67 50.42 78.67 50.46C78.68 50.51 78.67 50.56 78.66 50.61C78.65 50.65 78.62 50.7 78.59 50.73C78.56 50.77 78.52 50.8 78.48 50.82C78.42 50.84 78.37 50.85 78.31 50.84L78.31 50.86ZM21.84 48.4C21.78 48.4 21.72 48.39 21.67 48.36C21.61 48.33 21.57 48.29 21.54 48.24C21.51 48.2 21.49 48.15 21.48 48.11C21.47 48.06 21.47 48.01 21.48 47.96C21.49 47.92 21.5 47.87 21.53 47.83C21.56 47.79 21.59 47.76 21.63 47.73C22.44 47.17 23.28 46.63 24.12 46.12C24.16 46.1 24.21 46.08 24.26 46.07C24.3 46.07 24.35 46.07 24.4 46.08C24.45 46.09 24.49 46.11 24.53 46.14C24.57 46.17 24.6 46.21 24.63 46.25C24.65 46.29 24.67 46.34 24.68 46.39C24.69 46.43 24.68 46.48 24.67 46.53C24.66 46.58 24.64 46.62 24.61 46.66C24.58 46.7 24.54 46.73 24.5 46.76C23.67 47.25 22.85 47.79 22.04 48.33C21.98 48.38 21.91 48.4 21.84 48.4ZM74.43 46.47C74.34 46.47 74.26 46.44 74.2 46.38C73.45 45.77 72.67 45.19 71.85 44.67C71.81 44.64 71.78 44.61 71.75 44.57C71.72 44.53 71.71 44.48 71.7 44.43C71.69 44.39 71.69 44.34 71.69 44.29C71.7 44.24 71.72 44.2 71.75 44.16C71.77 44.12 71.81 44.08 71.85 44.05C71.89 44.03 71.93 44.01 71.98 44C72.03 43.99 72.08 43.99 72.13 44C72.17 44 72.22 44.02 72.26 44.05C73.1 44.59 73.9 45.19 74.67 45.82C74.72 45.87 74.76 45.94 74.78 46.01C74.8 46.08 74.8 46.16 74.77 46.23C74.75 46.3 74.7 46.36 74.64 46.4C74.58 46.45 74.51 46.47 74.43 46.47ZM26.84 45.37C26.78 45.37 26.71 45.35 26.65 45.31C26.59 45.28 26.54 45.23 26.51 45.17C26.47 45.08 26.46 44.98 26.49 44.89C26.52 44.8 26.58 44.72 26.67 44.67C27.54 44.22 28.43 43.78 29.34 43.38C29.38 43.36 29.43 43.35 29.48 43.35C29.53 43.34 29.58 43.35 29.62 43.37C29.66 43.39 29.71 43.41 29.74 43.45C29.78 43.48 29.8 43.52 29.82 43.56C29.86 43.65 29.86 43.75 29.83 43.84C29.79 43.93 29.73 44.01 29.64 44.05C28.75 44.45 27.87 44.87 27.01 45.32C26.96 45.35 26.9 45.37 26.84 45.37ZM69.53 43.25C69.47 43.25 69.42 43.23 69.37 43.2C68.52 42.78 67.62 42.39 66.71 42.03C66.62 42 66.55 41.93 66.51 41.84C66.47 41.75 66.46 41.65 66.5 41.56C66.51 41.52 66.54 41.47 66.57 41.44C66.61 41.4 66.65 41.37 66.69 41.36C66.74 41.34 66.78 41.32 66.83 41.32C66.88 41.32 66.93 41.33 66.98 41.35C67.91 41.71 68.83 42.08 69.7 42.55C69.79 42.59 69.85 42.67 69.88 42.76C69.91 42.85 69.9 42.95 69.86 43.04C69.83 43.11 69.78 43.16 69.71 43.2C69.65 43.24 69.57 43.25 69.5 43.25L69.53 43.25ZM32.24 42.95C32.16 42.95 32.09 42.93 32.03 42.89C31.97 42.85 31.92 42.79 31.89 42.72C31.87 42.67 31.87 42.62 31.87 42.58C31.87 42.53 31.88 42.48 31.9 42.44C31.92 42.39 31.95 42.35 31.98 42.32C32.02 42.29 32.06 42.26 32.11 42.25C33.03 41.89 33.97 41.57 34.91 41.28C34.96 41.26 35 41.25 35.05 41.26C35.1 41.26 35.15 41.27 35.19 41.3C35.23 41.32 35.27 41.35 35.3 41.39C35.33 41.43 35.35 41.47 35.37 41.52C35.38 41.56 35.39 41.61 35.38 41.66C35.38 41.71 35.36 41.75 35.34 41.8C35.32 41.84 35.29 41.88 35.25 41.91C35.21 41.94 35.17 41.96 35.12 41.97C34.2 42.27 33.27 42.58 32.36 42.93C32.31 42.95 32.26 42.96 32.21 42.95L32.24 42.95ZM37.85 41.19C37.75 41.21 37.65 41.18 37.57 41.12C37.5 41.06 37.45 40.97 37.43 40.87C37.42 40.77 37.45 40.67 37.51 40.6C37.57 40.52 37.66 40.47 37.76 40.46C38.71 40.21 39.68 40 40.65 39.82C40.7 39.81 40.75 39.81 40.79 39.82C40.84 39.83 40.89 39.84 40.93 39.87C40.97 39.9 41 39.93 41.03 39.97C41.06 40.01 41.07 40.06 41.08 40.1C41.1 40.2 41.08 40.3 41.03 40.38C40.97 40.46 40.89 40.52 40.79 40.54C39.83 40.72 38.88 40.94 37.93 41.17L37.85 41.19ZM64.05 41.13L63.95 41.13C63.04 40.87 62.09 40.63 61.12 40.44C61.07 40.43 61.02 40.41 60.98 40.38C60.94 40.35 60.91 40.32 60.88 40.28C60.86 40.24 60.84 40.19 60.83 40.15C60.82 40.1 60.82 40.05 60.83 40C60.85 39.91 60.91 39.82 60.99 39.77C61.07 39.72 61.17 39.7 61.26 39.71C62.25 39.92 63.22 40.16 64.15 40.45C64.24 40.48 64.32 40.54 64.37 40.63C64.42 40.71 64.43 40.81 64.41 40.91C64.37 40.98 64.32 41.04 64.25 41.08C64.18 41.12 64.1 41.14 64.02 41.13L64.05 41.13ZM43.62 40.08C43.58 40.09 43.53 40.08 43.48 40.06C43.43 40.05 43.39 40.03 43.36 39.99C43.28 39.93 43.24 39.84 43.23 39.74C43.22 39.64 43.25 39.55 43.32 39.47C43.38 39.4 43.47 39.35 43.57 39.35C44.54 39.21 45.53 39.1 46.52 39.02C46.56 39.02 46.61 39.02 46.66 39.04C46.71 39.05 46.75 39.08 46.78 39.11C46.82 39.14 46.85 39.18 46.87 39.22C46.9 39.27 46.91 39.31 46.91 39.36C46.92 39.41 46.91 39.46 46.9 39.5C46.88 39.55 46.86 39.59 46.83 39.63C46.79 39.67 46.76 39.7 46.71 39.72C46.67 39.74 46.62 39.75 46.57 39.76C45.61 39.85 44.63 39.95 43.67 40.08L43.62 40.08ZM58.29 39.95L58.24 39.95C57.3 39.83 56.33 39.73 55.34 39.66C55.29 39.66 55.24 39.65 55.2 39.63C55.16 39.61 55.12 39.58 55.09 39.54C55.05 39.5 55.03 39.46 55.01 39.42C55 39.37 54.99 39.32 54.99 39.27C55 39.17 55.05 39.08 55.12 39.02C55.2 38.95 55.29 38.92 55.39 38.93C56.39 39 57.39 39.1 58.33 39.22C58.38 39.22 58.43 39.24 58.47 39.26C58.52 39.28 58.56 39.31 58.59 39.34C58.62 39.38 58.65 39.42 58.66 39.47C58.68 39.51 58.68 39.56 58.68 39.61C58.68 39.66 58.67 39.71 58.64 39.75C58.62 39.79 58.59 39.83 58.56 39.87C58.52 39.9 58.48 39.92 58.43 39.94C58.39 39.95 58.34 39.96 58.29 39.96L58.29 39.95ZM49.46 39.58C49.36 39.58 49.27 39.54 49.2 39.47C49.14 39.41 49.1 39.32 49.09 39.22C49.09 39.12 49.12 39.03 49.19 38.96C49.26 38.89 49.35 38.84 49.44 38.84C50.42 38.84 51.42 38.79 52.39 38.84C52.49 38.84 52.58 38.88 52.64 38.95C52.71 39.02 52.75 39.12 52.75 39.21C52.75 39.26 52.74 39.31 52.72 39.35C52.7 39.4 52.67 39.44 52.64 39.47C52.6 39.51 52.56 39.53 52.52 39.55C52.47 39.57 52.42 39.58 52.37 39.58C51.41 39.58 50.42 39.58 49.43 39.58L49.46 39.58Z" fill="#D1D3D4" fill-opacity="1.000000" fill-rule="nonzero"/>
</svg>
