<svg width="255.440430" height="151.362305" viewBox="0 0 255.44 151.362" fill="none" xmlns="http://www.w3.org/2000/svg" xmlns:xlink="http://www.w3.org/1999/xlink">
	<desc>
			Created with Pixso.
	</desc>
	<defs/>
	<path id="Vector" d="M0.39 114.95L0.39 121.53L116.11 150.97L255 99.93L255 94.67L0.39 114.95Z" fill="#FFFFFF" fill-opacity="1.000000" fill-rule="nonzero"/>
	<path id="Vector" d="M116.11 151.35C116.08 151.36 116.04 151.36 116.01 151.35L0.29 121.91C0.21 121.89 0.13 121.84 0.08 121.77C0.03 121.7 0 121.62 0 121.53L0 114.94C0 114.84 0.03 114.75 0.1 114.68C0.17 114.61 0.26 114.56 0.35 114.56L254.96 94.27C255.01 94.27 255.07 94.27 255.12 94.29C255.17 94.31 255.22 94.33 255.26 94.37C255.3 94.41 255.33 94.45 255.35 94.5C255.37 94.55 255.39 94.6 255.39 94.65L255.39 99.91C255.39 99.99 255.36 100.07 255.32 100.14C255.27 100.2 255.21 100.25 255.13 100.28L116.24 151.35C116.19 151.36 116.15 151.36 116.11 151.35ZM0.78 121.23L116.08 150.57L254.61 99.67L254.61 95.1L0.78 115.31L0.78 121.23Z" fill="#30325B" fill-opacity="1.000000" fill-rule="nonzero"/>
	<path id="Vector" d="M143.06 50.21C143.17 49.85 138.38 44.2 138.38 44.2C138.38 44.2 137.14 38.78 134.87 35.19C132.6 31.6 129.74 27.73 126.59 27.95C123.44 28.16 116.78 27.43 115.75 30.07C114.73 32.71 119.27 41.27 122.2 44.2C125.13 47.12 130.27 49.32 130.27 49.32L134.42 56.8C134.42 56.8 141.74 54.38 143.06 50.21Z" fill="#FFFFFF" fill-opacity="1.000000" fill-rule="nonzero"/>
	<path id="Vector" d="M134.42 57.2C134.35 57.19 134.28 57.17 134.22 57.14C134.16 57.1 134.1 57.05 134.07 56.99L129.98 49.64C129.14 49.28 124.64 47.21 121.9 44.49C119.17 41.76 114.21 32.91 115.37 29.92C116.27 27.58 120.6 27.58 124.08 27.58C125 27.58 125.88 27.58 126.55 27.52C129.9 27.29 132.8 31.15 135.2 34.96C137.35 38.35 138.56 43.23 138.75 44C143.63 49.75 143.52 50.06 143.43 50.31C142.06 54.63 134.85 57.06 134.53 57.16C134.5 57.18 134.46 57.19 134.42 57.2ZM126.84 28.33L126.62 28.33C125.91 28.38 125.02 28.38 124.08 28.38C121.02 28.38 116.83 28.38 116.12 30.2C115.18 32.63 119.63 41.05 122.47 43.9C125.32 46.76 130.37 48.92 130.42 48.94C130.51 48.98 130.57 49.04 130.62 49.11L134.61 56.28C135.98 55.78 141.46 53.57 142.64 50.18C142.31 49.57 140.11 46.86 138.07 44.45C138.03 44.4 138 44.34 137.98 44.28C137.98 44.22 136.73 38.88 134.52 35.39C132.31 31.9 129.66 28.34 126.84 28.34L126.84 28.33Z" fill="#30325B" fill-opacity="1.000000" fill-rule="nonzero"/>
	<path id="Vector" d="M105.38 21.78L118.43 15.14L132.99 43.74L119.94 50.38L105.38 21.78Z" fill="#30325B" fill-opacity="1.000000" fill-rule="evenodd"/>
	<path id="Vector" d="M119.94 50.78C119.9 50.79 119.86 50.79 119.82 50.78C119.72 50.75 119.64 50.68 119.59 50.6L105.07 21.96C105.04 21.92 105.03 21.87 105.02 21.82C105.02 21.77 105.02 21.71 105.04 21.67C105.05 21.62 105.08 21.57 105.11 21.53C105.14 21.49 105.18 21.46 105.23 21.44L118.25 14.81C118.34 14.77 118.45 14.76 118.55 14.79C118.65 14.83 118.73 14.89 118.77 14.99L133.34 43.6C133.38 43.69 133.38 43.8 133.34 43.89C133.31 43.99 133.24 44.07 133.14 44.12L120.12 50.7C120.07 50.75 120.01 50.77 119.94 50.78ZM105.9 21.95L120.11 49.87L132.47 43.58L118.26 15.66L105.9 21.95Z" fill="#30325B" fill-opacity="1.000000" fill-rule="nonzero"/>
	<path id="Vector" d="M127.32 29.47C125.57 29.5 123.84 29.87 122.23 30.57C121.63 30.77 121.1 31.16 120.73 31.67C120.48 32.16 120.43 32.73 120.59 33.26C120.74 33.79 121.09 34.25 121.56 34.54C122.04 34.81 122.58 34.98 123.13 35.04C123.68 35.09 124.23 35.04 124.76 34.87C124.05 35.15 123.2 35.65 123.25 36.39C123.29 37.12 124.17 37.53 124.9 37.5C125.63 37.46 126.35 37.14 127.08 37.14C126.84 37.31 126.65 37.53 126.51 37.79C126.37 38.05 126.3 38.34 126.3 38.63C126.31 39.23 126.44 39.81 126.7 40.34C126.82 40.69 127.04 41 127.33 41.24C127.75 41.48 128.23 41.58 128.72 41.52C130.87 41.45 133.01 41.07 135.06 40.4L127.32 29.47Z" fill="#FFFFFF" fill-opacity="1.000000" fill-rule="nonzero"/>
	<path id="Vector" d="M128.47 41.93C127.98 41.96 127.5 41.83 127.09 41.57C126.74 41.29 126.47 40.92 126.31 40.5C126.03 39.92 125.88 39.28 125.87 38.63C125.88 38.3 125.96 37.99 126.09 37.69L125.98 37.69C125.63 37.78 125.27 37.84 124.91 37.87C124.33 37.91 123.75 37.72 123.31 37.35C123.17 37.23 123.05 37.08 122.97 36.91C122.89 36.75 122.84 36.57 122.83 36.38C122.81 36.03 122.93 35.69 123.16 35.42C122.51 35.4 121.88 35.2 121.33 34.85C120.77 34.5 120.36 33.96 120.18 33.33C120.01 32.7 120.07 32.02 120.37 31.43C120.79 30.85 121.38 30.41 122.06 30.17C123.72 29.46 125.5 29.08 127.31 29.04C127.36 29.04 127.42 29.04 127.47 29.06C127.52 29.08 127.56 29.11 127.6 29.15C127.64 29.18 127.67 29.23 127.69 29.28C127.71 29.33 127.72 29.38 127.72 29.44C127.72 29.54 127.68 29.64 127.61 29.72C127.53 29.8 127.43 29.84 127.33 29.84C125.62 29.88 123.94 30.25 122.37 30.91C121.85 31.09 121.39 31.42 121.05 31.86C120.87 32.26 120.83 32.73 120.97 33.16C121.1 33.59 121.38 33.96 121.76 34.2C122.2 34.43 122.68 34.58 123.17 34.62C123.67 34.67 124.17 34.62 124.64 34.48C124.74 34.45 124.85 34.46 124.94 34.51C125.03 34.56 125.09 34.64 125.13 34.74C125.16 34.84 125.15 34.95 125.11 35.04C125.06 35.13 124.99 35.2 124.89 35.24C124.04 35.58 123.62 35.96 123.64 36.36C123.64 36.44 123.66 36.51 123.7 36.58C123.73 36.65 123.78 36.71 123.85 36.76C124.13 36.99 124.5 37.11 124.87 37.08C125.18 37.06 125.49 37 125.8 36.92C126.21 36.81 126.64 36.75 127.08 36.73C127.16 36.73 127.25 36.76 127.32 36.82C127.39 36.87 127.44 36.95 127.46 37.04C127.48 37.12 127.48 37.21 127.44 37.29C127.41 37.37 127.35 37.44 127.28 37.48C127.09 37.61 126.94 37.78 126.83 37.99C126.73 38.19 126.67 38.41 126.68 38.64C126.69 39.18 126.81 39.72 127.04 40.2C127.14 40.49 127.31 40.74 127.54 40.94C127.89 41.12 128.28 41.19 128.67 41.14C130.8 41.08 132.9 40.71 134.92 40.04C135.02 40.01 135.13 40.02 135.23 40.07C135.33 40.12 135.4 40.2 135.43 40.3C135.46 40.41 135.46 40.52 135.41 40.62C135.36 40.71 135.27 40.79 135.17 40.82C133.08 41.51 130.9 41.9 128.71 41.97L128.47 41.93Z" fill="#30325B" fill-opacity="1.000000" fill-rule="nonzero"/>
	<path id="Vector" d="M26.78 22.94C26.78 22.94 46.11 30.74 59 27.54C71.88 24.34 83.31 16.87 87.08 22.94C90.86 29.01 92 108.67 92 108.67L41.13 117.63L27.95 45.41L26.78 22.94Z" fill="#30325B" fill-opacity="1.000000" fill-rule="nonzero"/>
	<path id="Vector" d="M41.13 118.02C41.04 118.02 40.95 117.99 40.88 117.93C40.81 117.87 40.76 117.79 40.75 117.7L27.57 45.48L26.39 22.95C26.39 22.89 26.4 22.82 26.43 22.76C26.46 22.7 26.5 22.65 26.55 22.62C26.61 22.58 26.67 22.57 26.74 22.57C26.8 22.57 26.87 22.58 26.92 22.62C27.12 22.69 46.29 30.36 58.91 27.2C62.72 26.18 66.47 24.97 70.14 23.56C78.25 20.62 84.65 18.29 87.45 22.78C91.27 28.87 92.38 105.48 92.43 108.72C92.43 108.81 92.4 108.9 92.34 108.97C92.28 109.04 92.2 109.09 92.11 109.11L41.2 118.01L41.13 118.02ZM27.19 23.51L28.34 45.36L41.44 117.14L91.64 108.3C91.55 102.69 90.37 28.8 86.79 23.09C84.31 19.19 78.2 21.38 70.4 24.21C66.7 25.62 62.92 26.84 59.09 27.87C47.46 30.82 30.49 24.76 27.19 23.51Z" fill="#30325B" fill-opacity="1.000000" fill-rule="nonzero"/>
	<path id="Vector" d="M85.29 37.21C85.29 37.21 68.59 35.01 62.44 47.53C56.28 60.05 56.69 120.02 56.69 120.02L110.37 110C110.37 110 112.53 83.31 118.45 72.99C124.38 62.66 121.38 54.44 118.45 50.8C115.99 47.76 98.9 35.58 85.29 37.21Z" fill="#FF5A57" fill-opacity="1.000000" fill-rule="nonzero"/>
	<path id="Vector" d="M88.26 49.84L96.31 92.71L108.23 57.64L88.26 49.84Z" fill="#30325B" fill-opacity="1.000000" fill-rule="nonzero"/>
	<path id="Vector" d="M96.32 93.09C96.23 93.09 96.15 93.05 96.09 93C96.03 92.94 95.98 92.86 95.97 92.78L87.9 49.92C87.89 49.86 87.89 49.78 87.91 49.72C87.94 49.65 87.98 49.59 88.03 49.55C88.09 49.5 88.15 49.48 88.22 49.46C88.29 49.45 88.36 49.46 88.42 49.49L108.39 57.29C108.48 57.32 108.56 57.39 108.6 57.48C108.64 57.58 108.65 57.68 108.62 57.77L96.71 92.88C96.67 92.95 96.62 93.01 96.55 93.05C96.48 93.09 96.4 93.1 96.32 93.09ZM88.77 50.46L96.42 91.18L107.74 57.87L88.77 50.46Z" fill="#30325B" fill-opacity="1.000000" fill-rule="nonzero"/>
	<path id="Vector" d="M95.66 57.43L98.24 64.45C98.24 64.45 94.27 81.86 94.34 82.15L96.32 92.7L99.84 82.32L99.93 63.59L103.13 57.88L95.66 57.43Z" fill="#FFFFFF" fill-opacity="1.000000" fill-rule="nonzero"/>
	<path id="Vector" d="M96.32 93.1C96.23 93.1 96.15 93.06 96.09 93.01C96.02 92.95 95.98 92.87 95.96 92.79C95.96 92.79 94.04 82.54 93.98 82.25C93.98 82.14 93.91 81.87 97.88 64.49L95.34 57.57C95.31 57.51 95.31 57.44 95.32 57.38C95.33 57.32 95.35 57.25 95.39 57.2C95.43 57.15 95.48 57.11 95.54 57.08C95.6 57.06 95.66 57.04 95.73 57.05L103.19 57.49C103.26 57.49 103.32 57.51 103.38 57.55C103.44 57.58 103.48 57.63 103.51 57.69C103.55 57.75 103.56 57.81 103.56 57.88C103.56 57.95 103.55 58.01 103.51 58.07L100.39 63.69L100.31 82.33C100.31 82.37 100.31 82.42 100.31 82.46L96.69 92.83C96.66 92.91 96.61 92.98 96.54 93.03C96.48 93.07 96.4 93.1 96.32 93.1ZM94.76 82.14C94.88 82.75 95.94 88.44 96.45 91.17L99.48 82.26L99.56 63.58C99.57 63.51 99.59 63.45 99.62 63.39L102.51 58.23L96.27 57.86L98.65 64.33C98.67 64.4 98.67 64.47 98.65 64.54C97.1 71.22 94.83 81.31 94.73 82.14L94.76 82.14Z" fill="#30325B" fill-opacity="1.000000" fill-rule="nonzero"/>
	<path id="Vector" d="M41.13 117.63C41.13 117.63 47.28 45.53 35.56 28.77C23.85 12.01 17.11 35.33 16.53 48.57C15.94 61.8 25.31 115.66 25.31 115.66L41.13 117.63Z" fill="#30325B" fill-opacity="1.000000" fill-rule="nonzero"/>
	<path id="Vector" d="M41.13 118.02L41.09 118.02L25.27 116.06C25.19 116.05 25.12 116.02 25.05 115.96C24.99 115.91 24.95 115.83 24.94 115.75C24.85 115.2 15.58 61.68 16.15 48.55C16.57 38.95 20.05 24.6 26.43 22.74C29.41 21.87 32.59 23.83 35.89 28.55C40.8 35.58 43.24 52.74 43.14 79.49C43.06 99.4 41.54 117.48 41.53 117.66C41.52 117.76 41.48 117.85 41.4 117.92C41.33 117.99 41.24 118.02 41.14 118.02L41.13 118.02ZM25.65 115.33L40.78 117.19C41.25 111.37 46.3 44.81 35.25 29.03C32.12 24.61 29.26 22.79 26.66 23.52C20.72 25.25 17.35 39.52 16.94 48.62C16.36 61.14 24.92 111.08 25.65 115.33Z" fill="#30325B" fill-opacity="1.000000" fill-rule="nonzero"/>
	<path id="Vector" d="M176.49 82.74L0.39 114.95L115.11 142.62L255 94.67L176.49 82.74Z" fill="#FFFFFF" fill-opacity="1.000000" fill-rule="nonzero"/>
	<path id="Vector" d="M115.11 143.03L115.02 143.03L0.33 115.35C0.24 115.33 0.16 115.28 0.11 115.2C0.05 115.13 0.02 115.04 0.03 114.95C0.03 114.86 0.06 114.77 0.12 114.7C0.18 114.63 0.26 114.58 0.35 114.57L176.46 82.36C176.51 82.35 176.55 82.35 176.59 82.36L255.09 94.29C255.18 94.3 255.26 94.34 255.33 94.41C255.39 94.48 255.43 94.56 255.43 94.65C255.44 94.74 255.42 94.83 255.37 94.91C255.32 94.98 255.25 95.04 255.16 95.07L115.25 143C115.2 143.02 115.16 143.03 115.11 143.03ZM2.33 114.99L115.09 142.2L253.3 94.83L176.49 83.12L2.33 114.99Z" fill="#30325B" fill-opacity="1.000000" fill-rule="nonzero"/>
	<path id="Vector" d="M231.66 94.75C231.66 97.42 224.49 99.58 215.65 99.58C206.81 99.58 199.64 97.42 199.64 94.75C199.64 92.09 206.81 89.93 215.65 89.93C224.49 89.93 231.66 92.09 231.66 94.75Z" fill="#FFFFFF" fill-opacity="1.000000" fill-rule="evenodd"/>
	<path id="Vector" d="M215.65 99.97C207.6 99.97 199.27 98.02 199.27 94.75C199.27 91.49 207.61 89.54 215.65 89.54C223.7 89.54 232.04 91.49 232.04 94.75C232.04 98.02 223.72 99.97 215.65 99.97ZM215.65 90.32C206.29 90.32 200.05 92.62 200.05 94.75C200.05 96.89 206.29 99.19 215.65 99.19C225.02 99.19 231.26 96.89 231.26 94.75C231.26 92.62 225 90.32 215.65 90.32Z" fill="#D1D3D4" fill-opacity="1.000000" fill-rule="nonzero"/>
	<path id="Vector" d="M227.72 81.65L228.11 81.71C229.26 81.88 230.32 82.48 231.06 83.38C231.48 84.02 231.71 84.76 231.73 85.53C231.75 86.29 231.55 87.04 231.16 87.7C229.46 90.77 225.31 91.6 222.13 91.91C221.68 91.98 221.22 91.95 220.79 91.81C220.58 91.76 220.4 91.65 220.26 91.49C220.12 91.33 220.04 91.13 220.03 90.91C220.02 90.7 220.07 90.49 220.18 90.32C220.3 90.14 220.47 90 220.66 89.92C221 89.76 221.35 89.66 221.72 89.63C223.71 89.3 225.8 89.06 227.61 88.14C228.67 87.61 230.14 86.37 229.37 85.06C229.1 84.64 228.71 84.31 228.25 84.11C226.44 83.24 224.7 83.9 222.9 84.43C222.77 84.48 222.63 84.5 222.5 84.5C222.33 84.45 222.19 84.34 222.09 84.2C222 84.06 221.96 83.89 221.97 83.71C222.04 82.93 222.82 82.41 223.53 82.15C224.86 81.62 226.31 81.45 227.72 81.65Z" fill="#FFFFFF" fill-opacity="1.000000" fill-rule="nonzero"/>
	<path id="Vector" d="M221.59 92.34C221.27 92.34 220.95 92.29 220.65 92.17C220.37 92.09 220.13 91.93 219.95 91.71C219.78 91.49 219.67 91.22 219.65 90.94C219.63 90.65 219.7 90.37 219.85 90.13C220 89.89 220.22 89.7 220.47 89.58C220.85 89.4 221.25 89.29 221.66 89.24L222.39 89.12C224.13 88.94 225.83 88.49 227.43 87.79C228.19 87.46 228.8 86.87 229.15 86.12C229.19 85.97 229.21 85.82 229.18 85.68C229.16 85.53 229.11 85.39 229.03 85.26C228.81 84.91 228.47 84.63 228.08 84.48C226.56 83.75 225.06 84.2 223.48 84.68L223.01 84.82C222.83 84.89 222.63 84.91 222.44 84.89C222.17 84.83 221.93 84.67 221.78 84.45C221.62 84.22 221.55 83.94 221.58 83.67C221.64 82.89 222.29 82.18 223.42 81.75C224.81 81.22 226.31 81.05 227.78 81.27L228.18 81.34C229.43 81.54 230.57 82.18 231.37 83.16C231.84 83.86 232.1 84.68 232.12 85.52C232.15 86.36 231.93 87.19 231.51 87.91C230.11 90.42 227.06 91.86 222.14 92.32C221.99 92.32 221.79 92.34 221.59 92.34ZM226.36 83.3C227.08 83.3 227.78 83.45 228.43 83.76C228.95 83.99 229.4 84.37 229.7 84.86C229.84 85.08 229.93 85.32 229.96 85.58C230 85.83 229.97 86.09 229.9 86.34C229.49 87.29 228.73 88.06 227.78 88.49C226.11 89.23 224.33 89.7 222.51 89.89L221.79 90.01C221.46 90.04 221.14 90.13 220.85 90.27C220.74 90.32 220.65 90.4 220.58 90.49C220.5 90.58 220.45 90.69 220.43 90.81C220.44 90.95 220.5 91.09 220.59 91.2C220.68 91.31 220.8 91.4 220.93 91.45C221.31 91.56 221.71 91.59 222.1 91.52C226.71 91.1 229.56 89.78 230.82 87.51C231.18 86.92 231.36 86.24 231.34 85.55C231.33 84.86 231.13 84.19 230.75 83.61C230.06 82.79 229.09 82.26 228.03 82.1L227.67 82.04C226.33 81.83 224.96 81.98 223.7 82.47C223.31 82.62 222.43 83.03 222.37 83.72C222.37 83.9 222.45 84.1 222.56 84.11C222.64 84.11 222.72 84.09 222.8 84.07L223.26 83.93C224.26 83.57 225.31 83.36 226.36 83.3Z" fill="#D1D3D4" fill-opacity="1.000000" fill-rule="nonzero"/>
	<path id="Vector" d="M226.23 78.36C226.23 78.36 223.23 93.32 222.99 94.22C222.75 95.11 214.79 97.43 210.02 95.18L205.08 79.9L226.23 78.36Z" fill="#FFFFFF" fill-opacity="1.000000" fill-rule="nonzero"/>
	<path id="Vector" d="M215.03 96.53C213.25 96.57 211.48 96.23 209.85 95.54C209.8 95.51 209.76 95.48 209.72 95.44C209.69 95.4 209.66 95.35 209.65 95.3L204.72 80.02C204.7 79.96 204.69 79.9 204.7 79.84C204.71 79.78 204.73 79.73 204.77 79.68C204.8 79.63 204.84 79.59 204.89 79.56C204.94 79.53 205 79.51 205.06 79.51L226.2 77.95C226.26 77.95 226.32 77.96 226.38 77.98C226.43 78 226.48 78.04 226.52 78.08C226.56 78.13 226.59 78.18 226.61 78.24C226.62 78.3 226.63 78.36 226.62 78.42C226.49 79.03 223.6 93.39 223.36 94.29C223.28 94.58 222.98 94.83 222.36 95.12C220.03 96.05 217.54 96.53 215.03 96.53ZM210.35 94.9C214.92 96.93 222.17 94.75 222.64 94.08C222.83 93.3 225.23 81.41 225.76 78.79L205.62 80.25L210.35 94.9Z" fill="#D1D3D4" fill-opacity="1.000000" fill-rule="nonzero"/>
	<path id="Vector" d="M226.22 78.36C226.33 80.89 221.67 83.13 215.82 83.37C209.97 83.61 205.14 81.76 205.04 79.23C204.93 76.69 209.59 74.45 215.44 74.21C221.29 73.97 226.12 75.82 226.22 78.36Z" fill="#D1D3D4" fill-opacity="1.000000" fill-rule="evenodd"/>
	<path id="Vector" d="M214.8 83.79C212.53 83.83 210.27 83.46 208.13 82.69C205.94 81.85 204.7 80.62 204.64 79.23C204.53 76.44 209.26 74.06 215.43 73.77C218.04 73.61 220.66 73.97 223.14 74.83C225.32 75.67 226.56 76.9 226.61 78.29C226.67 79.68 225.55 81.01 223.43 82.03C221.03 83.08 218.45 83.66 215.83 83.71C215.49 83.77 215.15 83.79 214.8 83.79ZM216.46 74.58L215.46 74.58C209.93 74.8 205.31 76.92 205.42 79.19C205.46 80.24 206.56 81.24 208.41 81.96C213.22 83.51 218.42 83.29 223.09 81.36C224.88 80.49 225.88 79.4 225.83 78.35C225.79 77.31 224.7 76.3 222.85 75.58C220.8 74.87 218.64 74.53 216.46 74.58Z" fill="#D1D3D4" fill-opacity="1.000000" fill-rule="nonzero"/>
	<path id="Vector" d="M115.82 105.72C115.82 105.72 154.05 93.66 154.7 93.66C155.36 93.66 203.69 101.95 203.69 101.95L163.58 115.68L115.82 105.72Z" fill="#FFFFFF" fill-opacity="1.000000" fill-rule="nonzero"/>
	<path id="Vector" d="M163.58 116.09L163.5 116.09L115.74 106.1C115.65 106.08 115.57 106.03 115.52 105.97C115.46 105.9 115.43 105.81 115.42 105.72C115.41 105.64 115.44 105.55 115.49 105.47C115.54 105.4 115.62 105.35 115.7 105.32C124.68 102.49 154.03 93.24 154.71 93.24C155.39 93.24 198.82 100.69 203.76 101.54C203.86 101.55 203.94 101.59 204.01 101.66C204.07 101.73 204.11 101.81 204.12 101.91C204.13 102 204.1 102.09 204.05 102.17C203.99 102.24 203.92 102.3 203.83 102.32L163.7 116.06C163.66 116.07 163.62 116.08 163.58 116.09ZM117.43 105.64L163.56 115.27L202.09 102.08C185.21 99.19 155.55 94.12 154.71 94.06C153.77 94.21 128.74 102.07 117.41 105.64L117.43 105.64Z" fill="#30325B" fill-opacity="1.000000" fill-rule="nonzero"/>
	<path id="Vector" d="M168.96 110.78L168.9 110.78L143.16 107.12C143.07 107.11 142.99 107.07 142.93 107.01C142.87 106.95 142.83 106.87 142.82 106.79C142.81 106.7 142.83 106.62 142.87 106.54C142.91 106.47 142.98 106.41 143.05 106.37L165.19 96.96C165.26 96.95 165.32 96.95 165.39 96.96L190.27 100.46C190.37 100.46 190.46 100.49 190.53 100.56C190.6 100.62 190.65 100.71 190.67 100.8C190.68 100.9 190.66 100.99 190.6 101.07C190.55 101.15 190.47 101.21 190.38 101.24L169.11 110.8C169.06 110.81 169 110.8 168.96 110.78ZM144.66 106.54L168.89 110L188.84 101.03L165.43 97.74L144.66 106.54Z" fill="#D1D3D4" fill-opacity="1.000000" fill-rule="nonzero"/>
	<path id="Vector" d="M163.56 115.68L115.6 110.02L115.82 105.72L163.56 112.11L163.56 115.68Z" fill="#FFFFFF" fill-opacity="1.000000" fill-rule="nonzero"/>
	<path id="Vector" d="M163.58 116.09L163.54 116.09L115.58 110.44C115.52 110.43 115.47 110.42 115.43 110.39C115.38 110.37 115.34 110.34 115.3 110.3C115.27 110.26 115.24 110.21 115.23 110.16C115.21 110.11 115.21 110.05 115.21 110L115.43 105.69C115.43 105.64 115.44 105.58 115.47 105.53C115.49 105.48 115.53 105.44 115.57 105.41C115.61 105.37 115.66 105.34 115.72 105.33C115.77 105.31 115.83 105.31 115.88 105.31L163.58 111.72C163.68 111.73 163.77 111.78 163.83 111.85C163.9 111.92 163.93 112.02 163.93 112.11L163.93 115.68C163.93 115.74 163.92 115.79 163.9 115.85C163.88 115.9 163.84 115.95 163.8 115.98C163.74 116.04 163.66 116.07 163.58 116.09ZM115.99 109.67L163.13 115.23L163.13 112.47L116.17 106.18L115.99 109.67Z" fill="#30325B" fill-opacity="1.000000" fill-rule="nonzero"/>
	<path id="Vector" d="M163.56 115.68L172.35 51.85L212.77 49.8L203.69 101.95L163.56 115.68Z" fill="#FFFFFF" fill-opacity="1.000000" fill-rule="nonzero"/>
	<path id="Vector" d="M163.58 116.09C163.49 116.09 163.4 116.05 163.33 115.99C163.28 115.95 163.24 115.89 163.21 115.83C163.18 115.76 163.18 115.69 163.18 115.63L171.98 51.8C171.99 51.7 172.03 51.62 172.1 51.55C172.17 51.49 172.26 51.45 172.35 51.45L212.73 49.39C212.8 49.39 212.85 49.4 212.91 49.43C212.97 49.45 213.02 49.49 213.06 49.53C213.09 49.58 213.12 49.63 213.14 49.69C213.16 49.75 213.16 49.81 213.15 49.87L204.07 102.02C204.06 102.09 204.02 102.16 203.98 102.21C203.93 102.27 203.87 102.31 203.8 102.33L163.67 116.06C163.64 116.07 163.61 116.08 163.58 116.09ZM172.7 52.26L164.05 115.09L203.37 101.64L212.32 50.23L172.7 52.26Z" fill="#30325B" fill-opacity="1.000000" fill-rule="nonzero"/>
	<path id="Vector" d="M142.71 104.23L142.67 104.23L134.87 103.35C134.78 103.34 134.7 103.3 134.64 103.23C134.58 103.17 134.54 103.09 134.53 103C134.52 102.91 134.53 102.83 134.58 102.75C134.62 102.68 134.69 102.62 134.78 102.59L148.32 97.64C148.39 97.63 148.45 97.63 148.52 97.64L156.1 98.82C156.19 98.83 156.27 98.87 156.32 98.94C156.38 99 156.42 99.08 156.43 99.17C156.43 99.26 156.41 99.34 156.37 99.42C156.32 99.49 156.25 99.55 156.17 99.58L142.87 104.22C142.82 104.23 142.76 104.24 142.71 104.23ZM136.58 102.75L142.67 103.44L154.42 99.33L148.47 98.41L136.58 102.75Z" fill="#D1D3D4" fill-opacity="1.000000" fill-rule="nonzero"/>
	<path id="Vector" d="M63.97 44.98C57.14 55.41 52.09 66.91 49.04 79C45.68 92.35 44.87 104.64 50.14 107.94C55.41 111.24 92.22 114.24 92.22 114.24C92.22 114.24 91.22 104.87 97.8 99.81C97.8 99.81 71.5 93.66 71.91 89.92C72.31 86.19 84.19 60.71 84.39 54.78C84.59 48.85 71.21 40.68 63.97 44.98Z" fill="#FF5A57" fill-opacity="1.000000" fill-rule="nonzero"/>
	<path id="Vector" d="M112.28 115.08C112.28 115.08 125.92 119.53 131.09 117.63C136.25 115.74 136.55 114.86 136.14 112.44C135.74 110.02 125.6 102.67 118.2 102.01C110.8 101.36 106.34 106.62 106.45 109.26C106.56 111.9 112.28 115.08 112.28 115.08Z" fill="#30325B" fill-opacity="1.000000" fill-rule="nonzero"/>
	<path id="Vector" d="M127.69 118.49C121.58 118.49 112.63 115.6 112.17 115.45L112.1 115.45C111.86 115.31 106.22 112.12 106.1 109.31C106.05 108 106.95 106.31 108.44 104.87C109.76 103.67 111.32 102.76 113.01 102.21C114.71 101.65 116.5 101.46 118.27 101.65C125.82 102.33 136.06 109.79 136.53 112.4C137.01 115.02 136.41 116.13 131.23 118.03C130.08 118.38 128.89 118.54 127.69 118.49ZM112.45 114.72C113.23 114.97 126.11 119.04 130.96 117.26C136.03 115.41 136.15 114.64 135.77 112.51C135.38 110.38 125.51 103.05 118.21 102.37C116.54 102.19 114.86 102.37 113.26 102.89C111.67 103.42 110.2 104.27 108.97 105.41C107.64 106.67 106.82 108.18 106.86 109.24C106.95 111.21 110.89 113.85 112.44 114.72L112.45 114.72Z" fill="#30325B" fill-opacity="1.000000" fill-rule="nonzero"/>
	<path id="Vector" d="M119.66 52.5C119.66 52.5 140.09 77.39 140.64 73.56C140.96 71.54 128.85 52.26 128.85 52.26L143.57 46.19C143.57 46.19 164.41 77.35 159.75 85.95C155.09 94.54 146.41 97.2 129.44 87.51C112.47 77.82 106.6 71.9 106.6 71.9L119.66 52.5Z" fill="#FF5A57" fill-opacity="1.000000" fill-rule="nonzero"/>
	<path id="Vector" d="M96.58 100.89C96.58 100.89 106.04 102.4 108.41 100.89C110.77 99.37 114.28 97.77 115.82 98.06C117.35 98.34 134.16 107.61 132.4 109.04C130.65 110.47 123.62 105.74 123.62 105.74C123.62 105.74 129.55 110.13 128.34 112.22C127.13 114.31 125.7 113.43 123.51 111.56C121.32 109.69 115.82 105.72 115.82 105.72C115.82 105.72 123.4 113.87 122.63 116.18C121.86 118.49 117.8 115.52 112.85 109.48C112.85 109.48 118.31 117.16 115.49 117.61C112.67 118.05 108.41 112.99 108.41 112.99C108.41 112.99 104.18 116.06 100.33 115.68C97.6 115.37 94.89 114.88 92.22 114.24C91.84 111.83 92.04 109.36 92.79 107.04C93.55 104.72 94.85 102.61 96.58 100.89Z" fill="#FFFFFF" fill-opacity="1.000000" fill-rule="nonzero"/>
	<path id="Vector" d="M115.14 118.04C112.53 118.04 109.25 114.56 108.34 113.53C107.28 114.24 103.66 116.42 100.29 116.08C97.54 115.76 94.82 115.28 92.13 114.63C92.06 114.61 91.99 114.57 91.94 114.52C91.89 114.46 91.85 114.4 91.83 114.32C91.46 111.85 91.66 109.33 92.44 106.95C93.21 104.57 94.53 102.41 96.29 100.64C96.33 100.59 96.39 100.56 96.45 100.54C96.51 100.52 96.58 100.51 96.64 100.52C99.23 100.93 106.35 101.75 108.19 100.58C110.02 99.41 113.99 97.28 115.9 97.69C116.88 97.9 132.29 105.96 132.91 108.61C132.95 108.75 132.94 108.9 132.9 109.04C132.85 109.18 132.77 109.3 132.66 109.39C131.59 110.26 129.15 109.39 127.02 108.26C128.32 109.66 129.36 111.3 128.69 112.47C128.54 112.81 128.31 113.11 128.02 113.35C127.73 113.59 127.39 113.76 127.03 113.85C125.98 114.03 124.89 113.31 123.25 111.91C122.16 110.98 120.23 109.52 118.56 108.28C120.8 110.98 123.55 114.71 123 116.34C122.94 116.6 122.8 116.84 122.6 117.02C122.41 117.2 122.17 117.32 121.9 117.37C120.34 117.66 117.77 115.48 115.6 113.24C116.38 114.8 116.96 116.36 116.58 117.28C116.5 117.49 116.35 117.68 116.17 117.81C115.99 117.95 115.77 118.04 115.55 118.06C115.41 118.06 115.27 118.05 115.14 118.04ZM108.41 112.57C108.46 112.57 108.52 112.59 108.57 112.61C108.63 112.64 108.67 112.67 108.71 112.72C109.85 114.07 113.27 117.52 115.43 117.19C115.52 117.19 115.6 117.16 115.68 117.11C115.75 117.06 115.81 116.99 115.85 116.91C116.34 115.73 114.07 111.86 112.53 109.7C112.47 109.61 112.46 109.51 112.47 109.41C112.49 109.31 112.55 109.22 112.63 109.16C112.7 109.1 112.8 109.07 112.9 109.08C113 109.09 113.1 109.13 113.17 109.2C117.85 114.92 120.72 116.72 121.75 116.53C121.9 116.53 122.11 116.41 122.23 116.03C122.74 114.52 118.38 109.06 115.51 105.98C115.44 105.91 115.4 105.81 115.4 105.71C115.4 105.61 115.44 105.51 115.51 105.44C115.57 105.36 115.66 105.31 115.76 105.3C115.86 105.29 115.96 105.32 116.04 105.38C116.1 105.42 121.57 109.38 123.75 111.24C125.14 112.42 126.14 113.12 126.87 113C127.26 112.93 127.65 112.61 127.97 112.01C128.75 110.71 125.54 107.67 123.36 106.05C123.27 105.99 123.21 105.9 123.19 105.79C123.17 105.68 123.2 105.57 123.26 105.49C123.32 105.4 123.41 105.34 123.52 105.32C123.63 105.3 123.74 105.33 123.82 105.39C126.64 107.29 131.07 109.56 132.13 108.71C132.13 108.35 130.53 106.68 124.52 103.1C121.69 101.34 118.75 99.77 115.71 98.42C114.41 98.14 111.07 99.62 108.6 101.2C106.31 102.67 98.14 101.51 96.7 101.29C95.1 102.95 93.9 104.94 93.19 107.13C92.48 109.31 92.27 111.63 92.58 113.9C95.16 114.51 97.76 114.97 100.39 115.27C104.03 115.63 108.14 112.68 108.19 112.66C108.25 112.61 108.33 112.59 108.41 112.59L108.41 112.57Z" fill="#30325B" fill-opacity="1.000000" fill-rule="nonzero"/>
	<path id="Vector" d="M97.8 100.22C97.75 100.22 97.71 100.22 97.66 100.22L71.77 90.33C71.72 90.31 71.67 90.28 71.63 90.25C71.59 90.21 71.56 90.16 71.54 90.11C71.52 90.06 71.51 90.01 71.51 89.95C71.51 89.9 71.52 89.84 71.54 89.79C71.66 89.53 83.31 63.04 78.31 48.73C78.29 48.68 78.29 48.63 78.29 48.58C78.29 48.52 78.31 48.47 78.33 48.42C78.35 48.38 78.39 48.33 78.43 48.3C78.47 48.27 78.51 48.24 78.56 48.22C78.66 48.19 78.77 48.19 78.87 48.24C78.96 48.28 79.04 48.37 79.08 48.46C81.21 54.61 80.72 63.5 77.6 74.87C76.2 79.91 74.48 84.86 72.45 89.69L97.95 99.43C98.05 99.47 98.13 99.54 98.17 99.64C98.21 99.73 98.22 99.84 98.18 99.94C98.16 100.02 98.1 100.09 98.04 100.14C97.97 100.19 97.89 100.22 97.8 100.22Z" fill="#30325B" fill-opacity="1.000000" fill-rule="nonzero"/>
	<path id="Vector" d="M112.28 94.06C112.25 94.07 112.21 94.07 112.17 94.06C112.12 94.05 112.07 94.02 112.03 93.99C111.99 93.96 111.96 93.92 111.93 93.87C111.9 93.83 111.89 93.78 111.88 93.72C111.87 93.67 111.88 93.62 111.89 93.57C111.89 93.51 113.45 87.73 115.42 75.82C117.38 63.91 118.05 50.95 118.06 50.85C118.06 50.75 118.11 50.65 118.19 50.58C118.27 50.5 118.37 50.47 118.48 50.47C118.58 50.48 118.68 50.52 118.75 50.6C118.83 50.68 118.86 50.79 118.86 50.89C118.86 51.02 118.17 64.01 116.21 75.97C114.26 87.94 112.68 93.76 112.67 93.81C112.64 93.89 112.59 93.95 112.52 94C112.45 94.04 112.36 94.06 112.28 94.06Z" fill="#30325B" fill-opacity="1.000000" fill-rule="nonzero"/>
	<path id="Vector" d="M96.97 6.52C97.56 6.37 98.18 6.23 98.83 6.12C100.84 5.76 102.82 4.24 104.72 3.44C107.02 2.46 109.41 1.66 111.84 1.05C114.5 0.39 117.39 -0.03 119.94 0.98C121.23 1.53 122.41 2.33 123.41 3.32C126.09 5.9 128.03 9.42 127.97 13.13C127.89 16.84 125.46 20.59 121.86 21.46C119.13 22.13 119.56 23.33 119.35 25.75C119.22 28.26 118.41 30.68 117.01 32.77C112.63 38.78 103.5 35.59 97.94 33.04C94.45 31.48 91.06 29.01 89.14 25.6C87.01 21.82 88.23 16.01 90.02 12.19C90.65 10.76 91.6 9.5 92.81 8.52C94.02 7.53 95.44 6.85 96.97 6.52Z" fill="#FFFFFF" fill-opacity="1.000000" fill-rule="nonzero"/>
	<path id="Vector" d="M109.57 36.66C106.35 36.66 102.42 35.59 97.77 33.46C94.88 32.14 90.98 29.74 88.79 25.85C86.68 22.11 87.71 16.24 89.66 12.08C90.3 10.59 91.29 9.27 92.54 8.24C93.79 7.2 95.28 6.49 96.87 6.15C97.44 5.99 98.07 5.85 98.76 5.73C100.06 5.4 101.3 4.87 102.44 4.16C103.14 3.78 103.86 3.38 104.56 3.09C106.89 2.1 109.29 1.3 111.74 0.69C114.17 0.08 117.31 -0.48 120.09 0.63C121.43 1.22 122.66 2.06 123.68 3.11C126.72 6.03 128.42 9.71 128.36 13.2C128.29 17.3 125.54 21 121.96 21.91C119.93 22.41 119.9 23.11 119.81 24.81C119.81 25.13 119.81 25.47 119.75 25.85C119.62 28.44 118.78 30.94 117.33 33.09C115.57 35.47 112.99 36.66 109.57 36.66ZM97.08 6.9C95.61 7.21 94.23 7.88 93.06 8.84C91.89 9.8 90.98 11.03 90.38 12.42C88.51 16.39 87.51 21.97 89.49 25.47C91.58 29.17 95.33 31.47 98.11 32.75C107.31 36.97 113.56 36.92 116.71 32.6C118.07 30.56 118.85 28.19 118.96 25.74C118.96 25.37 119.02 25.04 119.02 24.72C119.11 22.99 119.17 21.74 121.76 21.1C125.02 20.32 127.51 16.89 127.58 13.15C127.64 9.87 126.02 6.4 123.14 3.63C122.19 2.64 121.05 1.84 119.8 1.29C117.23 0.26 114.24 0.79 111.93 1.38C109.52 1.98 107.16 2.76 104.86 3.72C104.2 4 103.53 4.38 102.82 4.77C101.61 5.52 100.3 6.08 98.92 6.42C98.24 6.54 97.64 6.67 97.08 6.82L97.08 6.9Z" fill="#30325B" fill-opacity="1.000000" fill-rule="nonzero"/>
	<path id="Vector" d="M108.97 45.24L108.25 57.64C108.25 57.64 102.59 64.12 95.29 60.14C88 56.15 88.27 49.85 88.27 49.85L93.05 26.56C93.05 26.56 99.67 25 101.35 12.01C106.99 16.47 113.73 19.33 120.86 20.29C120.86 20.29 120.73 34.87 118.17 40.66C115.6 46.44 108.97 45.24 108.97 45.24Z" fill="#FFFFFF" fill-opacity="1.000000" fill-rule="nonzero"/>
	<path id="Vector" d="M100.06 61.81C98.31 61.8 96.6 61.34 95.08 60.48C87.65 56.42 87.85 50.09 87.87 49.82L92.66 26.52C92.68 26.45 92.71 26.38 92.76 26.33C92.82 26.27 92.88 26.24 92.96 26.22C93.02 26.22 99.34 24.55 100.96 12C100.97 11.93 100.99 11.86 101.04 11.81C101.08 11.75 101.14 11.71 101.2 11.69C101.27 11.66 101.34 11.66 101.41 11.67C101.48 11.68 101.55 11.71 101.6 11.76C107.2 16.16 113.86 18.98 120.91 19.94C121.01 19.95 121.09 20 121.15 20.07C121.22 20.14 121.25 20.24 121.25 20.33C121.25 20.93 121.09 35.05 118.52 40.85C116.25 45.98 110.87 45.87 109.31 45.72L108.62 57.7C108.61 57.79 108.58 57.87 108.52 57.94C108.48 57.95 105.02 61.81 100.06 61.81ZM93.36 26.87L88.68 49.92C88.68 50.1 88.51 55.98 95.49 59.79C102.02 63.37 107.13 58.29 107.88 57.45L108.59 45.19C108.6 45.13 108.61 45.08 108.64 45.03C108.66 44.98 108.7 44.94 108.74 44.91C108.78 44.87 108.83 44.85 108.89 44.83C108.94 44.82 109 44.82 109.05 44.83C109.31 44.88 115.44 45.9 117.85 40.47C120.13 35.3 120.46 22.82 120.5 20.6C113.67 19.58 107.19 16.87 101.67 12.72C99.98 24.04 94.62 26.46 93.36 26.87Z" fill="#30325B" fill-opacity="1.000000" fill-rule="nonzero"/>
	<path id="Vector" d="M95.74 33.1C94.05 33.35 92.33 32.93 90.95 31.92C90.03 31.18 89.3 30.22 88.85 29.13C88.4 28.04 88.24 26.85 88.38 25.67C88.42 24.8 88.65 23.94 89.07 23.16C89.28 22.77 89.57 22.43 89.92 22.16C90.27 21.89 90.68 21.7 91.11 21.6C92.17 21.53 93.22 21.81 94.11 22.38C95.51 23.1 95.52 23.9 96.31 25.08C96.23 24.97 96.16 24.67 96.08 24.57L95.74 33.1Z" fill="#FFFFFF" fill-opacity="1.000000" fill-rule="nonzero"/>
	<path id="Vector" d="M94.78 33.54C93.31 33.54 91.89 33.08 90.72 32.21C89.73 31.43 88.96 30.42 88.49 29.26C88.01 28.1 87.83 26.84 87.99 25.6C88.03 24.66 88.28 23.74 88.73 22.91C88.97 22.48 89.31 22.1 89.71 21.8C90.12 21.5 90.58 21.3 91.07 21.2C92.21 21.12 93.35 21.41 94.32 22.03C95.14 22.44 95.79 23.12 96.14 23.96C96.19 24.04 96.23 24.12 96.28 24.21C96.33 24.24 96.38 24.27 96.41 24.32C96.5 24.43 96.56 24.56 96.59 24.69C96.61 24.74 96.63 24.79 96.66 24.84C96.71 24.92 96.74 25.03 96.72 25.12C96.7 25.22 96.64 25.31 96.56 25.37C96.48 25.43 96.38 25.46 96.28 25.45C96.19 25.43 96.09 25.38 96.03 25.31C96.01 25.28 95.99 25.25 95.98 25.22C95.78 24.93 95.6 24.62 95.44 24.3C95.15 23.62 94.62 23.06 93.95 22.74C93.14 22.19 92.17 21.92 91.19 21.96C90.81 22.04 90.46 22.21 90.16 22.44C89.85 22.67 89.6 22.96 89.42 23.3C89.04 24.02 88.82 24.82 88.78 25.64C88.64 26.75 88.79 27.88 89.21 28.92C89.64 29.96 90.32 30.87 91.2 31.57C92.49 32.53 94.11 32.94 95.7 32.71C95.81 32.7 95.91 32.73 95.99 32.79C96.08 32.85 96.13 32.94 96.15 33.04C96.16 33.09 96.16 33.14 96.14 33.19C96.13 33.24 96.11 33.29 96.08 33.33C96.05 33.37 96.01 33.41 95.97 33.43C95.93 33.46 95.88 33.48 95.83 33.49C95.48 33.53 95.13 33.55 94.78 33.54Z" fill="#30325B" fill-opacity="1.000000" fill-rule="nonzero"/>
	<path id="Vector" d="M108.57 51.76C107.16 51.66 105.79 51.22 104.58 50.47C103.38 49.73 102.37 48.7 101.66 47.47C99.11 43.24 100.1 40.53 100.1 40.53C100.1 40.53 103.52 44.89 108.91 45.21L108.57 51.76Z" fill="#30325B" fill-opacity="1.000000" fill-rule="nonzero"/>
	<path id="Vector" d="M108.57 52.15C107.09 52.05 105.65 51.6 104.39 50.82C103.13 50.04 102.07 48.96 101.33 47.68C98.72 43.32 99.77 40.51 99.77 40.39C99.79 40.33 99.84 40.27 99.89 40.23C99.94 40.19 100.01 40.16 100.08 40.15C100.14 40.14 100.21 40.15 100.27 40.17C100.34 40.2 100.39 40.24 100.44 40.29C100.44 40.29 103.83 44.52 108.97 44.86C109.03 44.86 109.08 44.87 109.12 44.89C109.17 44.92 109.21 44.95 109.24 44.98C109.28 45.02 109.3 45.07 109.32 45.12C109.34 45.16 109.34 45.21 109.34 45.26L108.96 51.78C108.95 51.88 108.91 51.97 108.84 52.04C108.77 52.11 108.67 52.15 108.57 52.15ZM100.38 41.34C100.27 42.37 100.38 44.46 102.02 47.25C102.68 48.36 103.59 49.3 104.67 50.01C105.75 50.71 106.98 51.16 108.27 51.31L108.59 45.57C105.45 45.16 102.54 43.67 100.38 41.34Z" fill="#30325B" fill-opacity="1.000000" fill-rule="nonzero"/>
	<path id="Vector" d="M109.9 25.55C109.9 25.55 112.6 32.67 111.37 33.51C110.14 34.35 107.56 33.01 107.56 33.01L109.9 25.55Z" fill="#FFFFFF" fill-opacity="1.000000" fill-rule="nonzero"/>
	<path id="Vector" d="M110.31 34.18C109.29 34.11 108.31 33.83 107.41 33.35C107.32 33.3 107.25 33.22 107.22 33.12C107.19 33.03 107.2 32.92 107.24 32.83C107.29 32.74 107.37 32.67 107.47 32.63C107.57 32.6 107.68 32.61 107.77 32.66C108.43 33 110.33 33.76 111.18 33.19C111.7 32.83 110.94 29.29 109.56 25.69C109.54 25.64 109.53 25.59 109.53 25.54C109.53 25.49 109.55 25.44 109.57 25.39C109.59 25.34 109.62 25.3 109.66 25.26C109.69 25.23 109.74 25.2 109.79 25.18C109.88 25.15 109.99 25.15 110.09 25.19C110.18 25.24 110.26 25.31 110.29 25.41C111.14 27.63 112.95 32.91 111.62 33.83C111.23 34.08 110.77 34.2 110.31 34.18Z" fill="#30325B" fill-opacity="1.000000" fill-rule="nonzero"/>
	<path id="Vector" d="M105.49 22.56C106.04 22.73 106.28 23.51 106.03 24.28C105.78 25.06 105.13 25.54 104.58 25.36C104.03 25.19 103.79 24.41 104.04 23.64C104.29 22.86 104.94 22.38 105.49 22.56Z" fill="#30325B" fill-opacity="1.000000" fill-rule="evenodd"/>
	<path id="Vector" d="M114.69 24.78C115.27 24.78 115.73 25.45 115.71 26.26C115.7 27.08 115.23 27.73 114.65 27.72C114.07 27.72 113.61 27.05 113.62 26.24C113.64 25.42 114.11 24.77 114.69 24.78Z" fill="#30325B" fill-opacity="1.000000" fill-rule="evenodd"/>
	<path id="Vector" d="M109.03 42.67C108.6 42.66 108.17 42.6 107.75 42.48C106.89 42.22 106.1 41.76 105.45 41.15C104.79 40.54 104.28 39.79 103.96 38.95C103.43 37.58 103.23 36.11 103.37 34.66C103.38 34.6 103.4 34.55 103.43 34.5C103.46 34.45 103.49 34.41 103.54 34.37C103.72 34.25 103.82 34.17 113.14 36.22C113.23 36.24 113.31 36.29 113.36 36.36C113.42 36.43 113.45 36.52 113.45 36.61C113.45 36.77 113.27 40.44 111.01 42.08C110.43 42.48 109.74 42.68 109.03 42.67ZM104.13 35.1C104.05 36.3 104.24 37.51 104.68 38.63C104.95 39.36 105.39 40.03 105.96 40.57C106.53 41.11 107.21 41.51 107.96 41.75C108.39 41.89 108.84 41.95 109.28 41.9C109.73 41.85 110.16 41.71 110.54 41.47C112.15 40.3 112.55 37.81 112.64 36.92C109.7 36.25 105.4 35.34 104.13 35.1Z" fill="#30325B" fill-opacity="1.000000" fill-rule="nonzero"/>
	<path id="Vector" d="M104.29 38.8C105.67 42.14 109.13 42.94 110.74 41.78C110.37 40.5 109.7 39.18 108.46 38.66C107.1 38.21 105.62 38.26 104.29 38.8Z" fill="#30325B" fill-opacity="1.000000" fill-rule="nonzero"/>
	<path id="Vector" d="M109.04 42.67C108.6 42.67 108.17 42.6 107.75 42.48C106.89 42.22 106.1 41.76 105.45 41.15C104.79 40.54 104.28 39.79 103.96 38.95C103.92 38.85 103.92 38.74 103.96 38.64C103.98 38.59 104.01 38.55 104.05 38.51C104.09 38.48 104.13 38.45 104.18 38.43C105.61 37.88 107.18 37.85 108.63 38.34C109.8 38.78 110.64 39.9 111.14 41.67C111.17 41.75 111.16 41.83 111.14 41.9C111.11 41.98 111.06 42.04 111 42.09C110.42 42.49 109.73 42.69 109.04 42.67ZM104.85 39C105.15 39.64 105.58 40.22 106.12 40.68C106.66 41.15 107.29 41.5 107.97 41.7C108.74 41.95 109.57 41.91 110.31 41.58C109.88 40.22 109.22 39.36 108.35 39.03C107.22 38.65 105.99 38.64 104.85 39Z" fill="#30325B" fill-opacity="1.000000" fill-rule="nonzero"/>
	<path id="Vector" d="M41.09 98.4L40.99 98.4C40.94 98.38 40.89 98.36 40.85 98.33C40.81 98.3 40.77 98.26 40.75 98.22C40.72 98.17 40.71 98.12 40.7 98.07C40.69 98.02 40.69 97.97 40.71 97.92C43.9 83.29 44.14 68.17 41.42 53.45C38.44 37.94 34.07 31.8 34.07 31.74C34.01 31.65 33.98 31.55 34 31.45C34.01 31.34 34.07 31.25 34.15 31.19C34.24 31.13 34.34 31.1 34.44 31.12C34.55 31.14 34.64 31.19 34.7 31.28C34.88 31.53 39.19 37.6 42.16 53.3C44.91 68.14 44.66 83.37 41.44 98.11C41.42 98.19 41.37 98.26 41.31 98.31C41.25 98.36 41.17 98.39 41.09 98.4Z" fill="#FFFFFF" fill-opacity="1.000000" fill-rule="nonzero"/>
</svg>
