<svg width="943.097290" height="842.395020" viewBox="0 0 943.097 842.395" fill="none" xmlns="http://www.w3.org/2000/svg" xmlns:xlink="http://www.w3.org/1999/xlink">
	<desc>
			Created with Pixso.
	</desc>
	<defs>
		<filter id="filter_39_216_dd" x="0.000000" y="42.991211" width="799.403809" height="799.403809" filterUnits="userSpaceOnUse" color-interpolation-filters="sRGB">
			<feFlood flood-opacity="0" result="BackgroundImageFix"/>
			<feBlend mode="normal" in="SourceGraphic" in2="BackgroundImageFix" result="shape"/>
			<feGaussianBlur stdDeviation="97.1651" result="effect_layerBlur_1"/>
		</filter>
		<filter id="filter_39_215_dd" x="143.693359" y="0.000000" width="799.403931" height="799.403809" filterUnits="userSpaceOnUse" color-interpolation-filters="sRGB">
			<feFlood flood-opacity="0" result="BackgroundImageFix"/>
			<feBlend mode="normal" in="SourceGraphic" in2="BackgroundImageFix" result="shape"/>
			<feGaussianBlur stdDeviation="97.1651" result="effect_layerBlur_1"/>
		</filter>
	</defs>
	<g filter="url(#filter_39_216_dd)">
		<path id="Ellipse 28" d="M291.49 442.69C291.49 382.93 339.94 334.48 399.7 334.48C459.46 334.48 507.9 382.93 507.9 442.69C507.9 502.45 459.46 550.9 399.7 550.9C339.94 550.9 291.49 502.45 291.49 442.69Z" fill="#FF5A57" fill-opacity="1.000000" fill-rule="evenodd"/>
	</g>
	<g filter="url(#filter_39_215_dd)">
		<path id="Ellipse 29" d="M435.18 399.7C435.18 339.94 483.63 291.49 543.39 291.49C603.15 291.49 651.6 339.94 651.6 399.7C651.6 459.46 603.15 507.9 543.39 507.9C483.63 507.9 435.18 459.46 435.18 399.7Z" fill="#9A2AEB" fill-opacity="1.000000" fill-rule="evenodd"/>
	</g>
</svg>
