<svg width="991.403076" height="998.139893" viewBox="0 0 991.403 998.14" fill="none" xmlns="http://www.w3.org/2000/svg" xmlns:xlink="http://www.w3.org/1999/xlink">
	<desc>
			Created with Pixso.
	</desc>
	<defs>
		<filter id="filter_39_214_dd" x="113.102051" y="0.000000" width="878.301025" height="878.301270" filterUnits="userSpaceOnUse" color-interpolation-filters="sRGB">
			<feFlood flood-opacity="0" result="BackgroundImageFix"/>
			<feBlend mode="normal" in="SourceGraphic" in2="BackgroundImageFix" result="shape"/>
			<feGaussianBlur stdDeviation="106.75" result="effect_layerBlur_1"/>
		</filter>
		<filter id="filter_39_213_dd" x="0.000000" y="119.838623" width="878.301147" height="878.301270" filterUnits="userSpaceOnUse" color-interpolation-filters="sRGB">
			<feFlood flood-opacity="0" result="BackgroundImageFix"/>
			<feBlend mode="normal" in="SourceGraphic" in2="BackgroundImageFix" result="shape"/>
			<feGaussianBlur stdDeviation="106.75" result="effect_layerBlur_1"/>
		</filter>
	</defs>
	<g filter="url(#filter_39_214_dd)">
		<path id="Ellipse 28" d="M655.2 379.71C688.03 436.57 668.55 509.27 611.69 542.1C554.83 574.93 482.12 555.45 449.29 498.59C416.47 441.73 435.95 369.02 492.81 336.19C549.67 303.36 622.37 322.85 655.2 379.71Z" fill="#FF5A57" fill-opacity="1.000000" fill-rule="evenodd"/>
	</g>
	<g filter="url(#filter_39_213_dd)">
		<path id="Ellipse 29" d="M542.1 499.54C574.93 556.4 555.45 629.11 498.59 661.94C441.73 694.77 369.02 675.28 336.19 618.43C303.36 561.57 322.85 488.86 379.71 456.03C436.57 423.2 509.27 442.68 542.1 499.54Z" fill="#9A2AEB" fill-opacity="1.000000" fill-rule="evenodd"/>
	</g>
</svg>
