<svg width="290.776367" height="252.689453" viewBox="0 0 290.776 252.689" fill="none" xmlns="http://www.w3.org/2000/svg" xmlns:xlink="http://www.w3.org/1999/xlink">
	<desc>
			Created with Pixso.
	</desc>
	<defs/>
	<path id="Vector" d="M136.77 203.28L146.83 211.61C146.83 211.61 125.51 249.52 122.41 243.9C120.91 241.18 124.39 222.31 124.39 222.31L136.77 203.28Z" fill="#FFFFFF" fill-opacity="1.000000" fill-rule="nonzero"/>
	<path id="Vector" d="M123.29 245.01C128.51 245.01 145.39 215.27 147.29 211.88C147.35 211.77 147.37 211.64 147.35 211.52C147.33 211.4 147.27 211.28 147.17 211.2L137.11 202.81C137.06 202.77 136.99 202.73 136.93 202.71C136.86 202.69 136.79 202.68 136.72 202.69C136.64 202.7 136.58 202.72 136.52 202.75C136.45 202.78 136.39 202.83 136.35 202.88C136.31 202.94 136.27 203 136.25 203.07C136.23 203.14 136.22 203.21 136.23 203.28C136.23 203.35 136.25 203.42 136.29 203.48C136.32 203.54 136.37 203.6 136.42 203.64L146.14 211.74C139.01 224.36 126.71 243.93 123.29 243.93C123.21 243.93 123.12 243.9 123.05 243.85C122.97 243.79 122.92 243.72 122.88 243.64C121.81 241.77 123.53 229.93 124.91 222.43C124.94 222.29 124.91 222.14 124.83 222.03C124.75 221.91 124.62 221.83 124.48 221.8C124.34 221.78 124.2 221.81 124.08 221.89C123.96 221.97 123.88 222.09 123.85 222.23C123.49 224.19 120.39 241.35 121.93 244.16C122.06 244.41 122.25 244.63 122.49 244.78C122.73 244.93 123.01 245.01 123.29 245.01Z" fill="#30325B" fill-opacity="1.000000" fill-rule="nonzero"/>
	<path id="Vector" d="M24.61 149.36L41.67 142.27L18.8 87.32C16.64 82.03 7 73.73 3.69 75.1C0.38 76.47 -0.48 89.13 1.73 94.42L24.61 149.36Z" fill="#FFFFFF" fill-opacity="1.000000" fill-rule="nonzero"/>
	<path id="Vector" d="M24.61 149.9C24.68 149.91 24.75 149.91 24.82 149.9L41.87 142.81C42 142.75 42.11 142.64 42.16 142.52C42.22 142.38 42.22 142.23 42.16 142.09L19.3 87.16C17.14 82.05 7.42 73.03 3.51 74.65C-0.41 76.27 -0.88 89.57 1.25 94.67L24.1 149.61C24.15 149.7 24.22 149.78 24.31 149.83C24.4 149.88 24.51 149.9 24.61 149.9ZM40.96 141.97L24.85 148.66L2.18 94.22C0.02 88.94 1.1 76.76 3.85 75.61C6.6 74.45 16.04 82.25 18.24 87.48L40.96 141.97Z" fill="#30325B" fill-opacity="1.000000" fill-rule="nonzero"/>
	<path id="Vector" d="M39.18 143.27L26.64 148.49L27.78 151.22L40.32 146L39.18 143.27Z" fill="#FFFFFF" fill-opacity="1.000000" fill-rule="evenodd"/>
	<path id="Vector" d="M27.78 151.78C27.86 151.79 27.93 151.79 28 151.78L40.53 146.56C40.6 146.53 40.66 146.5 40.71 146.44C40.76 146.39 40.8 146.33 40.83 146.27C40.86 146.2 40.87 146.13 40.87 146.06C40.87 145.99 40.85 145.92 40.82 145.85L39.69 143.13C39.66 143.06 39.63 143 39.58 142.95C39.53 142.9 39.47 142.86 39.4 142.84C39.27 142.78 39.12 142.78 38.99 142.84L26.45 148.05C26.38 148.08 26.32 148.12 26.27 148.17C26.22 148.22 26.18 148.28 26.15 148.35C26.12 148.41 26.11 148.48 26.11 148.56C26.11 148.63 26.13 148.7 26.15 148.77L27.29 151.46C27.34 151.6 27.45 151.7 27.58 151.75C27.65 151.78 27.72 151.78 27.78 151.78ZM39.66 145.73L28.11 150.53L27.4 148.8L38.88 143.99L39.66 145.73Z" fill="#30325B" fill-opacity="1.000000" fill-rule="nonzero"/>
	<path id="Vector" d="M21.79 94.54L4.73 101.63L19.76 137.77L36.83 130.67L21.79 94.54Z" fill="#D1D3D4" fill-opacity="1.000000" fill-rule="evenodd"/>
	<path id="Vector" d="M19.79 138.33C19.86 138.34 19.93 138.34 20 138.33L37.06 131.22C37.12 131.2 37.18 131.16 37.23 131.11C37.28 131.06 37.32 131 37.35 130.93C37.4 130.8 37.4 130.65 37.35 130.52L22.31 94.38C22.26 94.25 22.15 94.14 22.02 94.09C21.89 94.04 21.74 94.04 21.6 94.09L4.54 101.19C4.41 101.25 4.31 101.35 4.25 101.48C4.2 101.61 4.2 101.76 4.25 101.89L19.29 138.03C19.34 138.12 19.41 138.2 19.5 138.25C19.58 138.3 19.68 138.33 19.79 138.33ZM36.14 130.39L20.08 137.08L5.42 101.94L21.48 95.25L36.14 130.39Z" fill="#30325B" fill-opacity="1.000000" fill-rule="nonzero"/>
	<path id="Vector" d="M48.69 140.25L40.81 140.2L37.41 132.04L46.77 135.63L48.69 140.25Z" fill="#FFFFFF" fill-opacity="1.000000" fill-rule="nonzero"/>
	<path id="Vector" d="M48.69 140.79C48.78 140.79 48.87 140.77 48.95 140.72C49.03 140.68 49.1 140.62 49.15 140.55C49.19 140.47 49.21 140.39 49.21 140.3C49.21 140.21 49.19 140.12 49.15 140.04L47.23 135.42C47.2 135.35 47.16 135.29 47.11 135.24C47.05 135.19 46.99 135.14 46.92 135.12L37.56 131.54C37.46 131.5 37.36 131.49 37.25 131.52C37.15 131.54 37.06 131.59 36.98 131.67C36.91 131.74 36.86 131.84 36.84 131.94C36.82 132.05 36.83 132.15 36.87 132.25L40.27 140.41C40.31 140.51 40.38 140.59 40.46 140.65C40.55 140.71 40.65 140.74 40.76 140.74L48.65 140.74L48.69 140.79ZM46.36 136.05L47.88 139.71L41.17 139.71L38.4 133.04L46.36 136.05Z" fill="#30325B" fill-opacity="1.000000" fill-rule="nonzero"/>
	<path id="Vector" d="M18.23 152.93L23.75 147.31L20.36 139.15L16.3 148.31L18.23 152.93Z" fill="#FFFFFF" fill-opacity="1.000000" fill-rule="nonzero"/>
	<path id="Vector" d="M18.22 153.47C18.37 153.47 18.5 153.41 18.61 153.31L24.13 147.68C24.21 147.61 24.26 147.51 24.28 147.41C24.3 147.31 24.29 147.2 24.25 147.1L20.85 138.93C20.81 138.83 20.74 138.75 20.65 138.7C20.56 138.64 20.46 138.61 20.36 138.61C20.25 138.6 20.15 138.63 20.06 138.69C19.97 138.74 19.9 138.82 19.86 138.92L15.81 148.09C15.78 148.16 15.77 148.23 15.77 148.31C15.77 148.38 15.78 148.45 15.81 148.52L17.73 153.14C17.77 153.22 17.82 153.29 17.89 153.35C17.96 153.4 18.04 153.44 18.13 153.46L18.22 153.47ZM23.12 147.14L18.41 151.93L16.89 148.27L20.33 140.46L23.12 147.14Z" fill="#30325B" fill-opacity="1.000000" fill-rule="nonzero"/>
	<path id="Vector" d="M192.63 27.07L89.46 30.14L14.56 101.17L28.22 133.98L206.29 59.87L192.63 27.07Z" fill="#FFFFFF" fill-opacity="1.000000" fill-rule="nonzero"/>
	<path id="Vector" d="M28.22 134.52C28.28 134.53 28.35 134.53 28.42 134.52L206.53 60.41C206.6 60.38 206.66 60.34 206.71 60.29C206.76 60.25 206.8 60.18 206.83 60.12C206.88 59.99 206.88 59.84 206.83 59.71L193.17 26.9C193.13 26.81 193.05 26.72 192.96 26.66C192.87 26.6 192.77 26.57 192.66 26.57L89.49 29.65C89.36 29.65 89.23 29.7 89.13 29.79L14.18 100.73C14.11 100.81 14.05 100.91 14.03 101.01C14.01 101.12 14.02 101.23 14.07 101.33L27.71 134.19C27.77 134.32 27.87 134.43 28 134.48C28.07 134.51 28.14 134.52 28.22 134.52ZM205.58 59.58L28.5 133.27L15.2 101.3L89.68 30.67L192.23 27.62L205.58 59.58Z" fill="#30325B" fill-opacity="1.000000" fill-rule="nonzero"/>
	<path id="Vector" d="M103.44 20.57L72.8 33.32C62.88 37.44 58.19 48.83 62.31 58.75L78.29 97.14C82.41 107.06 93.8 111.75 103.72 107.63L134.35 94.88C144.27 90.75 148.97 79.37 144.84 69.45L128.87 31.06C124.74 21.14 113.36 16.44 103.44 20.57Z" fill="#D1D3D4" fill-opacity="1.000000" fill-rule="evenodd"/>
	<path id="Vector" d="M96.25 109.69C98.89 109.68 101.51 109.16 103.94 108.14L134.59 95.4C139.48 93.36 143.37 89.46 145.39 84.56C147.42 79.66 147.41 74.16 145.38 69.26L129.4 30.85C127.37 25.96 123.47 22.07 118.57 20.05C113.67 18.02 108.17 18.03 103.27 20.06L72.62 32.82C67.73 34.86 63.84 38.75 61.82 43.65C59.79 48.55 59.8 54.06 61.83 58.95L77.81 97.35C79.33 100.99 81.89 104.1 85.17 106.29C88.45 108.48 92.31 109.66 96.25 109.67L96.25 109.69ZM110.92 19.62C113.4 19.62 115.85 20.11 118.14 21.05C120.43 22 122.52 23.38 124.29 25.14C126.05 26.89 127.44 28.98 128.39 31.28L144.37 69.67C146.29 74.3 146.3 79.51 144.39 84.14C142.48 88.78 138.8 92.46 134.18 94.39L103.52 107.21C98.88 109.12 93.68 109.12 89.05 107.19C84.41 105.27 80.74 101.59 78.82 96.95L62.84 58.55C60.91 53.92 60.9 48.71 62.81 44.07C64.71 39.43 68.38 35.74 73.01 33.8L103.65 21.09C105.95 20.12 108.43 19.62 110.92 19.62Z" fill="#30325B" fill-opacity="1.000000" fill-rule="nonzero"/>
	<path id="Vector" d="M203.34 74.98L220.4 67.88L197.56 12.95C195.4 7.66 185.76 -0.64 182.45 0.73C179.14 2.1 178.27 14.76 180.47 20.05L203.34 74.98Z" fill="#FFFFFF" fill-opacity="1.000000" fill-rule="nonzero"/>
	<path id="Vector" d="M203.34 75.52C203.4 75.54 203.47 75.54 203.54 75.52L220.61 68.34C220.74 68.29 220.85 68.18 220.9 68.05C220.95 67.91 220.95 67.77 220.9 67.63L198.04 12.7C196.96 10.14 194.11 6.67 190.75 3.88C189 2.43 184.68 -0.83 182.24 0.19C179.81 1.2 179.07 6.57 178.87 8.82C178.48 13.14 178.87 17.65 179.95 20.21L202.81 75.15C202.85 75.26 202.92 75.35 203.01 75.42C203.11 75.49 203.22 75.52 203.34 75.52ZM219.69 67.59L203.63 74.28L180.96 19.84C179.96 17.43 179.55 13.16 179.88 8.96C180.22 4.76 181.33 1.76 182.6 1.22C183.87 0.68 186.78 2.08 190.01 4.75C193.23 7.43 195.99 10.75 196.99 13.16L219.69 67.59Z" fill="#30325B" fill-opacity="1.000000" fill-rule="nonzero"/>
	<path id="Vector" d="M217.93 68.91L205.39 74.13L206.53 76.86L219.06 71.64L217.93 68.91Z" fill="#FFFFFF" fill-opacity="1.000000" fill-rule="evenodd"/>
	<path id="Vector" d="M206.52 77.4C206.59 77.42 206.66 77.42 206.73 77.4L219.27 72.19C219.4 72.13 219.51 72.02 219.56 71.89C219.62 71.76 219.62 71.61 219.56 71.47L218.48 68.74C218.43 68.61 218.32 68.51 218.19 68.45C218.06 68.4 217.9 68.4 217.77 68.45L205.24 73.68C205.17 73.7 205.11 73.74 205.06 73.79C205.01 73.84 204.97 73.9 204.95 73.97C204.89 74.1 204.89 74.25 204.95 74.38L206.08 77.11C206.14 77.24 206.24 77.35 206.37 77.4C206.42 77.41 206.47 77.41 206.52 77.4ZM218.4 71.34L206.86 76.16L206.13 74.42L217.68 69.62L218.4 71.34Z" fill="#30325B" fill-opacity="1.000000" fill-rule="nonzero"/>
	<path id="Vector" d="M200.53 20.17L183.47 27.26L198.5 63.4L215.57 56.3L200.53 20.17Z" fill="#D1D3D4" fill-opacity="1.000000" fill-rule="evenodd"/>
	<path id="Vector" d="M198.52 63.95C198.59 63.97 198.66 63.97 198.73 63.95L215.79 56.85C215.86 56.82 215.92 56.78 215.97 56.73C216.02 56.68 216.06 56.62 216.09 56.56C216.14 56.43 216.14 56.28 216.09 56.15L201.04 20.01C201.01 19.94 200.97 19.88 200.92 19.83C200.87 19.78 200.81 19.74 200.75 19.71C200.62 19.66 200.47 19.66 200.34 19.71L183.28 26.82C183.22 26.84 183.15 26.88 183.1 26.93C183.05 26.98 183.01 27.04 182.99 27.11C182.96 27.17 182.95 27.24 182.95 27.31C182.95 27.38 182.96 27.46 182.99 27.52L198.03 63.62C198.07 63.72 198.14 63.8 198.22 63.86C198.31 63.92 198.42 63.95 198.52 63.95ZM214.83 56.02L198.77 62.7L184.14 27.56L200.25 20.85L214.83 56.02Z" fill="#30325B" fill-opacity="1.000000" fill-rule="nonzero"/>
	<path id="Vector" d="M227.43 65.87L219.54 65.83L216.15 57.67L225.51 61.25L227.43 65.87Z" fill="#FFFFFF" fill-opacity="1.000000" fill-rule="nonzero"/>
	<path id="Vector" d="M227.43 66.41C227.52 66.41 227.61 66.39 227.68 66.35C227.76 66.31 227.83 66.25 227.88 66.17C227.93 66.1 227.96 66.01 227.97 65.93C227.97 65.84 227.96 65.75 227.93 65.67L226.01 61.05C225.98 60.98 225.93 60.91 225.88 60.86C225.83 60.81 225.76 60.77 225.69 60.75L216.35 57.16C216.25 57.12 216.14 57.12 216.03 57.14C215.93 57.16 215.84 57.22 215.76 57.29C215.69 57.37 215.64 57.46 215.62 57.57C215.6 57.67 215.61 57.78 215.65 57.87L219.04 66.03C219.08 66.13 219.15 66.22 219.24 66.28C219.33 66.34 219.43 66.37 219.54 66.37L227.42 66.37L227.43 66.41ZM225.1 61.67L226.62 65.33L219.91 65.33L217.13 58.63L225.1 61.67Z" fill="#30325B" fill-opacity="1.000000" fill-rule="nonzero"/>
	<path id="Vector" d="M196.96 78.56L202.48 72.93L199.08 64.77L195.03 73.94L196.96 78.56Z" fill="#FFFFFF" fill-opacity="1.000000" fill-rule="nonzero"/>
	<path id="Vector" d="M196.96 79.14C197.1 79.13 197.24 79.08 197.35 78.98L202.87 73.35C202.95 73.28 203 73.18 203.02 73.08C203.04 72.97 203.02 72.87 202.98 72.77L199.58 64.6C199.54 64.5 199.48 64.42 199.39 64.36C199.3 64.3 199.2 64.27 199.1 64.27C198.99 64.27 198.89 64.3 198.81 64.36C198.72 64.41 198.65 64.49 198.61 64.59L194.54 73.74C194.49 73.88 194.49 74.03 194.54 74.17L196.48 78.76C196.52 78.84 196.57 78.92 196.64 78.97C196.71 79.03 196.8 79.07 196.88 79.08L196.96 79.14ZM201.88 72.8L197.18 77.59L195.65 73.94L199.07 66.19L201.88 72.8Z" fill="#30325B" fill-opacity="1.000000" fill-rule="nonzero"/>
	<path id="Vector" d="M135.74 35.49L181.27 33.41C181.35 33.41 181.41 33.39 181.48 33.36C181.54 33.33 181.6 33.29 181.65 33.24C181.7 33.19 181.73 33.13 181.76 33.06C181.78 32.99 181.8 32.92 181.79 32.85C181.78 32.71 181.72 32.58 181.61 32.48C181.5 32.38 181.36 32.33 181.22 32.33L135.7 34.41C135.56 34.41 135.42 34.46 135.32 34.56C135.22 34.67 135.16 34.8 135.16 34.95C135.16 35.09 135.22 35.23 135.32 35.33C135.42 35.43 135.56 35.49 135.7 35.49L135.74 35.49Z" fill="#D1D3D4" fill-opacity="1.000000" fill-rule="nonzero"/>
	<path id="Vector" d="M20.61 102.59C20.74 102.58 20.87 102.53 20.97 102.43L59.7 66.47C59.81 66.37 59.87 66.23 59.87 66.09C59.88 65.94 59.82 65.8 59.72 65.7C59.63 65.6 59.49 65.53 59.35 65.53C59.2 65.53 59.06 65.58 58.96 65.68L20.24 101.65C20.19 101.7 20.15 101.76 20.12 101.82C20.09 101.89 20.08 101.96 20.08 102.03C20.08 102.1 20.09 102.17 20.12 102.24C20.15 102.3 20.19 102.36 20.24 102.41C20.33 102.51 20.47 102.58 20.61 102.59Z" fill="#D1D3D4" fill-opacity="1.000000" fill-rule="nonzero"/>
	<path id="Vector" d="M67.11 58.47C67.11 58.47 7.39 107.5 32.22 111.12C52.96 114.15 71.79 103.08 71.79 103.08L65.87 90.07C65.87 90.07 46.77 98.94 47.43 95.05C48.09 91.16 74.01 75.62 74.01 75.62L67.11 58.47Z" fill="#FF5A57" fill-opacity="1.000000" fill-rule="nonzero"/>
	<path id="Vector" d="M120.29 38.67C120.29 38.67 180.39 32.05 181.95 41.22C183.52 50.38 157.62 70.66 156.99 69.42C156.35 68.19 142.62 60.11 142.62 60.11L154.61 50.49L125.88 56.97L120.29 38.67Z" fill="#FF5A57" fill-opacity="1.000000" fill-rule="nonzero"/>
	<path id="Vector" d="M68.88 25.52C67.15 22.28 68.36 18.23 70.32 15.12C72.81 11.26 76.34 8.19 80.49 6.22C84.64 4.26 89.25 3.49 93.82 4.01C97.99 4.55 102.29 6.42 104.45 10.04C102.17 9.59 99.84 9.5 97.54 9.79C100.07 10.9 102.35 12.53 104.21 14.58C106.06 16.63 107.47 19.04 108.33 21.67C108.57 22.2 108.6 22.79 108.42 23.34C107.99 24.27 106.67 24.3 105.69 24.02C104.71 23.74 103.61 23.31 102.71 23.81C105.64 25 107.99 27.29 109.26 30.19C109.89 31.46 110.07 32.9 109.77 34.29C109.47 35.26 108.91 36.13 108.15 36.8C106.26 38.35 104.05 39.46 101.67 40.04C97.46 41.4 93.04 42.62 88.72 42.06C83.43 41.39 79.07 38.24 75.21 34.77C73.42 33.18 71.7 33.13 69.81 31.95C69.26 31.59 68.79 31.11 68.45 30.55C68.1 29.99 67.89 29.36 67.81 28.71C68.05 27.61 68.41 26.54 68.88 25.52Z" fill="#FFFFFF" fill-opacity="1.000000" fill-rule="nonzero"/>
	<path id="Vector" d="M90.94 42.76C94.67 42.61 98.35 41.88 101.85 40.6C104.32 39.99 106.62 38.82 108.58 37.19C109.41 36.45 110.01 35.49 110.34 34.43C110.69 32.92 110.5 31.34 109.81 29.96C108.81 27.67 107.15 25.72 105.04 24.37L105.22 24.37L105.59 24.48C106.79 24.81 108.39 24.77 108.96 23.5C109.2 22.83 109.18 22.1 108.9 21.44C107.31 16.64 103.97 12.6 99.55 10.14C101.16 10.09 102.76 10.23 104.34 10.55C104.44 10.57 104.55 10.56 104.65 10.53C104.75 10.49 104.83 10.42 104.89 10.33C104.95 10.25 104.99 10.15 104.99 10.04C104.99 9.94 104.97 9.83 104.91 9.74C102.92 6.38 98.89 4.08 93.88 3.45C89.21 2.9 84.49 3.67 80.24 5.68C75.99 7.68 72.39 10.84 69.85 14.79C68.7 16.65 66.25 21.36 68.3 25.53C67.84 26.55 67.5 27.61 67.28 28.7C67.35 29.44 67.59 30.16 67.97 30.8C68.36 31.44 68.89 31.98 69.52 32.39C70.26 32.84 71.05 33.22 71.87 33.52C72.95 33.87 73.94 34.43 74.81 35.16C78.23 38.24 82.89 41.87 88.62 42.59C89.39 42.7 90.17 42.75 90.94 42.76ZM103.65 23.01C103.23 23 102.82 23.1 102.45 23.3C102.36 23.35 102.29 23.42 102.24 23.51C102.19 23.6 102.16 23.7 102.17 23.81C102.18 23.91 102.21 24.01 102.27 24.09C102.33 24.17 102.41 24.23 102.51 24.27C105.31 25.41 107.56 27.6 108.77 30.37C109.35 31.53 109.52 32.85 109.25 34.12C108.98 34.99 108.47 35.77 107.78 36.38C105.95 37.89 103.8 38.98 101.49 39.56C97.42 40.86 93.07 42.1 88.73 41.55C83.33 40.86 79.02 37.55 75.51 34.4C74.56 33.58 73.46 32.95 72.27 32.55C71.51 32.26 70.79 31.9 70.11 31.47C69.62 31.15 69.22 30.73 68.91 30.23C68.61 29.73 68.42 29.18 68.36 28.6C68.61 27.62 68.95 26.67 69.35 25.75C69.4 25.67 69.42 25.58 69.42 25.49C69.42 25.4 69.4 25.31 69.35 25.23C67.38 21.51 69.69 17.08 70.77 15.35C73.23 11.61 76.68 8.62 80.73 6.71C84.78 4.81 89.29 4.06 93.74 4.55C97.88 5.08 101.3 6.78 103.27 9.3C101.34 9.04 99.39 9.04 97.46 9.3C97.35 9.31 97.24 9.37 97.15 9.45C97.07 9.54 97.01 9.65 97 9.76C96.98 9.88 97.01 10 97.06 10.1C97.12 10.21 97.21 10.29 97.32 10.33C99.8 11.4 102.02 12.98 103.83 14.96C105.65 16.95 107.03 19.3 107.87 21.85C108.06 22.25 108.09 22.7 107.98 23.13C107.71 23.72 106.7 23.74 105.88 23.52L105.54 23.41C104.93 23.18 104.3 23.05 103.65 23.01Z" fill="#30325B" fill-opacity="1.000000" fill-rule="nonzero"/>
	<path id="Vector" d="M104.5 119.87C104.5 119.87 84.98 163.05 88.31 171.49C91.63 179.93 124.41 222.33 124.41 222.33L141.8 207.6C141.8 207.6 111.15 167.21 112.41 164.42C113.68 161.62 128.84 132.37 128.84 132.37L211.28 222.27L219.59 200.68L152.77 104.79L104.5 119.87Z" fill="#30325B" fill-opacity="1.000000" fill-rule="nonzero"/>
	<path id="Vector" d="M124.39 222.87C124.51 222.87 124.63 222.83 124.73 222.75L142.14 208C142.25 207.91 142.31 207.78 142.33 207.64C142.34 207.51 142.3 207.37 142.22 207.26C130.68 192.04 112.52 167 112.92 164.58C114 162.09 126.67 137.71 128.96 133.27L210.88 222.6C210.94 222.67 211.02 222.72 211.11 222.75C211.2 222.78 211.29 222.79 211.38 222.77C211.47 222.76 211.56 222.72 211.63 222.66C211.7 222.6 211.76 222.52 211.79 222.44L220.1 200.85C220.13 200.77 220.14 200.68 220.13 200.59C220.12 200.51 220.09 200.42 220.04 200.35L153.22 104.45C153.15 104.36 153.06 104.29 152.95 104.25C152.84 104.22 152.72 104.21 152.61 104.25L104.34 119.36C104.27 119.38 104.2 119.42 104.14 119.47C104.08 119.52 104.04 119.58 104.01 119.65C103.21 121.42 84.43 163.12 87.81 171.69C91.19 180.26 122.61 220.93 123.95 222.71C124 222.77 124.05 222.81 124.11 222.85C124.18 222.89 124.25 222.91 124.32 222.91L124.39 222.87ZM141.05 207.5L124.46 221.53C120.94 216.98 91.85 179.1 88.84 171.27C85.83 163.45 103.44 123.62 104.93 120.29L152.6 105.38L219.03 200.71L211.13 221.22L129.24 132.03C129.19 131.97 129.11 131.91 129.03 131.88C128.94 131.85 128.85 131.85 128.77 131.86C128.68 131.87 128.6 131.9 128.53 131.95C128.46 132 128.41 132.07 128.37 132.14C127.74 133.34 113.18 161.43 111.93 164.21C110.68 167 133.48 197.51 141.05 207.5Z" fill="#30325B" fill-opacity="1.000000" fill-rule="nonzero"/>
	<path id="Vector" d="M104.5 119.87L152.78 104.76L107.49 45.68C107.49 45.68 84.94 56.47 82.2 60.87C79.46 65.28 104.5 119.87 104.5 119.87Z" fill="#FFFFFF" fill-opacity="1.000000" fill-rule="nonzero"/>
	<path id="Vector" d="M104.5 120.41C104.56 120.42 104.61 120.42 104.66 120.41L152.94 105.3C153.02 105.27 153.1 105.22 153.16 105.16C153.22 105.1 153.27 105.02 153.29 104.94C153.32 104.86 153.33 104.77 153.31 104.69C153.3 104.6 153.26 104.52 153.21 104.45L107.97 45.31C107.89 45.21 107.78 45.14 107.66 45.11C107.54 45.08 107.41 45.09 107.3 45.15C106.37 45.59 84.63 56.15 81.79 60.58C78.95 65.02 101.48 114.47 104.05 120.08C104.09 120.17 104.15 120.25 104.23 120.31C104.31 120.36 104.41 120.4 104.5 120.41ZM151.88 104.49L104.79 119.21C95.15 98.15 80.79 64.16 82.66 61.16C85.09 57.29 104.32 47.78 107.33 46.31L151.88 104.49Z" fill="#30325B" fill-opacity="1.000000" fill-rule="nonzero"/>
	<path id="Vector" d="M95.38 45.05C96.26 45.05 100.66 55 101.11 55.84C105.43 63.87 109.43 72.24 113.96 80.06C122.92 95.54 142.41 104.89 157.55 112.93C159.55 114.01 161.77 115.09 164.02 114.68C165.61 114.25 167.05 113.4 168.2 112.22C173.38 107.63 177.53 101.99 180.38 95.68C180.83 94.86 181.04 93.94 180.97 93.01C180.85 92.26 180.5 91.56 179.99 91C179.47 90.45 178.8 90.06 178.06 89.88C170.05 88.49 158.24 87.56 151.77 83.4C140.98 76.53 128.54 56.33 120.32 38.63C110.29 41.09 101.57 43.65 95.38 45.05Z" fill="#FF5A57" fill-opacity="1.000000" fill-rule="nonzero"/>
	<path id="Vector" d="M67.11 58.47C66.86 58.66 76.82 82.41 77.29 83.57C81 92.28 94.01 108.26 101.84 113.26C96.83 104.32 95.36 90.18 95 80.1C94.84 75.2 90.8 66.59 88.95 62.06C88.76 61.62 87.19 47.45 87.39 47.32C87.37 47.34 73.42 53.44 67.11 58.47Z" fill="#FF5A57" fill-opacity="1.000000" fill-rule="nonzero"/>
	<path id="Vector" d="M84.22 48.58L87.01 58.1C87.01 58.1 89.53 62.08 95.46 58.74C101.4 55.39 101.1 50.73 101.1 50.73L95.25 33.16C95.25 33.16 90.47 31.58 88.95 20.92C88.95 20.92 79.95 26.74 70.13 28.23C70.13 28.23 73.3 39.88 75.47 44.61C77.64 49.34 84.22 48.58 84.22 48.58Z" fill="#FFFFFF" fill-opacity="1.000000" fill-rule="nonzero"/>
	<path id="Vector" d="M91.09 60.61C92.74 60.55 94.34 60.06 95.74 59.2C101.89 55.73 101.65 50.89 101.64 50.69L101.64 50.56L95.79 32.98C95.76 32.9 95.72 32.83 95.66 32.77C95.6 32.72 95.52 32.67 95.44 32.65C95.44 32.65 90.95 30.96 89.51 20.84C89.49 20.75 89.46 20.66 89.4 20.59C89.35 20.52 89.28 20.46 89.19 20.43C89.11 20.39 89.02 20.38 88.93 20.38C88.84 20.39 88.75 20.42 88.68 20.47C88.59 20.53 79.67 26.25 70.09 27.7C70.01 27.71 69.94 27.74 69.88 27.78C69.81 27.82 69.76 27.88 69.72 27.94C69.68 28 69.65 28.07 69.64 28.15C69.62 28.22 69.63 28.3 69.65 28.37C69.78 28.86 72.88 40.13 75.04 44.83C77.04 49.15 82.3 49.23 83.89 49.15L86.56 58.25C86.57 58.3 86.59 58.34 86.63 58.38C87.14 59.08 87.82 59.64 88.59 60.03C89.37 60.42 90.23 60.61 91.09 60.61ZM100.56 50.83C100.56 51.39 100.44 55.31 95.16 58.26C90.09 61.13 87.8 58.33 87.48 57.86L84.7 48.43C84.67 48.31 84.59 48.21 84.49 48.13C84.38 48.06 84.26 48.03 84.13 48.04C84.07 48.04 77.91 48.69 75.93 44.38C74.07 40.36 71.45 31.08 70.78 28.68C78.82 27.33 86.27 23.16 88.54 21.81C90 30.69 93.77 33.07 94.81 33.55L100.56 50.83Z" fill="#30325B" fill-opacity="1.000000" fill-rule="nonzero"/>
	<path id="Vector" d="M92.09 33.51C92.06 32.57 92.33 31.65 92.86 30.88C93.4 30.19 94.05 29.59 94.79 29.12C95.16 28.82 95.59 28.6 96.06 28.49C96.39 28.45 96.73 28.48 97.05 28.57C97.84 28.71 98.55 29.12 99.05 29.74C99.4 30.29 99.6 30.9 99.65 31.55C99.75 32.23 99.75 32.93 99.65 33.62C99.57 34.31 99.34 34.97 99 35.58C98.65 36.18 98.19 36.71 97.63 37.13C97.08 37.55 96.45 37.86 95.78 38.03C95.11 38.21 94.41 38.25 93.72 38.15L92.09 33.51Z" fill="#FFFFFF" fill-opacity="1.000000" fill-rule="nonzero"/>
	<path id="Vector" d="M94.5 38.75C95.91 38.75 97.27 38.23 98.33 37.3C99.39 36.37 100.07 35.08 100.25 33.68C100.33 32.96 100.31 32.24 100.18 31.52C100.13 30.8 99.89 30.1 99.49 29.48C98.92 28.74 98.1 28.22 97.17 28.04C96.78 27.93 96.37 27.91 95.96 27.96C95.41 28.08 94.9 28.32 94.46 28.67C93.68 29.18 92.99 29.82 92.42 30.56C91.82 31.43 91.51 32.47 91.55 33.52C91.56 33.66 91.62 33.8 91.72 33.9C91.83 34 91.97 34.05 92.11 34.05C92.25 34.04 92.38 33.98 92.48 33.87C92.58 33.77 92.63 33.63 92.63 33.49C92.6 32.67 92.84 31.86 93.31 31.19C93.8 30.55 94.41 30 95.09 29.56C95.4 29.3 95.77 29.12 96.17 29.03C96.43 28.99 96.7 29.01 96.96 29.09C97.61 29.21 98.21 29.55 98.64 30.06C98.92 30.54 99.08 31.08 99.12 31.64C99.23 32.28 99.25 32.93 99.18 33.58C99.1 34.19 98.9 34.79 98.58 35.33C98.27 35.87 97.86 36.34 97.36 36.72C96.87 37.1 96.3 37.37 95.7 37.53C95.09 37.69 94.46 37.73 93.85 37.64C93.71 37.63 93.57 37.66 93.45 37.75C93.34 37.83 93.26 37.96 93.24 38.1C93.22 38.24 93.26 38.38 93.35 38.5C93.43 38.61 93.56 38.69 93.7 38.71C93.96 38.74 94.23 38.75 94.5 38.75Z" fill="#30325B" fill-opacity="1.000000" fill-rule="nonzero"/>
	<path id="Vector" d="M80.19 32.72C80.19 32.72 78.03 38.58 79.11 39.26C80.19 39.94 82.23 38.81 82.23 38.81L80.19 32.72Z" fill="#FFFFFF" fill-opacity="1.000000" fill-rule="nonzero"/>
	<path id="Vector" d="M79.9 39.97C80.79 39.91 81.65 39.66 82.44 39.23C82.5 39.2 82.55 39.15 82.6 39.1C82.64 39.05 82.68 38.98 82.7 38.92C82.72 38.85 82.72 38.78 82.72 38.71C82.71 38.64 82.69 38.57 82.65 38.51C82.62 38.45 82.57 38.39 82.52 38.34C82.46 38.3 82.4 38.26 82.33 38.24C82.26 38.22 82.19 38.21 82.12 38.22C82.05 38.23 81.98 38.25 81.92 38.28C81.33 38.61 79.92 39.14 79.36 38.77C79.09 38.35 79.7 35.53 80.68 32.85C80.7 32.79 80.72 32.72 80.71 32.65C80.71 32.58 80.7 32.51 80.67 32.44C80.64 32.38 80.6 32.32 80.54 32.27C80.49 32.22 80.43 32.19 80.36 32.16C80.23 32.11 80.08 32.12 79.95 32.18C79.82 32.24 79.72 32.35 79.67 32.49C78.59 35.35 77.63 38.96 78.76 39.66C79.1 39.87 79.5 39.98 79.9 39.97Z" fill="#30325B" fill-opacity="1.000000" fill-rule="nonzero"/>
	<path id="Vector" d="M84.22 48.58C84.22 48.58 89.13 47.01 90.99 44.95C90.99 44.95 90.88 51.17 86 54.28L84.22 48.58Z" fill="#30325B" fill-opacity="1.000000" fill-rule="nonzero"/>
	<path id="Vector" d="M86 54.82C86.1 54.82 86.2 54.79 86.29 54.73C91.35 51.5 91.53 45.23 91.53 45.02C91.53 44.91 91.5 44.8 91.44 44.71C91.38 44.62 91.29 44.55 91.19 44.51C91.09 44.47 90.98 44.46 90.87 44.48C90.76 44.51 90.66 44.57 90.59 44.65C88.85 46.58 84.11 48.11 84.06 48.12C83.99 48.14 83.93 48.17 83.87 48.22C83.82 48.26 83.77 48.32 83.74 48.38C83.71 48.45 83.69 48.52 83.68 48.59C83.68 48.66 83.69 48.73 83.71 48.8L85.48 54.5C85.51 54.57 85.55 54.64 85.61 54.7C85.66 54.76 85.73 54.81 85.81 54.84C85.87 54.84 85.94 54.84 86 54.82ZM90.32 46.28C89.92 49.08 88.49 51.62 86.31 53.42L84.9 48.91C86.8 48.27 88.62 47.39 90.3 46.28L90.32 46.28Z" fill="#30325B" fill-opacity="1.000000" fill-rule="nonzero"/>
	<path id="Vector" d="M86.26 28.73C86.26 28.73 83.68 26.89 82.49 30.2L86.26 28.73Z" fill="#FFFFFF" fill-opacity="1.000000" fill-rule="nonzero"/>
	<path id="Vector" d="M82.49 30.74C82.6 30.73 82.71 30.7 82.8 30.64C82.89 30.57 82.96 30.48 83 30.38C83.07 30.04 83.22 29.73 83.43 29.46C83.64 29.19 83.91 28.97 84.22 28.83C84.51 28.77 84.8 28.77 85.09 28.83C85.38 28.89 85.65 29 85.89 29.17C85.95 29.21 86.02 29.24 86.08 29.26C86.15 29.27 86.23 29.28 86.3 29.26C86.37 29.25 86.43 29.22 86.49 29.19C86.55 29.15 86.61 29.1 86.65 29.04C86.69 28.98 86.72 28.92 86.73 28.85C86.75 28.78 86.75 28.71 86.74 28.64C86.73 28.57 86.7 28.51 86.66 28.45C86.62 28.39 86.58 28.34 86.52 28.3C86.14 28.03 85.71 27.85 85.26 27.76C84.81 27.67 84.34 27.68 83.89 27.79C83.41 27.98 82.98 28.28 82.64 28.66C82.3 29.05 82.06 29.51 81.93 30.01C81.9 30.09 81.89 30.18 81.9 30.27C81.91 30.35 81.95 30.43 82 30.51C82.05 30.58 82.11 30.63 82.19 30.67C82.27 30.71 82.35 30.74 82.44 30.74L82.49 30.74Z" fill="#30325B" fill-opacity="1.000000" fill-rule="nonzero"/>
	<path id="Vector" d="M77.74 32.84C77.74 32.84 75.46 30.04 74.01 33.35L77.74 32.84Z" fill="#FFFFFF" fill-opacity="1.000000" fill-rule="nonzero"/>
	<path id="Vector" d="M74.01 33.89C74.11 33.89 74.22 33.86 74.3 33.8C74.39 33.74 74.46 33.66 74.5 33.57C74.74 33.01 75.14 32.36 75.69 32.28C76.24 32.21 77.09 32.9 77.33 33.18C77.37 33.24 77.43 33.29 77.49 33.33C77.56 33.37 77.63 33.4 77.7 33.41C77.78 33.42 77.85 33.42 77.93 33.4C78 33.38 78.07 33.34 78.12 33.3C78.18 33.25 78.23 33.19 78.26 33.12C78.3 33.05 78.32 32.98 78.32 32.91C78.33 32.83 78.31 32.75 78.29 32.68C78.26 32.61 78.22 32.55 78.16 32.5C77.86 32.1 77.47 31.77 77.02 31.55C76.58 31.33 76.08 31.21 75.58 31.21C74.74 31.32 74.06 31.97 73.54 33.13C73.49 33.27 73.49 33.41 73.54 33.55C73.59 33.68 73.69 33.79 73.82 33.85C73.88 33.87 73.95 33.88 74.01 33.89Z" fill="#30325B" fill-opacity="1.000000" fill-rule="nonzero"/>
	<path id="Vector" d="M77 41.51C77 41.51 87.79 47.84 87.79 36.59L77 41.51Z" fill="#FFFFFF" fill-opacity="1.000000" fill-rule="nonzero"/>
	<path id="Vector" d="M82.86 43.83C83.8 43.85 84.74 43.62 85.57 43.17C87.4 42.09 88.34 39.93 88.35 36.6C88.35 36.53 88.34 36.46 88.31 36.39C88.29 36.32 88.25 36.26 88.2 36.21C88.15 36.16 88.09 36.12 88.02 36.09C87.96 36.06 87.88 36.05 87.81 36.05C87.67 36.05 87.54 36.11 87.43 36.21C87.33 36.31 87.28 36.45 87.27 36.59C87.27 39.5 86.51 41.4 85.04 42.23C82.16 43.87 77.32 41.08 77.27 41.05C77.14 40.97 76.99 40.96 76.86 40.99C76.72 41.03 76.6 41.12 76.53 41.25C76.46 41.37 76.44 41.52 76.47 41.66C76.51 41.79 76.6 41.91 76.73 41.99C78.6 43.06 80.7 43.7 82.86 43.83Z" fill="#30325B" fill-opacity="1.000000" fill-rule="nonzero"/>
	<path id="Vector" d="M94.56 61.08L99.62 62.56L97.91 65.8C97.91 65.8 110.86 82.38 118.96 83.07C123.65 83.39 128.33 82.26 132.35 79.83L140.99 83.88C140.99 83.88 133.13 90.6 132.62 91.13C132.12 91.66 119.1 95.45 110.27 85.74C105.06 79.99 100.36 73.8 96.23 67.23L93.22 65.92L94.56 61.08Z" fill="#30325B" fill-opacity="1.000000" fill-rule="nonzero"/>
	<path id="Vector" d="M116.24 79.14C116.36 79.14 116.49 79.09 116.59 79.01C116.68 78.92 116.75 78.8 116.76 78.68L119.14 62.68C119.16 62.55 119.13 62.43 119.06 62.32C118.99 62.21 118.89 62.13 118.77 62.1L110.69 59.46L116.33 54.31C116.4 54.25 116.45 54.17 116.48 54.08C116.51 53.99 116.51 53.9 116.49 53.81C116.47 53.71 116.43 53.63 116.37 53.56C116.31 53.49 116.23 53.44 116.14 53.41L103.99 49.21C103.86 49.16 103.71 49.17 103.58 49.23C103.45 49.29 103.35 49.41 103.3 49.54C103.26 49.68 103.27 49.83 103.33 49.96C103.39 50.09 103.5 50.19 103.64 50.23L114.93 54.13L109.28 59.31C109.21 59.37 109.16 59.46 109.13 59.55C109.1 59.64 109.1 59.74 109.12 59.83C109.14 59.92 109.18 60.01 109.25 60.08C109.31 60.15 109.39 60.2 109.48 60.23L118 63L115.7 78.55C115.68 78.69 115.71 78.83 115.8 78.94C115.88 79.05 116.01 79.13 116.15 79.15L116.24 79.14Z" fill="#30325B" fill-opacity="1.000000" fill-rule="nonzero"/>
	<path id="Vector" d="M145.63 96.51L145.75 96.51C145.86 96.51 156.95 94.26 162.97 92.89C163.03 92.88 163.1 92.85 163.16 92.81C163.22 92.77 163.27 92.72 163.31 92.66C163.34 92.6 163.37 92.54 163.38 92.47C163.39 92.4 163.39 92.32 163.38 92.26C163.36 92.19 163.33 92.12 163.29 92.06C163.25 92 163.2 91.95 163.14 91.92C163.08 91.88 163.01 91.85 162.94 91.84C162.87 91.83 162.8 91.83 162.73 91.85C156.73 93.21 145.65 95.43 145.53 95.45C145.46 95.46 145.4 95.49 145.34 95.53C145.28 95.57 145.23 95.62 145.19 95.68C145.15 95.74 145.12 95.81 145.11 95.88C145.1 95.95 145.1 96.02 145.11 96.09C145.14 96.21 145.21 96.31 145.3 96.39C145.39 96.46 145.51 96.5 145.63 96.51Z" fill="#30325B" fill-opacity="1.000000" fill-rule="nonzero"/>
	<path id="Vector" d="M89.84 80.4C89.95 80.4 90.06 80.37 90.15 80.31C90.24 80.25 90.31 80.16 90.35 80.06C90.39 79.96 90.4 79.85 90.37 79.74C90.35 79.63 90.29 79.54 90.21 79.46L78.06 68.35L83.45 63.56C83.52 63.51 83.57 63.44 83.6 63.36C83.63 63.28 83.64 63.19 83.63 63.11C83.62 63.02 83.59 62.94 83.55 62.87C83.5 62.79 83.44 62.73 83.37 62.69L75.76 58.31L80.72 54.31C80.83 54.22 80.91 54.09 80.92 53.95C80.94 53.81 80.9 53.67 80.81 53.56C80.71 53.45 80.58 53.38 80.44 53.37C80.3 53.35 80.16 53.39 80.04 53.48L74.5 58C74.44 58.06 74.39 58.13 74.35 58.21C74.32 58.29 74.3 58.38 74.31 58.47C74.32 58.56 74.35 58.64 74.39 58.71C74.44 58.79 74.5 58.85 74.58 58.89L82.21 63.29L76.9 67.98C76.84 68.02 76.79 68.08 76.75 68.14C76.7 68.2 76.68 68.27 76.66 68.35C76.66 68.42 76.68 68.5 76.71 68.57C76.74 68.63 76.79 68.7 76.85 68.75L89.49 80.22C89.58 80.32 89.71 80.39 89.84 80.4Z" fill="#30325B" fill-opacity="1.000000" fill-rule="nonzero"/>
	<path id="Vector" d="M118.76 110.57C118.85 110.57 118.94 110.55 119.02 110.51C119.14 110.44 119.24 110.32 119.28 110.19C119.32 110.05 119.3 109.9 119.24 109.77C119.12 109.56 107.31 88.19 101.49 76.65C101.46 76.58 101.42 76.52 101.37 76.46C101.31 76.41 101.25 76.37 101.18 76.35C101.11 76.32 101.04 76.31 100.96 76.31C100.89 76.32 100.81 76.34 100.75 76.37C100.68 76.41 100.62 76.45 100.58 76.51C100.53 76.57 100.49 76.63 100.47 76.7C100.45 76.78 100.45 76.85 100.46 76.92C100.47 77 100.49 77.07 100.53 77.13C106.35 88.7 118.17 110.08 118.29 110.29C118.33 110.38 118.4 110.45 118.48 110.5C118.57 110.55 118.66 110.57 118.76 110.57Z" fill="#D1D3D4" fill-opacity="1.000000" fill-rule="nonzero"/>
	<path id="Vector" d="M219.59 200.65L229.18 212.53C229.18 212.53 222.49 243.83 218.26 240.37C214.02 236.9 211.28 222.28 211.28 222.28L219.59 200.65Z" fill="#FFFFFF" fill-opacity="1.000000" fill-rule="nonzero"/>
	<path id="Vector" d="M218.95 241.16C219.13 241.15 219.31 241.12 219.48 241.06C223.79 239.55 229.13 215.36 229.71 212.6C229.73 212.52 229.73 212.44 229.71 212.36C229.69 212.29 229.65 212.21 229.6 212.15L220.02 200.28C219.96 200.2 219.88 200.14 219.8 200.11C219.71 200.08 219.61 200.07 219.52 200.08C219.43 200.1 219.34 200.13 219.27 200.19C219.19 200.25 219.13 200.33 219.1 200.42L210.78 222.01C210.75 222.1 210.75 222.2 210.78 222.3C210.88 222.9 213.6 237.12 217.93 240.71C218.21 240.98 218.57 241.13 218.95 241.16ZM228.66 212.64C226.5 222.83 222 239.06 219.17 240.04C219.09 240.08 218.99 240.08 218.9 240.06C218.81 240.04 218.72 239.99 218.66 239.93C214.85 236.76 212.18 223.83 211.9 222.29L219.82 201.72L228.66 212.64Z" fill="#30325B" fill-opacity="1.000000" fill-rule="nonzero"/>
	<path id="Vector" d="M114.28 36.31C114.28 36.31 122.47 64.03 129.97 71.38C137.47 78.73 153.72 87.69 151.75 83.45C149.79 79.2 140.33 75.73 133.68 63.55C127.03 51.37 122.69 34.41 122.69 34.41C122.69 34.41 123.29 31.4 118.87 32.41C114.46 33.41 114.28 36.31 114.28 36.31Z" fill="#30325B" fill-opacity="1.000000" fill-rule="nonzero"/>
	<path id="Vector" d="M87.82 99.57C82.54 94.37 77.99 88.47 74.29 82.04C69.57 73.78 65.96 62.31 64.67 57.9C64.52 57.38 64.56 56.83 64.78 56.33C65 55.84 65.38 55.44 65.87 55.21L67.35 54.46C67.65 54.31 67.98 54.23 68.32 54.22C68.66 54.21 69 54.28 69.31 54.41C69.62 54.55 69.89 54.76 70.11 55.01C70.33 55.27 70.5 55.57 70.58 55.9C72.64 63.39 78.99 84.82 87.82 99.57Z" fill="#30325B" fill-opacity="1.000000" fill-rule="nonzero"/>
	<path id="Vector" d="M146.75 61.24C146.01 62.08 138.86 66.64 138.86 66.64C138.86 66.64 135.73 62.26 132.61 61.59L134.56 65.11L124.65 65.25C124.65 65.25 124.65 74.62 133.37 76.54C142.08 78.46 156.98 69.42 156.98 69.42L146.75 61.24Z" fill="#FFFFFF" fill-opacity="1.000000" fill-rule="nonzero"/>
	<path id="Vector" d="M136.03 77.34C144.86 77.34 156.71 70.18 157.26 69.84C157.32 69.81 157.37 69.76 157.42 69.7C157.46 69.65 157.49 69.58 157.51 69.51C157.52 69.44 157.53 69.37 157.52 69.3C157.5 69.23 157.48 69.16 157.44 69.1C157.4 69.04 157.35 68.99 157.3 68.95C157.24 68.9 157.17 68.87 157.1 68.86C157.03 68.84 156.96 68.84 156.89 68.85C156.82 68.86 156.75 68.89 156.69 68.93C156.55 69.01 141.92 77.84 133.47 76C126.33 74.43 125.34 67.73 125.21 65.76L134.57 65.63C134.66 65.63 134.75 65.61 134.83 65.56C134.91 65.51 134.97 65.45 135.02 65.37C135.06 65.28 135.09 65.19 135.09 65.1C135.09 65 135.06 64.91 135.02 64.83L133.78 62.67C135.58 63.8 137.15 65.27 138.41 66.98C138.45 67.04 138.5 67.09 138.55 67.13C138.61 67.17 138.67 67.19 138.74 67.21C138.81 67.22 138.88 67.22 138.94 67.2C139.01 67.19 139.07 67.16 139.13 67.12C139.88 66.65 146.36 62.49 147.14 61.62C147.19 61.57 147.22 61.5 147.25 61.44C147.27 61.37 147.28 61.3 147.27 61.23C147.27 61.16 147.25 61.09 147.22 61.03C147.19 60.96 147.14 60.91 147.09 60.86C147.04 60.81 146.98 60.77 146.92 60.74C146.85 60.71 146.78 60.7 146.71 60.7C146.64 60.7 146.57 60.71 146.5 60.74C146.44 60.77 146.38 60.81 146.33 60.86C145.85 61.4 141.73 64.1 138.98 65.91C138.08 64.76 135.44 61.59 132.7 61.05C132.6 61.03 132.49 61.04 132.39 61.07C132.3 61.11 132.22 61.18 132.16 61.26C132.1 61.35 132.07 61.45 132.07 61.55C132.07 61.66 132.1 61.76 132.16 61.85L133.67 64.54L124.67 64.67C124.53 64.67 124.39 64.73 124.29 64.83C124.19 64.93 124.14 65.06 124.14 65.2C124.14 65.31 124.14 75.05 133.27 77.08C134.18 77.26 135.11 77.35 136.03 77.34Z" fill="#30325B" fill-opacity="1.000000" fill-rule="nonzero"/>
	<path id="Vector" d="M66.29 91.77L72.77 87.83L74.3 82.04L77.3 85.45C77.3 85.45 81.62 81.89 84.34 83.19C86.5 84.27 87.58 89.79 85.42 92.58C83.26 95.36 70.81 101.96 70.81 101.96L66.29 91.77Z" fill="#FFFFFF" fill-opacity="1.000000" fill-rule="nonzero"/>
	<path id="Vector" d="M70.82 102.5C70.91 102.5 71 102.48 71.07 102.44C71.59 102.17 83.7 95.76 85.85 92.9C87.33 90.96 87.31 88.06 86.83 86.17C86.73 85.46 86.47 84.79 86.08 84.19C85.68 83.59 85.17 83.08 84.57 82.7C82.02 81.52 78.55 83.78 77.35 84.71L74.69 81.69C74.62 81.61 74.54 81.56 74.45 81.53C74.35 81.5 74.25 81.5 74.16 81.52C74.06 81.54 73.98 81.59 73.91 81.66C73.84 81.72 73.79 81.81 73.76 81.9L72.29 87.48L66.01 91.31C65.95 91.34 65.9 91.39 65.86 91.45C65.81 91.51 65.78 91.57 65.77 91.64C65.75 91.71 65.75 91.78 65.76 91.85C65.77 91.92 65.8 91.99 65.84 92.05C65.87 92.11 65.92 92.16 65.98 92.21C66.03 92.25 66.1 92.28 66.16 92.3C66.23 92.31 66.3 92.32 66.37 92.31C66.44 92.3 66.51 92.27 66.57 92.23L73.05 88.29C73.11 88.26 73.16 88.21 73.2 88.16C73.24 88.1 73.27 88.04 73.29 87.97L74.5 83.16L76.84 85.81C76.94 85.91 77.07 85.96 77.21 85.96C77.35 85.96 77.49 85.91 77.59 85.81C78.67 84.88 82.05 82.68 84.07 83.65C84.52 83.97 84.91 84.38 85.2 84.85C85.48 85.33 85.67 85.86 85.75 86.41C86.03 87.38 86.1 88.4 85.96 89.4C85.83 90.4 85.49 91.37 84.96 92.23C82.95 94.9 70.66 101.4 70.53 101.46C70.47 101.5 70.41 101.54 70.37 101.6C70.33 101.65 70.29 101.71 70.27 101.78C70.25 101.85 70.25 101.92 70.25 101.99C70.26 102.06 70.28 102.13 70.32 102.19C70.36 102.28 70.43 102.37 70.52 102.42C70.61 102.48 70.72 102.51 70.82 102.5Z" fill="#30325B" fill-opacity="1.000000" fill-rule="nonzero"/>
	<path id="Vector" d="M290.21 185.16C290.32 185.17 290.42 185.14 290.51 185.09C290.64 185.01 290.73 184.88 290.76 184.73C290.79 184.59 290.76 184.44 290.69 184.31L223.47 78.06C223.39 77.93 223.26 77.85 223.12 77.82C222.97 77.78 222.82 77.81 222.69 77.89C222.57 77.97 222.48 78.09 222.45 78.23C222.42 78.38 222.44 78.53 222.52 78.65L289.75 184.93C289.8 185 289.87 185.06 289.95 185.11C290.03 185.15 290.12 185.17 290.21 185.16Z" fill="#D1D3D4" fill-opacity="1.000000" fill-rule="nonzero"/>
	<path id="Vector" d="M246.77 178.8C246.84 178.81 246.9 178.81 246.97 178.8C247.04 178.77 247.1 178.73 247.15 178.68C247.21 178.63 247.25 178.57 247.28 178.51C247.31 178.44 247.33 178.37 247.33 178.3C247.33 178.22 247.32 178.15 247.29 178.08L211 83.46C210.98 83.39 210.94 83.33 210.89 83.27C210.84 83.22 210.78 83.18 210.71 83.15C210.65 83.12 210.57 83.1 210.5 83.1C210.43 83.09 210.36 83.11 210.29 83.13C210.15 83.19 210.04 83.29 209.98 83.43C209.92 83.56 209.91 83.72 209.96 83.86L246.25 178.45C246.29 178.55 246.36 178.64 246.46 178.7C246.55 178.76 246.66 178.8 246.77 178.8Z" fill="#D1D3D4" fill-opacity="1.000000" fill-rule="nonzero"/>
	<path id="Vector" d="M102.51 252.12C102.6 252.12 102.7 252.09 102.79 252.04C102.91 251.96 103 251.84 103.04 251.69C103.08 251.55 103.06 251.4 102.98 251.27L43.94 153.9C43.91 153.84 43.86 153.78 43.8 153.74C43.74 153.69 43.67 153.66 43.6 153.64C43.53 153.63 43.46 153.62 43.38 153.63C43.31 153.64 43.24 153.67 43.18 153.71C43.05 153.79 42.96 153.91 42.93 154.05C42.89 154.2 42.92 154.35 42.99 154.47L102.02 251.85C102.07 251.94 102.14 252 102.23 252.05C102.31 252.1 102.41 252.12 102.51 252.12Z" fill="#D1D3D4" fill-opacity="1.000000" fill-rule="nonzero"/>
	<path id="Vector" d="M58.31 248.5L58.47 248.5C58.61 248.45 58.73 248.35 58.8 248.22C58.87 248.09 58.88 247.94 58.84 247.79C56.02 238.59 31.34 157.81 30.9 156.92C30.84 156.79 30.73 156.69 30.59 156.64C30.45 156.6 30.3 156.6 30.17 156.67C30.04 156.73 29.94 156.84 29.89 156.98C29.84 157.12 29.84 157.27 29.9 157.4C30.44 158.77 48.36 217.32 57.78 248.08C57.81 248.2 57.88 248.3 57.97 248.38C58.07 248.46 58.19 248.5 58.31 248.5Z" fill="#D1D3D4" fill-opacity="1.000000" fill-rule="nonzero"/>
	<path id="Vector" d="M72.02 243.47C72.09 243.48 72.16 243.48 72.23 243.47C72.36 243.41 72.47 243.3 72.53 243.17C72.58 243.03 72.59 242.88 72.54 242.74L51.68 190.93C51.63 190.79 51.52 190.69 51.38 190.63C51.25 190.57 51.1 190.56 50.96 190.62C50.89 190.64 50.83 190.68 50.77 190.73C50.72 190.79 50.68 190.85 50.65 190.92C50.62 190.99 50.61 191.06 50.61 191.13C50.6 191.21 50.62 191.28 50.65 191.35L71.5 243.16C71.55 243.26 71.62 243.34 71.71 243.39C71.81 243.45 71.91 243.47 72.02 243.47Z" fill="#D1D3D4" fill-opacity="1.000000" fill-rule="nonzero"/>
	<path id="Vector" d="M259.53 161.05C259.63 161.05 259.72 161.02 259.8 160.97C259.87 160.94 259.92 160.89 259.97 160.83C260.02 160.78 260.05 160.71 260.07 160.64C260.09 160.57 260.1 160.5 260.09 160.42C260.08 160.35 260.06 160.28 260.02 160.22L234.2 113.96C234.16 113.9 234.11 113.84 234.06 113.8C234 113.75 233.93 113.72 233.86 113.7C233.79 113.68 233.71 113.67 233.64 113.68C233.57 113.69 233.5 113.71 233.43 113.75C233.3 113.82 233.21 113.94 233.17 114.09C233.13 114.23 233.15 114.38 233.22 114.51L259.09 160.77C259.14 160.85 259.2 160.92 259.28 160.96C259.35 161.01 259.44 161.04 259.53 161.05Z" fill="#D1D3D4" fill-opacity="1.000000" fill-rule="nonzero"/>
	<path id="Vector" d="M264.38 195.92C264.45 195.93 264.52 195.93 264.59 195.92C264.66 195.89 264.72 195.85 264.77 195.8C264.82 195.74 264.87 195.68 264.89 195.61C264.92 195.55 264.94 195.47 264.94 195.4C264.93 195.32 264.92 195.25 264.89 195.18L258.14 178.99C258.08 178.85 257.97 178.75 257.84 178.69C257.7 178.63 257.55 178.63 257.41 178.69C257.27 178.75 257.17 178.86 257.12 179C257.06 179.13 257.06 179.29 257.12 179.42L263.86 195.61C263.91 195.71 263.99 195.79 264.08 195.84C264.17 195.89 264.28 195.92 264.38 195.92Z" fill="#D1D3D4" fill-opacity="1.000000" fill-rule="nonzero"/>
	<path id="Vector" d="M90.69 252.68C90.79 252.69 90.88 252.66 90.96 252.61C91.03 252.57 91.08 252.53 91.13 252.47C91.18 252.41 91.21 252.35 91.23 252.28C91.25 252.21 91.26 252.13 91.25 252.06C91.24 251.99 91.22 251.92 91.18 251.85L80.07 231.71C80 231.58 79.88 231.49 79.74 231.45C79.6 231.4 79.45 231.42 79.32 231.49C79.19 231.57 79.09 231.69 79.05 231.83C79.01 231.97 79.03 232.12 79.1 232.25L90.22 252.39C90.27 252.48 90.33 252.55 90.42 252.6C90.5 252.65 90.6 252.68 90.69 252.68Z" fill="#D1D3D4" fill-opacity="1.000000" fill-rule="nonzero"/>
</svg>
