<svg width="235.727539" height="180.131836" viewBox="0 0 235.728 180.132" fill="none" xmlns="http://www.w3.org/2000/svg" xmlns:xlink="http://www.w3.org/1999/xlink">
	<desc>
			Created with Pixso.
	</desc>
	<defs/>
	<path id="Vector" d="M53.5 37.81C53.5 46.08 46.79 52.79 38.52 52.79C30.25 52.79 23.55 46.08 23.55 37.81C23.55 29.54 30.25 22.83 38.52 22.83C46.79 22.83 53.5 29.54 53.5 37.81Z" fill="#FFFFFF" fill-opacity="1.000000" fill-rule="evenodd"/>
	<path id="Vector" d="M38.52 53.17C35.48 53.17 32.51 52.27 29.99 50.58C27.46 48.9 25.49 46.5 24.33 43.69C23.17 40.89 22.86 37.8 23.45 34.82C24.04 31.84 25.51 29.1 27.65 26.96C29.8 24.81 32.54 23.34 35.52 22.75C38.49 22.16 41.58 22.46 44.39 23.62C47.2 24.79 49.59 26.75 51.28 29.28C52.97 31.8 53.87 34.77 53.87 37.81C53.87 41.88 52.25 45.78 49.37 48.66C46.49 51.54 42.59 53.16 38.52 53.17ZM38.52 23.22C35.63 23.22 32.81 24.08 30.41 25.68C28.01 27.28 26.14 29.56 25.03 32.23C23.92 34.9 23.63 37.83 24.2 40.66C24.76 43.5 26.15 46.1 28.19 48.14C30.23 50.18 32.84 51.57 35.67 52.14C38.5 52.7 41.44 52.41 44.1 51.3C46.77 50.2 49.05 48.33 50.65 45.92C52.26 43.52 53.11 40.7 53.11 37.81C53.11 33.94 51.57 30.24 48.83 27.5C46.1 24.77 42.39 23.23 38.52 23.22Z" fill="#D1D3D4" fill-opacity="1.000000" fill-rule="nonzero"/>
	<path id="Vector" d="M143.41 68.81L193.03 86.19L166.97 92.88L136.44 77.79L143.41 68.81Z" fill="#30325B" fill-opacity="1.000000" fill-rule="nonzero"/>
	<path id="Vector" d="M166.99 93.21C166.94 93.22 166.89 93.22 166.85 93.21L136.32 78.12C136.27 78.1 136.23 78.07 136.2 78.03C136.17 77.99 136.15 77.94 136.14 77.89C136.12 77.84 136.12 77.79 136.14 77.75C136.14 77.7 136.17 77.65 136.2 77.61L143.14 68.6C143.18 68.54 143.24 68.5 143.31 68.48C143.38 68.46 143.45 68.46 143.52 68.49L193.14 85.87C193.21 85.89 193.27 85.94 193.31 86C193.35 86.06 193.37 86.13 193.36 86.2C193.36 86.27 193.34 86.34 193.29 86.39C193.24 86.45 193.18 86.49 193.11 86.5L167.05 93.2L166.99 93.21ZM136.96 77.7L166.99 92.52L191.86 86.14L143.53 69.21L136.96 77.7Z" fill="#30325B" fill-opacity="1.000000" fill-rule="nonzero"/>
	<path id="Vector" d="M85.27 126.64C85.27 126.64 58.95 134.61 45.85 126.64C45.85 126.64 55.87 139.14 69.49 137.75C83.12 136.35 85.27 126.64 85.27 126.64Z" fill="#D1D3D4" fill-opacity="1.000000" fill-rule="nonzero"/>
	<path id="Vector" d="M94.44 119.73C94.44 119.73 74.39 139.16 51.62 134.04C20 126.99 -4.35 89.4 16.82 42.24C16.82 42.24 -5.19 74.2 6.19 109.84C21.79 158.63 59.47 156.62 97.83 146.65L94.44 119.73Z" fill="#D1D3D4" fill-opacity="1.000000" fill-rule="nonzero"/>
	<path id="Vector" d="M148.96 31.95C148.96 31.95 143.23 58.02 143.4 68.81C143.4 69.34 145.11 70.67 145.15 71.09C145.98 80.71 114.92 72.6 114.92 72.6C114.92 72.6 113.77 52.19 116.08 44.88C118.4 37.57 120.88 35.97 120.88 35.97C120.88 35.97 141.65 27.81 145.3 28.96C148.95 30.1 148.96 31.95 148.96 31.95Z" fill="#FF5A57" fill-opacity="1.000000" fill-rule="nonzero"/>
	<path id="Vector" d="M137.81 43.08L177.32 22.36L174.17 12.2L131.92 33.61L137.81 43.08Z" fill="#FF5A57" fill-opacity="1.000000" fill-rule="nonzero"/>
	<path id="Vector" d="M81.51 126.93C81.51 126.93 80.92 131.16 84.31 139.65C87.69 148.14 91.02 150.8 91.02 150.8L103.06 149.28L91.26 119.69L81.51 126.93Z" fill="#30325B" fill-opacity="1.000000" fill-rule="nonzero"/>
	<path id="Vector" d="M91.02 151.13C90.95 151.13 90.88 151.11 90.82 151.06C90.68 150.95 87.37 148.25 83.99 139.77C80.61 131.3 81.14 127.06 81.17 126.88C81.17 126.83 81.19 126.79 81.21 126.75C81.24 126.71 81.27 126.68 81.3 126.65L91.05 119.45C91.09 119.42 91.14 119.4 91.19 119.39C91.24 119.38 91.29 119.38 91.34 119.39C91.39 119.41 91.44 119.43 91.48 119.47C91.51 119.5 91.54 119.54 91.56 119.59L103.36 149.18C103.38 149.23 103.39 149.28 103.39 149.33C103.39 149.38 103.38 149.43 103.36 149.48C103.33 149.52 103.3 149.56 103.26 149.58C103.22 149.61 103.17 149.63 103.12 149.64L91.08 151.12L91.02 151.13ZM81.83 127.12C81.77 127.88 81.64 132.06 84.62 139.52C87.6 146.98 90.55 149.92 91.13 150.45L102.59 149.04L91.12 120.25L81.83 127.12Z" fill="#30325B" fill-opacity="1.000000" fill-rule="nonzero"/>
	<path id="Vector" d="M141.39 146.65C141.39 146.65 138.04 156.31 127.31 165.37C116.58 174.43 89.57 179.78 89.57 179.78L104.38 148.82L141.39 146.65Z" fill="#FFFFFF" fill-opacity="1.000000" fill-rule="nonzero"/>
	<path id="Vector" d="M89.6 180.13C89.55 180.13 89.49 180.11 89.44 180.09C89.39 180.06 89.34 180.03 89.31 179.98C89.27 179.93 89.24 179.86 89.23 179.79C89.22 179.72 89.23 179.65 89.26 179.58L104.02 148.63C104.05 148.57 104.1 148.51 104.15 148.48C104.21 148.44 104.27 148.42 104.34 148.41L141.36 146.27C141.42 146.27 141.48 146.28 141.54 146.31C141.6 146.33 141.64 146.37 141.68 146.43C141.72 146.47 141.74 146.53 141.75 146.59C141.77 146.65 141.76 146.72 141.74 146.77C141.7 146.87 138.23 156.64 127.54 165.66C116.85 174.68 89.9 180.07 89.6 180.13ZM104.67 149.15L90.25 179.22C94.67 178.28 117.56 173.15 127.08 165.07C136.18 157.4 139.97 149.2 140.83 147.06L104.67 149.15Z" fill="#30325B" fill-opacity="1.000000" fill-rule="nonzero"/>
	<path id="Vector" d="M120.91 95.28C120.91 95.28 111.85 92.07 97.83 92.88C83.81 93.69 60.52 106.93 60.52 106.93L92.58 119.2L120.91 95.28Z" fill="#FFFFFF" fill-opacity="1.000000" fill-rule="nonzero"/>
	<path id="Vector" d="M92.58 119.58C92.53 119.59 92.49 119.59 92.44 119.58L60.39 107.29C60.32 107.27 60.26 107.22 60.22 107.16C60.18 107.1 60.15 107.04 60.14 106.97C60.14 106.89 60.15 106.82 60.19 106.76C60.22 106.7 60.27 106.64 60.33 106.61C60.57 106.47 83.85 93.31 97.81 92.5C111.76 91.7 120.95 94.89 121.03 94.92C121.09 94.95 121.15 94.98 121.2 95.04C121.24 95.09 121.27 95.15 121.28 95.22C121.3 95.28 121.29 95.35 121.27 95.41C121.24 95.48 121.2 95.53 121.15 95.58L92.82 119.5C92.75 119.55 92.67 119.58 92.58 119.58ZM61.42 106.87L92.53 118.76L120.16 95.43C117.88 94.74 109.54 92.57 97.87 93.26C85.43 93.98 65.42 104.67 61.42 106.87Z" fill="#30325B" fill-opacity="1.000000" fill-rule="nonzero"/>
	<path id="Vector" d="M85.29 116.75C97.07 105.21 116.08 93.32 138.87 84.22C173.43 70.44 199.02 82.33 207.49 87.34C208.41 87.88 209.13 88.72 209.52 89.71C209.92 90.71 209.98 91.8 209.68 92.83C206.98 102.3 196.59 128.53 162.04 142.31C139.24 151.41 117.27 155.86 100.78 155.58C100.78 155.58 95.47 150.89 90.06 137.37C84.65 123.86 85.29 116.75 85.29 116.75Z" fill="#FFFFFF" fill-opacity="1.000000" fill-rule="nonzero"/>
	<path id="Vector" d="M102.2 155.98L100.77 155.98C100.68 155.98 100.59 155.95 100.52 155.89C100.3 155.69 95.08 150.97 89.71 137.51C84.35 124.05 84.89 117.03 84.91 116.73C84.92 116.64 84.96 116.56 85.02 116.49C97.25 104.51 116.83 92.62 138.74 83.87C173.04 70.21 198.38 81.51 207.69 87.01C208.68 87.6 209.45 88.5 209.88 89.57C210.3 90.64 210.36 91.82 210.05 92.93C207.08 103.33 196.48 128.98 162.18 142.66C140.88 151.16 119.13 155.98 102.2 155.98ZM100.93 155.22C117.91 155.45 140.15 150.67 161.9 141.96C195.89 128.41 206.38 103.02 209.32 92.73C209.59 91.78 209.54 90.77 209.17 89.86C208.81 88.94 208.15 88.17 207.3 87.67C198.09 82.23 173 71.03 139.02 84.58C117.27 93.25 97.83 105.07 85.66 116.93C85.61 117.97 85.52 124.95 90.42 137.22C95.31 149.49 100.18 154.48 100.93 155.21L100.93 155.22Z" fill="#30325B" fill-opacity="1.000000" fill-rule="nonzero"/>
	<path id="Vector" d="M209.68 92.83C206.14 104.54 199.7 115.16 190.96 123.71C190.96 123.71 183.59 118.67 177.19 102.6C170.79 86.53 172.64 77.82 172.64 77.82C184.86 78 196.85 81.28 207.47 87.34C208.39 87.88 209.11 88.71 209.51 89.71C209.92 90.7 209.97 91.8 209.68 92.83Z" fill="#FFFFFF" fill-opacity="1.000000" fill-rule="nonzero"/>
	<path id="Vector" d="M190.96 124.09C190.88 124.09 190.81 124.06 190.75 124.02C190.44 123.81 183.21 118.71 176.83 102.78C170.45 86.85 172.21 78.13 172.28 77.74C172.3 77.66 172.35 77.58 172.41 77.52C172.48 77.47 172.57 77.44 172.65 77.44C184.95 77.61 197 80.9 207.67 87.01C208.67 87.6 209.43 88.5 209.86 89.57C210.29 90.64 210.35 91.82 210.03 92.93C206.51 104.7 200.05 115.39 191.27 123.98C191.23 124.02 191.18 124.05 191.13 124.07C191.07 124.09 191.02 124.1 190.96 124.09ZM172.98 78.2C172.74 79.88 171.92 88.36 177.53 102.48C183.15 116.6 189.59 122.21 190.92 123.22C199.51 114.77 205.84 104.28 209.31 92.74C209.58 91.79 209.53 90.78 209.16 89.87C208.8 88.95 208.14 88.18 207.3 87.68C196.83 81.69 185.03 78.43 172.98 78.2Z" fill="#30325B" fill-opacity="1.000000" fill-rule="nonzero"/>
	<path id="Vector" d="M90.56 115.13C90.51 115.13 90.45 115.12 90.4 115.1C90.35 115.07 90.31 115.04 90.27 115C90.24 114.96 90.22 114.92 90.2 114.87C90.18 114.82 90.18 114.77 90.18 114.72C90.19 114.68 90.2 114.63 90.22 114.58C90.25 114.54 90.28 114.5 90.32 114.47C98.85 107.49 107.79 101.04 117.1 95.15C117.19 95.1 117.29 95.08 117.39 95.11C117.48 95.13 117.57 95.19 117.62 95.27C117.65 95.32 117.67 95.36 117.68 95.41C117.68 95.46 117.68 95.51 117.67 95.56C117.66 95.61 117.64 95.65 117.61 95.69C117.58 95.73 117.54 95.76 117.5 95.79C108.22 101.66 99.31 108.09 90.8 115.03C90.74 115.09 90.65 115.13 90.56 115.13Z" fill="#FFFFFF" fill-opacity="1.000000" fill-rule="nonzero"/>
	<path id="Vector" d="M119.67 154.55C119.57 154.55 119.48 154.52 119.41 154.45C119.3 154.35 109.05 144.59 103.96 131.81C98.87 119.04 99.58 104.89 99.59 104.76C99.59 104.71 99.6 104.66 99.62 104.61C99.64 104.56 99.67 104.52 99.71 104.49C99.75 104.46 99.79 104.43 99.84 104.41C99.89 104.4 99.94 104.39 99.99 104.39C100.09 104.4 100.19 104.45 100.25 104.52C100.32 104.6 100.35 104.7 100.35 104.8C100.35 104.93 99.64 118.93 104.67 131.53C109.69 144.13 119.84 153.8 119.93 153.9C119.97 153.93 119.99 153.98 120.01 154.02C120.03 154.07 120.04 154.12 120.04 154.17C120.04 154.22 120.03 154.27 120.01 154.31C119.99 154.36 119.97 154.4 119.93 154.44C119.86 154.51 119.77 154.55 119.67 154.55Z" fill="#30325B" fill-opacity="1.000000" fill-rule="nonzero"/>
	<path id="Vector" d="M206.44 86.4C206.44 86.4 221.03 82.6 221.89 84.77C222.76 86.94 209.57 94.23 209.57 94.23L206.44 86.4Z" fill="#30325B" fill-opacity="1.000000" fill-rule="nonzero"/>
	<path id="Vector" d="M209.57 94.56C209.5 94.56 209.43 94.53 209.37 94.49C209.31 94.44 209.27 94.38 209.26 94.31C209.24 94.24 209.24 94.17 209.27 94.1C209.3 94.03 209.35 93.98 209.41 93.94C215.63 90.5 222.06 86.06 221.55 84.9C221.04 83.73 213.37 84.93 206.5 86.72C206.46 86.74 206.41 86.74 206.37 86.73C206.32 86.73 206.28 86.71 206.24 86.69C206.21 86.66 206.17 86.64 206.15 86.6C206.12 86.56 206.1 86.52 206.09 86.48C206.08 86.44 206.08 86.39 206.08 86.35C206.09 86.31 206.1 86.26 206.13 86.23C206.15 86.19 206.18 86.16 206.21 86.13C206.25 86.1 206.29 86.08 206.33 86.07C209.82 85.17 221.27 82.39 222.17 84.65C223.08 86.91 212.86 92.78 209.7 94.52C209.66 94.54 209.62 94.55 209.57 94.56Z" fill="#30325B" fill-opacity="1.000000" fill-rule="nonzero"/>
	<path id="Vector" d="M207.74 95.6C205.75 93.01 204.51 89.91 204.18 86.66C204.16 86.15 204.33 85.65 204.66 85.26C204.99 84.87 205.46 84.62 205.97 84.55C206.18 84.5 206.41 84.5 206.63 84.54C206.85 84.58 207.06 84.66 207.24 84.78C207.43 84.91 207.59 85.07 207.71 85.25C207.83 85.44 207.92 85.65 207.96 85.87C208.24 88.67 209.29 91.33 211 93.57C211.12 93.76 211.21 93.97 211.25 94.19C211.29 94.41 211.28 94.63 211.23 94.85C211.18 95.07 211.09 95.27 210.96 95.45C210.83 95.63 210.66 95.78 210.47 95.9C210.06 96.19 209.55 96.33 209.05 96.28C208.54 96.22 208.08 95.98 207.74 95.6Z" fill="#FFFFFF" fill-opacity="1.000000" fill-rule="nonzero"/>
	<path id="Vector" d="M209.25 96.67C208.91 96.68 208.56 96.6 208.25 96.46C207.93 96.31 207.66 96.09 207.44 95.82C205.41 93.18 204.15 90.03 203.8 86.72C203.76 86.1 203.96 85.5 204.36 85.03C204.75 84.56 205.31 84.26 205.92 84.19C206.22 84.14 206.53 84.16 206.83 84.23C207.12 84.3 207.4 84.44 207.64 84.62C207.84 84.77 208 84.95 208.12 85.16C208.23 85.37 208.31 85.6 208.33 85.84C208.62 88.58 209.66 91.18 211.33 93.36C211.48 93.55 211.58 93.77 211.64 94.01C211.7 94.24 211.71 94.48 211.67 94.72C211.62 95.02 211.52 95.32 211.35 95.58C211.19 95.84 210.97 96.06 210.72 96.24C210.29 96.53 209.77 96.68 209.25 96.67ZM206.27 84.9L206.02 84.9C205.61 84.95 205.23 85.15 204.96 85.47C204.69 85.78 204.54 86.19 204.56 86.6C204.89 89.78 206.1 92.81 208.04 95.35C208.32 95.66 208.7 95.85 209.11 95.89C209.52 95.93 209.94 95.82 210.27 95.57C210.44 95.46 210.58 95.31 210.7 95.14C210.81 94.97 210.89 94.78 210.92 94.58C210.94 94.44 210.93 94.31 210.9 94.18C210.87 94.05 210.81 93.92 210.73 93.82C208.97 91.52 207.88 88.79 207.58 85.91C207.56 85.77 207.52 85.64 207.45 85.52C207.38 85.4 207.29 85.29 207.18 85.21C206.92 85.01 206.6 84.9 206.27 84.91L206.27 84.9Z" fill="#30325B" fill-opacity="1.000000" fill-rule="nonzero"/>
	<path id="Vector" d="M122.68 148.12C122.58 148.12 122.48 148.09 122.4 148.02C122.33 147.96 122.28 147.86 122.27 147.76C122.27 147.66 122.3 147.56 122.37 147.49C122.44 147.41 122.53 147.37 122.63 147.36C122.97 147.32 156.81 143.26 183.75 121.43C183.83 121.37 183.93 121.34 184.03 121.35C184.13 121.36 184.22 121.41 184.28 121.49C184.34 121.57 184.37 121.67 184.36 121.77C184.35 121.87 184.31 121.96 184.23 122.03C157.11 144.03 123.06 148.07 122.72 148.11L122.68 148.12Z" fill="#D1D3D4" fill-opacity="1.000000" fill-rule="nonzero"/>
	<path id="Vector" d="M138.4 27.23C139.08 26.95 139.62 26.42 139.92 25.75C141.17 23.83 141.85 21.58 141.88 19.28C141.81 15.91 140.43 12.71 138.04 10.34C135.65 7.97 132.42 6.62 129.06 6.59L131.74 8.77C129.44 8.68 127.15 9.16 125.08 10.16C123 11.16 121.21 12.66 119.85 14.52C120.76 14.25 121.73 14.3 122.61 14.65C121.23 15 119.88 15.44 118.56 15.96C118.35 16.02 118.17 16.14 118.03 16.31C117.92 16.55 117.91 16.82 117.99 17.07C118.96 21.58 122.34 25.75 126.86 26.7C127.61 26.86 128.37 26.93 129.18 27.03C130.91 27.25 132.61 27.61 134.34 27.7C135.43 27.78 136.53 27.7 137.6 27.47C137.87 27.41 138.14 27.33 138.4 27.23Z" fill="#FFFFFF" fill-opacity="1.000000" fill-rule="nonzero"/>
	<path id="Vector" d="M135.13 28.09L134.28 28.09C133.14 28.01 132.01 27.87 130.89 27.67C130.29 27.58 129.69 27.49 129.1 27.42L128.53 27.35C127.94 27.27 127.34 27.2 126.74 27.07C122.34 26.15 118.68 22.17 117.63 17.21C117.57 17.04 117.55 16.86 117.57 16.68C117.58 16.5 117.64 16.33 117.72 16.17C117.89 15.94 118.14 15.77 118.41 15.69C119.31 15.34 120.22 15.03 121.14 14.75C120.73 14.73 120.32 14.79 119.92 14.91C119.85 14.92 119.78 14.92 119.71 14.9C119.64 14.88 119.59 14.83 119.54 14.78C119.5 14.72 119.48 14.64 119.48 14.57C119.48 14.5 119.5 14.43 119.54 14.37C120.84 12.6 122.52 11.16 124.46 10.13C126.4 9.11 128.55 8.54 130.73 8.47L128.81 6.91C128.76 6.86 128.72 6.8 128.7 6.73C128.68 6.66 128.69 6.59 128.71 6.52C128.73 6.45 128.78 6.4 128.84 6.36C128.9 6.32 128.97 6.29 129.04 6.29C132.5 6.33 135.8 7.7 138.26 10.12C140.72 12.55 142.14 15.83 142.23 19.28C142.21 21.66 141.51 23.98 140.22 25.97C139.88 26.7 139.28 27.28 138.53 27.59C138.25 27.7 137.96 27.79 137.67 27.86C136.83 28.03 135.98 28.11 135.13 28.09ZM121.03 13.97C121.61 13.97 122.18 14.08 122.72 14.3C122.79 14.33 122.85 14.38 122.89 14.44C122.93 14.5 122.95 14.57 122.94 14.65C122.94 14.72 122.91 14.79 122.86 14.84C122.82 14.9 122.75 14.94 122.68 14.96C121.32 15.31 119.98 15.75 118.67 16.26C118.58 16.27 118.5 16.29 118.43 16.34C118.35 16.39 118.3 16.45 118.26 16.53C118.22 16.61 118.21 16.7 118.22 16.79C118.23 16.87 118.26 16.95 118.31 17.02C119.33 21.76 122.78 25.52 126.91 26.39C127.48 26.51 128.07 26.58 128.64 26.65L129.22 26.72C129.82 26.79 130.42 26.89 131.03 26.98C132.13 27.18 133.23 27.31 134.35 27.39C135.4 27.47 136.47 27.39 137.5 27.16C137.76 27.1 138.02 27.02 138.26 26.92C138.86 26.67 139.35 26.2 139.61 25.59C140.84 23.72 141.51 21.53 141.54 19.28C141.47 16.19 140.27 13.22 138.16 10.95C136.05 8.69 133.17 7.28 130.09 6.99L131.95 8.51C132 8.56 132.04 8.62 132.06 8.69C132.08 8.76 132.08 8.83 132.05 8.9C132.03 8.97 131.99 9.04 131.92 9.08C131.86 9.12 131.79 9.13 131.71 9.12C129.62 9.05 127.54 9.45 125.62 10.3C123.71 11.15 122.01 12.42 120.66 14.02L121.03 13.97Z" fill="#30325B" fill-opacity="1.000000" fill-rule="nonzero"/>
	<path id="Vector" d="M129.16 34.05C129.16 34.05 129.29 41.98 133.03 42.23C136.76 42.48 136.82 35.22 136.82 35.22L129.16 34.05Z" fill="#30325B" fill-opacity="1.000000" fill-rule="nonzero"/>
	<path id="Vector" d="M133.21 42.57L133 42.57C129 42.31 128.82 34.4 128.82 34.06C128.81 34.01 128.81 33.96 128.83 33.92C128.84 33.87 128.86 33.83 128.89 33.79C128.93 33.75 128.97 33.72 129.01 33.7C129.06 33.68 129.1 33.67 129.15 33.67C129.2 33.67 129.25 33.68 129.3 33.7C129.34 33.72 129.38 33.75 129.41 33.79C129.44 33.83 129.47 33.87 129.48 33.92C129.49 33.96 129.5 34.01 129.49 34.06C129.49 34.14 129.67 41.69 133.05 41.91C133.34 41.94 133.64 41.9 133.92 41.8C134.19 41.7 134.45 41.55 134.66 41.34C136.43 39.7 136.52 35.27 136.52 35.22C136.52 35.14 136.56 35.06 136.62 35C136.68 34.94 136.76 34.9 136.85 34.9C136.94 34.9 137.02 34.93 137.09 34.99C137.15 35.06 137.18 35.14 137.18 35.23C137.18 35.43 137.1 40 135.11 41.83C134.6 42.31 133.92 42.58 133.21 42.57Z" fill="#30325B" fill-opacity="1.000000" fill-rule="nonzero"/>
	<path id="Vector" d="M136.5 30.21L136.85 35.22C136.85 35.22 136.52 38.04 133.42 37.38C132.51 37.17 131.65 36.77 130.91 36.19C130.17 35.62 129.58 34.88 129.16 34.05C129.16 34.05 128.4 22.06 128.12 18.87C130.35 18.61 132.49 17.88 134.42 16.73C134.71 16.51 135.02 16.33 135.36 16.19C135.98 16.1 135.9 16.45 136.17 16.95C136.67 17.9 137.47 18.67 138.45 19.13C138.58 19.17 138.69 19.25 138.77 19.35C138.82 19.43 138.84 19.53 138.85 19.62C139.16 22.48 139.75 25.33 139.34 28.21C139 30.66 136.5 30.21 136.5 30.21Z" fill="#FFFFFF" fill-opacity="1.000000" fill-rule="nonzero"/>
	<path id="Vector" d="M134.31 37.83C133.99 37.83 133.67 37.79 133.35 37.72C132.38 37.51 131.47 37.08 130.69 36.47C129.91 35.86 129.28 35.08 128.84 34.19C128.83 34.15 128.83 34.11 128.84 34.07C128.84 33.95 128.08 22.05 127.81 18.9C127.8 18.8 127.83 18.71 127.89 18.64C127.92 18.61 127.95 18.58 127.99 18.56C128.03 18.54 128.08 18.53 128.12 18.53C130.3 18.26 132.4 17.54 134.28 16.42L134.54 16.25C134.76 16.06 135.02 15.92 135.3 15.84C135.41 15.81 135.53 15.8 135.64 15.82C135.76 15.84 135.87 15.88 135.97 15.94C136.06 16 136.15 16.08 136.21 16.18C136.28 16.27 136.33 16.38 136.35 16.49C136.39 16.6 136.43 16.71 136.49 16.81C136.94 17.7 137.68 18.42 138.59 18.84C138.78 18.91 138.95 19.03 139.06 19.19C139.14 19.32 139.18 19.46 139.19 19.61C139.25 20.23 139.34 20.84 139.41 21.45C139.82 23.7 139.91 26 139.68 28.28C139.65 28.62 139.54 28.96 139.38 29.27C139.21 29.57 138.98 29.84 138.7 30.05C138.16 30.41 137.52 30.59 136.87 30.57L137.19 35.16C137.14 35.58 137.01 35.99 136.81 36.35C136.6 36.72 136.32 37.04 135.99 37.3C135.5 37.65 134.91 37.84 134.31 37.83ZM129.5 33.96C129.9 34.74 130.47 35.41 131.16 35.95C131.85 36.48 132.64 36.85 133.5 37.05C133.82 37.16 134.16 37.2 134.5 37.17C134.85 37.13 135.17 37.02 135.47 36.84C135.76 36.66 136 36.42 136.19 36.13C136.37 35.84 136.49 35.51 136.53 35.17L136.18 30.24C136.18 30.19 136.18 30.14 136.2 30.09C136.22 30.04 136.25 30 136.29 29.96C136.33 29.92 136.37 29.9 136.43 29.88C136.48 29.86 136.53 29.86 136.58 29.87C137.18 29.96 137.8 29.83 138.31 29.51C138.51 29.35 138.68 29.15 138.8 28.93C138.92 28.7 139 28.45 139.02 28.2C139.23 25.98 139.14 23.75 138.75 21.56C138.67 20.95 138.59 20.33 138.53 19.71C138.53 19.71 138.53 19.6 138.53 19.58L138.37 19.5C137.3 19.02 136.43 18.19 135.89 17.15C135.82 17.03 135.76 16.9 135.71 16.77C135.68 16.69 135.65 16.61 135.61 16.54C135.55 16.53 135.49 16.53 135.42 16.54C135.24 16.61 135.07 16.71 134.92 16.83C134.8 16.91 134.69 16.99 134.6 17.04C132.74 18.15 130.68 18.88 128.53 19.19C128.76 22.64 129.44 33.02 129.5 33.96Z" fill="#30325B" fill-opacity="1.000000" fill-rule="nonzero"/>
	<path id="Vector" d="M136.64 32.67C135.41 32.77 134.19 32.39 133.23 31.62C132.84 31.3 132.52 30.89 132.29 30.44C132.07 29.98 131.95 29.48 131.94 28.97C133.33 29.75 134.9 30.18 136.49 30.21L136.64 32.67Z" fill="#30325B" fill-opacity="1.000000" fill-rule="nonzero"/>
	<path id="Vector" d="M136.26 33.02C135.07 33.05 133.9 32.63 132.99 31.86C132.56 31.51 132.21 31.06 131.97 30.56C131.73 30.06 131.6 29.51 131.59 28.95C131.6 28.89 131.62 28.84 131.65 28.79C131.68 28.74 131.72 28.7 131.77 28.68C131.82 28.65 131.88 28.63 131.93 28.63C131.99 28.63 132.05 28.65 132.1 28.68C133.44 29.44 134.94 29.86 136.48 29.9C136.57 29.9 136.66 29.94 136.72 30C136.78 30.05 136.83 30.14 136.83 30.22L136.96 32.68C136.97 32.77 136.94 32.85 136.89 32.92C136.83 32.98 136.75 33.02 136.67 33.03C136.53 33.04 136.4 33.04 136.26 33.02ZM132.32 29.55C132.5 30.25 132.89 30.89 133.43 31.37C134.23 32.03 135.24 32.37 136.28 32.35L136.18 30.55C134.84 30.49 133.52 30.14 132.32 29.55Z" fill="#30325B" fill-opacity="1.000000" fill-rule="nonzero"/>
	<path id="Vector" d="M135.73 21.32C135.73 21.32 137.49 23.6 137.14 24.07C136.78 24.54 135.7 24.31 135.7 24.31L135.73 21.32Z" fill="#FFFFFF" fill-opacity="1.000000" fill-rule="nonzero"/>
	<path id="Vector" d="M136.25 24.69C136.04 24.7 135.84 24.67 135.63 24.63C135.59 24.62 135.55 24.61 135.51 24.58C135.48 24.56 135.44 24.53 135.42 24.49C135.39 24.46 135.38 24.42 135.37 24.37C135.36 24.33 135.36 24.29 135.37 24.24C135.37 24.2 135.39 24.16 135.41 24.12C135.44 24.08 135.47 24.05 135.5 24.03C135.54 24 135.58 23.98 135.63 23.97C135.67 23.96 135.71 23.96 135.76 23.97C136.13 24.05 136.73 24.05 136.88 23.86C136.53 23.03 136.05 22.25 135.47 21.56C135.44 21.52 135.42 21.49 135.41 21.44C135.4 21.4 135.39 21.36 135.4 21.31C135.41 21.27 135.42 21.23 135.44 21.19C135.46 21.15 135.49 21.12 135.53 21.09C135.56 21.06 135.6 21.04 135.65 21.03C135.69 21.02 135.73 21.02 135.78 21.03C135.82 21.03 135.86 21.05 135.9 21.07C135.94 21.09 135.97 21.12 136 21.16C137.27 22.82 137.74 23.88 137.4 24.31C137.25 24.45 137.06 24.56 136.87 24.62C136.67 24.69 136.46 24.71 136.25 24.69Z" fill="#30325B" fill-opacity="1.000000" fill-rule="nonzero"/>
	<path id="Vector" d="M135.51 27.29L135.38 27.29C133.7 27.2 132.44 25.58 132.39 25.51C132.36 25.48 132.34 25.44 132.33 25.39C132.32 25.35 132.32 25.31 132.32 25.26C132.33 25.22 132.34 25.18 132.36 25.14C132.39 25.1 132.41 25.07 132.45 25.04C132.48 25.01 132.52 25 132.57 24.98C132.61 24.97 132.65 24.97 132.7 24.97C132.74 24.98 132.78 24.99 132.82 25.02C132.86 25.04 132.89 25.07 132.92 25.1C132.92 25.1 134.05 26.55 135.41 26.62C135.77 26.62 136.12 26.55 136.44 26.39C136.77 26.24 137.05 26.01 137.27 25.73C137.34 25.67 137.42 25.64 137.51 25.64C137.6 25.64 137.68 25.67 137.74 25.73C137.78 25.76 137.8 25.8 137.82 25.84C137.84 25.88 137.85 25.93 137.85 25.97C137.85 26.02 137.84 26.06 137.82 26.1C137.8 26.14 137.78 26.18 137.74 26.21C137.47 26.54 137.13 26.8 136.75 26.99C136.36 27.18 135.94 27.28 135.51 27.29Z" fill="#30325B" fill-opacity="1.000000" fill-rule="nonzero"/>
	<path id="Vector" d="M138 97.85L132.46 120.41C132.46 120.41 160.08 111.16 161.07 108.14C162.07 105.12 146.79 108.6 146.79 108.6L147.87 102.15L138 97.85Z" fill="#FFFFFF" fill-opacity="1.000000" fill-rule="nonzero"/>
	<path id="Vector" d="M132.46 120.79C132.4 120.79 132.34 120.77 132.29 120.75C132.24 120.72 132.2 120.69 132.16 120.64C132.13 120.6 132.1 120.54 132.09 120.49C132.08 120.43 132.08 120.37 132.09 120.32L137.63 97.75C137.64 97.7 137.67 97.65 137.7 97.61C137.74 97.56 137.78 97.53 137.83 97.5C137.88 97.48 137.94 97.46 137.99 97.46C138.05 97.46 138.1 97.47 138.15 97.5L148.02 101.8C148.09 101.83 148.16 101.89 148.2 101.97C148.24 102.04 148.26 102.13 148.25 102.21L147.27 108.1C150.3 107.44 159.72 105.52 161.25 107.21C161.38 107.35 161.47 107.52 161.5 107.7C161.53 107.89 161.51 108.08 161.44 108.26C160.41 111.37 135.43 119.82 132.61 120.77C132.56 120.79 132.51 120.79 132.46 120.79ZM138.26 98.38L133 119.83C143.62 116.24 160.04 110.05 160.72 108.02C160.77 107.84 160.72 107.77 160.68 107.72C159.64 106.57 151.66 107.88 146.87 108.97C146.81 108.98 146.75 108.98 146.69 108.96C146.63 108.94 146.57 108.91 146.53 108.87C146.48 108.83 146.45 108.77 146.43 108.71C146.41 108.65 146.41 108.59 146.42 108.53L147.46 102.38L138.26 98.38Z" fill="#30325B" fill-opacity="1.000000" fill-rule="nonzero"/>
	<path id="Vector" d="M114.92 72.61C114.92 72.61 111.09 88.54 118.65 90.71C126.22 92.87 138.87 84.22 138.87 84.22L134.78 99.02C134.78 99.02 132.03 105.71 136.01 105.41C139.6 100.76 144.5 99.53 147.87 102.15C153.14 96.3 162.4 77.92 156.42 71.62C150.44 65.31 114.92 72.61 114.92 72.61Z" fill="#30325B" fill-opacity="1.000000" fill-rule="nonzero"/>
	<path id="Vector" d="M135.76 105.77C135.43 105.8 135.09 105.74 134.78 105.6C134.48 105.46 134.21 105.25 134 104.98C132.72 103.22 134.4 99.1 134.47 98.91L138.31 85.01C135.45 86.84 125.21 92.94 118.59 91.08C110.8 88.85 114.46 73.24 114.62 72.58C114.63 72.52 114.67 72.46 114.71 72.42C114.76 72.37 114.81 72.34 114.88 72.33C116.34 72.03 150.66 65.06 156.69 71.44C162.72 77.81 153.65 96.33 148.14 102.41C148.09 102.48 148.01 102.52 147.93 102.53C147.84 102.53 147.76 102.51 147.69 102.46C147.05 101.96 146.32 101.6 145.54 101.38C144.76 101.17 143.94 101.12 143.14 101.23C140.71 101.54 138.3 103.11 136.31 105.66C136.28 105.7 136.25 105.73 136.21 105.75C136.17 105.77 136.12 105.79 136.08 105.79L135.76 105.77ZM138.88 83.91C138.95 83.91 139.02 83.93 139.07 83.98C139.13 84.01 139.17 84.07 139.19 84.13C139.22 84.2 139.22 84.27 139.2 84.33L135.13 99.11C134.67 100.24 133.69 103.35 134.58 104.57C134.73 104.76 134.93 104.9 135.16 104.99C135.38 105.08 135.63 105.12 135.87 105.08C137.93 102.47 140.47 100.85 143.03 100.53C144.73 100.29 146.46 100.71 147.86 101.7C153.09 95.68 161.86 77.82 156.2 71.85C150.55 65.89 118.17 72.32 115.23 72.91C114.82 74.77 112.06 88.48 118.78 90.36C126.09 92.44 138.59 84 138.72 83.92C138.77 83.89 138.82 83.88 138.88 83.89L138.88 83.91Z" fill="#30325B" fill-opacity="1.000000" fill-rule="nonzero"/>
	<path id="Vector" d="M132.46 120.41C132.46 120.41 135.49 123.38 144.14 120.41C152.79 117.44 163.71 109.46 161.07 108.14C158.43 106.82 135.38 116.24 132.46 120.41Z" fill="#30325B" fill-opacity="1.000000" fill-rule="nonzero"/>
	<path id="Vector" d="M137.26 122.07C133.75 122.07 132.31 120.73 132.23 120.64C132.17 120.59 132.13 120.52 132.13 120.44C132.12 120.36 132.14 120.28 132.18 120.21C135.07 116.12 158.14 106.29 161.22 107.84C161.41 107.92 161.57 108.06 161.67 108.24C161.78 108.42 161.83 108.63 161.81 108.83C161.63 111.46 151.79 118.13 144.25 120.73C142.01 121.56 139.65 122.01 137.26 122.07ZM132.93 120.35C133.79 120.92 137.03 122.5 144.03 120.09C151.62 117.47 161 110.93 161.14 108.79C161.15 108.71 161.13 108.64 161.09 108.57C161.05 108.51 160.99 108.46 160.92 108.44C158.64 107.29 136.54 116.12 132.93 120.35Z" fill="#30325B" fill-opacity="1.000000" fill-rule="nonzero"/>
	<path id="Vector" d="M148.02 107.16C146.03 107.91 144.09 108.8 142.24 109.84L142.55 106.35C142.55 106.35 147.03 104.18 148.02 104.3L148.02 107.16Z" fill="#FFFFFF" fill-opacity="1.000000" fill-rule="nonzero"/>
	<path id="Vector" d="M142.25 110.22C142.18 110.22 142.12 110.2 142.06 110.17C142 110.13 141.95 110.08 141.92 110.01C141.88 109.95 141.87 109.87 141.88 109.8L142.19 106.32C142.19 106.26 142.22 106.19 142.25 106.14C142.29 106.09 142.34 106.05 142.39 106.02C143.15 105.64 147.05 103.8 148.09 103.92C148.18 103.93 148.27 103.98 148.33 104.05C148.39 104.12 148.42 104.21 148.42 104.3L148.42 107.16C148.42 107.24 148.39 107.31 148.35 107.38C148.31 107.44 148.25 107.49 148.18 107.52C146.21 108.25 144.3 109.13 142.46 110.16C142.4 110.2 142.33 110.22 142.25 110.22ZM142.93 106.6L142.7 109.13C144.31 108.29 145.97 107.55 147.66 106.9L147.66 104.7C146.03 105.2 144.45 105.83 142.93 106.6Z" fill="#30325B" fill-opacity="1.000000" fill-rule="nonzero"/>
	<path id="Vector" d="M124.22 34.71C124.22 34.71 96.83 45.84 94.51 48.96C92.18 52.09 88.2 71.04 88.2 71.04L96.48 69.85C96.48 69.85 103.97 58.09 106.29 55.6C108.61 53.11 121.73 49.63 121.73 49.63L124.22 34.71Z" fill="#FF5A57" fill-opacity="1.000000" fill-rule="nonzero"/>
	<path id="Vector" d="M100.99 64.49L95.42 74.02C95.42 74.02 100.15 77.81 99 78.43C97.84 79.05 96.72 79.55 96.72 79.55C96.72 79.55 96.6 82.66 95.2 83.04C93.81 83.41 86.02 82.72 86.37 80.05C87.58 70.84 89.09 60.36 88.99 61.56L100.99 64.49Z" fill="#FFFFFF" fill-opacity="1.000000" fill-rule="nonzero"/>
	<path id="Vector" d="M94.11 83.51C92.03 83.51 88.28 82.98 86.75 81.65C86.5 81.46 86.3 81.21 86.18 80.92C86.05 80.63 86 80.31 86.04 79.99C86.55 76.09 87.18 71.5 87.75 67.43C88.26 63.87 88.51 62.29 88.66 61.6C88.65 61.58 88.65 61.55 88.66 61.52C88.65 61.54 88.65 61.55 88.66 61.57C88.79 61.06 88.88 61.06 89.07 61.09C89.12 61.09 89.17 61.11 89.22 61.13C89.27 61.16 89.31 61.2 89.34 61.24L101.06 64.11C101.12 64.13 101.17 64.16 101.22 64.2C101.26 64.23 101.3 64.28 101.32 64.33C101.35 64.39 101.36 64.45 101.36 64.5C101.36 64.56 101.35 64.62 101.32 64.68L95.9 73.91C97.04 74.84 99.64 77.1 99.54 78.18C99.53 78.3 99.49 78.41 99.43 78.51C99.36 78.61 99.27 78.69 99.16 78.75C98.32 79.21 97.49 79.61 97.11 79.78C97.05 80.59 96.75 83.01 95.36 83.38C94.95 83.47 94.53 83.51 94.11 83.51ZM89.32 62.02C89 64.02 87.8 72.22 86.79 80.09C86.78 80.28 86.81 80.47 86.89 80.65C86.97 80.82 87.1 80.97 87.25 81.08C88.94 82.55 94.08 82.95 95.15 82.66C96.05 82.42 96.34 80.27 96.37 79.53C96.37 79.46 96.39 79.39 96.43 79.34C96.47 79.28 96.52 79.23 96.59 79.21C96.59 79.21 97.68 78.7 98.81 78.1C98.85 77.69 97.16 75.9 95.17 74.3C95.1 74.25 95.05 74.17 95.04 74.08C95.02 73.99 95.04 73.9 95.08 73.82L100.39 64.71L89.32 62.02Z" fill="#30325B" fill-opacity="1.000000" fill-rule="nonzero"/>
	<path id="Vector" d="M174.81 25.31C174.81 24.93 171.07 12.2 171.07 12.2L179.17 9.37C179.17 9.37 179.05 6.38 180.79 5.25C182.52 4.13 184.9 5.25 184.9 5.25C184.9 5.25 191.99 -0.72 192.86 0.53C193.74 1.77 191.12 4.51 187.14 7.36C187.14 7.36 189.25 13.33 186.89 15.2C185.5 16.31 183.82 16.99 182.05 17.15L174.81 25.31Z" fill="#FFFFFF" fill-opacity="1.000000" fill-rule="nonzero"/>
	<path id="Vector" d="M174.82 25.69C174.77 25.69 174.72 25.69 174.68 25.69C174.61 25.66 174.55 25.62 174.51 25.56C174.46 25.5 174.44 25.43 174.44 25.35C174.35 24.82 172.16 17.29 170.71 12.33C170.69 12.24 170.7 12.14 170.74 12.05C170.79 11.96 170.86 11.9 170.95 11.86L178.79 9.12C178.79 8.3 179 5.98 180.58 4.96C182.17 3.93 184.16 4.57 184.83 4.84C186.19 3.71 191 -0.22 192.61 0C192.73 0.02 192.83 0.05 192.93 0.11C193.03 0.16 193.11 0.24 193.18 0.33C194.43 2.13 190.32 5.55 187.58 7.54C187.98 8.77 189.4 13.74 187.12 15.53C185.72 16.66 184.02 17.36 182.24 17.56L175.1 25.58C175.06 25.62 175.02 25.64 174.97 25.66C174.92 25.68 174.87 25.69 174.82 25.69ZM171.55 12.45C172.71 16.43 174.44 22.39 175.01 24.53L181.77 16.95C181.84 16.87 181.94 16.82 182.04 16.82C183.72 16.65 185.33 16.01 186.65 14.95C188.42 13.55 187.34 9.12 186.78 7.53C186.75 7.45 186.75 7.37 186.78 7.29C186.8 7.21 186.85 7.15 186.92 7.1C191.54 3.77 193.08 1.52 192.55 0.77C192.02 0.44 188.56 2.7 185.14 5.58C185.09 5.63 185.02 5.65 184.95 5.66C184.88 5.67 184.8 5.66 184.74 5.63C184.74 5.63 182.53 4.62 180.99 5.63C179.45 6.63 179.55 9.37 179.55 9.42C179.55 9.5 179.53 9.58 179.48 9.65C179.44 9.71 179.37 9.77 179.29 9.79L171.55 12.45Z" fill="#30325B" fill-opacity="1.000000" fill-rule="nonzero"/>
	<path id="Vector" d="M143.74 62.88L143.67 62.88C143.58 62.86 143.5 62.81 143.45 62.73C143.4 62.65 143.38 62.56 143.4 62.47C145.62 51.53 147.73 31.85 147.62 30.9C147.61 30.86 147.61 30.81 147.62 30.77C147.62 30.72 147.64 30.68 147.66 30.64C147.68 30.61 147.71 30.57 147.75 30.54C147.78 30.52 147.82 30.5 147.87 30.49C147.96 30.47 148.06 30.48 148.14 30.53C148.22 30.58 148.28 30.66 148.3 30.75C148.49 31.45 146.3 51.66 144.08 62.61C144.06 62.69 144.02 62.75 143.96 62.8C143.89 62.85 143.82 62.88 143.74 62.88Z" fill="#30325B" fill-opacity="1.000000" fill-rule="nonzero"/>
	<path id="Vector" d="M108.75 53.8C108.67 53.8 108.6 53.77 108.54 53.72C108.47 53.66 108.43 53.59 108.42 53.51C108.41 53.43 108.42 53.35 108.46 53.28C108.5 53.21 108.56 53.16 108.64 53.13L124.11 48.04C124.2 48.02 124.29 48.04 124.36 48.08C124.44 48.12 124.5 48.19 124.52 48.27C124.55 48.36 124.55 48.45 124.51 48.53C124.48 48.61 124.41 48.67 124.33 48.71L108.86 53.79C108.83 53.8 108.79 53.81 108.75 53.8Z" fill="#30325B" fill-opacity="1.000000" fill-rule="nonzero"/>
	<path id="Vector" d="M185.04 13.21C184.98 13.22 184.91 13.22 184.85 13.21C184.26 13.09 183.71 12.81 183.27 12.41C182.82 12.01 182.48 11.5 182.28 10.94C182.23 11.44 182.03 11.91 181.71 12.3C181.4 12.69 180.97 12.98 180.5 13.14C180.45 13.15 180.41 13.16 180.36 13.15C180.32 13.15 180.27 13.14 180.23 13.11C180.19 13.09 180.16 13.06 180.13 13.03C180.1 12.99 180.08 12.95 180.07 12.9C180.06 12.86 180.06 12.81 180.06 12.77C180.07 12.72 180.09 12.68 180.11 12.64C180.14 12.6 180.17 12.57 180.21 12.54C180.24 12.52 180.29 12.5 180.33 12.49C182.02 12.05 181.73 9.1 181.72 9.07C181.71 8.98 181.74 8.89 181.79 8.83C181.85 8.75 181.93 8.71 182.02 8.7C182.1 8.69 182.19 8.72 182.26 8.77C182.33 8.82 182.37 8.9 182.39 8.99C182.39 8.99 182.86 12.17 184.94 12.48C185.01 12.5 185.09 12.5 185.15 12.48C185.22 12.46 185.28 12.42 185.33 12.36C186.09 11.53 185.26 7.61 184.57 5.34C184.55 5.25 184.56 5.16 184.6 5.08C184.64 5 184.71 4.95 184.79 4.92C184.83 4.91 184.88 4.9 184.92 4.91C184.97 4.91 185.01 4.93 185.05 4.95C185.09 4.97 185.12 5 185.15 5.03C185.18 5.07 185.2 5.11 185.21 5.15C185.4 5.79 187.03 11.41 185.82 12.8C185.73 12.93 185.62 13.03 185.48 13.1C185.35 13.17 185.2 13.21 185.04 13.21Z" fill="#30325B" fill-opacity="1.000000" fill-rule="nonzero"/>
	<path id="Vector" d="M13.95 116.69C12.81 114.42 1.7 95.3 0 83.06C0 83.06 -0.2 106.92 9.72 119.2C19.65 131.49 13.95 116.69 13.95 116.69Z" fill="#D1D3D4" fill-opacity="1.000000" fill-rule="nonzero"/>
	<path id="Vector" d="M130.45 20.36L126.63 22.01L126.63 22.84L131.8 21.32L130.45 20.36Z" fill="#30325B" fill-opacity="1.000000" fill-rule="nonzero"/>
	<path id="Vector" d="M126.63 23.18C126.56 23.18 126.48 23.15 126.43 23.11C126.38 23.08 126.35 23.04 126.33 22.99C126.31 22.94 126.3 22.89 126.3 22.84L126.3 22.01C126.3 21.94 126.31 21.88 126.35 21.82C126.38 21.77 126.43 21.72 126.49 21.7L130.29 20.05C130.34 20.03 130.4 20.02 130.46 20.03C130.51 20.03 130.57 20.05 130.61 20.09L131.96 21.06C132.01 21.1 132.04 21.15 132.07 21.2C132.09 21.26 132.1 21.32 132.09 21.38C132.08 21.45 132.05 21.5 132.01 21.55C131.97 21.6 131.91 21.63 131.85 21.65L126.68 23.17L126.63 23.18ZM126.96 22.23L126.96 22.39L131.05 21.2L130.42 20.74L126.96 22.23Z" fill="#30325B" fill-opacity="1.000000" fill-rule="nonzero"/>
	<path id="Vector" d="M129.2 23.54C128.63 22.83 127.68 21.52 126.63 22.02C126.34 22.16 126.1 22.37 125.92 22.63C125.56 23.17 125.38 23.8 125.39 24.44C125.4 25.09 125.6 25.71 125.98 26.24C126.55 27.21 128.25 28.62 129.24 27.29L129.2 23.54Z" fill="#FFFFFF" fill-opacity="1.000000" fill-rule="nonzero"/>
	<path id="Vector" d="M128.23 28.17L128.13 28.17C127.62 28.06 127.14 27.85 126.71 27.55C126.29 27.25 125.93 26.86 125.67 26.41C125.27 25.82 125.06 25.12 125.06 24.4C125.06 23.69 125.27 22.99 125.67 22.4C125.89 22.09 126.18 21.85 126.52 21.69C127.77 21.13 128.8 22.39 129.37 23.14L129.5 23.32C129.56 23.39 129.59 23.48 129.58 23.57C129.57 23.67 129.53 23.75 129.46 23.81C129.42 23.84 129.38 23.86 129.34 23.88C129.29 23.89 129.25 23.89 129.2 23.89C129.16 23.88 129.11 23.87 129.07 23.85C129.03 23.83 129 23.79 128.97 23.76L128.82 23.58C128.15 22.73 127.49 22.01 126.8 22.32C126.57 22.43 126.37 22.6 126.23 22.82C125.92 23.3 125.76 23.87 125.77 24.45C125.79 25.02 125.97 25.58 126.31 26.05C126.51 26.41 126.78 26.71 127.11 26.96C127.44 27.2 127.81 27.38 128.21 27.47C128.36 27.47 128.5 27.43 128.64 27.36C128.77 27.29 128.88 27.19 128.97 27.07C129.02 27 129.11 26.95 129.2 26.94C129.29 26.93 129.38 26.95 129.45 27.01C129.49 27.03 129.52 27.07 129.54 27.11C129.56 27.15 129.58 27.19 129.59 27.24C129.59 27.28 129.59 27.33 129.57 27.37C129.56 27.41 129.54 27.46 129.51 27.49C129.37 27.7 129.18 27.87 128.95 27.98C128.73 28.1 128.48 28.16 128.23 28.17Z" fill="#30325B" fill-opacity="1.000000" fill-rule="nonzero"/>
	<path id="Vector" d="M135.07 19.88C135.17 20.86 134.23 21.76 132.95 21.9C131.68 22.03 130.56 21.35 130.45 20.37C130.35 19.39 131.3 18.49 132.57 18.35C133.85 18.21 134.97 18.9 135.07 19.88Z" fill="#FFFFFF" fill-opacity="1.000000" fill-rule="evenodd"/>
	<path id="Vector" d="M132.64 22.26C132.06 22.31 131.49 22.15 131.02 21.8C130.56 21.46 130.23 20.96 130.11 20.4C129.98 19.23 131.07 18.12 132.54 17.99C133.2 17.92 133.87 18.05 134.44 18.39C134.71 18.53 134.93 18.74 135.1 18.99C135.27 19.24 135.38 19.53 135.41 19.83C135.54 21 134.45 22.1 132.99 22.23C132.87 22.25 132.75 22.26 132.64 22.26ZM132.89 18.67L132.61 18.67C131.53 18.78 130.72 19.52 130.8 20.31C130.88 21.1 131.82 21.64 132.92 21.53C134.01 21.41 134.81 20.68 134.73 19.89C134.7 19.7 134.62 19.51 134.51 19.35C134.4 19.19 134.25 19.06 134.08 18.96C133.72 18.76 133.31 18.66 132.89 18.67Z" fill="#30325B" fill-opacity="1.000000" fill-rule="nonzero"/>
	<path id="Vector" d="M139.82 19.65C139.93 20.63 138.98 21.53 137.7 21.67C136.43 21.8 135.31 21.12 135.21 20.14C135.1 19.16 136.05 18.26 137.33 18.12C138.6 17.99 139.72 18.67 139.82 19.65Z" fill="#FFFFFF" fill-opacity="1.000000" fill-rule="evenodd"/>
	<path id="Vector" d="M137.4 22.03C136.83 22.08 136.25 21.92 135.79 21.58C135.32 21.23 135 20.73 134.88 20.17C134.75 19 135.85 17.89 137.31 17.77C138.76 17.64 140.07 18.43 140.19 19.6C140.31 20.77 139.22 21.88 137.76 22L137.4 22.03ZM137.67 18.44L137.38 18.44C136.3 18.55 135.48 19.29 135.57 20.08C135.65 20.87 136.61 21.41 137.68 21.3C138.76 21.19 139.58 20.45 139.5 19.66C139.39 19.27 139.14 18.93 138.8 18.71C138.47 18.48 138.06 18.39 137.65 18.44L137.67 18.44Z" fill="#30325B" fill-opacity="1.000000" fill-rule="nonzero"/>
	<path id="Vector" d="M45.85 98.98C45.85 100.92 44.28 102.48 42.35 102.48C40.42 102.48 38.86 100.92 38.86 98.98C38.86 97.05 40.42 95.49 42.35 95.49C44.28 95.49 45.85 97.05 45.85 98.98Z" fill="#FFFFFF" fill-opacity="1.000000" fill-rule="evenodd"/>
	<path id="Vector" d="M42.35 102.86C41.58 102.86 40.83 102.64 40.19 102.21C39.55 101.78 39.05 101.18 38.76 100.47C38.46 99.76 38.39 98.98 38.53 98.22C38.68 97.47 39.05 96.78 39.6 96.23C40.14 95.69 40.83 95.32 41.58 95.17C42.34 95.02 43.12 95.09 43.83 95.39C44.54 95.68 45.15 96.18 45.57 96.82C46 97.46 46.23 98.21 46.23 98.98C46.23 100.01 45.82 100.99 45.09 101.72C44.37 102.45 43.38 102.86 42.35 102.86ZM42.35 95.86C41.73 95.86 41.13 96.04 40.61 96.38C40.1 96.72 39.7 97.21 39.46 97.78C39.22 98.36 39.16 98.98 39.28 99.59C39.4 100.2 39.7 100.76 40.14 101.19C40.57 101.63 41.13 101.93 41.74 102.05C42.34 102.17 42.97 102.11 43.55 101.87C44.12 101.63 44.6 101.23 44.95 100.72C45.29 100.2 45.47 99.59 45.47 98.98C45.47 98.15 45.14 97.36 44.56 96.77C43.97 96.19 43.18 95.86 42.35 95.86Z" fill="#D1D3D4" fill-opacity="1.000000" fill-rule="nonzero"/>
	<path id="Vector" d="M175.91 55.94C175.91 56.91 175.13 57.7 174.16 57.7C173.19 57.7 172.41 56.91 172.41 55.94C172.41 54.97 173.19 54.19 174.16 54.19C175.13 54.19 175.91 54.97 175.91 55.94Z" fill="#FFFFFF" fill-opacity="1.000000" fill-rule="evenodd"/>
	<path id="Vector" d="M174.16 58.08C173.74 58.08 173.33 57.95 172.98 57.72C172.62 57.49 172.35 57.15 172.19 56.76C172.02 56.37 171.98 55.95 172.06 55.53C172.14 55.12 172.35 54.74 172.64 54.44C172.94 54.14 173.32 53.94 173.74 53.85C174.15 53.77 174.58 53.81 174.97 53.97C175.36 54.13 175.69 54.41 175.93 54.76C176.16 55.11 176.29 55.52 176.29 55.94C176.29 56.51 176.06 57.05 175.67 57.45C175.27 57.85 174.73 58.07 174.16 58.08ZM174.16 54.57C173.89 54.57 173.62 54.65 173.4 54.8C173.17 54.95 172.99 55.16 172.89 55.41C172.78 55.66 172.76 55.94 172.81 56.21C172.86 56.47 172.99 56.72 173.18 56.91C173.37 57.1 173.62 57.24 173.88 57.29C174.15 57.34 174.43 57.32 174.68 57.21C174.93 57.11 175.14 56.93 175.3 56.71C175.45 56.48 175.53 56.22 175.53 55.94C175.53 55.58 175.38 55.23 175.13 54.97C174.87 54.72 174.52 54.57 174.16 54.57Z" fill="#D1D3D4" fill-opacity="1.000000" fill-rule="nonzero"/>
	<path id="Vector" d="M202.46 48.38C202.46 50.31 200.89 51.88 198.96 51.88C197.03 51.88 195.47 50.31 195.47 48.38C195.47 46.45 197.03 44.88 198.96 44.88C200.89 44.88 202.46 46.45 202.46 48.38Z" fill="#D1D3D4" fill-opacity="1.000000" fill-rule="evenodd"/>
	<path id="Vector" d="M224.46 158.59C224.46 169.48 215.64 178.3 204.76 178.3C193.88 178.3 185.06 169.48 185.06 158.59C185.06 147.71 193.88 138.89 204.76 138.89C215.64 138.89 224.46 147.71 224.46 158.59Z" fill="#FFFFFF" fill-opacity="1.000000" fill-rule="evenodd"/>
	<path id="Vector" d="M204.77 178.68C201.02 178.68 197.36 177.63 194.18 175.66C191 173.68 188.43 170.86 186.77 167.51C185.11 164.15 184.42 160.4 184.78 156.68C185.13 152.95 186.52 149.4 188.79 146.42C191.06 143.45 194.11 141.16 197.61 139.83C201.11 138.5 204.91 138.17 208.58 138.88C212.26 139.59 215.66 141.31 218.41 143.85C221.15 146.39 223.14 149.65 224.13 153.26C224.95 156.24 225.07 159.37 224.48 162.41C223.89 165.44 222.61 168.3 220.74 170.76C218.87 173.22 216.45 175.22 213.68 176.59C210.91 177.96 207.86 178.68 204.77 178.68ZM204.77 139.26C200.72 139.26 196.78 140.53 193.49 142.89C190.21 145.25 187.74 148.58 186.45 152.41C185.15 156.24 185.09 160.38 186.28 164.25C187.46 168.12 189.83 171.52 193.04 173.97C196.26 176.42 200.17 177.8 204.21 177.92C208.25 178.03 212.23 176.88 215.58 174.61C218.93 172.35 221.49 169.09 222.89 165.3C224.3 161.5 224.47 157.37 223.4 153.47C222.27 149.39 219.84 145.79 216.47 143.22C213.11 140.66 208.99 139.27 204.76 139.26L204.77 139.26Z" fill="#D1D3D4" fill-opacity="1.000000" fill-rule="nonzero"/>
	<path id="Vector" d="M181.04 169.38C177.52 169.38 174.33 168.87 173.84 167.1C173.06 164.19 180.43 160.4 184.91 158.38C185.01 158.34 185.11 158.34 185.2 158.38C185.3 158.41 185.37 158.49 185.41 158.58C185.45 158.67 185.46 158.78 185.42 158.87C185.38 158.97 185.31 159.04 185.22 159.08C176.81 162.82 174.21 165.57 174.6 166.89C174.98 168.22 178.61 169.26 187.74 168.17C200.32 166.47 212.62 163.1 224.31 158.12C232.71 154.4 235.31 151.64 234.93 150.31C234.56 148.97 230.93 147.95 221.79 149.04C221.69 149.06 221.59 149.03 221.51 148.96C221.43 148.9 221.38 148.81 221.37 148.71C221.36 148.61 221.39 148.51 221.45 148.43C221.51 148.35 221.6 148.3 221.7 148.28C226.57 147.7 234.86 147.17 235.66 150.11C236.47 153.04 229.08 156.83 224.61 158.81C212.85 163.83 200.46 167.24 187.79 168.94C185.55 169.22 183.29 169.36 181.04 169.38Z" fill="#D1D3D4" fill-opacity="1.000000" fill-rule="nonzero"/>
	<path id="Vector" d="M164.72 153.41C164.62 153.41 164.52 153.37 164.45 153.3C164.38 153.23 164.34 153.13 164.34 153.03L164.34 148.56C164.34 148.46 164.38 148.37 164.45 148.3C164.52 148.22 164.62 148.18 164.72 148.18C164.82 148.18 164.91 148.22 164.98 148.3C165.06 148.37 165.1 148.46 165.1 148.56L165.1 153.03C165.1 153.13 165.06 153.23 164.98 153.3C164.91 153.37 164.82 153.41 164.72 153.41Z" fill="#D1D3D4" fill-opacity="1.000000" fill-rule="nonzero"/>
	<path id="Vector" d="M166.99 151.17L162.52 151.17C162.42 151.17 162.33 151.13 162.26 151.06C162.18 150.99 162.14 150.89 162.14 150.79C162.15 150.69 162.19 150.6 162.26 150.53C162.33 150.46 162.42 150.42 162.52 150.42L166.99 150.42C167.09 150.42 167.19 150.46 167.26 150.53C167.33 150.6 167.37 150.69 167.37 150.79C167.37 150.89 167.33 150.99 167.26 151.06C167.19 151.13 167.09 151.17 166.99 151.17Z" fill="#D1D3D4" fill-opacity="1.000000" fill-rule="nonzero"/>
	<path id="Vector" d="M216.43 62.91C216.33 62.91 216.23 62.87 216.16 62.8C216.09 62.72 216.05 62.63 216.05 62.53L216.05 58.06C216.05 57.96 216.09 57.86 216.16 57.79C216.23 57.72 216.33 57.68 216.43 57.68C216.53 57.68 216.63 57.72 216.7 57.79C216.77 57.86 216.81 57.96 216.81 58.06L216.81 62.53C216.81 62.63 216.77 62.72 216.7 62.8C216.63 62.87 216.53 62.91 216.43 62.91Z" fill="#D1D3D4" fill-opacity="1.000000" fill-rule="nonzero"/>
	<path id="Vector" d="M218.67 60.68L214.2 60.68C214.1 60.68 214 60.64 213.93 60.57C213.86 60.49 213.82 60.4 213.82 60.3C213.82 60.2 213.86 60.1 213.93 60.03C214 59.96 214.1 59.92 214.2 59.92L218.67 59.92C218.77 59.92 218.86 59.96 218.93 60.03C219.01 60.1 219.05 60.2 219.05 60.3C219.04 60.4 219 60.49 218.93 60.56C218.86 60.63 218.77 60.67 218.67 60.68Z" fill="#D1D3D4" fill-opacity="1.000000" fill-rule="nonzero"/>
	<path id="Vector" d="M28.01 160.86C27.91 160.86 27.81 160.82 27.74 160.75C27.67 160.68 27.63 160.58 27.63 160.48L27.63 156.01C27.63 155.91 27.67 155.82 27.74 155.75C27.81 155.67 27.91 155.64 28.01 155.64C28.11 155.64 28.2 155.67 28.27 155.75C28.35 155.82 28.39 155.91 28.39 156.01L28.39 160.48C28.39 160.58 28.35 160.68 28.27 160.75C28.2 160.82 28.11 160.86 28.01 160.86Z" fill="#D1D3D4" fill-opacity="1.000000" fill-rule="nonzero"/>
	<path id="Vector" d="M30.24 158.63L25.77 158.63C25.67 158.63 25.57 158.59 25.5 158.52C25.43 158.45 25.39 158.35 25.39 158.25C25.39 158.15 25.43 158.06 25.5 157.98C25.57 157.91 25.67 157.87 25.77 157.87L30.24 157.87C30.34 157.87 30.43 157.91 30.51 157.98C30.58 158.06 30.62 158.15 30.62 158.25C30.62 158.35 30.58 158.45 30.51 158.52C30.43 158.59 30.34 158.63 30.24 158.63Z" fill="#D1D3D4" fill-opacity="1.000000" fill-rule="nonzero"/>
	<path id="Vector" d="M73.05 65.15C72.95 65.15 72.85 65.11 72.78 65.03C72.71 64.96 72.67 64.87 72.67 64.77L72.67 60.3C72.67 60.2 72.71 60.1 72.78 60.03C72.85 59.96 72.95 59.92 73.05 59.92C73.15 59.92 73.25 59.96 73.32 60.03C73.39 60.1 73.43 60.2 73.43 60.3L73.43 64.8C73.42 64.9 73.38 64.99 73.31 65.05C73.24 65.11 73.14 65.15 73.05 65.15Z" fill="#D1D3D4" fill-opacity="1.000000" fill-rule="nonzero"/>
	<path id="Vector" d="M75.28 62.91L70.81 62.91C70.71 62.91 70.61 62.87 70.54 62.8C70.47 62.72 70.43 62.63 70.43 62.53C70.43 62.43 70.47 62.33 70.54 62.26C70.61 62.19 70.71 62.15 70.81 62.15L75.28 62.15C75.38 62.15 75.48 62.19 75.55 62.26C75.62 62.33 75.66 62.43 75.66 62.53C75.66 62.63 75.62 62.72 75.55 62.8C75.48 62.87 75.38 62.91 75.28 62.91Z" fill="#D1D3D4" fill-opacity="1.000000" fill-rule="nonzero"/>
</svg>
