<svg width="1036.129272" height="829.361328" viewBox="0 0 1036.13 829.361" fill="none" xmlns="http://www.w3.org/2000/svg" xmlns:xlink="http://www.w3.org/1999/xlink">
	<desc>
			Created with Pixso.
	</desc>
	<defs>
		<filter id="filter_75_214_dd" x="0.000000" y="32.398438" width="878.261353" height="796.962891" filterUnits="userSpaceOnUse" color-interpolation-filters="sRGB">
			<feFlood flood-opacity="0" result="BackgroundImageFix"/>
			<feBlend mode="normal" in="SourceGraphic" in2="BackgroundImageFix" result="shape"/>
			<feGaussianBlur stdDeviation="106.75" result="effect_layerBlur_1"/>
		</filter>
		<filter id="filter_75_213_dd" x="157.867920" y="0.000000" width="878.261353" height="796.962891" filterUnits="userSpaceOnUse" color-interpolation-filters="sRGB">
			<feFlood flood-opacity="0" result="BackgroundImageFix"/>
			<feBlend mode="normal" in="SourceGraphic" in2="BackgroundImageFix" result="shape"/>
			<feGaussianBlur stdDeviation="106.75" result="effect_layerBlur_1"/>
		</filter>
	</defs>
	<g filter="url(#filter_75_214_dd)">
		<path id="Ellipse 28" d="M320.25 430.88C320.25 387.67 373.47 352.64 439.13 352.64C504.78 352.64 558.01 387.67 558.01 430.88C558.01 474.08 504.78 509.11 439.13 509.11C373.47 509.11 320.25 474.08 320.25 430.88Z" fill="#FF5A57" fill-opacity="1.000000" fill-rule="evenodd"/>
	</g>
	<g filter="url(#filter_75_213_dd)">
		<path id="Ellipse 29" d="M478.11 398.48C478.11 355.27 531.34 320.25 596.99 320.25C662.65 320.25 715.87 355.27 715.87 398.48C715.87 441.68 662.65 476.71 596.99 476.71C531.34 476.71 478.11 441.68 478.11 398.48Z" fill="#9A2AEB" fill-opacity="1.000000" fill-rule="evenodd"/>
	</g>
</svg>
