<svg width="46.179199" height="152.804199" viewBox="0 0 46.1792 152.804" fill="none" xmlns="http://www.w3.org/2000/svg" xmlns:xlink="http://www.w3.org/1999/xlink">
	<desc>
			Created with Pixso.
	</desc>
	<defs/>
	<path id="Vector" d="M36.57 133.94C36.51 133.86 36.47 133.78 36.43 133.69C36.43 133.69 36.42 133.7 36.41 133.7C36.26 133.78 36.06 133.78 35.86 133.78C35.66 133.78 35.45 133.78 35.26 133.71C34.99 133.61 34.83 133.4 34.68 133.2C34.37 132.78 34.05 132.34 34.07 131.86C34.08 131.67 34.14 131.48 34.22 131.3C34.34 131.01 34.55 130.7 34.92 130.6C35.04 130.57 35.17 130.56 35.3 130.57C35.49 130.57 35.67 130.59 35.85 130.64C36.02 130.69 36.15 130.77 36.28 130.87C36.54 129.49 37.05 128.14 36.99 126.76C36.94 125.52 36.4 124.28 35.34 123.38C34.28 122.48 32.67 121.99 31.17 122.24C30.42 122.37 29.73 122.66 29.06 122.95C28.08 123.37 27.1 123.8 26.12 124.22C26.01 124.27 25.9 124.31 25.82 124.38C25.67 124.49 25.6 124.66 25.52 124.81C24.94 125.96 23.88 126.95 22.55 127.58C22.25 127.72 21.92 127.85 21.7 128.07C21.41 128.37 21.36 128.76 21.2 129.12C20.68 130.28 18.77 130.88 17.42 130.29C16.69 129.98 15.97 129.37 15.2 129.59C14.24 129.87 14.34 131.13 13.46 131.56C13.19 131.68 12.84 131.72 12.64 131.91C12.49 132.06 12.45 132.26 12.37 132.43C12.02 133.22 10.77 133.54 9.77 133.32C9.72 133.31 9.67 133.3 9.62 133.29C9.6 133.17 9.59 133.04 9.58 132.92C9.55 132.06 9.89 131.18 9.6 130.34C9.3 129.46 8.25 128.77 7.11 128.71C6.87 130.39 6.63 132.08 6.89 133.75C6.97 134.21 7.08 134.65 7.15 135.1C7.22 135.55 7.25 135.99 7.27 136.44C7.31 136.31 7.36 136.18 7.4 136.06C7.15 136.8 6.86 137.59 6.11 138.07C5.25 138.62 3.97 138.58 2.97 138.21C2.25 137.94 1.64 137.52 1.07 137.08C0.59 137.46 0.01 137.83 0.11 138.35C0.19 138.74 0.65 138.99 0.93 139.32C1.91 140.45 0.58 142.16 1.44 143.35C1.97 144.1 3.25 144.46 3.46 145.3C3.55 145.63 3.44 145.97 3.37 146.31C2.99 148.04 3.67 149.89 5.14 151.19C5.49 151.49 5.87 151.77 6.15 152.11C6.29 152.29 6.42 152.49 6.64 152.6C7.15 152.87 7.81 152.53 8.31 152.25C11.04 150.71 14.54 150.53 17.79 149.95C21.49 149.3 25.05 148.06 28.18 146.34C28.86 145.96 29.52 145.56 30.05 145.06C31.46 143.7 31.68 141.8 31.81 140.04C31.83 139.73 31.85 139.42 32.02 139.14C32.19 138.86 32.5 138.65 32.8 138.45C34.03 137.6 35.26 136.76 36.5 135.92C36.93 135.63 37.37 135.31 37.77 134.97C37.3 134.67 36.87 134.34 36.58 133.95L36.57 133.94ZM29.89 140.03C29.71 140.21 29.36 140.21 29.1 140.32C28.72 140.48 28.5 140.86 28.09 140.93C27.88 140.97 27.63 140.92 27.48 141.05C27.42 141.11 27.39 141.18 27.37 141.26C27.28 141.58 27.18 141.91 27.09 142.23C26.77 142.23 26.45 142.19 26.18 142.08C25.96 141.99 25.78 141.86 25.6 141.73C25.32 141.52 25.03 141.32 24.75 141.12C24.42 140.89 24.07 140.55 24.24 140.23C24.71 140.09 25.16 139.88 25.56 139.62C25.16 139.44 25.18 138.89 25.58 138.74C25.71 138.69 25.86 138.68 25.97 138.59C26.16 138.44 26.05 138.17 26.09 137.96C26.16 137.52 26.79 137.34 27.31 137.24C27.48 137.21 27.65 137.18 27.81 137.21C28.04 137.25 28.22 137.39 28.41 137.5C28.79 137.71 29.27 137.8 29.59 138.07C30.03 138.43 30.05 139 30.05 139.51C30.05 139.69 30.04 139.89 29.89 140.03Z" fill="#FF5A57" fill-opacity="1.000000" fill-rule="nonzero"/>
	<path id="Vector" d="M7.06 152.77C6.88 152.77 6.72 152.74 6.58 152.66C6.38 152.56 6.27 152.4 6.15 152.25C6.12 152.21 6.1 152.18 6.06 152.15C5.87 151.91 5.61 151.7 5.37 151.49C5.26 151.41 5.16 151.32 5.06 151.24C3.58 149.93 2.89 148.04 3.27 146.29C3.28 146.24 3.29 146.19 3.3 146.14C3.37 145.86 3.43 145.58 3.36 145.31C3.24 144.86 2.79 144.54 2.31 144.22C1.95 143.97 1.58 143.72 1.34 143.39C0.91 142.78 1.01 142.06 1.11 141.36C1.22 140.62 1.31 139.92 0.84 139.37C0.75 139.27 0.64 139.17 0.54 139.07C0.3 138.87 0.07 138.65 0.01 138.37C-0.09 137.87 0.37 137.51 0.82 137.15C0.88 137.11 0.94 137.06 0.99 137.02L1.06 136.97L1.13 137.02C1.63 137.42 2.26 137.86 3.01 138.14C3.49 138.31 4 138.41 4.5 138.41C5.1 138.41 5.64 138.27 6.05 138.01C6.63 137.64 6.93 137.08 7.17 136.43C7.16 135.92 7.12 135.51 7.05 135.12C7.02 134.91 6.97 134.7 6.93 134.49C6.88 134.25 6.83 134.01 6.79 133.77C6.52 132.08 6.76 130.37 7 128.71L7.02 128.64L7.11 128.64C8.29 128.7 9.37 129.4 9.68 130.33C9.87 130.86 9.8 131.41 9.74 131.95C9.7 132.27 9.66 132.6 9.67 132.92C9.67 133.02 9.68 133.12 9.7 133.23L9.78 133.25C9.97 133.29 10.18 133.31 10.39 133.31C11.12 133.31 11.99 133.03 12.27 132.4C12.29 132.36 12.31 132.31 12.33 132.26C12.38 132.12 12.43 131.98 12.56 131.87C12.7 131.73 12.9 131.67 13.09 131.6C13.2 131.57 13.3 131.53 13.39 131.49C13.79 131.31 13.98 130.93 14.16 130.56C14.38 130.13 14.61 129.68 15.16 129.53C15.28 129.49 15.41 129.47 15.54 129.47C16.01 129.47 16.47 129.72 16.9 129.95C17.08 130.05 17.27 130.15 17.45 130.23C17.78 130.37 18.16 130.44 18.57 130.44C19.68 130.44 20.75 129.87 21.1 129.09C21.14 128.99 21.18 128.88 21.22 128.77C21.3 128.51 21.4 128.25 21.61 128.03C21.81 127.82 22.1 127.7 22.37 127.57L22.49 127.51C23.81 126.9 24.85 125.93 25.42 124.79L25.44 124.76C25.52 124.6 25.59 124.45 25.75 124.33C25.85 124.25 25.96 124.2 26.07 124.15L29.01 122.89C29.68 122.6 30.38 122.3 31.14 122.17C32.61 121.93 34.3 122.39 35.41 123.33C36.43 124.2 37.03 125.41 37.08 126.76C37.12 127.74 36.88 128.72 36.65 129.67C36.55 130.07 36.45 130.48 36.37 130.89L36.34 131.04L36.21 130.94C36.07 130.83 35.94 130.77 35.81 130.73C35.63 130.67 35.43 130.67 35.28 130.66L35.24 130.66C35.15 130.66 35.04 130.66 34.93 130.7C34.66 130.77 34.45 130.98 34.29 131.34C34.2 131.55 34.15 131.72 34.15 131.88C34.13 132.36 34.47 132.81 34.74 133.17C34.87 133.35 35.04 133.56 35.28 133.66C35.45 133.72 35.65 133.72 35.85 133.73L35.92 133.73C36.07 133.73 36.23 133.72 36.34 133.66L36.44 133.61L36.51 133.71C36.55 133.78 36.59 133.86 36.64 133.93C36.93 134.33 37.39 134.66 37.81 134.92L37.89 134.98L37.82 135.04C37.48 135.34 37.07 135.64 36.54 136L32.83 138.53C32.56 138.71 32.25 138.92 32.08 139.2C31.92 139.46 31.9 139.77 31.87 140.07C31.74 141.97 31.5 143.78 30.09 145.13C29.55 145.66 28.86 146.06 28.2 146.43C25.07 148.14 21.47 149.4 17.78 150.05C17.04 150.19 16.27 150.3 15.54 150.41C13.02 150.78 10.42 151.15 8.34 152.34C7.94 152.56 7.47 152.8 7.03 152.8L7.06 152.77ZM1.07 137.17C1.03 137.2 0.99 137.23 0.96 137.25C0.53 137.59 0.12 137.91 0.2 138.32C0.25 138.57 0.47 138.75 0.69 138.95C0.8 139.05 0.91 139.15 1.01 139.26C1.53 139.87 1.43 140.63 1.32 141.37C1.22 142.04 1.13 142.74 1.52 143.3C1.74 143.61 2.1 143.85 2.45 144.09C2.93 144.42 3.44 144.77 3.57 145.28C3.64 145.57 3.57 145.87 3.51 146.16C3.5 146.22 3.48 146.27 3.48 146.32C3.11 148.02 3.78 149.86 5.23 151.13C5.33 151.22 5.42 151.3 5.53 151.39C5.78 151.6 6.04 151.81 6.25 152.07C6.27 152.1 6.31 152.14 6.33 152.17C6.44 152.31 6.55 152.45 6.7 152.54C6.82 152.59 6.93 152.62 7.07 152.62C7.46 152.62 7.89 152.39 8.27 152.18C10.39 150.98 13.01 150.6 15.54 150.23C16.28 150.12 17.05 150 17.78 149.88C21.45 149.23 25.03 147.98 28.13 146.27C28.78 145.92 29.45 145.52 29.98 145.01C31.35 143.7 31.58 141.91 31.72 140.04C31.74 139.74 31.76 139.4 31.94 139.11C32.12 138.81 32.45 138.59 32.74 138.39L36.44 135.87C36.93 135.53 37.31 135.25 37.63 134.98C37.23 134.71 36.79 134.39 36.5 133.99C36.46 133.93 36.42 133.88 36.4 133.81C36.26 133.86 36.1 133.87 35.95 133.87L35.87 133.87C35.67 133.87 35.44 133.86 35.23 133.78C34.93 133.67 34.75 133.43 34.61 133.24C34.32 132.86 33.97 132.38 33.98 131.86C33.99 131.69 34.04 131.5 34.14 131.27C34.32 130.85 34.57 130.61 34.91 130.53C35.04 130.5 35.17 130.49 35.27 130.49L35.32 130.49C35.48 130.49 35.7 130.51 35.9 130.56C36.02 130.59 36.12 130.64 36.23 130.71C36.3 130.34 36.4 129.97 36.49 129.62C36.72 128.68 36.96 127.72 36.91 126.75C36.86 125.46 36.26 124.25 35.29 123.43C34.42 122.69 33.18 122.25 31.98 122.25C31.72 122.25 31.46 122.27 31.2 122.31C30.46 122.43 29.78 122.73 29.12 123.01L26.18 124.28C26.08 124.32 25.98 124.36 25.9 124.42C25.77 124.52 25.71 124.66 25.64 124.79L25.62 124.83C25.04 126 23.96 127 22.6 127.63L22.47 127.69C22.22 127.8 21.95 127.92 21.78 128.1C21.59 128.29 21.51 128.53 21.42 128.78C21.38 128.89 21.34 129.01 21.3 129.12C20.93 129.96 19.78 130.58 18.59 130.58C18.16 130.58 17.74 130.49 17.38 130.34C17.19 130.25 17 130.15 16.81 130.05C16.4 129.83 15.97 129.6 15.55 129.6C15.44 129.6 15.34 129.62 15.24 129.64C14.77 129.78 14.57 130.17 14.35 130.59C14.16 130.98 13.95 131.38 13.5 131.59C13.4 131.64 13.29 131.68 13.18 131.71C13 131.77 12.83 131.82 12.71 131.94C12.62 132.02 12.57 132.15 12.52 132.28C12.51 132.33 12.49 132.38 12.47 132.43C12.15 133.13 11.2 133.44 10.4 133.44C10.17 133.44 9.95 133.42 9.74 133.37C9.71 133.36 9.68 133.35 9.64 133.35L8.92 133.18L9.51 133.18C9.49 133.08 9.48 132.98 9.48 132.89C9.47 132.56 9.51 132.23 9.55 131.9C9.61 131.36 9.67 130.84 9.5 130.34C9.22 129.5 8.26 128.86 7.19 128.77C6.96 130.39 6.73 132.07 6.99 133.72C7.03 133.96 7.08 134.2 7.13 134.43C7.17 134.64 7.21 134.86 7.25 135.07C7.31 135.36 7.34 135.67 7.36 136.02L7.51 136.05C7.45 136.21 7.39 136.39 7.32 136.58L7.19 136.91L7.19 136.87C6.98 137.33 6.68 137.79 6.18 138.1C5.74 138.38 5.16 138.53 4.51 138.53C3.99 138.53 3.44 138.43 2.94 138.25C2.19 137.97 1.58 137.54 1.07 137.15L1.07 137.17ZM27.03 142.31C26.69 142.31 26.39 142.26 26.13 142.16C25.91 142.06 25.72 141.93 25.54 141.8L24.68 141.19C24.18 140.82 24 140.5 24.15 140.21L24.16 140.18L24.2 140.17C24.63 140.04 25.03 139.86 25.39 139.63C25.24 139.53 25.16 139.36 25.17 139.18C25.17 138.96 25.32 138.77 25.53 138.68C25.58 138.66 25.63 138.65 25.68 138.64C25.76 138.61 25.84 138.59 25.89 138.55C26 138.47 25.99 138.35 25.98 138.2C25.98 138.12 25.97 138.04 25.98 137.96C26.04 137.59 26.47 137.33 27.28 137.18C27.44 137.15 27.63 137.12 27.82 137.14C28.01 137.17 28.17 137.27 28.31 137.36C28.36 137.39 28.41 137.41 28.45 137.44C28.6 137.52 28.76 137.59 28.92 137.64C29.18 137.74 29.44 137.84 29.64 138.02C30.1 138.4 30.14 138.97 30.13 139.52C30.13 139.73 30.11 139.94 29.95 140.09C29.82 140.22 29.61 140.27 29.42 140.32C29.31 140.34 29.21 140.37 29.12 140.41C28.98 140.47 28.86 140.57 28.73 140.67C28.54 140.82 28.36 140.98 28.09 141.02C28.02 141.03 27.95 141.04 27.87 141.04C27.73 141.05 27.61 141.05 27.54 141.12C27.49 141.16 27.47 141.22 27.45 141.29L27.14 142.33L27.01 142.33L27.03 142.31ZM24.31 140.3C24.23 140.51 24.39 140.77 24.81 141.07L25.66 141.68C25.83 141.8 26.02 141.93 26.22 142.01C26.44 142.1 26.7 142.15 27 142.16L27.27 141.24C27.29 141.17 27.32 141.08 27.4 141C27.52 140.89 27.71 140.88 27.87 140.88C27.94 140.88 28 140.87 28.06 140.86C28.27 140.82 28.43 140.7 28.6 140.55C28.73 140.44 28.87 140.33 29.04 140.26C29.14 140.22 29.26 140.19 29.37 140.16C29.54 140.12 29.71 140.07 29.8 139.98C29.92 139.86 29.93 139.69 29.93 139.51C29.93 138.99 29.91 138.46 29.5 138.12C29.32 137.98 29.09 137.88 28.84 137.78C28.67 137.72 28.5 137.65 28.35 137.56C28.3 137.53 28.25 137.5 28.2 137.48C28.07 137.39 27.94 137.31 27.79 137.29C27.63 137.26 27.47 137.3 27.33 137.32C26.6 137.46 26.22 137.67 26.18 137.97C26.16 138.03 26.17 138.11 26.18 138.18C26.18 138.35 26.2 138.53 26.03 138.66C25.95 138.72 25.85 138.75 25.75 138.78C25.71 138.79 25.66 138.8 25.62 138.82C25.44 138.89 25.37 139.05 25.37 139.18C25.37 139.32 25.42 139.48 25.6 139.56L25.73 139.62L25.62 139.69C25.23 139.95 24.79 140.15 24.32 140.31L24.31 140.3Z" fill="#FFFFFF" fill-opacity="1.000000" fill-rule="nonzero"/>
	<path id="Vector" d="M43.8 3.02C43.71 2.88 43.46 2.87 43.3 2.78C43.08 2.67 43.02 2.45 42.88 2.27C42.78 2.15 42.65 2.05 42.5 1.95C41.88 2.2 41.15 2.24 40.45 2.27C39.73 2.3 38.93 2.31 38.41 1.91C38.24 1.77 38.11 1.59 37.94 1.46C37.37 1.01 36.3 1.12 35.89 1.67C34.31 2.33 32.53 2.68 30.76 2.68C29.9 2.68 28.81 2.7 28.48 3.34C26.96 3.46 25.45 3.58 23.92 3.71C23.61 3.73 23.28 3.75 22.99 3.64C22.68 3.51 22.51 3.25 22.34 3.01C21.85 2.26 21.34 1.48 21.29 0.63C21.02 0.42 20.72 0.26 20.42 0.13L20.42 23.8L34.23 23.8C34.37 23.96 34.67 23.96 34.89 23.88C35.12 23.8 35.29 23.65 35.5 23.55C36.32 23.16 37.35 23.53 38.28 23.72C38.73 23.81 39.19 23.85 39.65 23.9C40.13 23.95 40.6 24 41.08 24.05C41.48 24.09 41.91 24.13 42.3 24.04C42.69 23.95 43.07 23.71 43.11 23.37C43.14 23.16 43.05 22.93 43.2 22.76C43.48 22.44 44.14 22.74 44.57 22.56C44.91 22.41 44.94 22.04 45.04 21.73C45.19 21.27 45.58 20.91 46.04 20.61C43.93 16.9 41.83 13.18 39.72 9.47C38.86 7.95 37.98 6.3 38.39 4.67C38.81 4.67 39.24 4.67 39.66 4.68C40.1 6.45 41.11 8.13 42.56 9.52C43.25 7.91 43.57 6.2 43.5 4.5C43.65 4.52 43.8 4.53 43.95 4.55C43.87 4.13 43.83 3.71 43.85 3.28C43.85 3.19 43.86 3.1 43.8 3.02Z" fill="#FF5A57" fill-opacity="1.000000" fill-rule="nonzero"/>
	<path id="Vector" d="M41.78 24.18C41.54 24.18 41.29 24.15 41.07 24.13L39.64 23.98C39.18 23.93 38.71 23.89 38.26 23.79C38.09 23.76 37.92 23.72 37.75 23.68C37.29 23.57 36.81 23.46 36.36 23.46C36.05 23.46 35.79 23.51 35.55 23.62C35.47 23.66 35.39 23.71 35.31 23.76C35.19 23.83 35.08 23.9 34.94 23.95C34.67 24.05 34.34 24.02 34.18 23.88L20.32 23.88L20.32 0L20.47 0.06C20.81 0.21 21.1 0.37 21.36 0.57L21.39 0.59L21.39 0.62C21.44 1.47 21.97 2.27 22.43 2.97C22.6 3.23 22.77 3.46 23.04 3.56C23.17 3.62 23.32 3.64 23.53 3.64C23.66 3.64 23.79 3.63 23.92 3.62L28.41 3.26C28.81 2.59 30.01 2.59 30.73 2.59L30.76 2.67L30.76 2.59C32.51 2.59 34.27 2.25 35.82 1.61C36.07 1.29 36.53 1.1 37.04 1.1C37.41 1.1 37.75 1.2 38 1.39C38.09 1.47 38.17 1.54 38.25 1.63C38.33 1.71 38.39 1.78 38.48 1.85C38.79 2.1 39.24 2.21 39.95 2.21C40.12 2.21 40.28 2.2 40.45 2.2C41.2 2.17 41.88 2.12 42.46 1.88L42.52 1.86L42.57 1.89C42.71 1.98 42.86 2.09 42.97 2.24C43.01 2.29 43.05 2.36 43.08 2.42C43.16 2.54 43.23 2.66 43.35 2.73C43.4 2.75 43.47 2.77 43.54 2.79C43.66 2.83 43.8 2.88 43.89 2.99C43.96 3.08 43.95 3.19 43.95 3.28C43.94 3.69 43.97 4.11 44.06 4.54L44.08 4.64L43.61 4.6C43.65 6.28 43.33 7.95 42.65 9.55L42.6 9.68L42.49 9.57C41.04 8.2 40.03 6.54 39.58 4.77L38.47 4.77C38.12 6.28 38.87 7.79 39.82 9.45L46.17 20.64L46.12 20.67C45.59 21.02 45.28 21.37 45.15 21.76C45.13 21.82 45.12 21.88 45.1 21.94C45.02 22.2 44.95 22.5 44.63 22.64C44.51 22.69 44.37 22.72 44.2 22.72C44.1 22.72 44.02 22.71 43.93 22.7C43.84 22.7 43.76 22.69 43.69 22.69C43.48 22.69 43.37 22.73 43.29 22.82C43.22 22.9 43.22 23.03 43.23 23.16C43.23 23.24 43.23 23.32 43.23 23.39C43.17 23.77 42.74 24.03 42.35 24.12C42.18 24.16 42 24.18 41.79 24.18L41.78 24.18ZM36.36 23.3C36.83 23.3 37.32 23.42 37.81 23.53C37.98 23.57 38.14 23.61 38.31 23.64C38.75 23.73 39.22 23.77 39.67 23.82L41.1 23.97C41.31 23.99 41.55 24.02 41.78 24.02C41.97 24.02 42.13 24 42.28 23.97C42.62 23.9 42.98 23.68 43.02 23.37C43.03 23.31 43.02 23.24 43.02 23.17C43.01 23.02 43.01 22.86 43.12 22.72C43.27 22.56 43.5 22.54 43.67 22.54C43.76 22.54 43.84 22.54 43.93 22.55C44.01 22.55 44.1 22.56 44.18 22.56C44.33 22.56 44.44 22.54 44.52 22.5C44.76 22.4 44.83 22.16 44.89 21.91C44.91 21.85 44.93 21.78 44.95 21.72C45.08 21.31 45.39 20.95 45.92 20.59L39.63 9.51C38.66 7.8 37.88 6.26 38.29 4.66L38.31 4.6L39.74 4.61L39.75 4.67C40.18 6.39 41.13 8.01 42.52 9.36C43.16 7.8 43.46 6.16 43.4 4.51L43.4 4.41L43.83 4.46C43.76 4.05 43.72 3.66 43.74 3.28C43.74 3.2 43.74 3.12 43.71 3.06C43.66 3 43.56 2.97 43.45 2.94C43.38 2.92 43.3 2.89 43.23 2.85C43.06 2.76 42.97 2.62 42.89 2.48C42.86 2.43 42.82 2.37 42.78 2.31C42.7 2.21 42.59 2.12 42.48 2.04C41.88 2.27 41.2 2.31 40.45 2.35C40.28 2.35 40.11 2.36 39.94 2.36C39.43 2.36 38.79 2.31 38.33 1.96C38.24 1.89 38.16 1.8 38.08 1.72C38 1.64 37.94 1.57 37.85 1.51C37.64 1.34 37.36 1.26 37.03 1.26C36.57 1.26 36.17 1.43 35.96 1.71L35.94 1.73L35.92 1.74C34.32 2.4 32.54 2.76 30.75 2.76L30.72 2.76C29.78 2.76 28.85 2.8 28.56 3.37L28.53 3.42L23.92 3.79C23.78 3.8 23.65 3.81 23.51 3.81C23.28 3.81 23.09 3.77 22.93 3.71C22.61 3.58 22.43 3.34 22.25 3.05C21.77 2.34 21.25 1.54 21.18 0.67C20.98 0.52 20.76 0.39 20.5 0.27L20.5 23.73L34.26 23.73L34.29 23.76C34.37 23.85 34.51 23.86 34.59 23.86C34.67 23.86 34.76 23.84 34.85 23.81C34.96 23.77 35.08 23.7 35.19 23.64C35.27 23.59 35.36 23.54 35.45 23.49C35.71 23.36 36 23.31 36.35 23.31L36.36 23.3Z" fill="#FFFFFF" fill-opacity="1.000000" fill-rule="nonzero"/>
</svg>
