<svg width="180.000000" height="123.790283" viewBox="0 0 180 123.79" fill="none" xmlns="http://www.w3.org/2000/svg" xmlns:xlink="http://www.w3.org/1999/xlink">
	<desc>
			Created with Pixso.
	</desc>
	<defs/>
	<path id="Vector" d="M178.4 80.38C176.32 79.41 173.04 80.95 171.52 79.45C171.17 79.1 171 78.65 170.67 78.29C169.97 77.56 168.73 77.38 167.6 77.37C166.47 77.34 165.27 77.41 164.27 76.98C163.26 76.56 162.62 75.41 163.35 74.71C161.09 74.4 158.84 74.97 156.57 75.17C154.3 75.35 151.64 74.97 150.5 73.39C150.17 72.93 150 72.41 149.72 71.92C148.24 69.22 144.32 68.09 140.84 67.24C140.91 64.41 140.65 61.06 137.7 59.55C135.43 58.38 132.48 58.81 129.84 59.27C124.35 60.25 118.21 61.61 115.52 65.58C115.22 66.02 114.96 66.49 114.48 66.79C113.75 67.24 112.73 67.17 111.83 67.07C105.72 66.4 99.69 65.42 93.65 64.42C90.48 63.9 87.29 63.37 84.11 62.85C81.03 62.35 77.56 61.89 74.9 63.27C73.29 64.13 72.27 65.54 71.44 66.94C71.28 67.21 71.12 67.49 71.11 67.78C70.97 69.46 74.66 69.82 74.94 71.49C75.13 72.64 73.62 73.42 72.32 73.91C70.33 74.65 69.74 76.09 68.24 77.39C66.96 78.51 64.86 79.07 64.15 80.49C63.3 82.17 64.83 84.22 63.77 85.82C63.32 86.49 62.42 87.09 62.59 87.85C62.64 88.1 62.82 88.31 62.99 88.52C64.27 89.99 66.25 91.08 68.42 91.5C69.49 91.71 70.62 91.77 71.68 92.06C73.48 92.55 74.96 93.7 76.83 94.01C78.65 94.31 80.51 93.77 82.24 93.25C84.49 92.56 86.77 91.88 88.79 90.83C89.59 90.42 90.36 89.96 91.17 89.58C95.12 87.78 100.48 88.3 103.8 90.8C105.74 92.27 107 94.33 109.28 95.48C110.11 95.89 111.08 96.19 111.65 96.83C112.24 97.49 112.29 98.36 112.71 99.09C112.97 99.55 113.37 99.93 113.79 100.3C113.42 100.86 113.13 101.45 113.02 102.07C112.94 102.58 112.97 103.13 112.68 103.58C111.98 104.63 110.04 104.59 109.02 105.43C108.72 105.68 108.51 105.99 108.22 106.22C107.75 106.6 107.09 106.77 106.5 107.01C105.41 107.44 104.46 108.11 103.8 108.94C103.29 109.55 103 110.48 103.69 110.97C103.95 111.15 104.3 111.22 104.63 111.29C105.57 111.48 106.54 111.67 107.51 111.83C107.4 111.58 107.4 111.33 107.61 111.12C109.19 111.62 111.18 110.6 111.32 109.23C113.25 107.79 115.07 106.28 116.84 104.71C118.07 103.62 119.28 102.51 120.44 101.38C122.27 101.16 124.16 101.24 125.94 101.63C126.64 101.79 127.4 102.04 127.66 102.58C127.88 103.07 127.64 103.65 127.85 104.14C128.11 104.75 128.96 105.05 129.74 105.22C132.38 105.79 135.19 105.8 137.82 105.27C138.34 106.18 138.84 107.08 139.37 107.99C136.59 107.86 133.78 108.62 131.63 110.04C131.23 110.32 130.82 110.63 130.69 111.05C130.45 111.81 131.23 112.59 132.15 112.83C133.07 113.08 134.08 112.93 135.03 112.79C136.52 114.38 136.76 116.66 135.65 118.44C139.12 119.29 142.69 117.52 145.43 115.6C146.23 115.04 147.1 114.42 148.14 114.33C149.25 114.21 150.29 114.7 151.38 114.93C152.74 115.21 154.3 115.05 155.3 114.26C156.29 113.46 156.43 111.99 155.37 111.26C153.83 111.54 152.22 111.82 150.67 111.51C149.13 111.2 147.72 110.11 147.81 108.84C146.28 108.73 144.81 108.15 143.75 107.26C145.4 105.05 147.6 102.57 150.79 102.51C151.57 102.51 152.34 102.64 153.12 102.68C158.32 102.91 162.12 98.57 166.96 97.27C167.3 96.48 168 95.78 168.97 95.55C169.47 95.42 170.06 95.39 170.41 95.06C170.72 94.76 170.7 94.31 170.91 93.98C171.45 93.11 172.99 93.25 174.19 93.26C175.44 93.28 176.74 93.01 177.64 92.33C178.54 91.64 178.92 90.47 178.32 89.58C178.04 89.18 177.57 88.86 177.33 88.42C176.63 87.15 178.12 85.88 179.03 84.7C180.08 83.31 180.17 81.17 178.42 80.36L178.4 80.38ZM114.72 101.19C115 101.44 115.26 101.7 115.47 102C115.26 101.7 114.98 101.45 114.72 101.19Z" fill="#FF5A57" fill-opacity="1.000000" fill-rule="nonzero"/>
	<path id="Vector" d="M137.44 118.89C136.78 118.89 136.14 118.8 135.51 118.66L135.22 118.59L135.36 118.37C136.4 116.69 136.19 114.58 134.84 113.04C133.78 113.19 132.79 113.26 131.99 113.04C130.97 112.77 130.07 111.92 130.36 111.01C130.52 110.53 130.97 110.17 131.39 109.89C133.4 108.55 136.05 107.76 138.69 107.76C138.76 107.76 138.81 107.76 138.88 107.76L137.6 105.51C134.98 106 132.18 105.97 129.58 105.41C128.42 105.16 127.75 104.77 127.5 104.21C127.38 103.93 127.4 103.65 127.4 103.37C127.4 103.12 127.4 102.86 127.31 102.65C127.14 102.28 126.64 102.01 125.77 101.83C124.05 101.45 122.23 101.37 120.48 101.56C119.3 102.72 118.09 103.83 116.92 104.85C114.96 106.59 113.18 108.04 111.48 109.33C111.31 110.49 109.92 111.46 108.37 111.46C108.11 111.46 107.87 111.43 107.63 111.37C107.58 111.48 107.58 111.61 107.65 111.76L107.8 112.11L107.35 112.03C106.5 111.89 105.62 111.72 104.47 111.48C104.14 111.41 103.74 111.33 103.43 111.12C102.63 110.56 102.89 109.54 103.48 108.82C104.18 107.96 105.15 107.27 106.29 106.82C106.43 106.77 106.59 106.71 106.73 106.66C107.18 106.49 107.61 106.33 107.94 106.08C108.08 105.97 108.2 105.83 108.34 105.69C108.46 105.55 108.6 105.41 108.76 105.28C109.24 104.88 109.92 104.67 110.56 104.46C111.32 104.22 112.03 104 112.36 103.48C112.55 103.19 112.59 102.84 112.62 102.46C112.62 102.32 112.66 102.16 112.67 102.02C112.78 101.38 113.09 100.78 113.39 100.32C113 99.98 112.64 99.6 112.4 99.15C112.22 98.85 112.12 98.52 112 98.2C111.84 97.74 111.69 97.29 111.36 96.93C110.96 96.5 110.37 96.23 109.73 95.95C109.5 95.85 109.26 95.74 109.05 95.63C107.65 94.93 106.61 93.86 105.62 92.84C104.97 92.19 104.3 91.5 103.54 90.93C101.66 89.5 99.03 88.69 96.29 88.69C94.47 88.69 92.71 89.05 91.22 89.74C90.72 89.96 90.23 90.24 89.75 90.49C89.45 90.66 89.14 90.83 88.85 90.98C86.78 92.05 84.48 92.75 82.24 93.42C80.97 93.79 79.39 94.28 77.83 94.28C77.44 94.28 77.04 94.26 76.67 94.19C75.6 94 74.64 93.56 73.72 93.12C73.01 92.79 72.28 92.44 71.5 92.23C70.9 92.06 70.24 91.98 69.6 91.89C69.16 91.84 68.71 91.77 68.26 91.68C66.04 91.25 64 90.13 62.68 88.62C62.49 88.39 62.3 88.16 62.23 87.86C62.09 87.25 62.54 86.74 62.97 86.27C63.15 86.07 63.32 85.89 63.44 85.69C63.94 84.92 63.8 84.03 63.67 83.06C63.53 82.15 63.39 81.23 63.82 80.37C64.29 79.45 65.31 78.88 66.3 78.32C66.89 77.98 67.5 77.63 67.97 77.23C68.47 76.79 68.85 76.34 69.23 75.91C70.01 75.03 70.74 74.2 72.13 73.69C73.91 73.01 74.75 72.29 74.61 71.49C74.49 70.77 73.64 70.33 72.75 69.84C71.75 69.29 70.69 68.72 70.78 67.72C70.81 67.37 70.98 67.07 71.14 66.81C71.94 65.46 72.98 63.96 74.71 63.05C75.94 62.41 77.44 62.08 79.26 62.08C80.92 62.08 82.64 62.35 84.11 62.59L93.65 64.16C99.6 65.13 105.72 66.14 111.81 66.8C112.15 66.84 112.52 66.87 112.88 66.87C113.49 66.87 113.94 66.77 114.27 66.56C114.63 66.34 114.86 65.99 115.1 65.62L115.22 65.43C117.95 61.4 124.14 60 129.72 59.01C131.04 58.77 132.57 58.53 134.02 58.53C135.48 58.53 136.75 58.78 137.79 59.31C140.73 60.84 141.1 64.04 141.05 67.02C144.58 67.89 148.42 69.07 149.91 71.78C150.01 71.96 150.1 72.16 150.19 72.34C150.32 72.65 150.46 72.96 150.67 73.22C151.76 74.72 154.14 74.94 155.48 74.94C155.81 74.94 156.15 74.93 156.5 74.9C157.19 74.85 157.89 74.75 158.58 74.66C159.67 74.51 160.82 74.36 161.93 74.36C162.43 74.36 162.9 74.38 163.35 74.46L163.8 74.51L163.5 74.79C163.23 75.07 163.23 75.39 163.28 75.62C163.4 76.08 163.82 76.53 164.34 76.75C165.13 77.09 166.09 77.1 167.03 77.1C167.2 77.1 167.39 77.1 167.56 77.1C169.16 77.14 170.22 77.46 170.84 78.11C171.01 78.29 171.15 78.5 171.27 78.7C171.41 78.91 171.53 79.09 171.69 79.26C172.12 79.69 172.77 79.87 173.79 79.87C174.19 79.87 174.62 79.84 175.05 79.81C175.51 79.79 175.97 79.76 176.42 79.76C177.29 79.76 177.97 79.87 178.51 80.14C179.18 80.46 179.67 80.98 179.88 81.66C180.17 82.63 179.91 83.85 179.2 84.77C179.03 84.99 178.84 85.22 178.64 85.45C177.85 86.41 177.01 87.37 177.52 88.3C177.64 88.51 177.81 88.7 178.02 88.9C178.19 89.06 178.37 89.25 178.49 89.44C179.11 90.35 178.78 91.64 177.76 92.44C176.93 93.08 175.68 93.43 174.27 93.43L173.77 93.43C172.73 93.4 171.52 93.35 171.08 94.03C171.01 94.16 170.96 94.3 170.91 94.45C170.84 94.69 170.75 94.94 170.53 95.15C170.22 95.45 169.75 95.54 169.35 95.61C169.23 95.64 169.09 95.67 168.97 95.7C168.15 95.91 167.48 96.5 167.11 97.29L167.06 97.39L166.94 97.42C165.01 97.94 163.21 98.96 161.48 99.95C158.98 101.38 156.41 102.85 153.41 102.85C153.27 102.85 153.13 102.85 153.01 102.85C152.68 102.84 152.37 102.81 152.04 102.77C151.61 102.72 151.21 102.68 150.81 102.68L150.72 102.68C147.79 102.74 145.68 104.96 144 107.17C145 107.96 146.37 108.47 147.76 108.57L148 108.57L148 108.8C147.91 109.99 149.28 110.98 150.65 111.25C151.09 111.33 151.54 111.37 152.04 111.37C153.12 111.37 154.24 111.18 155.22 110.99L155.34 110.97L155.44 111.04C155.94 111.39 156.24 111.9 156.27 112.51C156.31 113.19 155.98 113.89 155.39 114.35C154.69 114.91 153.69 115.22 152.54 115.22C152.11 115.22 151.66 115.18 151.23 115.08C150.88 115.01 150.55 114.91 150.22 114.83C149.49 114.62 148.8 114.42 148.07 114.49C147.12 114.59 146.32 115.15 145.54 115.68C142.56 117.77 139.82 118.82 137.39 118.82L137.44 118.89ZM135.97 118.33C138.64 118.87 141.72 117.89 145.21 115.47C146.04 114.88 146.94 114.25 148.07 114.16C148.9 114.09 149.68 114.3 150.45 114.52C150.76 114.6 151.09 114.7 151.4 114.77C151.78 114.86 152.18 114.9 152.58 114.9C153.59 114.9 154.45 114.63 155.06 114.16C155.54 113.78 155.8 113.2 155.79 112.63C155.77 112.2 155.58 111.81 155.23 111.54C153.83 111.79 151.97 112.04 150.55 111.76C149.06 111.47 147.53 110.43 147.5 109.08C146.01 108.91 144.57 108.34 143.51 107.45L143.37 107.34L143.47 107.2C145.24 104.84 147.5 102.42 150.74 102.36L150.85 102.36C151.28 102.36 151.73 102.4 152.14 102.44C152.46 102.47 152.77 102.5 153.08 102.51C156.08 102.64 158.58 101.21 161.23 99.7C162.97 98.71 164.77 97.69 166.71 97.14C167.15 96.26 167.91 95.61 168.85 95.38C168.99 95.35 169.12 95.32 169.26 95.29C169.63 95.22 169.97 95.15 170.16 94.96C170.3 94.82 170.37 94.62 170.42 94.42C170.48 94.26 170.53 94.09 170.63 93.92C171.2 93 172.64 93.05 173.81 93.08L174.29 93.08C175.58 93.08 176.68 92.77 177.43 92.2C178.3 91.53 178.58 90.45 178.07 89.71C177.95 89.54 177.81 89.39 177.64 89.22C177.43 89.01 177.22 88.78 177.08 88.53C176.46 87.4 177.41 86.27 178.25 85.29C178.44 85.06 178.63 84.84 178.8 84.61C179.44 83.79 179.69 82.7 179.41 81.84C179.23 81.28 178.84 80.84 178.28 80.58C177.81 80.37 177.24 80.26 176.46 80.26C176.03 80.26 175.58 80.29 175.14 80.32C174.71 80.35 174.26 80.37 173.82 80.37C173.03 80.37 172.02 80.29 171.33 79.6C171.12 79.41 170.98 79.18 170.84 78.98C170.72 78.78 170.6 78.61 170.46 78.44C169.94 77.91 169 77.63 167.58 77.59C167.41 77.59 167.23 77.59 167.06 77.59C166.07 77.59 165.05 77.56 164.15 77.18C163.49 76.9 162.97 76.34 162.81 75.76C162.74 75.45 162.78 75.14 162.92 74.89C162.6 74.86 162.29 74.85 161.96 74.85C160.89 74.85 159.78 75 158.7 75.14C158.01 75.24 157.3 75.34 156.6 75.39C156.24 75.42 155.89 75.43 155.53 75.43C154.09 75.43 151.49 75.18 150.27 73.5C150.05 73.2 149.91 72.87 149.75 72.55C149.67 72.37 149.58 72.19 149.49 72.02C148.07 69.42 144.24 68.3 140.77 67.44L140.58 67.4L140.58 67.25C140.65 64.34 140.35 61.17 137.56 59.75C136.62 59.26 135.48 59.02 134.09 59.02C132.71 59.02 131.2 59.26 129.89 59.5C124.42 60.47 118.36 61.83 115.74 65.71L115.62 65.89C115.36 66.28 115.1 66.69 114.63 66.97C114.2 67.23 113.65 67.36 112.92 67.36C112.54 67.36 112.14 67.32 111.77 67.29C105.67 66.62 99.53 65.62 93.6 64.65L84.03 63.08C82.57 62.84 80.87 62.59 79.27 62.59C77.56 62.59 76.15 62.88 75.01 63.48C73.39 64.32 72.39 65.76 71.63 67.07C71.47 67.35 71.33 67.58 71.31 67.82C71.24 68.58 72.13 69.05 73.07 69.56C74.02 70.07 75.01 70.61 75.16 71.5C75.34 72.51 74.4 73.39 72.39 74.15C71.12 74.62 70.46 75.36 69.7 76.23C69.3 76.68 68.9 77.14 68.38 77.59C67.86 78.04 67.24 78.39 66.63 78.74C65.66 79.28 64.76 79.8 64.34 80.61C63.96 81.37 64.08 82.21 64.22 83.09C64.38 84.07 64.53 85.08 63.94 85.96C63.8 86.18 63.61 86.38 63.44 86.59C63.06 87.02 62.69 87.43 62.8 87.86C62.85 88.06 62.97 88.24 63.16 88.45C64.41 89.88 66.34 90.94 68.43 91.35C68.85 91.43 69.3 91.49 69.74 91.54C70.39 91.63 71.07 91.72 71.71 91.91C72.53 92.13 73.29 92.49 74.02 92.83C74.96 93.26 75.82 93.68 76.83 93.85C77.16 93.91 77.52 93.93 77.89 93.93C79.36 93.93 80.89 93.47 82.1 93.1C84.3 92.42 86.59 91.72 88.6 90.69C88.9 90.53 89.19 90.37 89.49 90.21C89.97 89.95 90.48 89.67 91 89.43C92.58 88.72 94.41 88.32 96.32 88.32C99.18 88.32 101.96 89.18 103.92 90.67C104.7 91.28 105.39 91.96 106.05 92.63C107.07 93.67 108.03 94.65 109.36 95.32C109.57 95.43 109.8 95.53 110.02 95.63C110.68 95.92 111.36 96.23 111.83 96.73C112.21 97.15 112.38 97.66 112.55 98.13C112.66 98.44 112.76 98.75 112.92 99.03C113.14 99.43 113.49 99.78 113.94 100.19L114.06 100.3L113.98 100.43C113.7 100.88 113.35 101.48 113.25 102.14C113.23 102.28 113.21 102.4 113.2 102.54C113.16 102.93 113.11 103.35 112.87 103.72C112.43 104.36 111.6 104.64 110.78 104.89C110.19 105.07 109.59 105.27 109.17 105.62C109.03 105.73 108.93 105.86 108.81 105.98C108.67 106.14 108.53 106.28 108.36 106.42C107.96 106.73 107.47 106.91 106.99 107.09C106.85 107.15 106.71 107.19 106.57 107.24C105.51 107.66 104.61 108.31 103.97 109.1C103.59 109.58 103.22 110.43 103.83 110.85C104.06 111.01 104.39 111.08 104.66 111.13C105.63 111.33 106.41 111.48 107.14 111.61C107.14 111.4 107.21 111.2 107.39 111.04L107.51 110.91L107.68 110.97C107.92 111.04 108.18 111.08 108.44 111.08C109.73 111.08 110.94 110.22 111.03 109.26L111.03 109.17L111.11 109.12C112.83 107.83 114.63 106.36 116.61 104.61C117.77 103.58 119.02 102.47 120.2 101.28L120.27 101.21L120.37 101.21C122.23 100.97 124.17 101.07 125.98 101.46C126.64 101.6 127.55 101.88 127.87 102.56C128 102.85 127.99 103.14 127.99 103.44C127.99 103.69 127.99 103.91 128.06 104.12C128.23 104.54 128.78 104.85 129.77 105.06C132.36 105.62 135.15 105.63 137.73 105.12L137.94 105.07L139.75 108.27L139.31 108.27C136.61 108.13 133.83 108.87 131.77 110.25C131.4 110.49 131.02 110.78 130.92 111.15C130.71 111.81 131.42 112.46 132.2 112.67C132.95 112.87 133.9 112.79 134.96 112.63L135.12 112.6L135.22 112.7C136.69 114.3 137 116.52 136.02 118.34L135.97 118.33ZM115.24 102.09C115.03 101.8 114.76 101.53 114.51 101.32L114.91 101.04C115.26 101.37 115.5 101.62 115.69 101.88L115.24 102.09Z" fill="#FFFFFF" fill-opacity="1.000000" fill-rule="nonzero"/>
	<path id="Vector" d="M60.28 97.56C59.95 98.18 59.68 98.85 59.12 99.34C58.45 99.94 57.44 100.23 56.8 100.86C55.9 101.74 55.95 103.09 55.01 103.96C54.46 104.47 53.61 104.74 53.04 105.26C52.19 106.03 52.1 107.2 52.55 108.17C53 109.13 53.88 109.92 54.8 110.63C55.45 111.13 56.16 111.68 56.24 112.41C56.31 113.02 55.88 113.7 56.28 114.23C56.45 114.46 56.75 114.62 57.02 114.76C59.28 115.91 61.53 117.05 63.77 118.2C63.93 119.39 64.15 120.71 65.3 121.46C66.04 121.95 67.05 122.11 67.91 122.47C68.52 122.72 69.06 123.07 69.68 123.28C70.67 123.62 71.76 123.6 72.84 123.58C75.42 123.52 78.01 123.46 80.57 123.41C82.69 123.37 84.98 123.25 86.57 122.13C87.13 121.74 87.6 121.21 88.31 121C88.74 120.86 89.23 120.87 89.7 120.87C90.72 120.89 91.74 120.9 92.77 120.92C93.13 120.92 93.53 120.92 93.84 120.78C94.08 120.66 94.26 120.48 94.48 120.37C95.07 120.09 95.82 120.31 96.43 120.54C98.51 121.31 100.61 122.09 102.69 122.86C103.36 121.63 103.87 120.33 104.16 119C104.32 118.26 104.45 117.46 105.08 116.9C105.88 116.21 107.16 116.13 108.27 115.85C109.38 115.56 110.52 114.7 110.11 113.82C109.81 113.23 108.98 112.98 108.31 112.66C107.92 112.48 107.58 112.16 107.42 111.82C106.45 111.65 105.5 111.47 104.54 111.27C104.21 111.2 103.87 111.13 103.61 110.95C103.26 110.71 103.15 110.36 103.21 109.99C103.21 109.99 103.21 109.99 103.19 109.99C102.48 109.99 101.71 109.99 101.13 109.69C100.07 109.16 99.96 107.99 99.95 106.98C99.95 104.95 99.95 102.92 99.95 100.88C99.95 100.44 99.95 99.99 99.74 99.59C99.56 99.24 99.25 98.93 98.94 98.65C97.97 97.74 97.01 96.82 96.04 95.91C95.73 95.61 95.4 95.29 95.3 94.9C95.19 94.52 95.33 94.12 95.35 93.73C95.4 92.05 93.37 90.87 91.57 90.02C91.33 89.9 91.08 89.79 90.86 89.68C90.13 90.03 89.44 90.44 88.73 90.8C86.7 91.85 84.42 92.54 82.17 93.22C80.44 93.75 78.58 94.29 76.76 93.98C74.9 93.67 73.41 92.52 71.61 92.03C70.55 91.74 69.42 91.7 68.35 91.47C67.79 91.36 67.24 91.21 66.72 91.01C64.17 92.93 61.67 94.96 60.3 97.52L60.28 97.56Z" fill="#FF5A57" fill-opacity="1.000000" fill-rule="nonzero"/>
	<path id="Vector" d="M72.04 123.79C71.28 123.79 70.39 123.74 69.58 123.46C69.21 123.34 68.87 123.16 68.54 122.99C68.3 122.86 68.05 122.75 67.81 122.64C67.5 122.51 67.17 122.41 66.84 122.32C66.25 122.13 65.64 121.95 65.14 121.62C63.98 120.85 63.7 119.57 63.53 118.31L56.88 114.93C56.61 114.79 56.26 114.61 56.05 114.33C55.76 113.93 55.84 113.5 55.93 113.08C55.97 112.84 56.02 112.63 56 112.42C55.93 111.78 55.29 111.28 54.66 110.79C53.73 110.06 52.81 109.25 52.34 108.22C51.8 107.09 52.03 105.86 52.88 105.1C53.17 104.84 53.55 104.63 53.9 104.43C54.25 104.24 54.6 104.05 54.86 103.8C55.29 103.4 55.5 102.86 55.72 102.3C55.95 101.75 56.17 101.17 56.64 100.71C57.01 100.36 57.46 100.11 57.91 99.87C58.31 99.65 58.69 99.45 58.98 99.18C59.42 98.81 59.66 98.32 59.94 97.8C59.99 97.69 60.06 97.57 60.11 97.46C61.53 94.79 64.2 92.66 66.6 90.89L66.72 90.79L66.87 90.84C67.41 91.04 67.93 91.19 68.45 91.29C68.87 91.37 69.32 91.43 69.75 91.49C70.41 91.57 71.09 91.67 71.73 91.85C72.54 92.07 73.31 92.44 74.04 92.77C74.97 93.21 75.84 93.63 76.85 93.8C77.17 93.85 77.54 93.88 77.9 93.88C79.38 93.88 80.9 93.42 82.12 93.04C84.32 92.37 86.61 91.67 88.62 90.63C88.92 90.48 89.19 90.33 89.49 90.17C89.9 89.95 90.32 89.72 90.75 89.51L90.89 89.44L91.74 89.84C93.62 90.72 95.73 91.93 95.68 93.73C95.68 93.87 95.66 94.01 95.63 94.15C95.59 94.4 95.56 94.64 95.63 94.86C95.71 95.21 96.04 95.5 96.32 95.77L99.22 98.51C99.53 98.82 99.86 99.13 100.05 99.52C100.28 99.97 100.28 100.46 100.28 100.88L100.28 106.98C100.28 107.97 100.4 109.05 101.33 109.51C101.78 109.75 102.37 109.78 102.93 109.78L103.55 109.78L103.55 110C103.5 110.35 103.62 110.6 103.86 110.79C104.09 110.94 104.42 111.01 104.7 111.07C105.84 111.3 106.73 111.47 107.56 111.61L107.7 111.64L107.75 111.75C107.87 112.03 108.17 112.31 108.51 112.48C108.65 112.55 108.81 112.62 108.95 112.67C109.54 112.94 110.16 113.21 110.42 113.74C110.58 114.07 110.56 114.44 110.35 114.79C110.04 115.33 109.28 115.82 108.41 116.05C108.11 116.12 107.82 116.19 107.51 116.24C106.66 116.41 105.86 116.58 105.32 117.04C104.8 117.5 104.65 118.19 104.51 118.86L104.47 119.03C104.18 120.36 103.67 121.67 102.98 122.93L102.88 123.13L96.37 120.71C95.8 120.5 95.11 120.32 94.67 120.53C94.57 120.58 94.48 120.64 94.4 120.71C94.29 120.79 94.17 120.87 94.03 120.93C93.7 121.08 93.34 121.1 93.03 121.1L89.45 121.04C89.14 121.04 88.78 121.04 88.46 121.15C88.01 121.29 87.67 121.57 87.3 121.87C87.15 121.99 86.99 122.12 86.82 122.25C85.22 123.38 83 123.52 80.66 123.58L72.93 123.74C72.67 123.74 72.41 123.74 72.13 123.74L72.04 123.79ZM66.77 91.29C64.45 93.03 61.9 95.1 60.54 97.64C60.49 97.76 60.42 97.87 60.37 97.98C60.09 98.51 59.82 99.06 59.33 99.49C58.98 99.8 58.57 100.02 58.17 100.25C57.73 100.49 57.34 100.71 57.02 101C56.61 101.41 56.42 101.91 56.19 102.46C55.97 103.03 55.72 103.63 55.22 104.1C54.91 104.38 54.54 104.59 54.18 104.8C53.83 104.99 53.5 105.17 53.24 105.4C52.51 106.04 52.34 107.1 52.81 108.1C53.24 109.04 54.11 109.81 54.99 110.49C55.67 111.02 56.43 111.61 56.5 112.41C56.52 112.66 56.49 112.93 56.43 113.16C56.36 113.53 56.29 113.86 56.5 114.14C56.64 114.34 56.92 114.48 57.16 114.61L64.03 118.1L64.03 118.2C64.2 119.41 64.43 120.62 65.49 121.32C65.92 121.62 66.47 121.78 67.05 121.95C67.39 122.05 67.74 122.16 68.07 122.3C68.33 122.41 68.59 122.54 68.85 122.67C69.18 122.83 69.49 122.99 69.82 123.1C70.57 123.35 71.38 123.39 72.08 123.39C72.34 123.39 72.6 123.39 72.86 123.39L80.59 123.23C82.83 123.17 84.94 123.04 86.42 122.01C86.57 121.9 86.73 121.77 86.89 121.64C87.29 121.32 87.68 121 88.24 120.83C88.64 120.71 89.05 120.69 89.42 120.69L92.99 120.75C93.25 120.75 93.53 120.74 93.74 120.64C93.82 120.6 93.93 120.53 94.01 120.46C94.12 120.37 94.24 120.3 94.38 120.23C94.6 120.12 94.85 120.06 95.14 120.06C95.63 120.06 96.15 120.23 96.56 120.39L102.58 122.62C103.21 121.45 103.67 120.23 103.93 119.01L103.97 118.85C104.12 118.12 104.28 117.38 104.92 116.82C105.56 116.26 106.48 116.08 107.35 115.89C107.65 115.84 107.94 115.78 108.22 115.7C108.93 115.52 109.59 115.1 109.85 114.66C109.99 114.41 110 114.17 109.9 113.95C109.71 113.56 109.21 113.33 108.67 113.09C108.51 113.02 108.36 112.95 108.2 112.88C107.8 112.69 107.45 112.37 107.26 112.04C106.47 111.9 105.6 111.74 104.52 111.53C104.19 111.46 103.8 111.37 103.48 111.16C103.17 110.94 103 110.63 102.98 110.25L102.89 110.25C102.25 110.25 101.59 110.21 101.02 109.93C99.88 109.36 99.72 108.14 99.72 107.03L99.72 100.93C99.72 100.53 99.72 100.09 99.53 99.73C99.37 99.41 99.08 99.13 98.78 98.85L95.89 96.1C95.57 95.81 95.21 95.46 95.09 95.01C95.02 94.72 95.05 94.44 95.09 94.17C95.09 94.05 95.12 93.92 95.12 93.8C95.18 92.23 93.2 91.1 91.46 90.28L90.88 90C90.49 90.19 90.13 90.4 89.77 90.59C89.47 90.75 89.19 90.91 88.9 91.05C86.83 92.12 84.53 92.82 82.29 93.49C81.02 93.87 79.45 94.36 77.89 94.36C77.49 94.36 77.09 94.33 76.72 94.26C75.65 94.08 74.69 93.63 73.78 93.19C73.06 92.86 72.34 92.51 71.56 92.3C70.95 92.13 70.29 92.05 69.65 91.96C69.21 91.91 68.76 91.84 68.31 91.75C67.81 91.65 67.31 91.51 66.79 91.33L66.77 91.29Z" fill="#FFFFFF" fill-opacity="1.000000" fill-rule="nonzero"/>
	<path id="Vector" d="M36.98 78.53C34.93 77.3 31.67 77.71 30.04 76.12C29.73 75.83 29.5 75.48 29.14 75.23C28.58 74.85 27.8 74.79 27.09 74.67C24.19 74.15 21.94 72.37 19.48 71.06C18.14 70.34 16.51 69.74 14.99 70.16C14.24 70.37 13.63 70.81 12.97 71.16C11.85 71.77 10.55 72.19 9.19 72.35C8.29 72.46 7.37 72.44 6.49 72.61C4.65 72.93 3.11 73.91 1.63 74.86C1.04 75.24 0.42 75.68 0.3 76.26C0.19 76.77 0.47 77.27 0.8 77.72C1.72 78.98 3 80.18 3.09 81.65C3.12 82.16 3 82.67 3.12 83.16C3.28 83.74 3.75 84.23 4.2 84.69C5.27 85.77 6.4 86.87 7.93 87.51C10.49 88.61 13.98 88.03 15.82 86.23C16.17 85.89 16.48 85.5 16.95 85.29C17.69 84.97 18.63 85.16 19.34 85.53C20.05 85.89 20.62 86.41 21.3 86.82C23.61 88.14 26.69 87.85 29.61 87.95C30.16 86.97 30.82 86 31.89 85.39C32.62 84.97 33.51 84.74 34.31 84.42C35.97 83.76 37.36 82.72 39.02 82.04C39.23 81.96 39.44 81.89 39.65 81.82C38.9 80.63 38.28 79.31 36.96 78.54L36.98 78.53Z" fill="#FF5A57" fill-opacity="1.000000" fill-rule="nonzero"/>
	<path id="Vector" d="M10.79 88.28C9.73 88.28 8.69 88.09 7.81 87.71C6.18 87.02 4.98 85.81 4.01 84.83C3.58 84.39 3.05 83.86 2.88 83.2C2.79 82.87 2.81 82.53 2.83 82.21C2.83 82.03 2.85 81.85 2.83 81.65C2.76 80.59 2 79.64 1.25 78.71C1.01 78.42 0.78 78.12 0.56 77.83C0.25 77.4 -0.1 76.82 0.02 76.23C0.18 75.54 0.94 75.03 1.44 74.71C2.86 73.8 4.48 72.76 6.4 72.41C6.94 72.32 7.49 72.27 8.05 72.25C8.41 72.22 8.78 72.19 9.14 72.15C10.44 71.99 11.73 71.59 12.82 70.99C12.97 70.9 13.13 70.81 13.29 70.72C13.77 70.43 14.29 70.13 14.88 69.97C16.2 69.6 17.74 69.9 19.6 70.89C20.26 71.24 20.92 71.63 21.54 72.01C23.28 73.04 25.04 74.11 27.13 74.47C27.25 74.5 27.37 74.51 27.51 74.53C28.13 74.63 28.77 74.72 29.28 75.07C29.54 75.26 29.73 75.47 29.92 75.67C30 75.79 30.11 75.88 30.21 75.98C31.06 76.81 32.38 77.06 33.79 77.33C34.95 77.55 36.14 77.77 37.1 78.35C38.24 79.03 38.87 80.08 39.49 81.1C39.61 81.3 39.73 81.51 39.85 81.71L39.98 81.9L39.61 82.03C39.44 82.08 39.27 82.14 39.09 82.21C38.29 82.53 37.53 82.95 36.8 83.37C36.04 83.81 35.24 84.25 34.37 84.59C34.11 84.69 33.84 84.79 33.56 84.88C32.99 85.08 32.47 85.26 31.98 85.53C30.94 86.11 30.3 87.07 29.76 88L29.69 88.13L29.52 88.13C28.95 88.1 28.36 88.1 27.78 88.09C25.43 88.07 23 88.05 21.09 86.94C20.78 86.76 20.48 86.55 20.19 86.34C19.84 86.09 19.51 85.85 19.13 85.67C18.4 85.29 17.57 85.19 17 85.44C16.67 85.6 16.41 85.85 16.15 86.11C16.08 86.18 16.01 86.25 15.94 86.32C14.73 87.53 12.77 88.24 10.72 88.24L10.79 88.28ZM16.03 70.23C15.7 70.23 15.37 70.27 15.07 70.36C14.55 70.5 14.1 70.76 13.62 71.06C13.46 71.15 13.3 71.24 13.13 71.34C11.97 71.98 10.62 72.4 9.23 72.55C8.86 72.6 8.48 72.62 8.1 72.65C7.58 72.69 7.04 72.72 6.52 72.82C4.7 73.14 3.14 74.15 1.77 75.03C1.18 75.41 0.64 75.8 0.52 76.3C0.44 76.77 0.71 77.23 0.99 77.62C1.2 77.91 1.44 78.21 1.67 78.49C2.45 79.45 3.25 80.46 3.31 81.64C3.31 81.83 3.31 82.03 3.31 82.22C3.31 82.53 3.28 82.83 3.35 83.11C3.49 83.65 3.96 84.13 4.37 84.55C5.31 85.5 6.49 86.67 8.01 87.33C8.83 87.68 9.78 87.86 10.75 87.86C12.64 87.86 14.45 87.21 15.58 86.1C15.65 86.03 15.71 85.96 15.77 85.9C16.04 85.61 16.34 85.3 16.77 85.12C17.5 84.8 18.54 84.9 19.43 85.36C19.82 85.57 20.19 85.82 20.54 86.07C20.81 86.27 21.09 86.48 21.39 86.65C23.17 87.68 25.41 87.7 27.78 87.71C28.3 87.71 28.84 87.71 29.36 87.74C29.92 86.79 30.58 85.83 31.67 85.22C32.19 84.93 32.78 84.72 33.33 84.52C33.59 84.42 33.87 84.34 34.13 84.24C34.96 83.92 35.74 83.47 36.49 83.05C37.24 82.63 38 82.2 38.83 81.86C38.95 81.8 39.09 81.76 39.23 81.72C39.14 81.59 39.07 81.45 38.99 81.31C38.4 80.34 37.79 79.33 36.75 78.71C35.88 78.19 34.74 77.97 33.63 77.76C32.21 77.48 30.73 77.2 29.78 76.28C29.67 76.16 29.57 76.05 29.47 75.94C29.29 75.75 29.12 75.55 28.91 75.41C28.5 75.13 27.96 75.05 27.37 74.96C27.23 74.95 27.11 74.92 26.99 74.89C24.8 74.5 22.98 73.41 21.21 72.36C20.59 71.98 19.93 71.59 19.29 71.25C18.02 70.58 16.95 70.25 15.99 70.25L16.03 70.23Z" fill="#FFFFFF" fill-opacity="1.000000" fill-rule="nonzero"/>
	<path id="Vector" d="M69.53 61.66C69.67 59.97 71.61 58.35 70.74 56.81C70.46 56.32 69.89 55.87 69.94 55.33C70.01 54.5 71.31 54.22 72.08 53.66C73.07 52.95 73.05 51.53 72.08 50.83C71.47 50.39 70.52 50.15 70.33 49.5C70.26 49.27 70.31 49.03 70.36 48.79C70.6 47.71 70.74 46.3 69.53 45.8C69.01 45.59 68.38 45.63 67.83 45.47C67.08 45.26 66.54 44.73 65.92 44.34C64.39 43.39 62.31 43.32 60.39 43.28C59.05 43.25 57.72 43.22 56.4 43.19C55.86 43.19 55.29 43.16 54.8 42.97C54.47 42.83 54.2 42.61 53.94 42.37C53.71 42.17 53.54 41.96 53.33 41.75C53.3 41.75 53.28 41.78 53.24 41.79C53.05 41.82 52.84 41.77 52.67 41.71C51.44 41.28 50.64 40.32 49.64 39.61C48.63 38.9 47.05 38.43 45.99 39.09C45.58 39.36 45.32 39.76 45.09 40.16C44.28 41.57 43.65 43.07 43.22 44.59C42.63 45.24 41.26 45 40.64 44.37C40.01 43.74 39.89 42.88 39.66 42.1C39.44 41.32 38.99 40.46 38.07 40.16C36.84 39.74 35.52 40.48 34.24 40.77C32.78 41.11 31.22 40.84 29.71 40.91C27.14 41.02 24.68 42.16 23.24 43.88C22.88 44.31 22.57 44.79 22.1 45.15C20.07 46.71 16.65 45.38 14 46.1C14.34 46.79 14 47.66 13.23 48.05C12.8 48.26 12.26 48.3 11.78 48.22C11.33 49.43 10.98 50.62 11.45 51.81C11.73 52.51 12.3 53.2 12.16 53.94C12.07 54.36 11.76 54.74 11.64 55.16C11.29 56.35 12.52 57.41 13.2 58.52C13.77 59.44 13.96 60.49 14.15 61.51C14.55 63.72 14.97 65.93 15.37 68.13C15.49 68.77 15.63 69.43 15.78 70.08C17.07 69.99 18.4 70.5 19.51 71.1C21.99 72.41 24.23 74.2 27.13 74.71C27.84 74.83 28.6 74.89 29.17 75.27C29.54 75.52 29.76 75.87 30.07 76.16C31.7 77.74 34.95 77.34 37.01 78.57C38.31 79.35 38.94 80.65 39.7 81.84C41.95 81.09 44.49 81.03 46.93 81.23C49.6 81.45 52.22 81.96 54.89 82.11C56.76 82.22 58.93 82.25 60.11 83.43C61.5 83.64 62.85 84.01 64.13 84.49C64.15 83.17 63.51 81.75 64.13 80.51C64.86 79.1 66.94 78.54 68.23 77.42C69.72 76.12 70.31 74.68 72.3 73.94C73.6 73.45 75.13 72.66 74.92 71.52C74.63 69.85 70.93 69.49 71.09 67.81C71.11 67.51 71.26 67.23 71.42 66.97C71.7 66.49 72.02 66.02 72.37 65.56C70.79 64.53 69.42 63.27 69.56 61.71L69.53 61.66Z" fill="#FF5A57" fill-opacity="1.000000" fill-rule="nonzero"/>
	<path id="Vector" d="M64.34 84.8L63.98 84.66C62.66 84.17 61.34 83.8 60.02 83.61L59.94 83.61L59.87 83.54C58.84 82.52 57.01 82.42 55.24 82.32L54.84 82.29C53.35 82.21 51.86 82.01 50.42 81.82C49.25 81.66 48.06 81.51 46.86 81.41C43.98 81.17 41.68 81.37 39.75 82.01L39.53 82.08L39.42 81.91C39.3 81.72 39.18 81.51 39.06 81.31C38.47 80.33 37.86 79.33 36.82 78.71C35.95 78.19 34.81 77.97 33.7 77.76C32.28 77.48 30.8 77.2 29.85 76.27C29.74 76.16 29.64 76.05 29.54 75.94C29.36 75.74 29.19 75.55 28.98 75.41C28.56 75.13 28.03 75.04 27.44 74.96C27.3 74.94 27.18 74.92 27.06 74.89C24.87 74.5 23.05 73.41 21.28 72.36C20.66 71.98 20 71.59 19.36 71.25C17.99 70.52 16.84 70.2 15.78 70.27L15.56 70.27L15.51 70.1C15.35 69.5 15.21 68.86 15.07 68.14L13.86 61.52C13.67 60.53 13.49 59.5 12.92 58.59C12.75 58.32 12.54 58.04 12.35 57.76C11.73 56.92 11.07 56.05 11.34 55.09C11.41 54.88 11.5 54.68 11.6 54.5C11.71 54.29 11.81 54.09 11.86 53.88C11.95 53.42 11.73 52.97 11.47 52.48C11.36 52.27 11.26 52.06 11.17 51.85C10.67 50.58 11.05 49.32 11.48 48.13L11.55 47.95L11.8 47.99C12.25 48.08 12.71 48.02 13.06 47.85C13.74 47.52 14.03 46.76 13.74 46.17L13.63 45.96L13.89 45.89C14.5 45.73 15.21 45.64 16.1 45.64C16.58 45.64 17.07 45.67 17.55 45.68C18.02 45.71 18.49 45.73 18.94 45.73C19.93 45.73 21.04 45.64 21.89 44.98C22.22 44.73 22.46 44.42 22.72 44.1C22.81 43.98 22.91 43.86 23 43.75C24.47 41.99 27.04 40.81 29.67 40.7C30.23 40.67 30.78 40.7 31.34 40.7C31.69 40.7 32.03 40.73 32.38 40.73C33.11 40.73 33.66 40.67 34.15 40.56C34.5 40.48 34.86 40.37 35.21 40.25C35.88 40.03 36.58 39.81 37.27 39.81C37.58 39.81 37.88 39.85 38.16 39.95C39 40.23 39.59 40.93 39.91 42.03C39.94 42.17 39.98 42.31 40.03 42.45C40.2 43.11 40.36 43.74 40.83 44.21C41.14 44.54 41.68 44.75 42.18 44.75C42.42 44.75 42.73 44.7 42.96 44.48C43.39 42.95 44.02 41.47 44.83 40.06C45.07 39.64 45.33 39.22 45.82 38.92C46.2 38.69 46.67 38.56 47.19 38.56C48.04 38.56 49.01 38.9 49.79 39.46C50.12 39.69 50.43 39.95 50.73 40.2C51.37 40.73 51.96 41.23 52.76 41.51C52.86 41.55 53 41.6 53.12 41.6C53.12 41.6 53.19 41.57 53.24 41.55L53.42 41.5L53.71 41.82C53.85 41.96 53.97 42.1 54.13 42.23C54.35 42.42 54.61 42.65 54.93 42.77C55.36 42.95 55.91 42.97 56.4 42.98L60.39 43.07C62.59 43.11 64.53 43.22 66.08 44.17C66.28 44.3 66.46 44.44 66.65 44.58C67.05 44.87 67.43 45.15 67.91 45.28C68.12 45.33 68.37 45.36 68.61 45.39C68.96 45.43 69.32 45.47 69.65 45.61C71.04 46.19 70.88 47.73 70.62 48.83C70.57 49.06 70.53 49.27 70.58 49.46C70.69 49.83 71.12 50.05 71.57 50.29C71.82 50.41 72.06 50.54 72.27 50.69C72.79 51.07 73.08 51.64 73.08 52.26C73.08 52.88 72.79 53.45 72.27 53.83C72.01 54.01 71.69 54.18 71.4 54.32C70.79 54.63 70.26 54.89 70.22 55.35C70.2 55.65 70.41 55.94 70.65 56.23C70.78 56.39 70.9 56.56 71 56.72C71.57 57.73 71.04 58.77 70.53 59.78C70.2 60.4 69.87 61.05 69.82 61.69C69.72 62.92 70.58 64.09 72.53 65.36L72.7 65.47L72.58 65.62C72.22 66.1 71.9 66.58 71.64 67.02C71.49 67.3 71.35 67.54 71.33 67.78C71.26 68.54 72.15 69.01 73.08 69.51C74.04 70.03 75.02 70.56 75.18 71.46C75.35 72.47 74.42 73.35 72.41 74.11C71.14 74.58 70.48 75.32 69.72 76.19C69.32 76.64 68.92 77.1 68.4 77.55C67.88 78 67.26 78.35 66.65 78.7C65.68 79.24 64.78 79.76 64.36 80.57C63.98 81.33 64.1 82.17 64.24 83.06C64.31 83.52 64.38 84.01 64.38 84.47L64.38 84.8L64.34 84.8ZM60.2 83.2C61.39 83.4 62.61 83.71 63.8 84.14C63.79 83.8 63.73 83.45 63.68 83.1C63.54 82.19 63.41 81.26 63.84 80.4C64.31 79.48 65.33 78.91 66.32 78.35C66.91 78.01 67.52 77.66 67.98 77.25C68.49 76.82 68.87 76.37 69.25 75.94C70.03 75.06 70.76 74.23 72.15 73.71C73.93 73.04 74.76 72.31 74.63 71.52C74.5 70.8 73.65 70.35 72.77 69.86C71.76 69.32 70.71 68.75 70.79 67.75C70.83 67.4 71 67.09 71.16 66.84C71.4 66.42 71.69 66 72.01 65.57C70.71 64.7 69.13 63.39 69.28 61.65C69.35 60.95 69.7 60.27 70.03 59.61C70.52 58.64 70.98 57.75 70.52 56.89C70.43 56.74 70.32 56.6 70.2 56.44C69.94 56.09 69.67 55.75 69.7 55.31C69.75 54.64 70.45 54.29 71.12 53.95C71.4 53.81 71.69 53.66 71.92 53.51C72.34 53.21 72.56 52.75 72.56 52.25C72.56 51.74 72.32 51.28 71.9 50.99C71.73 50.86 71.5 50.74 71.28 50.62C70.76 50.34 70.22 50.06 70.06 49.55C69.98 49.28 70.03 49.01 70.1 48.75C70.45 47.19 70.22 46.31 69.39 45.98C69.13 45.87 68.83 45.84 68.5 45.8C68.24 45.77 67.97 45.74 67.71 45.66C67.13 45.5 66.7 45.18 66.27 44.87C66.09 44.75 65.9 44.61 65.71 44.49C64.31 43.63 62.45 43.51 60.34 43.47L56.35 43.39C55.81 43.39 55.19 43.36 54.65 43.14C54.27 42.97 53.95 42.72 53.71 42.49C53.56 42.35 53.42 42.2 53.28 42.06L53.21 41.99C52.95 42.02 52.71 41.95 52.53 41.88C51.65 41.57 50.99 41.01 50.35 40.46C50.05 40.23 49.76 39.96 49.45 39.74C48.77 39.25 47.9 38.95 47.19 38.95C46.79 38.95 46.43 39.05 46.15 39.23C45.77 39.47 45.53 39.85 45.32 40.21C44.52 41.61 43.88 43.09 43.46 44.61L43.41 44.69C43.13 45 42.7 45.17 42.18 45.17C41.52 45.17 40.83 44.9 40.41 44.48C39.85 43.92 39.68 43.22 39.51 42.53C39.47 42.39 39.44 42.25 39.4 42.11C39.13 41.15 38.64 40.55 37.96 40.32C37.24 40.09 36.33 40.32 35.42 40.63C35.05 40.74 34.67 40.87 34.31 40.95C33.75 41.08 33.16 41.14 32.38 41.14C32.03 41.14 31.67 41.14 31.32 41.11C30.78 41.09 30.25 41.08 29.71 41.11C27.23 41.22 24.84 42.32 23.43 43.98C23.34 44.09 23.24 44.2 23.15 44.31C22.89 44.65 22.62 45 22.25 45.28C21.28 46.03 20.03 46.13 18.94 46.13C18.47 46.13 18 46.1 17.54 46.09C17.07 46.06 16.58 46.05 16.11 46.05C15.4 46.05 14.81 46.1 14.31 46.22C14.54 46.94 14.14 47.8 13.34 48.2C12.94 48.4 12.44 48.48 11.93 48.43C11.55 49.49 11.24 50.62 11.67 51.71C11.76 51.91 11.85 52.11 11.95 52.3C12.21 52.82 12.49 53.35 12.38 53.93C12.33 54.19 12.21 54.42 12.09 54.64C12 54.82 11.92 54.99 11.86 55.16C11.64 55.96 12.19 56.71 12.8 57.52C13.01 57.8 13.22 58.08 13.41 58.38C14 59.34 14.21 60.4 14.4 61.44L15.61 68.06C15.73 68.69 15.85 69.26 15.99 69.81C16.03 69.81 16.04 69.81 16.08 69.81C17.15 69.81 18.32 70.16 19.65 70.87C20.31 71.22 20.97 71.61 21.59 71.99C23.33 73.03 25.1 74.09 27.18 74.46C27.3 74.48 27.42 74.5 27.56 74.51C28.18 74.61 28.83 74.71 29.33 75.06C29.59 75.24 29.78 75.45 29.97 75.66C30.06 75.77 30.16 75.87 30.26 75.97C31.11 76.79 32.43 77.04 33.84 77.31C35 77.53 36.2 77.76 37.15 78.33C38.29 79.02 38.92 80.07 39.54 81.09C39.63 81.23 39.72 81.37 39.8 81.51C41.76 80.91 44.07 80.71 46.93 80.95C48.13 81.05 49.34 81.2 50.5 81.35C51.94 81.54 53.42 81.73 54.87 81.82L55.27 81.84C57.04 81.94 59.04 82.04 60.21 83.16L60.2 83.2Z" fill="#FFFFFF" fill-opacity="1.000000" fill-rule="nonzero"/>
	<path id="Vector" d="M88.38 31.52C88.07 30.78 87.93 29.94 87.22 29.41C86.31 28.74 84.91 28.88 83.66 28.86C82.43 28.86 80.9 28.39 80.85 27.38C76.97 26.61 72.94 26.33 68.95 26.57C66.82 26.69 64.72 26.97 62.59 27.09C59.35 27.25 56.09 27.06 52.93 26.48C52.76 26.83 52.69 27.18 52.84 27.56C53.16 28.37 54.3 28.74 54.99 29.38C55.93 30.23 55.98 31.55 55.5 32.61C55.39 32.82 55.27 33.02 55.15 33.22C55.76 33.37 56.29 33.61 56.73 34C57.3 34.52 57.56 35.23 58.12 35.75C59.71 37.22 62.87 36.62 64.83 37.78C66.01 38.49 66.53 39.69 66.96 40.84C67.15 41.35 67.36 41.86 67.43 42.4C67.51 42.97 67.46 43.56 67.48 44.13C67.5 44.56 67.6 45 67.72 45.42C67.74 45.42 67.76 45.43 67.77 45.45C68.33 45.6 68.95 45.56 69.47 45.77C70.1 46.03 70.38 46.54 70.45 47.11C71.43 46.75 72.53 46.64 73.57 46.89C74.73 47.18 76.01 47.9 77.04 47.36C77.99 46.86 77.94 45.52 78.98 45.14C80.02 44.76 81.7 45.52 82.19 44.66C82.39 44.28 82.13 43.81 82.36 43.43C82.65 42.96 83.52 42.97 84.02 42.62C84.72 42.14 84.46 41.26 84.65 40.55C85.22 38.39 89.63 38.28 90.48 36.18C90.79 35.43 90.53 34.6 90.48 33.8C89.52 33.22 88.76 32.4 88.36 31.48L88.38 31.52Z" fill="#FF5A57" fill-opacity="1.000000" fill-rule="nonzero"/>
	<path id="Vector" d="M76.2 47.78C75.6 47.78 74.97 47.57 74.38 47.38C74.07 47.28 73.79 47.18 73.5 47.11C72.6 46.89 71.56 46.97 70.57 47.34L70.24 47.45L70.2 47.15C70.13 46.55 69.86 46.17 69.37 45.98C69.11 45.87 68.82 45.84 68.49 45.8C68.23 45.77 67.95 45.74 67.69 45.66L67.48 45.59L67.48 45.48C67.31 44.97 67.24 44.54 67.22 44.15C67.22 43.92 67.22 43.7 67.22 43.47C67.22 43.11 67.22 42.76 67.17 42.42C67.1 41.92 66.89 41.4 66.7 40.91C66.21 39.67 65.75 38.59 64.67 37.96C63.82 37.46 62.69 37.3 61.6 37.15C60.25 36.95 58.84 36.76 57.92 35.9C57.61 35.62 57.4 35.3 57.2 34.98C56.99 34.67 56.8 34.39 56.54 34.15C56.17 33.82 55.7 33.58 55.08 33.43L54.79 33.36L54.92 33.13C55.06 32.92 55.17 32.74 55.25 32.56C55.76 31.44 55.58 30.25 54.8 29.54C54.56 29.31 54.27 29.13 53.95 28.93C53.4 28.58 52.81 28.22 52.58 27.63C52.43 27.26 52.46 26.85 52.67 26.42L52.76 26.25L52.96 26.29C56.1 26.85 59.36 27.05 62.55 26.88C63.66 26.82 64.79 26.71 65.88 26.61C66.87 26.51 67.91 26.43 68.92 26.36C72.93 26.12 77 26.4 80.9 27.17L81.09 27.21L81.09 27.37C81.13 28.28 82.67 28.63 83.64 28.64L83.8 28.64L84.67 28.64C85.57 28.64 86.61 28.68 87.35 29.24C87.94 29.69 88.17 30.31 88.38 30.91C88.45 31.09 88.5 31.27 88.59 31.45C88.95 32.31 89.66 33.1 90.61 33.68L90.72 33.73L90.72 33.83C90.74 34.04 90.77 34.25 90.79 34.46C90.87 35.06 90.94 35.68 90.72 36.28C90.27 37.39 88.95 37.96 87.67 38.52C86.38 39.08 85.15 39.61 84.89 40.63C84.84 40.84 84.82 41.07 84.8 41.32C84.77 41.86 84.74 42.44 84.18 42.82C83.94 42.98 83.64 43.07 83.35 43.15C83 43.25 82.71 43.35 82.57 43.54C82.48 43.68 82.5 43.87 82.5 44.06C82.5 44.29 82.52 44.54 82.39 44.76C82.12 45.25 81.53 45.31 81.11 45.31C80.9 45.31 80.68 45.29 80.43 45.28C79.91 45.24 79.36 45.22 79.05 45.35C78.6 45.52 78.37 45.94 78.15 46.37C77.9 46.82 77.66 47.28 77.14 47.56C76.84 47.71 76.52 47.78 76.17 47.78L76.2 47.78ZM72.46 46.57C72.87 46.57 73.27 46.61 73.67 46.71C73.98 46.78 74.3 46.89 74.59 46.99C75.44 47.27 76.32 47.52 76.91 47.2C77.31 46.99 77.5 46.61 77.73 46.19C77.99 45.7 78.27 45.18 78.91 44.94C79.17 44.85 79.45 44.8 79.83 44.8C80.07 44.8 80.31 44.82 80.56 44.83C80.76 44.85 80.99 44.86 81.18 44.86C81.63 44.86 81.86 44.78 81.98 44.57C82.06 44.43 82.05 44.24 82.05 44.05C82.05 43.82 82.03 43.56 82.17 43.32C82.39 42.97 82.83 42.83 83.23 42.72C83.49 42.65 83.73 42.56 83.9 42.45C84.28 42.19 84.32 41.74 84.34 41.25C84.34 41 84.37 40.75 84.44 40.49C84.75 39.29 86.14 38.69 87.48 38.1C88.72 37.55 89.89 37.05 90.27 36.1C90.48 35.58 90.41 35.04 90.32 34.45C90.3 34.27 90.27 34.08 90.25 33.89C89.28 33.27 88.53 32.43 88.15 31.52C88.08 31.34 88.01 31.15 87.94 30.96C87.74 30.39 87.54 29.86 87.06 29.49C86.45 29.03 85.53 29 84.72 29L83.85 29L83.68 29C82.27 29 80.82 28.47 80.64 27.48C76.86 26.74 72.89 26.49 69.01 26.71C68 26.77 66.98 26.86 65.99 26.96C64.9 27.06 63.75 27.17 62.64 27.23C59.47 27.39 56.26 27.2 53.14 26.67C53.03 26.95 53.03 27.2 53.14 27.44C53.31 27.88 53.81 28.21 54.33 28.53C54.65 28.72 54.98 28.93 55.25 29.19C56.16 30.01 56.38 31.37 55.81 32.63C55.74 32.77 55.67 32.91 55.58 33.03C56.16 33.22 56.62 33.47 56.99 33.8C57.28 34.08 57.51 34.41 57.72 34.71C57.92 35.02 58.12 35.32 58.39 35.55C59.21 36.3 60.46 36.48 61.77 36.66C62.92 36.83 64.12 37 65.05 37.55C66.35 38.32 66.89 39.71 67.27 40.72C67.46 41.24 67.67 41.77 67.76 42.31C67.81 42.68 67.81 43.05 67.81 43.42C67.81 43.63 67.81 43.85 67.81 44.06C67.83 44.41 67.9 44.78 68.02 45.21C68.21 45.25 68.42 45.28 68.64 45.31C68.99 45.35 69.35 45.39 69.68 45.53C70.24 45.76 70.6 46.17 70.74 46.76C71.33 46.58 71.94 46.48 72.53 46.48L72.46 46.57Z" fill="#FFFFFF" fill-opacity="1.000000" fill-rule="nonzero"/>
	<path id="Vector" d="M101.47 27.22C101.26 25.91 100.38 24.37 98.75 24.34C98.16 22.3 99.63 19.81 97.92 18.24C95.63 16.15 90.51 18.36 88.22 16.28C87.86 15.94 87.6 15.52 87.09 15.33C86.45 15.08 85.65 15.33 84.96 15.17C84.08 14.98 83.61 14.19 82.81 13.84C82.29 13.62 81.67 13.61 81.08 13.63C79.55 13.7 77.94 14 76.41 14.03C75.46 14.84 75.08 16.15 75.84 17.12C76.19 17.55 76.72 17.96 76.69 18.48C76.62 19.92 72.84 19.72 73.01 21.16C71.85 21.92 70.01 21.67 68.94 20.83C67.86 19.99 67.45 18.73 67.38 17.52C65.92 16.78 64.39 16.01 62.68 15.85C60.96 15.68 59 16.28 58.36 17.57C57.94 18.41 58.1 19.46 57.32 20.1C56.62 20.66 55.41 20.72 54.91 21.39C54.42 22.05 54.91 22.87 54.79 23.63C54.65 24.68 53.4 25.56 52.95 26.5C56.12 27.05 59.38 27.26 62.61 27.1C64.74 26.99 66.84 26.71 68.97 26.58C72.96 26.34 76.98 26.61 80.87 27.39C80.9 28.38 82.43 28.86 83.68 28.87C84.91 28.87 86.31 28.75 87.23 29.42C87.94 29.95 88.08 30.79 88.39 31.53C88.79 32.46 89.54 33.27 90.51 33.86C90.49 33.49 90.51 33.13 90.63 32.78C91.05 31.72 92.47 31.11 93.82 30.88C95.18 30.64 96.6 30.64 97.9 30.25C98.26 30.13 98.61 29.99 98.89 29.78C99.36 29.43 99.62 28.92 100.19 28.66C100.64 28.47 101.12 28.5 101.63 28.62C101.63 28.16 101.59 27.7 101.51 27.24L101.47 27.22Z" fill="#FF5A57" fill-opacity="1.000000" fill-rule="nonzero"/>
	<path id="Vector" d="M90.77 34.28L90.32 34C89.3 33.37 88.52 32.51 88.12 31.57C88.05 31.39 87.98 31.2 87.91 31.02C87.7 30.44 87.51 29.91 87.03 29.55C86.42 29.08 85.5 29.06 84.68 29.06L83.82 29.06L83.64 29.06C82.24 29.06 80.78 28.52 80.61 27.53C76.83 26.79 72.86 26.54 68.97 26.76C67.97 26.82 66.94 26.91 65.95 27.01C64.86 27.11 63.72 27.22 62.61 27.28C59.36 27.45 56.07 27.25 52.88 26.68L52.58 26.62L52.69 26.4C52.88 26.01 53.21 25.61 53.52 25.24C53.97 24.7 54.44 24.16 54.51 23.58C54.54 23.32 54.51 23.05 54.47 22.76C54.4 22.25 54.34 21.72 54.68 21.26C55.01 20.83 55.57 20.62 56.1 20.44C56.5 20.3 56.87 20.16 57.14 19.93C57.58 19.58 57.7 19.06 57.8 18.5C57.87 18.15 57.96 17.8 58.12 17.47C58.76 16.17 60.56 15.58 62.09 15.58C62.3 15.58 62.5 15.58 62.71 15.61C64.51 15.79 66.11 16.6 67.51 17.33L67.64 17.38L67.64 17.5C67.71 18.45 68 19.78 69.13 20.66C70.1 21.42 71.78 21.61 72.75 21.05C72.75 20.25 73.79 19.92 74.69 19.61C75.58 19.32 76.39 19.04 76.43 18.46C76.43 18.14 76.19 17.86 75.91 17.55C75.8 17.44 75.7 17.33 75.61 17.22C74.75 16.11 75.27 14.7 76.22 13.87L76.29 13.8L76.39 13.8C77.21 13.79 78.06 13.69 78.89 13.59C79.6 13.51 80.33 13.44 81.06 13.4C81.2 13.4 81.34 13.4 81.48 13.4C82.08 13.4 82.55 13.48 82.95 13.65C83.33 13.82 83.64 14.07 83.94 14.31C84.28 14.59 84.63 14.87 85.05 14.96C85.27 15.02 85.6 15.02 85.93 15.01C86.07 15.01 86.19 15.01 86.33 15.01C86.57 15.01 86.9 15.02 87.22 15.15C87.63 15.3 87.89 15.58 88.13 15.85C88.22 15.94 88.33 16.04 88.43 16.14C89.26 16.91 90.53 17.06 92.14 17.06C92.45 17.06 92.77 17.06 93.08 17.06C94.92 17.04 96.89 16.99 98.12 18.11C99.25 19.13 99.11 20.51 98.97 21.84C98.89 22.62 98.82 23.43 98.97 24.16C100.57 24.3 101.51 25.77 101.75 27.21C101.82 27.66 101.85 28.13 101.87 28.62L101.87 28.92L101.52 28.83C101 28.71 100.62 28.71 100.29 28.86C100.01 28.99 99.79 29.21 99.58 29.45C99.42 29.62 99.25 29.8 99.06 29.95C98.78 30.15 98.44 30.32 97.99 30.46C97.15 30.71 96.27 30.81 95.42 30.89C94.92 30.95 94.38 31 93.88 31.09C93.13 31.21 91.36 31.66 90.87 32.85C90.77 33.13 90.74 33.44 90.75 33.84L90.79 34.29L90.77 34.28ZM84.7 28.64C85.6 28.64 86.64 28.68 87.39 29.24C87.98 29.69 88.2 30.3 88.41 30.9C88.48 31.09 88.53 31.27 88.62 31.45C88.93 32.18 89.49 32.85 90.22 33.39C90.22 33.14 90.29 32.92 90.35 32.71C90.91 31.31 92.9 30.81 93.74 30.65C94.26 30.55 94.81 30.5 95.33 30.44C96.2 30.34 97 30.26 97.78 30.02C98.18 29.9 98.47 29.77 98.68 29.6C98.85 29.48 98.99 29.32 99.15 29.15C99.39 28.89 99.65 28.62 100.03 28.45C100.41 28.29 100.83 28.24 101.33 28.33C101.33 27.95 101.28 27.59 101.23 27.25C101.02 25.92 100.17 24.58 98.77 24.55L98.56 24.55L98.51 24.38C98.26 23.54 98.35 22.65 98.44 21.78C98.57 20.48 98.7 19.25 97.73 18.36C96.89 17.61 95.63 17.44 94.01 17.44C93.7 17.44 93.39 17.44 93.08 17.44C91.22 17.47 89.26 17.51 88.03 16.39C87.93 16.29 87.82 16.18 87.72 16.07C87.49 15.83 87.29 15.61 86.99 15.5C86.75 15.4 86.37 15.4 85.95 15.41C85.55 15.43 85.19 15.41 84.89 15.36C84.34 15.23 83.94 14.91 83.54 14.59C83.26 14.36 82.98 14.14 82.67 14.01C82.36 13.87 81.96 13.82 81.44 13.82C81.32 13.82 81.18 13.82 81.06 13.82C80.37 13.84 79.64 13.93 78.94 14.01C78.15 14.1 77.31 14.19 76.5 14.22C75.72 14.94 75.32 16.1 76.03 16.99C76.12 17.11 76.2 17.2 76.31 17.3C76.6 17.64 76.95 18 76.93 18.46C76.9 19.3 75.82 19.67 74.89 19.99C73.83 20.34 73.2 20.59 73.26 21.12L73.26 21.23L73.17 21.3C72.67 21.63 72.04 21.81 71.35 21.81C70.41 21.81 69.44 21.49 68.75 20.95C67.53 20.02 67.19 18.64 67.1 17.62C65.76 16.94 64.27 16.2 62.62 16.03C62.43 16.01 62.26 16 62.07 16C60.73 16 59.14 16.5 58.58 17.62C58.45 17.92 58.38 18.25 58.31 18.57C58.18 19.16 58.05 19.78 57.49 20.23C57.14 20.51 56.71 20.66 56.29 20.81C55.81 21 55.36 21.15 55.12 21.47C54.86 21.82 54.92 22.24 54.98 22.7C55.01 23 55.06 23.32 55.03 23.63C54.92 24.31 54.44 24.9 53.95 25.47C53.71 25.77 53.47 26.05 53.29 26.31C56.35 26.83 59.49 27.01 62.57 26.84C63.68 26.79 64.81 26.68 65.9 26.58C66.89 26.48 67.93 26.4 68.94 26.33C72.94 26.09 77.02 26.37 80.92 27.14L81.11 27.18L81.11 27.33C81.15 28.24 82.69 28.59 83.66 28.61L83.82 28.61L84.68 28.61L84.7 28.64Z" fill="#FFFFFF" fill-opacity="1.000000" fill-rule="nonzero"/>
	<path id="Vector" d="M64.82 5.03C65.19 4.92 65.6 5.03 65.92 5.2C66.23 5.37 66.49 5.62 66.77 5.83C66.99 5.98 67.25 6.14 67.34 6.36C67.41 6.5 67.39 6.66 67.39 6.81C67.36 7.62 67.55 8.45 67.95 9.2C68.02 9.33 68.08 9.47 68.1 9.61C68.14 10.15 67.3 10.42 66.65 10.5C66.47 10.52 66.3 10.55 66.18 10.64C66.09 10.73 66.04 10.83 66 10.94C65.87 11.3 65.71 11.67 65.45 11.99C65.08 12.41 64.56 12.74 63.97 12.94C63.06 13.26 62 13.27 61.04 13.04C60.54 12.91 60.06 12.71 59.73 12.36C59.41 12.03 59.31 11.54 59.59 11.18C60.06 10.59 61.13 10.69 62 10.64C62.36 10.63 62.73 10.56 63.02 10.39C63.32 10.22 63.52 9.92 63.44 9.64C63.38 9.43 63.19 9.26 63.06 9.08C62.92 8.89 62.86 8.63 63.06 8.47C63.16 8.39 63.3 8.35 63.44 8.32C63.78 8.24 64.13 8.17 64.48 8.08C64.82 8.01 65.19 7.91 65.4 7.69C65.74 7.31 65.47 6.78 65.17 6.36C64.88 5.96 64.55 5.47 64.81 5.03L64.82 5.03Z" fill="#FF5A57" fill-opacity="1.000000" fill-rule="nonzero"/>
	<path id="Vector" d="M62.36 13.37C61.89 13.37 61.43 13.32 60.97 13.2C60.33 13.05 59.85 12.8 59.54 12.46C59.14 12.03 59.07 11.44 59.4 11.03C59.86 10.45 60.75 10.43 61.55 10.42C61.7 10.42 61.86 10.42 62 10.4C62.4 10.39 62.67 10.32 62.9 10.19C63.12 10.05 63.26 9.83 63.21 9.65C63.18 9.54 63.09 9.44 63 9.33C62.95 9.27 62.9 9.2 62.86 9.15C62.69 8.91 62.6 8.54 62.88 8.29C63.04 8.17 63.25 8.11 63.39 8.08L64.43 7.86C64.76 7.79 65.05 7.7 65.21 7.54C65.41 7.31 65.33 6.93 64.96 6.44C64.7 6.08 64.25 5.46 64.58 4.92L64.63 4.85L64.72 4.82C65.12 4.7 65.62 4.77 66.06 5C66.28 5.13 66.45 5.27 66.65 5.41C66.75 5.49 66.84 5.56 66.94 5.63L67.04 5.7C67.25 5.84 67.5 6.01 67.6 6.25C67.67 6.42 67.67 6.58 67.65 6.74C67.62 7.56 67.81 8.36 68.19 9.08C68.28 9.23 68.35 9.38 68.36 9.55C68.41 10.21 67.53 10.56 66.68 10.66C66.56 10.67 66.42 10.68 66.35 10.74C66.3 10.78 66.28 10.85 66.25 10.94C66.13 11.26 65.95 11.68 65.66 12.04C65.29 12.49 64.74 12.84 64.08 13.08C63.54 13.26 62.97 13.36 62.36 13.36L62.36 13.37ZM65.03 5.18C64.91 5.49 65.15 5.87 65.43 6.23C65.92 6.89 65.99 7.41 65.64 7.79C65.36 8.08 64.89 8.19 64.58 8.26L63.54 8.5C63.44 8.53 63.33 8.54 63.28 8.59C63.19 8.66 63.25 8.82 63.33 8.94C63.37 8.99 63.42 9.05 63.45 9.09C63.56 9.22 63.68 9.37 63.73 9.55C63.82 9.9 63.61 10.29 63.21 10.53C62.92 10.7 62.54 10.8 62.05 10.82C61.89 10.82 61.74 10.82 61.58 10.84C60.85 10.85 60.16 10.87 59.85 11.26C59.62 11.55 59.73 11.96 59.97 12.21C60.21 12.46 60.61 12.67 61.15 12.8C62.07 13.02 63.07 12.99 63.89 12.7C64.46 12.5 64.93 12.2 65.24 11.82C65.5 11.5 65.66 11.12 65.76 10.84C65.81 10.71 65.87 10.57 66 10.46C66.19 10.31 66.44 10.28 66.63 10.25C67.22 10.18 67.89 9.96 67.86 9.58C67.86 9.48 67.79 9.38 67.74 9.27C67.32 8.46 67.11 7.61 67.15 6.75C67.15 6.58 67.15 6.47 67.11 6.37C67.06 6.23 66.89 6.12 66.71 6.01L66.61 5.94C66.51 5.86 66.4 5.77 66.28 5.69C66.11 5.55 65.95 5.42 65.78 5.32C65.54 5.18 65.26 5.11 65.03 5.16L65.03 5.18Z" fill="#FFFFFF" fill-opacity="1.000000" fill-rule="nonzero"/>
	<path id="Vector" d="M98.31 12.28C98.21 10.63 96.54 9.2 96.66 7.55C96.75 6.22 97.97 5.14 99.02 4.14C99.93 3.27 100.83 2.23 100.86 1.14C100.24 1.49 99.3 1.55 98.49 1.51C96.06 1.41 93.63 1.11 91.25 0.65C90.25 0.46 89.24 0.23 88.22 0.22C87.27 0.22 86.31 0.4 85.38 0.54C82.64 0.96 79.72 0.26 77.02 0.82C75.2 1.2 73.37 1.58 71.55 1.95C71.55 2.67 71.55 3.38 71.55 4.08C69.63 4.25 68.93 6.74 70.58 7.55C71 7.75 71.5 7.87 71.74 8.21C71.99 8.57 71.81 9.02 71.88 9.43C72.04 10.27 73.18 10.73 74.22 10.84C75.26 10.95 76.37 10.84 77.33 11.2C78.28 11.55 78.96 12.62 78.25 13.25C77.52 13.29 76.88 13.58 76.39 14C77.92 13.97 79.51 13.68 81.06 13.61C81.65 13.58 82.27 13.61 82.79 13.82C83.61 14.16 84.07 14.95 84.94 15.15C85.64 15.3 86.42 15.05 87.07 15.3C87.58 15.5 87.84 15.92 88.2 16.26C89.97 17.86 93.4 16.93 95.94 17.36C96.54 16.62 97.03 15.78 97.45 14.97C97.9 14.1 98.35 13.2 98.3 12.27L98.31 12.28Z" fill="#FF5A57" fill-opacity="1.000000" fill-rule="nonzero"/>
	<path id="Vector" d="M96.08 17.61L95.9 17.59C95.24 17.47 94.53 17.46 93.98 17.46C93.68 17.46 93.37 17.46 93.08 17.46C91.22 17.49 89.26 17.53 88.03 16.4C87.92 16.3 87.82 16.19 87.72 16.07C87.49 15.84 87.28 15.61 86.99 15.5C86.75 15.4 86.36 15.4 85.95 15.42C85.55 15.43 85.18 15.42 84.89 15.36C84.33 15.23 83.94 14.91 83.54 14.59C83.26 14.37 82.98 14.14 82.67 14.02C82.36 13.88 81.96 13.82 81.44 13.82C81.32 13.82 81.18 13.82 81.06 13.82C80.36 13.85 79.64 13.93 78.94 14.02C78.09 14.12 77.22 14.21 76.39 14.23L75.77 14.23L76.2 13.88C76.76 13.4 77.42 13.12 78.11 13.07C78.3 12.86 78.3 12.6 78.25 12.44C78.14 12.02 77.71 11.6 77.21 11.41C76.6 11.19 75.92 11.16 75.2 11.13C74.85 11.12 74.5 11.11 74.17 11.06C73.01 10.94 71.76 10.41 71.61 9.47C71.57 9.3 71.59 9.13 71.61 8.97C71.61 8.73 71.62 8.5 71.5 8.32C71.36 8.13 71.1 8.01 70.81 7.9C70.69 7.85 70.57 7.8 70.44 7.75C69.59 7.33 69.21 6.46 69.47 5.54C69.72 4.68 70.41 4.07 71.29 3.91L71.29 1.8L76.96 0.62C77.75 0.47 78.59 0.39 79.67 0.39C80.26 0.39 80.87 0.41 81.46 0.43C82.05 0.46 82.64 0.47 83.23 0.47C84.04 0.47 84.72 0.43 85.34 0.33L85.84 0.25C86.61 0.12 87.39 0 88.2 0C89.19 0 90.11 0.18 90.99 0.36L91.36 0.43C93.72 0.89 96.13 1.17 98.54 1.28C98.66 1.28 98.8 1.28 98.92 1.28C99.72 1.28 100.34 1.17 100.74 0.95L101.17 0.71L101.17 1.13C101.11 2.36 100.05 3.49 99.25 4.25L99.08 4.42C98.07 5.37 97.03 6.36 96.94 7.55C96.89 8.38 97.31 9.13 97.74 9.94C98.14 10.67 98.54 11.43 98.59 12.25C98.64 13.26 98.16 14.21 97.72 15.05C97.36 15.75 96.86 16.66 96.2 17.47L96.09 17.6L96.08 17.61ZM93.98 17.04C94.5 17.04 95.17 17.04 95.83 17.15C96.42 16.4 96.89 15.56 97.22 14.91C97.64 14.12 98.1 13.21 98.05 12.3C98 11.55 97.64 10.87 97.24 10.14C96.79 9.32 96.34 8.48 96.39 7.55C96.47 6.22 97.62 5.13 98.64 4.17L98.82 4.01C99.47 3.38 100.33 2.49 100.55 1.52C100.1 1.66 99.54 1.74 98.89 1.74C98.75 1.74 98.61 1.74 98.47 1.74C96.02 1.63 93.58 1.35 91.19 0.89L90.82 0.82C89.97 0.65 89.09 0.47 88.2 0.47C87.4 0.47 86.64 0.6 85.91 0.71L85.41 0.79C84.75 0.89 84.06 0.93 83.19 0.93C82.6 0.93 81.99 0.9 81.39 0.89C80.8 0.86 80.21 0.85 79.62 0.85C78.59 0.85 77.78 0.92 77.05 1.07L71.78 2.16L71.78 4.32L71.55 4.32C70.63 4.42 70.11 5.1 69.96 5.66C69.8 6.22 69.89 7.02 70.69 7.41C70.79 7.47 70.91 7.51 71.02 7.55C71.35 7.69 71.73 7.85 71.94 8.14C72.13 8.42 72.11 8.71 72.09 9.01C72.09 9.16 72.09 9.3 72.09 9.43C72.21 10.14 73.25 10.56 74.21 10.66C74.54 10.69 74.87 10.7 75.2 10.71C75.92 10.74 76.69 10.77 77.38 11.04C78.02 11.27 78.56 11.81 78.72 12.35C78.82 12.76 78.72 13.14 78.4 13.42L78.33 13.47L78.23 13.47C77.8 13.5 77.42 13.63 77.12 13.78C77.69 13.74 78.28 13.68 78.85 13.61C79.57 13.53 80.29 13.46 81.02 13.42C81.16 13.42 81.3 13.42 81.44 13.42C82.05 13.42 82.51 13.5 82.91 13.67C83.29 13.84 83.61 14.09 83.9 14.33C84.25 14.6 84.6 14.88 85.01 14.98C85.24 15.04 85.57 15.04 85.9 15.02C86.03 15.02 86.16 15.02 86.29 15.02C86.54 15.02 86.87 15.04 87.18 15.16C87.6 15.32 87.86 15.6 88.1 15.86C88.18 15.96 88.29 16.06 88.39 16.16C89.24 16.93 90.49 17.08 92.14 17.08C92.43 17.08 92.75 17.08 93.04 17.08C93.35 17.08 93.65 17.08 93.96 17.08L93.98 17.04Z" fill="#FFFFFF" fill-opacity="1.000000" fill-rule="nonzero"/>
</svg>
