<svg width="67.804688" height="46.631104" viewBox="0 0 67.8047 46.6311" fill="none" xmlns="http://www.w3.org/2000/svg" xmlns:xlink="http://www.w3.org/1999/xlink">
	<desc>
			Created with Pixso.
	</desc>
	<defs/>
	<path id="Vector" d="M67.2 30.27C66.42 29.91 65.18 30.49 64.61 29.93C64.48 29.79 64.41 29.63 64.29 29.49C64.02 29.21 63.55 29.15 63.13 29.14C62.71 29.13 62.25 29.16 61.88 28.99C61.5 28.83 61.26 28.4 61.53 28.14C60.68 28.02 59.83 28.24 58.98 28.31C58.12 28.38 57.12 28.24 56.69 27.64C56.56 27.47 56.5 27.27 56.39 27.09C55.84 26.07 54.36 25.65 53.05 25.32C53.08 24.26 52.98 23 51.87 22.43C51.01 21.99 49.9 22.15 48.91 22.32C46.84 22.69 44.52 23.2 43.51 24.7C43.4 24.87 43.3 25.04 43.12 25.16C42.85 25.32 42.46 25.3 42.12 25.26C39.82 25.01 37.55 24.64 35.27 24.26C34.08 24.07 32.88 23.87 31.68 23.67C30.52 23.48 29.21 23.31 28.21 23.83C27.61 24.15 27.22 24.69 26.91 25.21C26.85 25.31 26.79 25.42 26.78 25.53C26.73 26.16 28.12 26.3 28.23 26.93C28.3 27.36 27.73 27.65 27.24 27.84C26.49 28.12 26.27 28.66 25.7 29.15C25.22 29.57 24.43 29.78 24.16 30.32C23.84 30.95 24.42 31.72 24.02 32.32C23.85 32.58 23.51 32.8 23.57 33.09C23.59 33.18 23.66 33.26 23.72 33.34C24.21 33.9 24.95 34.31 25.77 34.46C26.17 34.54 26.6 34.56 27 34.68C27.68 34.86 28.23 35.29 28.94 35.41C29.62 35.52 30.32 35.32 30.98 35.12C31.83 34.87 32.68 34.61 33.45 34.21C33.75 34.06 34.03 33.88 34.34 33.74C35.83 33.06 37.85 33.26 39.1 34.2C39.83 34.75 40.3 35.53 41.16 35.96C41.47 36.12 41.84 36.23 42.06 36.47C42.28 36.72 42.3 37.05 42.45 37.32C42.55 37.5 42.7 37.64 42.86 37.78C42.72 37.99 42.61 38.21 42.57 38.44C42.54 38.64 42.55 38.85 42.44 39.01C42.18 39.41 41.45 39.39 41.06 39.71C40.95 39.8 40.87 39.92 40.76 40.01C40.59 40.15 40.34 40.22 40.12 40.31C39.7 40.47 39.34 40.72 39.1 41.03C38.91 41.27 38.8 41.61 39.06 41.8C39.15 41.87 39.29 41.89 39.41 41.92C39.76 41.99 40.13 42.06 40.49 42.12C40.46 42.03 40.46 41.93 40.53 41.86C41.13 42.05 41.88 41.66 41.93 41.14C42.66 40.6 43.34 40.03 44.01 39.44C44.47 39.03 44.93 38.61 45.37 38.19C46.05 38.1 46.77 38.13 47.44 38.28C47.7 38.34 47.99 38.43 48.09 38.64C48.17 38.82 48.08 39.04 48.16 39.22C48.26 39.46 48.58 39.57 48.87 39.63C49.86 39.85 50.92 39.85 51.91 39.65C52.11 39.99 52.3 40.33 52.49 40.67C51.45 40.63 50.39 40.91 49.58 41.45C49.43 41.55 49.27 41.67 49.23 41.83C49.14 42.11 49.43 42.41 49.78 42.5C50.12 42.59 50.5 42.54 50.86 42.48C51.42 43.08 51.51 43.94 51.1 44.61C52.4 44.93 53.75 44.26 54.78 43.54C55.08 43.33 55.41 43.1 55.8 43.06C56.22 43.02 56.61 43.2 57.02 43.29C57.53 43.39 58.12 43.34 58.5 43.04C58.87 42.74 58.92 42.18 58.52 41.91C57.94 42.01 57.34 42.12 56.75 42C56.17 41.89 55.64 41.48 55.68 41C55.1 40.95 54.55 40.74 54.15 40.4C54.77 39.57 55.6 38.63 56.8 38.61C57.09 38.61 57.38 38.66 57.68 38.68C59.63 38.76 61.07 37.13 62.89 36.64C63.02 36.34 63.28 36.08 63.65 35.99C63.84 35.94 64.06 35.93 64.19 35.8C64.31 35.69 64.3 35.52 64.38 35.4C64.58 35.07 65.16 35.12 65.61 35.13C66.08 35.13 66.57 35.03 66.91 34.78C67.25 34.52 67.4 34.07 67.17 33.74C67.06 33.59 66.89 33.47 66.79 33.31C66.53 32.83 67.1 32.35 67.43 31.9C67.83 31.38 67.87 30.57 67.21 30.27L67.2 30.27ZM43.21 38.11C43.32 38.21 43.41 38.31 43.49 38.42C43.41 38.31 43.31 38.21 43.21 38.11Z" fill="#FF5A57" fill-opacity="1.000000" fill-rule="nonzero"/>
	<path id="Vector" d="M51.77 44.78C51.52 44.78 51.28 44.75 51.04 44.7L50.93 44.67L50.99 44.59C51.38 43.95 51.3 43.16 50.79 42.58C50.39 42.64 50.02 42.66 49.72 42.58C49.33 42.48 48.99 42.16 49.1 41.81C49.16 41.63 49.33 41.5 49.49 41.39C50.25 40.89 51.25 40.59 52.24 40.59C52.27 40.59 52.29 40.59 52.31 40.59L51.83 39.74C50.84 39.93 49.79 39.92 48.81 39.7C48.37 39.61 48.12 39.46 48.03 39.25C47.98 39.15 47.99 39.04 47.99 38.93C47.99 38.84 47.99 38.74 47.95 38.67C47.89 38.52 47.7 38.42 47.37 38.35C46.73 38.21 46.04 38.18 45.38 38.25C44.94 38.69 44.48 39.11 44.04 39.49C43.3 40.15 42.63 40.7 41.99 41.18C41.92 41.62 41.4 41.98 40.82 41.98C40.72 41.98 40.63 41.97 40.54 41.95C40.52 41.99 40.52 42.04 40.55 42.1L40.6 42.23L40.43 42.2C40.11 42.14 39.78 42.08 39.35 41.99C39.23 41.97 39.08 41.93 38.96 41.86C38.66 41.64 38.76 41.26 38.98 40.99C39.24 40.66 39.61 40.41 40.04 40.24C40.09 40.22 40.15 40.19 40.2 40.17C40.37 40.11 40.53 40.05 40.66 39.96C40.71 39.92 40.76 39.86 40.81 39.81C40.85 39.76 40.91 39.7 40.96 39.66C41.15 39.5 41.4 39.42 41.64 39.35C41.93 39.26 42.2 39.17 42.32 38.98C42.39 38.87 42.41 38.73 42.42 38.59C42.42 38.54 42.43 38.48 42.44 38.43C42.48 38.19 42.6 37.96 42.71 37.79C42.56 37.66 42.43 37.52 42.34 37.35C42.27 37.23 42.23 37.11 42.19 36.99C42.13 36.82 42.07 36.65 41.94 36.51C41.79 36.35 41.57 36.25 41.33 36.14C41.25 36.1 41.15 36.06 41.08 36.02C40.55 35.76 40.15 35.36 39.78 34.97C39.54 34.72 39.29 34.46 39 34.25C38.29 33.71 37.3 33.4 36.27 33.4C35.58 33.4 34.92 33.54 34.36 33.8C34.17 33.88 33.99 33.99 33.8 34.08C33.69 34.15 33.58 34.21 33.46 34.27C32.69 34.67 31.82 34.93 30.98 35.19C30.5 35.33 29.9 35.51 29.32 35.51C29.17 35.51 29.02 35.5 28.88 35.48C28.47 35.41 28.11 35.24 27.77 35.08C27.5 34.95 27.23 34.82 26.93 34.74C26.7 34.68 26.46 34.64 26.21 34.61C26.05 34.59 25.88 34.56 25.71 34.53C24.87 34.37 24.1 33.95 23.61 33.38C23.54 33.29 23.46 33.2 23.44 33.09C23.38 32.86 23.55 32.67 23.72 32.49C23.78 32.42 23.85 32.35 23.89 32.28C24.08 31.99 24.03 31.65 23.98 31.29C23.93 30.94 23.87 30.6 24.04 30.27C24.21 29.93 24.6 29.71 24.97 29.5C25.19 29.37 25.42 29.24 25.6 29.09C25.79 28.92 25.93 28.76 26.08 28.59C26.37 28.26 26.64 27.95 27.17 27.75C27.84 27.5 28.15 27.23 28.1 26.93C28.06 26.66 27.74 26.49 27.4 26.3C27.02 26.1 26.62 25.88 26.66 25.51C26.67 25.38 26.74 25.26 26.79 25.17C27.1 24.65 27.49 24.09 28.14 23.75C28.6 23.51 29.17 23.38 29.85 23.38C30.48 23.38 31.13 23.48 31.68 23.57L35.27 24.16C37.52 24.53 39.82 24.91 42.11 25.16C42.24 25.18 42.38 25.19 42.52 25.19C42.75 25.19 42.92 25.15 43.04 25.07C43.18 24.99 43.26 24.85 43.36 24.72L43.4 24.64C44.43 23.13 46.76 22.6 48.86 22.22C49.36 22.13 49.93 22.04 50.48 22.04C51.03 22.04 51.51 22.14 51.9 22.34C53.01 22.91 53.15 24.12 53.13 25.24C54.46 25.57 55.9 26.01 56.47 27.04C56.51 27.11 56.54 27.18 56.57 27.25C56.62 27.36 56.68 27.48 56.75 27.58C57.17 28.14 58.06 28.23 58.56 28.23C58.69 28.23 58.82 28.22 58.95 28.21C59.21 28.19 59.47 28.15 59.73 28.12C60.14 28.06 60.58 28.01 60.99 28.01C61.18 28.01 61.36 28.02 61.53 28.04L61.7 28.06L61.59 28.17C61.48 28.28 61.48 28.4 61.5 28.48C61.55 28.66 61.71 28.82 61.9 28.91C62.2 29.03 62.56 29.04 62.91 29.04C62.98 29.04 63.05 29.04 63.12 29.04C63.72 29.06 64.12 29.18 64.35 29.42C64.42 29.49 64.47 29.57 64.51 29.64C64.57 29.72 64.61 29.79 64.67 29.85C64.83 30.02 65.08 30.08 65.46 30.08C65.61 30.08 65.78 30.07 65.94 30.06C66.11 30.05 66.28 30.04 66.45 30.04C66.78 30.04 67.04 30.08 67.24 30.18C67.49 30.31 67.68 30.5 67.75 30.76C67.87 31.12 67.77 31.58 67.5 31.93C67.43 32.01 67.36 32.1 67.29 32.19C66.99 32.55 66.68 32.91 66.87 33.26C66.91 33.34 66.98 33.41 67.06 33.48C67.12 33.55 67.19 33.62 67.23 33.69C67.47 34.03 67.34 34.52 66.96 34.82C66.64 35.06 66.17 35.19 65.64 35.19L65.46 35.19C65.06 35.18 64.61 35.16 64.44 35.42C64.42 35.47 64.4 35.52 64.38 35.58C64.35 35.67 64.32 35.76 64.23 35.84C64.12 35.95 63.94 35.99 63.79 36.01C63.74 36.02 63.69 36.04 63.65 36.05C63.34 36.12 63.08 36.35 62.95 36.65L62.93 36.68L62.88 36.69C62.16 36.89 61.48 37.27 60.82 37.65C59.88 38.19 58.92 38.74 57.79 38.74C57.73 38.74 57.68 38.74 57.64 38.74C57.51 38.73 57.39 38.72 57.27 38.71C57.11 38.69 56.96 38.68 56.81 38.68L56.77 38.68C55.67 38.7 54.87 39.54 54.24 40.37C54.62 40.66 55.13 40.86 55.66 40.9L55.75 40.9L55.75 40.98C55.72 41.43 56.23 41.8 56.75 41.9C56.91 41.93 57.08 41.95 57.27 41.95C57.67 41.95 58.1 41.88 58.47 41.81L58.51 41.8L58.55 41.82C58.74 41.96 58.85 42.15 58.86 42.38C58.88 42.64 58.75 42.9 58.53 43.07C58.27 43.28 57.89 43.4 57.46 43.4C57.3 43.4 57.13 43.38 56.96 43.35C56.83 43.32 56.71 43.28 56.58 43.25C56.31 43.17 56.05 43.1 55.77 43.13C55.41 43.16 55.11 43.37 54.82 43.57C53.7 44.36 52.66 44.75 51.75 44.75L51.77 44.78ZM51.21 44.57C52.22 44.78 53.38 44.41 54.7 43.49C55.01 43.27 55.35 43.04 55.77 43C56.09 42.97 56.38 43.05 56.67 43.14C56.79 43.17 56.91 43.2 57.03 43.23C57.17 43.26 57.32 43.28 57.47 43.28C57.85 43.28 58.18 43.18 58.41 43C58.59 42.86 58.69 42.64 58.68 42.42C58.67 42.26 58.6 42.11 58.47 42.01C57.94 42.11 57.24 42.2 56.71 42.1C56.15 41.99 55.57 41.6 55.56 41.09C55 41.02 54.45 40.81 54.06 40.47L54 40.43L54.04 40.38C54.71 39.49 55.56 38.58 56.78 38.56L56.82 38.56C56.98 38.56 57.15 38.57 57.31 38.59C57.43 38.6 57.54 38.61 57.66 38.61C58.79 38.66 59.73 38.12 60.73 37.55C61.39 37.18 62.06 36.79 62.8 36.59C62.96 36.26 63.25 36.01 63.6 35.92C63.65 35.91 63.7 35.9 63.76 35.89C63.89 35.87 64.02 35.84 64.1 35.77C64.15 35.71 64.17 35.64 64.19 35.57C64.21 35.5 64.23 35.44 64.27 35.38C64.49 35.03 65.03 35.05 65.47 35.06L65.65 35.06C66.13 35.06 66.55 34.94 66.83 34.73C67.16 34.48 67.26 34.07 67.08 33.79C67.03 33.73 66.98 33.67 66.91 33.61C66.83 33.53 66.76 33.44 66.7 33.35C66.47 32.92 66.83 32.49 67.14 32.12C67.21 32.04 67.28 31.96 67.35 31.87C67.59 31.56 67.68 31.15 67.58 30.83C67.51 30.62 67.36 30.45 67.15 30.35C66.98 30.27 66.76 30.23 66.47 30.23C66.3 30.23 66.13 30.24 65.97 30.25C65.81 30.26 65.64 30.27 65.47 30.27C65.17 30.27 64.8 30.24 64.53 29.98C64.46 29.91 64.4 29.83 64.35 29.75C64.31 29.67 64.26 29.61 64.21 29.55C64.01 29.35 63.66 29.24 63.12 29.22C63.06 29.22 62.99 29.22 62.93 29.22C62.55 29.22 62.17 29.21 61.83 29.07C61.58 28.97 61.39 28.76 61.33 28.53C61.3 28.42 61.31 28.3 61.37 28.21C61.25 28.2 61.13 28.19 61.01 28.19C60.6 28.19 60.18 28.25 59.78 28.3C59.52 28.34 59.25 28.38 58.99 28.4C58.85 28.41 58.72 28.41 58.58 28.41C58.04 28.41 57.06 28.32 56.6 27.69C56.52 27.57 56.47 27.45 56.41 27.33C56.37 27.26 56.34 27.19 56.31 27.13C55.77 26.15 54.33 25.72 53.02 25.4L52.95 25.39L52.95 25.33C52.98 24.23 52.87 23.04 51.81 22.5C51.46 22.32 51.03 22.23 50.51 22.23C49.99 22.23 49.42 22.32 48.93 22.41C46.86 22.78 44.58 23.29 43.6 24.75L43.55 24.82C43.45 24.97 43.36 25.12 43.18 25.22C43.02 25.32 42.81 25.37 42.53 25.37C42.39 25.37 42.24 25.36 42.1 25.34C39.8 25.09 37.49 24.72 35.25 24.35L31.65 23.76C31.1 23.67 30.46 23.57 29.86 23.57C29.21 23.57 28.68 23.68 28.25 23.91C27.64 24.23 27.27 24.77 26.98 25.26C26.92 25.37 26.87 25.46 26.86 25.55C26.83 25.83 27.17 26.01 27.52 26.2C27.88 26.39 28.25 26.59 28.31 26.93C28.38 27.31 28.02 27.64 27.27 27.93C26.79 28.11 26.54 28.39 26.25 28.71C26.1 28.88 25.95 29.06 25.76 29.22C25.56 29.39 25.33 29.53 25.1 29.66C24.73 29.86 24.39 30.06 24.23 30.36C24.09 30.65 24.14 30.96 24.19 31.3C24.25 31.67 24.31 32.04 24.08 32.38C24.03 32.46 23.96 32.54 23.89 32.61C23.75 32.78 23.61 32.93 23.65 33.09C23.67 33.17 23.72 33.24 23.79 33.32C24.26 33.85 24.99 34.25 25.78 34.41C25.93 34.44 26.1 34.46 26.27 34.48C26.51 34.51 26.77 34.55 27.01 34.62C27.32 34.7 27.6 34.84 27.88 34.97C28.23 35.13 28.56 35.29 28.94 35.35C29.06 35.37 29.2 35.38 29.34 35.38C29.89 35.38 30.47 35.21 30.92 35.07C31.75 34.81 32.62 34.55 33.37 34.16C33.48 34.1 33.6 34.04 33.71 33.98C33.89 33.88 34.08 33.77 34.27 33.68C34.87 33.42 35.56 33.27 36.28 33.27C37.36 33.27 38.4 33.59 39.14 34.15C39.44 34.38 39.7 34.64 39.95 34.89C40.33 35.28 40.69 35.65 41.19 35.9C41.27 35.95 41.36 35.98 41.44 36.02C41.69 36.13 41.94 36.25 42.12 36.44C42.26 36.59 42.33 36.78 42.39 36.96C42.43 37.08 42.47 37.2 42.53 37.3C42.62 37.45 42.75 37.59 42.92 37.74L42.96 37.78L42.93 37.83C42.83 38 42.7 38.22 42.66 38.47C42.65 38.52 42.64 38.57 42.64 38.62C42.62 38.77 42.6 38.93 42.51 39.07C42.35 39.31 42.04 39.41 41.73 39.51C41.51 39.58 41.28 39.65 41.12 39.78C41.07 39.83 41.03 39.87 40.98 39.92C40.93 39.98 40.88 40.03 40.81 40.08C40.66 40.2 40.48 40.27 40.3 40.34C40.25 40.36 40.19 40.37 40.14 40.39C39.74 40.55 39.4 40.8 39.16 41.1C39.02 41.28 38.88 41.6 39.11 41.75C39.19 41.81 39.32 41.84 39.42 41.86C39.79 41.93 40.08 41.99 40.36 42.04C40.36 41.96 40.38 41.89 40.45 41.82L40.49 41.78L40.56 41.8C40.65 41.82 40.75 41.84 40.85 41.84C41.33 41.84 41.79 41.52 41.82 41.15L41.82 41.12L41.85 41.1C42.5 40.62 43.18 40.06 43.92 39.4C44.36 39.01 44.83 38.6 45.28 38.15L45.3 38.12L45.34 38.12C46.04 38.03 46.77 38.07 47.45 38.22C47.7 38.27 48.05 38.38 48.16 38.63C48.22 38.74 48.21 38.85 48.21 38.96C48.21 39.06 48.21 39.14 48.24 39.22C48.3 39.38 48.51 39.49 48.88 39.57C49.86 39.78 50.91 39.79 51.88 39.59L51.96 39.58L52.64 40.78L52.47 40.78C51.46 40.73 50.41 41.01 49.63 41.53C49.5 41.62 49.35 41.73 49.31 41.87C49.23 42.11 49.5 42.36 49.8 42.44C50.08 42.51 50.44 42.48 50.84 42.42L50.89 42.41L50.93 42.45C51.49 43.05 51.61 43.89 51.23 44.58L51.21 44.57ZM43.41 38.46C43.33 38.34 43.22 38.24 43.13 38.16L43.28 38.06C43.41 38.18 43.51 38.28 43.58 38.38L43.41 38.46Z" fill="#FFFFFF" fill-opacity="1.000000" fill-rule="nonzero"/>
	<path id="Vector" d="M22.71 36.75C22.58 36.98 22.48 37.23 22.27 37.42C22.01 37.64 21.63 37.75 21.39 37.99C21.05 38.32 21.07 38.83 20.72 39.16C20.51 39.35 20.19 39.45 19.98 39.65C19.65 39.94 19.62 40.38 19.79 40.74C19.96 41.11 20.29 41.4 20.64 41.67C20.88 41.86 21.15 42.07 21.18 42.34C21.21 42.57 21.05 42.83 21.2 43.03C21.26 43.11 21.37 43.17 21.48 43.23C22.33 43.66 23.18 44.09 24.02 44.52C24.08 44.97 24.16 45.47 24.59 45.75C24.87 45.94 25.25 45.99 25.58 46.13C25.81 46.23 26.01 46.36 26.25 46.44C26.62 46.56 27.03 46.56 27.44 46.55C28.41 46.53 29.38 46.5 30.35 46.48C31.15 46.47 32.01 46.43 32.61 46C32.82 45.86 32.99 45.66 33.26 45.58C33.43 45.52 33.61 45.53 33.79 45.53C34.17 45.53 34.56 45.54 34.94 45.55C35.08 45.55 35.23 45.55 35.35 45.49C35.44 45.45 35.5 45.38 35.59 45.34C35.81 45.23 36.09 45.32 36.32 45.4C37.1 45.69 37.89 45.99 38.68 46.28C38.93 45.81 39.12 45.32 39.23 44.82C39.29 44.54 39.34 44.24 39.58 44.03C39.88 43.77 40.36 43.74 40.78 43.64C41.2 43.53 41.63 43.2 41.47 42.87C41.36 42.65 41.05 42.56 40.79 42.43C40.65 42.37 40.52 42.25 40.46 42.12C40.1 42.06 39.74 41.99 39.38 41.91C39.25 41.89 39.12 41.86 39.02 41.79C38.89 41.7 38.85 41.57 38.87 41.43C38.87 41.43 38.87 41.43 38.87 41.43C38.6 41.43 38.31 41.43 38.09 41.32C37.69 41.12 37.65 40.67 37.65 40.29C37.65 39.53 37.65 38.77 37.65 38C37.65 37.83 37.65 37.66 37.57 37.51C37.5 37.38 37.38 37.26 37.27 37.16C36.9 36.82 36.54 36.47 36.18 36.12C36.06 36.01 35.93 35.89 35.9 35.75C35.86 35.6 35.91 35.45 35.91 35.3C35.93 34.67 35.17 34.23 34.49 33.91C34.4 33.86 34.31 33.82 34.22 33.78C33.95 33.91 33.69 34.06 33.42 34.2C32.65 34.6 31.8 34.85 30.95 35.11C30.3 35.31 29.6 35.51 28.91 35.4C28.21 35.28 27.65 34.85 26.97 34.66C26.57 34.55 26.15 34.54 25.74 34.45C25.53 34.41 25.33 34.35 25.13 34.28C24.17 35 23.23 35.77 22.71 36.73L22.71 36.75Z" fill="#FF5A57" fill-opacity="1.000000" fill-rule="nonzero"/>
	<path id="Vector" d="M27.13 46.63C26.85 46.63 26.51 46.61 26.21 46.5C26.07 46.46 25.94 46.39 25.81 46.33C25.72 46.28 25.63 46.24 25.54 46.19C25.42 46.15 25.3 46.11 25.17 46.07C24.95 46 24.72 45.94 24.53 45.81C24.1 45.52 23.99 45.04 23.93 44.56L21.42 43.29C21.32 43.24 21.19 43.17 21.11 43.06C21 42.91 21.03 42.75 21.07 42.59C21.08 42.5 21.1 42.42 21.09 42.35C21.07 42.1 20.82 41.91 20.59 41.73C20.24 41.45 19.89 41.15 19.71 40.76C19.51 40.34 19.6 39.87 19.92 39.59C20.03 39.49 20.17 39.41 20.3 39.34C20.43 39.26 20.56 39.19 20.66 39.1C20.82 38.95 20.9 38.75 20.99 38.53C21.07 38.32 21.16 38.11 21.33 37.93C21.47 37.8 21.64 37.71 21.81 37.62C21.96 37.53 22.1 37.46 22.22 37.36C22.38 37.22 22.47 37.03 22.57 36.84C22.59 36.79 22.62 36.75 22.64 36.71C23.18 35.7 24.18 34.9 25.08 34.23L25.13 34.2L25.19 34.22C25.39 34.29 25.59 34.35 25.78 34.39C25.94 34.42 26.11 34.44 26.27 34.46C26.52 34.49 26.78 34.53 27.02 34.6C27.32 34.68 27.61 34.82 27.89 34.94C28.24 35.11 28.57 35.27 28.94 35.33C29.07 35.35 29.21 35.36 29.34 35.36C29.9 35.36 30.47 35.19 30.93 35.04C31.76 34.79 32.62 34.53 33.38 34.14C33.49 34.08 33.6 34.02 33.71 33.96C33.86 33.88 34.02 33.8 34.18 33.72L34.24 33.69L34.56 33.84C35.26 34.17 36.06 34.63 36.04 35.3C36.04 35.36 36.03 35.41 36.02 35.46C36.01 35.56 35.99 35.65 36.02 35.73C36.05 35.86 36.18 35.97 36.28 36.07L37.37 37.11C37.49 37.22 37.61 37.34 37.68 37.49C37.77 37.65 37.77 37.84 37.77 38L37.77 40.3C37.77 40.67 37.82 41.08 38.17 41.25C38.34 41.34 38.56 41.35 38.77 41.35L39 41.35L39 41.43C38.98 41.57 39.03 41.66 39.12 41.73C39.21 41.79 39.33 41.81 39.44 41.83C39.87 41.92 40.2 41.99 40.51 42.04L40.57 42.05L40.59 42.09C40.63 42.2 40.74 42.3 40.87 42.37C40.92 42.39 40.98 42.42 41.04 42.44C41.26 42.54 41.49 42.64 41.59 42.84C41.65 42.97 41.64 43.1 41.57 43.24C41.45 43.44 41.16 43.63 40.83 43.71C40.72 43.74 40.61 43.76 40.49 43.78C40.17 43.85 39.87 43.91 39.67 44.09C39.47 44.26 39.42 44.52 39.36 44.77L39.35 44.83C39.24 45.33 39.05 45.83 38.79 46.3L38.75 46.38L36.3 45.47C36.08 45.39 35.82 45.32 35.66 45.4C35.62 45.42 35.59 45.44 35.56 45.47C35.52 45.5 35.47 45.53 35.42 45.55C35.29 45.61 35.16 45.61 35.04 45.61L33.69 45.59C33.58 45.59 33.44 45.59 33.32 45.63C33.15 45.69 33.02 45.79 32.88 45.9C32.82 45.95 32.77 46 32.7 46.05C32.1 46.47 31.26 46.53 30.38 46.55L27.47 46.61C27.37 46.61 27.27 46.61 27.17 46.61L27.13 46.63ZM25.15 34.39C24.27 35.04 23.31 35.82 22.8 36.78C22.78 36.82 22.76 36.86 22.74 36.91C22.63 37.11 22.53 37.31 22.35 37.47C22.22 37.59 22.06 37.68 21.91 37.76C21.75 37.85 21.59 37.93 21.48 38.04C21.32 38.2 21.25 38.39 21.16 38.59C21.08 38.81 20.99 39.04 20.8 39.21C20.68 39.31 20.54 39.39 20.41 39.47C20.28 39.55 20.15 39.61 20.05 39.7C19.78 39.94 19.71 40.34 19.89 40.72C20.05 41.07 20.38 41.36 20.71 41.62C20.97 41.82 21.26 42.04 21.28 42.34C21.29 42.44 21.27 42.54 21.26 42.62C21.23 42.76 21.2 42.89 21.28 42.99C21.33 43.07 21.44 43.12 21.53 43.17L24.12 44.49L24.12 44.52C24.18 44.98 24.27 45.43 24.66 45.7C24.83 45.81 25.04 45.87 25.25 45.94C25.38 45.97 25.51 46.01 25.64 46.07C25.74 46.11 25.83 46.16 25.93 46.2C26.06 46.27 26.17 46.33 26.3 46.37C26.58 46.46 26.89 46.48 27.15 46.48C27.25 46.48 27.34 46.48 27.44 46.48L30.36 46.42C31.2 46.39 31.99 46.35 32.55 45.96C32.61 45.91 32.67 45.87 32.73 45.82C32.88 45.7 33.03 45.58 33.24 45.51C33.39 45.47 33.54 45.46 33.68 45.46L35.03 45.48C35.12 45.48 35.23 45.48 35.31 45.44C35.34 45.42 35.38 45.4 35.41 45.37C35.45 45.34 35.5 45.31 35.55 45.29C35.63 45.25 35.73 45.22 35.84 45.22C36.02 45.22 36.21 45.29 36.37 45.35L38.64 46.19C38.87 45.75 39.05 45.29 39.15 44.83L39.16 44.77C39.22 44.49 39.28 44.21 39.52 44C39.76 43.79 40.11 43.72 40.43 43.65C40.55 43.63 40.66 43.61 40.76 43.58C41.03 43.51 41.28 43.35 41.38 43.19C41.43 43.09 41.43 43 41.4 42.92C41.32 42.77 41.13 42.69 40.93 42.6C40.87 42.57 40.81 42.55 40.75 42.52C40.6 42.45 40.47 42.32 40.4 42.2C40.1 42.15 39.78 42.09 39.37 42.01C39.25 41.98 39.1 41.95 38.98 41.87C38.86 41.79 38.8 41.67 38.79 41.53L38.76 41.53C38.51 41.53 38.27 41.51 38.05 41.41C37.62 41.19 37.56 40.73 37.56 40.32L37.56 38.02C37.56 37.86 37.56 37.7 37.49 37.56C37.43 37.44 37.32 37.34 37.21 37.23L36.12 36.2C36 36.09 35.86 35.96 35.82 35.79C35.79 35.68 35.8 35.57 35.82 35.47C35.82 35.42 35.83 35.38 35.83 35.33C35.85 34.74 35.1 34.31 34.45 34.01L34.23 33.9C34.09 33.97 33.95 34.05 33.81 34.12C33.7 34.18 33.6 34.24 33.48 34.3C32.71 34.7 31.84 34.96 31 35.21C30.52 35.36 29.92 35.54 29.34 35.54C29.19 35.54 29.04 35.53 28.9 35.5C28.49 35.43 28.13 35.27 27.79 35.1C27.52 34.98 27.25 34.84 26.95 34.77C26.72 34.7 26.47 34.67 26.23 34.64C26.07 34.62 25.9 34.59 25.73 34.56C25.54 34.52 25.35 34.47 25.15 34.4L25.15 34.39Z" fill="#FFFFFF" fill-opacity="1.000000" fill-rule="nonzero"/>
	<path id="Vector" d="M13.93 29.58C13.15 29.12 11.93 29.27 11.31 28.67C11.19 28.56 11.11 28.43 10.97 28.33C10.76 28.19 10.47 28.17 10.2 28.12C9.11 27.93 8.26 27.26 7.33 26.76C6.83 26.5 6.22 26.27 5.64 26.43C5.36 26.51 5.13 26.67 4.88 26.8C4.46 27.03 3.97 27.19 3.46 27.25C3.12 27.29 2.77 27.29 2.44 27.35C1.75 27.47 1.17 27.84 0.61 28.2C0.39 28.34 0.15 28.5 0.11 28.73C0.07 28.91 0.17 29.1 0.3 29.27C0.64 29.75 1.13 30.2 1.16 30.75C1.17 30.94 1.13 31.14 1.17 31.32C1.23 31.54 1.41 31.72 1.58 31.9C1.98 32.3 2.41 32.72 2.98 32.96C3.95 33.37 5.26 33.16 5.96 32.48C6.09 32.35 6.2 32.2 6.38 32.13C6.66 32 7.01 32.08 7.28 32.21C7.55 32.35 7.77 32.55 8.02 32.7C8.89 33.2 10.05 33.09 11.15 33.13C11.36 32.76 11.61 32.39 12.01 32.16C12.29 32 12.62 31.92 12.92 31.8C13.55 31.55 14.07 31.16 14.7 30.9C14.77 30.87 14.85 30.84 14.93 30.82C14.65 30.37 14.42 29.87 13.92 29.58L13.93 29.58Z" fill="#FF5A57" fill-opacity="1.000000" fill-rule="nonzero"/>
	<path id="Vector" d="M4.06 33.25C3.66 33.25 3.27 33.18 2.94 33.04C2.32 32.78 1.87 32.32 1.51 31.95C1.34 31.79 1.15 31.59 1.08 31.34C1.05 31.21 1.06 31.09 1.06 30.97C1.06 30.9 1.07 30.83 1.06 30.75C1.04 30.35 0.75 30 0.47 29.65C0.38 29.54 0.29 29.43 0.21 29.31C0.09 29.15 -0.04 28.94 0 28.71C0.06 28.45 0.35 28.26 0.54 28.14C1.08 27.8 1.68 27.41 2.41 27.27C2.61 27.24 2.82 27.22 3.03 27.21C3.17 27.2 3.3 27.19 3.44 27.17C3.93 27.12 4.41 26.96 4.83 26.74C4.88 26.71 4.94 26.67 5 26.64C5.18 26.53 5.38 26.42 5.6 26.35C6.1 26.22 6.68 26.33 7.38 26.7C7.63 26.83 7.88 26.98 8.11 27.12C8.76 27.51 9.43 27.91 10.22 28.05C10.26 28.06 10.31 28.07 10.36 28.07C10.59 28.11 10.84 28.14 11.03 28.28C11.12 28.34 11.2 28.42 11.27 28.5C11.3 28.55 11.34 28.58 11.38 28.62C11.7 28.93 12.19 29.03 12.72 29.13C13.16 29.21 13.61 29.29 13.97 29.51C14.4 29.77 14.64 30.16 14.87 30.55C14.92 30.62 14.96 30.7 15.01 30.78L15.06 30.85L14.92 30.9C14.85 30.92 14.79 30.94 14.72 30.97C14.42 31.09 14.13 31.24 13.86 31.4C13.57 31.57 13.27 31.73 12.95 31.86C12.85 31.9 12.74 31.93 12.64 31.97C12.42 32.05 12.23 32.11 12.04 32.21C11.65 32.44 11.41 32.79 11.21 33.15L11.18 33.19L11.12 33.19C10.9 33.18 10.68 33.18 10.46 33.18C9.57 33.17 8.66 33.16 7.94 32.75C7.82 32.68 7.71 32.6 7.6 32.52C7.47 32.43 7.35 32.34 7.2 32.27C6.93 32.12 6.62 32.09 6.4 32.18C6.28 32.24 6.18 32.34 6.08 32.44C6.05 32.46 6.03 32.49 6 32.51C5.54 32.97 4.81 33.24 4.04 33.24L4.06 33.25ZM6.03 26.45C5.91 26.45 5.79 26.47 5.67 26.5C5.48 26.55 5.31 26.65 5.13 26.76C5.07 26.8 5.01 26.83 4.94 26.87C4.51 27.11 4 27.27 3.47 27.33C3.34 27.34 3.19 27.35 3.05 27.36C2.85 27.38 2.65 27.39 2.45 27.43C1.77 27.55 1.18 27.93 0.66 28.26C0.44 28.4 0.24 28.55 0.19 28.74C0.16 28.91 0.27 29.09 0.37 29.24C0.45 29.35 0.54 29.46 0.62 29.56C0.92 29.93 1.22 30.31 1.25 30.75C1.25 30.82 1.25 30.9 1.25 30.97C1.25 31.09 1.23 31.2 1.26 31.3C1.31 31.51 1.49 31.69 1.64 31.85C2 32.2 2.44 32.65 3.02 32.89C3.32 33.03 3.68 33.09 4.05 33.09C4.76 33.09 5.44 32.85 5.86 32.43C5.89 32.4 5.92 32.38 5.94 32.36C6.04 32.25 6.15 32.13 6.31 32.06C6.59 31.94 6.98 31.98 7.31 32.15C7.46 32.23 7.6 32.32 7.73 32.42C7.84 32.49 7.94 32.57 8.05 32.64C8.73 33.03 9.57 33.03 10.46 33.04C10.66 33.04 10.86 33.04 11.06 33.05C11.27 32.69 11.52 32.33 11.93 32.1C12.12 31.99 12.34 31.91 12.55 31.83C12.65 31.8 12.76 31.77 12.85 31.73C13.17 31.61 13.46 31.44 13.74 31.28C14.02 31.12 14.31 30.96 14.62 30.83C14.67 30.81 14.72 30.8 14.77 30.78C14.74 30.73 14.72 30.68 14.68 30.63C14.46 30.26 14.23 29.88 13.84 29.65C13.51 29.45 13.08 29.37 12.66 29.29C12.13 29.18 11.57 29.08 11.21 28.73C11.18 28.69 11.14 28.65 11.1 28.6C11.03 28.53 10.97 28.46 10.89 28.4C10.73 28.3 10.53 28.27 10.31 28.23C10.25 28.23 10.21 28.22 10.16 28.21C9.34 28.06 8.65 27.65 7.99 27.25C7.75 27.11 7.5 26.96 7.26 26.84C6.79 26.58 6.38 26.46 6.02 26.46L6.03 26.45Z" fill="#FFFFFF" fill-opacity="1.000000" fill-rule="nonzero"/>
	<path id="Vector" d="M26.19 23.23C26.24 22.59 26.97 21.98 26.64 21.4C26.54 21.21 26.32 21.04 26.34 20.84C26.37 20.53 26.86 20.42 27.15 20.21C27.52 19.94 27.51 19.41 27.15 19.15C26.92 18.98 26.56 18.89 26.49 18.64C26.46 18.56 26.48 18.47 26.5 18.38C26.59 17.97 26.64 17.44 26.19 17.25C25.99 17.17 25.76 17.18 25.55 17.13C25.27 17.05 25.06 16.85 24.83 16.7C24.25 16.34 23.47 16.31 22.74 16.3C22.24 16.29 21.74 16.28 21.24 16.27C21.04 16.27 20.82 16.26 20.64 16.18C20.52 16.13 20.41 16.05 20.31 15.96C20.23 15.88 20.16 15.8 20.09 15.72C20.07 15.72 20.07 15.73 20.05 15.74C19.98 15.75 19.9 15.73 19.84 15.71C19.37 15.55 19.07 15.19 18.69 14.92C18.32 14.65 17.72 14.48 17.32 14.72C17.17 14.82 17.07 14.98 16.98 15.12C16.68 15.66 16.44 16.22 16.28 16.79C16.06 17.04 15.54 16.95 15.3 16.71C15.07 16.47 15.02 16.15 14.94 15.86C14.85 15.56 14.68 15.24 14.34 15.12C13.87 14.97 13.38 15.24 12.89 15.36C12.34 15.48 11.76 15.38 11.19 15.41C10.22 15.45 9.29 15.88 8.75 16.53C8.61 16.69 8.5 16.87 8.32 17.01C7.56 17.59 6.27 17.09 5.27 17.36C5.4 17.62 5.27 17.95 4.98 18.1C4.82 18.18 4.62 18.19 4.43 18.16C4.26 18.62 4.13 19.07 4.31 19.51C4.41 19.78 4.63 20.04 4.58 20.32C4.54 20.47 4.43 20.62 4.38 20.77C4.25 21.22 4.71 21.62 4.97 22.04C5.18 22.39 5.26 22.78 5.33 23.17C5.48 24 5.64 24.83 5.79 25.66C5.83 25.9 5.88 26.15 5.94 26.39C6.43 26.36 6.93 26.55 7.35 26.78C8.28 27.27 9.12 27.95 10.22 28.14C10.48 28.19 10.77 28.21 10.99 28.35C11.12 28.44 11.21 28.58 11.33 28.69C11.94 29.28 13.16 29.13 13.94 29.59C14.43 29.89 14.66 30.38 14.95 30.83C15.8 30.54 16.75 30.52 17.68 30.6C18.68 30.68 19.67 30.87 20.67 30.93C21.38 30.97 22.2 30.98 22.64 31.42C23.16 31.5 23.67 31.64 24.16 31.82C24.16 31.33 23.92 30.79 24.16 30.33C24.43 29.79 25.21 29.58 25.7 29.16C26.26 28.67 26.48 28.13 27.23 27.85C27.72 27.66 28.3 27.37 28.22 26.94C28.11 26.31 26.72 26.17 26.78 25.54C26.78 25.43 26.84 25.32 26.9 25.22C27 25.04 27.13 24.87 27.26 24.69C26.66 24.31 26.15 23.83 26.2 23.24L26.19 23.23Z" fill="#FF5A57" fill-opacity="1.000000" fill-rule="nonzero"/>
	<path id="Vector" d="M24.23 31.94L24.1 31.89C23.6 31.7 23.1 31.57 22.61 31.49L22.57 31.49L22.55 31.47C22.16 31.08 21.47 31.04 20.8 31.01L20.65 31C20.09 30.96 19.53 30.89 18.99 30.82C18.55 30.76 18.1 30.7 17.65 30.66C16.56 30.57 15.7 30.65 14.97 30.89L14.89 30.92L14.85 30.85C14.8 30.78 14.76 30.7 14.71 30.63C14.49 30.26 14.26 29.88 13.87 29.65C13.54 29.45 13.11 29.37 12.69 29.29C12.16 29.18 11.6 29.08 11.24 28.73C11.2 28.69 11.16 28.64 11.12 28.6C11.06 28.53 10.99 28.46 10.91 28.4C10.76 28.3 10.55 28.27 10.33 28.23C10.28 28.23 10.23 28.22 10.19 28.21C9.37 28.06 8.68 27.65 8.01 27.25C7.78 27.11 7.53 26.96 7.29 26.84C6.77 26.56 6.34 26.44 5.94 26.47L5.86 26.47L5.84 26.4C5.78 26.18 5.73 25.94 5.67 25.67L5.22 23.17C5.15 22.8 5.08 22.41 4.86 22.07C4.8 21.97 4.72 21.86 4.65 21.75C4.41 21.44 4.17 21.11 4.27 20.75C4.3 20.67 4.33 20.6 4.37 20.53C4.41 20.45 4.45 20.37 4.47 20.29C4.5 20.12 4.41 19.95 4.32 19.77C4.28 19.69 4.24 19.61 4.2 19.53C4.02 19.05 4.16 18.58 4.32 18.13L4.35 18.06L4.44 18.08C4.61 18.11 4.79 18.09 4.92 18.02C5.17 17.9 5.28 17.61 5.17 17.39L5.13 17.31L5.23 17.28C5.46 17.22 5.73 17.19 6.06 17.19C6.24 17.19 6.43 17.2 6.61 17.21C6.79 17.22 6.96 17.22 7.13 17.22C7.5 17.22 7.92 17.19 8.24 16.94C8.37 16.85 8.46 16.73 8.56 16.61C8.59 16.56 8.63 16.52 8.66 16.48C9.22 15.81 10.18 15.37 11.18 15.33C11.38 15.32 11.59 15.33 11.8 15.33C11.93 15.33 12.06 15.34 12.19 15.34C12.47 15.34 12.68 15.32 12.86 15.28C12.99 15.24 13.13 15.2 13.26 15.16C13.51 15.08 13.78 14.99 14.04 14.99C14.15 14.99 14.27 15.01 14.37 15.04C14.69 15.15 14.91 15.41 15.03 15.83C15.04 15.88 15.06 15.94 15.08 15.99C15.14 16.24 15.2 16.47 15.38 16.65C15.49 16.77 15.7 16.85 15.89 16.85C15.98 16.85 16.09 16.84 16.18 16.75C16.34 16.18 16.58 15.62 16.88 15.09C16.98 14.93 17.07 14.77 17.26 14.66C17.4 14.57 17.58 14.52 17.77 14.52C18.09 14.52 18.46 14.65 18.75 14.86C18.88 14.95 19 15.04 19.11 15.14C19.35 15.34 19.57 15.53 19.87 15.63C19.91 15.65 19.96 15.67 20.01 15.67C20.01 15.67 20.03 15.66 20.05 15.65L20.12 15.63L20.23 15.75C20.28 15.8 20.33 15.86 20.39 15.9C20.47 15.98 20.57 16.06 20.69 16.11C20.85 16.18 21.06 16.18 21.24 16.19L22.74 16.22C23.57 16.24 24.31 16.28 24.89 16.64C24.97 16.68 25.03 16.74 25.1 16.79C25.25 16.9 25.4 17.01 25.58 17.05C25.66 17.07 25.75 17.08 25.84 17.09C25.97 17.11 26.11 17.13 26.23 17.18C26.76 17.4 26.7 17.98 26.6 18.39C26.58 18.48 26.57 18.56 26.59 18.63C26.63 18.77 26.79 18.85 26.96 18.94C27.05 18.99 27.14 19.03 27.22 19.09C27.42 19.24 27.53 19.45 27.53 19.68C27.53 19.92 27.42 20.13 27.22 20.27C27.12 20.34 27 20.41 26.89 20.46C26.66 20.57 26.46 20.67 26.45 20.85C26.44 20.96 26.52 21.07 26.61 21.18C26.66 21.24 26.7 21.3 26.74 21.36C26.96 21.74 26.76 22.13 26.57 22.51C26.44 22.75 26.32 22.99 26.3 23.24C26.26 23.7 26.59 24.14 27.32 24.62L27.38 24.66L27.34 24.72C27.2 24.9 27.08 25.08 26.98 25.24C26.93 25.35 26.87 25.44 26.87 25.53C26.84 25.81 27.17 25.99 27.53 26.18C27.89 26.38 28.26 26.58 28.32 26.92C28.38 27.3 28.03 27.63 27.27 27.91C26.79 28.09 26.55 28.37 26.26 28.7C26.11 28.87 25.96 29.04 25.76 29.21C25.57 29.38 25.33 29.51 25.1 29.64C24.74 29.85 24.4 30.04 24.24 30.35C24.1 30.63 24.14 30.95 24.2 31.29C24.22 31.46 24.25 31.64 24.25 31.82L24.25 31.94L24.23 31.94ZM22.67 31.34C23.12 31.41 23.58 31.53 24.03 31.69C24.03 31.57 24.01 31.43 23.99 31.3C23.93 30.96 23.88 30.61 24.04 30.28C24.22 29.94 24.61 29.72 24.98 29.51C25.2 29.38 25.43 29.25 25.61 29.1C25.8 28.93 25.94 28.77 26.08 28.6C26.38 28.27 26.65 27.96 27.17 27.76C27.85 27.51 28.16 27.24 28.11 26.94C28.06 26.67 27.74 26.5 27.41 26.31C27.03 26.11 26.63 25.89 26.66 25.52C26.68 25.39 26.74 25.27 26.8 25.18C26.89 25.02 27 24.86 27.12 24.7C26.63 24.37 26.04 23.87 26.1 23.22C26.12 22.96 26.25 22.7 26.38 22.45C26.56 22.09 26.74 21.75 26.56 21.43C26.53 21.37 26.49 21.32 26.44 21.26C26.34 21.13 26.24 21 26.25 20.83C26.27 20.58 26.53 20.45 26.79 20.32C26.89 20.27 27 20.21 27.09 20.15C27.25 20.04 27.33 19.87 27.33 19.68C27.33 19.49 27.24 19.31 27.08 19.2C27.02 19.16 26.93 19.11 26.85 19.07C26.65 18.96 26.45 18.86 26.39 18.66C26.36 18.56 26.38 18.46 26.4 18.36C26.53 17.77 26.45 17.44 26.14 17.32C26.04 17.27 25.93 17.26 25.8 17.25C25.7 17.24 25.6 17.23 25.5 17.2C25.29 17.14 25.12 17.02 24.96 16.9C24.89 16.85 24.82 16.8 24.75 16.76C24.22 16.43 23.52 16.39 22.73 16.37L21.22 16.34C21.02 16.34 20.78 16.33 20.58 16.25C20.44 16.18 20.32 16.09 20.23 16C20.17 15.95 20.12 15.89 20.07 15.84L20.04 15.81C19.94 15.82 19.85 15.8 19.79 15.77C19.45 15.66 19.2 15.45 18.96 15.24C18.85 15.15 18.74 15.05 18.62 14.97C18.37 14.78 18.04 14.67 17.77 14.67C17.62 14.67 17.49 14.71 17.38 14.78C17.24 14.86 17.15 15.01 17.07 15.14C16.77 15.67 16.53 16.23 16.37 16.8L16.35 16.83C16.24 16.95 16.08 17.01 15.89 17.01C15.64 17.01 15.38 16.91 15.22 16.75C15.01 16.54 14.94 16.28 14.88 16.02C14.87 15.97 14.85 15.91 14.84 15.86C14.74 15.5 14.55 15.27 14.3 15.19C14.02 15.1 13.68 15.19 13.34 15.3C13.2 15.34 13.06 15.39 12.92 15.42C12.71 15.47 12.49 15.49 12.19 15.49C12.06 15.49 11.93 15.49 11.8 15.48C11.59 15.48 11.39 15.47 11.19 15.48C10.25 15.52 9.35 15.94 8.82 16.56C8.79 16.6 8.75 16.65 8.72 16.69C8.62 16.82 8.52 16.95 8.38 17.05C8.01 17.34 7.54 17.37 7.13 17.37C6.96 17.37 6.78 17.36 6.6 17.36C6.43 17.35 6.24 17.34 6.07 17.34C5.8 17.34 5.58 17.36 5.39 17.41C5.47 17.68 5.32 18 5.02 18.15C4.87 18.23 4.68 18.26 4.49 18.24C4.35 18.64 4.23 19.07 4.39 19.48C4.43 19.55 4.46 19.63 4.5 19.7C4.6 19.89 4.7 20.09 4.66 20.31C4.64 20.41 4.6 20.5 4.55 20.58C4.52 20.65 4.49 20.71 4.47 20.77C4.38 21.07 4.59 21.36 4.82 21.67C4.9 21.77 4.98 21.88 5.05 21.99C5.27 22.35 5.35 22.75 5.42 23.14L5.88 25.63C5.92 25.87 5.97 26.09 6.02 26.29C6.03 26.29 6.04 26.29 6.05 26.29C6.46 26.29 6.9 26.43 7.4 26.69C7.65 26.83 7.9 26.97 8.13 27.12C8.78 27.51 9.45 27.91 10.23 28.04C10.28 28.05 10.33 28.06 10.38 28.06C10.61 28.1 10.86 28.14 11.04 28.27C11.14 28.34 11.21 28.42 11.29 28.5C11.32 28.54 11.36 28.58 11.4 28.61C11.72 28.92 12.21 29.02 12.74 29.12C13.18 29.2 13.63 29.29 13.99 29.5C14.42 29.76 14.66 30.16 14.89 30.54C14.92 30.6 14.96 30.65 14.99 30.7C15.73 30.47 16.6 30.4 17.68 30.49C18.13 30.53 18.58 30.58 19.02 30.64C19.56 30.71 20.12 30.78 20.67 30.82L20.82 30.83C21.48 30.86 22.24 30.9 22.68 31.32L22.67 31.34Z" fill="#FFFFFF" fill-opacity="1.000000" fill-rule="nonzero"/>
	<path id="Vector" d="M33.29 11.87C33.17 11.59 33.12 11.28 32.85 11.08C32.51 10.82 31.98 10.87 31.51 10.87C31.05 10.87 30.47 10.69 30.45 10.31C28.99 10.02 27.47 9.92 25.97 10.01C25.17 10.05 24.38 10.16 23.57 10.2C22.35 10.26 21.12 10.19 19.94 9.97C19.87 10.11 19.84 10.24 19.9 10.38C20.02 10.68 20.45 10.82 20.71 11.06C21.07 11.39 21.08 11.88 20.9 12.28C20.86 12.36 20.82 12.43 20.77 12.51C21 12.57 21.2 12.66 21.37 12.8C21.58 13 21.68 13.27 21.89 13.46C22.49 14.02 23.68 13.79 24.42 14.23C24.86 14.5 25.06 14.95 25.22 15.38C25.29 15.57 25.37 15.77 25.4 15.97C25.43 16.18 25.41 16.4 25.42 16.62C25.42 16.78 25.46 16.95 25.51 17.11C25.51 17.11 25.52 17.11 25.53 17.12C25.74 17.17 25.97 17.16 26.17 17.24C26.4 17.34 26.51 17.53 26.53 17.74C26.91 17.61 27.32 17.56 27.71 17.66C28.15 17.77 28.63 18.04 29.02 17.84C29.37 17.65 29.36 17.14 29.75 17C30.14 16.86 30.77 17.14 30.96 16.82C31.03 16.68 30.94 16.5 31.02 16.36C31.13 16.18 31.46 16.18 31.65 16.05C31.91 15.87 31.81 15.54 31.88 15.27C32.1 14.46 33.76 14.42 34.08 13.63C34.2 13.34 34.1 13.03 34.08 12.73C33.72 12.51 33.43 12.2 33.28 11.86L33.29 11.87Z" fill="#FF5A57" fill-opacity="1.000000" fill-rule="nonzero"/>
	<path id="Vector" d="M28.7 18C28.47 18 28.24 17.92 28.02 17.84C27.9 17.81 27.79 17.77 27.68 17.74C27.34 17.66 26.95 17.69 26.58 17.83L26.45 17.87L26.44 17.76C26.42 17.53 26.31 17.39 26.13 17.32C26.03 17.27 25.92 17.26 25.8 17.25C25.7 17.24 25.59 17.23 25.49 17.2L25.42 17.17L25.42 17.13C25.35 16.94 25.32 16.77 25.32 16.63C25.32 16.54 25.32 16.46 25.32 16.37C25.32 16.24 25.32 16.1 25.3 15.98C25.27 15.79 25.19 15.59 25.12 15.41C24.94 14.94 24.76 14.53 24.36 14.3C24.04 14.11 23.61 14.05 23.2 13.99C22.69 13.92 22.16 13.84 21.82 13.52C21.7 13.42 21.62 13.29 21.54 13.17C21.46 13.06 21.39 12.95 21.29 12.86C21.16 12.74 20.98 12.65 20.75 12.59L20.63 12.56L20.69 12.48C20.74 12.4 20.78 12.33 20.81 12.26C21 11.84 20.93 11.39 20.64 11.12C20.55 11.04 20.44 10.97 20.32 10.9C20.11 10.76 19.89 10.63 19.8 10.41C19.75 10.26 19.76 10.11 19.84 9.95L19.87 9.88L19.95 9.9C21.13 10.11 22.36 10.18 23.56 10.12C23.98 10.1 24.4 10.06 24.82 10.02C25.19 9.98 25.58 9.95 25.96 9.93C27.47 9.84 29 9.94 30.47 10.23L30.54 10.25L30.54 10.31C30.56 10.65 31.14 10.78 31.5 10.79L31.56 10.79L31.89 10.79C32.23 10.79 32.62 10.8 32.9 11.01C33.12 11.18 33.21 11.41 33.29 11.64C33.31 11.71 33.33 11.78 33.37 11.85C33.5 12.17 33.77 12.47 34.13 12.68L34.17 12.7L34.17 12.74C34.18 12.82 34.19 12.9 34.2 12.98C34.23 13.21 34.25 13.44 34.17 13.66C34 14.08 33.5 14.3 33.02 14.51C32.54 14.72 32.07 14.92 31.97 15.3C31.96 15.38 31.95 15.47 31.94 15.56C31.93 15.77 31.92 15.98 31.71 16.13C31.62 16.19 31.5 16.22 31.39 16.25C31.26 16.29 31.15 16.33 31.1 16.4C31.07 16.45 31.07 16.52 31.07 16.59C31.07 16.68 31.08 16.77 31.03 16.86C30.93 17.04 30.71 17.06 30.55 17.06C30.47 17.06 30.39 17.06 30.3 17.05C30.1 17.04 29.89 17.03 29.77 17.08C29.6 17.14 29.52 17.3 29.43 17.46C29.34 17.63 29.25 17.81 29.05 17.91C28.94 17.97 28.82 18 28.69 18L28.7 18ZM27.29 17.54C27.45 17.54 27.6 17.55 27.75 17.59C27.87 17.62 27.98 17.66 28.09 17.7C28.41 17.8 28.75 17.9 28.97 17.78C29.12 17.7 29.19 17.55 29.28 17.4C29.37 17.21 29.48 17.02 29.72 16.93C29.82 16.89 29.92 16.87 30.07 16.87C30.16 16.87 30.25 16.88 30.34 16.88C30.42 16.89 30.51 16.9 30.58 16.9C30.75 16.9 30.83 16.86 30.88 16.78C30.91 16.73 30.9 16.66 30.9 16.59C30.9 16.51 30.9 16.4 30.95 16.32C31.03 16.18 31.2 16.13 31.35 16.09C31.45 16.06 31.54 16.03 31.6 15.99C31.75 15.89 31.76 15.72 31.77 15.54C31.77 15.44 31.78 15.35 31.81 15.25C31.92 14.8 32.45 14.57 32.95 14.35C33.42 14.14 33.86 13.95 34 13.6C34.08 13.4 34.05 13.19 34.02 12.97C34.01 12.9 34 12.84 33.99 12.76C33.63 12.53 33.35 12.21 33.2 11.87C33.18 11.8 33.15 11.73 33.12 11.66C33.05 11.44 32.97 11.24 32.79 11.11C32.56 10.93 32.22 10.92 31.91 10.92L31.58 10.92L31.52 10.92C30.99 10.92 30.44 10.72 30.37 10.35C28.95 10.07 27.45 9.97 25.99 10.06C25.61 10.08 25.23 10.12 24.85 10.15C24.44 10.19 24.01 10.23 23.59 10.25C22.4 10.32 21.19 10.24 20.01 10.04C19.97 10.15 19.97 10.24 20.01 10.33C20.08 10.5 20.27 10.62 20.46 10.74C20.58 10.82 20.71 10.9 20.81 10.99C21.15 11.3 21.24 11.81 21.02 12.29C20.99 12.34 20.97 12.39 20.93 12.44C21.15 12.51 21.33 12.6 21.46 12.73C21.57 12.84 21.66 12.96 21.74 13.07C21.82 13.19 21.89 13.3 21.99 13.39C22.3 13.67 22.77 13.74 23.27 13.81C23.7 13.87 24.15 13.93 24.5 14.14C24.99 14.43 25.19 14.96 25.34 15.33C25.41 15.53 25.49 15.73 25.52 15.94C25.54 16.07 25.54 16.22 25.54 16.35C25.54 16.43 25.54 16.52 25.54 16.59C25.55 16.73 25.57 16.86 25.62 17.03C25.69 17.04 25.77 17.05 25.85 17.06C25.98 17.08 26.12 17.1 26.25 17.15C26.45 17.23 26.59 17.39 26.64 17.61C26.87 17.54 27.09 17.51 27.32 17.51L27.29 17.54Z" fill="#FFFFFF" fill-opacity="1.000000" fill-rule="nonzero"/>
	<path id="Vector" d="M38.22 10.25C38.14 9.76 37.81 9.18 37.19 9.17C36.97 8.4 37.53 7.46 36.88 6.87C36.02 6.08 34.09 6.91 33.23 6.13C33.09 6 32.99 5.84 32.8 5.77C32.56 5.68 32.26 5.77 32 5.71C31.67 5.64 31.49 5.34 31.19 5.21C31 5.13 30.76 5.12 30.54 5.13C29.96 5.16 29.36 5.27 28.78 5.28C28.42 5.59 28.28 6.08 28.57 6.45C28.7 6.61 28.9 6.76 28.89 6.96C28.86 7.5 27.43 7.43 27.5 7.97C27.06 8.25 26.37 8.16 25.97 7.84C25.56 7.53 25.4 7.05 25.38 6.6C24.83 6.32 24.25 6.03 23.61 5.97C22.96 5.9 22.22 6.13 21.98 6.61C21.82 6.93 21.88 7.33 21.59 7.57C21.33 7.78 20.87 7.8 20.68 8.05C20.5 8.3 20.68 8.61 20.63 8.9C20.58 9.29 20.11 9.62 19.94 9.98C21.14 10.19 22.37 10.27 23.58 10.2C24.38 10.16 25.17 10.06 25.98 10.01C27.48 9.92 29 10.02 30.46 10.31C30.47 10.69 31.05 10.87 31.52 10.87C31.98 10.87 32.51 10.83 32.86 11.08C33.12 11.28 33.18 11.6 33.29 11.88C33.45 12.22 33.73 12.53 34.09 12.75C34.09 12.61 34.09 12.48 34.14 12.34C34.29 11.94 34.83 11.72 35.34 11.63C35.85 11.54 36.38 11.54 36.87 11.39C37.01 11.35 37.14 11.3 37.25 11.22C37.42 11.08 37.52 10.89 37.74 10.79C37.91 10.72 38.09 10.73 38.28 10.78C38.28 10.6 38.27 10.43 38.23 10.26L38.22 10.25Z" fill="#FF5A57" fill-opacity="1.000000" fill-rule="nonzero"/>
	<path id="Vector" d="M34.19 12.91L34.02 12.8C33.63 12.57 33.34 12.24 33.19 11.89C33.16 11.82 33.14 11.75 33.11 11.68C33.03 11.46 32.96 11.26 32.78 11.13C32.55 10.95 32.2 10.94 31.9 10.94L31.57 10.94L31.5 10.94C30.98 10.94 30.43 10.74 30.36 10.37C28.94 10.09 27.44 9.99 25.98 10.08C25.6 10.1 25.21 10.14 24.84 10.17C24.43 10.21 24 10.25 23.58 10.27C22.36 10.34 21.12 10.26 19.92 10.05L19.8 10.02L19.84 9.94C19.92 9.79 20.04 9.65 20.16 9.5C20.33 9.3 20.5 9.1 20.53 8.88C20.54 8.78 20.53 8.68 20.52 8.57C20.49 8.38 20.46 8.18 20.6 8.01C20.72 7.84 20.93 7.76 21.13 7.69C21.28 7.64 21.42 7.59 21.52 7.51C21.69 7.37 21.73 7.18 21.77 6.97C21.8 6.84 21.83 6.7 21.89 6.58C22.13 6.09 22.81 5.87 23.38 5.87C23.46 5.87 23.54 5.87 23.62 5.88C24.3 5.94 24.9 6.25 25.43 6.52L25.48 6.55L25.48 6.59C25.5 6.95 25.61 7.45 26.04 7.78C26.4 8.06 27.04 8.14 27.4 7.93C27.4 7.63 27.79 7.5 28.13 7.38C28.47 7.27 28.77 7.17 28.79 6.95C28.79 6.83 28.7 6.72 28.59 6.61C28.55 6.57 28.51 6.52 28.48 6.48C28.15 6.07 28.35 5.53 28.71 5.22L28.74 5.2L28.77 5.2C29.08 5.19 29.4 5.15 29.72 5.12C29.98 5.09 30.26 5.06 30.53 5.04C30.58 5.04 30.64 5.04 30.69 5.04C30.92 5.04 31.09 5.08 31.24 5.14C31.39 5.2 31.5 5.3 31.62 5.39C31.75 5.49 31.88 5.6 32.03 5.63C32.12 5.65 32.24 5.65 32.37 5.65C32.42 5.65 32.47 5.65 32.52 5.65C32.61 5.65 32.73 5.65 32.85 5.7C33.01 5.76 33.11 5.87 33.2 5.97C33.23 6 33.27 6.04 33.31 6.08C33.62 6.37 34.1 6.42 34.71 6.42C34.82 6.42 34.94 6.42 35.06 6.42C35.75 6.41 36.5 6.4 36.96 6.82C37.38 7.2 37.33 7.72 37.28 8.22C37.25 8.52 37.22 8.82 37.28 9.1C37.88 9.15 38.23 9.7 38.33 10.25C38.35 10.41 38.36 10.59 38.37 10.78L38.37 10.89L38.24 10.86C38.04 10.81 37.9 10.81 37.78 10.87C37.67 10.92 37.59 11 37.51 11.09C37.45 11.15 37.38 11.22 37.31 11.28C37.21 11.35 37.08 11.42 36.91 11.47C36.59 11.56 36.26 11.6 35.94 11.63C35.75 11.65 35.55 11.67 35.36 11.71C35.08 11.75 34.41 11.92 34.23 12.37C34.19 12.48 34.18 12.59 34.18 12.75L34.2 12.91L34.19 12.91ZM31.9 10.78C32.24 10.78 32.63 10.8 32.92 11.01C33.14 11.18 33.22 11.41 33.3 11.64C33.33 11.71 33.35 11.78 33.38 11.84C33.5 12.12 33.71 12.37 33.98 12.58C33.98 12.48 34.01 12.4 34.03 12.32C34.24 11.79 34.99 11.6 35.31 11.54C35.5 11.51 35.71 11.49 35.91 11.46C36.23 11.43 36.54 11.4 36.83 11.31C36.98 11.26 37.09 11.21 37.17 11.15C37.23 11.1 37.29 11.04 37.35 10.98C37.44 10.88 37.53 10.78 37.68 10.72C37.82 10.65 37.98 10.64 38.17 10.67C38.17 10.53 38.15 10.39 38.13 10.26C38.05 9.76 37.73 9.26 37.2 9.24L37.12 9.24L37.1 9.18C37.01 8.87 37.04 8.53 37.08 8.2C37.13 7.71 37.18 7.25 36.81 6.91C36.5 6.63 36.02 6.57 35.41 6.57C35.29 6.57 35.18 6.57 35.06 6.57C34.36 6.58 33.62 6.59 33.16 6.17C33.12 6.13 33.08 6.09 33.04 6.05C32.96 5.96 32.88 5.88 32.77 5.83C32.67 5.8 32.53 5.8 32.37 5.8C32.22 5.81 32.09 5.8 31.98 5.78C31.77 5.73 31.62 5.61 31.47 5.49C31.36 5.41 31.26 5.32 31.14 5.28C31.02 5.22 30.87 5.2 30.68 5.2C30.63 5.2 30.58 5.2 30.53 5.2C30.27 5.21 30 5.24 29.73 5.28C29.43 5.31 29.12 5.34 28.81 5.35C28.52 5.62 28.37 6.06 28.64 6.4C28.67 6.44 28.7 6.48 28.74 6.51C28.85 6.64 28.98 6.78 28.98 6.95C28.96 7.27 28.56 7.4 28.21 7.53C27.81 7.66 27.57 7.75 27.59 7.95L27.59 8L27.56 8.02C27.37 8.14 27.13 8.21 26.87 8.21C26.52 8.21 26.15 8.09 25.89 7.89C25.44 7.54 25.31 7.02 25.27 6.64C24.77 6.38 24.21 6.1 23.59 6.03C23.52 6.03 23.45 6.02 23.38 6.02C22.88 6.02 22.27 6.21 22.07 6.64C22.01 6.75 21.99 6.87 21.96 6.99C21.91 7.22 21.86 7.45 21.65 7.62C21.52 7.72 21.36 7.78 21.2 7.84C21.02 7.91 20.85 7.96 20.76 8.09C20.66 8.22 20.69 8.37 20.71 8.55C20.72 8.66 20.74 8.78 20.73 8.9C20.69 9.16 20.5 9.38 20.32 9.59C20.23 9.7 20.14 9.81 20.07 9.91C21.22 10.1 22.4 10.17 23.57 10.11C23.99 10.09 24.41 10.05 24.82 10.01C25.19 9.97 25.59 9.94 25.97 9.91C27.47 9.82 29.01 9.93 30.48 10.22L30.55 10.24L30.55 10.29C30.56 10.64 31.15 10.77 31.51 10.77L31.57 10.77L31.9 10.77L31.9 10.78Z" fill="#FFFFFF" fill-opacity="1.000000" fill-rule="nonzero"/>
	<path id="Vector" d="M24.42 1.89C24.55 1.85 24.71 1.89 24.83 1.96C24.95 2.02 25.04 2.11 25.15 2.19C25.23 2.25 25.33 2.31 25.36 2.39C25.39 2.45 25.38 2.5 25.38 2.56C25.37 2.87 25.44 3.18 25.59 3.46C25.62 3.51 25.64 3.56 25.65 3.62C25.66 3.82 25.35 3.92 25.1 3.95C25.04 3.96 24.97 3.97 24.93 4.01C24.89 4.04 24.87 4.07 24.86 4.12C24.81 4.25 24.75 4.39 24.65 4.51C24.51 4.67 24.32 4.8 24.1 4.87C23.75 4.99 23.35 5 22.99 4.91C22.8 4.86 22.62 4.79 22.5 4.65C22.38 4.53 22.34 4.34 22.44 4.21C22.62 3.99 23.02 4.02 23.35 4.01C23.49 4 23.63 3.97 23.74 3.91C23.85 3.85 23.93 3.73 23.89 3.63C23.87 3.55 23.8 3.48 23.75 3.42C23.7 3.35 23.68 3.25 23.75 3.19C23.79 3.16 23.84 3.14 23.89 3.13C24.02 3.1 24.15 3.07 24.29 3.04C24.42 3.02 24.55 2.98 24.63 2.89C24.76 2.75 24.66 2.55 24.55 2.39C24.44 2.24 24.31 2.06 24.41 1.89L24.42 1.89Z" fill="#FF5A57" fill-opacity="1.000000" fill-rule="nonzero"/>
	<path id="Vector" d="M23.49 5.03C23.31 5.03 23.14 5.01 22.97 4.97C22.72 4.91 22.54 4.82 22.42 4.69C22.27 4.53 22.25 4.31 22.37 4.15C22.55 3.93 22.88 3.93 23.18 3.92C23.24 3.92 23.3 3.92 23.35 3.92C23.5 3.91 23.61 3.88 23.69 3.84C23.78 3.78 23.83 3.7 23.81 3.63C23.8 3.59 23.76 3.55 23.73 3.51C23.71 3.49 23.69 3.46 23.68 3.44C23.61 3.35 23.58 3.22 23.68 3.12C23.74 3.07 23.82 3.05 23.87 3.04L24.27 2.96C24.39 2.93 24.5 2.9 24.56 2.84C24.64 2.75 24.61 2.61 24.47 2.42C24.37 2.29 24.2 2.06 24.32 1.85L24.34 1.82L24.38 1.81C24.53 1.77 24.72 1.79 24.88 1.88C24.96 1.93 25.03 1.98 25.1 2.03C25.14 2.07 25.17 2.09 25.21 2.12L25.25 2.14C25.33 2.2 25.42 2.26 25.46 2.35C25.49 2.41 25.49 2.48 25.48 2.54C25.47 2.85 25.54 3.15 25.68 3.42C25.72 3.47 25.74 3.53 25.75 3.59C25.77 3.84 25.43 3.97 25.11 4.01C25.07 4.02 25.02 4.02 24.99 4.04C24.97 4.06 24.96 4.08 24.95 4.12C24.91 4.24 24.84 4.4 24.73 4.53C24.59 4.7 24.38 4.83 24.13 4.92C23.93 4.99 23.72 5.03 23.49 5.03L23.49 5.03ZM24.49 1.95C24.45 2.07 24.54 2.21 24.64 2.35C24.83 2.59 24.85 2.79 24.72 2.93C24.62 3.04 24.44 3.08 24.32 3.11L23.93 3.2C23.89 3.21 23.85 3.22 23.83 3.23C23.8 3.26 23.82 3.32 23.85 3.36C23.87 3.38 23.89 3.4 23.9 3.42C23.94 3.47 23.98 3.53 24 3.59C24.04 3.73 23.96 3.87 23.81 3.96C23.7 4.03 23.55 4.06 23.37 4.07C23.31 4.07 23.25 4.07 23.19 4.08C22.92 4.08 22.66 4.09 22.54 4.24C22.46 4.35 22.5 4.5 22.59 4.6C22.68 4.69 22.83 4.77 23.03 4.82C23.38 4.9 23.76 4.89 24.06 4.78C24.28 4.71 24.46 4.59 24.57 4.45C24.67 4.33 24.73 4.19 24.77 4.08C24.79 4.03 24.81 3.98 24.86 3.94C24.93 3.88 25.02 3.87 25.1 3.86C25.32 3.83 25.57 3.75 25.56 3.61C25.56 3.57 25.53 3.53 25.51 3.49C25.36 3.18 25.28 2.86 25.29 2.54C25.29 2.48 25.29 2.43 25.28 2.4C25.26 2.35 25.19 2.3 25.13 2.26L25.09 2.23C25.05 2.2 25.01 2.17 24.96 2.14C24.9 2.09 24.84 2.04 24.78 2C24.68 1.95 24.58 1.92 24.49 1.94L24.49 1.95Z" fill="#FFFFFF" fill-opacity="1.000000" fill-rule="nonzero"/>
	<path id="Vector" d="M37.03 4.62C36.99 4 36.36 3.46 36.41 2.84C36.44 2.34 36.9 1.93 37.3 1.56C37.64 1.23 37.98 0.84 37.99 0.43C37.76 0.56 37.4 0.58 37.1 0.56C36.18 0.53 35.27 0.42 34.37 0.24C33.99 0.17 33.61 0.08 33.23 0.08C32.87 0.08 32.51 0.15 32.16 0.2C31.12 0.36 30.03 0.09 29.01 0.31C28.32 0.45 27.64 0.59 26.95 0.73C26.95 1 26.95 1.27 26.95 1.53C26.23 1.6 25.96 2.54 26.58 2.84C26.74 2.91 26.93 2.96 27.02 3.09C27.11 3.23 27.05 3.39 27.07 3.55C27.13 3.86 27.56 4.04 27.96 4.08C28.35 4.12 28.77 4.08 29.13 4.22C29.49 4.35 29.74 4.75 29.47 4.99C29.2 5 28.96 5.11 28.77 5.27C29.35 5.26 29.95 5.15 30.53 5.12C30.75 5.11 30.99 5.12 31.18 5.2C31.49 5.33 31.67 5.63 31.99 5.7C32.25 5.76 32.55 5.67 32.8 5.76C32.99 5.84 33.08 5.99 33.22 6.12C33.89 6.73 35.18 6.37 36.14 6.54C36.36 6.26 36.55 5.94 36.7 5.64C36.87 5.31 37.04 4.97 37.02 4.62L37.03 4.62Z" fill="#FF5A57" fill-opacity="1.000000" fill-rule="nonzero"/>
	<path id="Vector" d="M36.19 6.63L36.12 6.62C35.87 6.58 35.61 6.57 35.4 6.57C35.29 6.57 35.17 6.57 35.06 6.57C34.36 6.58 33.62 6.6 33.16 6.17C33.12 6.14 33.08 6.09 33.04 6.05C32.95 5.96 32.88 5.88 32.76 5.84C32.67 5.8 32.53 5.8 32.37 5.8C32.22 5.81 32.09 5.8 31.97 5.78C31.77 5.74 31.61 5.61 31.46 5.49C31.36 5.41 31.26 5.32 31.14 5.28C31.02 5.22 30.87 5.2 30.67 5.2C30.63 5.2 30.58 5.2 30.53 5.2C30.27 5.21 29.99 5.25 29.73 5.28C29.41 5.31 29.09 5.35 28.77 5.36L28.54 5.36L28.7 5.22C28.91 5.05 29.16 4.94 29.42 4.92C29.49 4.84 29.49 4.74 29.47 4.68C29.43 4.52 29.27 4.37 29.08 4.3C28.85 4.21 28.6 4.2 28.32 4.19C28.19 4.19 28.06 4.18 27.94 4.16C27.5 4.12 27.03 3.92 26.97 3.56C26.96 3.5 26.96 3.44 26.97 3.37C26.97 3.28 26.98 3.2 26.93 3.13C26.88 3.06 26.78 3.02 26.67 2.97C26.62 2.95 26.58 2.94 26.53 2.92C26.21 2.76 26.07 2.43 26.17 2.08C26.26 1.76 26.52 1.53 26.85 1.47L26.85 0.67L28.99 0.23C29.28 0.17 29.6 0.14 30.01 0.14C30.23 0.14 30.46 0.15 30.68 0.16C30.9 0.17 31.13 0.17 31.35 0.17C31.65 0.17 31.91 0.16 32.14 0.12L32.33 0.09C32.62 0.04 32.91 0 33.22 0C33.59 0 33.94 0.06 34.27 0.13L34.41 0.16C35.3 0.33 36.21 0.44 37.12 0.48C37.16 0.48 37.21 0.48 37.26 0.48C37.56 0.48 37.79 0.44 37.95 0.35L38.11 0.26L38.11 0.42C38.08 0.89 37.68 1.31 37.38 1.6L37.32 1.66C36.94 2.02 36.55 2.39 36.51 2.84C36.49 3.15 36.65 3.44 36.82 3.74C36.97 4.02 37.12 4.3 37.14 4.61C37.15 4.99 36.97 5.35 36.81 5.67C36.67 5.93 36.48 6.27 36.23 6.58L36.19 6.63L36.19 6.63ZM35.4 6.42C35.59 6.42 35.85 6.42 36.1 6.46C36.32 6.17 36.49 5.86 36.62 5.61C36.78 5.31 36.95 4.97 36.93 4.63C36.91 4.35 36.78 4.09 36.63 3.82C36.46 3.51 36.29 3.19 36.31 2.84C36.34 2.34 36.77 1.93 37.15 1.57L37.22 1.51C37.47 1.27 37.79 0.93 37.87 0.57C37.7 0.62 37.49 0.65 37.25 0.65C37.19 0.65 37.14 0.65 37.09 0.65C36.17 0.61 35.25 0.51 34.35 0.33L34.21 0.31C33.89 0.24 33.56 0.17 33.22 0.17C32.92 0.17 32.63 0.22 32.36 0.26L32.17 0.3C31.92 0.33 31.66 0.35 31.33 0.35C31.11 0.35 30.88 0.34 30.65 0.33C30.43 0.32 30.21 0.32 29.99 0.32C29.6 0.32 29.3 0.34 29.02 0.4L27.04 0.81L27.04 1.62L26.95 1.62C26.6 1.66 26.41 1.92 26.35 2.13C26.29 2.34 26.32 2.64 26.62 2.79C26.66 2.81 26.71 2.83 26.75 2.84C26.87 2.89 27.02 2.95 27.09 3.06C27.17 3.17 27.16 3.28 27.15 3.39C27.15 3.45 27.15 3.5 27.15 3.55C27.2 3.82 27.59 3.97 27.95 4.01C28.07 4.02 28.2 4.03 28.32 4.03C28.6 4.04 28.88 4.05 29.15 4.15C29.39 4.24 29.59 4.44 29.65 4.65C29.69 4.8 29.65 4.94 29.53 5.05L29.51 5.07L29.47 5.07C29.3 5.08 29.16 5.13 29.05 5.19C29.26 5.17 29.49 5.15 29.7 5.12C29.97 5.09 30.24 5.07 30.52 5.05C30.57 5.05 30.62 5.05 30.67 5.05C30.9 5.05 31.08 5.08 31.23 5.15C31.37 5.21 31.49 5.3 31.6 5.39C31.73 5.5 31.86 5.6 32.02 5.64C32.1 5.66 32.23 5.66 32.35 5.66C32.41 5.66 32.45 5.66 32.5 5.66C32.59 5.66 32.72 5.66 32.84 5.71C32.99 5.77 33.09 5.87 33.18 5.97C33.22 6.01 33.25 6.05 33.29 6.08C33.61 6.37 34.08 6.43 34.71 6.43C34.82 6.43 34.93 6.43 35.04 6.43C35.16 6.43 35.27 6.43 35.39 6.43L35.4 6.42Z" fill="#FFFFFF" fill-opacity="1.000000" fill-rule="nonzero"/>
</svg>
