<svg width="50.831055" height="63.473877" viewBox="0 0 50.8311 63.4739" fill="none" xmlns="http://www.w3.org/2000/svg" xmlns:xlink="http://www.w3.org/1999/xlink">
	<desc>
			Created with Pixso.
	</desc>
	<defs/>
	<path id="Vector" d="M50.57 29.58C50.14 28.7 48.79 28.09 48.87 27.14C48.9 26.85 49.07 26.56 49 26.28C48.89 25.82 48.21 25.41 48.51 25.02C48.89 24.51 50.28 25.04 50.46 24.46C50.58 24.04 49.79 23.85 49.56 23.46C49.4 23.2 49.53 22.89 49.45 22.6C49.33 22.17 48.73 21.92 48.17 21.89C47.62 21.87 47.07 22 46.51 22.03C45.58 22.09 44.65 21.88 43.74 21.67C42.37 21.34 40.9 20.97 40.03 20.06C39 19.89 37.96 19.73 36.93 19.56C36.66 19.52 36.39 19.47 36.17 19.35C35.84 19.16 35.68 18.81 35.34 18.64C34.98 18.47 34.52 18.54 34.1 18.5C32.58 18.35 31.82 16.75 30.31 16.51C30.06 15.66 30.36 14.78 30.5 13.91C30.63 13.05 30.55 12.05 29.75 11.47C29.31 11.15 28.73 11.01 28.21 10.81C27.4 10.5 26.69 10.02 26.15 9.44C25.55 8.79 25.28 7.72 26.13 7.28C26.49 7.11 26.96 7.09 27.28 6.87C27.8 6.5 27.59 5.82 27.33 5.3C26.96 4.56 26.6 3.82 26.23 3.08C25.95 2.5 25.64 1.9 25.03 1.53C24.79 1.39 24.51 1.28 24.36 1.07C24.14 0.76 24.25 0.28 23.86 0.11C23.72 0.05 23.55 0.05 23.39 0.06C22.99 0.07 22.6 0.09 22.2 0.1C22.3 0.66 21.79 1.23 21.17 1.53C20.51 1.86 19.72 2 18.95 1.93C17.9 1.83 16.94 1.34 15.88 1.28C14.82 1.22 13.57 1.96 13.94 2.76C14.12 3.15 14.64 3.4 14.79 3.81C14.88 4.06 14.8 4.33 14.83 4.6C14.86 4.95 15.08 5.27 15.3 5.58C15.82 6.27 16.43 6.91 17.14 7.48C17.31 7.62 17.48 7.76 17.57 7.94C17.89 8.63 16.75 9.12 16.1 9.64C15.48 10.13 15.24 10.91 15.5 11.58C14 12.48 12.81 13.71 12.09 15.1C11.94 15.37 11.81 15.66 11.55 15.86C11.32 16.04 11.02 16.14 10.78 16.3C10.19 16.72 10.16 17.47 9.65 17.96C8.68 18.88 6.85 18.31 5.38 18.49C4.21 18.64 3.18 19.35 2.82 20.26C3.72 20.54 4.44 21.18 4.68 21.93C4.74 22.12 4.78 22.33 4.9 22.5C5.01 22.65 5.18 22.77 5.32 22.9C5.53 23.11 5.65 23.37 5.76 23.62C6.19 24.53 6.62 25.44 7.04 26.35C5.26 26.53 3.48 26.7 1.69 26.88C1.32 26.92 0.93 26.96 0.62 27.14C0.25 27.37 0.14 27.7 0.12 28.07C0.54 28.19 0.92 28.37 1.11 28.69C0.73 29.22 1.62 29.83 2.38 29.8C3.14 29.78 3.87 29.46 4.63 29.49C5.4 29.53 6.14 30.31 5.59 30.74C5.42 30.87 5.18 30.92 4.95 30.96C3.87 31.19 2.78 31.41 1.69 31.63C1.73 32.03 2.12 32.34 2.5 32.61C4.1 33.78 5.8 34.99 7.88 35.46C7.92 34.8 8.31 34.13 8.98 33.76C8.98 33.03 9.15 32.3 9.49 31.63C9.92 31.32 10.62 31.64 10.85 32.07C11.08 32.49 11.04 32.98 11.22 33.41C11.35 33.71 11.57 33.97 11.69 34.26C11.85 34.67 11.81 35.11 11.77 35.53C11.66 37.09 11.76 38.66 12.07 40.19C12.38 41.76 13 43.41 14.52 44.42C14.52 45.62 14.52 46.82 14.52 48.02C14.52 48.3 14.52 48.59 14.69 48.84C14.87 49.1 15.19 49.27 15.43 49.48C16.35 50.3 15.97 51.59 16.32 52.65C16.56 53.36 17.12 53.97 17.65 54.57C19.98 57.22 21.76 60.18 22.91 63.29C23.7 62.61 24.48 61.93 25.26 61.25C26.43 60.24 27.63 59.18 28.16 57.86C28.42 57.24 28.52 56.58 28.59 55.92C28.71 54.84 28.75 53.76 28.8 52.68C28.88 50.86 28.96 49.06 29.04 47.24C29.05 46.94 29.08 46.6 29.32 46.37C29.57 46.12 29.99 46.04 30.37 45.94C32.1 45.46 33.38 44.25 34.29 42.96C35.21 41.68 35.84 40.27 36.81 39.01C37.79 37.74 39.09 36.64 40.57 35.74C40.96 35.5 41.37 35.28 41.85 35.2C42.91 35.02 44.23 35.56 44.97 34.92C45.23 34.69 45.31 34.36 45.47 34.07C46.23 32.59 48.51 32.19 50.55 32.16C50.55 32.03 50.56 31.9 50.58 31.77C50.66 31.03 50.93 30.26 50.6 29.57L50.57 29.58Z" fill="#FF5A57" fill-opacity="1.000000" fill-rule="nonzero"/>
	<path id="Vector" d="M22.85 63.46L22.8 63.33C21.65 60.21 19.88 57.28 17.56 54.63L17.43 54.49C16.94 53.93 16.43 53.35 16.21 52.68C16.08 52.29 16.05 51.87 16.01 51.47C15.95 50.74 15.9 50.05 15.34 49.55C15.26 49.48 15.16 49.4 15.07 49.34C14.89 49.2 14.71 49.07 14.58 48.89C14.4 48.62 14.4 48.31 14.4 48.03L14.4 44.48C12.74 43.35 12.2 41.51 11.94 40.22C11.63 38.68 11.53 37.11 11.64 35.55L11.64 35.47C11.68 35.08 11.71 34.67 11.56 34.3C11.51 34.15 11.42 34.02 11.33 33.87C11.24 33.73 11.16 33.6 11.1 33.45C11.02 33.24 10.98 33.03 10.94 32.82C10.89 32.57 10.85 32.33 10.73 32.11C10.57 31.82 10.19 31.6 9.85 31.6C9.73 31.6 9.62 31.63 9.53 31.69C9.21 32.34 9.04 33.06 9.04 33.77L9.04 33.81L9 33.83C8.38 34.17 7.98 34.8 7.94 35.47L7.94 35.57L7.81 35.55C5.67 35.06 3.92 33.8 2.39 32.68C1.99 32.39 1.6 32.07 1.56 31.64L1.56 31.58L4.9 30.9C5.1 30.86 5.34 30.81 5.49 30.69C5.7 30.53 5.67 30.34 5.6 30.2C5.45 29.88 5.01 29.6 4.59 29.58C4.2 29.56 3.81 29.65 3.41 29.74C3.07 29.81 2.71 29.88 2.35 29.89L2.31 29.89C1.8 29.89 1.26 29.65 1.01 29.32C0.86 29.11 0.85 28.89 0.97 28.7C0.81 28.46 0.52 28.29 0.06 28.16L0 28.13L0 28.08C0.01 27.76 0.09 27.36 0.54 27.09C0.87 26.89 1.3 26.85 1.65 26.81L6.88 26.3L5.65 23.66C5.53 23.42 5.42 23.17 5.21 22.97C5.17 22.92 5.11 22.87 5.06 22.83C4.96 22.74 4.86 22.66 4.79 22.55C4.69 22.41 4.65 22.25 4.6 22.1C4.59 22.06 4.57 22.01 4.56 21.97C4.33 21.24 3.64 20.62 2.77 20.35L2.69 20.33L2.71 20.25C3.08 19.31 4.14 18.58 5.35 18.42C5.56 18.4 5.81 18.38 6.1 18.38C6.38 18.38 6.66 18.39 6.93 18.41C7.2 18.42 7.47 18.43 7.74 18.43C8.38 18.43 9.09 18.37 9.57 17.92C9.79 17.71 9.92 17.43 10.05 17.16C10.21 16.83 10.37 16.49 10.71 16.25C10.83 16.17 10.96 16.1 11.09 16.04C11.23 15.97 11.36 15.9 11.47 15.81C11.7 15.64 11.83 15.39 11.95 15.16L11.99 15.08C12.71 13.69 13.89 12.48 15.37 11.56C15.13 10.88 15.39 10.09 16.02 9.59C16.18 9.47 16.36 9.34 16.54 9.23C17.13 8.83 17.69 8.46 17.46 7.98C17.39 7.83 17.23 7.7 17.08 7.58L17.06 7.55C16.35 6.97 15.73 6.33 15.21 5.63C14.98 5.32 14.77 4.98 14.73 4.61C14.71 4.51 14.73 4.41 14.73 4.31C14.73 4.14 14.74 3.99 14.69 3.84C14.62 3.65 14.45 3.49 14.28 3.33C14.11 3.17 13.94 3.01 13.84 2.81C13.71 2.51 13.76 2.21 14 1.93C14.38 1.49 15.18 1.19 15.88 1.22C16.45 1.26 17 1.41 17.52 1.56C17.99 1.69 18.47 1.82 18.95 1.87C19.69 1.93 20.48 1.8 21.11 1.48C21.64 1.21 22.18 0.67 22.09 0.13L22.08 0.04L23.37 0C23.41 0 23.47 0 23.51 0C23.62 0 23.76 0 23.89 0.06C24.17 0.18 24.23 0.42 24.29 0.66C24.32 0.8 24.36 0.94 24.44 1.05C24.54 1.19 24.71 1.28 24.89 1.38C24.96 1.42 25.02 1.45 25.08 1.49C25.73 1.88 26.05 2.54 26.32 3.07L27.41 5.29C27.8 6.09 27.79 6.64 27.34 6.95C27.14 7.09 26.9 7.15 26.67 7.21C26.5 7.26 26.33 7.3 26.18 7.38C25.93 7.5 25.77 7.7 25.71 7.95C25.61 8.38 25.82 8.97 26.22 9.42C26.75 9.98 27.45 10.45 28.25 10.76C28.39 10.81 28.53 10.86 28.67 10.91C29.07 11.05 29.48 11.19 29.82 11.43C30.69 12.07 30.72 13.15 30.59 13.95C30.56 14.14 30.52 14.33 30.48 14.53C30.35 15.17 30.22 15.84 30.39 16.47C31.12 16.61 31.68 17.04 32.22 17.47C32.81 17.93 33.36 18.37 34.12 18.45C34.24 18.46 34.38 18.46 34.51 18.46C34.81 18.46 35.12 18.47 35.39 18.6C35.59 18.69 35.73 18.84 35.87 18.99C35.98 19.11 36.09 19.23 36.23 19.31C36.43 19.43 36.71 19.47 36.95 19.52L40.09 20.02L40.11 20.04C40.93 20.9 42.25 21.27 43.78 21.62C44.66 21.82 45.58 22.04 46.51 21.98C46.71 21.96 46.92 21.93 47.12 21.91C47.46 21.86 47.81 21.82 48.18 21.83C48.74 21.86 49.41 22.12 49.55 22.61C49.58 22.74 49.58 22.87 49.57 23C49.57 23.16 49.56 23.32 49.64 23.45C49.73 23.6 49.9 23.72 50.08 23.83C50.36 24.02 50.64 24.21 50.55 24.51C50.44 24.87 49.95 24.87 49.52 24.87C49.14 24.87 48.75 24.87 48.58 25.08C48.43 25.28 48.6 25.5 48.79 25.76C48.91 25.93 49.04 26.1 49.09 26.28C49.13 26.48 49.09 26.67 49.03 26.85C49 26.96 48.97 27.06 48.96 27.16C48.92 27.7 49.36 28.12 49.82 28.57C50.14 28.88 50.47 29.2 50.66 29.57C50.92 30.13 50.82 30.73 50.72 31.31C50.7 31.48 50.66 31.64 50.64 31.81C50.63 31.93 50.62 32.06 50.62 32.19L50.62 32.27L50.52 32.27C48.66 32.29 46.29 32.64 45.52 34.13C45.48 34.21 45.45 34.29 45.41 34.37C45.31 34.59 45.21 34.82 45 35C44.72 35.25 44.36 35.35 43.82 35.35C43.57 35.35 43.32 35.33 43.08 35.31C42.64 35.27 42.18 35.25 41.84 35.3C41.37 35.38 40.95 35.61 40.6 35.83C39.05 36.77 37.8 37.86 36.86 39.08C36.34 39.76 35.9 40.51 35.48 41.22C35.13 41.82 34.76 42.44 34.34 43.03C33.23 44.6 31.89 45.61 30.37 46.03L30.21 46.07C29.89 46.16 29.56 46.24 29.37 46.44C29.15 46.65 29.12 46.94 29.11 47.27L28.87 52.7C28.82 53.77 28.77 54.87 28.65 55.95C28.58 56.7 28.47 57.32 28.23 57.91C27.67 59.27 26.41 60.36 25.31 61.32L22.84 63.47L22.85 63.46ZM9.87 31.43C10.28 31.43 10.73 31.69 10.92 32.04C11.05 32.28 11.09 32.54 11.14 32.79C11.18 32.99 11.21 33.19 11.29 33.38C11.35 33.52 11.43 33.66 11.51 33.79C11.6 33.93 11.7 34.09 11.75 34.24C11.91 34.64 11.88 35.06 11.85 35.47L11.85 35.55C11.73 37.1 11.83 38.66 12.13 40.18C12.39 41.46 12.92 43.28 14.56 44.37L14.59 44.4L14.59 48.03C14.59 48.29 14.59 48.58 14.75 48.81C14.86 48.97 15.02 49.09 15.2 49.22C15.29 49.29 15.39 49.36 15.48 49.45C16.09 49.99 16.15 50.74 16.2 51.46C16.24 51.86 16.27 52.27 16.39 52.65C16.61 53.29 17.1 53.85 17.58 54.4L17.7 54.54C20.01 57.17 21.77 60.07 22.93 63.15L25.17 61.21C26.26 60.25 27.5 59.17 28.05 57.85C28.29 57.28 28.39 56.66 28.46 55.93C28.58 54.86 28.63 53.75 28.67 52.69L28.91 47.25C28.93 46.97 28.94 46.59 29.22 46.33C29.45 46.09 29.8 46 30.15 45.91L30.31 45.87C31.78 45.46 33.08 44.47 34.18 42.93C34.59 42.35 34.96 41.73 35.31 41.13C35.74 40.42 36.17 39.67 36.7 38.98C37.65 37.74 38.92 36.64 40.48 35.69C40.86 35.46 41.29 35.22 41.8 35.13C42.16 35.08 42.65 35.1 43.1 35.13C43.36 35.16 43.59 35.18 43.82 35.18C44.31 35.18 44.63 35.09 44.86 34.88C45.04 34.72 45.14 34.51 45.23 34.29C45.26 34.21 45.3 34.13 45.34 34.05C45.97 32.83 47.73 32.15 50.41 32.09C50.41 31.98 50.42 31.88 50.43 31.77C50.45 31.6 50.49 31.43 50.51 31.26C50.61 30.7 50.71 30.12 50.46 29.6C50.29 29.26 49.97 28.95 49.66 28.65C49.19 28.2 48.7 27.73 48.75 27.13C48.77 27.02 48.79 26.91 48.83 26.8C48.88 26.62 48.92 26.45 48.88 26.29C48.84 26.13 48.72 25.97 48.6 25.81C48.4 25.54 48.19 25.26 48.4 24.97C48.62 24.69 49.09 24.69 49.5 24.68C49.98 24.68 50.28 24.66 50.34 24.44C50.4 24.24 50.19 24.09 49.94 23.92C49.75 23.8 49.55 23.66 49.45 23.49C49.35 23.32 49.36 23.14 49.36 22.97C49.36 22.85 49.36 22.73 49.33 22.62C49.21 22.21 48.63 21.99 48.14 21.97C47.81 21.95 47.46 21.99 47.13 22.04C46.93 22.07 46.71 22.09 46.5 22.11C45.54 22.17 44.55 21.95 43.7 21.75C42.51 21.47 40.88 21.09 39.95 20.13L36.89 19.64C36.62 19.6 36.32 19.55 36.09 19.41C35.92 19.32 35.8 19.18 35.68 19.06C35.55 18.92 35.43 18.79 35.27 18.71C35.04 18.6 34.77 18.6 34.48 18.6C34.34 18.6 34.21 18.6 34.07 18.58C33.25 18.5 32.65 18.03 32.06 17.56C31.53 17.14 30.97 16.71 30.27 16.59L30.22 16.58L30.2 16.54C30 15.86 30.14 15.16 30.27 14.48C30.31 14.29 30.35 14.1 30.39 13.91C30.51 13.15 30.48 12.12 29.67 11.53C29.36 11.31 28.96 11.18 28.58 11.04C28.43 10.99 28.29 10.94 28.14 10.89C27.32 10.57 26.6 10.09 26.05 9.49C25.6 9.01 25.39 8.39 25.5 7.9C25.57 7.61 25.76 7.38 26.05 7.22C26.22 7.14 26.41 7.09 26.59 7.04C26.81 6.98 27.03 6.93 27.18 6.82C27.56 6.55 27.57 6.06 27.2 5.34L26.11 3.11C25.86 2.6 25.54 1.97 24.94 1.6C24.88 1.56 24.81 1.53 24.75 1.49C24.56 1.39 24.36 1.28 24.24 1.11C24.15 0.98 24.11 0.82 24.07 0.67C24.02 0.46 23.98 0.27 23.78 0.18C23.71 0.15 23.62 0.14 23.49 0.14C23.45 0.14 23.4 0.14 23.36 0.14L22.27 0.18C22.32 0.77 21.77 1.32 21.19 1.61C20.51 1.95 19.7 2.09 18.91 2.01C18.4 1.97 17.91 1.82 17.43 1.69C16.91 1.55 16.39 1.4 15.84 1.37C15.19 1.33 14.48 1.6 14.14 2C13.99 2.17 13.86 2.43 14 2.74C14.08 2.92 14.24 3.06 14.39 3.22C14.58 3.39 14.76 3.57 14.84 3.79C14.9 3.96 14.9 4.14 14.9 4.31C14.9 4.41 14.89 4.5 14.9 4.6C14.93 4.93 15.14 5.25 15.35 5.55C15.86 6.23 16.48 6.87 17.18 7.44L17.2 7.46C17.37 7.6 17.54 7.74 17.63 7.93C17.89 8.51 17.23 8.96 16.64 9.35C16.46 9.47 16.29 9.59 16.14 9.71C15.54 10.18 15.31 10.93 15.56 11.58L15.58 11.63L15.53 11.66C14.04 12.56 12.88 13.76 12.15 15.15L12.11 15.22C11.98 15.47 11.85 15.74 11.59 15.93C11.46 16.03 11.32 16.1 11.17 16.17C11.04 16.24 10.92 16.29 10.81 16.37C10.51 16.59 10.36 16.9 10.21 17.23C10.08 17.51 9.94 17.8 9.69 18.03C9.16 18.53 8.4 18.6 7.72 18.6C7.45 18.6 7.17 18.59 6.9 18.57C6.63 18.56 6.34 18.55 6.08 18.55C5.81 18.55 5.57 18.56 5.36 18.58C4.25 18.72 3.28 19.38 2.91 20.23C3.8 20.53 4.5 21.18 4.74 21.92C4.75 21.97 4.76 22.01 4.78 22.06C4.82 22.21 4.86 22.35 4.95 22.47C5.01 22.56 5.1 22.63 5.19 22.71C5.25 22.76 5.3 22.81 5.35 22.86C5.57 23.08 5.69 23.34 5.81 23.6L7.14 26.43L1.66 26.96C1.31 27 0.93 27.04 0.64 27.21C0.35 27.39 0.21 27.63 0.18 28.02C0.68 28.18 0.98 28.37 1.15 28.66L1.17 28.7L1.14 28.74C1.01 28.93 1.08 29.11 1.16 29.23C1.37 29.52 1.86 29.73 2.29 29.73L2.33 29.73C2.67 29.72 3.01 29.65 3.33 29.58C3.74 29.49 4.16 29.4 4.59 29.43C5.08 29.45 5.59 29.77 5.77 30.14C5.89 30.4 5.83 30.63 5.61 30.8C5.42 30.95 5.15 31.01 4.93 31.05L1.75 31.7C1.81 32.03 2.16 32.31 2.5 32.56C3.99 33.65 5.68 34.87 7.74 35.37C7.81 34.7 8.22 34.09 8.83 33.73C8.83 33 9.01 32.28 9.34 31.61L9.37 31.58C9.5 31.49 9.66 31.43 9.84 31.43L9.87 31.43Z" fill="#FFFFFF" fill-opacity="1.000000" fill-rule="nonzero"/>
</svg>
