<svg width="64.930176" height="63.736816" viewBox="0 0 64.9302 63.7368" fill="none" xmlns="http://www.w3.org/2000/svg" xmlns:xlink="http://www.w3.org/1999/xlink">
	<desc>
			Created with Pixso.
	</desc>
	<defs/>
	<path id="Vector" d="M53.12 5.85C53.29 6.28 54.14 6.53 53.96 6.96C54.38 6.88 54.86 7.01 55.14 7.27C55.29 7.42 55.39 7.61 55.57 7.73C55.85 7.93 56.25 7.95 56.62 7.95C57.96 7.98 59.32 8.01 60.61 7.74C60.72 7.72 60.84 7.69 60.95 7.66C60.65 7.37 60.46 6.97 60.68 6.64C60.97 6.2 61.85 6.13 62.01 5.65C62.09 5.41 61.96 5.14 62.06 4.91C62.17 4.65 62.51 4.52 62.75 4.33C62.93 4.17 63.05 3.99 63.21 3.82C63.45 3.56 63.77 3.37 64.13 3.23C64.53 2.59 64.92 1.91 64.79 1.21C64.64 0.48 63.63 -0.16 62.83 0.18C62.21 0.45 62.07 1.09 61.83 1.61C61.6 2.14 60.96 2.7 60.32 2.48C60.51 3.28 59.66 4.03 58.72 4.31C57.77 4.59 56.73 4.53 55.73 4.6C54.94 4.65 54.12 4.78 53.35 4.73C53.29 4.92 53.22 5.11 53.16 5.3C53.11 5.49 53.05 5.68 53.12 5.86L53.12 5.85Z" fill="#FF5A57" fill-opacity="1.000000" fill-rule="nonzero"/>
	<path id="Vector" d="M57.85 8.04C57.43 8.04 57 8.03 56.62 8.03C56.2 8.02 55.8 8 55.5 7.79C55.39 7.7 55.3 7.6 55.22 7.5C55.17 7.44 55.12 7.38 55.07 7.32C54.81 7.08 54.37 6.96 53.98 7.03L53.81 7.06L53.87 6.93C53.96 6.73 53.75 6.56 53.5 6.38C53.31 6.23 53.11 6.07 53.03 5.87C52.95 5.67 53.02 5.45 53.08 5.27L53.28 4.63L53.37 4.63C53.91 4.67 54.49 4.62 55.05 4.57C55.28 4.54 55.5 4.52 55.73 4.51C56 4.49 56.28 4.48 56.55 4.47C57.27 4.44 58.02 4.42 58.69 4.22C59.59 3.96 60.42 3.24 60.24 2.48L60.21 2.34L60.38 2.39C60.46 2.43 60.55 2.44 60.63 2.44C61.11 2.44 61.57 1.99 61.75 1.57C61.79 1.48 61.83 1.39 61.87 1.29C62.06 0.82 62.25 0.33 62.79 0.1C62.96 0.03 63.13 0 63.32 0C64.03 0 64.77 0.55 64.9 1.18C65.03 1.89 64.64 2.59 64.22 3.25L64.21 3.27L64.18 3.28C63.81 3.43 63.52 3.62 63.3 3.84C63.24 3.91 63.19 3.97 63.14 4.03C63.05 4.14 62.96 4.26 62.83 4.36C62.75 4.43 62.66 4.49 62.57 4.54C62.4 4.66 62.23 4.77 62.17 4.91C62.12 5.02 62.13 5.14 62.14 5.26C62.15 5.39 62.17 5.51 62.12 5.64C62.02 5.93 61.7 6.08 61.4 6.23C61.14 6.35 60.9 6.47 60.78 6.65C60.53 7.03 60.92 7.46 61.05 7.59L61.15 7.68L61 7.71C60.89 7.74 60.78 7.77 60.66 7.79C59.67 7.99 58.65 8.02 57.88 8.02L57.85 8.04ZM54.22 6.85C54.6 6.85 54.97 6.99 55.21 7.22C55.27 7.28 55.33 7.35 55.39 7.41C55.46 7.51 55.54 7.6 55.63 7.67C55.88 7.84 56.24 7.86 56.63 7.87C57.01 7.88 57.44 7.89 57.86 7.89C58.62 7.89 59.62 7.86 60.59 7.66C60.66 7.64 60.72 7.63 60.79 7.62C60.47 7.26 60.4 6.89 60.59 6.61C60.74 6.38 61.02 6.25 61.28 6.12C61.57 5.98 61.84 5.85 61.92 5.63C61.95 5.53 61.94 5.41 61.93 5.3C61.92 5.16 61.91 5.02 61.96 4.89C62.05 4.69 62.24 4.57 62.43 4.44C62.52 4.39 62.6 4.33 62.68 4.28C62.78 4.19 62.87 4.08 62.96 3.97C63.01 3.9 63.07 3.83 63.13 3.77C63.36 3.53 63.66 3.33 64.05 3.17C64.46 2.52 64.81 1.88 64.69 1.22C64.58 0.65 63.93 0.16 63.3 0.16C63.15 0.16 63.01 0.2 62.87 0.25C62.4 0.45 62.22 0.91 62.04 1.35C62 1.44 61.96 1.55 61.92 1.63C61.72 2.12 61.2 2.6 60.62 2.6C60.56 2.6 60.5 2.6 60.44 2.59C60.53 3.41 59.66 4.11 58.75 4.38C58.04 4.58 57.29 4.61 56.55 4.63C56.29 4.64 56.01 4.66 55.73 4.67C55.51 4.69 55.29 4.71 55.06 4.73C54.52 4.78 53.95 4.83 53.42 4.81L53.26 5.32C53.2 5.47 53.14 5.67 53.21 5.83C53.28 5.99 53.46 6.14 53.63 6.27C53.86 6.44 54.1 6.63 54.08 6.86C54.12 6.86 54.17 6.85 54.22 6.85L54.22 6.85Z" fill="#FFFFFF" fill-opacity="1.000000" fill-rule="nonzero"/>
	<path id="Vector" d="M53.16 3.43C53.3 3.46 53.45 3.49 53.6 3.51C53.48 2.98 53.7 2.45 54.34 2.33C54.34 1.75 54.35 1.18 54.35 0.6C53.97 0.43 53.6 0.27 53.22 0.11C52.71 0.88 52.33 1.71 52.09 2.56C52.2 2.78 52.34 2.99 52.56 3.15C52.73 3.28 52.94 3.36 53.16 3.43Z" fill="#FF5A57" fill-opacity="1.000000" fill-rule="nonzero"/>
	<path id="Vector" d="M53.72 3.6L53.59 3.58C53.46 3.56 53.29 3.54 53.13 3.5C52.88 3.43 52.66 3.33 52.5 3.21C52.25 3.02 52.11 2.77 52.01 2.58L51.99 2.56L51.99 2.53C52.25 1.66 52.63 0.83 53.14 0.06L53.19 0L54.46 0.54L54.45 2.39L54.37 2.4C53.73 2.52 53.61 3.06 53.7 3.48L53.73 3.59L53.72 3.6ZM52.2 2.55C52.29 2.72 52.41 2.94 52.63 3.09C52.77 3.19 52.96 3.28 53.2 3.35C53.29 3.37 53.4 3.39 53.49 3.41C53.43 2.92 53.63 2.41 54.26 2.27L54.27 0.64L53.28 0.21C52.8 0.93 52.45 1.72 52.2 2.54L52.2 2.55Z" fill="#FFFFFF" fill-opacity="1.000000" fill-rule="nonzero"/>
	<path id="Vector" d="M32.57 34.34C32.27 34.12 32.12 33.8 31.82 33.59C31.3 33.26 30.55 33.36 29.9 33.44C28.52 33.58 27.11 33.48 25.79 33.14C25.5 33.06 25.19 32.97 24.97 32.79C24.78 32.65 24.66 32.44 24.43 32.33C24.02 32.13 23.38 32.28 23.11 31.96C23 31.83 23 31.67 22.92 31.52C22.65 30.98 21.64 31.04 21.05 30.7C20.56 30.41 20.39 29.86 19.9 29.58C19.48 29.34 18.88 29.32 18.54 29.01C18.31 28.81 18.23 28.52 17.98 28.35C17.62 28.09 17.01 28.15 16.67 27.88C16.47 27.71 16.4 27.46 16.17 27.32C15.89 27.15 15.45 27.2 15.24 26.97C15.12 26.84 15.12 26.67 15.03 26.53C14.87 26.3 14.51 26.21 14.19 26.17C12.8 25.98 11.36 26.05 10 26.36C9.7 26.43 9.4 26.52 9.09 26.54C8.66 26.57 8.23 26.49 7.81 26.54C7.38 26.58 6.93 26.82 6.93 27.17C6.46 26.85 5.64 27.36 5.81 27.84C6.03 28.49 7.23 28.57 7.64 29.15C7.89 29.51 7.76 30.01 7.4 30.31C7.04 30.61 6.5 30.74 5.99 30.75C5.61 30.76 5.12 30.77 5 31.06C4.94 31.21 5.02 31.38 4.98 31.53C4.89 31.89 4.29 31.96 3.83 31.94C4.01 32.25 3.92 32.65 3.63 32.89C3.35 33.14 2.86 33.23 2.46 33.1C2.46 32.94 2.46 32.77 2.35 32.63C2.25 32.49 2.01 32.4 1.84 32.48C1.53 32.01 0.81 31.96 0.11 32.01C-0.02 34.1 0.87 36.22 2.6 37.78C3.11 38.24 3.7 38.67 4.1 39.2C4.61 39.86 4.81 40.64 5.16 41.36C6.53 44.21 10.15 46.14 11.11 49.09C11.62 50.65 11.42 52.53 12.89 53.62C13.66 54.2 14.78 54.44 15.4 55.12C16.2 56.01 15.89 57.33 16.72 58.19C17.19 58.68 17.96 58.94 18.42 59.44C18.8 59.84 18.93 60.35 19.06 60.84C19.27 61.71 19.54 62.6 19.82 63.51C19.84 63.47 19.88 63.44 19.91 63.39C20.21 62.9 20.2 62.32 20.31 61.77C20.41 61.22 20.69 60.63 21.32 60.4C21.7 60.26 22.14 60.28 22.56 60.3C23.72 60.36 24.89 60.43 26.05 60.48C26.24 60.5 26.42 60.51 26.59 60.56C26.82 60.63 26.99 60.77 27.2 60.88C27.86 61.24 28.71 61.24 29.52 61.24C30.07 61.23 30.62 61.23 31.14 61.08C31.65 60.93 32.12 60.6 32.24 60.17C32.29 60.01 32.28 59.82 32.37 59.66C32.59 59.27 33.23 59.22 33.7 59.03C34.11 58.87 34.42 58.59 34.77 58.35C36.81 56.95 39.8 57.04 42.47 57.21C42.67 57.22 42.86 57.25 43.04 57.29C43.05 57.27 43.06 57.25 43.07 57.24C43.13 57.14 43.18 57.03 43.27 56.95C43.43 56.81 43.66 56.74 43.89 56.69C44.5 56.57 45.22 56.49 45.54 56.05C45.6 55.97 45.64 55.88 45.72 55.82C45.8 55.76 45.91 55.72 46.03 55.7C46.9 55.51 47.91 55.55 48.58 55.07C48.7 54.98 48.8 54.88 48.94 54.83C49.18 54.74 49.46 54.82 49.73 54.81C50.55 54.8 51.08 54.11 51.39 53.49C51.84 52.63 52.19 51.73 52.46 50.83C52.6 50.33 52.71 49.78 52.42 49.33C52.18 48.95 51.71 48.71 51.34 48.41C51.29 48.38 51.24 48.33 51.2 48.29C51.09 48.32 50.97 48.34 50.86 48.37C49.57 48.63 48.21 48.61 46.87 48.58C46.49 48.57 46.1 48.56 45.82 48.36C45.64 48.23 45.53 48.05 45.38 47.9C45.1 47.63 44.63 47.51 44.2 47.59C44.38 47.16 43.54 46.91 43.37 46.48C43.29 46.3 43.35 46.1 43.41 45.92C43.47 45.74 43.54 45.54 43.59 45.35C43.2 45.32 42.8 45.26 42.44 45.11C41.97 44.91 41.66 44.49 41.57 44.06C41.42 44.04 41.28 44.02 41.13 43.98C40.91 43.92 40.7 43.83 40.53 43.71C40.31 43.55 40.18 43.33 40.07 43.11C40.04 43.2 40.01 43.28 39.99 43.37C39.13 42.74 38.6 41.82 38.54 40.89C38.51 40.21 38.69 39.49 38.3 38.88C38.05 38.5 37.6 38.23 37.2 37.94C35.91 37.05 34.89 35.9 34.23 34.63C33.61 34.66 33.02 34.65 32.58 34.33L32.57 34.34Z" fill="#FF5A57" fill-opacity="1.000000" fill-rule="nonzero"/>
	<path id="Vector" d="M19.76 63.72L19.7 63.53C19.46 62.71 19.17 61.76 18.95 60.86C18.83 60.41 18.7 59.88 18.33 59.49C18.1 59.25 17.81 59.07 17.49 58.87C17.18 58.69 16.87 58.49 16.63 58.24C16.19 57.79 16.06 57.22 15.93 56.66C15.81 56.14 15.68 55.59 15.3 55.17C14.96 54.79 14.45 54.55 13.92 54.3C13.54 54.12 13.14 53.93 12.81 53.68C11.75 52.89 11.53 51.7 11.32 50.55C11.24 50.07 11.15 49.58 11 49.12C10.49 47.55 9.19 46.24 7.93 44.97C6.83 43.86 5.69 42.73 5.06 41.4C4.95 41.16 4.84 40.92 4.75 40.68C4.56 40.19 4.35 39.68 4.01 39.25C3.73 38.88 3.35 38.55 2.97 38.24C2.82 38.11 2.66 37.98 2.51 37.84C0.79 36.27 -0.13 34.15 0.01 32.01L0.01 31.95L0.09 31.94C0.98 31.87 1.58 32.02 1.87 32.39C2.06 32.35 2.31 32.44 2.43 32.59C2.53 32.74 2.55 32.9 2.55 33.05C2.89 33.14 3.31 33.05 3.56 32.84C3.82 32.61 3.9 32.26 3.73 31.97L3.67 31.86L3.83 31.86C3.88 31.87 3.92 31.87 3.97 31.87C4.27 31.87 4.8 31.82 4.88 31.52C4.89 31.46 4.88 31.39 4.88 31.32C4.87 31.23 4.86 31.13 4.89 31.04C5.03 30.7 5.57 30.68 5.95 30.68C6.53 30.66 7.01 30.52 7.31 30.25C7.66 29.96 7.76 29.5 7.54 29.19C7.36 28.95 7.02 28.79 6.68 28.63C6.27 28.44 5.84 28.25 5.7 27.87C5.64 27.69 5.7 27.48 5.86 27.31C6.11 27.05 6.53 26.93 6.85 27.05C6.95 26.73 7.38 26.52 7.79 26.47C7.99 26.45 8.24 26.45 8.49 26.47C8.68 26.48 8.88 26.49 9.08 26.47C9.32 26.45 9.57 26.39 9.81 26.33L9.96 26.29C11.33 25.98 12.8 25.91 14.2 26.1C14.53 26.15 14.94 26.24 15.11 26.5C15.16 26.57 15.18 26.65 15.2 26.72C15.23 26.79 15.26 26.87 15.31 26.93C15.41 27.04 15.58 27.07 15.77 27.12C15.92 27.15 16.09 27.19 16.23 27.27C16.37 27.35 16.46 27.47 16.54 27.59C16.6 27.68 16.66 27.76 16.74 27.83C16.9 27.95 17.12 28 17.36 28.05C17.6 28.11 17.85 28.16 18.04 28.3C18.19 28.4 18.28 28.54 18.37 28.68C18.44 28.79 18.5 28.89 18.6 28.97C18.78 29.13 19.04 29.2 19.31 29.28C19.53 29.35 19.76 29.41 19.95 29.53C20.21 29.68 20.38 29.89 20.55 30.11C20.71 30.31 20.87 30.51 21.1 30.64C21.32 30.77 21.61 30.84 21.89 30.91C22.34 31.02 22.82 31.14 23 31.51C23.04 31.57 23.06 31.63 23.07 31.7C23.09 31.79 23.12 31.87 23.17 31.93C23.3 32.09 23.55 32.11 23.82 32.14C24.04 32.16 24.26 32.18 24.46 32.28C24.62 32.35 24.73 32.47 24.83 32.58C24.89 32.64 24.95 32.7 25.02 32.76C25.22 32.91 25.47 33 25.81 33.08C27.11 33.42 28.51 33.52 29.87 33.37L29.99 33.36C30.27 33.33 30.56 33.29 30.84 33.29C31.28 33.29 31.61 33.37 31.87 33.55C32.04 33.66 32.17 33.81 32.29 33.95C32.4 34.08 32.5 34.2 32.63 34.29C32.89 34.5 33.25 34.59 33.78 34.59C33.92 34.59 34.06 34.58 34.2 34.57L34.27 34.57L34.3 34.62C34.96 35.89 35.98 37.03 37.24 37.9L37.4 38.01C37.76 38.26 38.14 38.51 38.36 38.86C38.65 39.31 38.64 39.83 38.62 40.32C38.62 40.51 38.6 40.71 38.62 40.9C38.67 41.78 39.14 42.62 39.9 43.24C39.9 43.23 39.9 43.22 39.91 43.22C39.92 43.18 39.93 43.15 39.94 43.11L40.01 42.86L40.13 43.09C40.22 43.27 40.35 43.5 40.58 43.66C40.72 43.77 40.91 43.86 41.14 43.92C41.29 43.96 41.45 43.99 41.56 44L41.63 44.01L41.65 44.06C41.75 44.5 42.06 44.89 42.47 45.06C42.78 45.19 43.15 45.27 43.58 45.29L43.7 45.29L43.49 45.97C43.44 46.12 43.38 46.31 43.44 46.48C43.51 46.64 43.69 46.78 43.87 46.92C44.1 47.09 44.33 47.27 44.31 47.51C44.74 47.47 45.18 47.61 45.45 47.86C45.52 47.93 45.57 48 45.63 48.06C45.7 48.15 45.78 48.24 45.87 48.31C46.12 48.49 46.48 48.51 46.87 48.52C47.25 48.53 47.68 48.53 48.1 48.53C48.86 48.53 49.86 48.51 50.83 48.31C50.94 48.29 51.05 48.26 51.17 48.23L51.23 48.22L51.27 48.26C51.31 48.3 51.36 48.34 51.4 48.37C51.51 48.46 51.64 48.54 51.75 48.63C52.03 48.82 52.33 49.03 52.51 49.3C52.8 49.77 52.7 50.33 52.55 50.85C52.28 51.77 51.92 52.67 51.48 53.54C51.02 54.43 50.43 54.9 49.72 54.9C49.62 54.9 49.54 54.9 49.46 54.89C49.28 54.88 49.1 54.88 48.98 54.92C48.89 54.95 48.81 55.01 48.72 55.08C48.7 55.1 48.67 55.12 48.64 55.14C48.15 55.49 47.5 55.57 46.87 55.66C46.59 55.69 46.31 55.73 46.05 55.79C45.93 55.81 45.84 55.84 45.78 55.89C45.74 55.92 45.7 55.98 45.67 56.03C45.65 56.05 45.63 56.08 45.62 56.1C45.33 56.5 44.71 56.63 44.16 56.73C44.08 56.75 43.99 56.76 43.91 56.78C43.71 56.83 43.48 56.88 43.35 57.01C43.27 57.08 43.22 57.18 43.16 57.27L43.1 57.4L43.01 57.37C42.85 57.34 42.67 57.31 42.46 57.3C41.69 57.25 40.86 57.21 40.03 57.21C37.68 57.21 36.03 57.59 34.83 58.42C34.74 58.48 34.65 58.54 34.57 58.61C34.31 58.79 34.05 58.99 33.73 59.11C33.59 59.17 33.44 59.21 33.3 59.25C32.93 59.36 32.59 59.46 32.45 59.7C32.4 59.79 32.38 59.9 32.36 60.01C32.35 60.07 32.35 60.14 32.33 60.2C32.21 60.62 31.76 60.99 31.16 61.16C30.63 61.32 30.03 61.32 29.51 61.33C28.7 61.33 27.82 61.33 27.14 60.96C27.07 60.92 27.01 60.89 26.95 60.85C26.82 60.77 26.69 60.69 26.55 60.65C26.39 60.6 26.22 60.59 26.05 60.58L22.55 60.4C22.4 60.39 22.25 60.38 22.11 60.38C21.8 60.38 21.56 60.42 21.36 60.49C20.7 60.74 20.48 61.42 20.41 61.8C20.38 61.95 20.36 62.09 20.34 62.23C20.29 62.65 20.23 63.07 20 63.45C19.98 63.47 19.96 63.49 19.94 63.52C19.93 63.53 19.91 63.55 19.91 63.56L19.78 63.73L19.76 63.72ZM0.2 32.09C0.09 34.16 0.98 36.21 2.65 37.73C2.8 37.86 2.95 38 3.11 38.13C3.49 38.45 3.88 38.78 4.18 39.16C4.53 39.61 4.74 40.13 4.93 40.63C5.03 40.86 5.12 41.1 5.23 41.33C5.86 42.64 6.99 43.77 8.08 44.87C9.35 46.15 10.66 47.47 11.19 49.08C11.34 49.55 11.43 50.05 11.52 50.53C11.73 51.7 11.94 52.81 12.94 53.57C13.26 53.81 13.65 53.99 14.02 54.16C14.54 54.41 15.09 54.67 15.46 55.08C15.86 55.53 15.99 56.09 16.12 56.63C16.25 57.2 16.37 57.73 16.78 58.15C17 58.38 17.31 58.57 17.6 58.75C17.91 58.94 18.23 59.14 18.48 59.4C18.88 59.82 19.01 60.36 19.14 60.84C19.35 61.67 19.6 62.54 19.84 63.31C20.02 62.97 20.07 62.58 20.12 62.21C20.14 62.07 20.16 61.92 20.19 61.78C20.29 61.27 20.55 60.61 21.25 60.34C21.48 60.26 21.74 60.22 22.08 60.22C22.23 60.22 22.39 60.23 22.54 60.24L26.03 60.42C26.22 60.43 26.41 60.44 26.6 60.5C26.77 60.55 26.91 60.64 27.05 60.72C27.11 60.76 27.16 60.8 27.23 60.83C27.86 61.17 28.71 61.18 29.49 61.17C30.02 61.17 30.57 61.16 31.08 61.01C31.5 60.89 32 60.6 32.12 60.17C32.14 60.11 32.14 60.05 32.15 59.99C32.17 59.87 32.19 59.76 32.25 59.64C32.42 59.33 32.82 59.21 33.21 59.1C33.34 59.06 33.5 59.02 33.62 58.97C33.91 58.86 34.15 58.68 34.4 58.49C34.49 58.43 34.58 58.36 34.67 58.3C35.91 57.45 37.6 57.05 40 57.05C40.84 57.05 41.67 57.1 42.44 57.14C42.63 57.15 42.8 57.17 42.95 57.21C43.01 57.1 43.07 57 43.17 56.91C43.35 56.75 43.6 56.67 43.83 56.63C43.91 56.62 44 56.6 44.09 56.58C44.62 56.48 45.17 56.37 45.42 56.03C45.44 56 45.45 55.98 45.47 55.96C45.51 55.9 45.55 55.83 45.62 55.78C45.72 55.7 45.85 55.66 45.97 55.63C46.25 55.58 46.53 55.53 46.81 55.5C47.44 55.42 48.04 55.35 48.47 55.02C48.5 55 48.53 54.99 48.55 54.97C48.64 54.9 48.74 54.82 48.86 54.78C49.02 54.72 49.23 54.72 49.44 54.74C49.52 54.74 49.6 54.75 49.67 54.75C50.3 54.74 50.83 54.32 51.26 53.48C51.7 52.62 52.06 51.73 52.32 50.82C52.47 50.32 52.56 49.8 52.3 49.38C52.14 49.13 51.87 48.95 51.59 48.75C51.47 48.67 51.34 48.58 51.22 48.48C51.19 48.46 51.16 48.42 51.13 48.4C51.04 48.42 50.94 48.44 50.85 48.46C49.85 48.67 48.83 48.69 48.06 48.69C47.64 48.69 47.21 48.68 46.83 48.68C46.41 48.67 46.01 48.64 45.71 48.43C45.59 48.35 45.51 48.25 45.43 48.15C45.38 48.09 45.33 48.02 45.27 47.97C45.02 47.73 44.57 47.61 44.19 47.68L44.02 47.71L44.08 47.57C44.16 47.37 43.95 47.21 43.71 47.03C43.52 46.87 43.32 46.72 43.24 46.52C43.16 46.31 43.23 46.1 43.29 45.92L43.44 45.43C43.03 45.4 42.68 45.32 42.37 45.19C41.92 45 41.58 44.61 41.46 44.14C41.34 44.13 41.2 44.11 41.07 44.07C40.82 44 40.6 43.9 40.44 43.78C40.28 43.66 40.16 43.51 40.07 43.37C40.07 43.38 40.07 43.39 40.06 43.41L40.03 43.54L39.9 43.45C39.02 42.79 38.49 41.87 38.43 40.91C38.41 40.71 38.43 40.51 38.43 40.32C38.44 39.82 38.46 39.35 38.19 38.93C37.98 38.61 37.62 38.37 37.28 38.13L37.11 38.02C35.85 37.14 34.83 36.01 34.15 34.73C34.02 34.74 33.91 34.74 33.79 34.74C33.4 34.74 32.89 34.71 32.5 34.41C32.35 34.3 32.24 34.16 32.14 34.04C32.02 33.9 31.91 33.76 31.75 33.66C31.53 33.52 31.23 33.45 30.84 33.45C30.57 33.45 30.29 33.48 30.03 33.51L29.9 33.52C28.52 33.67 27.09 33.57 25.75 33.23C25.45 33.15 25.13 33.05 24.89 32.86C24.81 32.8 24.75 32.74 24.69 32.67C24.59 32.57 24.49 32.47 24.37 32.4C24.21 32.33 24.01 32.31 23.81 32.29C23.51 32.26 23.2 32.22 23.02 32.01C22.94 31.92 22.91 31.82 22.89 31.72C22.87 31.67 22.85 31.61 22.83 31.55C22.68 31.25 22.27 31.16 21.84 31.05C21.55 30.98 21.24 30.91 20.99 30.76C20.73 30.61 20.56 30.4 20.39 30.18C20.23 29.98 20.07 29.78 19.84 29.65C19.67 29.55 19.47 29.49 19.25 29.43C18.97 29.34 18.67 29.26 18.46 29.07C18.35 28.97 18.27 28.86 18.2 28.75C18.12 28.62 18.04 28.5 17.91 28.41C17.76 28.3 17.54 28.25 17.31 28.2C17.06 28.14 16.8 28.09 16.6 27.93C16.5 27.85 16.43 27.75 16.37 27.66C16.29 27.55 16.22 27.45 16.11 27.39C16.01 27.32 15.86 27.29 15.72 27.26C15.51 27.21 15.3 27.16 15.16 27.02C15.08 26.93 15.05 26.84 15.02 26.75C15 26.68 14.97 26.62 14.94 26.57C14.81 26.36 14.46 26.29 14.18 26.25C12.81 26.06 11.36 26.13 10.02 26.44L9.87 26.48C9.62 26.54 9.36 26.6 9.1 26.62C8.89 26.64 8.68 26.63 8.47 26.62C8.25 26.61 8 26.6 7.82 26.62C7.43 26.66 7.02 26.88 7.02 27.17L7.02 27.34L6.86 27.23C6.63 27.08 6.23 27.17 6.01 27.4C5.94 27.48 5.82 27.64 5.89 27.82C6 28.14 6.38 28.31 6.78 28.49C7.14 28.66 7.51 28.82 7.71 29.11C7.97 29.48 7.87 30.01 7.46 30.36C7.11 30.65 6.59 30.82 5.98 30.83C5.61 30.84 5.18 30.85 5.08 31.09C5.05 31.15 5.06 31.23 5.06 31.31C5.07 31.39 5.08 31.47 5.06 31.54C4.99 31.85 4.6 32.02 3.96 32.02C4.08 32.34 3.97 32.71 3.69 32.95C3.38 33.22 2.84 33.32 2.41 33.18L2.35 33.16L2.35 33.11C2.35 32.96 2.35 32.8 2.26 32.68C2.18 32.57 1.99 32.5 1.88 32.56L1.79 32.6L1.74 32.52C1.51 32.18 1 32.03 0.2 32.09Z" fill="#FFFFFF" fill-opacity="1.000000" fill-rule="nonzero"/>
	<path id="Vector" d="M26.84 21.7C26.78 21.57 26.69 21.45 26.66 21.32C26.56 20.87 27.16 20.54 27.44 20.15C27.84 19.59 27.57 18.82 26.95 18.41C26.78 18.3 26.58 18.21 26.37 18.14C26.38 18.16 26.38 18.18 26.39 18.21L24.98 18.58C25.49 19.09 25.13 19.91 24.47 20.28C24.37 20.34 24.28 20.38 24.18 20.42C24.32 20.51 24.46 20.62 24.56 20.74C24.69 20.92 24.76 21.14 24.98 21.25C25.14 21.34 25.38 21.35 25.48 21.49C25.54 21.56 25.53 21.66 25.52 21.75C25.51 22.18 25.55 22.6 25.63 23.02C25.84 23.04 26.06 23.07 26.28 23.09C26.16 23.5 26.09 23.91 26.05 24.34C26.18 23.97 26.33 23.6 26.52 23.25C26.77 22.75 27.08 22.21 26.85 21.71L26.84 21.7Z" fill="#FF5A57" fill-opacity="1.000000" fill-rule="nonzero"/>
	<path id="Vector" d="M25.88 25.08L25.95 24.33C25.99 23.9 26.05 23.51 26.16 23.15L25.54 23.09L25.53 23.03C25.45 22.59 25.41 22.15 25.42 21.74C25.42 21.66 25.42 21.58 25.39 21.53C25.34 21.46 25.24 21.44 25.13 21.4C25.06 21.38 24.98 21.35 24.91 21.32C24.74 21.23 24.65 21.08 24.58 20.95C24.54 20.89 24.5 20.83 24.47 20.78C24.37 20.66 24.23 20.56 24.11 20.47L24 20.39L24.13 20.34C24.23 20.3 24.32 20.26 24.4 20.21C24.77 20 25.04 19.66 25.11 19.3C25.14 19.12 25.13 18.85 24.9 18.62L24.81 18.53L26.27 18.14L26.22 18L26.4 18.05C26.64 18.13 26.84 18.23 27.01 18.34C27.69 18.8 27.91 19.61 27.51 20.17C27.42 20.3 27.29 20.43 27.17 20.55C26.92 20.79 26.69 21.02 26.75 21.3C26.76 21.37 26.8 21.45 26.85 21.53C26.88 21.57 26.9 21.62 26.92 21.67C27.16 22.18 26.88 22.72 26.63 23.2L26.59 23.27C26.43 23.59 26.28 23.93 26.13 24.35L25.87 25.08L25.88 25.08ZM25.71 22.95L26.4 23.02L26.37 23.1C26.33 23.25 26.29 23.39 26.26 23.54C26.31 23.42 26.37 23.32 26.42 23.21L26.46 23.14C26.7 22.67 26.95 22.18 26.75 21.73C26.73 21.68 26.71 21.64 26.68 21.6C26.63 21.51 26.58 21.42 26.56 21.33C26.48 20.98 26.76 20.72 27.03 20.45C27.15 20.34 27.27 20.22 27.35 20.1C27.71 19.61 27.5 18.88 26.9 18.46C26.78 18.39 26.65 18.32 26.48 18.26L25.14 18.62C25.3 18.82 25.35 19.07 25.3 19.33C25.23 19.72 24.93 20.11 24.52 20.34C24.47 20.37 24.41 20.4 24.35 20.43C24.45 20.5 24.56 20.59 24.64 20.69C24.68 20.75 24.72 20.81 24.75 20.87C24.82 20.99 24.9 21.12 25.02 21.18C25.07 21.21 25.14 21.23 25.2 21.25C25.33 21.28 25.47 21.33 25.56 21.44C25.63 21.54 25.62 21.64 25.62 21.74C25.61 22.12 25.64 22.52 25.72 22.93L25.71 22.95Z" fill="#FFFFFF" fill-opacity="1.000000" fill-rule="nonzero"/>
	<path id="Vector" d="M49.76 11.57C49.72 11.45 49.61 11.37 49.57 11.25C49.51 11.09 49.61 10.93 49.67 10.77C49.98 10.03 49.74 9.15 49.06 8.59C48.86 8.42 48.61 8.23 48.67 8C48.74 7.8 49.03 7.71 49.24 7.57C49.68 7.29 49.73 6.77 49.74 6.31C49.74 5.99 49.67 5.57 49.28 5.49C49.12 5.46 48.91 5.48 48.82 5.37C48.78 5.32 48.78 5.25 48.76 5.19C48.65 4.84 48.01 4.81 47.75 4.52C47.36 4.09 48.02 3.41 47.64 2.97C47.51 2.82 47.28 2.75 47.08 2.66C46.68 2.46 46.38 2.16 45.98 1.96C44.8 1.35 43.25 1.83 41.84 1.9C41.51 2.07 41.18 2.25 40.85 2.41C40.62 2.53 40.37 2.68 40.38 2.89C38.3 3.41 36.08 3.93 33.96 3.51C32.63 3.25 31.46 2.64 30.25 2.13C29.03 1.62 27.74 1.21 26.42 0.9C24.8 0.52 23.02 0.3 21.44 0.77C21.01 0.91 20.59 1.09 20.18 1.27C19.01 1.78 17.84 2.3 16.82 2.98C15.67 2.96 14.53 2.94 13.39 2.91C12.98 2.9 12.53 2.9 12.17 3.07C11.81 3.25 11.6 3.66 11.85 3.93C10.61 4.58 9.11 4.87 7.63 4.79C6.84 4.75 6.03 4.61 5.27 4.8C4.51 4.99 3.88 5.69 4.24 6.26C4.74 6.34 5.23 6.42 5.73 6.49C6.05 7.16 6.36 7.97 5.82 8.54C5.45 8.95 4.69 9.26 4.86 9.74C5.07 10.32 6.38 10.17 6.61 10.74C6.69 10.93 6.6 11.14 6.58 11.35C6.53 11.99 7.34 12.59 8.12 12.49C7.67 12.9 8.38 13.51 9.05 13.62C9.72 13.73 10.55 13.74 10.87 14.23C10.99 14.43 11 14.66 11.1 14.86C11.39 15.43 12.3 15.6 13.07 15.53C14.45 15.41 15.91 14.47 15.62 13.37C16.63 13.67 17.63 13.97 18.63 14.27C20.33 15.62 23.31 15.72 25.13 14.49C25.44 14.29 25.75 14.04 26.15 14.03C26.42 14.03 26.66 14.14 26.92 14.2C27.67 14.38 28.55 14.09 28.94 13.54C28.94 14.44 28.93 15.35 28.92 16.25C28.92 16.29 28.92 16.34 28.92 16.38C29.18 16.22 29.45 16.04 29.53 15.78C29.58 15.62 29.56 15.46 29.64 15.32C29.88 14.82 30.93 14.89 31.2 14.4C31.25 14.32 31.27 14.23 31.34 14.16C31.44 14.07 31.62 14.06 31.78 14.05C33.66 14.01 35.55 13.96 37.4 14.19C37.96 14.25 38.53 14.34 39.07 14.22C39.81 14.04 40.36 13.49 41.11 13.37C41.54 13.3 42 13.38 42.45 13.34C43.41 13.25 44.21 12.58 45.18 12.59C45.22 12.65 45.22 12.71 45.22 12.78C45.4 12.73 45.57 12.69 45.76 12.68C46.72 12.61 47.68 13.11 48.64 12.97C48.81 12.94 49 12.9 49.15 12.94C49.38 12.65 49.54 12.3 49.68 11.97C49.74 11.84 49.8 11.7 49.75 11.57L49.76 11.57Z" fill="#FF5A57" fill-opacity="1.000000" fill-rule="nonzero"/>
	<path id="Vector" d="M28.84 16.55L28.84 16.26L28.86 13.8C28.51 14.13 27.96 14.34 27.4 14.34C27.23 14.34 27.07 14.32 26.9 14.28C26.83 14.26 26.75 14.24 26.68 14.22C26.51 14.17 26.35 14.12 26.19 14.12C25.85 14.12 25.58 14.31 25.32 14.5L25.21 14.56C24.37 15.13 23.25 15.44 22.07 15.44C20.74 15.44 19.47 15.05 18.59 14.35L15.76 13.51C15.81 13.88 15.68 14.26 15.37 14.6C14.88 15.14 13.99 15.55 13.09 15.63C12.98 15.64 12.88 15.64 12.77 15.64C11.91 15.64 11.26 15.37 11.03 14.91C10.98 14.81 10.95 14.71 10.93 14.61C10.89 14.5 10.86 14.38 10.79 14.28C10.56 13.92 9.98 13.85 9.43 13.77C9.3 13.76 9.17 13.74 9.04 13.72C8.55 13.64 8.06 13.31 7.93 12.98C7.88 12.85 7.88 12.71 7.95 12.6C7.56 12.6 7.18 12.45 6.89 12.2C6.62 11.97 6.47 11.66 6.5 11.36C6.5 11.3 6.52 11.24 6.52 11.17C6.55 11.03 6.57 10.9 6.52 10.78C6.42 10.53 6.08 10.44 5.71 10.33C5.31 10.22 4.89 10.1 4.77 9.77C4.63 9.39 4.99 9.11 5.35 8.85C5.49 8.74 5.63 8.63 5.75 8.51C6.23 7.99 5.97 7.25 5.65 6.58L4.18 6.35L4.16 6.31C4.01 6.08 4 5.81 4.14 5.54C4.33 5.17 4.76 4.86 5.24 4.74C5.5 4.67 5.8 4.64 6.15 4.64C6.46 4.64 6.78 4.66 7.08 4.69C7.27 4.71 7.45 4.72 7.63 4.73C9.08 4.81 10.53 4.51 11.71 3.93C11.64 3.82 11.62 3.69 11.65 3.55C11.7 3.34 11.88 3.14 12.11 3.03C12.43 2.87 12.81 2.85 13.14 2.85C13.23 2.85 13.3 2.85 13.39 2.85L16.78 2.92C17.8 2.24 18.98 1.72 20.12 1.22C20.53 1.04 20.95 0.85 21.4 0.72C22.02 0.53 22.7 0.44 23.44 0.44C24.32 0.44 25.3 0.57 26.44 0.83C27.77 1.14 29.06 1.56 30.29 2.08C30.56 2.19 30.83 2.31 31.1 2.43C32.01 2.84 32.96 3.25 33.98 3.45C34.49 3.55 35.02 3.6 35.59 3.6C37.21 3.6 38.9 3.18 40.28 2.85C40.31 2.63 40.54 2.48 40.78 2.36L41.79 1.84L41.82 1.84C42.2 1.82 42.62 1.77 43.01 1.72C43.5 1.66 44.02 1.6 44.5 1.6C45.12 1.6 45.59 1.7 46.01 1.91C46.21 2.01 46.39 2.13 46.56 2.26C46.74 2.39 46.91 2.51 47.12 2.6C47.16 2.62 47.21 2.65 47.25 2.67C47.41 2.74 47.58 2.81 47.7 2.95C47.91 3.19 47.84 3.49 47.77 3.78C47.7 4.05 47.64 4.3 47.81 4.49C47.91 4.6 48.08 4.67 48.26 4.75C48.51 4.85 48.76 4.96 48.83 5.19C48.83 5.21 48.85 5.23 48.85 5.25C48.85 5.29 48.86 5.32 48.88 5.34C48.92 5.39 48.99 5.4 49.12 5.41C49.17 5.41 49.23 5.42 49.29 5.43C49.64 5.5 49.82 5.81 49.81 6.32C49.81 6.8 49.76 7.34 49.28 7.65C49.22 7.68 49.15 7.72 49.08 7.75C48.93 7.83 48.78 7.91 48.74 8.03C48.69 8.2 48.89 8.36 49.07 8.51L49.11 8.54C49.81 9.12 50.06 10.03 49.74 10.8L49.71 10.86C49.65 10.99 49.59 11.12 49.64 11.23C49.66 11.28 49.69 11.33 49.72 11.37C49.76 11.43 49.81 11.49 49.83 11.55C49.89 11.72 49.81 11.89 49.76 12.01C49.61 12.34 49.45 12.69 49.21 12.99L49.17 13.05L49.1 13.03C49 13 48.84 13.02 48.7 13.04L48.65 13.05C48.52 13.07 48.39 13.08 48.25 13.08C47.85 13.08 47.46 13 47.08 12.92C46.64 12.83 46.2 12.74 45.76 12.77C45.6 12.78 45.44 12.81 45.24 12.86L45.1 12.9L45.1 12.78C45.11 12.75 45.1 12.71 45.1 12.68C44.63 12.69 44.2 12.87 43.75 13.05C43.33 13.22 42.91 13.39 42.45 13.43C42.27 13.45 42.05 13.44 41.83 13.43C41.73 13.43 41.62 13.43 41.52 13.43C41.36 13.43 41.24 13.44 41.12 13.45C40.74 13.52 40.41 13.69 40.07 13.88C39.77 14.05 39.45 14.22 39.09 14.3C38.64 14.41 38.06 14.35 37.53 14.29L37.38 14.27C36.44 14.15 35.4 14.1 34.14 14.1C33.35 14.1 32.56 14.12 31.78 14.14C31.64 14.14 31.49 14.16 31.41 14.23C31.37 14.26 31.35 14.31 31.33 14.36C31.32 14.38 31.31 14.42 31.29 14.44C31.14 14.71 30.8 14.83 30.46 14.93C30.14 15.04 29.84 15.13 29.73 15.35C29.69 15.43 29.68 15.51 29.67 15.6C29.66 15.67 29.65 15.74 29.63 15.81C29.54 16.1 29.25 16.29 28.99 16.46L28.83 16.56L28.84 16.55ZM29.06 13.25L29.04 16.22C29.22 16.1 29.39 15.95 29.45 15.77C29.47 15.71 29.48 15.64 29.49 15.58C29.5 15.49 29.52 15.39 29.56 15.3C29.7 15.01 30.06 14.9 30.4 14.79C30.71 14.69 31.01 14.59 31.13 14.37C31.14 14.35 31.16 14.33 31.16 14.3C31.19 14.24 31.22 14.17 31.28 14.12C31.41 14 31.61 13.98 31.8 13.98C32.57 13.96 33.37 13.94 34.16 13.94C35.44 13.94 36.48 13.99 37.44 14.11L37.59 14.13C38.1 14.2 38.64 14.24 39.06 14.15C39.39 14.07 39.69 13.91 39.98 13.74C40.33 13.55 40.68 13.36 41.1 13.29C41.23 13.27 41.37 13.26 41.54 13.26C41.65 13.26 41.75 13.26 41.86 13.27C42.06 13.27 42.26 13.28 42.45 13.27C42.88 13.23 43.29 13.06 43.69 12.9C44.16 12.71 44.64 12.52 45.18 12.52L45.27 12.52L45.29 12.57C45.31 12.6 45.33 12.63 45.33 12.68C45.5 12.64 45.63 12.62 45.77 12.61C46.24 12.58 46.71 12.67 47.16 12.76C47.55 12.84 47.91 12.91 48.29 12.91C48.41 12.91 48.53 12.9 48.64 12.89L48.69 12.88C48.83 12.86 48.99 12.84 49.12 12.85C49.32 12.58 49.48 12.26 49.61 11.94C49.66 11.81 49.71 11.69 49.67 11.59C49.65 11.54 49.62 11.49 49.59 11.44C49.55 11.39 49.5 11.33 49.48 11.26C49.42 11.1 49.49 10.94 49.56 10.79L49.59 10.74C49.89 10.02 49.65 9.18 49 8.64L48.97 8.61C48.76 8.44 48.51 8.23 48.59 7.98C48.65 7.8 48.84 7.7 49.02 7.61C49.08 7.58 49.14 7.55 49.19 7.51C49.61 7.25 49.64 6.75 49.65 6.31C49.65 6.01 49.59 5.63 49.27 5.57C49.23 5.56 49.18 5.55 49.14 5.55C49 5.54 48.85 5.52 48.76 5.41C48.72 5.36 48.7 5.31 48.69 5.26C48.69 5.24 48.68 5.22 48.68 5.21C48.63 5.04 48.43 4.96 48.2 4.87C48.01 4.79 47.81 4.71 47.68 4.56C47.47 4.32 47.54 4.02 47.61 3.73C47.68 3.46 47.74 3.21 47.57 3.02C47.48 2.92 47.34 2.86 47.19 2.79C47.14 2.77 47.09 2.75 47.04 2.72C46.83 2.62 46.64 2.49 46.46 2.36C46.3 2.24 46.13 2.12 45.94 2.02C45.56 1.83 45.11 1.74 44.54 1.74C44.07 1.74 43.56 1.8 43.07 1.86C42.67 1.91 42.27 1.96 41.88 1.98L40.91 2.48C40.7 2.58 40.49 2.72 40.49 2.88L40.49 2.94L40.42 2.96C39.02 3.3 37.28 3.74 35.61 3.74C35.02 3.74 34.48 3.68 33.95 3.58C32.9 3.38 31.95 2.96 31.02 2.55C30.75 2.43 30.48 2.31 30.22 2.2C29 1.69 27.72 1.28 26.41 0.97C25.29 0.71 24.32 0.58 23.46 0.58C22.74 0.58 22.08 0.67 21.49 0.85C21.05 0.98 20.64 1.17 20.23 1.34C19.09 1.85 17.91 2.37 16.89 3.05L16.86 3.07L13.4 3C13.32 3 13.24 3 13.16 3C12.86 3 12.51 3.02 12.23 3.16C12.05 3.25 11.91 3.41 11.86 3.58C11.84 3.66 11.83 3.79 11.94 3.9L12 3.97L11.91 4.02C10.69 4.65 9.15 4.96 7.63 4.89C7.45 4.88 7.27 4.86 7.08 4.84C6.78 4.82 6.46 4.79 6.16 4.79C5.84 4.79 5.56 4.82 5.31 4.89C4.88 5 4.5 5.28 4.33 5.6C4.25 5.75 4.19 5.97 4.32 6.2L5.81 6.44L5.83 6.48C6.18 7.2 6.46 8.01 5.91 8.61C5.8 8.73 5.64 8.85 5.5 8.97C5.18 9.21 4.87 9.45 4.97 9.73C5.07 9.98 5.41 10.08 5.78 10.18C6.18 10.29 6.59 10.41 6.72 10.73C6.78 10.88 6.75 11.04 6.72 11.2C6.71 11.25 6.7 11.32 6.69 11.37C6.67 11.63 6.8 11.89 7.04 12.1C7.33 12.35 7.74 12.48 8.12 12.43L8.4 12.39L8.21 12.56C8.1 12.66 8.06 12.79 8.12 12.92C8.23 13.2 8.67 13.48 9.09 13.56C9.21 13.58 9.34 13.59 9.47 13.61C10.04 13.69 10.7 13.77 10.98 14.21C11.06 14.32 11.09 14.45 11.12 14.57C11.15 14.67 11.17 14.76 11.21 14.84C11.51 15.43 12.48 15.48 12.77 15.48C12.87 15.48 12.97 15.48 13.07 15.47C13.92 15.39 14.76 15.01 15.22 14.5C15.53 14.15 15.64 13.77 15.54 13.4L15.51 13.26L18.72 14.22C19.56 14.89 20.78 15.28 22.07 15.28C23.21 15.28 24.28 14.98 25.09 14.43L25.19 14.36C25.46 14.17 25.77 13.96 26.16 13.95C26.38 13.95 26.56 14.01 26.73 14.06C26.81 14.08 26.88 14.1 26.96 14.12C27.09 14.15 27.24 14.17 27.39 14.17C28 14.17 28.58 13.91 28.86 13.51L29.05 13.25L29.06 13.25Z" fill="#FFFFFF" fill-opacity="1.000000" fill-rule="nonzero"/>
	<path id="Vector" d="M9.71 1.8C9.5 1.49 9.28 1.19 9.06 0.88C8.88 0.62 8.7 0.36 8.52 0.1C8.24 0.06 7.96 0.07 7.68 0.16C7.5 0.22 7.34 0.31 7.15 0.36C6.71 0.46 6.22 0.29 5.78 0.41C5.56 0.47 5.37 0.61 5.2 0.74C4.27 1.48 3.56 2.38 3.12 3.36C3.14 3.36 3.16 3.36 3.18 3.37C3.48 3.42 3.79 3.48 4 3.65C4.13 3.76 4.22 3.9 4.33 4.01C4.95 4.66 6.48 4.39 6.72 3.59C7.57 3.73 8.19 2.79 9.06 2.79C9.78 2.78 10.56 3.39 11.1 3.01C11.44 2.77 11.32 2.3 10.98 2.07C10.63 1.84 10.16 1.8 9.72 1.79L9.71 1.8Z" fill="#FF5A57" fill-opacity="1.000000" fill-rule="nonzero"/>
	<path id="Vector" d="M5.33 4.46C4.88 4.46 4.49 4.32 4.25 4.06C4.2 4.02 4.16 3.97 4.12 3.92C4.07 3.84 4.01 3.77 3.94 3.71C3.75 3.56 3.45 3.5 3.17 3.45L3.14 3.45C3.14 3.45 3.12 3.45 3.11 3.44L2.99 3.43L3.03 3.34C3.49 2.32 4.22 1.41 5.13 0.69C5.3 0.55 5.5 0.4 5.76 0.33C5.88 0.3 6.01 0.28 6.17 0.28C6.27 0.28 6.39 0.29 6.49 0.3C6.72 0.31 6.95 0.32 7.12 0.27C7.23 0.25 7.32 0.21 7.42 0.17C7.5 0.14 7.57 0.11 7.64 0.08C7.91 -0.01 8.19 -0.03 8.53 0.02L8.58 0.02L8.61 0.06C8.78 0.32 8.97 0.58 9.15 0.84L9.77 1.72C10.22 1.73 10.68 1.78 11.04 2.01C11.25 2.16 11.4 2.39 11.4 2.63C11.4 2.81 11.32 2.97 11.16 3.07C11.02 3.17 10.86 3.22 10.68 3.22C10.42 3.22 10.16 3.13 9.89 3.04C9.62 2.96 9.34 2.87 9.08 2.87C8.69 2.87 8.35 3.07 8.01 3.27C7.67 3.47 7.31 3.68 6.89 3.68C6.86 3.68 6.83 3.68 6.79 3.68C6.59 4.19 5.91 4.46 5.33 4.46ZM3.26 3.3C3.56 3.35 3.86 3.43 4.07 3.6C4.16 3.67 4.22 3.75 4.29 3.83C4.33 3.88 4.37 3.93 4.41 3.97C4.61 4.19 4.94 4.3 5.33 4.3C5.87 4.3 6.49 4.05 6.63 3.58L6.65 3.51L6.74 3.52C7.14 3.58 7.51 3.38 7.89 3.15C8.25 2.94 8.62 2.72 9.06 2.71C9.38 2.71 9.67 2.81 9.96 2.9C10.22 2.98 10.46 3.06 10.68 3.06C10.82 3.06 10.93 3.03 11.04 2.95C11.17 2.85 11.21 2.72 11.2 2.63C11.2 2.44 11.08 2.25 10.91 2.14C10.59 1.92 10.14 1.88 9.7 1.87L9.65 1.87L8.97 0.91C8.8 0.66 8.62 0.42 8.46 0.16C8.18 0.13 7.94 0.15 7.72 0.23C7.65 0.25 7.58 0.28 7.52 0.31C7.41 0.35 7.3 0.4 7.18 0.42C6.99 0.47 6.74 0.46 6.48 0.45C6.23 0.43 5.99 0.43 5.82 0.47C5.6 0.53 5.42 0.66 5.26 0.79C4.39 1.48 3.7 2.34 3.25 3.29L3.26 3.3Z" fill="#FFFFFF" fill-opacity="1.000000" fill-rule="nonzero"/>
</svg>
