<svg width="127.999756" height="125.647705" viewBox="0 0 128 125.648" fill="none" xmlns="http://www.w3.org/2000/svg" xmlns:xlink="http://www.w3.org/1999/xlink">
	<desc>
			Created with Pixso.
	</desc>
	<defs/>
	<path id="Vector" d="M104.72 11.54C105.06 12.39 106.73 12.87 106.37 13.72C107.21 13.57 108.15 13.82 108.7 14.35C109.01 14.64 109.2 15 109.55 15.25C110.1 15.63 110.89 15.68 111.62 15.69C114.26 15.74 116.94 15.8 119.49 15.26C119.71 15.22 119.94 15.17 120.16 15.11C119.57 14.53 119.18 13.75 119.62 13.1C120.2 12.23 121.93 12.08 122.25 11.13C122.4 10.67 122.15 10.15 122.34 9.69C122.56 9.18 123.24 8.92 123.7 8.54C124.06 8.24 124.3 7.86 124.62 7.53C125.09 7.02 125.73 6.65 126.42 6.36C127.22 5.12 127.99 3.77 127.72 2.38C127.44 0.95 125.44 -0.32 123.86 0.37C122.65 0.89 122.36 2.15 121.9 3.18C121.45 4.22 120.19 5.34 118.93 4.9C119.3 6.48 117.63 7.95 115.76 8.51C113.89 9.05 111.84 8.94 109.86 9.08C108.31 9.18 106.69 9.42 105.17 9.33C105.06 9.7 104.93 10.09 104.81 10.46C104.7 10.82 104.58 11.2 104.72 11.55L104.72 11.54Z" fill="#FF5A57" fill-opacity="1.000000" fill-rule="nonzero"/>
	<path id="Vector" d="M114.06 15.86C113.22 15.86 112.37 15.84 111.62 15.83C110.8 15.81 110.01 15.77 109.42 15.35C109.19 15.19 109.02 14.99 108.87 14.79C108.76 14.67 108.66 14.54 108.56 14.44C108.06 13.96 107.18 13.72 106.42 13.87L106.09 13.93L106.2 13.66C106.37 13.27 105.96 12.94 105.48 12.58C105.09 12.28 104.71 11.98 104.55 11.58C104.39 11.18 104.53 10.75 104.64 10.4L105.04 9.14L105.21 9.14C106.28 9.21 107.43 9.11 108.53 9.01C108.98 8.96 109.42 8.92 109.86 8.89C110.4 8.85 110.95 8.84 111.49 8.82C112.91 8.77 114.38 8.71 115.71 8.33C117.48 7.81 119.11 6.39 118.76 4.9L118.69 4.61L119.03 4.72C119.2 4.79 119.36 4.81 119.53 4.81C120.48 4.81 121.39 3.92 121.75 3.1C121.82 2.93 121.9 2.74 121.98 2.55C122.35 1.62 122.72 0.66 123.79 0.2C124.12 0.07 124.46 0 124.82 0C126.24 0 127.7 1.09 127.94 2.33C128.21 3.74 127.44 5.12 126.61 6.41L126.59 6.45L126.54 6.47C125.79 6.77 125.22 7.13 124.8 7.58C124.68 7.71 124.58 7.83 124.48 7.96C124.3 8.17 124.12 8.4 123.87 8.6C123.72 8.74 123.52 8.85 123.36 8.96C123.01 9.18 122.69 9.4 122.56 9.69C122.47 9.9 122.49 10.14 122.51 10.38C122.53 10.63 122.56 10.88 122.47 11.13C122.27 11.7 121.64 12 121.04 12.29C120.54 12.53 120.06 12.76 119.83 13.12C119.34 13.87 120.1 14.72 120.36 14.96L120.55 15.15L120.27 15.21C120.03 15.26 119.81 15.31 119.6 15.35C117.64 15.76 115.63 15.81 114.11 15.81L114.06 15.86ZM106.88 13.51C107.64 13.51 108.38 13.78 108.84 14.23C108.97 14.36 109.07 14.49 109.19 14.62C109.34 14.8 109.49 14.98 109.68 15.12C110.17 15.46 110.88 15.5 111.64 15.52C112.38 15.54 113.25 15.55 114.07 15.55C115.56 15.55 117.53 15.5 119.45 15.11C119.58 15.07 119.71 15.05 119.84 15.02C119.22 14.33 119.08 13.59 119.45 13.03C119.75 12.59 120.29 12.32 120.82 12.07C121.39 11.8 121.91 11.54 122.07 11.09C122.13 10.9 122.12 10.68 122.09 10.45C122.07 10.18 122.04 9.91 122.16 9.64C122.33 9.25 122.71 9.01 123.09 8.77C123.25 8.65 123.42 8.55 123.56 8.43C123.77 8.26 123.94 8.05 124.12 7.83C124.22 7.7 124.33 7.56 124.45 7.44C124.9 6.96 125.49 6.57 126.27 6.25C127.08 4.97 127.77 3.71 127.53 2.41C127.31 1.29 126.03 0.33 124.8 0.33C124.5 0.33 124.22 0.39 123.95 0.49C123.02 0.89 122.66 1.79 122.31 2.67C122.24 2.85 122.16 3.05 122.08 3.23C121.67 4.18 120.65 5.14 119.51 5.14C119.39 5.14 119.27 5.14 119.16 5.11C119.34 6.72 117.62 8.11 115.82 8.63C114.43 9.04 112.94 9.09 111.49 9.14C110.97 9.16 110.41 9.18 109.87 9.21C109.43 9.24 109 9.29 108.55 9.33C107.48 9.42 106.37 9.53 105.31 9.48L104.99 10.49C104.89 10.79 104.77 11.18 104.9 11.5C105.03 11.82 105.39 12.1 105.74 12.36C106.19 12.71 106.65 13.07 106.61 13.53C106.7 13.53 106.79 13.52 106.88 13.52L106.88 13.51Z" fill="#FFFFFF" fill-opacity="1.000000" fill-rule="nonzero"/>
	<path id="Vector" d="M104.8 6.76C105.08 6.83 105.36 6.88 105.66 6.91C105.44 5.88 105.87 4.84 107.13 4.6C107.13 3.45 107.14 2.32 107.15 1.18C106.41 0.86 105.66 0.53 104.93 0.22C103.92 1.74 103.17 3.37 102.7 5.04C102.92 5.48 103.19 5.91 103.61 6.22C103.95 6.47 104.37 6.63 104.8 6.76Z" fill="#FF5A57" fill-opacity="1.000000" fill-rule="nonzero"/>
	<path id="Vector" d="M105.91 7.09L105.65 7.06C105.4 7.03 105.07 6.99 104.75 6.9C104.24 6.76 103.82 6.56 103.5 6.32C103.01 5.96 102.72 5.47 102.53 5.09L102.51 5.05L102.51 4.99C103.01 3.27 103.77 1.64 104.77 0.13L104.86 0L107.37 1.08L107.35 4.71L107.19 4.74C105.93 4.97 105.69 6.04 105.87 6.87L105.92 7.08L105.91 7.09ZM102.9 5.03C103.08 5.37 103.33 5.79 103.75 6.1C104.04 6.3 104.41 6.48 104.87 6.6C105.07 6.66 105.27 6.69 105.45 6.72C105.33 5.76 105.74 4.77 106.96 4.47L106.99 1.26L105.03 0.42C104.1 1.85 103.39 3.39 102.92 5.01L102.9 5.03Z" fill="#FFFFFF" fill-opacity="1.000000" fill-rule="nonzero"/>
	<path id="Vector" d="M64.21 67.7C63.63 67.27 63.33 66.63 62.73 66.23C61.71 65.57 60.23 65.77 58.94 65.92C56.23 66.21 53.45 66.01 50.85 65.34C50.27 65.18 49.67 65.01 49.23 64.65C48.86 64.36 48.61 63.96 48.16 63.74C47.36 63.34 46.09 63.64 45.56 63.01C45.35 62.76 45.34 62.43 45.2 62.15C44.66 61.07 42.67 61.2 41.5 60.52C40.54 59.96 40.2 58.87 39.24 58.31C38.41 57.83 37.23 57.8 36.54 57.2C36.11 56.81 35.94 56.23 35.45 55.89C34.74 55.38 33.54 55.5 32.87 54.96C32.47 54.63 32.33 54.14 31.88 53.87C31.33 53.53 30.45 53.62 30.04 53.17C29.81 52.92 29.81 52.59 29.63 52.31C29.32 51.85 28.61 51.68 27.98 51.6C25.24 51.23 22.39 51.35 19.71 51.97C19.12 52.11 18.53 52.28 17.92 52.32C17.08 52.38 16.23 52.22 15.4 52.32C14.56 52.41 13.67 52.88 13.67 53.56C12.73 52.94 11.12 53.95 11.46 54.89C11.89 56.17 14.25 56.32 15.06 57.47C15.57 58.19 15.29 59.15 14.59 59.75C13.88 60.34 12.82 60.61 11.8 60.63C11.06 60.65 10.09 60.66 9.86 61.23C9.74 61.52 9.9 61.86 9.82 62.16C9.65 62.87 8.46 63 7.55 62.97C7.9 63.58 7.74 64.36 7.17 64.85C6.6 65.34 5.64 65.51 4.86 65.27C4.86 64.94 4.85 64.61 4.64 64.33C4.44 64.05 3.97 63.87 3.63 64.04C3.02 63.11 1.59 63 0.23 63.11C-0.03 67.22 1.72 71.41 5.12 74.48C6.14 75.4 7.3 76.23 8.1 77.28C9.1 78.58 9.49 80.12 10.18 81.54C12.87 87.15 20.01 90.96 21.9 96.78C22.91 99.86 22.52 103.56 25.42 105.71C26.94 106.84 29.14 107.33 30.36 108.67C31.93 110.42 31.33 113.02 32.96 114.72C33.89 115.69 35.41 116.2 36.32 117.17C37.07 117.96 37.33 118.97 37.57 119.95C38 121.65 38.53 123.42 39.07 125.2C39.12 125.12 39.2 125.06 39.25 124.98C39.84 124 39.83 122.86 40.03 121.78C40.24 120.7 40.79 119.53 42.03 119.08C42.78 118.79 43.65 118.84 44.48 118.88C46.77 119 49.07 119.13 51.37 119.24C51.73 119.26 52.09 119.28 52.42 119.39C52.87 119.52 53.22 119.8 53.62 120.02C54.93 120.73 56.61 120.74 58.19 120.73C59.27 120.72 60.37 120.71 61.39 120.41C62.4 120.11 63.33 119.47 63.56 118.63C63.65 118.3 63.64 117.93 63.82 117.62C64.24 116.85 65.51 116.75 66.43 116.37C67.25 116.05 67.86 115.5 68.55 115.03C72.56 112.27 78.46 112.46 83.73 112.79C84.12 112.81 84.49 112.86 84.85 112.94C84.88 112.91 84.89 112.87 84.91 112.84C85.03 112.64 85.13 112.43 85.31 112.27C85.62 111.99 86.07 111.86 86.52 111.77C87.72 111.52 89.15 111.36 89.78 110.5C89.9 110.35 89.98 110.17 90.13 110.04C90.3 109.92 90.52 109.86 90.75 109.81C92.46 109.43 94.44 109.51 95.77 108.56C96 108.39 96.21 108.19 96.48 108.1C96.96 107.92 97.51 108.07 98.04 108.06C99.66 108.04 100.7 106.68 101.32 105.46C102.2 103.76 102.89 101.99 103.42 100.2C103.7 99.23 103.92 98.15 103.34 97.25C102.87 96.5 101.94 96.04 101.21 95.44C101.12 95.37 101.03 95.29 100.94 95.2C100.72 95.26 100.48 95.31 100.27 95.35C97.72 95.88 95.04 95.83 92.4 95.78C91.66 95.76 90.88 95.72 90.32 95.34C89.98 95.09 89.77 94.73 89.47 94.44C88.92 93.91 87.98 93.66 87.14 93.81C87.49 92.97 85.83 92.48 85.49 91.63C85.35 91.28 85.47 90.89 85.58 90.54C85.7 90.16 85.83 89.78 85.94 89.41C85.16 89.35 84.39 89.23 83.68 88.93C82.74 88.53 82.13 87.7 81.95 86.86C81.66 86.83 81.37 86.79 81.09 86.7C80.65 86.58 80.24 86.41 79.9 86.16C79.48 85.85 79.21 85.43 78.99 84.99C78.94 85.17 78.87 85.33 78.84 85.51C77.15 84.25 76.11 82.45 75.99 80.61C75.91 79.27 76.27 77.85 75.5 76.65C75.01 75.9 74.14 75.37 73.34 74.81C70.79 73.04 68.79 70.77 67.49 68.27C66.27 68.33 65.11 68.32 64.23 67.68L64.21 67.7Z" fill="#FF5A57" fill-opacity="1.000000" fill-rule="nonzero"/>
	<path id="Vector" d="M38.97 125.62L38.85 125.25C38.36 123.63 37.79 121.76 37.36 119.99C37.12 119.09 36.87 118.06 36.14 117.28C35.69 116.8 35.11 116.45 34.48 116.06C33.88 115.7 33.26 115.31 32.78 114.83C31.92 113.93 31.66 112.8 31.41 111.7C31.17 110.67 30.92 109.6 30.17 108.77C29.49 108.02 28.5 107.55 27.45 107.05C26.69 106.69 25.91 106.32 25.25 105.84C23.16 104.28 22.74 101.93 22.33 99.66C22.16 98.72 21.98 97.74 21.68 96.84C20.68 93.74 18.12 91.16 15.63 88.66C13.47 86.48 11.23 84.23 9.98 81.61C9.76 81.14 9.55 80.67 9.37 80.2C8.98 79.23 8.57 78.23 7.92 77.37C7.35 76.64 6.6 76 5.87 75.39C5.56 75.13 5.25 74.87 4.95 74.6C1.55 71.51 -0.25 67.33 0.02 63.11L0.02 62.98L0.19 62.97C1.94 62.82 3.11 63.12 3.69 63.85C4.07 63.77 4.55 63.95 4.79 64.26C4.99 64.54 5.03 64.87 5.03 65.16C5.7 65.33 6.53 65.16 7.01 64.75C7.54 64.3 7.68 63.59 7.36 63.03L7.23 62.8L7.56 62.8C7.65 62.82 7.74 62.82 7.83 62.82C8.43 62.82 9.47 62.73 9.62 62.14C9.64 62.02 9.63 61.89 9.62 61.75C9.6 61.57 9.58 61.38 9.65 61.19C9.92 60.53 10.98 60.5 11.74 60.49C12.87 60.45 13.81 60.16 14.42 59.64C15.1 59.06 15.3 58.17 14.87 57.55C14.52 57.07 13.84 56.75 13.18 56.45C12.36 56.08 11.51 55.69 11.25 54.95C11.12 54.58 11.25 54.18 11.56 53.84C12.05 53.33 12.89 53.1 13.51 53.33C13.7 52.69 14.56 52.28 15.36 52.18C15.76 52.14 16.25 52.15 16.74 52.18C17.12 52.2 17.51 52.22 17.9 52.18C18.39 52.14 18.86 52.03 19.34 51.91L19.65 51.84C22.34 51.22 25.24 51.08 28.01 51.47C28.65 51.56 29.45 51.72 29.8 52.25C29.89 52.39 29.94 52.54 29.98 52.67C30.03 52.83 30.08 52.98 30.18 53.1C30.38 53.3 30.72 53.38 31.08 53.46C31.39 53.53 31.73 53.61 32 53.76C32.28 53.93 32.45 54.17 32.6 54.4C32.73 54.57 32.85 54.74 33 54.86C33.31 55.11 33.76 55.21 34.23 55.31C34.7 55.41 35.19 55.52 35.57 55.79C35.86 56 36.04 56.27 36.21 56.54C36.35 56.75 36.48 56.95 36.67 57.12C37.03 57.43 37.54 57.58 38.08 57.73C38.5 57.86 38.95 57.98 39.33 58.21C39.84 58.51 40.18 58.94 40.51 59.35C40.83 59.76 41.14 60.15 41.59 60.41C42.03 60.66 42.6 60.81 43.15 60.94C44.05 61.16 44.99 61.39 45.35 62.12C45.42 62.24 45.46 62.37 45.48 62.49C45.53 62.67 45.58 62.82 45.69 62.96C45.95 63.26 46.42 63.31 46.96 63.36C47.4 63.41 47.84 63.45 48.22 63.63C48.53 63.78 48.75 64.01 48.96 64.23C49.07 64.35 49.19 64.48 49.33 64.58C49.72 64.88 50.22 65.06 50.88 65.22C53.44 65.89 56.21 66.09 58.89 65.8L59.13 65.76C59.67 65.7 60.24 65.64 60.79 65.64C61.67 65.64 62.31 65.8 62.83 66.14C63.18 66.37 63.42 66.66 63.67 66.94C63.87 67.19 64.06 67.42 64.32 67.6C64.85 68.01 65.56 68.19 66.6 68.19C66.87 68.19 67.14 68.18 67.43 68.15L67.57 68.15L67.62 68.25C68.93 70.76 70.94 73 73.41 74.72L73.74 74.94C74.44 75.43 75.19 75.93 75.63 76.61C76.2 77.5 76.17 78.52 76.13 79.49C76.13 79.87 76.11 80.26 76.13 80.64C76.23 82.36 77.16 84.02 78.67 85.24C78.67 85.23 78.67 85.21 78.68 85.2C78.71 85.12 78.72 85.06 78.75 84.99L78.89 84.5L79.12 84.96C79.3 85.31 79.56 85.76 80 86.08C80.28 86.29 80.65 86.47 81.12 86.59C81.4 86.67 81.71 86.71 81.94 86.74L82.08 86.76L82.11 86.87C82.3 87.73 82.92 88.49 83.73 88.82C84.35 89.08 85.07 89.24 85.92 89.29L86.15 89.29L85.74 90.62C85.64 90.92 85.52 91.31 85.65 91.63C85.78 91.95 86.14 92.23 86.49 92.49C86.94 92.84 87.4 93.2 87.36 93.66C88.2 93.58 89.06 93.86 89.6 94.36C89.73 94.49 89.83 94.62 89.95 94.75C90.1 94.93 90.25 95.11 90.44 95.25C90.93 95.59 91.64 95.63 92.4 95.65C93.14 95.67 94.01 95.68 94.83 95.68C96.32 95.68 98.3 95.63 100.21 95.24C100.43 95.19 100.65 95.14 100.88 95.09L101 95.06L101.08 95.14C101.15 95.23 101.24 95.3 101.33 95.36C101.55 95.54 101.8 95.7 102.03 95.87C102.58 96.25 103.16 96.66 103.51 97.2C104.09 98.11 103.9 99.22 103.6 100.26C103.07 102.05 102.37 103.83 101.49 105.55C100.58 107.31 99.42 108.23 98.02 108.24C97.83 108.24 97.66 108.23 97.51 108.22C97.15 108.18 96.8 108.18 96.56 108.27C96.38 108.33 96.22 108.45 96.05 108.58C96 108.62 95.95 108.66 95.89 108.7C94.93 109.39 93.65 109.56 92.4 109.72C91.86 109.8 91.3 109.87 90.79 109.98C90.56 110.03 90.38 110.09 90.26 110.18C90.17 110.25 90.1 110.36 90.03 110.46C90 110.5 89.96 110.55 89.94 110.6C89.36 111.4 88.15 111.63 87.07 111.84C86.9 111.87 86.73 111.9 86.56 111.95C86.16 112.03 85.73 112.14 85.46 112.39C85.3 112.54 85.2 112.73 85.1 112.91L84.97 113.15L84.8 113.11C84.48 113.04 84.12 112.99 83.7 112.96C82.18 112.87 80.55 112.78 78.91 112.78C74.29 112.78 71.03 113.54 68.66 115.17C68.48 115.29 68.31 115.42 68.15 115.54C67.64 115.91 67.13 116.29 66.5 116.54C66.23 116.64 65.93 116.73 65.65 116.81C64.93 117.02 64.25 117.22 63.97 117.7C63.87 117.88 63.85 118.09 63.81 118.3C63.78 118.43 63.77 118.56 63.73 118.68C63.5 119.5 62.62 120.23 61.44 120.57C60.38 120.88 59.21 120.89 58.18 120.9C56.58 120.9 54.84 120.9 53.5 120.18C53.38 120.1 53.26 120.03 53.13 119.96C52.87 119.8 52.63 119.65 52.35 119.56C52.04 119.47 51.69 119.45 51.35 119.43L44.46 119.07C44.17 119.05 43.87 119.03 43.59 119.03C42.98 119.03 42.51 119.11 42.12 119.25C40.82 119.74 40.38 121.08 40.24 121.84C40.19 122.12 40.15 122.41 40.11 122.69C40.01 123.5 39.89 124.33 39.43 125.08C39.39 125.13 39.35 125.18 39.31 125.23C39.29 125.25 39.26 125.28 39.25 125.31L39 125.64L38.97 125.62ZM0.4 63.26C0.18 67.34 1.94 71.4 5.24 74.39C5.53 74.65 5.83 74.91 6.14 75.17C6.89 75.8 7.65 76.45 8.24 77.21C8.93 78.1 9.35 79.12 9.73 80.09C9.91 80.55 10.11 81.03 10.32 81.49C11.56 84.06 13.78 86.3 15.93 88.46C18.44 90.99 21.03 93.59 22.06 96.75C22.35 97.68 22.53 98.67 22.71 99.61C23.14 101.93 23.54 104.12 25.52 105.61C26.15 106.08 26.91 106.44 27.65 106.78C28.68 107.27 29.76 107.78 30.48 108.59C31.28 109.47 31.53 110.57 31.78 111.65C32.04 112.76 32.28 113.81 33.08 114.64C33.52 115.1 34.12 115.46 34.7 115.82C35.32 116.2 35.95 116.58 36.44 117.1C37.23 117.93 37.48 119 37.73 119.94C38.14 121.57 38.64 123.28 39.11 124.81C39.47 124.15 39.57 123.38 39.67 122.65C39.71 122.36 39.75 122.07 39.8 121.79C40 120.79 40.51 119.48 41.9 118.96C42.35 118.79 42.87 118.72 43.54 118.72C43.83 118.72 44.14 118.73 44.44 118.75L51.33 119.12C51.7 119.14 52.08 119.16 52.44 119.27C52.77 119.38 53.05 119.54 53.32 119.71C53.44 119.78 53.56 119.85 53.68 119.92C54.93 120.59 56.61 120.61 58.14 120.59C59.18 120.59 60.27 120.57 61.27 120.28C62.11 120.03 63.09 119.47 63.32 118.62C63.36 118.5 63.37 118.38 63.38 118.26C63.42 118.04 63.46 117.81 63.58 117.58C63.92 116.97 64.71 116.74 65.47 116.52C65.74 116.44 66.04 116.35 66.28 116.26C66.86 116.03 67.34 115.69 67.83 115.31C68.01 115.19 68.17 115.05 68.35 114.94C70.8 113.26 74.14 112.47 78.86 112.47C80.51 112.47 82.16 112.56 83.68 112.65C84.05 112.67 84.37 112.72 84.68 112.78C84.8 112.57 84.91 112.36 85.11 112.19C85.46 111.87 85.96 111.73 86.41 111.65C86.58 111.61 86.74 111.58 86.92 111.54C87.97 111.34 89.05 111.14 89.55 110.45C89.58 110.41 89.6 110.37 89.64 110.33C89.72 110.2 89.81 110.07 89.94 109.96C90.13 109.81 90.39 109.73 90.63 109.68C91.17 109.57 91.74 109.48 92.28 109.42C93.52 109.26 94.7 109.11 95.57 108.48C95.62 108.43 95.67 108.4 95.72 108.36C95.9 108.23 96.08 108.08 96.32 107.99C96.63 107.87 97.05 107.87 97.47 107.91C97.63 107.92 97.78 107.94 97.92 107.94C99.17 107.92 100.21 107.08 101.06 105.43C101.93 103.74 102.64 101.98 103.15 100.19C103.43 99.21 103.63 98.18 103.1 97.35C102.79 96.86 102.26 96.49 101.71 96.11C101.46 95.94 101.22 95.77 100.99 95.58C100.92 95.53 100.86 95.46 100.79 95.41C100.61 95.45 100.42 95.5 100.24 95.54C98.28 95.94 96.27 95.99 94.75 95.99C93.92 95.99 93.07 95.97 92.32 95.96C91.5 95.94 90.71 95.9 90.12 95.49C89.89 95.32 89.72 95.12 89.56 94.92C89.46 94.8 89.36 94.67 89.25 94.57C88.75 94.09 87.88 93.85 87.12 94L86.78 94.06L86.9 93.79C87.07 93.4 86.65 93.07 86.18 92.71C85.79 92.41 85.4 92.11 85.25 91.71C85.08 91.31 85.22 90.88 85.34 90.53L85.65 89.57C84.84 89.5 84.14 89.34 83.54 89.09C82.65 88.72 81.98 87.94 81.73 87.03C81.5 87 81.23 86.95 80.97 86.88C80.47 86.75 80.05 86.55 79.72 86.31C79.4 86.07 79.17 85.78 78.99 85.5C78.99 85.52 78.99 85.55 78.98 85.57L78.91 85.84L78.66 85.65C76.93 84.37 75.87 82.55 75.76 80.65C75.73 80.26 75.76 79.87 75.76 79.48C75.78 78.49 75.82 77.57 75.29 76.76C74.88 76.12 74.17 75.65 73.49 75.18L73.17 74.96C70.68 73.23 68.66 70.99 67.32 68.48C67.08 68.49 66.85 68.5 66.61 68.5C65.84 68.5 64.85 68.42 64.06 67.83C63.78 67.61 63.56 67.35 63.36 67.1C63.12 66.82 62.91 66.56 62.6 66.37C62.16 66.08 61.58 65.94 60.81 65.94C60.28 65.94 59.73 66 59.2 66.06L58.95 66.09C56.22 66.38 53.4 66.18 50.77 65.5C50.17 65.35 49.54 65.15 49.07 64.79C48.92 64.67 48.8 64.54 48.68 64.4C48.48 64.21 48.29 64.01 48.04 63.88C47.74 63.74 47.34 63.7 46.94 63.65C46.34 63.59 45.74 63.53 45.38 63.11C45.22 62.94 45.17 62.74 45.12 62.54C45.08 62.43 45.06 62.31 45.01 62.21C44.71 61.62 43.91 61.43 43.06 61.22C42.48 61.08 41.88 60.93 41.39 60.65C40.87 60.35 40.54 59.92 40.2 59.51C39.88 59.1 39.57 58.71 39.12 58.45C38.79 58.25 38.39 58.14 37.96 58.01C37.39 57.85 36.81 57.68 36.4 57.32C36.18 57.12 36.03 56.89 35.89 56.67C35.72 56.42 35.57 56.18 35.32 56.02C35.01 55.8 34.59 55.7 34.14 55.6C33.63 55.49 33.12 55.38 32.73 55.07C32.54 54.91 32.4 54.72 32.27 54.53C32.11 54.32 31.97 54.13 31.77 53.99C31.56 53.87 31.28 53.8 30.99 53.74C30.58 53.65 30.16 53.55 29.89 53.26C29.73 53.1 29.68 52.92 29.62 52.73C29.58 52.61 29.53 52.48 29.46 52.38C29.19 51.97 28.51 51.83 27.95 51.76C25.25 51.38 22.4 51.52 19.76 52.13L19.45 52.2C18.97 52.32 18.46 52.44 17.94 52.48C17.52 52.51 17.12 52.49 16.71 52.48C16.26 52.46 15.78 52.45 15.41 52.48C14.65 52.57 13.85 53 13.85 53.57L13.85 53.9L13.53 53.69C13.07 53.39 12.29 53.56 11.86 54.02C11.72 54.18 11.48 54.49 11.61 54.85C11.83 55.48 12.58 55.82 13.36 56.17C14.07 56.49 14.81 56.83 15.21 57.39C15.72 58.13 15.51 59.17 14.7 59.85C14.02 60.42 12.99 60.76 11.79 60.79C11.07 60.81 10.21 60.83 10.02 61.29C9.96 61.42 9.98 61.57 9.99 61.72C10 61.88 10.02 62.03 9.99 62.19C9.85 62.79 9.07 63.12 7.81 63.14C8.04 63.76 7.84 64.49 7.28 64.96C6.67 65.49 5.61 65.68 4.76 65.42L4.64 65.38L4.64 65.28C4.64 64.98 4.63 64.66 4.45 64.42C4.3 64.21 3.92 64.08 3.7 64.18L3.52 64.27L3.43 64.12C2.98 63.45 1.97 63.16 0.4 63.26Z" fill="#FFFFFF" fill-opacity="1.000000" fill-rule="nonzero"/>
	<path id="Vector" d="M52.92 42.78C52.81 42.53 52.63 42.3 52.56 42.03C52.37 41.14 53.54 40.5 54.09 39.72C54.88 38.62 54.35 37.11 53.14 36.3C52.79 36.07 52.41 35.89 52 35.76C52.01 35.8 52.01 35.85 52.02 35.89L49.25 36.63C50.26 37.64 49.55 39.25 48.24 39.99C48.05 40.09 47.86 40.18 47.67 40.26C47.95 40.45 48.22 40.65 48.42 40.89C48.69 41.24 48.81 41.68 49.24 41.9C49.56 42.08 50.04 42.1 50.23 42.37C50.35 42.51 50.33 42.7 50.32 42.88C50.3 43.72 50.37 44.55 50.53 45.38C50.95 45.42 51.38 45.48 51.82 45.52C51.57 46.33 51.43 47.15 51.36 47.98C51.62 47.25 51.92 46.54 52.28 45.83C52.78 44.85 53.39 43.78 52.94 42.8L52.92 42.78Z" fill="#FF5A57" fill-opacity="1.000000" fill-rule="nonzero"/>
	<path id="Vector" d="M51.03 49.45L51.16 47.96C51.24 47.12 51.36 46.36 51.57 45.64L50.36 45.52L50.33 45.4C50.17 44.53 50.09 43.68 50.11 42.87C50.11 42.71 50.11 42.56 50.05 42.44C49.96 42.32 49.77 42.27 49.55 42.19C49.41 42.15 49.25 42.1 49.11 42.03C48.78 41.85 48.61 41.57 48.45 41.3C48.39 41.18 48.31 41.07 48.23 40.97C48.04 40.73 47.77 40.53 47.53 40.36L47.31 40.21L47.56 40.1C47.77 40.02 47.95 39.94 48.11 39.84C48.84 39.44 49.37 38.75 49.5 38.06C49.56 37.69 49.55 37.17 49.08 36.72L48.92 36.54L51.79 35.77L51.7 35.48L52.05 35.59C52.52 35.75 52.92 35.94 53.24 36.15C54.6 37.07 55.03 38.66 54.24 39.77C54.06 40.03 53.8 40.27 53.57 40.51C53.08 40.99 52.61 41.44 52.73 41.98C52.77 42.14 52.84 42.29 52.93 42.44C52.99 42.54 53.04 42.63 53.08 42.72C53.54 43.72 52.99 44.79 52.5 45.74L52.42 45.88C52.1 46.51 51.81 47.18 51.52 48.01L51 49.45L51.03 49.45ZM50.69 45.24L52.05 45.38L52 45.55C51.92 45.83 51.84 46.11 51.78 46.4C51.88 46.18 51.98 45.98 52.09 45.77L52.16 45.62C52.64 44.69 53.14 43.72 52.74 42.84C52.7 42.75 52.65 42.67 52.6 42.58C52.51 42.41 52.41 42.23 52.37 42.05C52.21 41.37 52.77 40.84 53.3 40.32C53.53 40.09 53.76 39.86 53.93 39.63C54.62 38.66 54.21 37.21 53.03 36.4C52.79 36.25 52.54 36.11 52.21 36L49.56 36.71C49.87 37.1 49.99 37.59 49.88 38.11C49.74 38.89 49.15 39.66 48.34 40.1C48.23 40.17 48.12 40.22 48 40.27C48.21 40.42 48.41 40.59 48.57 40.79C48.66 40.9 48.74 41.03 48.8 41.15C48.94 41.39 49.08 41.63 49.33 41.76C49.43 41.81 49.56 41.85 49.69 41.89C49.93 41.96 50.22 42.06 50.39 42.28C50.53 42.46 50.51 42.67 50.51 42.86C50.49 43.62 50.55 44.41 50.71 45.22L50.69 45.24Z" fill="#FFFFFF" fill-opacity="1.000000" fill-rule="nonzero"/>
	<path id="Vector" d="M98.1 22.81C98.03 22.59 97.81 22.41 97.73 22.18C97.61 21.87 97.79 21.55 97.92 21.24C98.54 19.77 98.07 18.04 96.73 16.93C96.33 16.6 95.82 16.23 95.95 15.78C96.08 15.37 96.66 15.2 97.07 14.94C97.95 14.38 98.04 13.35 98.05 12.44C98.05 11.81 97.92 10.99 97.15 10.83C96.83 10.77 96.43 10.81 96.25 10.59C96.16 10.49 96.16 10.35 96.12 10.23C95.9 9.54 94.65 9.48 94.14 8.91C93.38 8.06 94.68 6.72 93.92 5.87C93.66 5.56 93.21 5.43 92.82 5.24C92.03 4.86 91.43 4.25 90.65 3.86C88.32 2.68 85.26 3.62 82.48 3.76C81.83 4.09 81.18 4.43 80.53 4.76C80.09 4.99 79.6 5.28 79.61 5.7C75.5 6.72 71.14 7.76 66.95 6.93C64.34 6.41 62.03 5.21 59.64 4.21C57.23 3.2 54.69 2.38 52.09 1.77C48.9 1.02 45.39 0.6 42.28 1.53C41.41 1.79 40.59 2.16 39.78 2.51C37.49 3.52 35.17 4.55 33.16 5.89C30.91 5.84 28.65 5.79 26.41 5.75C25.59 5.73 24.71 5.73 24 6.06C23.29 6.41 22.87 7.23 23.37 7.76C20.92 9.02 17.96 9.6 15.05 9.45C13.49 9.37 11.88 9.09 10.39 9.46C8.9 9.84 7.65 11.23 8.37 12.35C9.35 12.51 10.31 12.65 11.29 12.81C11.94 14.12 12.54 15.72 11.49 16.85C10.75 17.64 9.26 18.26 9.59 19.2C10 20.34 12.58 20.05 13.03 21.17C13.19 21.56 13.02 21.97 12.98 22.38C12.88 23.65 14.47 24.82 16.02 24.62C15.12 25.43 16.53 26.63 17.85 26.86C19.16 27.08 20.81 27.1 21.43 28.06C21.67 28.45 21.68 28.9 21.89 29.3C22.46 30.43 24.26 30.75 25.77 30.63C28.5 30.39 31.37 28.53 30.8 26.37C32.79 26.96 34.77 27.54 36.74 28.14C40.07 30.8 45.96 30.99 49.55 28.57C50.16 28.17 50.78 27.68 51.56 27.67C52.09 27.67 52.57 27.88 53.07 27.99C54.55 28.34 56.29 27.78 57.06 26.7C57.06 28.48 57.04 30.26 57.02 32.03C57.02 32.13 57.02 32.21 57.02 32.3C57.54 31.98 58.05 31.62 58.22 31.11C58.32 30.81 58.28 30.48 58.43 30.2C58.92 29.23 60.98 29.35 61.52 28.4C61.61 28.24 61.65 28.06 61.79 27.93C61.99 27.74 62.34 27.72 62.66 27.71C66.36 27.62 70.08 27.52 73.74 27.97C74.83 28.1 75.97 28.28 77.02 28.03C78.48 27.69 79.56 26.6 81.04 26.36C81.9 26.22 82.8 26.39 83.68 26.31C85.59 26.13 87.16 24.81 89.08 24.83C89.14 24.95 89.15 25.07 89.15 25.19C89.5 25.1 89.85 25.03 90.21 25.01C92.12 24.87 94 25.85 95.89 25.57C96.22 25.52 96.6 25.44 96.91 25.52C97.36 24.93 97.67 24.26 97.95 23.6C98.07 23.34 98.17 23.06 98.08 22.8L98.1 22.81Z" fill="#FF5A57" fill-opacity="1.000000" fill-rule="nonzero"/>
	<path id="Vector" d="M56.87 32.63L56.87 32.05L56.89 27.21C56.2 27.86 55.13 28.27 54.02 28.27C53.69 28.27 53.37 28.23 53.04 28.16C52.89 28.11 52.73 28.07 52.59 28.03C52.26 27.94 51.95 27.84 51.63 27.84C50.97 27.84 50.44 28.22 49.91 28.58L49.71 28.72C48.05 29.83 45.84 30.45 43.51 30.45C40.89 30.45 38.39 29.67 36.66 28.3L31.07 26.64C31.18 27.38 30.92 28.11 30.31 28.78C29.35 29.86 27.58 30.66 25.82 30.82C25.6 30.84 25.39 30.85 25.17 30.85C23.49 30.85 22.2 30.31 21.75 29.39C21.66 29.2 21.59 29.01 21.54 28.81C21.48 28.58 21.41 28.35 21.29 28.17C20.82 27.45 19.69 27.3 18.59 27.16C18.34 27.13 18.08 27.08 17.83 27.05C16.87 26.89 15.9 26.25 15.64 25.6C15.54 25.33 15.54 25.07 15.67 24.84C14.91 24.84 14.16 24.55 13.6 24.06C13.06 23.59 12.76 22.99 12.81 22.41C12.81 22.28 12.85 22.16 12.86 22.02C12.91 21.75 12.97 21.49 12.86 21.25C12.67 20.77 11.99 20.58 11.25 20.37C10.47 20.15 9.64 19.92 9.41 19.27C9.14 18.52 9.85 17.97 10.55 17.45C10.83 17.23 11.11 17.02 11.33 16.79C12.28 15.76 11.78 14.29 11.15 12.97L8.24 12.52L8.2 12.45C7.9 12 7.89 11.47 8.16 10.93C8.54 10.2 9.39 9.58 10.33 9.35C10.85 9.21 11.45 9.15 12.13 9.15C12.75 9.15 13.37 9.2 13.97 9.25C14.33 9.28 14.69 9.31 15.05 9.32C17.9 9.48 20.77 8.9 23.09 7.75C22.95 7.53 22.91 7.28 22.97 7.01C23.08 6.58 23.42 6.19 23.89 5.97C24.52 5.67 25.26 5.63 25.91 5.63C26.08 5.63 26.23 5.63 26.4 5.63L33.08 5.76C35.1 4.42 37.42 3.39 39.68 2.4C40.47 2.05 41.31 1.69 42.2 1.42C43.41 1.05 44.76 0.87 46.22 0.87C47.96 0.87 49.89 1.13 52.13 1.65C54.74 2.26 57.29 3.08 59.71 4.1C60.25 4.33 60.78 4.56 61.31 4.79C63.11 5.59 64.98 6.42 66.99 6.81C67.99 7.01 69.04 7.1 70.16 7.1C73.36 7.1 76.7 6.28 79.4 5.61C79.47 5.2 79.93 4.9 80.4 4.66L82.39 3.63L82.44 3.63C83.2 3.59 84.02 3.5 84.79 3.4C85.77 3.28 86.78 3.15 87.74 3.15C88.95 3.15 89.89 3.35 90.71 3.77C91.1 3.96 91.46 4.21 91.79 4.45C92.15 4.71 92.49 4.95 92.89 5.14C92.98 5.18 93.07 5.22 93.15 5.26C93.47 5.41 93.8 5.55 94.03 5.81C94.46 6.29 94.32 6.88 94.18 7.45C94.05 7.98 93.92 8.48 94.25 8.86C94.45 9.08 94.79 9.22 95.14 9.37C95.63 9.56 96.13 9.78 96.28 10.23C96.28 10.27 96.3 10.31 96.3 10.35C96.31 10.43 96.33 10.49 96.37 10.54C96.44 10.62 96.58 10.64 96.83 10.67C96.95 10.68 97.05 10.69 97.16 10.71C97.86 10.85 98.22 11.47 98.21 12.47C98.19 13.42 98.09 14.48 97.15 15.08C97.04 15.15 96.91 15.23 96.76 15.29C96.46 15.45 96.17 15.6 96.09 15.83C95.99 16.16 96.39 16.49 96.74 16.78L96.82 16.84C98.19 17.99 98.7 19.78 98.05 21.3L98 21.41C97.88 21.67 97.77 21.92 97.86 22.15C97.9 22.24 97.96 22.34 98.03 22.43C98.1 22.54 98.19 22.65 98.23 22.78C98.35 23.1 98.21 23.44 98.09 23.68C97.81 24.33 97.49 25.03 97.02 25.62L96.94 25.72L96.8 25.68C96.61 25.63 96.29 25.67 96 25.71L95.9 25.73C95.66 25.78 95.4 25.79 95.13 25.79C94.34 25.79 93.57 25.63 92.81 25.47C91.95 25.3 91.07 25.12 90.21 25.17C89.9 25.19 89.58 25.26 89.19 25.36L88.92 25.43L88.92 25.2C88.93 25.13 88.92 25.07 88.92 25.01C87.99 25.03 87.14 25.37 86.24 25.73C85.43 26.07 84.59 26.4 83.68 26.48C83.33 26.51 82.89 26.5 82.47 26.48C82.26 26.48 82.06 26.47 81.85 26.47C81.54 26.47 81.3 26.49 81.07 26.52C80.32 26.65 79.68 26.99 79.01 27.37C78.4 27.7 77.78 28.03 77.06 28.2C76.19 28.4 75.04 28.3 74 28.18L73.7 28.13C71.83 27.91 69.8 27.8 67.31 27.8C65.75 27.8 64.18 27.84 62.66 27.88C62.38 27.88 62.08 27.92 61.93 28.05C61.85 28.11 61.81 28.21 61.77 28.31C61.75 28.36 61.72 28.43 61.7 28.48C61.4 29.01 60.72 29.24 60.05 29.44C59.42 29.65 58.83 29.84 58.61 30.28C58.53 30.42 58.52 30.58 58.49 30.75C58.48 30.89 58.45 31.03 58.41 31.17C58.23 31.74 57.67 32.12 57.15 32.45L56.84 32.64L56.87 32.63ZM57.29 26.13L57.25 31.99C57.61 31.74 57.95 31.45 58.07 31.09C58.1 30.97 58.12 30.85 58.14 30.72C58.17 30.53 58.19 30.35 58.28 30.16C58.55 29.6 59.26 29.37 59.93 29.15C60.55 28.96 61.13 28.76 61.38 28.34C61.4 28.3 61.43 28.25 61.44 28.2C61.49 28.08 61.56 27.95 61.67 27.83C61.93 27.59 62.33 27.57 62.69 27.56C64.21 27.52 65.78 27.48 67.35 27.48C69.86 27.48 71.91 27.58 73.8 27.82L74.1 27.86C75.1 27.99 76.19 28.08 77 27.9C77.65 27.74 78.25 27.42 78.83 27.1C79.51 26.72 80.2 26.35 81.03 26.21C81.29 26.17 81.56 26.15 81.89 26.15C82.11 26.15 82.32 26.15 82.53 26.16C82.92 26.17 83.31 26.19 83.69 26.16C84.54 26.09 85.34 25.75 86.13 25.44C87.05 25.07 88.01 24.68 89.06 24.68L89.24 24.68L89.3 24.78C89.33 24.85 89.36 24.91 89.37 25C89.69 24.92 89.96 24.88 90.24 24.86C91.16 24.8 92.08 24.99 92.97 25.16C93.74 25.32 94.46 25.46 95.19 25.46C95.44 25.46 95.67 25.44 95.89 25.41L95.99 25.39C96.26 25.35 96.58 25.31 96.84 25.34C97.24 24.8 97.54 24.16 97.79 23.55C97.91 23.29 98 23.05 97.92 22.84C97.88 22.75 97.82 22.66 97.76 22.56C97.68 22.46 97.59 22.35 97.55 22.21C97.43 21.89 97.58 21.57 97.7 21.28L97.76 21.17C98.35 19.76 97.88 18.1 96.61 17.04L96.53 16.97C96.13 16.64 95.64 16.24 95.8 15.74C95.9 15.38 96.29 15.19 96.64 15.01C96.75 14.95 96.88 14.88 96.98 14.81C97.79 14.29 97.87 13.32 97.88 12.44C97.88 11.85 97.77 11.11 97.14 10.98C97.05 10.96 96.96 10.95 96.87 10.95C96.6 10.93 96.3 10.89 96.12 10.68C96.04 10.57 96.02 10.47 95.99 10.37C95.99 10.34 95.98 10.3 95.97 10.27C95.86 9.95 95.48 9.79 95.03 9.61C94.65 9.45 94.25 9.28 94.01 9C93.58 8.52 93.73 7.93 93.87 7.36C94 6.83 94.12 6.33 93.79 5.96C93.61 5.76 93.33 5.64 93.03 5.5C92.94 5.46 92.84 5.42 92.75 5.38C92.32 5.17 91.95 4.91 91.6 4.65C91.28 4.42 90.94 4.18 90.57 3.99C89.81 3.61 88.93 3.43 87.8 3.43C86.87 3.43 85.87 3.56 84.9 3.67C84.13 3.77 83.33 3.87 82.57 3.9L80.65 4.89C80.24 5.1 79.82 5.37 79.83 5.69L79.83 5.8L79.69 5.83C76.93 6.52 73.51 7.37 70.2 7.37C69.04 7.37 67.97 7.27 66.93 7.07C64.87 6.66 62.99 5.83 61.16 5.03C60.63 4.8 60.1 4.57 59.57 4.35C57.18 3.34 54.65 2.53 52.06 1.93C49.86 1.41 47.96 1.16 46.26 1.16C44.84 1.16 43.54 1.33 42.37 1.69C41.5 1.95 40.69 2.31 39.89 2.65C37.64 3.65 35.31 4.68 33.3 6.02L33.25 6.06L26.42 5.93C26.27 5.93 26.1 5.93 25.95 5.93C25.35 5.93 24.67 5.96 24.12 6.23C23.76 6.4 23.47 6.73 23.38 7.06C23.35 7.23 23.33 7.48 23.54 7.69L23.67 7.83L23.49 7.92C21.08 9.17 18.04 9.79 15.05 9.64C14.69 9.62 14.33 9.58 13.96 9.55C13.37 9.5 12.75 9.45 12.15 9.45C11.51 9.45 10.96 9.51 10.47 9.64C9.63 9.85 8.87 10.41 8.54 11.04C8.38 11.34 8.27 11.78 8.52 12.23L11.46 12.69L11.5 12.78C12.19 14.2 12.75 15.8 11.67 16.97C11.43 17.22 11.12 17.45 10.84 17.68C10.21 18.17 9.6 18.63 9.81 19.19C9.99 19.69 10.67 19.87 11.41 20.08C12.19 20.3 12.99 20.53 13.25 21.16C13.37 21.46 13.31 21.77 13.25 22.08C13.22 22.19 13.21 22.31 13.2 22.43C13.16 22.93 13.4 23.45 13.88 23.85C14.46 24.35 15.26 24.61 16.02 24.51L16.56 24.43L16.2 24.76C15.97 24.96 15.9 25.21 16.02 25.48C16.24 26.04 17.1 26.59 17.92 26.73C18.17 26.77 18.41 26.8 18.67 26.84C19.8 26.99 21.09 27.16 21.65 28.01C21.8 28.24 21.86 28.49 21.93 28.74C21.98 28.92 22.03 29.1 22.11 29.27C22.69 30.43 24.61 30.52 25.17 30.52C25.38 30.52 25.57 30.52 25.78 30.49C27.44 30.35 29.1 29.6 30 28.59C30.62 27.91 30.84 27.16 30.65 26.42L30.57 26.14L36.91 28.03C38.57 29.36 40.98 30.12 43.51 30.12C45.75 30.12 47.87 29.53 49.46 28.46L49.66 28.32C50.2 27.95 50.82 27.52 51.57 27.51C52 27.51 52.36 27.61 52.71 27.72C52.85 27.76 52.99 27.8 53.15 27.84C53.42 27.91 53.71 27.95 54.01 27.95C55.21 27.95 56.34 27.43 56.91 26.64L57.27 26.13L57.29 26.13Z" fill="#FFFFFF" fill-opacity="1.000000" fill-rule="nonzero"/>
	<path id="Vector" d="M19.15 3.55C18.72 2.94 18.3 2.34 17.87 1.74C17.51 1.23 17.15 0.72 16.8 0.2C16.25 0.13 15.7 0.15 15.14 0.33C14.8 0.44 14.47 0.62 14.1 0.71C13.24 0.92 12.26 0.59 11.41 0.81C10.96 0.94 10.58 1.2 10.25 1.47C8.42 2.91 7.03 4.7 6.15 6.63C6.19 6.63 6.24 6.63 6.28 6.64C6.86 6.74 7.47 6.87 7.89 7.21C8.15 7.41 8.32 7.68 8.54 7.91C9.76 9.19 12.79 8.66 13.25 7.08C14.94 7.35 16.16 5.51 17.87 5.5C19.29 5.49 20.82 6.69 21.89 5.94C22.55 5.47 22.32 4.53 21.65 4.09C20.96 3.64 20.04 3.56 19.16 3.54L19.15 3.55Z" fill="#FF5A57" fill-opacity="1.000000" fill-rule="nonzero"/>
	<path id="Vector" d="M10.51 8.8C9.63 8.8 8.86 8.52 8.38 8.02C8.29 7.92 8.21 7.83 8.14 7.73C8.02 7.58 7.9 7.44 7.76 7.32C7.39 7.02 6.81 6.89 6.26 6.8L6.2 6.8C6.2 6.8 6.15 6.8 6.13 6.79L5.91 6.76L5.99 6.58C6.89 4.59 8.32 2.79 10.12 1.36C10.46 1.1 10.85 0.79 11.36 0.66C11.59 0.6 11.86 0.57 12.17 0.57C12.37 0.57 12.59 0.58 12.8 0.59C13.26 0.62 13.71 0.63 14.05 0.55C14.25 0.49 14.43 0.42 14.64 0.34C14.78 0.28 14.92 0.22 15.07 0.17C15.59 -0.01 16.16 -0.05 16.83 0.04L16.92 0.04L16.97 0.12C17.32 0.64 17.68 1.15 18.04 1.66L19.26 3.39C20.15 3.42 21.07 3.52 21.76 3.97C22.19 4.27 22.47 4.72 22.47 5.18C22.47 5.54 22.32 5.86 22.01 6.06C21.74 6.25 21.41 6.34 21.05 6.34C20.55 6.34 20.04 6.18 19.5 6C18.97 5.83 18.41 5.66 17.9 5.66C17.14 5.66 16.46 6.06 15.8 6.45C15.12 6.85 14.41 7.27 13.6 7.27C13.53 7.27 13.47 7.27 13.39 7.27C13 8.27 11.67 8.8 10.51 8.8ZM6.42 6.51C7.02 6.61 7.61 6.76 8.03 7.1C8.2 7.24 8.33 7.4 8.46 7.56C8.54 7.65 8.61 7.75 8.69 7.83C9.1 8.26 9.75 8.48 10.51 8.48C11.58 8.48 12.8 8 13.07 7.06L13.11 6.92L13.29 6.95C14.07 7.07 14.81 6.67 15.57 6.21C16.28 5.79 17 5.37 17.87 5.36C18.49 5.36 19.07 5.54 19.64 5.72C20.15 5.89 20.63 6.03 21.05 6.03C21.34 6.03 21.56 5.97 21.76 5.82C22.03 5.63 22.1 5.37 22.08 5.18C22.08 4.82 21.85 4.44 21.5 4.21C20.87 3.8 20 3.71 19.13 3.69L19.03 3.69L17.69 1.8C17.34 1.31 17 0.83 16.67 0.33C16.12 0.26 15.66 0.31 15.22 0.45C15.08 0.49 14.95 0.56 14.82 0.61C14.61 0.69 14.4 0.78 14.16 0.84C13.78 0.93 13.29 0.92 12.77 0.89C12.3 0.86 11.82 0.85 11.47 0.94C11.05 1.05 10.69 1.31 10.38 1.56C8.66 2.91 7.3 4.62 6.41 6.49L6.42 6.51Z" fill="#FFFFFF" fill-opacity="1.000000" fill-rule="nonzero"/>
</svg>
