<svg width="341.480225" height="227.103394" viewBox="0 0 341.48 227.103" fill="none" xmlns="http://www.w3.org/2000/svg" xmlns:xlink="http://www.w3.org/1999/xlink">
	<desc>
			Created with Pixso.
	</desc>
	<defs/>
	<path id="Vector" d="M278.67 125C278.67 180.56 233.63 225.6 178.07 225.6C122.51 225.6 77.47 180.56 77.47 125C77.47 69.44 122.51 24.41 178.07 24.41C233.63 24.41 278.67 69.44 278.67 125Z" fill="#FFFFFF" fill-opacity="1.000000" fill-rule="evenodd"/>
	<path id="Vector" d="M178.07 24.39C197.97 24.39 217.43 30.29 233.97 41.35C250.52 52.4 263.41 68.12 271.03 86.5C278.64 104.89 280.64 125.12 276.76 144.63C272.87 164.15 263.29 182.08 249.22 196.15C235.15 210.22 217.22 219.8 197.7 223.69C178.18 227.57 157.95 225.58 139.57 217.96C121.18 210.35 105.47 197.45 94.41 180.9C83.36 164.36 77.46 144.9 77.46 125C77.46 111.79 80.06 98.71 85.11 86.5C90.17 74.29 97.58 63.2 106.92 53.85C116.27 44.51 127.36 37.1 139.57 32.04C151.77 26.99 164.86 24.39 178.07 24.39ZM178.07 22.91C157.88 22.91 138.14 28.89 121.35 40.11C104.56 51.32 91.47 67.27 83.74 85.92C76.01 104.58 73.98 125.11 77.92 144.91C81.86 164.72 91.58 182.91 105.86 197.19C120.14 211.47 138.33 221.2 158.13 225.14C177.94 229.08 198.47 227.06 217.12 219.33C235.78 211.6 251.72 198.52 262.94 181.73C274.16 164.94 280.15 145.2 280.15 125C280.13 97.94 269.36 71.99 250.23 52.85C231.09 33.71 205.14 22.94 178.07 22.91Z" fill="#D1D3D4" fill-opacity="1.000000" fill-rule="nonzero"/>
	<path id="Vector" d="M253.5 58.43C252.76 58.72 251.95 58.77 251.18 58.58L252.53 57.34C250.71 55.34 248.81 53.41 246.82 51.56C246.87 52.3 247.11 53.02 247.51 53.66C247.9 54.29 248.45 54.81 249.1 55.18C246.97 55.29 245.31 54.03 243.44 53.56C241.23 53.01 238.99 52.58 236.73 52.29L240.06 54.69C239.44 54.93 238.81 55.13 238.16 55.29C237.53 53.95 236.73 55.05 236 55C234.38 54.9 232.56 56.84 231.31 54.84C230.72 54.92 230.15 55.04 229.58 55.21C228.03 55.7 226.56 56.39 225.2 57.28C223.68 58.48 223.21 58.63 222.04 56.82L223.59 56.3L223.59 55.67L220.45 55C220.33 55.74 220.28 56.49 220.32 57.24C220.45 57.72 220.66 58.17 220.95 58.56C220.03 58.65 219.12 58.79 218.21 58.98C217.34 59.29 216.5 59.64 215.67 60.04L216.44 61.66L212.26 60.98L212.12 61.37L213.74 62.41C211.35 63.13 209.86 61.88 209.86 59.44L207.81 58.35C208.54 58.27 209.28 58.36 209.97 58.61C212.23 59.1 214.5 59.67 216.71 58.53C217.87 57.94 217.8 57.13 216.71 56.58C215.38 55.85 213.97 55.25 212.52 54.79C209.97 54.06 207.37 53.56 204.74 52.96L205.16 52.29C203.96 51.95 202.74 51.69 201.5 51.53C200.76 51.62 200.03 51.86 199.38 52.22L200.01 50.84C198.79 51.41 197.82 52.31 197.08 52.13C195.46 51.77 194.22 53.02 192.55 52.7C191.61 52.52 190.36 53.93 189.63 54.32C188.86 54.42 188.1 54.59 187.37 54.82C186.7 55.26 186.07 55.75 185.48 56.29L188.05 55.67C186.9 57.1 185.65 58.79 184.25 60.33C183.29 61.39 182.27 62.77 181 63.11C179.29 63.61 177.72 64.51 176.42 65.73C176.18 65.99 176 66.29 175.88 66.63C175.76 66.96 175.71 67.31 175.73 67.66C175.91 68.73 176.21 69.77 176.63 70.76C176.85 71.31 177.27 71.75 177.81 72C178.35 72.24 178.96 72.26 179.52 72.06C180.53 71.56 181.79 70.36 182.4 70.63C183.31 71.06 183.74 72.5 184.36 73.51C184.49 73.72 184.59 73.95 184.7 74.16C185.27 75.36 185.21 78.14 187.43 75.27C189.24 75.66 189.24 74.18 189.35 73.17C189.38 72.66 189.54 72.16 189.83 71.74C190.12 71.31 190.51 70.97 190.98 70.75C191.23 70.66 191.46 70.49 191.63 70.27C191.79 70.05 191.89 69.79 191.91 69.52C191.92 69.24 191.86 68.97 191.72 68.73C191.59 68.5 191.38 68.3 191.14 68.18C189.76 67.19 189.59 66.28 190.78 64.93C191.41 64.25 192.41 63.89 193.07 63.31C193.74 62.72 194.16 61.83 194.84 61.27C195.64 60.6 196.56 60.08 197.56 59.75C198.12 59.58 198.89 60.12 199.72 60.4C198.09 61.68 196.84 62.64 195.62 63.65C194.94 64.2 194.14 67.5 194.76 67.86C195.9 68.55 197.18 68.97 198.51 69.09C199.72 68.95 200.9 68.7 202.06 68.34C202.65 68.36 203.23 68.48 203.78 68.7L203.78 69.43L200.66 69.71C199.84 69.76 199.02 69.85 198.21 70C197.1 70.24 196.95 70.99 197.73 71.71C198.51 72.42 198.43 73.33 197.59 74.03C195.49 72.32 195.04 72.41 194.53 75.15C194.48 75.77 194.48 76.39 194.53 77C193.67 77.36 192.63 78.21 192.1 77.96C189.9 76.91 188.46 78.86 186.51 79C185.91 77.48 184.88 78.42 183.79 78.43C183.12 78.35 182.49 78.05 182.01 77.57C181.73 77.35 181.53 76.52 181.71 76.32C182.14 75.88 182.42 75.33 182.52 74.73C182.62 74.13 182.54 73.51 182.28 72.96C179.63 74.4 179.65 74.4 180.27 77.1C180.35 77.64 180.39 78.18 180.38 78.73L176.45 80.35C175.18 81.6 174.29 82.51 173.38 83.39C173.05 83.7 172.58 83.91 172.37 84.28C172.22 84.65 172 84.97 171.72 85.25C171.44 85.52 171.11 85.74 170.75 85.88C170.38 86.02 169.99 86.09 169.6 86.07C169.21 86.06 168.82 85.96 168.47 85.79C168.47 86.35 168.6 86.87 168.66 87.42L165.17 87.26C166.17 88.52 167.26 89.72 168.42 90.83C169.82 92.46 168.68 94.08 168.42 95.71C165.5 95.93 162.57 94.57 159.74 96.29C161.37 99.54 158.66 102.95 160.59 106.16L162.51 105.93L163.66 107.46C166.58 106.76 169.43 106.33 170.31 103.8C170.31 102.82 170.08 102.17 170.31 101.74C170.99 100.81 171.93 100.11 172.66 99.17C173.17 98.58 174.01 97.9 173.98 97.3C173.88 95.41 175 95.53 176.06 95.93C176.49 96.17 177 96.26 177.49 96.17C177.98 96.09 178.43 95.84 178.76 95.46C179.41 94.94 180.1 94.47 180.82 94.05C181.32 94.68 181.81 95.35 182.44 95.98C183.3 97.13 184.27 98.18 185.35 99.12C187.25 100.5 189.51 101.52 188.7 104.6L190.03 102.74L189.4 100.53L191.59 101.48C191.59 101.12 191.59 100.87 191.45 100.81C190.16 99.96 189.4 98.44 187.71 98.06C187.25 97.97 186.83 97.43 186.52 97.01C186.21 96.58 185.69 95.58 185.19 94.94C183.91 93.32 184.13 92.55 185.89 92.08C186.04 92.48 186.24 92.86 186.49 93.2C186.69 93.42 187.29 93.4 187.34 93.59C187.81 95.35 189.3 95.87 190.59 96.68C191.41 97.19 192.54 98.18 192.54 98.94C192.54 102.5 195.07 104.66 196.3 107.46C196.86 106.67 197.34 105.83 197.73 104.95C197.87 104.41 197.82 103.83 197.57 103.33C197.15 102.53 196.67 101.76 196.14 101.02C196.94 101.02 197.69 101.35 197.96 101.02C199.34 99.79 199.29 99.75 200.48 100.44C200.38 101.74 200.3 102.82 200.24 103.8C200.77 104.6 201.16 105.8 201.94 106.16C202.72 106.51 203.7 108.25 205.34 106.81C205.86 106.35 207.58 107.26 208.75 107.55C208.75 107.55 208.88 107.55 208.93 107.55L211.9 106.19C211.29 108.92 210.82 111.06 210.28 113.24C209.97 114.64 209.43 115.69 207.68 115.74C207 115.74 206.33 116.49 206.05 116.69L208.78 119.56L207.45 120.6L207.63 121.12L210.25 120.34C210.6 120.97 211.12 121.77 211.53 122.62C212.23 124.03 212.9 125.48 213.55 126.94C214.07 128.11 214.54 129.29 214.99 130.5C215.23 131.39 215.52 132.27 215.85 133.13C216.38 134.07 216.96 134.98 217.61 135.84C219.4 138.44 219.35 141.55 219.87 144.49C220.05 145.53 220.5 145.9 221.49 145.43C223.12 144.57 224.94 143.81 226.53 142.75C228.12 141.69 229.68 140.1 231.4 139.06C233.04 138.24 234.48 137.08 235.63 135.65C235.94 135.23 236.16 134.75 236.44 134.3C236.68 133.83 236.97 133.38 237.29 132.95C239.32 130.72 238.91 128.76 236.2 127.43C235.66 127.08 235.25 126.57 235.04 125.96C234.88 125.18 234.79 124.38 234.78 123.57C234.03 124.39 233.35 125.27 232.75 126.21C231.97 127.75 230.72 126.81 229.71 127C229.6 126.37 229.5 125.74 229.37 125.1C229.24 124.47 229.19 124.27 229 123.35L228.28 124.97L225.2 118.34C226.82 116.51 227.18 116.54 228.35 118.78C228.51 119.11 228.66 119.45 228.79 119.79C229 120.42 229.34 121 229.8 121.49C230.26 121.97 230.82 122.35 231.43 122.6C232.05 122.84 232.72 122.95 233.39 122.91C234.05 122.87 234.7 122.69 235.29 122.37C236.15 124.52 236.33 124.79 238.76 124.94C241.2 125.09 243.79 124.94 246.01 124.94L250.12 129.62L248.95 130.11L251.65 132.45C252.23 131.75 252.8 131.03 253.05 130.82C253.68 134.2 254.2 138.15 255.18 141.99C256.02 145.89 257.26 149.7 258.86 153.36C261.2 150.61 262.36 147.06 262.11 143.46C261.97 142.58 262.08 141.67 262.44 140.85C263.32 139.56 264.73 138.65 265.56 137.35C266.84 135.34 269.39 134.32 269.88 131.68C269.88 131.34 270.66 131.02 271.13 130.9C272.45 130.56 273.78 130.33 275.16 130.04C275.33 131.04 275.66 132.01 276.12 132.92C276.94 133.98 277.62 135.15 278.15 136.38C278.58 132.6 278.8 128.81 278.8 125C278.8 100.46 269.8 76.78 253.5 58.43Z" fill="#D1D3D4" fill-opacity="1.000000" fill-rule="nonzero"/>
	<path id="Vector" d="M113.99 202.61C114.3 201.98 114.5 201.3 114.57 200.6C114.54 199.87 114.72 199.15 115.09 198.53C115.47 197.9 116.02 197.41 116.68 197.1C118.31 196.36 120.1 195.85 121.79 195.2C122.19 195.1 122.54 194.87 122.81 194.55C123.68 193.17 124.38 191.68 124.87 190.12C125.26 187.94 125.51 185.74 125.64 183.53C125.62 183.29 125.67 183.04 125.78 182.82C126.64 181.7 127.65 180.64 128.43 179.46C129.47 178.24 130.21 176.79 130.58 175.23C130.62 174.81 130.58 174.38 130.46 173.98C130.34 173.57 130.13 173.2 129.86 172.87C129.59 172.55 129.25 172.28 128.87 172.09C128.49 171.9 128.08 171.79 127.65 171.77C127.36 171.69 127.11 171.5 126.95 171.23C124.97 168.59 122.08 169.17 119.38 169.14C119.62 168 119.04 167.63 117.85 167.35C116.49 167.18 115.21 166.61 114.18 165.71C113.15 164.8 112.41 163.61 112.07 162.28C111.24 159.03 109.62 158.07 106.17 157.88C105.13 157.66 104.17 157.19 103.36 156.51C102.7 155.98 102.09 155.38 101.56 154.72C101.3 154.38 101 154.05 100.68 153.77C99.72 153.12 99.05 151.7 97.75 151.98C96.45 152.42 95.03 152.42 93.72 151.98C92.49 151.44 91.29 150.84 89.84 150.16C89.47 151.15 88.99 152.43 88.49 153.83C87.58 152.38 88.49 150.97 88.72 149.48C86.05 151.1 82.97 152.06 82.33 155.72L82.15 155.62C88.04 174.01 99.09 190.32 113.99 202.61Z" fill="#D1D3D4" fill-opacity="1.000000" fill-rule="nonzero"/>
	<path id="Vector" d="M93.87 92.28C97.25 93.04 99.77 91.34 102.47 90.04C102.71 89.91 102.92 89.73 103.08 89.5C103.24 89.28 103.35 89.02 103.39 88.75C103.35 88.43 103.24 88.12 103.08 87.84C102.91 87.56 102.69 87.32 102.43 87.13C101.67 86.82 100.88 86.62 100.06 86.54L101.1 85.86C99.73 85.19 98.43 84.38 97.22 83.45C96.63 82.92 96.83 81.62 96.37 80.84C95.61 79.51 94.62 78.32 93.67 77C92.76 78.27 92.52 80.56 90.31 80.01C89.64 79.86 89.06 79.46 88.69 78.89C82.47 90.89 78.76 104.02 77.77 117.5C78.11 117.14 78.51 116.82 78.94 116.56C81.7 114.93 81.86 114.49 81.15 111.31C81.05 110.27 81.05 109.24 81.15 108.2L81.84 110.85C82.49 109.7 83.47 108.76 83.47 107.73C83.65 105.93 84.54 105.52 86.07 105.49C86.67 105.43 87.27 105.3 87.84 105.1L87.34 104.87C87.43 103.98 87.21 102.6 87.68 102.27C89.61 101.13 91.6 100.1 93.64 99.18L92.34 101.98L92.8 102.08L99.1 98.71L98.83 98.23L98.05 98.68L98.47 97.2C98.33 97.2 98.2 97.24 98.08 97.32C97.96 97.39 97.87 97.49 97.8 97.61C96.66 99.23 96.05 99.43 94.34 98.21C93.07 97.3 92.62 96.26 93.97 94.96C94.08 94.85 93.76 93.92 93.59 93.9C92.88 93.83 92.17 93.88 91.48 94.07C90.56 94.39 89.66 94.75 88.78 95.17C90.26 93.74 91.71 91.77 93.87 92.28Z" fill="#D1D3D4" fill-opacity="1.000000" fill-rule="nonzero"/>
	<path id="Vector" d="M180.87 160.67C181.34 161.45 181.51 162.38 181.34 163.27C180.56 165.95 180.53 168.15 182.72 170.42C183.64 171.4 184.34 172.56 184.78 173.83C185.22 175.1 185.4 176.44 185.29 177.78C185.27 178.15 185.37 178.51 185.56 178.82C186.44 180.02 185.91 180.89 185.32 182.07C184.02 184.74 182.77 187.48 184.61 190.62C185.92 192.42 186.74 194.54 186.98 196.76C186.92 199.09 187.74 201.36 189.29 203.11C190.37 204.19 191.02 205.63 191.09 207.16C190.98 207.81 191.09 208.48 191.4 209.07C191.71 209.66 192.2 210.13 192.79 210.41C193.35 210.17 193.93 209.98 194.52 209.84C196.15 209.8 197.78 209.63 199.39 209.32C203.5 208.15 205.5 204.63 207.52 201.33C207.91 200.71 207.66 199.7 207.73 198.53C207.97 198.4 208.52 198.05 209.13 197.77C209.48 197.65 209.81 197.46 210.09 197.21C210.37 196.96 210.6 196.65 210.75 196.31C210.9 195.97 210.98 195.6 210.98 195.22C210.98 194.84 210.9 194.47 210.75 194.13C210.57 193.5 210.28 192.88 210.12 192.24C210.04 191.87 209.97 191.3 210.12 191.12C211.47 189.87 212.96 188.75 214.31 187.48C215.17 186.65 216.34 185.74 216.55 184.7C216.76 183.08 216.68 181.43 216.31 179.83C216.13 178.76 215.41 177.77 215.22 176.69C215.02 175.62 215.8 174.14 214.54 173.1C214.39 172.97 214.54 172.32 214.65 172.06C216.68 169.25 218.34 165.92 220.95 163.81C224.42 161 226.14 157.31 228.04 153.62C228.43 152.5 228.67 151.33 228.74 150.14C226.09 150.82 223.75 151.47 221.38 151.98C221.12 151.99 220.87 151.94 220.64 151.84C220.41 151.73 220.21 151.57 220.06 151.36C219.67 150.69 219.72 149.74 219.25 149.15C218.39 148.09 217.23 147.27 216.28 146.28C215.73 145.76 215.3 145.13 215.01 144.44C214.23 142.03 212.42 140.13 212.15 137.42C211.97 135.79 210.43 134.17 209.66 132.54C208.71 130.48 207.86 128.37 207.13 126.22C206.59 124.6 205.7 124.78 204.45 125.12C203.52 125.42 202.53 125.49 201.57 125.33C199.69 124.79 197.84 124.15 196.03 123.41C194.4 122.79 193.1 123.49 192.96 125.13C192.84 126.34 192.34 126.99 191.2 126.14C190.07 125.3 187.82 125.75 187.42 123.62C187.42 123.54 186.98 123.62 186.78 123.51C185.06 122.76 182.72 123.72 181.75 121.88L183.03 118.08C182.24 117.91 181.44 117.79 180.64 117.74C178.56 117.74 176.46 117.89 174.4 118.16C172.92 118.37 171.48 118.75 170.09 119.32C167.9 120.21 165.77 120.94 163.81 119.43C163 120.53 162.04 121.51 160.96 122.34C160.34 122.65 159.81 123.13 159.45 123.72C159.08 124.32 158.89 125.01 158.9 125.7C158.9 127.91 157.73 128.69 155.97 129.23C155.53 129.36 155.13 129.63 154.85 130.01C153.81 131.63 152.79 133.39 151.89 135.16C151.28 136.39 150.12 137.45 151.28 139.27C151.87 140.61 151.91 142.12 151.41 143.5C150.88 145.3 150.72 147.19 150.95 149.05C150.95 149.46 151.38 149.85 151.67 150.21C151.96 150.56 152.32 150.71 152.55 151.04C153.5 152.62 154.56 154.15 155.71 155.6C157.03 156.86 158.43 158.04 159.89 159.13C160.27 159.46 160.74 159.67 161.25 159.74C161.75 159.81 162.26 159.73 162.72 159.52C164.22 159.24 165.74 159.09 167.27 159.08C167.86 159.06 168.45 158.97 169.02 158.82C170.19 158.34 171.37 157.91 172.58 157.55C173.78 157.29 175.44 156.53 176.01 158.35C176.58 160.17 177.46 159.97 178.77 159.81C179.17 159.76 179.57 159.82 179.93 159.97C180.3 160.12 180.62 160.36 180.87 160.67Z" fill="#D1D3D4" fill-opacity="1.000000" fill-rule="nonzero"/>
	<path id="Vector" d="M104.74 56.12C105.1 56.02 105.44 55.86 105.75 55.65L108.71 57.72L104.94 57.18L104.84 57.73L108.46 59.1L108.46 60.88L104.14 63.08L106.12 64.7C106.12 65.3 105.94 65.87 106.12 66.33C107.49 69.14 108.88 71.93 110.36 74.68C110.79 75.36 111.38 75.92 112.08 76.31C113.11 76.84 114.17 77.32 115.25 77.74C116.05 78.08 116.88 78.48 117.06 77.09C117.24 75.69 117.64 74.42 117.97 73.09C117.97 72.84 118.13 72.5 118.31 72.42C118.93 72.08 119.43 71.55 119.74 70.91C120.05 70.27 120.16 69.55 120.05 68.85C120.05 68.34 120.92 67.37 121.31 67.4C122.59 67.5 123.86 67.23 124.99 66.62C126.12 66.02 127.05 65.1 127.67 63.99C128.11 63.39 128.84 62.64 129.49 62.59C133.24 62.14 136.84 60.79 139.97 58.67L135.37 58.2L136.62 56.69L140.26 58.24C140.45 57.57 140.37 56.85 140.03 56.24C139.69 55.63 139.13 55.18 138.46 54.99C136.83 54.37 136.74 53.52 137.55 52.44L141.76 52.44L140.54 51.07L143.23 50.68L142.03 49.43C144.14 48 141.38 47.28 141.54 46.18L144.16 46.02C143.69 45.29 143.43 44.39 142.88 44.18C142.03 43.96 141.15 43.9 140.28 43.99C142.7 40.35 146.78 39.11 150.61 37.37C149.59 36.83 148.47 36.52 147.33 36.44C146.18 36.37 145.03 36.54 143.95 36.95C141.99 37.49 140 37.89 137.99 38.14L138.91 36.66C138.13 36.75 137.29 36.85 136.57 36.92C136.15 36.92 135.71 36.92 135.29 36.92L135.29 36.17L140.02 35.37C138.39 34.93 136.87 34.33 135.32 34.02C123.83 39.4 113.45 46.9 104.74 56.12Z" fill="#D1D3D4" fill-opacity="1.000000" fill-rule="nonzero"/>
	<path id="Vector" d="M91.95 72.96L91.37 73.93C91.76 74.05 92.15 74.19 92.54 74.36L91.95 72.96Z" fill="#D1D3D4" fill-opacity="1.000000" fill-rule="nonzero"/>
	<path id="Vector" d="" fill="#D1D3D4" fill-opacity="1.000000" fill-rule="nonzero"/>
	<path id="Vector" d="M93.71 72.41C93.85 71.72 93.81 71.01 93.59 70.34C93.17 70.99 92.76 71.63 92.37 72.28L93.71 72.41Z" fill="#D1D3D4" fill-opacity="1.000000" fill-rule="nonzero"/>
	<path id="Vector" d="M220.27 192.99C219.94 193.79 219.82 194.66 219.93 195.51C220.04 196.37 220.38 197.18 220.91 197.87C221.16 198.08 221.45 198.23 221.77 198.31C222.09 198.38 222.43 198.38 222.75 198.3C223.07 198.22 223.36 198.06 223.61 197.84C223.85 197.62 224.04 197.35 224.16 197.04C225.2 193.58 226.12 190.08 227.1 186.59C227.1 186.33 227.1 185.99 227.28 185.79C227.7 185.16 227.87 184.39 227.77 183.63C227.66 182.87 227.29 182.18 226.71 181.68C224.69 183.19 224.48 186.56 220.84 186.36C220.84 187.53 220.84 188.64 220.84 189.71C220.84 190.83 220.65 191.94 220.27 192.99Z" fill="#D1D3D4" fill-opacity="1.000000" fill-rule="nonzero"/>
	<path id="Vector" d="M171.7 82.09C171.87 81.65 172.29 81 172.14 80.81C171.87 80.57 171.54 80.42 171.18 80.37C169.77 78.43 168.53 76.74 167.23 74.94C168.31 73.06 168.26 72.34 166.84 71.41C165.95 70.85 163.95 71.64 163.04 72.94C162.64 73.53 163.24 74.65 164.81 76.19L164.59 77.31C164.89 77.31 165.12 77.31 165.24 77.41C165.8 77.83 166.65 78.21 166.86 78.76C167.07 79.31 166.5 80.01 165.58 79.62C165.36 79.79 165.2 80.02 165.12 80.29C165.12 80.95 165.12 81.62 165.12 82.46L166.62 82.9C165.84 83.52 165.07 84.09 163.95 84.95L171.17 83.8C171.43 82.87 171.56 82.48 171.7 82.09Z" fill="#D1D3D4" fill-opacity="1.000000" fill-rule="nonzero"/>
	<path id="Vector" d="M233.21 45.81C231.85 47.27 230.4 48.65 228.85 49.92C230.77 51.79 233.22 52.05 236.23 51.93C235.4 51.35 234.72 51.07 234.41 50.58C234.1 50.1 233.84 49.09 234.12 48.76C235.45 47.16 237.11 45.86 238.99 44.96L237.07 43.51C235.57 43.84 234.22 44.64 233.21 45.81Z" fill="#D1D3D4" fill-opacity="1.000000" fill-rule="nonzero"/>
	<path id="Vector" d="M142.32 72.42C143.03 72.61 143.78 72.61 144.49 72.42C145.61 72.13 146.67 71.63 147.61 70.94C148.3 70.37 149.9 69.9 149.13 68.59C148.38 67.61 147.49 66.75 146.48 66.04L146.34 66.64L140.83 67.95L139.5 66.17L139.71 66.75L137.3 68.15L137.55 68.46L140.13 68.46L137.79 69.68L140.39 70.44L139.08 71.4C140.21 71.79 141.25 72.19 142.32 72.42Z" fill="#D1D3D4" fill-opacity="1.000000" fill-rule="nonzero"/>
	<path id="Vector" d="M189.51 42.05C190.7 41.11 191.67 40.26 192.76 39.57C192.95 39.47 193.16 39.41 193.38 39.41C193.59 39.41 193.81 39.47 194 39.57C194.29 39.76 194.35 40.31 194.58 40.82L198.09 40.82L198.09 40.17L188.2 36.22L188.81 37.57L182.92 37.05L182.79 37.66C183.54 38.37 184.4 38.95 185.34 39.37C186.31 39.42 187.28 39.29 188.2 38.98L188.2 39.44L185.95 40.25L185.95 40.56L187.73 40.72L186.54 41.34L189.51 42.05Z" fill="#D1D3D4" fill-opacity="1.000000" fill-rule="nonzero"/>
	<path id="Vector" d="M163.37 78.79C164.2 78.27 164.34 77.56 163.5 77.17C162.65 76.78 161.69 76.01 160.74 77.17C160.23 77.77 159.6 78.26 158.9 78.94L158.9 81.78L158.31 82.06C158.62 82.32 159.01 82.85 159.24 82.79C160.56 82.47 161.83 82.01 163.04 81.41C163.34 81.23 163.04 80.12 163.16 79.44C163.17 79.17 163.22 78.87 163.37 78.79Z" fill="#D1D3D4" fill-opacity="1.000000" fill-rule="nonzero"/>
	<path id="Vector" d="M78.82 136.22C78.58 136.09 78.32 135.99 78.06 135.92C78.06 136.36 78.14 136.78 78.2 137.21C78.93 137.46 79.63 137.76 80.32 138.1C81.03 138.46 81.47 139.37 82.22 140.23L85.55 139.86C83.11 138.52 81.02 137.29 78.82 136.22Z" fill="#D1D3D4" fill-opacity="1.000000" fill-rule="nonzero"/>
	<path id="Vector" d="M91.92 142.31C92.07 140.69 89.16 139.66 86.52 140.38L87.92 142L85.19 141.74C87.34 143.24 89.61 142.13 91.92 142.31Z" fill="#D1D3D4" fill-opacity="1.000000" fill-rule="nonzero"/>
	<path id="Vector" d="M201 36.32L191.71 36.32C192.92 36.95 194.24 37.38 195.59 37.6C197.4 37.63 199.21 37.55 201 37.34L201 36.32Z" fill="#D1D3D4" fill-opacity="1.000000" fill-rule="nonzero"/>
	<path id="Vector" d="M262.86 157.83C263.38 157.62 264.1 156.61 263.97 156.2C263.45 155.06 262.83 153.98 262.11 152.95L261.56 153.2C261.56 154.32 261.56 155.42 261.56 156.53C261.56 157.63 261.85 158.22 262.86 157.83Z" fill="#D1D3D4" fill-opacity="1.000000" fill-rule="nonzero"/>
	<path id="Vector" d="M181.14 99.53L179.94 100.01L179.94 103.12C182.01 103.02 181.06 101.36 181.47 100.47C181.57 100.26 181.27 99.87 181.14 99.53Z" fill="#D1D3D4" fill-opacity="1.000000" fill-rule="nonzero"/>
	<path id="Vector" d="M187.81 104.6L184.56 104.6L184.46 104.97L187.45 106.79C187.58 105.98 187.71 105.23 187.81 104.6Z" fill="#D1D3D4" fill-opacity="1.000000" fill-rule="nonzero"/>
	<path id="Vector" d="M322.69 162.28C322.69 167.23 318.68 171.25 313.72 171.25C308.77 171.25 304.75 167.23 304.75 162.28C304.75 157.33 308.77 153.31 313.72 153.31C318.68 153.31 322.69 157.33 322.69 162.28Z" fill="#D1D3D4" fill-opacity="1.000000" fill-rule="evenodd"/>
	<path id="Vector" d="M38.82 138.28C33.6 138.28 33.58 146.41 38.82 146.41C44.05 146.41 44.11 138.28 38.82 138.28Z" fill="#D1D3D4" fill-opacity="1.000000" fill-rule="nonzero"/>
	<path id="Vector" d="M20.52 175.47C20.09 175.47 19.68 175.65 19.37 175.95C19.07 176.26 18.9 176.67 18.9 177.1C18.9 177.53 19.07 177.94 19.37 178.25C19.68 178.55 20.09 178.72 20.52 178.72C20.95 178.72 21.36 178.55 21.67 178.25C21.97 177.94 22.14 177.53 22.14 177.1C22.14 176.67 21.97 176.26 21.67 175.95C21.36 175.65 20.95 175.47 20.52 175.47Z" fill="#D1D3D4" fill-opacity="1.000000" fill-rule="nonzero"/>
	<path id="Vector" d="M3.13 44.91C-1.04 44.91 -1.06 51.41 3.13 51.41C7.33 51.41 7.33 44.91 3.13 44.91Z" fill="#D1D3D4" fill-opacity="1.000000" fill-rule="nonzero"/>
	<path id="Vector" d="M295.43 140.47C295.33 140.17 295.15 139.91 294.92 139.69C294.71 139.46 294.44 139.29 294.14 139.19C293.85 139.04 293.53 138.97 293.2 138.98L292.55 139.08C292.15 139.19 291.78 139.4 291.48 139.69L291.1 140.18C290.88 140.55 290.76 140.98 290.76 141.42L290.76 142.41C290.75 142.73 290.82 143.05 290.97 143.33C291.07 143.64 291.24 143.91 291.48 144.13C291.69 144.36 291.96 144.53 292.26 144.63C292.55 144.78 292.87 144.85 293.2 144.85L293.85 144.75C294.25 144.63 294.62 144.42 294.92 144.13L295.31 143.63C295.52 143.25 295.64 142.84 295.64 142.41L295.64 141.48C295.67 141.13 295.59 140.78 295.43 140.47Z" fill="#D1D3D4" fill-opacity="1.000000" fill-rule="nonzero"/>
	<path id="Vector" d="M281.71 179.78C281.61 179.48 281.44 179.22 281.21 179C280.99 178.77 280.72 178.59 280.41 178.5C280.12 178.34 279.8 178.27 279.47 178.29L278.83 178.29C278.42 178.4 278.04 178.61 277.75 178.92L277.37 179.41C277.15 179.78 277.04 180.21 277.03 180.64L277.03 181.55C277.03 181.88 277.1 182.2 277.24 182.49C277.35 182.79 277.52 183.06 277.75 183.27C277.96 183.51 278.24 183.68 278.54 183.78C278.83 183.93 279.15 184 279.47 183.99L280.12 183.99C280.53 183.87 280.9 183.66 281.21 183.36L281.58 182.87C281.8 182.49 281.91 182.07 281.91 181.63L281.91 180.72C281.93 180.4 281.86 180.07 281.71 179.78Z" fill="#D1D3D4" fill-opacity="1.000000" fill-rule="nonzero"/>
	<path id="Vector" d="M335.63 31.38C335.41 31.38 335.2 31.29 335.05 31.14C334.9 30.99 334.81 30.78 334.81 30.56L334.81 20.54C334.81 20.32 334.9 20.12 335.05 19.96C335.2 19.81 335.41 19.73 335.63 19.73C335.84 19.73 336.05 19.81 336.2 19.96C336.35 20.12 336.44 20.32 336.44 20.54L336.44 30.6C336.43 30.81 336.34 31 336.19 31.15C336.04 31.3 335.84 31.38 335.63 31.38Z" fill="#D1D3D4" fill-opacity="1.000000" fill-rule="nonzero"/>
	<path id="Vector" d="M340.66 26.34L330.59 26.34C330.37 26.34 330.17 26.25 330.01 26.1C329.86 25.95 329.78 25.74 329.78 25.53C329.78 25.31 329.87 25.11 330.02 24.96C330.17 24.8 330.37 24.72 330.59 24.71L340.66 24.71C340.88 24.71 341.09 24.8 341.24 24.95C341.39 25.1 341.48 25.31 341.48 25.53C341.48 25.74 341.39 25.95 341.24 26.1C341.09 26.25 340.88 26.34 340.66 26.34Z" fill="#D1D3D4" fill-opacity="1.000000" fill-rule="nonzero"/>
	<path id="Vector" d="M70.6 202.17C70.38 202.17 70.18 202.09 70.03 201.93C69.87 201.78 69.79 201.58 69.79 201.36L69.79 191.29C69.79 191.07 69.87 190.86 70.03 190.71C70.18 190.56 70.38 190.47 70.6 190.47C70.81 190.48 71.02 190.56 71.17 190.72C71.32 190.87 71.41 191.07 71.41 191.29L71.41 201.36C71.41 201.57 71.32 201.78 71.17 201.93C71.02 202.08 70.81 202.17 70.6 202.17Z" fill="#D1D3D4" fill-opacity="1.000000" fill-rule="nonzero"/>
	<path id="Vector" d="M75.62 197.14L65.56 197.14C65.35 197.14 65.14 197.05 64.99 196.9C64.84 196.74 64.75 196.54 64.75 196.32C64.75 196.11 64.84 195.9 64.99 195.75C65.14 195.6 65.35 195.51 65.56 195.51L75.62 195.51C75.84 195.51 76.04 195.6 76.2 195.75C76.35 195.9 76.43 196.11 76.43 196.32C76.43 196.54 76.35 196.74 76.2 196.9C76.04 197.05 75.84 197.14 75.62 197.14Z" fill="#D1D3D4" fill-opacity="1.000000" fill-rule="nonzero"/>
	<path id="Vector" d="M24.08 13.39C23.86 13.39 23.66 13.3 23.5 13.15C23.35 13 23.27 12.79 23.27 12.58L23.27 9.16C23.27 8.95 23.35 8.74 23.5 8.59C23.66 8.44 23.86 8.35 24.08 8.35C24.29 8.35 24.5 8.44 24.65 8.59C24.81 8.74 24.89 8.95 24.89 9.16L24.89 12.59C24.89 12.8 24.8 13.01 24.65 13.16C24.5 13.3 24.29 13.39 24.08 13.39Z" fill="#D1D3D4" fill-opacity="1.000000" fill-rule="nonzero"/>
	<path id="Vector" d="M24.08 5.03C23.86 5.03 23.66 4.95 23.5 4.79C23.35 4.64 23.27 4.44 23.27 4.22L23.27 0.81C23.27 0.59 23.35 0.39 23.5 0.23C23.66 0.08 23.86 0 24.08 0C24.29 0 24.5 0.08 24.65 0.23C24.81 0.39 24.89 0.59 24.89 0.81L24.89 4.24C24.89 4.45 24.8 4.65 24.65 4.8C24.5 4.95 24.29 5.03 24.08 5.03Z" fill="#D1D3D4" fill-opacity="1.000000" fill-rule="nonzero"/>
	<path id="Vector" d="M29.91 7.54L26.47 7.54C26.25 7.54 26.05 7.45 25.89 7.3C25.74 7.15 25.65 6.94 25.65 6.73C25.65 6.51 25.74 6.3 25.89 6.15C26.05 6 26.25 5.91 26.47 5.91L29.91 5.91C30.13 5.91 30.33 6 30.49 6.15C30.64 6.3 30.72 6.51 30.72 6.73C30.72 6.94 30.64 7.15 30.49 7.3C30.33 7.45 30.13 7.54 29.91 7.54Z" fill="#D1D3D4" fill-opacity="1.000000" fill-rule="nonzero"/>
	<path id="Vector" d="M21.67 7.54L18.25 7.54C18.03 7.54 17.82 7.45 17.67 7.3C17.52 7.15 17.43 6.94 17.43 6.73C17.43 6.51 17.52 6.3 17.67 6.15C17.82 6 18.03 5.91 18.25 5.91L21.67 5.91C21.89 5.91 22.1 6 22.25 6.15C22.4 6.3 22.49 6.51 22.49 6.73C22.49 6.94 22.4 7.15 22.25 7.3C22.1 7.45 21.89 7.54 21.67 7.54Z" fill="#D1D3D4" fill-opacity="1.000000" fill-rule="nonzero"/>
</svg>
