<svg width="352.505341" height="293.175598" viewBox="0 0 352.505 293.176" fill="none" xmlns="http://www.w3.org/2000/svg" xmlns:xlink="http://www.w3.org/1999/xlink">
	<desc>
			Created with Pixso.
	</desc>
	<defs/>
	<path id="Vector" d="M196.86 8.5C199.31 2.68 206.53 0.09 212.77 1.07C219.01 2.04 224.44 5.76 229.46 9.55C238.33 16.19 246.99 23.56 252.56 33.13C258.14 42.7 261.75 52.34 267.75 61.66C275.26 73.26 283.52 85.5 296.29 90.76C305.09 94.39 316.52 95.23 320.93 103.73C325.73 113.01 318.15 125.23 323 134.5C325.97 140.12 332.65 142.72 337.84 146.61C347.79 154.09 352.21 167.27 351.8 179.71C351.38 192.15 346.74 204.05 341.42 215.32C337.08 224.58 332.11 233.81 324.56 240.72C315.31 249.2 303 253.47 290.84 256.55C276.27 260.24 261.15 262.53 246.19 260.98C231.24 259.42 216.36 253.73 205.69 243.18C191.42 229.15 185.92 208.29 172.72 193.25C163.22 182.43 149.77 174.91 142.19 162.43C133.77 148.47 127.64 133.26 124.03 117.37C117.54 88.84 125.99 59.25 134.4 31.21C136.13 25.46 137.89 19.54 141.36 14.69C151.24 0.48 171.75 -1.25 188.68 2.18C192.39 2.91 196.8 4.76 196.86 8.5Z" fill="#FFFFFF" fill-opacity="1.000000" fill-rule="nonzero"/>
	<path id="Vector" d="M256.05 262.04C267.89 261.85 279.65 260.19 291.07 257.09C302.38 254.22 315.29 250.1 325.08 241.11C332.78 234.05 337.82 224.62 342.1 215.5C346.99 205.13 352.06 192.64 352.47 179.64C352.94 165.63 347.63 153.05 338.21 146C336.65 144.83 334.95 143.77 333.3 142.75C329.32 140.28 325.52 137.94 323.52 134.07C321.19 129.6 321.85 124.47 322.54 119.03C323.22 113.6 323.94 108.1 321.45 103.29C318.13 96.8 310.92 94.66 303.92 92.55C301.43 91.79 298.85 91.02 296.52 90.06C284.44 85.09 276.58 74.05 268.27 61.21C265.07 56.07 262.19 50.74 259.62 45.26C257.6 41.15 255.51 36.89 253.13 32.75C247.35 22.83 238.13 15.17 229.87 8.98C224.81 5.18 219.32 1.39 212.89 0.38C207.37 -0.48 200.37 1.43 197.14 6.54C195.77 3.25 191.07 1.94 188.88 1.5C180.84 -0.14 153.59 -4.02 140.73 14.23C137.18 19.27 135.4 25.19 133.69 30.94C125.71 57.67 116.66 88.01 123.32 117.42C126.96 133.39 133.14 148.66 141.6 162.68C146.19 170.24 152.99 176.06 159.57 181.69C164.05 185.36 168.28 189.33 172.21 193.59C178.31 200.54 182.84 208.9 187.22 216.93C192.29 226.28 197.52 235.93 205.21 243.51C215.25 253.39 229.77 259.77 246.1 261.47C249.41 261.84 252.73 262.03 256.05 262.04ZM210.22 1.52C211.04 1.52 211.86 1.59 212.67 1.72C218.81 2.68 224.15 6.37 229.09 10.07C237.65 16.55 246.35 23.77 252.01 33.42C254.39 37.51 256.47 41.76 258.49 45.84C261.08 51.37 263.99 56.74 267.22 61.92C275.65 74.96 283.65 86.15 296.07 91.26C298.45 92.25 301.06 93.04 303.59 93.86C310.6 96.02 317.26 97.98 320.33 103.94C322.63 108.4 321.98 113.51 321.28 118.93C320.58 124.35 319.88 129.89 322.39 134.71C324.59 138.92 328.69 141.45 332.64 143.91C334.26 144.91 335.95 145.96 337.45 147.09C346.53 153.88 351.6 166.06 351.15 179.64C350.71 192.42 345.7 204.69 340.86 215.01C336.65 224.01 331.69 233.3 324.15 240.21C314.56 248.99 301.86 253.07 290.7 255.88C273.43 260.25 259.32 261.65 246.29 260.29C230.24 258.62 215.99 252.37 206.16 242.69C198.61 235.25 193.42 225.67 188.4 216.43C183.99 208.27 179.41 199.85 173.22 192.78C169.25 188.48 164.99 184.46 160.45 180.76C153.96 175.19 147.25 169.43 142.74 162.05C134.34 148.16 128.21 133.02 124.59 117.19C117.97 88.07 126.96 57.94 134.96 31.35C136.65 25.72 138.39 19.89 141.81 15.02C154.18 -2.55 180.76 1.22 188.61 2.82C190.88 3.27 196.16 4.74 196.21 8.5C196.21 8.65 196.26 8.8 196.36 8.91C196.46 9.03 196.59 9.11 196.74 9.14C196.88 9.16 197.03 9.14 197.16 9.07C197.29 9 197.4 8.88 197.45 8.75C199.53 3.82 205.14 1.52 210.22 1.52Z" fill="#30325B" fill-opacity="1.000000" fill-rule="nonzero"/>
	<path id="Vector" d="M112.24 142.13C67.15 168.99 20.53 292.59 20.53 292.59L236.75 292.59C236.75 292.59 306.52 169.81 275.58 142.53C255 124.48 131.29 130.78 112.24 142.13Z" fill="#FF5A57" fill-opacity="1.000000" fill-rule="nonzero"/>
	<path id="Vector" d="M127.13 293.17C127.26 293.17 127.38 293.13 127.49 293.06C127.6 292.98 127.68 292.88 127.72 292.76L143.75 252.55C143.79 252.47 143.8 252.38 143.8 252.3C143.8 252.21 143.78 252.13 143.75 252.05C143.72 251.97 143.67 251.9 143.61 251.84C143.54 251.78 143.47 251.74 143.39 251.71C143.31 251.67 143.23 251.66 143.15 251.66C143.06 251.66 142.98 251.68 142.9 251.71C142.82 251.75 142.75 251.8 142.7 251.86C142.64 251.92 142.59 251.99 142.56 252.07L126.53 292.28C126.5 292.35 126.48 292.44 126.48 292.52C126.48 292.61 126.5 292.69 126.53 292.77C126.56 292.85 126.61 292.92 126.67 292.98C126.73 293.04 126.8 293.09 126.88 293.12C126.96 293.15 127.04 293.17 127.13 293.17Z" fill="#30325B" fill-opacity="1.000000" fill-rule="nonzero"/>
	<path id="Vector" d="M62.13 293.17C62.25 293.17 62.37 293.14 62.47 293.08C62.57 293.02 62.65 292.93 62.71 292.83C63.44 291.54 67.4 283.96 72.87 273.52C89.81 241.2 125.05 173.95 127.49 171.79C127.56 171.76 127.63 171.7 127.68 171.64C127.73 171.58 127.77 171.5 127.79 171.43C127.82 171.35 127.82 171.26 127.81 171.18C127.81 171.1 127.78 171.02 127.74 170.95C127.65 170.8 127.51 170.68 127.34 170.63C127.17 170.58 126.99 170.6 126.83 170.68C125.33 171.44 110.38 199.15 71.73 272.91C66.26 283.29 62.3 290.9 61.58 292.21C61.54 292.28 61.51 292.36 61.5 292.45C61.49 292.53 61.5 292.61 61.52 292.7C61.54 292.78 61.58 292.85 61.63 292.92C61.69 292.98 61.75 293.04 61.82 293.08C61.92 293.14 62.02 293.17 62.13 293.17Z" fill="#30325B" fill-opacity="1.000000" fill-rule="nonzero"/>
	<path id="Vector" d="M166.35 147.13L143.16 252.34C143.16 252.34 215.52 160.39 220.25 132.95C204.64 117.01 166.35 147.13 166.35 147.13Z" fill="#30325B" fill-opacity="1.000000" fill-rule="nonzero"/>
	<path id="Vector" d="M143.16 252.96C143.26 252.96 143.35 252.94 143.44 252.9C143.53 252.85 143.61 252.79 143.67 252.72C143.85 252.48 161.98 229.37 180.46 203.29C205.3 168.15 218.91 144.5 220.89 133.04C220.91 132.94 220.9 132.83 220.87 132.73C220.84 132.63 220.79 132.54 220.72 132.47C214.12 125.74 202.56 126.07 187.17 133.45C179.69 137.14 172.58 141.55 165.95 146.61C165.83 146.7 165.75 146.83 165.72 146.97L142.52 252.18C142.49 252.33 142.51 252.48 142.58 252.61C142.64 252.74 142.75 252.85 142.89 252.91C142.97 252.95 143.07 252.96 143.16 252.96ZM219.55 133.14C214.85 158.1 155.43 235.46 144.41 249.67L166.93 147.46C169.78 145.31 204.91 118.89 219.55 133.17L219.55 133.14Z" fill="#30325B" fill-opacity="1.000000" fill-rule="nonzero"/>
	<path id="Vector" d="M165.04 116.78L166.34 147.1C166.34 147.1 177.57 164.61 196.43 157.68C201.99 155.58 207.01 152.27 211.13 147.99C215.25 143.71 218.36 138.56 220.24 132.92L213.69 78.21C213.69 78.21 197.76 64.22 198.42 32.47C182.71 41.15 165.03 45.67 147.08 45.62C147.08 45.62 144.59 88.24 148.64 102.99C152.7 117.73 165.04 116.78 165.04 116.78Z" fill="#FFFFFF" fill-opacity="1.000000" fill-rule="nonzero"/>
	<path id="Vector" d="M187.8 159.97C190.84 159.95 193.84 159.39 196.68 158.32C215.62 151.35 220.83 133.3 220.88 133.12C220.89 133.04 220.89 132.95 220.88 132.87L214.33 78.16C214.31 78.01 214.24 77.86 214.12 77.76C213.98 77.62 198.47 63.6 199.06 32.47C199.06 32.35 199.03 32.24 198.98 32.14C198.92 32.04 198.84 31.96 198.74 31.9C198.64 31.84 198.52 31.81 198.41 31.81C198.29 31.81 198.18 31.84 198.08 31.9C182.44 40.46 164.9 44.95 147.08 44.95C146.99 44.94 146.91 44.95 146.83 44.98C146.75 45 146.67 45.05 146.61 45.11C146.55 45.16 146.5 45.23 146.47 45.31C146.43 45.39 146.42 45.47 146.42 45.56C146.31 47.29 143.95 88.42 148.01 103.1C151.63 116.2 161.71 117.37 164.41 117.37L165.7 147.07C165.7 147.19 165.74 147.3 165.81 147.4C165.9 147.63 174.02 159.97 187.8 159.97ZM219.59 132.9C219.11 134.44 213.74 150.67 196.25 157.1C178.97 163.46 168.13 148.54 167.01 146.92L165.72 116.76C165.7 116.59 165.62 116.43 165.49 116.31C165.43 116.25 165.35 116.21 165.27 116.18C165.19 116.15 165.1 116.14 165.02 116.15C164.54 116.15 153.17 116.85 149.3 102.82C145.56 89.29 147.43 51.59 147.71 46.3L148.17 46.3C165.47 46.09 182.48 41.75 197.76 33.62C197.65 49.55 201.75 60.86 205.26 67.57C207.25 71.62 209.88 75.33 213.04 78.55L219.59 132.9Z" fill="#30325B" fill-opacity="1.000000" fill-rule="nonzero"/>
	<path id="Vector" d="M206.34 77.77C206.7 75.04 207.93 72.49 209.85 70.51C211.73 68.75 213.9 67.33 216.26 66.31C217.49 65.6 218.86 65.19 220.27 65.09C221.26 65.13 222.24 65.37 223.15 65.78C225.34 66.58 227.17 68.13 228.33 70.15C229.07 71.89 229.38 73.78 229.23 75.66C229.23 77.71 228.95 79.75 228.41 81.73C227.83 83.7 226.87 85.53 225.57 87.13C224.27 88.72 222.67 90.03 220.86 91C219.05 91.97 217.07 92.56 215.02 92.75C212.98 92.94 210.92 92.72 208.96 92.11L206.34 77.77Z" fill="#FFFFFF" fill-opacity="1.000000" fill-rule="nonzero"/>
	<path id="Vector" d="M213.63 93.43C217.1 93.44 220.49 92.33 223.28 90.25C226.07 88.17 228.1 85.25 229.09 81.91C229.64 79.88 229.93 77.78 229.93 75.67C230.09 73.69 229.76 71.69 228.97 69.86C227.74 67.68 225.76 66.01 223.39 65.18C222.41 64.74 221.35 64.49 220.27 64.44C218.75 64.53 217.28 64.97 215.97 65.74C213.56 66.8 211.35 68.27 209.44 70.08C207.41 72.16 206.11 74.84 205.74 77.72C205.72 77.89 205.77 78.07 205.87 78.2C205.98 78.34 206.13 78.43 206.3 78.45C206.48 78.48 206.65 78.43 206.79 78.32C206.93 78.22 207.02 78.06 207.04 77.89C207.37 75.28 208.54 72.86 210.37 70.98C212.2 69.28 214.31 67.91 216.6 66.92C217.73 66.26 219 65.86 220.31 65.76C221.2 65.81 222.08 66.02 222.9 66.4C224.96 67.14 226.69 68.58 227.8 70.46C228.49 72.1 228.78 73.88 228.63 75.65C228.63 77.64 228.37 79.62 227.84 81.55C227.29 83.43 226.36 85.18 225.12 86.7C223.88 88.22 222.35 89.48 220.62 90.41C218.89 91.33 216.99 91.9 215.04 92.08C213.09 92.26 211.12 92.06 209.24 91.47C209.16 91.44 209.07 91.44 208.98 91.44C208.89 91.45 208.81 91.48 208.73 91.52C208.65 91.56 208.58 91.62 208.52 91.69C208.47 91.76 208.43 91.84 208.4 91.92C208.37 92.01 208.37 92.1 208.37 92.19C208.38 92.28 208.41 92.36 208.45 92.44C208.49 92.52 208.55 92.59 208.62 92.64C208.69 92.7 208.77 92.74 208.85 92.77C210.4 93.23 212.01 93.45 213.63 93.43Z" fill="#30325B" fill-opacity="1.000000" fill-rule="nonzero"/>
	<path id="Vector" d="M169.23 88.9C171.17 88.84 173.09 88.51 174.94 87.9C175.02 87.88 175.09 87.83 175.16 87.78C175.22 87.72 175.27 87.65 175.31 87.57C175.35 87.5 175.37 87.41 175.37 87.33C175.38 87.24 175.37 87.15 175.34 87.07C175.31 86.99 175.27 86.92 175.21 86.85C175.15 86.79 175.08 86.74 175.01 86.7C174.93 86.66 174.85 86.64 174.76 86.64C174.67 86.63 174.59 86.64 174.51 86.67C172.76 87.27 167.8 88.45 165.88 86.67C164.48 85.37 168.15 76.48 172.37 68.97C172.45 68.82 172.47 68.64 172.43 68.48C172.38 68.31 172.27 68.17 172.12 68.09C171.97 68.01 171.79 67.99 171.63 68.04C171.46 68.09 171.32 68.2 171.24 68.35C169.07 72.24 162.23 85.02 165.01 87.62C166.21 88.55 167.71 89.01 169.23 88.9Z" fill="#30325B" fill-opacity="1.000000" fill-rule="nonzero"/>
	<path id="Vector" d="M192.24 231.99C192.34 231.99 192.45 231.97 192.54 231.92C192.63 231.87 192.71 231.8 192.77 231.72C192.97 231.43 213.52 202.99 237.28 167C237.38 166.85 237.41 166.68 237.38 166.51C237.34 166.34 237.25 166.2 237.1 166.1C236.96 166.01 236.79 165.98 236.62 166.01C236.45 166.05 236.31 166.14 236.21 166.28C212.41 202.26 191.93 230.68 191.72 230.97C191.62 231.1 191.58 231.27 191.61 231.44C191.64 231.61 191.73 231.76 191.86 231.86C191.97 231.95 192.1 231.99 192.24 231.99Z" fill="#30325B" fill-opacity="1.000000" fill-rule="nonzero"/>
	<path id="Vector" d="M172.55 105.8C173.62 105.8 174.69 105.66 175.73 105.4C188.26 102.4 188.15 87.15 188.15 86.99C188.15 86.82 188.08 86.66 187.96 86.54C187.84 86.42 187.68 86.35 187.51 86.35C187.42 86.35 187.34 86.37 187.26 86.4C187.18 86.43 187.11 86.48 187.05 86.55C186.99 86.61 186.95 86.68 186.91 86.76C186.88 86.84 186.87 86.92 186.87 87.01C186.87 87.15 186.95 101.38 175.43 104.14C174.11 104.52 172.72 104.61 171.35 104.43C169.99 104.24 168.68 103.77 167.51 103.05C162.5 99.89 160.9 92.55 160.88 92.47C160.86 92.38 160.83 92.31 160.78 92.24C160.73 92.16 160.67 92.1 160.6 92.06C160.53 92.01 160.45 91.98 160.37 91.96C160.28 91.95 160.2 91.95 160.11 91.96C160.03 91.98 159.95 92.01 159.88 92.06C159.81 92.11 159.75 92.17 159.7 92.24C159.66 92.31 159.63 92.39 159.61 92.48C159.6 92.56 159.6 92.65 159.62 92.73C159.62 93.05 161.33 100.68 166.81 104.14C168.52 105.24 170.52 105.81 172.55 105.8Z" fill="#30325B" fill-opacity="1.000000" fill-rule="nonzero"/>
	<path id="Vector" d="M165.04 116.78C165.04 116.78 183.85 117.17 195.29 102.31C195.29 102.31 189.45 132.51 165.83 134.93L165.04 116.78Z" fill="#30325B" fill-opacity="1.000000" fill-rule="nonzero"/>
	<path id="Vector" d="M165.83 135.61L165.9 135.61C189.72 133.16 195.87 102.77 195.92 102.46C195.96 102.31 195.94 102.16 195.87 102.03C195.81 101.9 195.7 101.79 195.56 101.73C195.43 101.67 195.27 101.66 195.13 101.7C194.99 101.74 194.87 101.83 194.78 101.95C183.68 116.35 165.25 116.14 165.05 116.22C164.97 116.22 164.88 116.23 164.79 116.27C164.71 116.3 164.64 116.35 164.57 116.41C164.51 116.48 164.47 116.55 164.43 116.63C164.4 116.72 164.39 116.81 164.39 116.89L165.18 135.05C165.19 135.14 165.21 135.23 165.25 135.31C165.29 135.39 165.35 135.46 165.42 135.52C165.54 135.6 165.69 135.63 165.83 135.61ZM193.98 104.91C191.92 112.2 184.67 131.9 166.46 134.25L165.72 117.39C169.04 117.32 183.71 116.21 193.98 104.91Z" fill="#30325B" fill-opacity="1.000000" fill-rule="nonzero"/>
	<path id="Vector" d="M217.82 282.79C217.97 282.79 218.12 282.74 218.23 282.64C218.54 282.37 249.57 255.23 269.84 216.13C269.88 216.05 269.9 215.97 269.91 215.89C269.91 215.8 269.9 215.72 269.88 215.64C269.85 215.56 269.81 215.48 269.76 215.42C269.7 215.36 269.64 215.3 269.56 215.26C269.49 215.23 269.4 215.2 269.32 215.2C269.24 215.19 269.15 215.2 269.07 215.23C268.99 215.25 268.92 215.29 268.85 215.35C268.79 215.4 268.74 215.47 268.7 215.54C248.54 254.45 217.7 281.39 217.39 281.69C217.33 281.75 217.28 281.82 217.25 281.9C217.21 281.98 217.2 282.06 217.2 282.15C217.2 282.23 217.21 282.31 217.25 282.39C217.28 282.47 217.33 282.54 217.39 282.6C217.5 282.71 217.65 282.78 217.82 282.79Z" fill="#30325B" fill-opacity="1.000000" fill-rule="nonzero"/>
	<path id="Vector" d="M181.93 56.89C181.93 59.51 182.95 61.64 184.21 61.64C185.47 61.64 186.49 59.51 186.49 56.89C186.49 54.27 185.47 52.14 184.21 52.14C182.95 52.14 181.93 54.27 181.93 56.89Z" fill="#30325B" fill-opacity="1.000000" fill-rule="evenodd"/>
	<path id="Vector" d="M158.39 56.49C157.13 56.54 156.19 58.71 156.3 61.33C156.4 63.95 157.51 66.04 158.77 65.98C160.03 65.93 160.97 63.77 160.86 61.15C160.76 58.52 159.65 56.44 158.39 56.49Z" fill="#30325B" fill-opacity="1.000000" fill-rule="evenodd"/>
	<path id="Vector" d="M223.1 250.47C208.26 234.41 106.36 186.92 97.05 179.5C87.74 172.08 87.69 166.3 75.38 162.86C63.07 159.42 43.46 152.7 41.54 154.82C39.62 156.93 40.92 162.35 43.87 164.87C46.83 167.38 54.53 169.25 57.3 171.83C57.3 171.83 41.29 174.71 36.13 172.04C30.97 169.37 22.15 162.39 17.61 161.67C14.73 161.28 11.8 161.76 9.19 163.04C9.19 163.04 3.41 159.05 1.34 162.08C-0.03 164.09 1.06 166.46 2.74 167.88C-1.08 166.68 1.58 171.59 2.33 172.96C22.2 209.02 68.8 200.94 75.82 201.33C75.82 201.33 98.11 220.86 102.95 225.48C114.99 236.98 127.28 248.22 140.09 258.85C154.08 270.52 169.49 283.69 186.9 289.85C222.88 302.63 237.97 266.54 223.1 250.47Z" fill="#FFFFFF" fill-opacity="1.000000" fill-rule="nonzero"/>
	<path id="Vector" d="M201.28 293.17C211.2 293.17 219.53 289.01 224.79 281.04C231.41 271 230.89 257.97 223.5 250.04C213.92 239.67 168.26 216.26 134.91 199.16C116.53 189.76 100.67 181.63 97.39 178.99C94.78 176.85 92.37 174.48 90.19 171.9C86.54 167.77 83.7 164.52 75.48 162.24C72.56 161.42 69.28 160.43 65.82 159.39C50.12 154.69 42.56 152.65 40.99 154.38C40.57 154.92 40.25 155.55 40.07 156.22C39.89 156.88 39.85 157.58 39.94 158.27C40.15 160.99 41.38 163.53 43.38 165.38C45.46 166.83 47.73 168 50.12 168.85C52.02 169.58 53.86 170.44 55.62 171.45C51.56 172.08 40.37 173.56 36.36 171.45C34.56 170.51 32.29 169.03 29.88 167.48C25.36 164.55 20.69 161.51 17.63 160.99C14.74 160.61 11.81 161.06 9.16 162.29C8.18 161.67 5.14 159.93 2.81 160.37C2.39 160.44 1.99 160.58 1.63 160.81C1.28 161.03 0.96 161.32 0.72 161.67C0.2 162.49 -0.05 163.46 0.01 164.44C0.08 165.41 0.45 166.34 1.08 167.09C0.79 167.16 0.54 167.32 0.36 167.55C-0.4 168.46 0.02 170.21 1.65 173.24C19.19 205.05 57.02 202.9 71.26 202.09C73.09 201.99 74.57 201.91 75.45 201.94C77.54 203.77 97.85 221.56 102.41 225.91C115.95 238.88 128.1 249.79 139.57 259.32L141.37 260.81C154.7 271.9 169.81 284.48 186.58 290.42C191.29 292.17 196.26 293.1 201.28 293.17ZM43.12 155C46.73 155 57.81 158.33 65.51 160.64C68.98 161.68 72.26 162.66 75.21 163.48C82.99 165.66 85.78 168.8 89.28 172.76C91.51 175.39 93.97 177.82 96.65 180.01C100.03 182.72 115.18 190.49 134.38 200.32C167.65 217.37 213.2 240.72 222.58 250.9C229.5 258.41 229.96 270.77 223.67 280.32C216.34 291.43 202.65 294.76 187.08 289.24C170.53 283.38 155.51 270.87 142.26 259.85L140.46 258.36C129.02 248.85 116.89 237.94 103.37 225.01C98.57 220.43 76.43 201.04 76.21 200.85C76.1 200.75 75.96 200.69 75.82 200.68C74.88 200.68 73.37 200.68 71.26 200.84C57.23 201.64 19.99 203.74 2.86 172.64C0.9 169.1 1.38 168.44 1.39 168.41C1.41 168.38 1.73 168.25 2.51 168.5C2.66 168.59 2.84 168.62 3.02 168.58C3.19 168.54 3.34 168.43 3.43 168.28C3.52 168.13 3.55 167.95 3.51 167.77C3.47 167.6 3.36 167.45 3.21 167.36C1.73 166.13 0.77 164.12 1.91 162.42C2.06 162.2 2.25 162.01 2.48 161.88C2.7 161.74 2.95 161.65 3.21 161.61C5.07 161.26 7.94 162.91 8.9 163.55C9.01 163.61 9.12 163.64 9.24 163.64C9.36 163.64 9.48 163.61 9.58 163.55C12.06 162.34 14.84 161.89 17.58 162.25C20.37 162.69 25.13 165.78 29.32 168.51C31.74 170.1 34.04 171.59 35.91 172.55C40.86 175.14 54.79 172.87 57.17 172.46L58.15 173.38C58.19 173.48 58.25 173.57 58.33 173.64C58.42 173.72 58.51 173.77 58.62 173.79C58.73 173.81 58.84 173.81 58.94 173.78C59.05 173.75 59.14 173.69 59.22 173.62C59.3 173.54 59.35 173.44 59.38 173.34C59.42 173.23 59.42 173.12 59.4 173.02C59.37 172.91 59.32 172.81 59.25 172.73C59.18 172.65 59.08 172.58 58.98 172.55L57.76 171.41C55.62 169.82 53.24 168.56 50.72 167.68C48.45 166.88 46.3 165.79 44.31 164.43C42.57 162.81 41.5 160.59 41.33 158.22C41.18 157.19 41.43 156.14 42.04 155.3C42.36 155.08 42.74 154.97 43.12 155Z" fill="#30325B" fill-opacity="1.000000" fill-rule="nonzero"/>
	<path id="Vector" d="M9.19 163.05C9.19 163.05 16.7 172.65 31.86 179.53L9.19 163.05Z" fill="#FFFFFF" fill-opacity="1.000000" fill-rule="nonzero"/>
	<path id="Vector" d="M31.86 180.17C31.99 180.17 32.11 180.14 32.21 180.07C32.32 180 32.4 179.91 32.46 179.8C32.53 179.64 32.53 179.46 32.47 179.3C32.41 179.14 32.29 179.01 32.13 178.94C17.31 172.21 9.79 162.74 9.71 162.65C9.6 162.52 9.45 162.43 9.28 162.41C9.11 162.38 8.94 162.43 8.8 162.53C8.66 162.64 8.57 162.8 8.55 162.97C8.53 163.14 8.58 163.32 8.68 163.46C8.76 163.55 16.47 173.26 31.6 180.12C31.68 180.16 31.77 180.18 31.86 180.17Z" fill="#30325B" fill-opacity="1.000000" fill-rule="nonzero"/>
	<path id="Vector" d="M2.74 167.89C2.74 167.89 16.1 185.08 25.67 186.58L2.74 167.89Z" fill="#FFFFFF" fill-opacity="1.000000" fill-rule="nonzero"/>
	<path id="Vector" d="M25.68 187.23C25.76 187.24 25.85 187.23 25.93 187.2C26.01 187.18 26.08 187.13 26.15 187.08C26.21 187.02 26.27 186.95 26.31 186.88C26.35 186.8 26.37 186.72 26.38 186.63C26.38 186.55 26.37 186.46 26.35 186.38C26.32 186.3 26.28 186.23 26.22 186.16C26.17 186.1 26.1 186.04 26.02 186C25.95 185.96 25.86 185.94 25.78 185.93C16.57 184.48 3.39 167.66 3.26 167.48C3.15 167.35 2.99 167.26 2.82 167.24C2.65 167.22 2.48 167.27 2.34 167.37C2.21 167.48 2.12 167.64 2.1 167.81C2.08 167.98 2.13 168.15 2.24 168.28C2.78 168.99 15.87 185.69 25.58 187.22L25.68 187.23Z" fill="#30325B" fill-opacity="1.000000" fill-rule="nonzero"/>
	<path id="Vector" d="M185.31 69.12C185.75 69.12 186.18 69.1 186.61 69.04L196.47 67.9C197.96 67.73 199.4 67.27 200.71 66.54C202.02 65.81 203.18 64.83 204.11 63.66C205.04 62.48 205.74 61.13 206.15 59.69C206.56 58.25 206.68 56.73 206.51 55.24L205.84 49.49C205.72 48.38 205.16 47.38 204.29 46.68C203.41 46 202.31 45.68 201.2 45.8L177.01 48.6C175.91 48.74 174.91 49.3 174.23 50.16C173.54 51.02 173.21 52.12 173.33 53.22L173.99 58.99C174.31 61.77 175.64 64.34 177.73 66.2C179.82 68.06 182.51 69.09 185.31 69.1L185.31 69.12ZM201.76 47.16C202.44 47.17 203.1 47.43 203.61 47.88C204.12 48.34 204.45 48.96 204.53 49.64L205.2 55.41C205.35 56.72 205.24 58.05 204.88 59.32C204.52 60.58 203.91 61.77 203.09 62.8C202.27 63.83 201.26 64.69 200.1 65.33C198.95 65.97 197.69 66.38 196.38 66.53L186.49 67.67C185.18 67.82 183.86 67.71 182.59 67.35C181.32 66.99 180.14 66.38 179.11 65.56C178.07 64.75 177.21 63.73 176.57 62.58C175.93 61.43 175.53 60.16 175.38 58.85L174.7 53.09C174.62 52.35 174.84 51.62 175.3 51.03C175.76 50.45 176.43 50.08 177.17 49.99L201.42 47.19L201.76 47.16Z" fill="#30325B" fill-opacity="1.000000" fill-rule="nonzero"/>
	<path id="Vector" d="M153.12 72.96C153.55 72.96 153.99 72.94 154.42 72.88L164.31 71.74C165.8 71.57 167.24 71.11 168.55 70.38C169.87 69.65 171.02 68.67 171.95 67.49C172.88 66.32 173.57 64.97 173.98 63.53C174.39 62.08 174.51 60.57 174.34 59.08L173.68 53.33C173.62 52.78 173.45 52.25 173.18 51.77C172.91 51.29 172.55 50.86 172.12 50.52C171.69 50.18 171.19 49.93 170.66 49.77C170.14 49.62 169.58 49.58 169.03 49.64L144.78 52.44C143.68 52.58 142.68 53.13 141.99 54C141.65 54.43 141.39 54.92 141.24 55.45C141.09 55.98 141.04 56.54 141.11 57.09L141.78 62.85C142.11 65.63 143.44 68.2 145.53 70.06C147.62 71.93 150.32 72.96 153.12 72.96ZM154.27 71.51C151.63 71.81 148.98 71.05 146.89 69.4C144.81 67.75 143.47 65.33 143.16 62.69L142.5 56.93C142.45 56.57 142.48 56.2 142.58 55.84C142.68 55.49 142.85 55.16 143.08 54.87C143.31 54.58 143.59 54.34 143.91 54.17C144.23 53.99 144.58 53.87 144.95 53.83L169.23 51.03C169.59 50.98 169.96 51.01 170.31 51.11C170.67 51.21 170.99 51.38 171.28 51.61C171.57 51.84 171.81 52.12 171.99 52.44C172.17 52.76 172.29 53.12 172.33 53.48L172.99 59.25C173.14 60.56 173.03 61.89 172.67 63.16C172.31 64.42 171.7 65.61 170.89 66.64C170.07 67.67 169.05 68.53 167.9 69.17C166.75 69.81 165.48 70.22 164.17 70.37L154.27 71.51Z" fill="#30325B" fill-opacity="1.000000" fill-rule="nonzero"/>
</svg>
