<svg aria-hidden="true" xmlns="http://www.w3.org/2000/svg" xmlns:xlink="http://www.w3.org/1999/xlink"><symbol viewBox="0 0 32 24" id="arrow" xmlns="http://www.w3.org/2000/svg">
<path fill-rule="evenodd" clip-rule="evenodd" d="M21.066 1.42079L30.612 10.9667C31.1978 11.5525 31.1978 12.5023 30.612 13.088L21.066 22.634C20.4803 23.2198 19.5305 23.2198 18.9447 22.634C18.3589 22.0482 18.3589 21.0985 18.9447 20.5127L25.93 13.5274L1.78393 13.5274C0.955507 13.5274 0.283935 12.8558 0.283935 12.0274C0.283935 11.199 0.955508 10.5274 1.78393 10.5274L25.93 10.5274L18.9447 3.54211C18.3589 2.95632 18.3589 2.00657 18.9447 1.42079C19.5305 0.835 20.4803 0.835 21.066 1.42079Z"/>
</symbol><symbol viewBox="0 0 8 5" id="arrow-down" xmlns="http://www.w3.org/2000/svg">
<path d="M0.896358 0.930176H6.82861C6.93361 0.930198 7.03625 0.961352 7.12355 1.0197C7.21085 1.07805 7.27889 1.16097 7.31908 1.25798C7.35926 1.35499 7.36977 1.46174 7.34929 1.56473C7.32881 1.66772 7.27826 1.76232 7.20402 1.83658L4.2379 4.80271C4.13832 4.90225 4.00328 4.95817 3.86248 4.95817C3.72168 4.95817 3.58665 4.90225 3.48707 4.80271L0.520946 1.83658C0.446708 1.76232 0.396154 1.66772 0.375675 1.56473C0.355196 1.46174 0.365712 1.35499 0.405892 1.25798C0.446072 1.16097 0.514113 1.07805 0.601414 1.0197C0.688714 0.961352 0.791354 0.930198 0.896358 0.930176Z"/>
</symbol><symbol viewBox="0 0 25 25" id="arrow-serv" xmlns="http://www.w3.org/2000/svg">
<path fill-rule="evenodd" clip-rule="evenodd" d="M8.9515 5.6726L18.1674 5.6726C18.7329 5.6726 19.1914 6.13105 19.1914 6.69659L19.1914 15.9125C19.1914 16.478 18.7329 16.9365 18.1674 16.9365C17.6019 16.9365 17.1434 16.478 17.1434 15.9125V9.16871L7.11219 19.1999C6.71229 19.5998 6.06394 19.5998 5.66405 19.1999C5.26415 18.8 5.26415 18.1517 5.66405 17.7518L15.6953 7.72057L8.9515 7.72057C8.38597 7.72057 7.92751 7.26212 7.92752 6.69659C7.92751 6.13105 8.38597 5.6726 8.9515 5.6726Z"/>
</symbol><symbol viewBox="0 0 115 96" id="brief-logo" xmlns="http://www.w3.org/2000/svg">
<path d="M0.0591511 33.7619C1.40493 32.3217 2.7661 30.8977 4.0965 29.4584L25.9657 5.95232C26.209 5.71407 26.5179 5.55404 26.8526 5.49278L47.4674 2.26155C52.055 1.60261 56.7802 0.791392 61.4601 0.0708194C61.7085 0.040523 61.9605 0.0716487 62.1941 0.161463L91.4339 10.7906C91.7019 10.8922 91.9426 11.0548 92.1371 11.2655C99.4377 19.5668 106.727 27.868 114.006 36.1692C114.162 36.3467 114.275 36.5579 114.336 36.7864C114.397 37.0149 114.404 37.2545 114.357 37.4862C113.761 42.7541 113.181 48.0229 112.584 53.2917C112.542 53.554 112.425 53.7985 112.248 53.9959C109.388 57.2281 106.498 60.4594 103.623 63.6942C103.379 63.986 103.211 64.3334 103.133 64.7057C102.552 67.7684 102.002 70.725 101.466 73.727C101.449 73.8778 101.386 74.0195 101.284 74.1322C101.183 74.2449 101.049 74.3228 100.901 74.3551C95.1083 76.4071 89.3242 78.49 83.5239 80.4813C83.3138 80.543 83.1237 80.6594 82.9732 80.8186C82.8226 80.9778 82.7169 81.1742 82.6668 81.3877C81.1382 85.9821 79.6087 90.5766 78.1706 95.0804C78.1241 95.2269 78.0678 95.3701 78.0023 95.5091C76.9018 94.1921 75.8456 92.9205 74.8057 91.6497C71.3702 87.484 67.9242 83.3231 64.4676 79.167C64.2477 78.8998 63.971 78.6852 63.6576 78.5389C58.5188 76.1189 53.3963 73.6681 48.2114 71.3405C46.8484 70.8303 45.4402 70.451 44.0057 70.2075C40.0145 69.2884 36.0233 68.4156 32.0466 67.4965C31.7691 67.3889 31.5371 67.1888 31.3895 66.93C29.4781 63.4858 27.5966 60.0415 25.6698 56.6072C25.4913 56.2989 25.2174 56.0571 24.8896 55.9184C19.2314 53.6313 13.568 51.3542 7.89945 49.087C7.71963 49.0244 7.55455 48.9255 7.41444 48.7964C7.27433 48.6673 7.16218 48.5108 7.08491 48.3365C4.84164 43.6838 2.58329 39.038 0.309852 34.3991C0.231966 34.2459 0.144916 34.0976 0.0491943 33.955L0.0591511 33.7619ZM100.246 71.8363C100.263 71.6709 100.309 71.5099 100.384 71.3613C100.827 68.9884 101.271 66.6137 101.684 64.2399C101.778 63.7242 102.017 63.2461 102.372 62.8613C104.88 60.0896 107.358 57.2861 109.85 54.499L110.248 54.0395L91.7126 52.5077L92.0031 50.9768L111.181 52.5077L112.709 38.1261L91.8194 49.92L91.223 48.5413L110.186 37.8207V37.6829L96.407 34.4517L96.7283 32.9199L112.527 36.8255L92.1253 13.4989C92.386 18.6299 92.6149 23.5597 92.8593 28.5239H91.3307L90.6121 14.0662H90.4899L79.663 30.3929L78.4087 29.5663L89.5568 12.8726L73.5839 16.7301L73.3124 15.1983L88.7586 11.5229V11.3852L63.3118 2.19628L68.266 12.6106L66.8903 13.1925L61.7371 2.47182L52.1483 18.9362L50.9581 17.9864L60.3632 1.75215L29.4256 6.59224L43.5713 18.6299L42.5622 19.7329L27.8798 7.25027V28.4306L26.3512 28.0934V7.95362H26.1521L2.60048 33.3468L21.9772 32.4404L22.237 33.9713L2.23575 34.9212L7.98633 46.7449L23.0035 35.1505L24.1502 36.162L9.08232 47.8054L9.28053 47.9586C14.2359 50.0003 19.2012 51.9965 24.1764 53.947C24.4178 54.0387 24.6844 54.0387 24.9258 53.947C25.858 53.5636 26.7766 53.1313 27.7088 52.7216L36.6858 48.7399L37.2514 50.0994L26.5458 54.8969L32.1742 65.3112L38.6434 51.527L40.0507 52.0481L33.3679 66.2919L46.1226 69.1715L41.6725 52.0336L43.0645 51.498L47.4684 68.131L57.6554 50.1185L58.955 50.8535L49.2567 68.0068L63.0964 63.6108L63.1869 65.1426L48.5254 69.7371L64.3988 77.1495L65.9283 69.1552L67.3048 69.844C66.8152 72.5088 66.3093 75.1282 65.7753 77.7468C65.738 78.0374 65.8088 78.3317 65.9744 78.5734C68.5333 81.6363 71.0818 84.7353 73.6201 87.8701L77.367 92.4646L77.5353 92.0966C78.7897 88.2674 80.0489 84.4437 81.3129 80.6254C81.3581 80.4922 81.3633 80.3487 81.3279 80.2126C81.2925 80.0765 81.2181 79.9537 81.1138 79.8595L76.7099 74.6931L72.2907 69.4706L73.4989 68.5978L73.8962 69.0582C76.6638 72.3049 79.4322 75.5515 82.1691 78.8145C82.2617 78.9693 82.4101 79.0827 82.5838 79.1311C82.7574 79.1795 82.943 79.1593 83.1022 79.0746C85.6869 78.1247 88.3016 77.2065 90.9017 76.2875L98.3492 73.5765L75.1804 66.1641L75.5479 64.7085L98.7167 72.1979C95.3979 66.397 92.1715 60.7412 88.9133 55.0899L90.2591 54.4011L100.246 71.8363Z"/>
<path d="M61.9334 49.7351C60.778 49.7381 59.6476 49.3979 58.6852 48.7576C57.7228 48.1172 56.9716 47.2055 56.5266 46.1376C56.0817 45.0697 55.9629 43.8936 56.1853 42.7581C56.4078 41.6226 56.9614 40.5786 57.7763 39.7582C58.5911 38.9378 59.6306 38.3779 60.7632 38.1491C61.8959 37.9204 63.0708 38.0332 64.1394 38.4732C65.2081 38.9132 66.1224 39.6607 66.7669 40.6211C67.4113 41.5815 67.7569 42.7118 67.76 43.869V43.8844C67.7636 45.4317 67.1535 46.9172 66.0637 48.0142C64.974 49.1112 63.4939 49.7298 61.9488 49.7342L61.9334 49.7351Z"/>
<path d="M47.6504 28.1096C46.7037 28.1064 45.7792 27.8221 44.9938 27.2927C44.2085 26.7632 43.5975 26.0124 43.2382 25.1353C42.8788 24.2581 42.7873 23.2939 42.9752 22.3646C43.163 21.4353 43.6218 20.5827 44.2935 19.9145C44.9653 19.2464 45.8197 18.7927 46.7489 18.6109C47.678 18.4291 48.6401 18.5273 49.5136 18.8932C50.387 19.259 51.1324 19.8759 51.6557 20.6661C52.179 21.4562 52.4566 22.384 52.4534 23.3321C52.4534 23.3575 52.4534 23.382 52.4534 23.4083C52.4329 24.6676 51.9169 25.868 51.0175 26.7483C50.1181 27.6287 48.908 28.1179 47.6504 28.1096Z"/>
<path d="M73.8788 64.007C73.8787 64.9156 73.6094 65.8038 73.1052 66.5592C72.601 67.3147 71.8845 67.9034 71.0462 68.251C70.2079 68.5987 69.2855 68.6895 68.3957 68.5121C67.5058 68.3347 66.6885 67.8971 66.047 67.2545C65.4055 66.6119 64.9686 65.7933 64.7917 64.902C64.6148 64.0108 64.7056 63.0871 65.0529 62.2476C65.4002 61.4082 65.9882 60.6907 66.7426 60.1859C67.497 59.6811 68.3839 59.4116 69.2912 59.4116C69.8938 59.4116 70.4904 59.5305 71.047 59.7614C71.6037 59.9924 72.1094 60.3309 72.5355 60.7576C72.9615 61.1843 73.2994 61.6909 73.5299 62.2485C73.7604 62.806 73.879 63.4036 73.8788 64.007Z"/>
<path d="M87.6722 53.8554C86.9061 53.8493 86.1737 53.5395 85.6352 52.9937C85.0968 52.4479 84.7962 51.7108 84.7992 50.9435C84.8023 50.1763 85.1087 49.4415 85.6515 48.9001C86.1943 48.3587 86.9292 48.0547 87.6953 48.0547C88.4614 48.0547 89.1963 48.3587 89.7391 48.9001C90.2818 49.4415 90.5883 50.1763 90.5914 50.9435C90.5944 51.7108 90.2938 52.4479 89.7553 52.9937C89.2169 53.5395 88.4844 53.8493 87.7184 53.8554H87.6722Z"/>
<path d="M26.3169 35.2924C25.7428 35.2894 25.1825 35.1161 24.7066 34.7945C24.2308 34.4728 23.8607 34.0172 23.6431 33.4851C23.4255 32.9531 23.3701 32.3684 23.484 31.8048C23.5979 31.2413 23.8758 30.7242 24.2829 30.3187C24.6899 29.9132 25.2077 29.6375 25.771 29.5265C26.3343 29.4154 26.9178 29.474 27.4479 29.6947C27.978 29.9154 28.431 30.2884 28.7497 30.7667C29.0683 31.245 29.2384 31.8071 29.2384 32.382C29.2424 32.7602 29.1721 33.1354 29.0313 33.4864C28.8906 33.8373 28.6822 34.157 28.418 34.4273C28.1539 34.6975 27.8392 34.913 27.4919 35.0615C27.1446 35.2099 26.7715 35.2884 26.3939 35.2924H26.3169Z"/>
<path d="M66.3551 16.7916C66.3435 16.0243 66.6366 15.2838 67.17 14.733C67.7034 14.1821 68.4335 13.8659 69.1996 13.854H69.2765C70.0423 13.8675 70.7722 14.1816 71.309 14.7288C71.8458 15.2759 72.1465 16.0123 72.1465 16.7793C72.1465 17.5464 71.8458 18.2828 71.309 18.8299C70.7722 19.377 70.0423 19.6912 69.2765 19.7047C68.5142 19.7168 67.7783 19.4252 67.2307 18.8941C66.683 18.3629 66.3684 17.6357 66.356 16.8722C66.3548 16.8438 66.3545 16.817 66.3551 16.7916Z"/>
<path d="M79.5833 33.5154C79.6077 34.0967 79.4594 34.6721 79.1572 35.169C78.855 35.6658 78.4125 36.0618 77.8856 36.3067C77.3587 36.5517 76.7711 36.6346 76.1971 36.5451C75.6231 36.4555 75.0885 36.1975 74.661 35.8037C74.2334 35.4099 73.9321 34.8979 73.7951 34.3325C73.6581 33.7672 73.6916 33.1738 73.8914 32.6275C74.0911 32.0813 74.4481 31.6066 74.9173 31.2635C75.3865 30.9204 75.9466 30.7244 76.527 30.7002C76.5723 30.7002 76.6176 30.7002 76.6619 30.7002C77.419 30.696 78.1479 30.9879 78.6935 31.5136C79.2391 32.0394 79.5584 32.7576 79.5833 33.5154Z"/>
<path d="M37.9407 47.7899C37.9245 47.0264 38.2117 46.2878 38.7392 45.7364C39.2667 45.185 39.9912 44.866 40.7536 44.8496H40.8314C41.606 44.8498 42.3489 45.1582 42.8966 45.7069C43.4443 46.2555 43.7519 46.9996 43.7519 47.7754V47.7908C43.7519 48.5626 43.4458 49.3027 42.9009 49.8485C42.356 50.3942 41.6169 50.7008 40.8463 50.7008C40.0757 50.7008 39.3367 50.3942 38.7918 49.8485C38.2468 49.3027 37.9407 48.5626 37.9407 47.7908V47.7899Z"/>
<path d="M92.3073 29.9014C93.0713 29.9034 93.8034 30.2091 94.3426 30.7512C94.8817 31.2934 95.184 32.0277 95.183 32.7929C95.182 33.5581 94.8777 34.2917 94.3371 34.8324C93.7965 35.3731 93.0636 35.6768 92.2996 35.6768C91.5355 35.6768 90.8027 35.3731 90.262 34.8324C89.7214 34.2917 89.4172 33.5581 89.4161 32.7929C89.4151 32.0277 89.7174 31.2934 90.2566 30.7512C90.7958 30.2091 91.5278 29.9034 92.2919 29.9014H92.3073Z"/>
<path d="M67.3491 20.6809L68.7709 21.0942C67.3491 26.3322 66.0033 31.5548 64.596 36.8236L63.1742 36.4556L67.3491 20.6809Z"/>
<path d="M83.3304 50.9603L68.8789 46.8099L69.307 45.386L83.5449 49.4756L83.3304 50.9603Z"/>
<path d="M43.1396 44.1146L41.7631 43.5481L46.0167 29.366L47.5462 29.5799L43.1396 44.1146Z"/>
<path d="M30.6465 32.2289L30.2944 30.6972L41.9015 25.7202L42.6807 27.0218L30.6465 32.2289Z"/>
<path d="M29.1162 35.7985L30.0945 34.6492L38.8571 43.9459L37.6678 44.8831L29.1162 35.7985Z"/>
<path d="M83.7888 52.8293L84.6604 54.0539L74.2616 60.1801L73.1602 59.0779L83.7888 52.8293Z"/>
<path d="M53.9068 22.5799L53.5856 21.1297L64.9175 16.9177L65.2387 18.4495L53.9068 22.5799Z"/>
<path d="M78.2068 37.605L79.4738 36.8391L85.8208 47.0087L84.5972 47.8815L78.2068 37.605Z"/>
<path d="M50.8477 28.7069L52.0405 27.8005L58.3259 37.2342L57.087 38.0771L50.8477 28.7069Z"/>
<path d="M90.5798 36.8198L92.017 37.2023C91.1916 40.4952 90.3807 43.7727 89.5553 47.0819L88.1172 46.6531L90.5798 36.8198Z"/>
<path d="M75.7591 29.3044L74.3681 29.8863L70.9117 20.8043L72.196 19.9768L75.7591 29.3044Z"/>
<path d="M44.9001 46.2582L54.3822 44.4817L54.6727 46.0126L45.1717 47.7293L44.9001 46.2582Z"/>
<path d="M67.2099 58.1125L65.8641 58.786L63.4784 51.3265L64.8857 50.8669L67.2099 58.1125Z"/>
<path d="M72.7014 35.293L73.5268 36.5492L68.312 39.8883L67.3481 38.6629L72.7014 35.293Z"/>
</symbol><symbol viewBox="0 0 23.1847 23.1855" id="facebook" xmlns="http://www.w3.org/2000/svg">
	<desc>
			Created with Pixso.
	</desc>
	<defs/>
	<path id="eVector (Border)" d="M0.27 9.04C0.09 9.87 0 10.72 0 11.59C0 12.46 0.09 13.31 0.27 14.14C0.42 14.8 0.63 15.46 0.91 16.1C1.18 16.75 1.51 17.37 1.89 17.95C2.32 18.6 2.82 19.22 3.39 19.78C3.96 20.35 4.57 20.85 5.23 21.28C5.81 21.66 6.42 21.99 7.07 22.27C7.72 22.54 8.37 22.75 9.04 22.9C9.87 23.09 10.72 23.18 11.59 23.18C12.46 23.18 13.31 23.09 14.14 22.9C14.8 22.75 15.46 22.54 16.1 22.27C16.75 21.99 17.37 21.66 17.95 21.28C18.61 20.85 19.22 20.35 19.78 19.78C20.35 19.22 20.85 18.6 21.28 17.95C21.66 17.37 21.99 16.75 22.27 16.1C22.54 15.46 22.75 14.8 22.9 14.13C23.09 13.31 23.18 12.46 23.18 11.59C23.18 10.72 23.09 9.87 22.9 9.04C22.75 8.37 22.54 7.72 22.27 7.08C21.99 6.42 21.66 5.81 21.28 5.23C20.85 4.57 20.35 3.96 19.78 3.39C19.22 2.82 18.6 2.32 17.95 1.89C17.37 1.51 16.75 1.18 16.1 0.91C15.46 0.64 14.8 0.42 14.13 0.27C13.31 0.09 12.46 0 11.59 0C10.72 0 9.87 0.09 9.04 0.27C8.37 0.42 7.72 0.64 7.07 0.91C6.42 1.18 5.81 1.51 5.23 1.89C4.57 2.32 3.96 2.82 3.39 3.39C2.82 3.96 2.32 4.57 1.89 5.23C1.51 5.81 1.18 6.42 0.91 7.08C0.63 7.72 0.42 8.37 0.27 9.04ZM0.48 14.09C0.3 13.28 0.21 12.44 0.21 11.59C0.21 10.73 0.3 9.9 0.48 9.08C0.63 8.43 0.84 7.79 1.1 7.16C1.37 6.52 1.69 5.91 2.07 5.34C2.49 4.7 2.98 4.1 3.54 3.54C4.1 2.98 4.7 2.49 5.35 2.07C5.92 1.69 6.52 1.37 7.16 1.1C7.79 0.84 8.43 0.63 9.08 0.48C9.9 0.3 10.73 0.21 11.59 0.21C12.44 0.21 13.28 0.3 14.09 0.48C14.75 0.63 15.39 0.84 16.02 1.1C16.66 1.37 17.26 1.69 17.83 2.07C18.47 2.49 19.08 2.98 19.63 3.54C20.19 4.1 20.68 4.7 21.11 5.34C21.48 5.91 21.8 6.52 22.07 7.16C22.34 7.79 22.54 8.43 22.69 9.08C22.88 9.9 22.97 10.73 22.97 11.59C22.97 12.44 22.88 13.28 22.69 14.09C22.55 14.75 22.34 15.39 22.07 16.02C21.8 16.66 21.48 17.26 21.11 17.83C20.68 18.48 20.19 19.08 19.63 19.63C19.08 20.19 18.47 20.68 17.83 21.11C17.26 21.48 16.66 21.8 16.02 22.07C15.39 22.34 14.75 22.55 14.09 22.69C13.28 22.88 12.44 22.97 11.59 22.97C10.73 22.97 9.9 22.88 9.08 22.69C8.43 22.55 7.79 22.34 7.16 22.07C6.52 21.8 5.91 21.48 5.34 21.11C4.7 20.68 4.1 20.19 3.54 19.63C2.98 19.08 2.49 18.48 2.07 17.83C1.69 17.26 1.37 16.66 1.1 16.02C0.84 15.39 0.63 14.75 0.48 14.09Z" fill-opacity="1.000000" fill-rule="evenodd"/>
	<path id="eVector" d="M10.03 17.74L12.51 17.74L12.51 11.53L14.24 11.53L14.43 9.45L12.51 9.45L12.51 8.27C12.51 7.78 12.61 7.59 13.09 7.59L14.43 7.59L14.43 5.43L12.71 5.43C10.87 5.43 10.03 6.25 10.03 7.8L10.03 9.46L8.74 9.46L8.74 11.57L10.03 11.57L10.03 17.75L10.03 17.74Z" fill-opacity="1.000000" fill-rule="nonzero"/>
</symbol><symbol viewBox="0 0 24 24" id="instagram" xmlns="http://www.w3.org/2000/svg">
<path fill-rule="evenodd" clip-rule="evenodd" d="M11.9325 0.511929C5.64748 0.511929 0.552822 5.60659 0.552822 11.8916C0.552822 18.1462 5.59016 23.2187 11.8262 23.2758V23.2713H11.9325C18.2176 23.2713 23.3122 18.1767 23.3122 11.8916C23.3122 5.60659 18.2176 0.511929 11.9325 0.511929ZM12.0388 23.4835C18.3923 23.4264 23.5248 18.2586 23.5248 11.8916C23.5248 5.48917 18.335 0.299316 11.9325 0.299316C5.53006 0.299316 0.34021 5.48917 0.34021 11.8916C0.34021 18.299 5.53003 23.4889 11.9325 23.4889H12.0388V23.4835Z"/>
<path d="M11.9327 7.31769C13.4259 7.31769 13.5989 7.32264 14.1873 7.3523C14.7312 7.37703 15.0279 7.46603 15.2257 7.54514C15.4877 7.64403 15.6707 7.76764 15.8685 7.96048C16.0662 8.15825 16.1849 8.3412 16.2838 8.60325C16.358 8.80103 16.4519 9.0977 16.4766 9.64159C16.5013 10.23 16.5112 10.408 16.5112 11.8963C16.5112 13.3846 16.5063 13.5626 16.4766 14.151C16.4519 14.6948 16.3629 14.9915 16.2838 15.1893C16.1849 15.4513 16.0613 15.6343 15.8685 15.8321C15.6756 16.0299 15.4877 16.1485 15.2257 16.2474C15.0279 16.3216 14.7312 16.4155 14.1873 16.4402C13.5989 16.465 13.4209 16.4749 11.9327 16.4749C10.4444 16.4749 10.2664 16.4699 9.67797 16.4402C9.13408 16.4155 8.83741 16.3265 8.63963 16.2474C8.37758 16.1485 8.19463 16.0249 7.99685 15.8321C7.79907 15.6343 7.68041 15.4513 7.58152 15.1893C7.50735 14.9915 7.4134 14.6948 7.38868 14.151C7.36396 13.5626 7.35407 13.3846 7.35407 11.8963C7.35407 10.408 7.35901 10.23 7.38868 9.64159C7.4134 9.0977 7.5024 8.80103 7.58152 8.60325C7.68041 8.3412 7.80402 8.15825 7.99685 7.96048C8.19463 7.7627 8.37758 7.64403 8.63963 7.54514C8.83741 7.47097 9.13408 7.37703 9.67797 7.3523C10.2664 7.32758 10.4444 7.31769 11.9327 7.31769ZM11.9327 6.31396C10.4147 6.31396 10.2268 6.31891 9.62853 6.34858C9.03519 6.3733 8.62974 6.47219 8.27374 6.61063C7.90785 6.75402 7.59635 6.94191 7.28485 7.25342C6.97335 7.56492 6.78546 7.87642 6.64207 8.24231C6.50362 8.59831 6.40968 9.00376 6.38495 9.59709C6.35529 10.1904 6.35034 10.3833 6.35034 11.9012C6.35034 13.4192 6.35529 13.6071 6.38495 14.2053C6.40968 14.7987 6.50857 15.2041 6.64207 15.5601C6.78546 15.926 6.97335 16.2375 7.28485 16.549C7.59635 16.8605 7.90785 17.0484 8.27374 17.1918C8.62974 17.3303 9.03519 17.4242 9.62853 17.4539C10.2219 17.4786 10.4147 17.4885 11.9327 17.4885C13.4506 17.4885 13.6385 17.4835 14.2368 17.4539C14.8301 17.4291 15.2356 17.3303 15.5916 17.1918C15.9575 17.0484 16.269 16.8605 16.5805 16.549C16.892 16.2375 17.0799 15.926 17.2232 15.5601C17.3617 15.2041 17.4556 14.7987 17.4804 14.2053C17.5051 13.612 17.515 13.4192 17.515 11.9012C17.515 10.3833 17.51 10.1954 17.4804 9.59709C17.4556 9.00376 17.3567 8.59831 17.2232 8.24231C17.0799 7.87642 16.892 7.56492 16.5805 7.25342C16.269 6.94191 15.9575 6.75402 15.5916 6.61063C15.2356 6.47219 14.8301 6.37824 14.2368 6.34858C13.6434 6.32385 13.4506 6.31396 11.9327 6.31396Z"/>
<path d="M11.9326 9.02881C10.3504 9.02881 9.06482 10.3144 9.06482 11.8966C9.06482 13.4788 10.3504 14.7644 11.9326 14.7644C13.5148 14.7644 14.8004 13.4788 14.8004 11.8966C14.8004 10.3144 13.5148 9.02881 11.9326 9.02881ZM11.9326 13.7557C10.9042 13.7557 10.0735 12.9201 10.0735 11.8966C10.0735 10.8731 10.9091 10.0375 11.9326 10.0375C12.9561 10.0375 13.7917 10.8731 13.7917 11.8966C13.7917 12.9201 12.9561 13.7557 11.9326 13.7557Z"/>
<path d="M15.5823 8.91556C15.5823 9.28664 15.2805 9.58845 14.9095 9.58845C14.5384 9.58845 14.2366 9.28664 14.2366 8.91556C14.2366 8.54449 14.5384 8.24268 14.9095 8.24268C15.2805 8.24268 15.5823 8.54449 15.5823 8.91556Z"/>
</symbol><symbol viewBox="0 0 24 24" id="linkedin" xmlns="http://www.w3.org/2000/svg">
<path fill-rule="evenodd" clip-rule="evenodd" d="M11.8782 0.511929C5.59316 0.511929 0.498501 5.60659 0.498501 11.8916C0.498501 18.1767 5.59316 23.2713 11.8782 23.2713C18.1633 23.2713 23.2579 18.1767 23.2579 11.8916C23.2579 5.60659 18.1633 0.511929 11.8782 0.511929ZM0.285889 11.8916C0.285889 5.48916 5.47574 0.299316 11.8782 0.299316C18.2807 0.299316 23.4705 5.48916 23.4705 11.8916C23.4705 18.2941 18.2807 23.4839 11.8782 23.4839C5.47574 23.4839 0.285889 18.2941 0.285889 11.8916Z"/>
<path d="M9.20059 9.5249H7.09424V16.3334H9.20059V9.5249Z"/>
<path d="M8.13725 8.63435C8.82453 8.63435 9.38325 8.07068 9.38325 7.37845C9.38325 6.68623 8.82453 6.12256 8.13725 6.12256C7.44997 6.12256 6.89124 6.68623 6.89124 7.37845C6.89124 8.07068 7.44997 8.63435 8.13725 8.63435Z"/>
<path d="M12.5725 12.7631C12.5725 11.8039 13.0125 11.2353 13.858 11.2353C14.6343 11.2353 15.0051 11.7841 15.0051 12.7631V16.338H17.1016V12.0264C17.1016 10.2019 16.0682 9.32178 14.6244 9.32178C13.1806 9.32178 12.5725 10.4491 12.5725 10.4491V9.52945H10.5502V16.338H12.5725V12.7631Z"/>
</symbol><symbol viewBox="0 0 124 88" id="lorem" xmlns="http://www.w3.org/2000/svg">
<path d="M92.921 29.5404L86.1227 21.7668L87.07 11.4857L77.0117 9.20103L71.7458 0.285156L62.2727 4.35302L52.7996 0.285156L47.5336 9.17317L37.4754 11.43L38.4227 21.739L31.6244 29.5404L38.4227 37.3139L37.4754 47.6229L47.5336 49.9075L52.7996 58.7956L62.2727 54.6998L71.7458 58.7677L77.0117 49.8797L87.07 47.595L86.1227 37.3139L92.921 29.5404ZM56.951 42.6913L46.3634 32.0758L50.487 27.9522L56.951 34.4441L73.2504 18.089L77.374 22.2126L56.951 42.6913Z"/>
<path d="M123.96 87.6182H120.324V80.4002L117.642 87.6182H116.022L113.34 80.4002V87.6182H109.704V75.6122H114.726L116.832 81.3722L118.938 75.6122H123.96V87.6182Z"/>
<path d="M106.273 86.4302C105.277 87.3662 103.801 87.8342 101.845 87.8342C99.8892 87.8342 98.4072 87.3662 97.3992 86.4302C96.4032 85.4822 95.9052 84.2342 95.9052 82.6862V75.6122H99.5952V82.5602C99.5952 83.1602 99.7872 83.6582 100.171 84.0542C100.567 84.4382 101.125 84.6302 101.845 84.6302C102.553 84.6302 103.099 84.4382 103.483 84.0542C103.879 83.6582 104.077 83.1602 104.077 82.5602V75.6122H107.767V82.6682C107.767 84.2282 107.269 85.4822 106.273 86.4302Z"/>
<path d="M89.5281 87.8341C87.2241 87.8341 85.3641 87.1981 83.9481 85.9261L85.8381 83.2261C86.9181 84.2581 88.2081 84.7741 89.7081 84.7741C90.5961 84.7741 91.0401 84.5581 91.0401 84.1261C91.0401 83.9221 90.8061 83.7661 90.3381 83.6581C89.8821 83.5501 89.3241 83.4361 88.6641 83.3161C88.0161 83.1961 87.3621 83.0221 86.7021 82.7941C86.0541 82.5661 85.4961 82.1641 85.0281 81.5881C84.5721 81.0121 84.3441 80.2861 84.3441 79.4101C84.3441 78.3181 84.7821 77.3821 85.6581 76.6021C86.5461 75.8221 87.7701 75.4321 89.3301 75.4321C91.3581 75.4321 93.0561 75.9901 94.4241 77.1061L92.4801 79.6801C91.4361 78.8881 90.2601 78.4921 88.9521 78.4921C88.3401 78.4921 88.0341 78.6721 88.0341 79.0321C88.0341 79.2001 88.1961 79.3441 88.5201 79.4641C88.8561 79.5841 89.2701 79.6801 89.7621 79.7521C90.2541 79.8121 90.7881 79.9321 91.3641 80.1121C91.9521 80.2801 92.4921 80.4841 92.9841 80.7241C93.4761 80.9641 93.8841 81.3421 94.2081 81.8581C94.5441 82.3621 94.7121 82.9621 94.7121 83.6581C94.7121 84.9781 94.2501 86.0041 93.3261 86.7361C92.4141 87.4681 91.1481 87.8341 89.5281 87.8341Z"/>
<path d="M76.5841 87.6182H72.9481V75.6122H79.3561C80.7121 75.6122 81.7681 76.0082 82.5241 76.8002C83.2921 77.5802 83.6761 78.5582 83.6761 79.7342C83.6761 80.8982 83.2921 81.8762 82.5241 82.6682C81.7681 83.4482 80.7121 83.8382 79.3561 83.8382H76.5841V87.6182ZM78.8881 80.6702C79.2121 80.6702 79.4761 80.5922 79.6801 80.4362C79.8841 80.2682 79.9861 80.0342 79.9861 79.7342C79.9861 79.4222 79.8841 79.1882 79.6801 79.0322C79.4761 78.8642 79.2121 78.7802 78.8881 78.7802H76.5841V80.6702H78.8881Z"/>
<path d="M71.0119 87.6182H67.3759V75.6122H71.0119V87.6182Z"/>
<path d="M60.8369 87.6182H57.2009V80.4002L54.5189 87.6182H52.8989L50.2169 80.4002V87.6182H46.5809V75.6122H51.6029L53.7089 81.3722L55.8149 75.6122H60.8369V87.6182Z"/>
<path d="M44.9663 87.6182H35.8583V75.6122H44.9663V78.7802H39.4943V79.9682H44.8403V83.1362H39.4943V84.4502H44.9663V87.6182Z"/>
<path d="M34.4051 87.6182H30.2651L28.6091 83.8382H27.2951V87.6182H23.6591V75.6122H30.0671C31.4231 75.6122 32.4791 76.0082 33.2351 76.8002C34.0031 77.5802 34.3871 78.5582 34.3871 79.7342C34.3871 80.6702 34.1711 81.4382 33.7391 82.0382C33.3191 82.6382 32.8151 83.0822 32.2271 83.3702L34.4051 87.6182ZM29.5091 80.6702C29.8451 80.6702 30.1271 80.5922 30.3551 80.4362C30.5831 80.2682 30.6971 80.0282 30.6971 79.7162C30.6971 79.4162 30.5831 79.1882 30.3551 79.0322C30.1271 78.8642 29.8451 78.7802 29.5091 78.7802H27.2951V80.6702H29.5091Z"/>
<path d="M20.4799 86.1062C19.2319 87.2582 17.6719 87.8342 15.7999 87.8342C13.9279 87.8342 12.3619 87.2582 11.1019 86.1062C9.85386 84.9422 9.22986 83.4482 9.22986 81.6242C9.22986 79.8002 9.85386 78.3122 11.1019 77.1602C12.3619 75.9962 13.9279 75.4142 15.7999 75.4142C17.6719 75.4142 19.2319 75.9962 20.4799 77.1602C21.7399 78.3122 22.3699 79.8002 22.3699 81.6242C22.3699 83.4482 21.7399 84.9422 20.4799 86.1062ZM13.7119 83.7662C14.2519 84.3422 14.9479 84.6302 15.7999 84.6302C16.6519 84.6302 17.3419 84.3422 17.8699 83.7662C18.4099 83.1902 18.6799 82.4762 18.6799 81.6242C18.6799 80.7722 18.4099 80.0582 17.8699 79.4822C17.3419 78.9062 16.6519 78.6182 15.7999 78.6182C14.9479 78.6182 14.2519 78.9062 13.7119 79.4822C13.1839 80.0582 12.9199 80.7722 12.9199 81.6242C12.9199 82.4762 13.1839 83.1902 13.7119 83.7662Z"/>
<path d="M8.76898 87.6182H0.578979V75.6122H4.21498V84.4502H8.76898V87.6182Z"/>
</symbol><symbol viewBox="0 0 66 66" id="play" xmlns="http://www.w3.org/2000/svg">
<path d="M60.6167 33.03C60.6167 48.3559 48.1926 60.78 32.8667 60.78C17.5408 60.78 5.1167 48.3559 5.1167 33.03C5.1167 17.7041 17.5408 5.28003 32.8667 5.28003C48.1926 5.28003 60.6167 17.7041 60.6167 33.03Z"/>
<path d="M65.618 33.0299C65.618 51.1179 50.9548 65.7811 32.8668 65.7811C14.7788 65.7811 0.115601 51.1179 0.115601 33.0299C0.115601 14.9419 14.7788 0.278687 32.8668 0.278687C50.9548 0.278687 65.618 14.9419 65.618 33.0299Z" fill-opacity="0.15"/>
<path d="M38.8667 33.03L29.8667 38.2262L29.8667 27.8339L38.8667 33.03Z"/>
</symbol><symbol viewBox="0 0 63 62" id="round-arrow" xmlns="http://www.w3.org/2000/svg">
<rect x="61.593" y="61.0735" width="60.1766" height="60.1766" rx="30.0883" transform="rotate(180 61.593 61.0735)" stroke-width="1.22809"/>
<path d="M25.3643 29.8866L25.3643 32.0838L36.1992 32.0498L31.678 36.8003L33.1572 38.3538L37.9545 33.3154C38.5428 32.6973 38.8733 31.8592 38.8733 30.9852C38.8733 30.1112 38.5428 29.2731 37.9545 28.655L33.1572 23.6166L31.678 25.1701L36.1364 29.8525L25.3643 29.8866Z"/>
</symbol><symbol viewBox="0 0 25 25" id="search" xmlns="http://www.w3.org/2000/svg">
<path d="M23.9231 23.2326L17.959 17.2685C19.5843 15.2808 20.3834 12.7444 20.191 10.1839C19.9987 7.6235 18.8295 5.23496 16.9255 3.51237C15.0214 1.78977 12.5281 0.864915 9.96124 0.929094C7.3944 0.993273 4.95042 2.04158 3.13483 3.85718C1.31923 5.67277 0.270922 8.11676 0.206743 10.6836C0.142564 13.2504 1.06742 15.7438 2.79002 17.6478C4.51261 19.5519 6.90115 20.721 9.46158 20.9134C12.022 21.1058 14.5584 20.3067 16.5462 18.6814L22.5103 24.6455C22.6987 24.8275 22.9511 24.9282 23.2131 24.9259C23.4751 24.9236 23.7257 24.8186 23.911 24.6333C24.0962 24.4481 24.2013 24.1974 24.2036 23.9355C24.2059 23.6735 24.1051 23.4211 23.9231 23.2326ZM10.2274 18.9432C8.64643 18.9432 7.10099 18.4744 5.78647 17.596C4.47196 16.7177 3.44742 15.4693 2.84242 14.0087C2.23741 12.5481 2.07912 10.9409 2.38754 9.39029C2.69597 7.83972 3.45727 6.41543 4.57518 5.29753C5.69308 4.17962 7.11737 3.41832 8.66794 3.1099C10.2185 2.80147 11.8257 2.95976 13.2863 3.56477C14.7469 4.16977 15.9954 5.19431 16.8737 6.50882C17.752 7.82334 18.2208 9.36878 18.2208 10.9497C18.2184 13.069 17.3755 15.1008 15.877 16.5993C14.3784 18.0979 12.3466 18.9408 10.2274 18.9432Z"/>
</symbol><symbol viewBox="0 0 24 24" id="twitter" xmlns="http://www.w3.org/2000/svg">
<path fill-rule="evenodd" clip-rule="evenodd" d="M12.4054 0.511929C6.12039 0.511929 1.02572 5.60659 1.02572 11.8916C1.02572 18.1767 6.12039 23.2713 12.4054 23.2713C18.6905 23.2713 23.7851 18.1767 23.7851 11.8916C23.7851 5.60659 18.6905 0.511929 12.4054 0.511929ZM0.81311 11.8916C0.81311 5.48916 6.00296 0.299316 12.4054 0.299316C18.8079 0.299316 23.9977 5.48916 23.9977 11.8916C23.9977 18.2941 18.8079 23.4839 12.4054 23.4839C6.00296 23.4839 0.81311 18.2941 0.81311 11.8916Z"/>
<path d="M6.98151 15.7631C7.96546 16.396 9.1373 16.7619 10.3932 16.7619C14.5268 16.7619 16.8606 13.2711 16.7221 10.1363C17.1572 9.82476 17.533 9.4292 17.8346 8.9842C17.4341 9.1622 17.004 9.28087 16.554 9.33526C17.0138 9.05837 17.3649 8.62326 17.533 8.10409C17.1028 8.3612 16.6282 8.54415 16.1189 8.64304C15.7134 8.20792 15.1349 7.94092 14.4922 7.94092C13.0533 7.94092 12.0002 9.28087 12.3215 10.6752C10.4723 10.5813 8.83074 9.69621 7.73307 8.34637C7.14962 9.34515 7.43145 10.6554 8.42035 11.318C8.05446 11.3081 7.71329 11.2043 7.41168 11.0411C7.38696 12.0745 8.12863 13.0387 9.19663 13.2513C8.88513 13.3353 8.53902 13.3551 8.19291 13.2908C8.47474 14.1759 9.30046 14.8187 10.2745 14.8385C9.34002 15.5702 8.15829 15.9015 6.97656 15.7581L6.98151 15.7631Z"/>
</symbol></svg>