<svg width="1036.129517" height="927.496094" viewBox="0 0 1036.13 927.496" fill="none" xmlns="http://www.w3.org/2000/svg" xmlns:xlink="http://www.w3.org/1999/xlink">
	<desc>
			Created with Pixso.
	</desc>
	<defs>
		<filter id="filter_138_212_dd" x="0.000000" y="49.234375" width="878.261353" height="878.261719" filterUnits="userSpaceOnUse" color-interpolation-filters="sRGB">
			<feFlood flood-opacity="0" result="BackgroundImageFix"/>
			<feBlend mode="normal" in="SourceGraphic" in2="BackgroundImageFix" result="shape"/>
			<feGaussianBlur stdDeviation="106.75" result="effect_layerBlur_1"/>
		</filter>
		<filter id="filter_138_211_dd" x="157.868164" y="0.000000" width="878.261353" height="878.261719" filterUnits="userSpaceOnUse" color-interpolation-filters="sRGB">
			<feFlood flood-opacity="0" result="BackgroundImageFix"/>
			<feBlend mode="normal" in="SourceGraphic" in2="BackgroundImageFix" result="shape"/>
			<feGaussianBlur stdDeviation="106.75" result="effect_layerBlur_1"/>
		</filter>
	</defs>
	<g filter="url(#filter_138_212_dd)">
		<path id="Ellipse 28" d="M320.25 488.36C320.25 422.7 373.47 369.48 439.13 369.48C504.78 369.48 558.01 422.7 558.01 488.36C558.01 554.02 504.78 607.24 439.13 607.24C373.47 607.24 320.25 554.02 320.25 488.36Z" fill="#FF5A57" fill-opacity="1.000000" fill-rule="evenodd"/>
	</g>
	<g filter="url(#filter_138_211_dd)">
		<path id="Ellipse 29" d="M478.11 439.13C478.11 373.47 531.34 320.25 596.99 320.25C662.65 320.25 715.88 373.47 715.88 439.13C715.88 504.78 662.65 558.01 596.99 558.01C531.34 558.01 478.11 504.78 478.11 439.13Z" fill="#9A2AEB" fill-opacity="1.000000" fill-rule="evenodd"/>
	</g>
</svg>
