<svg width="236" height="37" viewBox="0 0 236 37" fill="none" xmlns="http://www.w3.org/2000/svg">
<g clip-path="url(#clip0_99_3495)">
<path d="M2.42943 36.8788C2.02493 35.4303 1.52902 34.0529 1.27372 32.631C0.892333 30.5453 0.629672 28.4331 0.406935 26.3219C0.0486652 22.9288 0.010842 19.5071 0.114856 16.0938C0.240933 11.9998 0.524607 7.91426 1.48069 3.91356C1.70133 2.97621 2.05645 2.07597 2.33907 1.14711C2.45989 0.747354 2.70259 0.773862 3.03145 0.848087C5.20838 1.34327 7.37796 1.89783 9.57486 2.28804C12.046 2.72279 14.5392 3.04301 17.0344 3.33779C20.4721 3.7439 23.9372 3.87114 27.3959 3.72058C30.2326 3.59863 33.0694 3.33143 35.8967 3.03665C39.7735 2.63266 43.58 1.81619 47.3487 0.841725C47.7154 0.747354 47.8803 0.841725 48.0116 1.19694C48.7555 3.22539 49.2693 5.33231 49.5456 7.4774C49.9417 10.387 50.2012 13.3093 50.1991 16.2497C50.1991 18.6058 50.2569 20.965 50.155 23.3169C50.0016 26.8627 49.6937 30.4011 48.807 33.8547C48.5506 34.8535 48.1945 35.8269 47.8688 36.8608C32.7185 32.8261 17.626 32.7837 2.42943 36.8788ZM4.71248 32.8261C4.87218 32.7964 4.95623 32.7826 5.03923 32.7646C11.4482 31.3066 17.9264 30.4605 24.5045 30.5029C25.0414 30.5029 25.179 30.3555 25.178 29.8211C25.1601 22.4559 25.1559 15.0907 25.1654 7.72446C25.1654 7.53889 25.1496 7.35333 25.1412 7.16989C24.3459 7.1296 23.6146 7.10309 22.8844 7.05432C20.2893 6.88148 17.6911 6.74363 15.1023 6.51354C11.7949 6.21134 8.53682 5.59315 5.30189 4.85515C4.87428 4.7576 4.68306 4.83288 4.57799 5.30262C3.85305 8.61303 3.58724 11.9765 3.48112 15.3484C3.40127 17.8932 3.42123 20.4571 3.55887 23.003C3.70281 25.6157 4.02641 28.2136 4.30378 30.8115C4.37522 31.4858 4.57064 32.1443 4.71248 32.8261ZM33.9088 10.2173V25.9105C33.9088 26.2636 33.9246 26.6167 33.9088 26.9709C33.8931 27.325 34.0307 27.4353 34.368 27.4311C35.4533 27.4173 36.5386 27.4311 37.625 27.4226C37.7069 27.413 37.7878 27.3929 37.8656 27.3653V10.2173H33.9088Z" fill="white"/>
<path d="M187.579 25.3324C187.137 22.8406 186.709 20.4283 186.282 18.016L186.177 18.0256V25.2975H183.599V12.2202H185.772C187.187 12.2202 187.18 12.2202 187.445 13.5986C187.72 15.0301 188.011 16.4616 188.299 17.8845C188.325 18.016 188.38 18.1422 188.467 18.4147C188.894 16.2824 189.293 14.29 189.7 12.2647H193.274V25.2826H190.686V18.5112L190.513 18.4889C190.396 19.105 190.276 19.7189 190.166 20.335C189.889 21.8725 189.604 23.41 189.353 24.9497C189.299 25.2762 189.167 25.3505 188.876 25.3377C188.459 25.3187 188.042 25.3324 187.579 25.3324Z" fill="white"/>
<path d="M133.693 12.2551H136.352V25.3303C135.462 25.3303 134.593 25.3473 133.726 25.3102C133.6 25.3049 133.43 25.0525 133.377 24.886C132.805 23.059 132.251 21.2257 131.696 19.3945C131.658 19.2344 131.573 19.088 131.452 18.9767V25.2974H128.803V12.2223C129.735 12.2223 130.642 12.2085 131.546 12.2403C131.663 12.2403 131.821 12.4725 131.875 12.6273C132.401 14.1362 132.915 15.6525 133.433 17.1656C133.481 17.3353 133.571 17.4901 133.695 17.6152L133.693 12.2551Z" fill="white"/>
<path d="M214.681 25.3314C213.798 25.3314 212.959 25.3495 212.122 25.3134C211.988 25.3081 211.793 25.0865 211.744 24.9285C211.176 23.1015 210.632 21.2671 210.078 19.4359C210.032 19.2588 209.939 19.0966 209.811 18.9672V25.2858H207.22V12.2223C208.111 12.2223 208.998 12.2043 209.882 12.2414C210.007 12.2414 210.176 12.4991 210.234 12.6656C210.753 14.1405 211.25 15.6229 211.756 17.1021C211.806 17.2855 211.915 17.4467 212.065 17.5623V12.2605H214.681V25.3314Z" fill="white"/>
<path d="M58.5266 12.2216C59.427 12.2216 60.2843 12.2046 61.1396 12.2386C61.2793 12.2386 61.4789 12.4506 61.5346 12.6065C62.0673 14.1143 62.5758 15.6306 63.0917 17.1437C63.1505 17.3558 63.2524 17.553 63.3911 17.7237V12.2619H65.9872V25.3307C65.1215 25.3307 64.2694 25.3487 63.4195 25.3116C63.2913 25.3116 63.1127 25.0603 63.0601 24.8938C62.4623 22.9651 61.8845 21.0299 61.2982 19.0969C61.2709 19.0004 61.2068 18.9177 61.1196 18.8679V25.2862H58.5266V12.2216Z" fill="white"/>
<path d="M172.383 12.2403H175.45V21.4113C175.441 21.6594 175.448 21.9064 175.47 22.1535C175.519 22.5586 175.751 22.7897 176.173 22.7812C176.568 22.7738 176.787 22.5533 176.832 22.1694C176.853 21.9414 176.862 21.7135 176.855 21.4844V12.2551H179.938C179.946 12.428 179.963 12.6125 179.963 12.797C179.963 15.8974 179.963 18.9968 179.963 22.0962C179.963 24.1364 178.781 25.4109 176.764 25.5265C176.212 25.5583 175.643 25.5774 175.105 25.4756C173.277 25.1299 172.384 24.0664 172.353 22.0591C172.305 18.8717 172.34 15.6843 172.342 12.4958C172.35 12.41 172.364 12.3241 172.383 12.2403Z" fill="white"/>
<path d="M161.137 12.2202C162.055 12.2202 162.96 12.2085 163.868 12.2202C164.653 12.2329 165.452 12.1905 166.218 12.3262C167.764 12.5977 168.408 13.3007 168.599 14.9008C168.682 15.59 168.622 16.3057 168.554 17.0024C168.479 17.7934 168.048 18.4031 167.354 18.858C168.518 19.6734 168.502 20.9183 168.615 22.0942C168.72 23.1365 168.753 24.1863 168.825 25.3293H166.861C165.94 25.3293 165.915 25.3293 165.819 24.3898C165.714 23.3422 165.67 22.2882 165.603 21.2374C165.55 20.4008 165.255 20.0573 164.605 20.0159C164.222 19.9926 164.08 20.0997 164.088 20.509C164.111 21.9001 164.097 23.2924 164.097 24.6836V25.2975H161.137V12.2202ZM164.066 17.6556C165.214 17.8899 165.693 17.5124 165.712 16.3906V15.8604C165.683 14.8064 165.098 14.4003 164.067 14.7279V17.6556H164.066Z" fill="white"/>
<path d="M147.506 16.2845H144.849C144.766 15.8996 144.766 15.4967 144.591 15.1955C144.417 14.8944 144.096 14.5593 143.786 14.4946C143.535 14.4395 143.13 14.6887 142.924 14.9188C142.622 15.257 142.785 15.7066 143.066 15.9706C143.687 16.5581 144.361 17.0883 145.03 17.6216C145.912 18.3246 146.768 19.0499 147.281 20.0869C147.816 21.1664 147.84 22.2893 147.457 23.4154C147.122 24.4036 146.407 25.0218 145.433 25.324C144.512 25.6092 143.537 25.6686 142.59 25.4979C141.055 25.2233 140.117 24.1852 139.88 22.5522C139.809 22.0571 139.785 21.5534 139.736 21.0158H142.549C142.578 21.3827 142.626 21.7485 142.694 22.1111C142.807 22.5999 143.081 22.9944 143.604 23.092C144.043 23.1736 144.46 23.0665 144.69 22.6402C144.938 22.1811 144.918 21.6859 144.546 21.3201C143.896 20.6839 143.202 20.0965 142.503 19.5175C141.677 18.8325 140.869 18.1391 140.376 17.1519C139.134 14.6653 140.691 12.0781 143.457 12.006C144.912 11.9689 146.149 12.3814 146.992 13.6495C147.513 14.4321 147.603 15.3132 147.506 16.2845Z" fill="white"/>
<path d="M230.799 20.9829C230.799 21.3159 230.741 21.5788 230.811 21.8005C230.93 22.1716 231.059 22.5819 231.311 22.8608C231.668 23.2478 232.333 23.1895 232.702 22.8523C233.087 22.5045 233.136 21.915 232.815 21.5067C232.377 20.9691 231.835 20.5164 231.329 20.036C230.519 19.2662 229.615 18.5759 228.913 17.7192C227.989 16.5963 227.799 15.2549 228.46 13.9104C229.107 12.5934 230.274 12.0728 231.677 12.0134C233.143 11.9509 234.358 12.4376 235.183 13.71C235.617 14.3791 235.76 15.1425 235.716 15.9282C235.708 16.0629 235.494 16.2898 235.366 16.2962C234.668 16.3322 233.966 16.3301 233.265 16.2962C233.144 16.2909 232.979 16.0968 232.927 15.9547C232.822 15.6621 232.799 15.3397 232.7 15.0428C232.57 14.6473 232.245 14.4141 231.86 14.4702C231.581 14.5095 231.162 14.6961 231.104 14.9018C231.015 15.2252 231.05 15.7501 231.258 15.9622C231.888 16.61 232.624 17.1582 233.334 17.7276C234.2 18.4243 235.015 19.1591 235.5 20.1951C236.202 21.7029 235.881 23.602 234.808 24.6486C233.634 25.8001 230.092 25.9952 228.905 24.5245C228.327 23.8056 228.065 22.9859 227.989 22.1005C227.884 20.985 227.912 20.9829 229.05 20.9829H230.799Z" fill="white"/>
<path d="M68.949 25.2243C69.0761 24.4439 69.2022 23.6338 69.3409 22.8279C69.9187 19.4571 70.5071 16.0883 71.0734 12.7154C71.1343 12.3538 71.2467 12.2032 71.6334 12.2117C72.684 12.2372 73.7273 12.2202 74.8483 12.2202C75.5943 16.5676 76.3371 20.9002 77.0967 25.3261C76.1385 25.3261 75.2392 25.3346 74.3409 25.3113C74.2663 25.3113 74.156 25.0992 74.1308 24.9656C73.9091 23.7229 73.9122 23.743 72.6882 23.7133C72.2196 23.7017 72.0305 23.796 71.9822 24.3209C71.8876 25.3367 71.8424 25.3335 70.8265 25.3314C70.2497 25.3314 69.6708 25.3208 69.0961 25.3123C69.0729 25.3123 69.0435 25.2795 68.949 25.2243ZM73.7714 21.1176L73.0654 16.1785L72.9068 16.1923C72.6882 17.8125 72.4686 19.4327 72.2406 21.1186H73.7714V21.1176Z" fill="white"/>
<path d="M203.465 14.9505H200.019C200.019 15.6281 200.006 16.2548 200.035 16.8793C200.035 16.9588 200.245 17.0914 200.366 17.0914C201.182 17.1094 201.998 17.1009 202.887 17.1009V20.0073C202.03 20.0073 201.231 20.0222 200.434 20.001C200.06 19.9914 200.014 20.1727 200.014 20.4855C200.014 21.0157 199.991 21.5395 199.962 22.0655C199.934 22.5914 200.263 22.55 200.622 22.5437C201.631 22.5288 202.638 22.5384 203.68 22.5384V25.2953H196.943V12.253H203.465V14.9505Z" fill="white"/>
<path d="M106.622 12.2425H113.146V14.9347H109.629C109.629 15.6218 109.608 16.2506 109.649 16.8752C109.656 16.9812 109.929 17.1487 110.084 17.154C110.884 17.1827 111.686 17.1678 112.527 17.1678V19.9491C111.768 19.9491 111.02 19.9852 110.278 19.9375C109.728 19.9014 109.571 20.1018 109.616 20.6267C109.649 21.1187 109.649 21.6128 109.616 22.1048C109.602 22.4526 109.736 22.5692 110.074 22.5639C110.966 22.5491 111.86 22.5586 112.749 22.5586H113.346V25.2848H106.622V12.2425Z" fill="white"/>
<path d="M95.5745 12.2552H98.4595C98.8588 14.6303 99.257 16.9981 99.6541 19.3595L99.7823 19.3691C99.8737 18.8389 99.9777 18.3087 100.057 17.7785C100.312 16.0427 100.553 14.3048 100.82 12.5701C100.84 12.4439 101.015 12.252 101.122 12.2456C101.939 12.2181 102.759 12.2308 103.682 12.2308C103.538 13.0653 103.413 13.834 103.275 14.6017C102.658 18.0213 102.034 21.4399 101.423 24.8606C101.366 25.1787 101.272 25.3622 100.898 25.3484C100.163 25.3219 99.4272 25.3282 98.6917 25.3484C98.3934 25.3568 98.2484 25.2561 98.1864 24.9592C97.3185 20.8196 96.4476 16.6811 95.5745 12.5425C95.565 12.4471 95.565 12.3506 95.5745 12.2552Z" fill="white"/>
<path d="M150.295 14.9485V12.2669H158.004V14.9358H155.726V25.2975H152.598V24.6921C152.598 21.6446 152.586 18.5972 152.61 15.5498C152.61 15.0482 152.457 14.9135 151.987 14.9443C151.448 14.9772 150.905 14.9485 150.295 14.9485Z" fill="white"/>
<path d="M220.144 14.9581H217.842V12.2669H225.529V14.9347H223.252V25.2975H220.143V14.9581H220.144Z" fill="white"/>
<path d="M78.6685 14.9369V12.2701H86.3896V14.9358H84.1118V25.2975H81.065V14.9369H78.6685Z" fill="white"/>
<path d="M92.3552 25.3134H89.3903V12.2552H92.3552V25.3134Z" fill="white"/>
<path d="M121.854 12.2213H124.522C124.607 12.2213 124.691 12.2372 124.814 12.2499V25.2975H121.854V12.2213Z" fill="white"/>
<path d="M15.8515 17.4096V16.9208C15.8515 14.8425 15.8609 12.7642 15.8431 10.6859C15.8431 10.2618 15.9481 10.0942 16.3999 10.108C17.3402 10.1388 18.2827 10.1176 19.2682 10.1176V27.3493C18.0988 27.3493 16.9494 27.3631 15.8011 27.3302C15.676 27.3302 15.4974 27.0789 15.4459 26.9124C14.8271 24.9169 14.2293 22.9139 13.622 20.914C13.4119 20.2121 13.187 19.5133 12.9696 18.8135H12.8361C12.8277 18.9885 12.8109 19.1623 12.8109 19.3362C12.8109 21.8196 12.8004 24.3029 12.8183 26.7863C12.8183 27.2104 12.7216 27.3779 12.2698 27.3578C11.484 27.3217 10.6939 27.3281 9.90904 27.3578C9.51609 27.3716 9.40157 27.2443 9.40473 26.8499C9.42049 24.4376 9.41208 22.0242 9.41208 19.6119V10.1144C10.6497 10.1144 11.817 10.1059 12.9843 10.1292C13.1019 10.1292 13.2764 10.3063 13.3226 10.4367C14.058 12.5574 14.7851 14.6887 15.5142 16.8158C15.5846 17.0279 15.6655 17.2261 15.7422 17.4308L15.8515 17.4096Z" fill="white"/>
</g>
<defs>
<clipPath id="clip0_99_3495">
<rect width="235.809" height="36.0752" fill="white" transform="translate(0.0644531 0.803528)"/>
</clipPath>
</defs>
</svg>
