<svg width="67" height="78" viewBox="0 0 67 78" fill="none" xmlns="http://www.w3.org/2000/svg">
<g clip-path="url(#clip0_99_3415)">
<path d="M14.3757 77.2573C13.8415 77.1114 13.298 76.9937 12.7754 76.8152C10.709 76.1089 9.17191 74.7599 8.1228 72.846C7.3809 71.4937 6.96873 70.0363 6.78683 68.5054C6.52743 66.3258 6.64889 64.1809 7.34133 62.0869C7.83923 60.582 8.60532 59.2329 9.73246 58.1132C11.0871 56.7675 12.7215 55.9695 14.5983 55.6589C16.3964 55.3616 18.1704 55.4411 19.8949 56.0458C22.7729 57.0549 24.4694 59.0953 25.0173 62.1068C25.0212 62.1576 25.0212 62.209 25.0173 62.2598C24.9569 62.2737 24.8953 62.2831 24.8338 62.2875C24.0562 62.2875 23.2785 62.2875 22.5004 62.2919C22.3322 62.2919 22.2646 62.2366 22.2228 62.0708C21.6183 59.6778 19.9955 58.2575 17.5021 57.9187C16.1156 57.7308 14.7719 57.8739 13.4859 58.4504C12.2275 59.0141 11.3053 59.9425 10.6376 61.1391C9.93195 62.4013 9.58573 63.7708 9.47637 65.2094C9.33513 67.0636 9.48571 68.8813 10.1402 70.6326C10.8898 72.6366 12.1873 74.1077 14.2823 74.7223C15.982 75.2197 17.6747 75.2037 19.2975 74.3946C20.5901 73.7507 21.4595 72.7023 21.942 71.3588C22.1877 70.6757 22.2827 69.9379 22.4553 69.2272C22.4734 69.1515 22.5542 69.0332 22.6075 69.0327C23.4742 69.0205 24.3414 69.0238 25.2921 69.0238C25.1245 69.7976 24.997 70.5365 24.803 71.256C24.4304 72.6377 23.7616 73.8662 22.7696 74.8958C21.7777 75.9254 20.5808 76.6019 19.2129 76.9821C18.8645 77.0794 18.5133 77.1673 18.1638 77.2585L14.3757 77.2573Z" fill="white"/>
<path d="M55.2833 77.2574C54.7584 77.1137 54.2248 76.9959 53.7104 76.8213C51.6518 76.1227 50.1119 74.7908 49.0584 72.8891C48.3055 71.5379 47.8466 70.0407 47.712 68.4977C47.6241 67.5029 47.5598 66.4943 47.6147 65.499C47.7521 63.012 48.4709 60.7113 50.0636 58.7565C51.3677 57.1538 53.062 56.1618 55.0684 55.7396C57.0072 55.3317 58.9417 55.387 60.8228 56.0513C63.6849 57.0626 65.3842 59.0909 65.926 62.0952C65.931 62.1548 65.931 62.2145 65.926 62.2742C65.8332 62.2803 65.7535 62.2891 65.6732 62.2891C64.9319 62.2891 64.1894 62.2825 63.4497 62.2947C63.2436 62.298 63.1711 62.23 63.1244 62.0294C62.8172 60.703 62.1319 59.6248 61.002 58.8604C60.0782 58.2359 59.0423 57.9425 57.936 57.8657C56.7698 57.7855 55.6377 57.9209 54.5573 58.378C53.1873 58.9555 52.1887 59.947 51.4886 61.2518C50.8099 62.5179 50.4845 63.8808 50.3818 65.31C50.2515 67.1288 50.4125 68.9094 51.0506 70.6238C51.7952 72.6266 53.0889 74.1055 55.1854 74.7184C56.8951 75.2191 58.5966 75.202 60.2271 74.3868C61.4988 73.7496 62.3621 72.7178 62.8425 71.3947C63.0909 70.7122 63.2002 69.9777 63.353 69.2626C63.3876 69.1012 63.4189 69.0183 63.6019 69.0205C64.4527 69.0299 65.3056 69.0283 66.1546 69.0305V69.2515C66.1343 69.2808 66.1184 69.3129 66.1085 69.3471C65.992 70.4259 65.7123 71.4799 65.2792 72.4735C64.3482 74.5808 62.8199 76.052 60.6448 76.8108C60.1144 76.9959 59.5599 77.1115 59.0164 77.259L55.2833 77.2574Z" fill="white"/>
<path d="M28.6802 55.9955H28.9643C32.1946 55.9955 35.4255 55.9894 38.6558 55.9999C39.8648 56.0038 41.0354 56.2381 42.112 56.8289C43.5578 57.6197 44.4278 58.84 44.6729 60.4703C44.8713 61.7934 44.7427 63.0905 44.1508 64.3168C43.5925 65.4719 42.6857 66.2208 41.4986 66.6496C41.4047 66.6833 41.3112 66.7182 41.2173 66.7541C41.2107 66.7541 41.2079 66.7684 41.1848 66.8093C41.4201 66.8801 41.6509 66.9392 41.8745 67.0193C43.0077 67.4239 43.6765 68.2706 43.9513 69.4035C44.1382 70.1739 44.2151 70.9753 44.2964 71.7672C44.4185 72.961 44.3761 74.1785 44.7361 75.338C44.901 75.858 45.1516 76.3493 45.367 76.8633C45.3098 76.8705 45.2521 76.8749 45.1944 76.8766C44.3613 76.8766 43.5282 76.8616 42.6961 76.886C42.3988 76.8948 42.2263 76.7716 42.1697 76.5212C42.0537 76.0056 41.9202 75.4833 41.8949 74.9594C41.8251 73.5186 41.7734 72.0784 41.4453 70.6663C41.2596 69.8689 40.9947 69.1123 40.3193 68.5784C39.8406 68.1982 39.2487 67.9915 38.6387 67.9909C36.296 67.9683 33.9532 67.9777 31.6104 67.9766C31.5577 67.9799 31.5049 67.9871 31.4527 67.997V76.8534H28.6802V55.9955ZM31.4697 58.336V65.5951C31.556 65.6007 31.6187 65.6079 31.6819 65.6079C33.6944 65.6079 35.7068 65.63 37.7188 65.5918C38.3744 65.573 39.0256 65.4736 39.6571 65.2956C40.8111 64.9811 41.5805 64.229 41.8641 63.0363C42.0746 62.1841 42.0394 61.2894 41.7641 60.456C41.4404 59.4767 40.7639 58.8306 39.7857 58.5554C39.2663 58.4122 38.7305 58.3382 38.1919 58.3343C36.0426 58.31 33.8927 58.3244 31.7434 58.3249C31.6593 58.3227 31.5698 58.331 31.4697 58.336Z" fill="white"/>
<path d="M33.1877 45.6143C21.0138 45.6403 10.8673 35.6371 10.8761 23.1382C10.8843 10.731 21.0331 0.534461 33.5449 0.711312C45.5148 0.879873 55.541 10.7255 55.5393 23.1802C55.5382 35.6543 45.3835 45.6602 33.1877 45.6143ZM11.4042 23.157C11.3757 35.1668 21.0952 45.0555 33.1118 45.1053C45.2648 45.1556 55.0101 35.195 55.0222 23.1885C55.0282 11.1731 45.3368 1.25568 33.2657 1.22694C21.0963 1.19765 11.3817 11.1803 11.4042 23.157Z" fill="white"/>
<path d="M0.286133 56.0049H2.99161V76.8551H0.286133V56.0049Z" fill="white"/>
<path d="M33.2152 38.6552C24.8443 38.6602 17.8116 31.8641 17.8077 23.168C17.8044 14.5493 24.752 7.68252 33.2146 7.67865C41.5388 7.67534 48.5891 14.4211 48.6111 23.1531C48.6325 31.727 41.6905 38.6463 33.2152 38.6552ZM33.2201 8.21141C25.0801 8.13791 18.3271 14.8986 18.3216 23.1426C18.3166 31.3678 24.9262 38.1362 33.1965 38.1429C41.4948 38.1495 48.0895 31.3551 48.0972 23.1658C48.1038 14.903 41.3382 8.14786 33.2201 8.21141Z" fill="white"/>
<path d="M16.0871 20.6772C15.5875 20.3782 15.1275 20.1025 14.6676 19.8283C14.1015 19.4912 13.536 19.1524 12.9672 18.8208C12.8315 18.7418 12.7666 18.6683 12.8227 18.4937C12.8826 18.282 12.9255 18.0659 12.9496 17.8471C12.97 17.7072 13.0337 17.6486 13.1695 17.6763C14.5818 17.9609 15.9942 18.2466 17.406 18.5335C17.4379 18.5462 17.4676 18.565 17.4928 18.5887C17.328 19.4138 17.4082 19.248 16.735 19.1259C15.8491 18.9656 14.9665 18.7849 14.0471 18.6705C14.0971 18.7175 14.151 18.7611 14.207 18.8009C15.0863 19.3287 15.9656 19.8549 16.8449 20.3804C17.0603 20.5092 17.1521 20.9486 16.9944 21.1414C16.9609 21.1829 16.8845 21.1912 16.8246 21.2067C15.8442 21.4598 14.8632 21.7123 13.8822 21.9638C13.819 21.9776 13.7652 22.0196 13.7366 22.0782L16.879 22.3706V23.0846L12.3506 22.7265C12.3506 22.375 12.3578 22.055 12.3473 21.7356C12.3418 21.5598 12.4171 21.5018 12.5792 21.4664C13.6311 21.2398 14.6808 21.0022 15.7315 20.7673C15.8337 20.743 15.9359 20.7153 16.0871 20.6772Z" fill="white"/>
<path d="M52.7168 21.9589L49.4871 22.1358V21.3957C49.8201 21.3709 50.1542 21.3405 50.4889 21.3222C51.5737 21.267 52.6597 21.2161 53.7445 21.1531C53.9726 21.1399 54.0506 21.1951 54.0797 21.4449C54.1303 21.8799 53.9995 22.1396 53.6126 22.3717C52.6948 22.9211 51.8111 23.529 50.9137 24.1137C50.823 24.1662 50.7483 24.2425 50.6977 24.3348L54.0182 24.5603C54.0423 24.6128 54.0577 24.6299 54.0555 24.6443C54.0248 24.8874 54.0737 25.2306 53.9357 25.3456C53.7978 25.4606 53.4692 25.3627 53.2262 25.3423C52.2261 25.2583 51.2264 25.1676 50.2268 25.0825C50.0449 25.0671 49.8613 25.0676 49.6772 25.0577C49.5288 25.0499 49.475 24.9869 49.4574 24.8189C49.4024 24.3597 49.5838 24.0971 49.98 23.8562C50.8939 23.3002 51.7688 22.6801 52.6608 22.0877C52.6926 22.0705 52.7267 22.0573 52.7619 22.0479L52.7168 21.9589Z" fill="white"/>
<path d="M43.1737 8.54468L44.9554 5.75541L45.5714 6.2528L43.1369 10.0932C42.6351 9.87216 42.4291 9.53615 42.4225 8.97852C42.4065 7.87983 42.301 6.78225 42.1817 5.66975C42.0317 5.94608 41.8795 6.21854 41.7328 6.49542C41.414 7.09505 41.0909 7.69248 40.7864 8.2993C40.6886 8.49494 40.5996 8.52478 40.4083 8.42144C39.9417 8.16942 39.9335 8.28493 40.2 7.77593C40.7798 6.67061 41.3673 5.56972 41.9504 4.46661C42.1153 4.15104 42.1032 4.19028 42.445 4.29584C42.85 4.4235 42.916 4.69044 42.9308 5.06016C42.977 6.21356 43.0501 7.36586 43.1127 8.5187L43.1737 8.54468Z" fill="white"/>
<path d="M32.0144 42.8471C32.0447 42.2978 32.0787 41.749 32.1029 41.1991C32.1265 40.6603 32.1403 40.1209 32.1579 39.5511L32.8547 39.6019C32.7838 41.1284 32.714 42.6371 32.6437 44.1652C32.3887 44.1652 32.1491 44.1873 31.921 44.1542C31.8336 44.1415 31.738 44.0149 31.6902 43.9182C31.1665 42.8681 30.6515 41.8092 30.1338 40.7537C30.0943 40.6735 30.052 40.5945 29.9767 40.448C29.7673 41.6153 29.5705 42.7106 29.3722 43.8253C29.2996 43.8143 29.2491 43.8088 29.199 43.7994C28.628 43.6955 28.6204 43.6944 28.716 43.1268C28.927 41.8794 29.1523 40.6343 29.3579 39.3858C29.3936 39.1686 29.4678 39.1648 29.6662 39.1808C30.0706 39.2156 30.2828 39.4168 30.4498 39.7799C30.9071 40.7747 31.4044 41.7462 31.8864 42.7272C31.9095 42.7742 31.9358 42.8189 31.9611 42.8648L32.0144 42.8471Z" fill="white"/>
<path d="M25.5708 8.63155C25.1465 7.66385 24.7338 6.72433 24.3222 5.78425C24.1529 5.39739 23.9924 5.01053 23.8138 4.62367C23.7506 4.48495 23.7622 4.39763 23.9095 4.34292C23.9358 4.33408 23.96 4.32137 23.9825 4.30534C24.3376 4.03454 24.6145 4.10915 24.9553 4.4015C25.7681 5.09785 26.6287 5.73838 27.4706 6.40157C27.519 6.43086 27.5684 6.45739 27.6201 6.4806L26.6149 3.20389L27.3557 2.99664L28.7423 7.35602C28.5126 7.42952 28.3191 7.51573 28.1169 7.54668C27.9938 7.55497 27.8718 7.5185 27.7734 7.44389C26.9491 6.81994 26.1324 6.18493 25.3125 5.55435C25.2202 5.48305 25.1245 5.41674 24.9624 5.29902C24.9767 5.3891 24.9981 5.47808 25.0251 5.56485C25.3641 6.34852 25.7054 7.13108 26.0489 7.91254C26.2264 8.31488 26.2308 8.31322 25.8291 8.51218C25.7565 8.5481 25.6818 8.58071 25.5708 8.63155Z" fill="white"/>
<path d="M39.5796 8.00431C39.3664 7.92804 39.14 7.87665 38.9471 7.76225C38.869 7.71582 38.8322 7.52571 38.8476 7.4102C38.8927 7.067 39.0004 6.73043 39.0312 6.38612C39.0669 5.99153 38.9103 5.79423 38.5272 5.67706C38.1782 5.5704 37.821 5.49192 37.4732 5.3836C37.3083 5.33165 37.2533 5.37918 37.2072 5.54166C37.0687 6.06282 36.9126 6.57956 36.7554 7.12613L36.0498 6.97968C36.1757 6.50992 36.2922 6.06116 36.4158 5.61406C36.6796 4.66017 36.9505 3.70794 37.2088 2.75239C37.2522 2.59046 37.2968 2.50757 37.4836 2.56228C38.1662 2.76234 38.8575 2.92869 39.534 3.15197C40.5402 3.48356 40.8035 4.64967 40.0418 5.35155C39.8923 5.48861 39.6868 5.56377 39.4983 5.67209C39.8632 5.9451 39.8352 6.32367 39.7582 6.73098C39.6785 7.151 39.6346 7.57932 39.5796 8.00431ZM37.4297 4.75689C37.9189 4.88842 38.3695 5.03322 38.8306 5.12109C39.0251 5.15314 39.2241 5.11114 39.3895 5.00337C39.6362 4.82044 39.6967 4.5198 39.6511 4.21252C39.6071 3.92071 39.4043 3.77039 39.1477 3.69412C38.7734 3.58359 38.3959 3.47638 38.0156 3.38795C37.9568 3.37413 37.8304 3.4504 37.81 3.51009C37.6765 3.90745 37.5627 4.31144 37.4297 4.75689Z" fill="white"/>
<path d="M24.774 38.9569C24.6234 38.8713 24.5618 38.8315 24.4992 38.8C24.2381 38.6717 24.0595 38.5579 24.1348 38.1699C24.2315 37.6875 23.9013 37.3409 23.5133 37.0917C23.039 36.785 22.546 36.7999 22.0987 37.1249C21.4634 37.5852 21.0897 38.2031 21.1249 39.0221C21.1469 39.5328 21.5552 40.0086 22.1168 40.1827C22.6219 40.3364 23.1099 40.1573 23.4545 39.6638L22.4713 39.0006C22.4702 38.9807 22.4724 38.9608 22.4779 38.942C22.6457 38.6472 22.8703 38.5866 23.1517 38.7602C23.5006 38.9785 23.8447 39.2056 24.1958 39.4206C24.3162 39.4935 24.3409 39.5659 24.2673 39.6875C23.8881 40.3154 23.5133 40.9454 23.1055 41.6268C22.9648 41.5003 22.7895 41.4129 22.7417 41.2792C22.6939 41.1454 22.7681 40.9603 22.7923 40.7757C22.529 40.7757 22.2839 40.8078 22.0498 40.7696C21.2694 40.642 20.5924 39.9705 20.4313 39.1984C20.1758 37.971 21.021 36.5866 22.2268 36.2583C23.3385 35.956 24.7685 36.8861 24.8976 38.0268C24.9278 38.3114 24.8229 38.6126 24.774 38.9569Z" fill="white"/>
<path d="M50.9296 20.4828C49.7272 20.4828 48.8413 19.6538 48.8221 18.4512C48.8083 17.6288 49.1952 16.9839 49.8871 16.5484C50.7301 16.0173 51.6237 15.8355 52.525 16.3776C53.9049 17.2094 53.8478 19.2304 52.442 20.0611C51.9848 20.3358 51.4622 20.4817 50.9296 20.4828ZM50.801 19.7206C51.3693 19.7295 51.8326 19.6018 52.237 19.3078C52.6888 18.979 52.9608 18.5474 52.858 17.961C52.7641 17.4249 52.4492 17.0485 51.9276 16.9076C51.2786 16.7324 50.6801 16.9148 50.1355 17.2845C49.5519 17.6802 49.3442 18.2528 49.542 18.8839C49.7184 19.4487 50.158 19.7256 50.801 19.7206Z" fill="white"/>
<path d="M14.678 23.5666C15.5446 23.5793 16.2469 23.7534 16.7223 24.4017C17.5142 25.4816 17.162 26.9284 15.9766 27.543C14.8659 28.1211 13.5651 27.8961 12.871 27.008C11.8862 25.7501 12.5413 23.9573 14.1064 23.6395C14.3273 23.5948 14.556 23.5815 14.678 23.5666ZM14.6296 27.1263C14.9863 27.0268 15.3572 26.9605 15.6963 26.8212C16.2777 26.5786 16.4992 26.174 16.4723 25.5374C16.4503 25.0251 16.131 24.5979 15.6012 24.4193C14.9555 24.1983 14.318 24.2668 13.7184 24.5746C13.1689 24.857 12.9644 25.3539 13.0991 25.9607C13.2606 26.6841 13.7844 27.066 14.6296 27.1263Z" fill="white"/>
<path d="M35.4096 4.74357H33.1465V5.56648C33.1327 6.12411 33.1327 6.11914 33.7109 6.13185C34.2313 6.14401 34.7517 6.1838 35.2722 6.18712C35.5431 6.18712 35.6657 6.27112 35.6217 6.55408C35.6129 6.66848 35.6118 6.78344 35.6189 6.89839L32.3254 6.76852C32.3573 5.23544 32.3886 3.70844 32.4211 2.14276L35.6085 2.27429V2.94688C34.8754 2.91648 34.1643 2.89161 33.4531 2.85569C33.2646 2.84574 33.1954 2.90101 33.197 3.09886C33.197 3.40946 33.1712 3.72005 33.1525 4.09365H35.4568C35.437 4.34676 35.4244 4.53301 35.4096 4.74357Z" fill="white"/>
<path d="M19.7015 9.71745L20.1412 10.1507L18.7315 11.8911L19.7526 12.8245L21.3463 10.9112C21.4837 11.0471 21.6178 11.1665 21.731 11.3025C21.7624 11.3605 21.7624 11.4312 21.731 11.4893C21.0908 12.2553 20.4462 13.0174 19.7971 13.7762C19.7806 13.795 19.7493 13.8005 19.6988 13.8254L16.3168 10.8045L18.4139 8.30817L18.8909 8.81551L17.3225 10.6255L18.2226 11.4511L19.7015 9.71745Z" fill="white"/>
<path d="M43.543 35.8681L43.9211 36.4291L41.9295 37.8179L42.6099 38.8762L44.4388 37.5836C44.5636 37.767 44.6751 37.9306 44.7982 38.1124L42.9737 39.42C43.2237 39.7942 43.4683 40.1623 43.7282 40.5497L45.7506 39.1426L46.1254 39.7063L43.46 41.5505L40.9062 37.6775L43.543 35.8681Z" fill="white"/>
<path d="M24.3085 42.2026C24.7399 41.0001 25.1603 39.8262 25.5807 38.6529C25.6554 38.4457 25.7329 38.2395 25.8038 38.0312C25.8538 37.8847 25.9357 37.8599 26.0786 37.9173C26.8727 38.2395 27.6701 38.5568 28.4714 38.8701C28.6291 38.932 28.6912 39.016 28.6319 39.1824C28.5879 39.31 28.5555 39.4421 28.5115 39.5952C27.907 39.3504 27.3234 39.1183 26.743 38.8767C26.3583 38.717 26.3627 38.7109 26.2187 39.1083C26.1533 39.2896 26.0978 39.4753 26.0187 39.6505C25.9258 39.8561 25.9742 39.9605 26.1907 40.0373C26.6556 40.2031 27.1052 40.4131 27.5751 40.5601C27.8696 40.653 27.9312 40.7956 27.8218 41.0575C27.7938 41.125 27.7773 41.1968 27.7454 41.3007C27.4085 41.1725 27.0799 41.0481 26.7524 40.9221C26.488 40.821 26.2226 40.7215 25.961 40.6127C25.7901 40.5419 25.6901 40.5784 25.6313 40.7646C25.5417 41.0537 25.4433 41.3405 25.3329 41.6224C25.2708 41.781 25.3103 41.855 25.4647 41.9114C26.0308 42.1186 26.593 42.3364 27.1579 42.547C27.5283 42.6846 27.5294 42.6818 27.4157 43.0698C27.3953 43.1394 27.3739 43.2085 27.3376 43.329L24.3085 42.2026Z" fill="white"/>
<path d="M34.1983 44.1536C34.1252 43.5241 34.0527 42.9063 33.9818 42.2878C33.8966 41.5495 33.823 40.81 33.7252 40.0739C33.6609 39.5925 33.6515 39.5886 34.1258 39.5328C34.877 39.4444 35.6283 39.3521 36.379 39.2637C36.4675 39.2587 36.5559 39.2587 36.6444 39.2637C36.6873 39.4748 36.7279 39.6771 36.7719 39.8965C36.1124 39.9633 35.481 40.0324 34.8485 40.0905C34.4638 40.1253 34.4269 40.1623 34.4846 40.5403C34.505 40.6757 34.5132 40.8139 34.5319 40.9498C34.5495 41.077 34.5737 41.2024 34.6028 41.377C34.8166 41.3549 35.0293 41.3339 35.2414 41.3107C35.6404 41.2665 36.0421 41.2372 36.4367 41.1687C36.6395 41.1333 36.7032 41.1991 36.7225 41.3804C36.7356 41.5053 36.7626 41.6291 36.7868 41.7722L34.6946 42.0303C34.7495 42.4879 34.8045 42.9284 34.8638 43.4158L37.2544 43.1505C37.3033 43.3152 37.3407 43.4832 37.3671 43.6534C37.355 43.7319 37.3022 43.7988 37.2291 43.8286C36.2614 43.9508 35.2914 44.0608 34.322 44.1724C34.2802 44.1696 34.239 44.1636 34.1983 44.1536Z" fill="white"/>
<path d="M43.3282 10.2657C43.6387 10.1088 43.9041 9.97115 44.1723 9.83906C45.2714 9.2969 46.3738 8.76303 47.4669 8.21038C47.6768 8.10426 47.8038 8.12029 47.9615 8.29162C48.4105 8.77575 48.3907 8.55855 48.1264 9.19024C47.5702 10.5089 46.9987 11.8203 46.4326 13.1346C46.4041 13.2009 46.3694 13.2644 46.3156 13.3739C46.1507 13.1744 45.9924 13.0047 45.8644 12.814C45.827 12.7588 45.8573 12.6366 45.8891 12.5581C46.0128 12.252 46.1595 11.9552 46.2738 11.6463C46.3024 11.5506 46.2854 11.4473 46.2282 11.3655C45.8985 11.009 45.5572 10.6636 45.2049 10.3282C45.1258 10.2701 45.0241 10.253 44.9301 10.2817C44.6614 10.3984 44.4009 10.5321 44.1498 10.6824C43.9849 10.7802 43.875 10.7653 43.7447 10.6272C43.6123 10.4995 43.4733 10.379 43.3282 10.2657ZM46.6519 10.8145L47.4993 9.00234L47.4444 8.95481L45.6655 9.88327L46.6519 10.8145Z" fill="white"/>
<path d="M15.8474 28.3912C16.6586 28.0552 17.6417 28.4084 18.0825 29.1561C18.8227 30.4118 18.2418 31.6984 16.9647 32.2831C16.0788 32.6876 15.1907 32.6837 14.4219 32.0106C13.4947 31.1988 13.3376 29.8376 14.2746 29.0102C14.3603 28.9345 14.4614 28.8759 14.5862 28.7892C14.6681 29.0334 14.7455 29.2374 14.8005 29.4479C14.806 29.5187 14.7802 29.5878 14.7302 29.6375C14.318 30.0349 14.213 30.4847 14.4691 31.0103C14.74 31.563 15.1918 31.8343 15.7952 31.7995C16.4635 31.7608 17.0229 31.4596 17.4626 30.9567C17.8082 30.5615 17.8357 30.1012 17.606 29.6447C17.362 29.16 16.935 28.9196 16.408 29.008C16.0782 29.0633 15.9864 28.9329 15.926 28.6731C15.904 28.5764 15.8732 28.483 15.8474 28.3912Z" fill="white"/>
<path d="M53.4533 28.3421C53.1675 29.3153 53.4489 29.1313 52.4355 29.2081C51.1715 29.3043 49.9075 29.3888 48.6397 29.4767C48.5408 29.4839 48.4407 29.4767 48.3066 29.4767C48.3858 29.2479 48.4457 29.0373 48.5353 28.8411C48.5638 28.7781 48.6688 28.7229 48.7446 28.7146C49.0348 28.6831 49.3288 28.6859 49.6173 28.6455C49.7218 28.6245 49.8113 28.5565 49.8597 28.4609C50.0114 28.0088 50.1345 27.5474 50.2746 27.0914C50.3202 26.9439 50.2801 26.8516 50.1493 26.772C49.9295 26.6388 49.7284 26.4774 49.5041 26.3553C49.3046 26.2448 49.2706 26.0983 49.3123 25.8993C49.342 25.7584 49.3629 25.6158 49.3992 25.4058L53.4533 28.3421ZM52.5058 28.5632C52.5174 28.5311 52.5289 28.4996 52.5399 28.4676L50.8456 27.2572C50.7077 27.7193 50.5818 28.1415 50.4571 28.5615L52.5058 28.5632Z" fill="white"/>
<path d="M40.5656 37.8477C40.6013 38.3551 40.6392 38.8104 40.6645 39.2669C40.7255 40.3573 40.7744 41.4477 40.8403 42.5381C40.8519 42.736 40.7887 42.8266 40.6002 42.8957C40.0506 43.0985 40.0479 43.1118 39.678 42.6431C38.8328 41.5721 37.9903 40.4988 37.15 39.4233C37.0951 39.3532 37.0506 39.2747 36.978 39.1653C37.2039 39.1 37.3995 39.0221 37.6012 38.995C37.6815 38.9845 37.8029 39.0647 37.8606 39.1387C38.5509 40.0285 39.2356 40.9227 39.9149 41.8219C39.9522 41.8843 39.9819 41.9512 40.0034 42.0208L40.1061 41.9429C40.0918 41.6285 40.0836 41.3134 40.0611 40.999C39.9979 40.1147 39.9259 39.2255 39.8687 38.3379C39.872 38.2445 39.9182 38.1583 39.9929 38.1036C40.1556 38.0096 40.338 37.9483 40.5656 37.8477Z" fill="white"/>
<path d="M31.4566 2.20905C31.4786 2.24386 31.4934 2.25823 31.4967 2.27481C31.5733 2.70146 31.3993 2.95219 30.9746 3.02698L30.1767 3.1668C30.3712 4.41802 30.5647 5.65929 30.7609 6.92157L29.9915 7.02712C29.7936 5.78364 29.5991 4.56503 29.398 3.29999L28.0581 3.52106C27.9971 3.29557 27.9378 3.07893 27.8685 2.82194L31.4566 2.20905Z" fill="white"/>
<path d="M15.8024 11.5617L16.3602 11.9066L15.6683 13.1954L17.1082 14.1023C17.6424 14.4388 18.1738 14.7798 18.7135 15.1076C18.8849 15.2115 18.9173 15.3159 18.8091 15.4823C18.7206 15.6182 18.6442 15.7636 18.553 15.9283L15.2848 13.8884C15.1171 14.2084 14.955 14.5118 14.7995 14.8169C14.6768 15.0556 14.4947 15.1188 14.2532 15.0064C14.1708 14.9683 14.0917 14.9241 13.99 14.8716C14.5923 13.7712 15.1891 12.6808 15.8024 11.5617Z" fill="white"/>
<path d="M50.1559 12.231L46.958 14.3748L46.5343 13.7309C46.6288 13.6607 46.7052 13.5999 46.7855 13.5458C47.6889 12.9378 48.5897 12.3233 49.4997 11.722C49.6943 11.5938 49.7195 11.5009 49.5684 11.3152C49.4036 11.1185 49.2903 10.8825 49.1288 10.6813C48.9974 10.5155 49.0288 10.4083 49.1914 10.3039C49.2969 10.2359 49.3975 10.1602 49.5212 10.0745C49.686 10.3083 49.8404 10.5211 49.9877 10.7377C50.4691 11.4534 50.9451 12.1746 51.4309 12.8859C51.532 13.034 51.4902 13.1036 51.3572 13.1899C50.9896 13.4286 50.9852 13.4308 50.7439 13.0793C50.5543 12.8019 50.3603 12.5261 50.1559 12.231Z" fill="white"/>
<path d="M46.6535 32.5556L48.1373 29.8614L52.1573 32.1196L51.7809 32.8004L48.3533 30.8805L47.6169 32.2008C47.5279 32.3611 47.4289 32.5169 47.3531 32.6838C47.2701 32.8679 47.1745 32.8844 47.0184 32.7656C46.9014 32.6877 46.7794 32.6175 46.6535 32.5556Z" fill="white"/>
<path d="M17.9776 17.2469C17.8264 17.9974 17.8127 18.0073 17.1752 17.7675C15.9717 17.3148 14.7687 16.8617 13.5657 16.4079C13.5322 16.3958 13.5003 16.3803 13.469 16.3665C13.6339 15.6077 13.6383 15.6027 14.3285 15.858C15.4738 16.2825 16.6169 16.7141 17.7605 17.1446C17.8358 17.1728 17.9072 17.2132 17.9776 17.2469Z" fill="white"/>
<path d="M48.1071 16.4599C48.0093 16.2693 47.9208 16.0736 47.8428 15.8736C47.8258 15.8244 47.8939 15.7028 47.9527 15.6746C49.2601 15.0435 50.5714 14.4206 51.9211 13.7779C52.0184 13.9824 52.1173 14.1648 52.1887 14.3587C52.1975 14.4328 52.1673 14.5057 52.109 14.5522C50.7846 15.1888 49.4569 15.8194 48.1071 16.4599Z" fill="white"/>
<path d="M21.8723 5.51391L22.5318 5.10052L24.9378 9.0023L24.2783 9.419L21.8723 5.51391Z" fill="white"/>
<path d="M39.5796 8.00421L39.6028 8.02381H39.5885C39.5849 8.01745 39.5817 8.0111 39.5796 8.00421Z" fill="white"/>
<path d="M30.014 19.9527V12.2155H36.401V19.9301H44.1097V26.3873H36.4158V34.1146H30.0267V26.4111H22.3081V19.9527H30.014Z" fill="white"/>
</g>
<defs>
<clipPath id="clip0_99_3415">
<rect width="65.8685" height="76.5499" fill="white" transform="translate(0.286133 0.709045)"/>
</clipPath>
</defs>
</svg>
