<svg width="208.299438" height="206.402344" viewBox="0 0 208.299 206.402" fill="none" xmlns="http://www.w3.org/2000/svg" xmlns:xlink="http://www.w3.org/1999/xlink">
	<desc>
			Created with Pixso.
	</desc>
	<defs>
		<clipPath id="clip382_1395">
			<rect id="_Layer_" width="208.299469" height="206.402710" fill="white" fill-opacity="0"/>
		</clipPath>
	</defs>
	<rect id="_Layer_" width="208.299469" height="206.402710" fill="#FFFFFF" fill-opacity="0"/>
	<g clip-path="url(#clip382_1395)">
		<path id="Vector" d="M101.72 103.03C101.71 103.03 101.7 103.03 101.69 103.03C101.64 103.02 101.59 102.99 101.57 102.94L83.21 63.78C83.18 63.72 83.19 63.66 83.23 63.61C83.26 63.56 83.32 63.54 83.38 63.55L133.27 71.81C133.32 71.82 133.37 71.86 133.39 71.92C133.41 71.98 133.39 72.04 133.35 72.08L101.83 102.99C101.8 103.01 101.76 103.03 101.72 103.03ZM83.62 63.91L101.76 102.6L132.9 72.08L83.62 63.91L83.62 63.91Z" fill="#B9B9B9" fill-opacity="1.000000" fill-rule="nonzero"/>
		<path id="Vector" d="M133.24 72.13C133.23 72.13 133.22 72.13 133.21 72.13L83.33 63.87C83.27 63.86 83.22 63.81 83.2 63.76C83.18 63.7 83.2 63.64 83.24 63.59L114.77 33.31C114.8 33.27 114.86 33.25 114.91 33.26C114.96 33.27 115 33.31 115.02 33.35L133.38 71.9C133.41 71.96 133.4 72.02 133.37 72.07C133.34 72.11 133.29 72.13 133.24 72.13L133.24 72.13ZM83.69 63.6L132.96 71.76L114.83 33.69L83.69 63.6L83.69 63.6Z" fill="#B9B9B9" fill-opacity="1.000000" fill-rule="nonzero"/>
		<path id="Vector" d="M133.24 72.13C133.23 72.13 133.22 72.13 133.21 72.13C133.16 72.12 133.12 72.08 133.1 72.04L114.73 33.49C114.71 33.43 114.71 33.36 114.76 33.31C114.8 33.27 114.87 33.25 114.93 33.27L159.61 48.26C159.66 48.28 159.7 48.32 159.72 48.38C159.73 48.43 159.71 48.49 159.67 48.53L133.35 72.09C133.32 72.12 133.28 72.13 133.24 72.13L133.24 72.13ZM115.18 33.69L133.29 71.71L159.25 48.48L115.18 33.69Z" fill="#B9B9B9" fill-opacity="1.000000" fill-rule="nonzero"/>
		<path id="Vector" d="M139.97 122.31C139.95 122.31 139.92 122.3 139.9 122.29L101.64 103.01C101.6 102.99 101.57 102.95 101.56 102.9C101.55 102.85 101.57 102.8 101.6 102.76L133.13 71.86C133.17 71.82 133.23 71.8 133.29 71.82C133.35 71.84 133.39 71.89 133.4 71.95L140.13 122.13C140.14 122.19 140.11 122.24 140.06 122.28C140.03 122.3 140 122.31 139.97 122.31ZM101.99 102.83L139.77 121.87L133.12 72.31L101.99 102.83Z" fill="#B9B9B9" fill-opacity="1.000000" fill-rule="nonzero"/>
		<path id="Vector" d="M172.72 90.79C172.7 90.79 172.67 90.79 172.65 90.78L133.17 72.11C133.12 72.09 133.09 72.05 133.08 71.99C133.07 71.94 133.09 71.89 133.13 71.85L159.45 48.29C159.49 48.26 159.55 48.24 159.6 48.26C159.65 48.27 159.69 48.31 159.71 48.36L172.87 90.59C172.89 90.65 172.87 90.71 172.82 90.76C172.79 90.78 172.76 90.79 172.72 90.79L172.72 90.79ZM133.52 71.93L172.46 90.33L159.48 48.7L133.52 71.93L133.52 71.93Z" fill="#B9B9B9" fill-opacity="1.000000" fill-rule="nonzero"/>
		<path id="Vector" d="M139.97 122.31C139.95 122.31 139.94 122.3 139.92 122.3C139.86 122.28 139.82 122.23 139.81 122.17L133.08 71.99C133.07 71.93 133.1 71.88 133.14 71.84C133.19 71.81 133.25 71.8 133.31 71.83L172.79 90.49C172.83 90.51 172.87 90.56 172.88 90.61C172.88 90.66 172.87 90.71 172.83 90.75L140.08 122.26C140.05 122.29 140.01 122.31 139.97 122.31L139.97 122.31ZM133.44 72.24L140.09 121.81L172.44 90.68L133.44 72.24Z" fill="#B9B9B9" fill-opacity="1.000000" fill-rule="nonzero"/>
		<path id="Vector" d="M95.29 144.64C95.26 144.64 95.22 144.63 95.19 144.61C95.15 144.58 95.12 144.52 95.13 144.46L101.56 102.85C101.57 102.8 101.6 102.75 101.64 102.73C101.69 102.71 101.74 102.71 101.79 102.73L140.04 122.01C140.1 122.03 140.13 122.09 140.13 122.15C140.13 122.21 140.1 122.26 140.04 122.29L95.36 144.63C95.34 144.64 95.31 144.64 95.29 144.64L95.29 144.64ZM101.84 103.11L95.49 144.2L139.62 122.15L101.84 103.11Z" fill="#B9B9B9" fill-opacity="1.000000" fill-rule="nonzero"/>
		<path id="Vector" d="M133.24 167.54C133.21 167.54 133.18 167.53 133.16 167.51L95.21 144.62C95.16 144.59 95.13 144.53 95.13 144.48C95.13 144.42 95.17 144.37 95.22 144.34L139.9 122.01C139.95 121.98 140.02 121.98 140.06 122.02C140.11 122.05 140.14 122.11 140.13 122.17L133.4 167.4C133.39 167.45 133.36 167.5 133.31 167.52C133.28 167.53 133.26 167.54 133.24 167.54L133.24 167.54ZM95.62 144.49L133.12 167.12L139.77 122.43L95.62 144.49L95.62 144.49Z" fill="#B9B9B9" fill-opacity="1.000000" fill-rule="nonzero"/>
		<path id="Vector" d="M133.24 167.54C133.21 167.54 133.18 167.53 133.16 167.52C133.1 167.48 133.07 167.42 133.08 167.36L139.81 122.12C139.82 122.07 139.85 122.03 139.9 122.01C139.94 121.98 139.99 121.98 140.04 122L172.79 137.61C172.84 137.63 172.87 137.68 172.88 137.74C172.88 137.79 172.86 137.85 172.81 137.88L133.33 167.51C133.31 167.53 133.27 167.54 133.24 167.54L133.24 167.54ZM140.1 122.38L133.45 167.02L172.41 137.78L140.1 122.38Z" fill="#B9B9B9" fill-opacity="1.000000" fill-rule="nonzero"/>
		<path id="Vector" d="M172.72 137.91C172.7 137.91 172.67 137.91 172.65 137.89L139.9 122.29C139.86 122.27 139.82 122.22 139.81 122.17C139.81 122.12 139.82 122.07 139.86 122.03L172.61 90.52C172.65 90.47 172.72 90.46 172.78 90.49C172.84 90.51 172.88 90.57 172.88 90.63L172.88 137.75C172.88 137.81 172.85 137.86 172.8 137.89C172.78 137.9 172.75 137.91 172.72 137.91L172.72 137.91ZM140.25 122.1L172.56 137.5L172.56 91.01L140.25 122.1Z" fill="#B9B9B9" fill-opacity="1.000000" fill-rule="nonzero"/>
		<path id="Vector" d="M198.12 109.46C198.09 109.46 198.05 109.45 198.03 109.43L172.63 90.76C172.59 90.74 172.57 90.69 172.56 90.65C172.56 90.6 172.57 90.56 172.6 90.52L192.5 69.41C192.54 69.37 192.6 69.35 192.66 69.37C192.72 69.39 192.76 69.44 192.77 69.5L198.28 109.27C198.29 109.34 198.26 109.4 198.2 109.43C198.18 109.45 198.15 109.46 198.12 109.46L198.12 109.46ZM172.96 90.61L197.91 108.95L192.5 69.87L172.96 90.61Z" fill="#B9B9B9" fill-opacity="1.000000" fill-rule="nonzero"/>
		<path id="Vector" d="M172.72 137.91C172.7 137.91 172.68 137.91 172.66 137.9C172.6 137.88 172.56 137.82 172.56 137.75L172.56 90.63C172.56 90.57 172.59 90.52 172.65 90.49C172.7 90.46 172.77 90.47 172.81 90.5L198.22 109.17C198.25 109.19 198.27 109.24 198.28 109.28C198.28 109.32 198.27 109.37 198.24 109.4L172.84 137.86C172.81 137.89 172.76 137.91 172.72 137.91L172.72 137.91ZM172.88 90.95L172.88 137.33L197.89 109.32L172.88 90.95L172.88 90.95Z" fill="#B9B9B9" fill-opacity="1.000000" fill-rule="nonzero"/>
		<path id="Vector" d="M162.92 177.52C162.9 177.52 162.87 177.51 162.85 177.5C162.78 177.47 162.75 177.39 162.77 177.32L172.56 137.71C172.58 137.66 172.61 137.62 172.66 137.6C172.7 137.59 172.76 137.59 172.8 137.61L191.16 148.32C191.2 148.35 191.23 148.39 191.24 148.44C191.25 148.49 191.23 148.53 191.2 148.57L163.04 177.47C163.01 177.5 162.97 177.52 162.92 177.52L162.92 177.52ZM172.82 138L163.22 176.83L190.83 148.49L172.82 138Z" fill="#B9B9B9" fill-opacity="1.000000" fill-rule="nonzero"/>
		<path id="Vector" d="M162.92 177.52C162.91 177.52 162.89 177.52 162.87 177.51L133.19 167.53C133.13 167.51 133.09 167.46 133.08 167.4C133.07 167.35 133.1 167.29 133.14 167.25L172.62 137.62C172.68 137.58 172.75 137.58 172.81 137.62C172.86 137.66 172.89 137.73 172.87 137.79L163.08 177.4C163.07 177.44 163.04 177.48 163 177.5C162.98 177.51 162.95 177.52 162.92 177.52ZM133.58 167.33L162.81 177.16L172.46 138.15L133.58 167.33L133.58 167.33Z" fill="#B9B9B9" fill-opacity="1.000000" fill-rule="nonzero"/>
		<path id="Vector" d="M125.89 195.12C125.86 195.12 125.82 195.11 125.79 195.09C125.75 195.05 125.72 194.99 125.74 194.93L133.09 167.34C133.1 167.3 133.12 167.26 133.16 167.24C133.2 167.22 133.25 167.22 133.29 167.23L162.98 177.21C163.04 177.23 163.08 177.29 163.08 177.35C163.09 177.42 163.05 177.48 162.99 177.51L125.96 195.11C125.94 195.12 125.92 195.12 125.89 195.12ZM133.35 167.58L126.14 194.67L162.5 177.39L133.35 167.58Z" fill="#B9B9B9" fill-opacity="1.000000" fill-rule="nonzero"/>
		<path id="Vector" d="M90.09 178.91C90.05 178.91 90.01 178.9 89.98 178.87C89.94 178.83 89.92 178.78 89.93 178.73L95.13 144.46C95.14 144.41 95.17 144.36 95.22 144.34C95.27 144.32 95.32 144.32 95.37 144.35L133.32 167.24C133.37 167.28 133.4 167.34 133.39 167.4C133.39 167.47 133.34 167.52 133.28 167.53L90.13 178.9C90.11 178.91 90.1 178.91 90.08 178.91L90.09 178.91ZM95.41 144.74L90.28 178.53L132.83 167.32L95.41 144.74L95.41 144.74Z" fill="#B9B9B9" fill-opacity="1.000000" fill-rule="nonzero"/>
		<path id="Vector" d="M125.89 195.12C125.87 195.12 125.85 195.12 125.83 195.11L90.02 178.9C89.96 178.87 89.92 178.8 89.93 178.74C89.93 178.67 89.98 178.61 90.04 178.6L133.2 167.23C133.25 167.21 133.31 167.23 133.35 167.27C133.39 167.31 133.41 167.37 133.39 167.42L126.05 195.01C126.04 195.05 126 195.09 125.96 195.11C125.94 195.12 125.92 195.13 125.89 195.13L125.89 195.12ZM90.56 178.79L125.79 194.74L133.01 167.6L90.56 178.79Z" fill="#B9B9B9" fill-opacity="1.000000" fill-rule="nonzero"/>
		<path id="Vector" d="M59.17 109.46C59.12 109.46 59.08 109.43 59.04 109.39C59.01 109.34 59.01 109.27 59.03 109.22L83.21 63.63C83.24 63.58 83.29 63.55 83.36 63.55C83.42 63.55 83.47 63.59 83.5 63.64L101.86 102.81C101.88 102.85 101.88 102.9 101.86 102.95C101.83 102.99 101.79 103.02 101.74 103.03L59.2 109.45C59.19 109.46 59.18 109.46 59.17 109.46ZM83.34 64.06L59.46 109.09L101.48 102.75L83.34 64.06Z" fill="#B9B9B9" fill-opacity="1.000000" fill-rule="nonzero"/>
		<path id="Vector" d="M95.29 144.64C95.25 144.64 95.21 144.63 95.18 144.6L59.06 109.41C59.02 109.37 59 109.31 59.02 109.25C59.04 109.19 59.09 109.15 59.15 109.14L101.69 102.72C101.74 102.71 101.79 102.72 101.83 102.76C101.86 102.8 101.88 102.85 101.87 102.9L95.45 144.51C95.44 144.57 95.39 144.61 95.34 144.63C95.32 144.64 95.31 144.64 95.29 144.64ZM59.51 109.41L95.18 144.15L101.53 103.06L59.51 109.41L59.51 109.41Z" fill="#B9B9B9" fill-opacity="1.000000" fill-rule="nonzero"/>
		<path id="Vector" d="M53.05 153.82C53.01 153.82 52.98 153.81 52.95 153.78C52.91 153.74 52.89 153.69 52.9 153.64L59.02 109.27C59.02 109.21 59.07 109.17 59.12 109.15C59.18 109.13 59.24 109.14 59.28 109.18L95.4 144.37C95.44 144.41 95.46 144.47 95.44 144.53C95.42 144.58 95.38 144.63 95.32 144.64L53.09 153.82C53.07 153.82 53.06 153.82 53.05 153.82L53.05 153.82ZM59.29 109.63L53.24 153.46L94.96 144.39L59.29 109.63Z" fill="#B9B9B9" fill-opacity="1.000000" fill-rule="nonzero"/>
		<path id="Vector" d="M90.09 178.91C90.05 178.91 90.02 178.9 90 178.88L52.96 153.79C52.91 153.76 52.88 153.69 52.9 153.63C52.91 153.57 52.96 153.52 53.02 153.51L95.25 144.33C95.31 144.32 95.36 144.33 95.4 144.37C95.43 144.4 95.45 144.45 95.45 144.51L90.24 178.77C90.23 178.83 90.2 178.87 90.15 178.9C90.13 178.9 90.11 178.91 90.09 178.91L90.09 178.91ZM53.45 153.74L89.97 178.48L95.1 144.69L53.45 153.74L53.45 153.74Z" fill="#B9B9B9" fill-opacity="1.000000" fill-rule="nonzero"/>
		<path id="Vector" d="M53.05 153.82C53 153.82 52.95 153.79 52.92 153.75L26.29 114.28C26.26 114.24 26.26 114.18 26.28 114.13C26.3 114.08 26.35 114.04 26.4 114.04L59.15 109.14C59.2 109.13 59.25 109.15 59.29 109.18C59.32 109.22 59.34 109.27 59.33 109.32L53.21 153.68C53.2 153.75 53.15 153.8 53.09 153.82C53.08 153.82 53.06 153.82 53.05 153.82L53.05 153.82ZM26.7 114.31L52.95 153.23L58.99 109.49L26.7 114.31L26.7 114.31Z" fill="#B9B9B9" fill-opacity="1.000000" fill-rule="nonzero"/>
		<path id="Vector" d="M26.43 114.35C26.38 114.35 26.34 114.33 26.31 114.3C26.27 114.25 26.26 114.2 26.27 114.14L40.97 67.64C40.99 67.57 41.04 67.53 41.11 67.53C41.18 67.52 41.24 67.56 41.26 67.62L59.32 109.23C59.34 109.28 59.34 109.33 59.31 109.37C59.29 109.42 59.25 109.45 59.2 109.45L26.45 114.35C26.44 114.35 26.43 114.35 26.43 114.35L26.43 114.35ZM41.14 68.14L26.66 114L58.95 109.17L41.14 68.14Z" fill="#B9B9B9" fill-opacity="1.000000" fill-rule="nonzero"/>
		<path id="Vector" d="M59.17 109.46L59.17 109.46C59.11 109.45 59.05 109.42 59.03 109.36L40.97 67.75C40.95 67.7 40.95 67.65 40.98 67.61C41.01 67.56 41.05 67.53 41.1 67.53L83.34 63.55C83.4 63.55 83.45 63.57 83.49 63.62C83.52 63.67 83.52 63.73 83.49 63.78L59.32 109.37C59.29 109.42 59.23 109.46 59.18 109.46L59.17 109.46ZM41.35 67.82L59.19 108.93L83.07 63.89L41.35 67.82Z" fill="#B9B9B9" fill-opacity="1.000000" fill-rule="nonzero"/>
		<path id="Vector" d="M41.12 67.84C41.06 67.84 41 67.81 40.98 67.76C40.95 67.71 40.95 67.63 40.99 67.59L68.84 33.32C68.88 33.28 68.93 33.25 68.99 33.26C69.04 33.27 69.09 33.3 69.11 33.35L83.5 63.64C83.52 63.69 83.51 63.74 83.49 63.79C83.46 63.83 83.42 63.86 83.37 63.87L41.13 67.84C41.13 67.84 41.12 67.84 41.12 67.84L41.12 67.84ZM68.93 33.71L41.48 67.49L83.11 63.57L68.93 33.71L68.93 33.71Z" fill="#B9B9B9" fill-opacity="1.000000" fill-rule="nonzero"/>
		<path id="Vector" d="M41.12 67.84C41.11 67.84 41.1 67.84 41.09 67.84C41.04 67.83 40.99 67.79 40.97 67.74L31.17 41.74C31.16 41.69 31.16 41.64 31.18 41.6C31.21 41.56 31.24 41.53 31.29 41.52L68.93 33.26C69 33.25 69.07 33.28 69.1 33.33C69.14 33.39 69.13 33.47 69.09 33.52L41.24 67.79C41.21 67.82 41.16 67.84 41.12 67.84L41.12 67.84ZM31.54 41.8L41.17 67.37L68.56 33.67L31.54 41.8Z" fill="#B9B9B9" fill-opacity="1.000000" fill-rule="nonzero"/>
		<path id="Vector" d="M12.35 78.55C12.3 78.55 12.26 78.54 12.23 78.5C12.19 78.45 12.18 78.38 12.21 78.32L31.18 41.61C31.21 41.55 31.27 41.52 31.33 41.52C31.4 41.53 31.45 41.56 31.47 41.62L41.27 67.63C41.28 67.67 41.28 67.71 41.26 67.75C41.24 67.79 41.21 67.82 41.17 67.84L12.4 78.54C12.39 78.55 12.37 78.55 12.35 78.55ZM31.3 42.07L12.68 78.1L40.91 67.59L31.3 42.07L31.3 42.07Z" fill="#B9B9B9" fill-opacity="1.000000" fill-rule="nonzero"/>
		<path id="Vector" d="M26.43 114.35C26.36 114.35 26.3 114.31 26.28 114.25L12.2 78.45C12.18 78.41 12.19 78.37 12.2 78.33C12.22 78.29 12.25 78.26 12.29 78.25L41.06 67.54C41.12 67.52 41.18 67.53 41.23 67.57C41.27 67.61 41.29 67.68 41.27 67.73L26.58 114.24C26.56 114.31 26.5 114.35 26.43 114.35L26.43 114.35ZM12.56 78.49L26.41 113.72L40.87 67.95L12.56 78.49Z" fill="#B9B9B9" fill-opacity="1.000000" fill-rule="nonzero"/>
		<path id="Vector" d="M53.05 153.82L53.05 153.82L23.67 153.39C23.63 153.39 23.59 153.37 23.56 153.34C23.53 153.3 23.51 153.26 23.51 153.22L26.27 114.18C26.27 114.11 26.32 114.06 26.39 114.04C26.45 114.02 26.52 114.05 26.56 114.1L53.18 153.57C53.22 153.62 53.22 153.68 53.19 153.74C53.16 153.79 53.11 153.82 53.05 153.82L53.05 153.82ZM23.84 153.07L52.75 153.5L26.55 114.66L23.84 153.07Z" fill="#B9B9B9" fill-opacity="1.000000" fill-rule="nonzero"/>
		<path id="Vector" d="M83.35 63.87C83.34 63.87 83.33 63.87 83.32 63.87C83.27 63.86 83.23 63.82 83.21 63.78L68.82 33.49C68.8 33.44 68.8 33.38 68.83 33.33C68.86 33.29 68.91 33.26 68.97 33.26L114.88 33.26C114.94 33.26 115 33.3 115.02 33.36C115.05 33.42 115.03 33.49 114.99 33.53L83.46 63.83C83.43 63.85 83.39 63.87 83.35 63.87L83.35 63.87ZM69.22 33.58L83.4 63.44L114.48 33.58L69.22 33.58Z" fill="#B9B9B9" fill-opacity="1.000000" fill-rule="nonzero"/>
		<path id="Vector" d="M114.88 33.58L68.97 33.58C68.9 33.58 68.84 33.54 68.82 33.47C68.8 33.41 68.81 33.34 68.86 33.3L98.86 7.29C98.89 7.26 98.94 7.25 98.98 7.25C99.03 7.26 99.07 7.29 99.1 7.33L115.01 33.34C115.04 33.39 115.04 33.45 115.02 33.5C114.99 33.55 114.93 33.58 114.88 33.58ZM69.39 33.26L114.59 33.26L98.92 7.66L69.39 33.26Z" fill="#B9B9B9" fill-opacity="1.000000" fill-rule="nonzero"/>
		<path id="Vector" d="M31.32 41.84C31.27 41.84 31.21 41.81 31.18 41.75C31.15 41.69 31.16 41.61 31.22 41.56L60.6 14.64C60.63 14.6 60.69 14.59 60.74 14.6C60.79 14.61 60.83 14.64 60.85 14.69L69.11 33.35C69.13 33.4 69.13 33.45 69.11 33.49C69.09 33.53 69.05 33.56 69 33.57L31.36 41.83C31.35 41.84 31.34 41.84 31.32 41.84L31.32 41.84ZM60.65 15.02L31.87 41.4L68.74 33.3L60.65 15.02Z" fill="#B9B9B9" fill-opacity="1.000000" fill-rule="nonzero"/>
		<path id="Vector" d="M68.97 33.58C68.96 33.58 68.94 33.58 68.93 33.57C68.88 33.56 68.84 33.53 68.82 33.48L60.56 14.82C60.54 14.77 60.54 14.72 60.56 14.68C60.59 14.64 60.63 14.61 60.67 14.6L98.93 7.26C99 7.24 99.07 7.28 99.1 7.34C99.14 7.41 99.12 7.49 99.06 7.53L69.07 33.54C69.04 33.56 69.01 33.58 68.97 33.58L68.97 33.58ZM60.93 14.87L69.03 33.16L98.41 7.68L60.93 14.87Z" fill="#B9B9B9" fill-opacity="1.000000" fill-rule="nonzero"/>
		<path id="Vector" d="M31.32 41.84C31.29 41.84 31.26 41.83 31.23 41.81C31.17 41.76 31.15 41.68 31.18 41.61L40.11 22.52C40.12 22.48 40.15 22.45 40.19 22.43L60.65 14.61C60.72 14.58 60.8 14.61 60.84 14.67C60.88 14.74 60.87 14.82 60.81 14.87L31.43 41.8C31.4 41.83 31.36 41.84 31.32 41.84ZM40.37 22.71L31.81 41.02L59.98 15.2L40.37 22.71Z" fill="#B9B9B9" fill-opacity="1.000000" fill-rule="nonzero"/>
		<path id="Vector" d="M23.67 153.39C23.61 153.39 23.56 153.35 23.53 153.3L6.7 117.32C6.68 117.27 6.68 117.22 6.7 117.18C6.72 117.13 6.77 117.1 6.82 117.09L26.4 114.04C26.45 114.03 26.5 114.04 26.53 114.08C26.57 114.11 26.59 114.16 26.59 114.2L23.83 153.24C23.83 153.31 23.77 153.37 23.7 153.38C23.69 153.39 23.68 153.39 23.67 153.39L23.67 153.39ZM7.07 117.38L23.56 152.61L26.25 114.38L7.07 117.38L7.07 117.38Z" fill="#B9B9B9" fill-opacity="1.000000" fill-rule="nonzero"/>
		<path id="Vector" d="M6.84 117.41C6.8 117.41 6.76 117.39 6.73 117.36C6.69 117.33 6.68 117.28 6.68 117.23L12.19 78.37C12.2 78.3 12.26 78.25 12.33 78.24C12.4 78.23 12.47 78.27 12.5 78.34L26.57 114.13C26.59 114.18 26.59 114.23 26.56 114.27C26.54 114.31 26.5 114.34 26.45 114.35L6.86 117.41C6.86 117.41 6.85 117.41 6.84 117.41L6.84 117.41ZM12.42 79.01L7.03 117.06L26.21 114.07L12.42 79.01Z" fill="#B9B9B9" fill-opacity="1.000000" fill-rule="nonzero"/>
		<path id="Vector" d="M12.35 78.55C12.34 78.55 12.32 78.55 12.31 78.55C12.24 78.53 12.19 78.47 12.19 78.4L12.19 55.45C12.19 55.41 12.2 55.37 12.23 55.34L40.13 22.48C40.18 22.42 40.27 22.4 40.34 22.45C40.4 22.49 40.43 22.58 40.39 22.65L31.47 41.75L12.49 78.47C12.46 78.52 12.41 78.55 12.35 78.55ZM12.51 55.51L12.51 77.74L31.18 41.61L39.6 23.59L12.51 55.51L12.51 55.51Z" fill="#B9B9B9" fill-opacity="1.000000" fill-rule="nonzero"/>
		<path id="Vector" d="M6.84 117.41C6.77 117.41 6.71 117.36 6.69 117.3L0.87 97.1C0.86 97.07 0.86 97.04 0.87 97.02L12.2 55.41C12.22 55.33 12.29 55.28 12.37 55.29C12.45 55.3 12.51 55.37 12.51 55.45L12.51 78.39L7 117.27C6.99 117.35 6.93 117.4 6.85 117.41C6.85 117.41 6.84 117.41 6.84 117.41L6.84 117.41ZM1.19 97.06L6.79 116.49L12.19 78.37L12.19 56.64L1.19 97.06L1.19 97.06Z" fill="#B9B9B9" fill-opacity="1.000000" fill-rule="nonzero"/>
		<path id="Vector" d="M23.67 153.39C23.63 153.39 23.6 153.37 23.56 153.35L8.03 139.09C8 139.06 7.98 139.03 7.98 138.99L6.68 117.26C6.68 117.19 6.73 117.12 6.8 117.1C6.87 117.08 6.95 117.12 6.98 117.18L23.82 153.16C23.85 153.23 23.83 153.31 23.77 153.36C23.74 153.38 23.71 153.39 23.67 153.39L23.67 153.39ZM8.3 138.9L23.19 152.57L7.05 118.07L8.3 138.9Z" fill="#B9B9B9" fill-opacity="1.000000" fill-rule="nonzero"/>
		<path id="Vector" d="M8.14 139.13C8.06 139.13 8 139.08 7.98 139L0.87 97.09C0.85 97 0.91 96.92 0.99 96.9C1.07 96.88 1.16 96.93 1.18 97.02L6.99 117.21L8.3 138.97C8.3 139.05 8.24 139.13 8.16 139.13C8.15 139.14 8.15 139.14 8.14 139.14L8.14 139.13ZM1.66 99.82L7.81 136.06L6.68 117.26L1.66 99.82L1.66 99.82Z" fill="#B9B9B9" fill-opacity="1.000000" fill-rule="nonzero"/>
		<path id="Vector" d="M53.05 181.33C53.01 181.33 52.97 181.32 52.94 181.29L23.56 153.34C23.52 153.3 23.5 153.23 23.53 153.17C23.55 153.11 23.6 153.07 23.67 153.07L53.06 153.5C53.14 153.5 53.21 153.57 53.21 153.66L53.21 181.17C53.21 181.24 53.17 181.29 53.12 181.32C53.1 181.33 53.07 181.33 53.05 181.33L53.05 181.33ZM24.08 153.39L52.89 180.8L52.89 153.82L24.08 153.39Z" fill="#B9B9B9" fill-opacity="1.000000" fill-rule="nonzero"/>
		<path id="Vector" d="M53.05 181.33C53.04 181.33 53.03 181.33 53.01 181.33L31.29 175.85C31.23 175.83 31.19 175.79 31.17 175.74L23.52 153.28C23.5 153.21 23.53 153.14 23.59 153.1C23.65 153.06 23.73 153.06 23.78 153.11L53.16 181.06C53.22 181.11 53.23 181.19 53.19 181.25C53.16 181.3 53.11 181.33 53.05 181.33L53.05 181.33ZM31.45 175.56L52.5 180.87L24.03 153.79L31.45 175.56Z" fill="#B9B9B9" fill-opacity="1.000000" fill-rule="nonzero"/>
		<path id="Vector" d="M31.32 175.85C31.27 175.85 31.22 175.82 31.19 175.77L8.01 139.06C7.96 138.99 7.98 138.9 8.04 138.85C8.1 138.8 8.19 138.8 8.25 138.86L23.78 153.11C23.8 153.13 23.81 153.15 23.82 153.17L31.47 175.64C31.5 175.71 31.47 175.8 31.39 175.83C31.37 175.84 31.35 175.85 31.32 175.85L31.32 175.85ZM8.91 139.9L30.74 174.46L23.54 153.32L8.91 139.9Z" fill="#B9B9B9" fill-opacity="1.000000" fill-rule="nonzero"/>
		<path id="Vector" d="M53.05 181.33C53.01 181.33 52.97 181.32 52.94 181.29C52.91 181.26 52.89 181.22 52.89 181.17L52.89 153.66C52.89 153.6 52.93 153.55 52.98 153.52C53.03 153.49 53.09 153.5 53.14 153.53L90.18 178.62C90.23 178.66 90.26 178.73 90.24 178.79C90.22 178.86 90.16 178.9 90.1 178.91L53.06 181.33L53.05 181.33L53.05 181.33ZM53.21 153.96L53.21 181L89.61 178.62L53.21 153.96L53.21 153.96Z" fill="#B9B9B9" fill-opacity="1.000000" fill-rule="nonzero"/>
		<path id="Vector" d="M87.94 198.8C87.92 198.8 87.89 198.79 87.87 198.78L52.98 181.31C52.92 181.28 52.88 181.21 52.9 181.14C52.91 181.07 52.97 181.02 53.04 181.01L90.07 178.59C90.12 178.59 90.17 178.61 90.2 178.64C90.23 178.67 90.25 178.72 90.24 178.77L88.1 198.65C88.09 198.71 88.06 198.75 88.02 198.78C87.99 198.79 87.97 198.79 87.94 198.79L87.94 198.8ZM53.65 181.29L87.81 198.39L89.91 178.92L53.65 181.29L53.65 181.29Z" fill="#B9B9B9" fill-opacity="1.000000" fill-rule="nonzero"/>
		<path id="Vector" d="M87.94 198.8L65.3 198.8C65.24 198.8 65.19 198.77 65.16 198.73L52.92 181.26C52.88 181.2 52.88 181.12 52.93 181.07C52.98 181.01 53.06 181 53.12 181.03L88.01 198.49C88.08 198.53 88.11 198.6 88.1 198.67C88.08 198.75 88.02 198.8 87.94 198.8L87.94 198.8ZM65.38 198.48L87.27 198.48L53.54 181.6L65.38 198.48Z" fill="#B9B9B9" fill-opacity="1.000000" fill-rule="nonzero"/>
		<path id="Vector" d="M65.3 198.8C65.26 198.8 65.23 198.79 65.21 198.77L31.24 175.82C31.17 175.78 31.15 175.69 31.18 175.62C31.21 175.55 31.29 175.52 31.36 175.54L53.09 181.02C53.13 181.03 53.16 181.05 53.18 181.08L65.43 198.55C65.47 198.61 65.46 198.69 65.41 198.75C65.38 198.78 65.34 198.8 65.3 198.8L65.3 198.8ZM32.16 176.07L64.67 198.02L52.96 181.31L32.16 176.07Z" fill="#B9B9B9" fill-opacity="1.000000" fill-rule="nonzero"/>
		<path id="Vector" d="M87.94 198.8C87.9 198.8 87.86 198.78 87.83 198.75C87.8 198.72 87.78 198.67 87.78 198.62L89.93 178.73C89.93 178.68 89.96 178.64 90.01 178.61C90.05 178.59 90.1 178.58 90.15 178.6L125.96 194.82C126.02 194.85 126.06 194.92 126.05 194.99C126.04 195.06 125.98 195.12 125.91 195.12L87.96 198.79L87.94 198.79L87.94 198.8ZM90.22 178.99L88.12 198.46L125.28 194.87L90.22 178.99L90.22 178.99Z" fill="#B9B9B9" fill-opacity="1.000000" fill-rule="nonzero"/>
		<path id="Vector" d="M109.98 205.53C109.96 205.53 109.95 205.52 109.93 205.52L87.9 198.79C87.82 198.77 87.78 198.7 87.78 198.62C87.79 198.55 87.85 198.49 87.93 198.48L125.88 194.81C125.95 194.8 126.02 194.84 126.04 194.91C126.07 194.98 126.04 195.06 125.98 195.1L110.07 205.5C110.04 205.52 110.01 205.53 109.98 205.53L109.98 205.53ZM88.75 198.72L109.95 205.19L125.27 195.19L88.75 198.72Z" fill="#B9B9B9" fill-opacity="1.000000" fill-rule="nonzero"/>
		<path id="Vector" d="M109.98 205.53C109.97 205.53 109.96 205.53 109.96 205.53L65.27 198.79C65.19 198.78 65.13 198.71 65.14 198.63C65.14 198.54 65.21 198.48 65.3 198.48L87.94 198.48C87.96 198.48 87.97 198.48 87.99 198.48L110.03 205.22C110.1 205.24 110.15 205.32 110.13 205.4C110.12 205.48 110.05 205.53 109.98 205.53L109.98 205.53ZM67.42 198.8L107.87 204.89L87.92 198.8L67.42 198.8Z" fill="#B9B9B9" fill-opacity="1.000000" fill-rule="nonzero"/>
		<path id="Vector" d="M172.72 90.79C172.71 90.79 172.69 90.79 172.68 90.79C172.63 90.78 172.58 90.74 172.57 90.68L159.41 48.46C159.39 48.39 159.41 48.33 159.46 48.28C159.52 48.24 159.59 48.24 159.64 48.28L192.7 69.39C192.74 69.41 192.76 69.45 192.77 69.5C192.78 69.55 192.76 69.6 192.73 69.63L172.83 90.74C172.8 90.77 172.76 90.79 172.72 90.79L172.72 90.79ZM159.84 48.78L172.79 90.33L192.36 69.55L159.84 48.78Z" fill="#B9B9B9" fill-opacity="1.000000" fill-rule="nonzero"/>
		<path id="Vector" d="M192.61 69.68C192.58 69.68 192.55 69.67 192.53 69.66L159.47 48.54C159.43 48.52 159.41 48.48 159.4 48.43C159.39 48.38 159.41 48.33 159.45 48.3L174.44 33.31C174.48 33.27 174.53 33.25 174.58 33.26C174.63 33.27 174.67 33.3 174.7 33.35L192.75 69.45C192.79 69.52 192.77 69.59 192.72 69.64C192.69 69.67 192.65 69.68 192.61 69.68L192.61 69.68ZM159.81 48.38L192.21 69.08L174.51 33.69L159.81 48.38L159.81 48.38Z" fill="#B9B9B9" fill-opacity="1.000000" fill-rule="nonzero"/>
		<path id="Vector" d="M114.88 33.58C114.87 33.58 114.86 33.58 114.85 33.58C114.8 33.57 114.76 33.54 114.74 33.5L98.83 7.5C98.79 7.44 98.79 7.37 98.83 7.32C98.86 7.27 98.93 7.24 98.99 7.26L138.47 14.6C138.53 14.61 138.58 14.66 138.6 14.72C138.61 14.78 138.59 14.84 138.54 14.88L114.97 33.54C114.95 33.57 114.91 33.58 114.88 33.58L114.88 33.58ZM99.28 7.63L114.92 33.18L138.07 14.85L99.28 7.63Z" fill="#B9B9B9" fill-opacity="1.000000" fill-rule="nonzero"/>
		<path id="Vector" d="M159.56 48.57C159.54 48.57 159.53 48.57 159.51 48.56L114.83 33.57C114.77 33.55 114.73 33.5 114.72 33.45C114.71 33.39 114.73 33.33 114.78 33.29L138.34 14.63C138.38 14.6 138.42 14.59 138.47 14.6C138.51 14.61 138.55 14.63 138.58 14.67L159.69 48.33C159.73 48.38 159.73 48.46 159.68 48.51C159.65 48.55 159.61 48.57 159.56 48.57L159.56 48.57ZM115.2 33.36L159.19 48.12L138.4 14.99L115.2 33.36Z" fill="#B9B9B9" fill-opacity="1.000000" fill-rule="nonzero"/>
		<path id="Vector" d="M159.56 48.57L159.54 48.57C159.49 48.56 159.45 48.54 159.42 48.5L138.31 14.84C138.27 14.78 138.28 14.7 138.32 14.65C138.37 14.59 138.45 14.58 138.51 14.61L174.63 33.28C174.67 33.3 174.7 33.34 174.71 33.39C174.72 33.44 174.7 33.5 174.67 33.53L159.67 48.52C159.64 48.55 159.6 48.57 159.56 48.57L159.56 48.57ZM138.89 15.16L159.59 48.16L174.29 33.46L138.89 15.16L138.89 15.16Z" fill="#B9B9B9" fill-opacity="1.000000" fill-rule="nonzero"/>
		<path id="Vector" d="M138.44 14.91C138.43 14.91 138.42 14.91 138.41 14.91L98.93 7.57C98.86 7.56 98.8 7.49 98.8 7.42C98.8 7.34 98.85 7.28 98.92 7.26L122.18 1.14C122.23 1.13 122.28 1.14 122.32 1.17L138.54 14.63C138.6 14.68 138.62 14.76 138.59 14.82C138.56 14.88 138.5 14.91 138.44 14.91ZM99.69 7.39L137.87 14.49L122.18 1.47L99.69 7.39Z" fill="#B9B9B9" fill-opacity="1.000000" fill-rule="nonzero"/>
		<path id="Vector" d="M162.92 17.06C162.92 17.06 162.92 17.06 162.91 17.05L138.43 14.91C138.4 14.91 138.37 14.9 138.34 14.88L122.12 1.41C122.06 1.37 122.04 1.28 122.08 1.21C122.12 1.15 122.2 1.12 122.28 1.14L162.98 16.75C163.06 16.78 163.1 16.86 163.08 16.93C163.06 17 163 17.06 162.92 17.06ZM138.5 14.6L161.81 16.64L123.06 1.79L138.5 14.6Z" fill="#B9B9B9" fill-opacity="1.000000" fill-rule="nonzero"/>
		<path id="Vector" d="M60.7 14.91C60.64 14.91 60.58 14.87 60.56 14.81C60.53 14.74 60.55 14.66 60.62 14.62L79.75 2.69C79.77 2.67 79.8 2.66 79.83 2.66L122.21 1.13C122.31 1.13 122.37 1.19 122.38 1.27C122.39 1.35 122.34 1.43 122.26 1.45L99 7.57L60.73 14.91C60.72 14.91 60.71 14.91 60.7 14.91L60.7 14.91ZM79.88 2.98L61.51 14.44L98.93 7.26L120.79 1.5L79.88 2.98Z" fill="#B9B9B9" fill-opacity="1.000000" fill-rule="nonzero"/>
		<path id="Vector" d="M40.25 22.74C40.19 22.74 40.13 22.71 40.11 22.65C40.07 22.57 40.1 22.48 40.18 22.44L79.76 2.68C79.84 2.64 79.93 2.67 79.97 2.75C80.01 2.82 79.99 2.91 79.92 2.96L60.79 14.89L40.31 22.73C40.29 22.74 40.27 22.74 40.25 22.74L40.25 22.74ZM76.9 4.46L43.24 21.27L60.65 14.61L76.9 4.46Z" fill="#B9B9B9" fill-opacity="1.000000" fill-rule="nonzero"/>
		<path id="Vector" d="M174.55 33.58C174.53 33.58 174.51 33.57 174.48 33.56L138.37 14.9C138.3 14.86 138.27 14.79 138.29 14.71C138.31 14.64 138.38 14.59 138.46 14.6L162.94 16.74C162.99 16.74 163.03 16.77 163.05 16.81L174.68 33.33C174.73 33.39 174.72 33.47 174.67 33.52C174.64 33.56 174.6 33.58 174.55 33.58ZM139.23 14.98L174.05 32.98L162.84 17.05L139.23 14.98Z" fill="#B9B9B9" fill-opacity="1.000000" fill-rule="nonzero"/>
		<path id="Vector" d="M192.61 69.68C192.55 69.68 192.5 69.65 192.47 69.59L174.41 33.49C174.38 33.42 174.4 33.34 174.45 33.29C174.51 33.25 174.6 33.25 174.65 33.29L193.15 48.01C193.18 48.04 193.21 48.08 193.21 48.13L192.77 69.53C192.77 69.6 192.72 69.66 192.65 69.68C192.64 69.68 192.62 69.68 192.61 69.68ZM175.02 33.99L192.47 68.87L192.89 48.21L175.02 33.99Z" fill="#B9B9B9" fill-opacity="1.000000" fill-rule="nonzero"/>
		<path id="Vector" d="M193.05 48.29C193.01 48.29 192.98 48.28 192.95 48.25L174.46 33.54C174.44 33.54 174.43 33.52 174.43 33.51L162.8 16.99C162.75 16.92 162.76 16.83 162.82 16.78C162.89 16.72 162.98 16.73 163.04 16.79L193.16 48.02C193.22 48.08 193.22 48.17 193.16 48.24C193.13 48.27 193.09 48.29 193.05 48.29L193.05 48.29ZM174.67 33.31L191.25 46.5L164.24 18.49L174.67 33.31L174.67 33.31Z" fill="#B9B9B9" fill-opacity="1.000000" fill-rule="nonzero"/>
		<path id="Vector" d="M207 89.57C206.95 89.57 206.9 89.55 206.87 89.51L192.49 70.84C192.46 70.81 192.45 70.78 192.45 70.74L192.89 48.13C192.89 48.05 192.95 47.99 193.02 47.97C193.1 47.96 193.17 48.01 193.2 48.08L207.15 89.36C207.17 89.43 207.14 89.51 207.07 89.55C207.05 89.56 207.02 89.57 207 89.57L207 89.57ZM192.77 70.69L206.54 88.56L193.19 49.05L192.77 70.69L192.77 70.69Z" fill="#B9B9B9" fill-opacity="1.000000" fill-rule="nonzero"/>
		<path id="Vector" d="M198.12 109.46C198.11 109.46 198.11 109.46 198.1 109.46C198.03 109.44 197.97 109.39 197.96 109.32L192.46 70.77C192.44 70.7 192.48 70.63 192.55 70.6C192.62 70.57 192.7 70.59 192.74 70.65L207.12 89.31C207.16 89.36 207.17 89.42 207.14 89.47L198.27 109.36C198.24 109.42 198.18 109.46 198.12 109.46L198.12 109.46ZM192.86 71.32L198.2 108.73L206.81 89.43L192.86 71.32L192.86 71.32Z" fill="#B9B9B9" fill-opacity="1.000000" fill-rule="nonzero"/>
		<path id="Vector" d="M191.08 148.62C191.05 148.62 191.03 148.61 191 148.6L172.64 137.89C172.6 137.86 172.57 137.82 172.56 137.78C172.55 137.73 172.57 137.68 172.6 137.64L198 109.19C198.05 109.14 198.13 109.12 198.19 109.15C198.25 109.19 198.29 109.26 198.28 109.33L191.24 148.49C191.23 148.54 191.19 148.58 191.15 148.6C191.13 148.61 191.1 148.62 191.08 148.62L191.08 148.62ZM172.97 137.71L190.97 148.21L197.86 109.82L172.97 137.71L172.97 137.71Z" fill="#B9B9B9" fill-opacity="1.000000" fill-rule="nonzero"/>
		<path id="Vector" d="M204.55 129.04C204.48 129.04 204.42 128.99 204.4 128.93L197.97 109.35C197.96 109.31 197.96 109.27 197.98 109.23L206.85 89.34C206.88 89.27 206.96 89.24 207.03 89.26C207.11 89.27 207.16 89.34 207.15 89.42L204.71 128.89C204.7 128.96 204.64 129.03 204.57 129.04C204.56 129.04 204.56 129.04 204.55 129.04ZM198.29 109.31L204.44 128.04L206.78 90.28L198.29 109.31Z" fill="#B9B9B9" fill-opacity="1.000000" fill-rule="nonzero"/>
		<path id="Vector" d="M191.08 148.62C191.06 148.62 191.04 148.61 191.02 148.61C190.95 148.58 190.91 148.5 190.92 148.43L197.96 109.27C197.98 109.2 198.04 109.14 198.11 109.14C198.18 109.13 198.25 109.18 198.27 109.25L204.7 128.83C204.71 128.88 204.71 128.93 204.68 128.97L191.21 148.55C191.18 148.59 191.13 148.62 191.08 148.62ZM198.17 109.94L191.37 147.76L204.37 128.85L198.17 109.94Z" fill="#B9B9B9" fill-opacity="1.000000" fill-rule="nonzero"/>
		<path id="Vector" d="M183.8 169.42C183.78 169.42 183.76 169.42 183.74 169.41C183.66 169.38 183.62 169.29 183.65 169.21L190.93 148.41C190.94 148.39 190.94 148.38 190.95 148.37L204.42 128.79C204.46 128.72 204.56 128.7 204.63 128.74C204.7 128.78 204.73 128.88 204.69 128.95L183.94 169.34C183.91 169.39 183.86 169.42 183.8 169.42ZM191.23 148.53L184.71 167.14L203.27 131.02L191.23 148.53Z" fill="#B9B9B9" fill-opacity="1.000000" fill-rule="nonzero"/>
		<path id="Vector" d="M162.92 177.52C162.87 177.52 162.82 177.49 162.79 177.45C162.75 177.39 162.76 177.3 162.81 177.25L190.97 148.35C191.02 148.29 191.1 148.28 191.17 148.32C191.23 148.36 191.26 148.44 191.23 148.51L183.95 169.32C183.94 169.36 183.9 169.4 183.86 169.41L162.98 177.51C162.96 177.52 162.95 177.52 162.92 177.52L162.92 177.52ZM190.69 149.09L163.55 176.95L183.67 169.14L190.69 149.09Z" fill="#B9B9B9" fill-opacity="1.000000" fill-rule="nonzero"/>
		<path id="Vector" d="M149.41 195.99C149.37 195.99 149.33 195.98 149.3 195.95C149.24 195.89 149.23 195.8 149.28 195.74L162.8 177.27C162.81 177.24 162.84 177.22 162.87 177.21L183.74 169.12C183.82 169.09 183.9 169.12 183.94 169.19C183.98 169.25 183.96 169.34 183.9 169.39L149.5 195.96C149.48 195.98 149.44 195.99 149.41 195.99L149.41 195.99ZM163.03 177.49L150.2 195.02L182.84 169.81L163.03 177.49L163.03 177.49Z" fill="#B9B9B9" fill-opacity="1.000000" fill-rule="nonzero"/>
		<path id="Vector" d="M109.98 205.53C109.92 205.53 109.86 205.49 109.83 205.43C109.8 205.36 109.83 205.28 109.89 205.23L125.81 194.83C125.83 194.81 125.87 194.8 125.9 194.81L149.41 195.67C149.49 195.68 149.56 195.74 149.57 195.82C149.57 195.89 149.52 195.97 149.45 195.99L110.02 205.52C110 205.52 109.99 205.53 109.98 205.53ZM125.94 195.13L110.84 205L148.25 195.95L125.94 195.13L125.94 195.13Z" fill="#B9B9B9" fill-opacity="1.000000" fill-rule="nonzero"/>
		<path id="Vector" d="M149.41 195.99L149.4 195.99L125.89 195.12C125.81 195.12 125.75 195.07 125.74 195C125.72 194.93 125.76 194.85 125.82 194.82L162.86 177.22C162.92 177.19 163 177.2 163.05 177.26C163.09 177.32 163.1 177.4 163.05 177.46L149.54 195.93C149.51 195.97 149.46 195.99 149.41 195.99ZM126.55 194.83L149.33 195.67L162.42 177.78L126.55 194.83L126.55 194.83Z" fill="#B9B9B9" fill-opacity="1.000000" fill-rule="nonzero"/>
		<path id="Vector" d="M184.83 169.35C184.78 169.92 184.28 170.34 183.72 170.29C183.15 170.25 182.73 169.75 182.77 169.18C182.82 168.62 183.32 168.19 183.88 168.24C184.45 168.28 184.87 168.78 184.83 169.35L184.83 169.35Z" fill="#B9B9B9" fill-opacity="1.000000" fill-rule="nonzero"/>
		<path id="Vector" d="M150.44 195.92C150.39 196.48 149.89 196.91 149.32 196.86C148.76 196.81 148.33 196.32 148.38 195.75C148.43 195.18 148.92 194.76 149.49 194.81C150.06 194.85 150.48 195.35 150.44 195.91L150.44 195.92Z" fill="#B9B9B9" fill-opacity="1.000000" fill-rule="nonzero"/>
		<path id="Vector" d="M111.01 205.45C110.96 206.02 110.46 206.44 109.9 206.39C109.33 206.35 108.91 205.85 108.95 205.28C109 204.72 109.5 204.3 110.06 204.34C110.63 204.39 111.05 204.88 111.01 205.45L111.01 205.45Z" fill="#B9B9B9" fill-opacity="1.000000" fill-rule="nonzero"/>
		<path id="Vector" d="M66.32 198.72C66.28 199.29 65.78 199.71 65.21 199.66C64.64 199.62 64.22 199.12 64.27 198.56C64.31 197.99 64.81 197.56 65.38 197.61C65.94 197.66 66.37 198.15 66.32 198.72Z" fill="#B9B9B9" fill-opacity="1.000000" fill-rule="nonzero"/>
		<path id="Vector" d="M32.35 175.77C32.31 176.34 31.81 176.76 31.24 176.72C30.67 176.67 30.25 176.18 30.3 175.61C30.34 175.04 30.84 174.62 31.41 174.67C31.97 174.71 32.4 175.21 32.35 175.77L32.35 175.77Z" fill="#B9B9B9" fill-opacity="1.000000" fill-rule="nonzero"/>
		<path id="Vector" d="M9.17 139.06C9.12 139.62 8.63 140.05 8.06 140C7.49 139.96 7.07 139.46 7.11 138.89C7.16 138.32 7.66 137.9 8.22 137.95C8.79 137.99 9.21 138.49 9.17 139.06L9.17 139.06Z" fill="#B9B9B9" fill-opacity="1.000000" fill-rule="nonzero"/>
		<path id="Vector" d="M2.05 97.14C2.01 97.71 1.51 98.13 0.94 98.08C0.37 98.04 -0.05 97.54 0 96.98C0.04 96.41 0.54 95.99 1.11 96.03C1.67 96.08 2.1 96.58 2.05 97.14Z" fill="#B9B9B9" fill-opacity="1.000000" fill-rule="nonzero"/>
		<path id="Vector" d="M61.77 109.3C61.77 110.73 60.61 111.89 59.17 111.89C57.74 111.89 56.58 110.73 56.58 109.3C56.58 107.87 57.74 106.7 59.17 106.7C60.61 106.7 61.77 107.86 61.77 109.3Z" fill="#B9B9B9" fill-opacity="1.000000" fill-rule="nonzero"/>
		<path id="Vector" d="M43.71 67.69C43.71 69.12 42.55 70.28 41.12 70.28C39.68 70.28 38.52 69.12 38.52 67.69C38.52 66.25 39.68 65.09 41.12 65.09C42.55 65.09 43.71 66.25 43.71 67.69Z" fill="#B9B9B9" fill-opacity="1.000000" fill-rule="nonzero"/>
		<path id="Vector" d="M115.19 30.85C116.61 31.02 117.63 32.31 117.46 33.73C117.29 35.15 115.99 36.17 114.57 36C113.15 35.83 112.13 34.54 112.3 33.11C112.47 31.69 113.77 30.67 115.19 30.85Z" fill="#B9B9B9" fill-opacity="1.000000" fill-rule="evenodd"/>
		<path id="Vector" d="M162.15 48.41C162.15 49.84 160.99 51 159.56 51C158.12 51 156.96 49.84 156.96 48.41C156.96 46.98 158.13 45.82 159.56 45.82C160.99 45.82 162.15 46.98 162.15 48.41Z" fill="#B9B9B9" fill-opacity="1.000000" fill-rule="nonzero"/>
		<path id="Vector" d="M175.31 90.63C175.32 92.06 174.16 93.23 172.73 93.24C171.3 93.25 170.13 92.09 170.12 90.66C170.11 89.22 171.27 88.06 172.7 88.05C174.13 88.04 175.3 89.2 175.31 90.63Z" fill="#B9B9B9" fill-opacity="1.000000" fill-rule="evenodd"/>
		<path id="Vector" d="M142.57 122.15C142.57 123.58 141.4 124.74 139.97 124.74C138.54 124.74 137.38 123.58 137.38 122.15C137.38 120.72 138.54 119.55 139.97 119.55C141.4 119.55 142.57 120.72 142.57 122.15Z" fill="#B9B9B9" fill-opacity="1.000000" fill-rule="evenodd"/>
		<path id="Vector" d="M97.88 144.48C97.88 145.91 96.72 147.08 95.29 147.08C93.85 147.08 92.69 145.91 92.69 144.48C92.69 143.05 93.85 141.89 95.29 141.89C96.72 141.89 97.88 143.05 97.88 144.48Z" fill="#B9B9B9" fill-opacity="1.000000" fill-rule="nonzero"/>
		<path id="Vector" d="M71.57 33.42C71.57 34.85 70.4 36.01 68.97 36.01C67.54 36.01 66.38 34.85 66.38 33.42C66.38 31.99 67.54 30.83 68.97 30.83C70.4 30.83 71.57 31.99 71.57 33.42Z" fill="#B9B9B9" fill-opacity="1.000000" fill-rule="nonzero"/>
		<path id="Vector" d="M135.32 167.38C135.32 168.52 134.38 169.45 133.24 169.45C132.09 169.45 131.16 168.52 131.16 167.38C131.16 166.23 132.09 165.3 133.24 165.3C134.38 165.3 135.32 166.23 135.32 167.38Z" fill="#B9B9B9" fill-opacity="1.000000" fill-rule="nonzero"/>
		<path id="Vector" d="M174.79 137.75C174.79 138.9 173.86 139.83 172.72 139.83C171.57 139.83 170.64 138.9 170.64 137.75C170.64 136.61 171.57 135.67 172.72 135.67C173.86 135.67 174.79 136.6 174.79 137.75Z" fill="#B9B9B9" fill-opacity="1.000000" fill-rule="nonzero"/>
		<path id="Vector" d="M198.59 107.27C199.71 107.53 200.4 108.65 200.13 109.77C199.87 110.88 198.75 111.57 197.64 111.31C196.52 111.05 195.83 109.93 196.09 108.81C196.36 107.7 197.47 107.01 198.59 107.27Z" fill="#B9B9B9" fill-opacity="1.000000" fill-rule="evenodd"/>
		<path id="Vector" d="M194.69 69.52C194.69 70.67 193.76 71.6 192.61 71.6C191.47 71.6 190.54 70.67 190.54 69.52C190.54 68.38 191.47 67.45 192.61 67.45C193.76 67.45 194.69 68.38 194.69 69.52Z" fill="#B9B9B9" fill-opacity="1.000000" fill-rule="nonzero"/>
		<path id="Vector" d="M174.89 31.37C176.03 31.56 176.79 32.62 176.61 33.75C176.43 34.89 175.36 35.66 174.23 35.47C173.1 35.29 172.33 34.22 172.51 33.09C172.7 31.96 173.76 31.19 174.89 31.37Z" fill="#B9B9B9" fill-opacity="1.000000" fill-rule="evenodd"/>
		<path id="Vector" d="M140.52 14.76C140.52 15.9 139.59 16.83 138.44 16.83C137.29 16.83 136.37 15.9 136.37 14.76C136.37 13.61 137.3 12.68 138.44 12.68C139.59 12.68 140.52 13.61 140.52 14.76Z" fill="#B9B9B9" fill-opacity="1.000000" fill-rule="nonzero"/>
		<path id="Vector" d="M101.04 7.41C101.04 8.56 100.11 9.49 98.96 9.49C97.82 9.49 96.88 8.56 96.88 7.41C96.88 6.27 97.81 5.34 98.96 5.34C100.11 5.34 101.04 6.27 101.04 7.41Z" fill="#B9B9B9" fill-opacity="1.000000" fill-rule="nonzero"/>
		<path id="Vector" d="M62.78 14.76C62.78 15.9 61.85 16.83 60.7 16.83C59.56 16.83 58.63 15.9 58.63 14.76C58.63 13.61 59.56 12.68 60.7 12.68C61.85 12.68 62.78 13.61 62.78 14.76Z" fill="#B9B9B9" fill-opacity="1.000000" fill-rule="nonzero"/>
		<path id="Vector" d="M33.4 41.68C33.4 42.83 32.47 43.75 31.32 43.75C30.18 43.75 29.25 42.83 29.25 41.68C29.25 40.53 30.18 39.6 31.32 39.6C32.47 39.6 33.4 40.53 33.4 41.68Z" fill="#B9B9B9" fill-opacity="1.000000" fill-rule="nonzero"/>
		<path id="Vector" d="M14.42 78.4C14.42 79.54 13.5 80.47 12.35 80.47C11.2 80.47 10.27 79.54 10.27 78.4C10.27 77.25 11.2 76.32 12.35 76.32C13.49 76.32 14.42 77.25 14.42 78.4Z" fill="#B9B9B9" fill-opacity="1.000000" fill-rule="nonzero"/>
		<path id="Vector" d="M28.5 114.19C28.5 115.34 27.57 116.27 26.43 116.27C25.28 116.27 24.35 115.34 24.35 114.19C24.35 113.05 25.28 112.12 26.43 112.12C27.57 112.12 28.5 113.05 28.5 114.19Z" fill="#B9B9B9" fill-opacity="1.000000" fill-rule="nonzero"/>
		<path id="Vector" d="M55.13 153.66C55.13 154.81 54.2 155.74 53.05 155.74C51.91 155.74 50.98 154.81 50.98 153.66C50.98 152.52 51.91 151.59 53.05 151.59C54.2 151.59 55.13 152.52 55.13 153.66Z" fill="#B9B9B9" fill-opacity="1.000000" fill-rule="nonzero"/>
		<path id="Vector" d="M92.16 178.75C92.16 179.9 91.23 180.83 90.09 180.83C88.94 180.83 88.01 179.9 88.01 178.75C88.01 177.6 88.94 176.68 90.09 176.68C91.23 176.68 92.16 177.6 92.16 178.75Z" fill="#B9B9B9" fill-opacity="1.000000" fill-rule="nonzero"/>
		<path id="Vector" d="M164.22 177.47C164.16 178.18 163.53 178.71 162.82 178.65C162.11 178.6 161.57 177.97 161.63 177.26C161.69 176.54 162.31 176.01 163.03 176.07C163.74 176.12 164.28 176.75 164.22 177.46L164.22 177.47Z" fill="#B9B9B9" fill-opacity="1.000000" fill-rule="nonzero"/>
		<path id="Vector" d="M192.38 148.56C192.32 149.28 191.69 149.81 190.98 149.75C190.26 149.7 189.73 149.07 189.79 148.35C189.84 147.64 190.47 147.11 191.19 147.17C191.9 147.22 192.43 147.85 192.37 148.56L192.38 148.56Z" fill="#B9B9B9" fill-opacity="1.000000" fill-rule="nonzero"/>
		<path id="Vector" d="M127.19 195.07C127.13 195.78 126.5 196.32 125.79 196.26C125.07 196.2 124.54 195.58 124.6 194.86C124.66 194.15 125.28 193.61 126 193.67C126.71 193.73 127.25 194.35 127.19 195.07Z" fill="#B9B9B9" fill-opacity="1.000000" fill-rule="nonzero"/>
		<path id="Vector" d="M89.24 198.36C89.18 199.08 88.55 199.61 87.84 199.55C87.12 199.5 86.59 198.87 86.65 198.15C86.71 197.44 87.33 196.91 88.05 196.96C88.76 197.02 89.29 197.65 89.24 198.36L89.24 198.36Z" fill="#B9B9B9" fill-opacity="1.000000" fill-rule="nonzero"/>
		<path id="Vector" d="M54.35 181.28C54.29 181.99 53.66 182.52 52.95 182.47C52.23 182.41 51.7 181.78 51.76 181.07C51.82 180.35 52.44 179.82 53.16 179.88C53.87 179.94 54.41 180.56 54.35 181.28Z" fill="#B9B9B9" fill-opacity="1.000000" fill-rule="nonzero"/>
		<path id="Vector" d="M24.97 153.33C24.91 154.05 24.28 154.58 23.57 154.52C22.85 154.47 22.32 153.84 22.38 153.12C22.44 152.41 23.06 151.88 23.78 151.93C24.49 151.99 25.03 152.62 24.97 153.33L24.97 153.33Z" fill="#B9B9B9" fill-opacity="1.000000" fill-rule="nonzero"/>
		<path id="Vector" d="M8.13 117.36C8.08 118.07 7.45 118.6 6.74 118.55C6.02 118.49 5.49 117.86 5.55 117.15C5.6 116.43 6.23 115.9 6.94 115.96C7.66 116.01 8.19 116.64 8.13 117.35L8.13 117.36Z" fill="#B9B9B9" fill-opacity="1.000000" fill-rule="nonzero"/>
		<path id="Vector" d="M13.64 55.55C13.59 56.27 12.96 56.8 12.24 56.74C11.53 56.68 11 56.06 11.05 55.34C11.11 54.63 11.74 54.1 12.45 54.15C13.17 54.21 13.7 54.84 13.64 55.55Z" fill="#B9B9B9" fill-opacity="1.000000" fill-rule="nonzero"/>
		<path id="Vector" d="M41.54 22.69C41.49 23.4 40.86 23.94 40.15 23.88C39.43 23.82 38.9 23.19 38.96 22.48C39.01 21.76 39.64 21.23 40.35 21.29C41.07 21.35 41.6 21.97 41.54 22.69L41.54 22.69Z" fill="#B9B9B9" fill-opacity="1.000000" fill-rule="nonzero"/>
		<path id="Vector" d="M81.13 2.93C81.07 3.64 80.44 4.17 79.73 4.12C79.01 4.06 78.48 3.43 78.54 2.72C78.6 2 79.22 1.47 79.94 1.53C80.65 1.59 81.19 2.21 81.13 2.93Z" fill="#B9B9B9" fill-opacity="1.000000" fill-rule="nonzero"/>
		<path id="Vector" d="M123.52 1.4C123.46 2.11 122.83 2.64 122.12 2.59C121.4 2.53 120.87 1.9 120.93 1.19C120.98 0.47 121.61 -0.06 122.33 0C123.04 0.06 123.57 0.68 123.52 1.4L123.52 1.4Z" fill="#B9B9B9" fill-opacity="1.000000" fill-rule="nonzero"/>
		<path id="Vector" d="M164.22 17C164.16 17.72 163.53 18.25 162.82 18.19C162.11 18.13 161.57 17.51 161.63 16.79C161.69 16.08 162.31 15.54 163.03 15.6C163.74 15.66 164.28 16.29 164.22 17L164.22 17Z" fill="#B9B9B9" fill-opacity="1.000000" fill-rule="nonzero"/>
		<path id="Vector" d="M194.34 48.51C194.28 49.23 193.66 49.76 192.94 49.71C192.23 49.65 191.69 49.02 191.75 48.31C191.81 47.59 192.43 47.06 193.15 47.12C193.87 47.17 194.4 47.8 194.34 48.52L194.34 48.51Z" fill="#B9B9B9" fill-opacity="1.000000" fill-rule="nonzero"/>
		<path id="Vector" d="M208.29 89.51C208.23 90.23 207.61 90.76 206.89 90.7C206.18 90.65 205.64 90.02 205.7 89.3C205.76 88.59 206.39 88.06 207.1 88.11C207.82 88.17 208.35 88.8 208.29 89.51L208.29 89.51Z" fill="#B9B9B9" fill-opacity="1.000000" fill-rule="nonzero"/>
		<path id="Vector" d="M205.84 128.98C205.78 129.7 205.16 130.23 204.44 130.17C203.73 130.12 203.2 129.49 203.25 128.77C203.31 128.06 203.94 127.53 204.65 127.58C205.37 127.64 205.9 128.27 205.84 128.98Z" fill="#B9B9B9" fill-opacity="1.000000" fill-rule="nonzero"/>
		<path id="Vector" d="M104.96 102.87C104.96 104.66 103.51 106.12 101.72 106.12C99.92 106.12 98.47 104.66 98.47 102.87C98.47 101.08 99.92 99.63 101.72 99.63C103.51 99.63 104.96 101.08 104.96 102.87Z" fill="#B9B9B9" fill-opacity="1.000000" fill-rule="nonzero"/>
		<path id="Vector" d="M136.48 71.97C136.48 73.76 135.03 75.21 133.24 75.21C131.45 75.21 129.99 73.76 129.99 71.97C129.99 70.18 131.45 68.73 133.24 68.73C135.03 68.73 136.48 70.18 136.48 71.97Z" fill="#B9B9B9" fill-opacity="1.000000" fill-rule="nonzero"/>
		<path id="Vector" d="M86.6 63.71C86.6 65.5 85.14 66.95 83.35 66.95C81.56 66.95 80.11 65.5 80.11 63.71C80.11 61.92 81.56 60.47 83.35 60.47C85.14 60.47 86.6 61.92 86.6 63.71Z" fill="#B9B9B9" fill-opacity="1.000000" fill-rule="nonzero"/>
	</g>
</svg>
