<svg width="150.833313" height="142.056549" viewBox="0 0 150.833 142.057" fill="none" xmlns="http://www.w3.org/2000/svg" xmlns:xlink="http://www.w3.org/1999/xlink">
	<desc>
			Created with Pixso.
	</desc>
	<defs/>
	<path id="Vector" d="M112.12 31.22L88.05 37.08C87.41 37.5 83.02 37.83 81.28 37.17C79.54 36.52 79.75 35.08 80.08 34.1C80.41 33.12 84.31 32.85 84.31 32.85C84.31 32.85 82.58 32.06 82.68 31.32C82.77 30.59 85.82 32.41 85.82 32.41L108.78 25.43L112.12 31.22Z" fill="#FFFFFF" fill-opacity="1.000000" fill-rule="nonzero"/>
	<path id="Vector" d="M84.36 37.84C83.29 37.89 82.21 37.76 81.18 37.48C80.15 37.09 79.07 36.18 79.8 34.03C80.08 33.19 82.01 32.83 83.33 32.66C82.82 32.32 82.31 31.84 82.38 31.31C82.39 31.23 82.42 31.15 82.47 31.09C82.52 31.02 82.58 30.97 82.65 30.93C83.25 30.66 84.86 31.53 85.86 32.13L108.69 25.14C108.76 25.12 108.83 25.13 108.89 25.15C108.95 25.18 109.01 25.22 109.04 25.28L112.38 31.07C112.4 31.11 112.41 31.15 112.41 31.2C112.41 31.25 112.4 31.29 112.38 31.34C112.36 31.38 112.33 31.42 112.29 31.45C112.26 31.48 112.21 31.5 112.17 31.51L88.15 37.37C87.65 37.64 86 37.84 84.36 37.84ZM82.98 31.45C83.06 31.76 83.77 32.27 84.44 32.58C84.5 32.6 84.55 32.65 84.58 32.71C84.61 32.77 84.62 32.84 84.61 32.9C84.59 32.97 84.56 33.02 84.51 33.07C84.46 33.11 84.4 33.14 84.34 33.15C82.54 33.27 80.53 33.7 80.37 34.2C79.9 35.59 80.22 36.46 81.39 36.89C83.11 37.54 87.38 37.16 87.9 36.83C87.92 36.81 87.96 36.8 87.99 36.79L111.66 31.02L108.66 25.79L85.91 32.69C85.87 32.7 85.83 32.71 85.79 32.71C85.75 32.71 85.71 32.7 85.67 32.69C84.84 32.13 83.94 31.71 82.98 31.45Z" fill="#30325B" fill-opacity="1.000000" fill-rule="nonzero"/>
	<path id="Vector" d="M84.31 32.85C84.31 32.85 83.63 34.88 85.46 35.4L84.31 32.85Z" fill="#FFFFFF" fill-opacity="1.000000" fill-rule="nonzero"/>
	<path id="Vector" d="M85.46 35.68L85.39 35.68C85.12 35.62 84.87 35.5 84.65 35.34C84.44 35.17 84.26 34.96 84.13 34.72C83.85 34.1 83.82 33.39 84.03 32.74C84.06 32.66 84.11 32.6 84.18 32.57C84.25 32.53 84.33 32.53 84.41 32.55C84.48 32.58 84.55 32.63 84.58 32.7C84.62 32.77 84.63 32.85 84.6 32.93C84.44 33.43 84.46 33.96 84.66 34.45C84.75 34.61 84.88 34.76 85.03 34.87C85.19 34.98 85.36 35.06 85.55 35.1C85.59 35.11 85.62 35.13 85.65 35.15C85.68 35.18 85.71 35.21 85.73 35.24C85.75 35.28 85.76 35.32 85.76 35.36C85.77 35.39 85.76 35.43 85.75 35.47C85.73 35.53 85.69 35.59 85.64 35.63C85.59 35.66 85.53 35.68 85.46 35.68Z" fill="#30325B" fill-opacity="1.000000" fill-rule="nonzero"/>
	<path id="Vector" d="M59.84 38.08C60.13 38.25 60.39 38.47 60.61 38.74C60.89 39.09 61.1 39.5 61.2 39.94C61.3 40.39 61.31 40.84 61.21 41.29C60.89 42.63 59.22 43.05 58.11 43.64C56.79 44.36 55.44 45.01 54.08 45.66C51.3 46.95 48.47 48.13 45.62 49.25C43.27 50.16 40.9 51.05 38.51 51.81C37.73 52.06 36.02 52.93 35.18 52.68C34.21 52.41 32.18 47.18 36.86 46.36C37.78 46.1 38.69 45.76 39.55 45.34C41.73 44.5 43.9 43.66 46.06 42.8C48.61 41.79 51.14 40.76 53.65 39.68C55.45 38.89 57.98 37.02 59.84 38.08Z" fill="#FFFFFF" fill-opacity="1.000000" fill-rule="nonzero"/>
	<path id="Vector" d="M35.52 53.01C35.38 53.01 35.24 53 35.1 52.96C34.38 52.75 33.52 50.96 33.61 49.37C33.66 48.34 34.15 46.54 36.81 46.08C37.43 45.94 38.04 45.72 38.61 45.43C38.9 45.3 39.21 45.18 39.47 45.07C41.71 44.21 43.9 43.36 45.97 42.53C49.03 41.33 51.36 40.36 53.55 39.42C53.93 39.25 54.35 39.04 54.79 38.82C56.4 37.98 58.39 36.95 60.01 37.85C60.33 38.04 60.61 38.29 60.85 38.58C61.17 38.97 61.39 39.43 61.5 39.91C61.62 40.4 61.62 40.91 61.51 41.39C61.24 42.59 60.07 43.11 59.05 43.57C58.78 43.7 58.51 43.82 58.27 43.94C57.08 44.59 55.74 45.25 54.22 45.96C51.64 47.16 48.87 48.36 45.75 49.56C43.05 50.61 40.78 51.42 38.61 52.12C38.43 52.18 38.19 52.27 37.93 52.38C37.17 52.73 36.35 52.94 35.52 53.01ZM58.57 38.08C57.47 38.08 56.18 38.73 55.05 39.33C54.59 39.57 54.17 39.78 53.77 39.93C51.57 40.87 49.23 41.83 46.17 43.05C44.1 43.88 41.9 44.73 39.66 45.59C39.39 45.69 39.12 45.81 38.84 45.94C38.22 46.24 37.58 46.47 36.91 46.63C34.78 47 34.26 48.31 34.21 49.35C34.12 50.91 34.98 52.28 35.26 52.35C35.8 52.51 36.94 52.05 37.66 51.75C37.94 51.64 38.19 51.54 38.39 51.48C40.54 50.78 42.8 49.97 45.49 48.93C48.6 47.73 51.36 46.53 53.93 45.33C55.44 44.63 56.75 43.97 57.94 43.33C58.2 43.2 58.47 43.07 58.75 42.94C59.7 42.52 60.68 42.07 60.89 41.14C60.98 40.74 60.97 40.33 60.88 39.94C60.79 39.54 60.61 39.17 60.35 38.85C60.16 38.61 59.93 38.41 59.66 38.25C59.32 38.11 58.95 38.05 58.57 38.08Z" fill="#30325B" fill-opacity="1.000000" fill-rule="nonzero"/>
	<path id="Vector" d="M92.7 37.39C92.37 37.9 91.88 38.27 91.3 38.44C90.47 38.82 89.63 39.17 88.8 39.54C88.62 39.61 88.46 39.73 88.34 39.88C88.22 40.03 88.14 40.21 88.11 40.4C87.92 41.3 87.75 42.2 87.55 43.11C87.44 43.5 87.45 43.91 87.58 44.29C87.7 44.68 87.94 45.02 88.25 45.27C88.9 45.87 89.51 46.47 90.11 47.07C90.36 47.27 90.52 47.55 90.56 47.86C90.6 48.18 90.51 48.49 90.32 48.74C89.66 49.84 88.98 50.92 88.26 51.99C87.61 52.93 87.23 53.02 86.14 52.64L86.04 52.6C85.22 52.27 84.4 51.95 83.58 51.6C83.33 51.48 83.05 51.43 82.78 51.45C82.5 51.47 82.24 51.57 82.01 51.73C81.21 52.27 80.41 52.81 79.61 53.33C79.43 53.46 79.29 53.62 79.18 53.81C79.08 54.01 79.02 54.22 79.01 54.44C78.98 54.71 78.97 54.98 78.97 55.25C78.97 56.13 78.97 57.04 78.97 57.91C78.97 58.14 78.9 58.36 78.77 58.55C78.65 58.74 78.46 58.88 78.25 58.96C78.08 59.04 77.9 59.11 77.71 59.16C76.36 59.44 75 59.71 73.65 59.98C73.47 60.02 73.28 60 73.1 59.93C72.93 59.85 72.79 59.73 72.69 59.57C72.46 59.24 72.26 58.9 72.09 58.54C71.79 57.85 71.52 57.15 71.24 56.45C71.13 56.17 70.94 55.92 70.71 55.73C70.47 55.53 70.19 55.4 69.89 55.35L68.01 54.94C66.4 54.6 66.14 54.68 65.01 55.85C64.47 56.4 63.94 56.95 63.38 57.47C63.18 57.71 62.89 57.86 62.58 57.89C62.27 57.92 61.96 57.83 61.72 57.63C60.58 56.92 59.46 56.19 58.36 55.44C57.6 54.9 57.48 54.48 57.81 53.6C58.14 52.72 58.47 51.96 58.81 51.14C58.97 50.82 59.03 50.47 59 50.12C58.97 49.77 58.84 49.44 58.63 49.16C58.18 48.52 57.71 47.9 57.31 47.24C57.13 46.9 56.86 46.62 56.52 46.43C56.18 46.25 55.79 46.17 55.41 46.21C55.34 46.21 55.28 46.21 55.21 46.21L52.51 46.21C52.29 46.22 52.06 46.15 51.88 46.02C51.69 45.9 51.54 45.71 51.47 45.5C51.37 45.31 51.29 45.11 51.24 44.9C50.98 43.62 50.72 42.33 50.46 41.04C50.4 40.77 50.43 40.48 50.55 40.23C50.68 39.98 50.89 39.78 51.14 39.66C51.5 39.47 51.87 39.3 52.24 39.15C52.84 38.91 53.44 38.68 54.04 38.43C54.3 38.34 54.53 38.18 54.71 37.97C54.89 37.76 55.01 37.5 55.06 37.23C55.27 36.23 55.45 35.22 55.63 34.24C55.67 34.05 55.66 33.85 55.61 33.67C55.56 33.48 55.47 33.31 55.34 33.16C55.04 32.81 54.74 32.47 54.41 32.15C53.96 31.68 53.48 31.26 53.05 30.79C52.9 30.67 52.78 30.53 52.69 30.36C52.59 30.2 52.54 30.02 52.52 29.83C52.5 29.64 52.52 29.45 52.58 29.27C52.64 29.09 52.73 28.92 52.86 28.78C53.55 27.69 54.26 26.62 55 25.55C55.16 25.26 55.44 25.04 55.76 24.95C56.09 24.85 56.44 24.88 56.74 25.04C57.67 25.4 58.59 25.79 59.53 26.15C59.79 26.27 60.09 26.32 60.38 26.28C60.67 26.25 60.95 26.13 61.18 25.95C61.97 25.35 62.8 24.82 63.62 24.26C63.81 24.13 63.97 23.96 64.08 23.75C64.2 23.55 64.26 23.33 64.27 23.09C64.27 22.73 64.3 22.37 64.3 22.02C64.3 21.25 64.24 20.49 64.3 19.73C64.29 19.45 64.38 19.18 64.55 18.96C64.72 18.74 64.96 18.59 65.23 18.53C66.65 18.22 68.07 17.93 69.5 17.71C69.76 17.66 70.03 17.7 70.26 17.82C70.49 17.94 70.67 18.15 70.77 18.39C71.01 18.87 71.23 19.36 71.46 19.86C71.68 20.35 71.96 21.01 72.22 21.58C72.28 21.76 72.39 21.92 72.53 22.05C72.67 22.18 72.84 22.27 73.03 22.31C73.99 22.52 74.97 22.69 75.93 22.91C76.27 23.01 76.63 23 76.96 22.89C77.29 22.79 77.59 22.59 77.81 22.31C78.47 21.61 79.18 20.95 79.87 20.27C80.03 20.09 80.25 19.96 80.49 19.92C80.73 19.87 80.98 19.91 81.2 20.02C82.69 20.71 84.06 21.62 85.28 22.72C85.45 22.93 85.54 23.19 85.52 23.45C85.48 23.81 85.39 24.16 85.25 24.5C84.93 25.35 84.58 26.21 84.25 27.07C84.16 27.26 84.12 27.47 84.13 27.68C84.14 27.88 84.2 28.09 84.31 28.27C84.98 29.24 85.65 30.22 86.37 31.15C86.57 31.37 86.85 31.5 87.14 31.55C87.54 31.59 87.94 31.61 88.34 31.58C89.1 31.58 89.85 31.54 90.6 31.58C90.91 31.58 91.22 31.69 91.46 31.89C91.7 32.1 91.86 32.38 91.92 32.68C92.04 33.18 92.16 33.67 92.25 34.16C92.42 35.12 92.58 36.08 92.75 37.04L92.7 37.39ZM70.27 47.53C72.55 47.87 74.87 47.31 76.73 45.95C78.59 44.59 79.85 42.56 80.22 40.28C80.55 38.02 79.98 35.71 78.65 33.85C77.32 31.99 75.32 30.71 73.07 30.29C71.93 30.1 70.76 30.13 69.64 30.4C68.52 30.66 67.45 31.14 66.52 31.81C65.58 32.49 64.79 33.34 64.18 34.32C63.57 35.31 63.17 36.4 62.99 37.54C62.15 41.32 64.71 46.66 70.27 47.53Z" fill="#FFFFFF" fill-opacity="1.000000" fill-rule="nonzero"/>
	<path id="Vector" d="M73.46 60.34C73.26 60.34 73.06 60.29 72.88 60.19C72.71 60.09 72.56 59.94 72.45 59.77C72.21 59.44 72.01 59.08 71.85 58.7C71.64 58.24 71.46 57.77 71.25 57.3C71.16 57.07 71.07 56.83 70.98 56.6C70.88 56.36 70.73 56.15 70.53 55.99C70.33 55.83 70.09 55.72 69.84 55.68L69.02 55.5L67.96 55.27C66.46 54.95 66.3 54.99 65.22 56.1L64.93 56.39C64.5 56.83 64.05 57.3 63.58 57.73C63.33 58.01 62.98 58.18 62.6 58.22C62.23 58.25 61.86 58.15 61.55 57.93C60.3 57.13 59.19 56.42 58.19 55.72C57.32 55.12 57.15 54.52 57.53 53.53C57.84 52.68 58.2 51.84 58.53 51.06C58.67 50.79 58.72 50.49 58.7 50.19C58.67 49.89 58.56 49.61 58.38 49.37C58.25 49.17 58.11 48.98 57.98 48.77C57.66 48.33 57.33 47.87 57.05 47.4C56.9 47.11 56.66 46.86 56.37 46.71C56.09 46.55 55.76 46.48 55.43 46.52C55.38 46.53 55.32 46.53 55.27 46.52L55.21 46.52L54.31 46.52L52.51 46.52C52.22 46.52 51.95 46.44 51.71 46.28C51.47 46.12 51.29 45.9 51.19 45.63C51.09 45.44 51.01 45.24 50.96 45.03C50.68 43.74 50.42 42.45 50.17 41.17C50.09 40.83 50.13 40.48 50.28 40.17C50.43 39.86 50.69 39.62 51 39.47C51.36 39.27 51.74 39.1 52.13 38.94L53.19 38.52L53.95 38.22C54.16 38.15 54.35 38.01 54.5 37.84C54.65 37.66 54.75 37.45 54.79 37.22C54.95 36.44 55.1 35.65 55.24 34.82L55.36 34.18C55.38 34.04 55.38 33.89 55.34 33.74C55.3 33.6 55.23 33.47 55.13 33.36C54.85 33.03 54.53 32.7 54.21 32.36C54.03 32.17 53.85 31.98 53.65 31.8C53.46 31.62 53.1 31.27 52.84 30.99C52.67 30.85 52.53 30.67 52.42 30.48C52.31 30.28 52.25 30.06 52.23 29.84C52.21 29.61 52.23 29.39 52.3 29.17C52.37 28.96 52.48 28.76 52.62 28.59C53.31 27.51 54.04 26.42 54.77 25.35C54.98 25.01 55.31 24.75 55.7 24.64C56.09 24.53 56.51 24.57 56.87 24.75L58.29 25.32L59.65 25.87C59.87 25.97 60.12 26.01 60.36 25.98C60.6 25.95 60.83 25.86 61.02 25.71C61.62 25.25 62.27 24.82 62.89 24.4L63.49 24.01C63.64 23.9 63.77 23.76 63.86 23.6C63.95 23.43 64 23.25 64.01 23.06C64.04 22.7 64.04 22.35 64.04 22.01C64.04 21.67 64.04 21.49 64.04 21.24C64.04 20.73 64.04 20.22 64.04 19.7C64.03 19.36 64.15 19.02 64.37 18.75C64.59 18.49 64.9 18.31 65.23 18.24C66.47 17.98 67.79 17.72 69.51 17.42C69.83 17.35 70.16 17.4 70.45 17.56C70.74 17.71 70.97 17.96 71.1 18.26C71.31 18.67 71.49 19.08 71.7 19.49L71.81 19.74C71.92 19.97 72.02 20.21 72.12 20.44C72.27 20.78 72.42 21.12 72.58 21.46C72.63 21.59 72.71 21.7 72.81 21.79C72.92 21.88 73.04 21.94 73.18 21.96L74.2 22.17C74.83 22.29 75.46 22.42 76.09 22.56C76.37 22.64 76.68 22.64 76.96 22.55C77.24 22.46 77.49 22.28 77.68 22.05C78.11 21.59 78.57 21.15 79.01 20.72L79.75 20C79.95 19.77 80.22 19.62 80.52 19.56C80.82 19.51 81.13 19.55 81.41 19.68C82.93 20.38 84.33 21.31 85.57 22.44C85.69 22.57 85.78 22.72 85.84 22.89C85.9 23.06 85.92 23.24 85.91 23.41C85.87 23.8 85.78 24.18 85.63 24.54C85.45 25.02 85.25 25.5 85.06 25.98C84.91 26.36 84.76 26.74 84.62 27.12C84.55 27.26 84.51 27.42 84.52 27.58C84.52 27.75 84.57 27.91 84.65 28.05C85.25 28.91 85.94 29.92 86.7 30.92C86.86 31.07 87.07 31.17 87.3 31.2C87.58 31.24 87.87 31.25 88.15 31.23L89.22 31.23C89.71 31.23 90.22 31.23 90.73 31.23C91.09 31.27 91.44 31.43 91.7 31.68C91.97 31.93 92.15 32.26 92.21 32.63C92.32 33.09 92.44 33.6 92.54 34.12C92.66 34.8 92.78 35.48 92.9 36.16L93.04 37.01C93.05 37.04 93.05 37.07 93.04 37.1L92.99 37.44C92.98 37.47 92.97 37.5 92.96 37.53C92.61 38.1 92.07 38.52 91.43 38.73C90.92 38.95 90.43 39.16 89.93 39.38L88.91 39.82C88.78 39.87 88.66 39.96 88.57 40.08C88.48 40.19 88.42 40.33 88.4 40.47C88.33 40.81 88.26 41.15 88.19 41.49C88.08 42.05 87.96 42.62 87.83 43.19C87.73 43.53 87.74 43.89 87.85 44.22C87.95 44.56 88.16 44.86 88.43 45.08C89.03 45.6 89.6 46.18 90.3 46.88C90.6 47.12 90.8 47.46 90.85 47.85C90.89 48.23 90.79 48.61 90.55 48.92C89.74 50.25 89.11 51.25 88.49 52.17C87.77 53.22 87.29 53.37 86.02 52.94L85.94 52.91L85.18 52.61C84.58 52.38 84.02 52.14 83.44 51.9C83.23 51.8 83.01 51.75 82.78 51.77C82.56 51.79 82.34 51.87 82.16 52L81.83 52.22C81.15 52.69 80.47 53.15 79.78 53.6C79.63 53.7 79.51 53.83 79.42 53.99C79.34 54.14 79.29 54.31 79.28 54.49C79.25 54.74 79.24 55 79.24 55.26C79.24 55.76 79.24 56.25 79.24 56.73L79.24 57.93C79.24 58.22 79.16 58.5 79 58.73C78.83 58.97 78.6 59.15 78.34 59.25L78.27 59.29C78.1 59.37 77.92 59.43 77.74 59.48L74.82 60.08L73.68 60.31C73.61 60.32 73.53 60.34 73.46 60.34ZM66.82 54.5C67.25 54.52 67.67 54.58 68.09 54.68L69.15 54.91L69.97 55.09C70.32 55.15 70.65 55.3 70.92 55.53C71.19 55.75 71.41 56.04 71.53 56.37C71.63 56.61 71.73 56.84 71.82 57.08C72 57.54 72.18 58 72.42 58.46C72.57 58.8 72.75 59.13 72.97 59.43C73.04 59.54 73.13 59.63 73.25 59.69C73.37 59.74 73.5 59.75 73.63 59.72L74.76 59.5C75.74 59.3 76.71 59.11 77.68 58.9C77.82 58.86 77.96 58.81 78.09 58.75L78.16 58.71C78.32 58.66 78.46 58.56 78.56 58.42C78.66 58.28 78.71 58.11 78.7 57.94L78.7 56.75C78.7 56.25 78.7 55.76 78.7 55.27C78.7 55.02 78.7 54.75 78.75 54.43C78.77 54.17 78.84 53.91 78.97 53.68C79.11 53.45 79.29 53.25 79.51 53.11C80.2 52.66 80.88 52.2 81.56 51.73L81.89 51.51C82.15 51.32 82.46 51.21 82.79 51.18C83.12 51.15 83.44 51.21 83.74 51.35L85.47 52.06L86.2 52.35L86.2 52.66L86.3 52.38C87.28 52.73 87.5 52.66 88.07 51.84C88.67 50.94 89.32 49.94 90.12 48.61C90.2 48.52 90.26 48.41 90.3 48.29C90.34 48.17 90.35 48.04 90.33 47.92C90.32 47.79 90.27 47.67 90.21 47.57C90.14 47.46 90.06 47.37 89.95 47.3C89.26 46.58 88.68 46 88.11 45.5C87.76 45.21 87.49 44.82 87.35 44.38C87.21 43.94 87.2 43.48 87.32 43.03C87.44 42.47 87.56 41.91 87.67 41.35C87.74 41 87.81 40.66 87.88 40.33C87.92 40.09 88.02 39.87 88.17 39.68C88.32 39.49 88.52 39.34 88.74 39.25L89.76 38.8C90.25 38.6 90.75 38.38 91.24 38.16C91.74 38.01 92.17 37.7 92.47 37.28L92.51 37.05L92.31 36.28C92.2 35.6 92.08 34.93 91.96 34.25C91.86 33.74 91.75 33.24 91.63 32.79C91.59 32.54 91.47 32.32 91.28 32.16C91.09 31.99 90.85 31.9 90.61 31.9C90.12 31.9 89.62 31.9 89.14 31.9L88.07 31.9C87.75 31.92 87.42 31.91 87.1 31.86C86.73 31.8 86.39 31.63 86.14 31.35C85.37 30.35 84.66 29.32 84.07 28.45C83.93 28.23 83.85 27.98 83.83 27.73C83.82 27.47 83.86 27.21 83.97 26.97L84.42 25.83C84.61 25.36 84.8 24.88 84.98 24.4C85.11 24.1 85.19 23.78 85.23 23.45C85.24 23.28 85.19 23.1 85.09 22.96C83.9 21.88 82.55 20.98 81.08 20.3C80.92 20.22 80.73 20.19 80.55 20.22C80.37 20.26 80.2 20.35 80.08 20.49C79.84 20.74 79.59 20.98 79.34 21.22C78.91 21.64 78.46 22.09 78.03 22.53C77.77 22.84 77.43 23.07 77.05 23.19C76.67 23.31 76.26 23.32 75.87 23.22C75.27 23.07 74.62 22.95 74 22.82L72.97 22.62C72.75 22.57 72.54 22.47 72.36 22.32C72.19 22.18 72.05 21.99 71.96 21.78C71.8 21.44 71.65 21.1 71.5 20.75L71.19 20.06L71.08 19.81C70.9 19.4 70.72 18.99 70.51 18.61C70.44 18.43 70.31 18.27 70.13 18.18C69.96 18.08 69.76 18.05 69.56 18.1C67.85 18.4 66.56 18.65 65.31 18.9C65.11 18.96 64.94 19.08 64.82 19.24C64.7 19.4 64.63 19.6 64.63 19.8C64.6 20.28 64.63 20.79 64.63 21.28C64.63 21.55 64.63 21.81 64.63 22.07C64.63 22.33 64.63 22.79 64.6 23.17C64.59 23.45 64.51 23.72 64.38 23.96C64.24 24.2 64.05 24.41 63.83 24.56L63.23 24.96C62.63 25.37 61.98 25.8 61.37 26.25C61.1 26.46 60.78 26.59 60.44 26.63C60.09 26.67 59.75 26.62 59.43 26.49L58.07 25.94L56.65 25.34C56.53 25.28 56.4 25.23 56.27 25.22C56.14 25.2 56 25.21 55.87 25.25C55.74 25.29 55.62 25.35 55.52 25.44C55.42 25.52 55.33 25.63 55.27 25.74C54.53 26.8 53.82 27.89 53.13 28.97C53.02 29.08 52.94 29.22 52.89 29.37C52.84 29.51 52.82 29.67 52.84 29.82C52.85 29.98 52.9 30.13 52.97 30.27C53.05 30.4 53.16 30.52 53.28 30.61C53.53 30.88 53.8 31.14 54.07 31.4C54.33 31.65 54.46 31.77 54.67 31.96C55.01 32.31 55.33 32.66 55.61 33C55.77 33.18 55.88 33.39 55.94 33.62C56 33.84 56.01 34.08 55.97 34.32L55.85 34.96C55.71 35.75 55.57 36.55 55.4 37.35C55.34 37.68 55.2 37.98 54.99 38.23C54.78 38.48 54.51 38.67 54.2 38.78L53.43 39.09L52.38 39.51C52.02 39.65 51.66 39.82 51.31 40C51.11 40.08 50.95 40.24 50.85 40.43C50.76 40.63 50.73 40.85 50.78 41.06C51.03 42.34 51.3 43.63 51.56 44.91C51.6 45.07 51.66 45.22 51.74 45.36C51.79 45.53 51.89 45.69 52.03 45.79C52.18 45.9 52.35 45.96 52.53 45.96L54.33 45.96L55.23 45.96L55.42 45.96C55.86 45.92 56.3 46.01 56.69 46.23C57.08 46.44 57.39 46.77 57.59 47.16C57.87 47.62 58.19 48.06 58.49 48.49C58.63 48.68 58.77 48.87 58.9 49.09C59.14 49.41 59.28 49.8 59.32 50.2C59.36 50.6 59.29 51 59.11 51.36C58.78 52.14 58.43 52.97 58.11 53.82C57.8 54.67 57.92 54.85 58.56 55.29C59.56 55.99 60.65 56.7 61.9 57.49C62 57.57 62.1 57.62 62.22 57.66C62.34 57.7 62.46 57.71 62.58 57.69C62.7 57.68 62.82 57.65 62.92 57.59C63.03 57.53 63.13 57.45 63.2 57.36C63.66 56.94 64.1 56.48 64.53 56.04L64.82 55.75C65.64 54.82 66.07 54.5 66.82 54.5ZM71.61 47.93C71.15 47.93 70.68 47.9 70.22 47.82C68.99 47.64 67.82 47.2 66.77 46.54C65.72 45.88 64.81 45.02 64.11 43.99C63.45 43.05 62.99 42 62.75 40.88C62.5 39.76 62.49 38.6 62.7 37.48C62.98 35.79 63.74 34.21 64.88 32.94C66.03 31.66 67.51 30.74 69.16 30.29C70.81 29.83 72.56 29.85 74.2 30.35C75.84 30.85 77.3 31.81 78.41 33.12C79.52 34.42 80.24 36.02 80.47 37.71C80.71 39.41 80.46 41.14 79.74 42.7C79.03 44.26 77.88 45.58 76.44 46.51C75 47.43 73.33 47.93 71.61 47.94L71.61 47.93ZM70.32 47.23C71.41 47.4 72.52 47.36 73.59 47.1C74.66 46.84 75.67 46.37 76.56 45.72C77.45 45.07 78.21 44.25 78.78 43.31C79.35 42.37 79.74 41.33 79.91 40.24C80.08 39.15 80.04 38.03 79.78 36.96C79.52 35.88 79.04 34.87 78.39 33.98C77.42 32.62 76.07 31.57 74.51 30.98C72.95 30.39 71.25 30.28 69.62 30.67C68 31.06 66.53 31.92 65.4 33.15C64.27 34.38 63.54 35.92 63.29 37.58C63.09 38.62 63.11 39.7 63.34 40.74C63.56 41.78 64 42.77 64.61 43.64C65.26 44.6 66.11 45.41 67.09 46.03C68.07 46.65 69.17 47.06 70.32 47.23L70.32 47.23Z" fill="#30325B" fill-opacity="1.000000" fill-rule="nonzero"/>
	<path id="Vector" d="M37.96 83.49L37.11 85.13C34.88 89.42 33.38 96.71 28.86 100.93C27.19 102.49 8.89 110.49 8.89 110.49L6.91 105.09C6.91 105.09 21.44 95.92 22.68 94.66C24.22 93.08 30.82 72.04 30.82 72.04L37.96 83.49Z" fill="#FFFFFF" fill-opacity="1.000000" fill-rule="nonzero"/>
	<path id="Vector" d="M8.89 110.78C8.85 110.79 8.81 110.79 8.77 110.78C8.73 110.77 8.7 110.74 8.67 110.72C8.64 110.69 8.62 110.65 8.61 110.61L6.63 105.22C6.61 105.15 6.61 105.08 6.63 105.02C6.65 104.95 6.7 104.9 6.76 104.86C11.76 101.7 21.47 95.47 22.41 94.5C23.64 93.24 28.66 77.83 30.49 71.99C30.5 71.94 30.54 71.89 30.58 71.85C30.63 71.82 30.68 71.79 30.74 71.78C30.79 71.78 30.85 71.79 30.9 71.81C30.96 71.84 31 71.88 31.03 71.92L38.19 83.38C38.22 83.43 38.23 83.48 38.23 83.53C38.23 83.58 38.22 83.63 38.19 83.68C38.19 83.68 37.87 84.28 37.34 85.32C36.6 86.83 35.95 88.38 35.38 89.96C33.89 93.84 32.19 98.24 29.02 101.2C27.34 102.77 9.75 110.48 9 110.79C8.96 110.79 8.93 110.79 8.89 110.78ZM7.3 105.21L9.1 110.1C15.48 107.31 27.39 101.92 28.66 100.74C31.73 97.87 33.4 93.54 34.87 89.72C35.44 88.12 36.11 86.55 36.85 85.02L37.63 83.53L30.89 72.74C29.76 76.31 24.29 93.39 22.87 94.87C21.71 96.07 9.14 104.01 7.3 105.21Z" fill="#30325B" fill-opacity="1.000000" fill-rule="nonzero"/>
	<path id="Vector" d="M6.94 105.07C6.94 105.07 2.48 105.81 2.51 106.47C2.54 107.13 6.1 118.39 7.42 117.91C8.74 117.43 8.89 110.49 8.89 110.49L6.94 105.07Z" fill="#30325B" fill-opacity="1.000000" fill-rule="nonzero"/>
	<path id="Vector" d="M7.34 118.22C7.2 118.22 7.06 118.17 6.94 118.09C5.25 116.97 2.24 107.02 2.21 106.49C2.21 106.26 2.16 105.55 6.89 104.77C6.96 104.76 7.03 104.77 7.09 104.81C7.15 104.84 7.19 104.9 7.22 104.97L9.2 110.36C9.2 110.4 9.2 110.44 9.2 110.48C9.15 112.15 8.92 117.67 7.51 118.17C7.45 118.2 7.4 118.21 7.34 118.22ZM2.81 106.5C2.89 106.95 3.68 109.59 4.68 112.3C6.59 117.47 7.31 117.62 7.34 117.62C8.02 117.37 8.54 113.76 8.61 110.54L6.74 105.4C5 105.71 3.1 106.2 2.81 106.5Z" fill="#30325B" fill-opacity="1.000000" fill-rule="nonzero"/>
	<path id="Vector" d="M43.3 80.15C43.3 80.15 43.52 80.81 43.86 81.91C45.3 86.52 49.07 98.69 49.19 100.53C49.34 102.82 40.95 119.33 40.95 119.33L35.26 118.33C35.26 118.33 40.35 100.6 40.33 98.86C40.33 96.65 30.14 77.08 30.14 77.08L43.3 80.15Z" fill="#FFFFFF" fill-opacity="1.000000" fill-rule="nonzero"/>
	<path id="Vector" d="M40.95 119.63L40.9 119.63L35.22 118.63C35.18 118.63 35.14 118.61 35.11 118.59C35.07 118.57 35.04 118.54 35.02 118.5C35 118.47 34.98 118.43 34.98 118.38C34.97 118.34 34.98 118.3 34.99 118.26C36.74 112.14 40.05 100.21 40.04 98.87C40.04 97.11 32.7 82.65 29.85 77.22C29.82 77.17 29.8 77.12 29.8 77.06C29.8 77 29.82 76.95 29.85 76.9C29.89 76.85 29.93 76.82 29.99 76.8C30.04 76.78 30.1 76.78 30.16 76.79L43.34 79.86C43.39 79.87 43.44 79.89 43.48 79.93C43.51 79.96 43.54 80.01 43.56 80.06L44.12 81.82C45.68 86.83 49.34 98.67 49.46 100.52C49.61 102.86 41.53 118.8 41.19 119.48C41.17 119.52 41.13 119.56 41.09 119.59C41.05 119.61 41 119.63 40.95 119.63ZM35.65 118.09L40.79 119.01C43.19 114.28 49.01 102.33 48.89 100.56C48.77 98.78 44.79 85.89 43.57 81.97L43.06 80.4L30.7 77.51C32.42 80.83 40.6 96.79 40.63 98.86C40.66 100.51 36.36 115.62 35.65 118.09Z" fill="#30325B" fill-opacity="1.000000" fill-rule="nonzero"/>
	<path id="Vector" d="M22.63 31.68C21.43 31.76 20.26 32.09 19.19 32.64C17.32 33.54 15.53 35.03 15.12 37.04C14.78 38.69 15.41 40.38 16.21 41.84C17.01 43.3 18.01 44.73 18.43 46.35C18.86 47.97 18.67 49.95 17.4 51.01C19.13 50.34 20.75 49.4 22.19 48.22C23.04 47.52 23.6 46.53 23.74 45.45C23.74 44.55 23.52 43.67 23.11 42.88C22.49 41.7 22.09 40.42 21.91 39.1C21.82 37.79 22.31 36.34 23.45 35.66C24.45 35.06 27.72 35.13 27.2 33.27C26.81 31.88 23.8 31.63 22.63 31.68Z" fill="#FFFFFF" fill-opacity="1.000000" fill-rule="nonzero"/>
	<path id="Vector" d="M17.4 51.33C17.33 51.33 17.27 51.31 17.22 51.27C17.17 51.24 17.13 51.19 17.11 51.13C17.09 51.07 17.09 51.01 17.1 50.95C17.12 50.89 17.15 50.84 17.2 50.8C18.48 49.71 18.51 47.8 18.15 46.45C17.76 45.29 17.24 44.18 16.59 43.14C16.37 42.76 16.15 42.38 15.95 42C14.88 40.03 14.53 38.4 14.82 36.98C15.33 34.49 17.7 33.02 19.06 32.37C20.16 31.79 21.37 31.46 22.62 31.38C23.82 31.33 27.04 31.57 27.5 33.23C27.56 33.41 27.59 33.6 27.57 33.79C27.55 33.98 27.49 34.16 27.39 34.33C26.97 35.06 25.85 35.32 24.86 35.56C24.44 35.63 24.02 35.76 23.62 35.94C22.47 36.61 22.15 38.07 22.22 39.1C22.38 40.33 22.74 41.52 23.29 42.62L23.37 42.78C23.8 43.62 24.03 44.55 24.03 45.49C23.88 46.66 23.29 47.73 22.38 48.49C20.92 49.69 19.28 50.65 17.52 51.33C17.48 51.34 17.44 51.34 17.4 51.33ZM22.64 31.98C21.48 32.05 20.35 32.37 19.31 32.91C18.06 33.51 15.87 34.87 15.41 37.1C15.15 38.4 15.48 39.87 16.47 41.72C16.68 42.1 16.89 42.47 17.11 42.84C17.79 43.92 18.33 45.08 18.72 46.29C19.11 47.6 19 49.01 18.41 50.24C19.7 49.68 20.9 48.93 21.97 48.02C22.76 47.37 23.27 46.45 23.43 45.45C23.43 44.6 23.22 43.77 22.83 43.02L22.75 42.86C22.17 41.69 21.79 40.44 21.63 39.15C21.55 38.43 21.66 37.71 21.96 37.05C22.26 36.39 22.73 35.83 23.32 35.42C23.77 35.21 24.25 35.06 24.74 34.97C25.57 34.78 26.59 34.53 26.89 34.02C26.94 33.93 26.97 33.83 26.98 33.73C26.98 33.62 26.97 33.52 26.94 33.42C26.61 32.22 23.86 31.96 22.65 32.01L22.64 31.98Z" fill="#30325B" fill-opacity="1.000000" fill-rule="nonzero"/>
	<path id="Vector" d="M24.09 32.09C23.7 32.77 23.55 33.57 23.67 34.36C23.7 34.88 23.89 35.39 24.22 35.81C24.43 36.05 24.7 36.23 24.99 36.35C25.29 36.47 25.61 36.51 25.93 36.49C26.22 36.48 26.5 36.37 26.7 36.17C26.85 35.98 26.95 35.76 26.99 35.52C27.33 33.88 26.13 28.87 24.09 32.09Z" fill="#30325B" fill-opacity="1.000000" fill-rule="nonzero"/>
	<path id="Vector" d="M25.77 36.79C25.43 36.8 25.09 36.73 24.78 36.59C24.47 36.46 24.2 36.25 23.97 36C23.62 35.54 23.41 34.98 23.37 34.39C23.25 33.54 23.41 32.67 23.85 31.93C24.64 30.68 25.33 30.63 25.77 30.81C27.02 31.31 27.57 34.31 27.29 35.6C27.24 35.89 27.12 36.17 26.93 36.39C26.67 36.65 26.32 36.8 25.96 36.8L25.77 36.79ZM24.35 32.25C23.99 32.88 23.86 33.61 23.97 34.32C23.99 34.79 24.16 35.24 24.44 35.62C24.63 35.82 24.85 35.98 25.11 36.09C25.36 36.19 25.64 36.23 25.91 36.22C26.13 36.21 26.35 36.14 26.51 35.99C26.62 35.84 26.69 35.67 26.72 35.48C26.95 34.38 26.4 31.73 25.57 31.39C25.15 31.23 24.68 31.78 24.37 32.28L24.35 32.25Z" fill="#30325B" fill-opacity="1.000000" fill-rule="nonzero"/>
	<path id="Vector" d="M34.83 42.88C34.35 43.47 33.63 43.76 32.4 43.64C31.39 43.5 30.43 43.12 29.61 42.52C28.01 41.39 26.75 39.84 25.98 38.04C25.21 36.24 24.96 34.26 25.25 32.33C25.9 28.4 29.81 24.49 34.02 25.98C34.73 26.24 35.38 26.65 35.91 27.19C36.45 27.72 36.86 28.37 37.12 29.08C37.41 28.98 37.71 28.97 38.01 29.04C38.3 29.12 38.56 29.27 38.76 29.5C39.86 30.58 39.81 31.74 39.23 33.05C38.27 35.19 37.1 37.25 36.23 39.42C35.74 40.64 35.55 42.01 34.83 42.88Z" fill="#FFFFFF" fill-opacity="1.000000" fill-rule="nonzero"/>
	<path id="Vector" d="M32.87 43.94C32.7 43.94 32.52 43.94 32.34 43.94C31.28 43.79 30.28 43.38 29.42 42.74C27.76 41.58 26.46 39.98 25.67 38.13C24.88 36.27 24.62 34.23 24.93 32.23C25.15 31 25.63 29.83 26.33 28.8C27.03 27.77 27.94 26.89 29.01 26.24C29.76 25.77 30.61 25.47 31.49 25.38C32.37 25.28 33.26 25.39 34.1 25.68C34.81 25.94 35.45 26.34 36 26.85C36.55 27.37 36.98 27.99 37.28 28.68C37.58 28.64 37.89 28.67 38.19 28.78C38.48 28.88 38.74 29.05 38.95 29.28C40.36 30.68 39.93 32.16 39.48 33.16C39.09 34.05 38.65 34.93 38.22 35.78C37.62 36.98 37.03 38.25 36.49 39.52C36.33 39.93 36.2 40.36 36.07 40.78C35.88 41.61 35.53 42.39 35.04 43.08C34.76 43.38 34.42 43.61 34.05 43.76C33.67 43.91 33.27 43.97 32.87 43.94ZM32.14 25.91C31.15 25.91 30.18 26.19 29.34 26.69C28.35 27.31 27.5 28.13 26.84 29.09C26.19 30.06 25.75 31.15 25.54 32.3C25.26 34.18 25.51 36.1 26.26 37.85C27.01 39.6 28.23 41.11 29.78 42.22C30.56 42.79 31.47 43.16 32.43 43.29C32.82 43.37 33.22 43.36 33.6 43.24C33.98 43.12 34.33 42.91 34.6 42.62C35.04 41.99 35.36 41.28 35.53 40.53C35.65 40.11 35.79 39.66 35.96 39.23C36.47 37.93 37.1 36.66 37.71 35.44C38.13 34.6 38.57 33.72 38.96 32.85C39.55 31.48 39.45 30.52 38.55 29.63C38.39 29.46 38.18 29.33 37.95 29.26C37.72 29.2 37.47 29.2 37.24 29.27C37.2 29.29 37.16 29.3 37.12 29.3C37.08 29.3 37.04 29.29 37 29.27C36.97 29.26 36.93 29.23 36.9 29.2C36.88 29.17 36.85 29.14 36.84 29.1C36.6 28.43 36.21 27.82 35.71 27.32C35.2 26.82 34.6 26.43 33.93 26.19C33.36 26 32.76 25.9 32.16 25.91L32.14 25.91Z" fill="#30325B" fill-opacity="1.000000" fill-rule="nonzero"/>
	<path id="Vector" d="M37.95 33.78C37.95 33.78 40.51 35.95 40.3 36.61C40.1 37.27 38.77 37.26 38.77 37.26L37.95 33.78Z" fill="#FFFFFF" fill-opacity="1.000000" fill-rule="nonzero"/>
	<path id="Vector" d="M38.79 37.56C38.71 37.56 38.63 37.53 38.58 37.47C38.52 37.42 38.49 37.34 38.49 37.26C38.49 37.22 38.49 37.18 38.51 37.14C38.53 37.11 38.55 37.07 38.58 37.04C38.61 37.02 38.64 37 38.68 36.98C38.71 36.97 38.75 36.96 38.79 36.96C39.12 36.96 39.93 36.86 40.03 36.53C40.14 36.2 39.01 35.05 37.78 34.01C37.72 33.96 37.68 33.88 37.68 33.81C37.67 33.73 37.7 33.65 37.75 33.59C37.8 33.53 37.87 33.49 37.95 33.48C38.03 33.48 38.11 33.5 38.17 33.55C39.18 34.41 40.84 35.95 40.61 36.7C40.38 37.45 39.03 37.56 38.79 37.56Z" fill="#30325B" fill-opacity="1.000000" fill-rule="nonzero"/>
	<path id="Vector" d="M39.38 48.43C36.51 48.66 31.58 45.78 31.58 45.67C31.06 43.81 30.63 41.93 30.3 40.03C30.3 40.03 32.23 39.48 32.69 36.84C33.15 34.21 35.6 33.8 36.55 30.34C37.94 30.94 38.18 32.98 38.54 34.25C39.05 36.04 39.51 37.84 39.93 39.64C40.2 40.79 37.28 41.67 36.66 41.48C37.32 43.18 37.32 43.18 39.38 48.43Z" fill="#FFFFFF" fill-opacity="1.000000" fill-rule="nonzero"/>
	<path id="Vector" d="M39.06 48.74C36.17 48.74 31.42 46.16 31.27 45.75C30.73 43.87 30.3 41.97 29.96 40.05C29.95 39.98 29.96 39.9 30 39.84C30.04 39.78 30.1 39.73 30.17 39.71C30.25 39.71 31.97 39.17 32.37 36.77C32.63 35.61 33.24 34.57 34.12 33.77C35.13 32.82 35.86 31.62 36.26 30.29C36.27 30.25 36.29 30.21 36.32 30.18C36.35 30.14 36.38 30.12 36.42 30.1C36.46 30.08 36.5 30.07 36.54 30.07C36.58 30.07 36.63 30.07 36.67 30.09C37.97 30.65 38.35 32.23 38.66 33.51C38.72 33.75 38.77 33.99 38.83 34.2C39.33 35.99 39.8 37.79 40.22 39.59C40.26 39.8 40.24 40.01 40.16 40.21C40.09 40.4 39.96 40.58 39.79 40.7C39.02 41.31 38.08 41.69 37.1 41.8C37.62 43.13 37.78 43.55 39.66 48.34C39.67 48.38 39.68 48.43 39.67 48.47C39.67 48.52 39.65 48.57 39.63 48.6C39.6 48.64 39.57 48.68 39.53 48.7C39.49 48.73 39.45 48.74 39.4 48.74C39.29 48.75 39.17 48.75 39.06 48.74ZM31.83 45.49C32.35 45.84 36.3 48.1 38.94 48.14C37.04 43.29 37.03 43.25 36.38 41.59C36.36 41.53 36.36 41.48 36.37 41.42C36.38 41.37 36.41 41.32 36.44 41.27C36.48 41.23 36.53 41.2 36.59 41.19C36.64 41.17 36.7 41.17 36.75 41.19C37.71 41.17 38.63 40.84 39.38 40.26C39.59 40.06 39.68 39.88 39.64 39.72C39.22 37.92 38.75 36.12 38.25 34.32C38.19 34.11 38.13 33.86 38.07 33.61C37.82 32.58 37.52 31.34 36.73 30.77C36.29 32.06 35.56 33.23 34.59 34.18C33.79 34.89 33.23 35.84 32.99 36.88C32.91 37.59 32.64 38.27 32.22 38.85C31.8 39.43 31.24 39.89 30.59 40.2C30.78 41.08 31.33 43.92 31.83 45.49Z" fill="#30325B" fill-opacity="1.000000" fill-rule="nonzero"/>
	<path id="Vector" d="M39.5 38.33C39.36 38.5 39.19 38.63 38.99 38.72C38.8 38.82 38.58 38.87 38.36 38.87C38.15 38.87 37.93 38.83 37.73 38.74C37.53 38.66 37.36 38.53 37.21 38.37L39.5 38.33Z" fill="#FFFFFF" fill-opacity="1.000000" fill-rule="nonzero"/>
	<path id="Vector" d="M38.3 39.19C38.05 39.19 37.81 39.13 37.58 39.03C37.36 38.93 37.16 38.78 37 38.59C36.94 38.54 36.91 38.46 36.91 38.38C36.92 38.3 36.95 38.22 37.01 38.17C37.07 38.11 37.14 38.09 37.22 38.09C37.3 38.09 37.38 38.12 37.43 38.18C37.54 38.32 37.67 38.43 37.82 38.5C37.97 38.58 38.14 38.62 38.31 38.62C38.68 38.58 39.02 38.42 39.28 38.15C39.33 38.1 39.41 38.07 39.48 38.07C39.56 38.06 39.63 38.09 39.69 38.14C39.75 38.19 39.78 38.27 39.79 38.34C39.79 38.42 39.77 38.49 39.72 38.55C39.36 38.95 38.85 39.18 38.31 39.22L38.3 39.19Z" fill="#30325B" fill-opacity="1.000000" fill-rule="nonzero"/>
	<path id="Vector" d="M36.66 41.48C36.23 41.58 35.78 41.59 35.35 41.51C34.91 41.43 34.5 41.26 34.13 41.01C34.13 41.01 35.02 43.71 37.57 43.83L36.66 41.48Z" fill="#30325B" fill-opacity="1.000000" fill-rule="nonzero"/>
	<path id="Vector" d="M37.57 44.13C34.84 44.01 33.9 41.22 33.86 41.13C33.84 41.07 33.84 41 33.86 40.94C33.88 40.88 33.92 40.82 33.97 40.79C34.03 40.75 34.09 40.73 34.15 40.73C34.22 40.73 34.28 40.75 34.33 40.79C34.67 41.01 35.04 41.16 35.43 41.23C35.82 41.3 36.22 41.29 36.61 41.2C36.68 41.18 36.75 41.19 36.81 41.23C36.88 41.26 36.93 41.31 36.95 41.38L37.86 43.73C37.88 43.78 37.89 43.83 37.88 43.87C37.88 43.92 37.86 43.97 37.83 44.01C37.8 44.05 37.77 44.08 37.72 44.11C37.68 44.13 37.63 44.14 37.58 44.14L37.57 44.13ZM34.79 41.73C35.03 42.18 35.36 42.57 35.76 42.88C36.16 43.19 36.62 43.41 37.12 43.53L36.46 41.82C35.9 41.89 35.33 41.84 34.79 41.68L34.79 41.73Z" fill="#30325B" fill-opacity="1.000000" fill-rule="nonzero"/>
	<path id="Vector" d="M37.35 33.04C37.43 33.4 37.38 33.71 37.24 33.74C37.1 33.77 36.93 33.5 36.85 33.14C36.77 32.79 36.82 32.47 36.96 32.44C37.1 32.41 37.28 32.68 37.35 33.04Z" fill="#30325B" fill-opacity="1.000000" fill-rule="evenodd"/>
	<path id="Vector" d="M34.59 35.75C34.41 35.32 34.11 34.94 33.73 34.67C33.47 34.43 33.17 34.23 32.85 34.07C32.69 33.99 32.51 33.95 32.33 33.95C32.15 33.95 31.97 33.99 31.8 34.07C31.67 34.15 31.55 34.26 31.45 34.39C31.36 34.52 31.3 34.67 31.27 34.82C31.21 35.14 31.22 35.47 31.3 35.78C31.47 36.45 31.82 37.07 32.3 37.57C32.79 38.07 33.4 38.43 34.06 38.62L33.94 38.54L34.59 35.75Z" fill="#FFFFFF" fill-opacity="1.000000" fill-rule="nonzero"/>
	<path id="Vector" d="M34.06 38.92C34.04 38.92 34.01 38.92 33.99 38.92C33.27 38.71 32.61 38.31 32.09 37.76C31.57 37.22 31.21 36.55 31.03 35.82C30.93 35.47 30.92 35.09 30.99 34.73C31.03 34.53 31.11 34.34 31.22 34.18C31.34 34.01 31.49 33.87 31.67 33.77C31.87 33.67 32.1 33.62 32.32 33.62C32.55 33.62 32.78 33.67 32.98 33.77C33.33 33.94 33.65 34.17 33.93 34.44C34.35 34.74 34.68 35.15 34.88 35.63C34.89 35.67 34.9 35.71 34.89 35.76C34.89 35.8 34.88 35.84 34.86 35.87C34.84 35.91 34.81 35.94 34.78 35.97C34.75 35.99 34.71 36.01 34.67 36.02C34.63 36.04 34.59 36.04 34.55 36.04C34.51 36.03 34.47 36.02 34.43 36C34.4 35.98 34.36 35.95 34.34 35.92C34.31 35.89 34.29 35.85 34.28 35.81C34.12 35.44 33.85 35.11 33.52 34.87C33.28 34.63 33.01 34.43 32.71 34.27C32.59 34.22 32.45 34.19 32.32 34.19C32.18 34.19 32.05 34.22 31.92 34.27C31.83 34.33 31.74 34.41 31.67 34.51C31.61 34.61 31.56 34.72 31.54 34.83C31.49 35.1 31.5 35.38 31.57 35.65C31.72 36.23 32 36.76 32.4 37.21C32.79 37.66 33.29 38.01 33.85 38.22C33.92 38.21 34 38.23 34.06 38.27L34.18 38.34C34.25 38.38 34.3 38.44 34.32 38.51C34.34 38.57 34.34 38.65 34.3 38.71C34.29 38.77 34.26 38.82 34.21 38.85C34.17 38.89 34.12 38.91 34.06 38.92Z" fill="#30325B" fill-opacity="1.000000" fill-rule="nonzero"/>
	<path id="Vector" d="M41.61 47.27C41.61 47.27 33.21 43.04 30.28 45.87C27.34 48.69 27.47 57.89 27.32 73.29L45.38 72.04C45.38 72.04 45.66 49.51 41.61 47.27Z" fill="#FF5A57" fill-opacity="1.000000" fill-rule="nonzero"/>
	<path id="Vector" d="M48.76 53.26C50 53.32 61.73 54.75 62.96 53.58C64.2 52.41 66.73 50.76 66.89 51.18C67.04 51.61 65.35 53.71 65.35 53.71C65.35 53.71 69.13 52.51 69.7 53.11C70.27 53.71 68.79 56.34 67.9 57.12C67.66 57.34 65.17 57.85 63.71 58.27C57.11 60.17 48.23 60.16 45.72 58.41C42.27 56.01 32.54 51.36 31.97 50.54C31.41 49.72 33.09 44.37 37.25 46.66C37.25 46.64 47.53 53.2 48.76 53.26Z" fill="#FFFFFF" fill-opacity="1.000000" fill-rule="nonzero"/>
	<path id="Vector" d="M53.01 59.99C49.68 59.99 46.85 59.54 45.56 58.63C43.8 57.43 40.4 55.6 37.41 54C33.99 52.2 32.01 51.13 31.73 50.69C31.3 50.09 31.76 48.14 32.84 46.93C33.53 46.17 35.03 45.08 37.39 46.38C41.36 48.91 47.93 52.92 48.78 52.97C49.01 52.97 49.58 53.04 50.38 53.11C53.22 53.39 61.84 54.23 62.75 53.38C63.66 52.52 66.17 50.67 66.88 50.84C66.95 50.85 67.01 50.88 67.06 50.93C67.11 50.97 67.15 51.03 67.17 51.09C67.29 51.41 66.95 52.11 66.16 53.17C67.51 52.79 69.41 52.38 69.91 52.89C69.99 52.98 70.05 53.08 70.09 53.2C70.13 53.31 70.14 53.43 70.12 53.55C70.12 54.64 68.85 56.68 68.12 57.33C67.93 57.5 67.37 57.65 65.79 58.03C65.08 58.21 64.36 58.39 63.78 58.55C60.27 59.51 56.64 59.99 53.01 59.99ZM35.3 46.37C34.91 46.38 34.53 46.46 34.19 46.63C33.84 46.8 33.53 47.04 33.29 47.33C32.24 48.5 32.04 50.1 32.22 50.33C32.46 50.68 35.22 52.13 37.69 53.46C40.69 55.07 44.11 56.89 45.9 58.13C48.14 59.71 56.76 59.93 63.61 57.95C64.21 57.78 64.94 57.6 65.65 57.43C66.35 57.27 67.05 57.07 67.73 56.83C68.43 56.23 69.53 54.33 69.53 53.48C69.54 53.41 69.53 53.33 69.5 53.26C69.24 53.03 67.34 53.36 65.44 53.96C65.38 53.98 65.32 53.98 65.26 53.96C65.2 53.94 65.14 53.9 65.11 53.84C65.07 53.79 65.05 53.73 65.05 53.67C65.05 53.6 65.07 53.54 65.11 53.49C65.64 52.85 66.11 52.16 66.52 51.44C65.3 52.05 64.16 52.83 63.16 53.76C62.18 54.68 56.41 54.26 50.31 53.66C49.53 53.59 48.96 53.53 48.74 53.52C47.47 53.46 38.14 47.53 37.08 46.86C36.54 46.55 35.92 46.38 35.3 46.37Z" fill="#30325B" fill-opacity="1.000000" fill-rule="nonzero"/>
	<path id="Vector" d="M27.32 73.29L18.74 94.42C18.74 94.42 40.75 101.96 50.85 100.22L45.38 72.05L27.32 73.29Z" fill="#30325B" fill-opacity="1.000000" fill-rule="nonzero"/>
	<path id="Vector" d="M47.32 100.77C36.53 100.77 19.45 94.96 18.65 94.69C18.61 94.67 18.57 94.65 18.54 94.63C18.51 94.6 18.49 94.57 18.47 94.53C18.45 94.49 18.44 94.45 18.44 94.41C18.44 94.37 18.45 94.33 18.47 94.29L27.05 73.17C27.07 73.12 27.1 73.08 27.15 73.04C27.19 73.01 27.25 72.99 27.3 72.99L45.36 71.74C45.44 71.73 45.51 71.76 45.56 71.8C45.62 71.84 45.66 71.91 45.68 71.98L51.14 100.15C51.15 100.23 51.14 100.31 51.09 100.38C51.05 100.44 50.98 100.49 50.9 100.5C49.71 100.69 48.52 100.78 47.32 100.77ZM19.15 94.23C21.79 95.1 41.11 101.37 50.5 99.96L45.14 72.38L27.54 73.58L19.15 94.23Z" fill="#30325B" fill-opacity="1.000000" fill-rule="nonzero"/>
	<path id="Vector" d="M35.26 118.33C35.26 118.33 33.67 122.57 34.26 122.87C34.86 123.18 46.37 125.73 46.62 124.34C46.87 122.95 40.94 119.33 40.94 119.33L35.26 118.33Z" fill="#30325B" fill-opacity="1.000000" fill-rule="nonzero"/>
	<path id="Vector" d="M45.14 125.05C41.77 125.05 34.54 123.34 34.14 123.14C33.93 123.03 33.31 122.72 34.99 118.23C35.02 118.16 35.07 118.11 35.13 118.07C35.19 118.04 35.26 118.03 35.33 118.04L41.01 119.04C41.04 119.05 41.08 119.06 41.11 119.08C42.54 119.95 47.2 122.91 46.93 124.39C46.91 124.49 46.86 124.59 46.8 124.67C46.73 124.75 46.65 124.81 46.55 124.85C46.1 125.01 45.62 125.08 45.14 125.05ZM34.45 122.6C36.41 123.13 38.4 123.56 40.41 123.88C45.84 124.82 46.33 124.27 46.35 124.24C46.47 123.53 43.6 121.28 40.84 119.6L35.45 118.65C34.86 120.34 34.33 122.22 34.45 122.6Z" fill="#30325B" fill-opacity="1.000000" fill-rule="nonzero"/>
	<path id="Vector" d="M136.78 98.1C136.93 98.53 138.36 100.96 138.06 101.42C137.77 101.89 133.14 104.84 134.51 105.27C135.87 105.71 143.71 104.67 143.71 104.67L138.96 92.21L136.78 98.1Z" fill="#30325B" fill-opacity="1.000000" fill-rule="nonzero"/>
	<path id="Vector" d="M135.74 105.67C135.29 105.69 134.85 105.66 134.42 105.56C134.3 105.53 134.2 105.48 134.12 105.39C134.04 105.31 133.99 105.21 133.97 105.09C133.85 104.46 134.79 103.62 136.79 102.1C137.15 101.84 137.49 101.57 137.81 101.27C137.88 100.98 137.13 99.5 136.85 98.94C136.66 98.56 136.54 98.34 136.5 98.2C136.48 98.14 136.48 98.07 136.5 98L138.68 92.11C138.71 92.05 138.74 92 138.79 91.97C138.84 91.93 138.9 91.91 138.97 91.91C139.03 91.91 139.09 91.93 139.14 91.97C139.19 92 139.22 92.05 139.24 92.11L143.99 104.55C144.01 104.59 144.02 104.63 144.02 104.68C144.02 104.73 144.01 104.77 143.99 104.81C143.97 104.85 143.94 104.88 143.9 104.91C143.86 104.93 143.82 104.95 143.77 104.96C143.1 105.03 138.27 105.67 135.74 105.67ZM134.54 104.97L134.58 104.97C135.59 105.3 140.88 104.7 143.28 104.37L138.96 93.06L137.09 98.09C137.15 98.22 137.26 98.44 137.37 98.69C138.21 100.34 138.57 101.2 138.3 101.61C137.96 101.98 137.57 102.31 137.14 102.59C136.45 103.11 134.59 104.53 134.55 104.97L134.54 104.97Z" fill="#30325B" fill-opacity="1.000000" fill-rule="nonzero"/>
	<path id="Vector" d="M114.67 95.69C114.67 95.69 117.38 103.52 116.93 103.71C116.47 103.89 104.94 106.54 105.46 105.84C105.98 105.14 111.32 102.34 111.38 102.66C111.44 102.98 110.66 98.86 110.66 98.86L114.67 95.69Z" fill="#30325B" fill-opacity="1.000000" fill-rule="nonzero"/>
	<path id="Vector" d="M105.81 106.21C105.5 106.21 105.29 106.17 105.21 106.09C105.17 106.03 105.14 105.95 105.14 105.88C105.14 105.8 105.17 105.72 105.21 105.66C105.59 105.14 109.66 102.8 111.03 102.4C110.96 102.07 110.87 101.58 110.72 100.83L110.36 98.91C110.35 98.86 110.36 98.8 110.37 98.75C110.39 98.7 110.43 98.66 110.47 98.63L114.47 95.46C114.51 95.43 114.56 95.41 114.6 95.4C114.65 95.39 114.7 95.39 114.74 95.41C114.79 95.42 114.83 95.44 114.87 95.48C114.9 95.51 114.93 95.55 114.94 95.6C117.75 103.69 117.34 103.87 117.03 103.99C116.95 104.01 108.23 106.21 105.81 106.21ZM111.24 102.95C109.47 103.69 107.77 104.59 106.16 105.64C108.31 105.42 115.51 103.8 116.68 103.47C116.64 102.72 115.61 99.35 114.52 96.19L110.99 98.98C111.12 99.69 111.62 102.3 111.68 102.58C111.69 102.66 111.67 102.74 111.63 102.81C111.58 102.87 111.51 102.92 111.44 102.94C111.39 102.99 111.3 103 111.24 102.95ZM111.12 102.73L111.09 102.73C111.1 102.76 111.11 102.79 111.13 102.81C111.14 102.84 111.16 102.86 111.19 102.88C111.16 102.83 111.14 102.78 111.12 102.73Z" fill="#30325B" fill-opacity="1.000000" fill-rule="nonzero"/>
	<path id="Vector" d="M110.35 49.57C110.35 49.57 102.31 66.19 102.21 71.45C102.11 76.72 108.99 98.86 108.99 98.86L116 97.7C116 97.7 110.78 75.57 111.57 73.25C112.36 70.94 118.39 56.06 118.39 56.06C118.39 56.06 120.79 68.82 122.45 73.52C124.12 78.22 134.8 98.38 134.8 98.38L142.14 96.97C142.14 96.97 132.42 74.42 132.06 70.53C131.7 66.64 129.78 45.84 129.78 45.84L110.35 49.57Z" fill="#30325B" fill-opacity="1.000000" fill-rule="nonzero"/>
	<path id="Vector" d="M108.99 99.16C108.93 99.16 108.86 99.14 108.81 99.1C108.76 99.06 108.72 99.01 108.7 98.95C108.42 98.04 101.8 76.7 101.91 71.45C102.01 66.19 109.75 50.12 110.08 49.44C110.1 49.4 110.13 49.36 110.16 49.33C110.2 49.3 110.25 49.28 110.29 49.28L129.72 45.54C129.76 45.53 129.8 45.53 129.84 45.54C129.88 45.55 129.92 45.57 129.96 45.6C130.02 45.65 130.07 45.72 130.08 45.81C130.08 45.81 131.99 66.6 132.35 70.5C132.7 74.3 142.32 96.62 142.41 96.84C142.43 96.89 142.44 96.93 142.44 96.98C142.44 97.02 142.43 97.07 142.41 97.11C142.39 97.15 142.36 97.18 142.32 97.21C142.29 97.23 142.25 97.25 142.2 97.26L134.86 98.67C134.8 98.69 134.73 98.68 134.67 98.65C134.62 98.62 134.57 98.57 134.54 98.52C134.11 97.7 123.86 78.29 122.18 73.62C120.77 69.73 118.89 60.23 118.29 57.12C116.96 60.43 112.53 71.41 111.86 73.35C111.26 75.18 114.86 91.49 116.3 97.62C116.31 97.66 116.32 97.7 116.31 97.75C116.3 97.79 116.29 97.82 116.26 97.86C116.24 97.89 116.21 97.92 116.18 97.95C116.14 97.97 116.1 97.98 116.06 97.99L109.05 99.15L108.99 99.16ZM110.55 49.83C109.79 51.43 102.6 66.57 102.51 71.46C102.41 76.35 108.44 96.07 109.19 98.52L115.64 97.45C114.85 94.08 110.51 75.4 111.29 73.16C112.06 70.91 117.88 56.56 118.11 55.95C118.13 55.89 118.17 55.84 118.23 55.81C118.28 55.77 118.35 55.76 118.41 55.77C118.48 55.77 118.54 55.8 118.59 55.84C118.63 55.89 118.67 55.94 118.68 56.01C118.68 56.13 121.07 68.8 122.73 73.42C124.31 77.8 133.85 95.95 134.96 98.04L141.71 96.74C140.45 93.79 132.09 74.23 131.75 70.55C131.41 66.88 129.75 48.86 129.51 46.2L110.55 49.83Z" fill="#30325B" fill-opacity="1.000000" fill-rule="nonzero"/>
	<path id="Vector" d="M109.42 21.52L100.05 26.4L101.82 36L110.62 33.88L109.42 21.52Z" fill="#FF5A57" fill-opacity="1.000000" fill-rule="nonzero"/>
	<path id="Vector" d="M109.42 21.52C109.97 20.76 121.52 18.11 125 21C128.48 23.9 130.83 44.38 131.37 50.67L108.64 52.32C108.64 52.32 106.34 25.72 109.42 21.52Z" fill="#FF5A57" fill-opacity="1.000000" fill-rule="nonzero"/>
	<path id="Vector" d="M108.49 50.39C108.41 50.39 108.34 50.36 108.29 50.31C108.23 50.25 108.2 50.18 108.19 50.11C108.13 49.35 106.76 31.57 107.77 27.18C107.79 27.1 107.83 27.03 107.9 26.99C107.97 26.95 108.05 26.94 108.13 26.95C108.17 26.96 108.2 26.98 108.23 27C108.27 27.02 108.29 27.05 108.32 27.09C108.34 27.12 108.35 27.16 108.36 27.2C108.36 27.24 108.36 27.28 108.35 27.31C107.37 31.61 108.78 49.88 108.79 50.06C108.79 50.1 108.79 50.14 108.77 50.18C108.76 50.22 108.74 50.25 108.72 50.28C108.69 50.31 108.66 50.34 108.62 50.35C108.59 50.37 108.55 50.38 108.51 50.39L108.49 50.39Z" fill="#30325B" fill-opacity="1.000000" fill-rule="nonzero"/>
	<path id="Vector" d="M116.05 17.15C117.31 16.89 118.49 16.29 119.44 15.41C119.88 15.03 120.2 14.52 120.34 13.95C120.4 13.67 120.37 13.37 120.25 13.11C120.13 12.84 119.93 12.63 119.67 12.48C119.95 12.33 120.19 12.11 120.36 11.84C120.53 11.57 120.64 11.27 120.67 10.95C120.73 10.31 120.62 9.67 120.34 9.09C120.21 8.7 119.98 8.35 119.67 8.07C119.36 7.79 118.99 7.6 118.58 7.51C118.93 6.91 119.29 6.17 119.04 5.51C118.9 5.19 118.68 4.9 118.4 4.68C117.88 4.21 117.33 3.79 116.73 3.42C116.41 3.23 116 3.04 115.69 3.25C115.56 2.59 115.24 1.98 114.78 1.48C114.32 0.99 113.73 0.64 113.08 0.47C112.43 0.28 111.75 0.31 111.12 0.56C110.53 0.93 109.96 1.35 109.44 1.82C108.9 1.64 108.33 1.59 107.77 1.67C107.21 1.74 106.67 1.95 106.2 2.28C105.88 2.57 105.63 2.95 105.5 3.37C105.37 3.79 105.35 4.24 105.44 4.67C104.73 5.02 104.1 5.51 103.6 6.12C103.34 6.42 103.16 6.78 103.06 7.16C102.96 7.55 102.95 7.95 103.03 8.34C103.12 8.72 103.34 9.07 103.65 9.32C103.95 9.57 104.33 9.71 104.73 9.72C104.39 10.03 104.17 10.46 104.12 10.92C104.07 11.38 104.19 11.84 104.45 12.22C104.74 12.58 105.12 12.85 105.56 12.99C106 13.14 106.47 13.14 106.92 13.02C107.04 12.97 107.17 12.95 107.29 12.97C107.45 13.02 107.58 13.12 107.68 13.24C108.07 13.58 108.57 13.51 108.98 13.74C109.55 14.13 110.08 14.56 110.57 15.04C111.08 15.45 111.61 15.83 112.17 16.18C112.74 16.64 113.37 17.04 114.03 17.38C114.62 17.61 115 17.38 115.6 17.23L116.05 17.15Z" fill="#FFFFFF" fill-opacity="1.000000" fill-rule="nonzero"/>
	<path id="Vector" d="M114.51 17.8C114.3 17.8 114.1 17.76 113.91 17.69C113.43 17.48 112.98 17.2 112.59 16.86C112.39 16.71 112.19 16.56 111.99 16.43C111.42 16.07 110.88 15.68 110.36 15.27C110.2 15.13 110.02 14.98 109.85 14.82C109.54 14.52 109.19 14.24 108.82 14.01C108.67 13.93 108.51 13.88 108.34 13.85C108.02 13.8 107.72 13.67 107.47 13.47L107.39 13.39C107.34 13.34 107.28 13.29 107.22 13.26C107.15 13.26 107.09 13.27 107.02 13.29C106.52 13.45 105.97 13.44 105.47 13.28C104.96 13.12 104.52 12.81 104.2 12.39C103.95 12.03 103.81 11.61 103.8 11.17C103.79 10.74 103.9 10.31 104.13 9.94C103.79 9.82 103.48 9.62 103.24 9.35C102.99 9.08 102.82 8.76 102.73 8.41C102.64 7.98 102.64 7.53 102.75 7.1C102.85 6.67 103.05 6.28 103.33 5.93C103.81 5.34 104.42 4.85 105.12 4.51C105.05 4.06 105.1 3.59 105.26 3.16C105.41 2.73 105.68 2.34 106.02 2.03C106.5 1.68 107.05 1.45 107.63 1.34C108.21 1.24 108.81 1.27 109.38 1.43C109.89 0.99 110.44 0.59 111.02 0.23C111.71 -0.04 112.46 -0.08 113.17 0.13C113.82 0.3 114.41 0.64 114.9 1.11C115.38 1.58 115.73 2.16 115.92 2.81C116.27 2.81 116.62 2.91 116.9 3.12C117.51 3.49 118.08 3.92 118.61 4.41C118.93 4.66 119.18 4.98 119.34 5.35C119.42 5.67 119.44 6.01 119.39 6.33C119.34 6.66 119.22 6.97 119.04 7.25C119.4 7.41 119.73 7.64 120 7.93C120.27 8.21 120.48 8.55 120.61 8.92C120.91 9.55 121.04 10.25 120.97 10.94C120.9 11.52 120.63 12.05 120.19 12.44C120.38 12.64 120.52 12.89 120.59 13.15C120.67 13.41 120.68 13.69 120.63 13.96C120.48 14.59 120.14 15.16 119.65 15.58C118.65 16.48 117.44 17.11 116.12 17.38L115.66 17.48C115.52 17.48 115.39 17.56 115.27 17.59C115.03 17.7 114.77 17.77 114.51 17.8ZM107.19 12.66L107.34 12.66C107.51 12.7 107.67 12.8 107.79 12.94L107.86 13C108.03 13.13 108.24 13.22 108.46 13.25C108.68 13.29 108.89 13.36 109.09 13.47C109.51 13.72 109.89 14.02 110.24 14.36C110.4 14.51 110.56 14.65 110.72 14.79C111.24 15.19 111.77 15.56 112.32 15.9C112.53 16.05 112.74 16.2 112.95 16.36C113.3 16.66 113.7 16.91 114.12 17.1C114.44 17.21 114.79 17.2 115.1 17.06C115.23 17.02 115.37 16.97 115.52 16.94L115.97 16.84C117.19 16.58 118.31 16.01 119.23 15.17C119.63 14.83 119.91 14.38 120.04 13.88C120.09 13.66 120.07 13.43 119.98 13.23C119.9 13.02 119.74 12.85 119.55 12.74C119.5 12.71 119.46 12.68 119.43 12.63C119.39 12.58 119.38 12.53 119.37 12.47C119.37 12.42 119.39 12.36 119.42 12.31C119.45 12.26 119.49 12.22 119.54 12.2C119.77 12.06 119.97 11.87 120.12 11.64C120.26 11.41 120.35 11.15 120.38 10.88C120.43 10.3 120.32 9.72 120.07 9.19C119.89 8.79 119.4 7.86 118.56 7.77C118.51 7.77 118.47 7.75 118.42 7.72C118.38 7.7 118.35 7.66 118.33 7.61C118.31 7.57 118.29 7.52 118.29 7.47C118.29 7.42 118.31 7.37 118.33 7.33C118.65 6.77 118.97 6.13 118.77 5.58C118.64 5.3 118.45 5.06 118.21 4.87C117.71 4.42 117.16 4.02 116.59 3.67C116.35 3.53 116.04 3.38 115.86 3.49C115.82 3.52 115.77 3.53 115.72 3.53C115.67 3.53 115.62 3.52 115.58 3.49C115.53 3.48 115.49 3.45 115.46 3.41C115.43 3.37 115.41 3.32 115.4 3.27C115.28 2.67 114.99 2.11 114.57 1.66C114.14 1.21 113.6 0.89 113.01 0.73C112.43 0.56 111.81 0.59 111.24 0.82C110.71 1.16 110.2 1.54 109.72 1.94C109.68 2.01 109.62 2.06 109.56 2.08C109.49 2.11 109.41 2.11 109.34 2.08C108.86 1.92 108.34 1.87 107.83 1.94C107.32 2.01 106.84 2.19 106.41 2.48C106.12 2.74 105.91 3.08 105.79 3.45C105.67 3.82 105.66 4.22 105.75 4.6C105.76 4.67 105.76 4.74 105.73 4.8C105.7 4.86 105.65 4.91 105.59 4.94C104.9 5.25 104.28 5.71 103.79 6.29C103.57 6.56 103.4 6.87 103.32 7.21C103.23 7.55 103.21 7.9 103.28 8.25C103.35 8.57 103.53 8.85 103.78 9.06C104.03 9.27 104.34 9.39 104.67 9.4C104.73 9.4 104.8 9.41 104.85 9.45C104.9 9.48 104.94 9.53 104.96 9.6C104.99 9.65 104.99 9.72 104.97 9.78C104.96 9.84 104.92 9.89 104.87 9.93C104.59 10.2 104.41 10.55 104.37 10.94C104.33 11.32 104.43 11.71 104.66 12.02C104.91 12.34 105.24 12.57 105.62 12.69C106 12.81 106.41 12.82 106.8 12.71C106.93 12.68 107.06 12.66 107.19 12.66Z" fill="#30325B" fill-opacity="1.000000" fill-rule="nonzero"/>
	<path id="Vector" d="M107.29 13.46C107.29 13.46 106.16 16.51 106.65 16.97C107.13 17.44 108.25 16.79 108.25 16.79L107.29 13.46Z" fill="#FFFFFF" fill-opacity="1.000000" fill-rule="nonzero"/>
	<path id="Vector" d="M107.14 17.44C106.88 17.45 106.63 17.36 106.44 17.19C105.89 16.67 106.56 14.56 107.01 13.36C107.03 13.29 107.09 13.22 107.16 13.19C107.23 13.16 107.32 13.15 107.39 13.18C107.46 13.21 107.52 13.27 107.56 13.34C107.59 13.41 107.6 13.49 107.57 13.57C107.03 15.03 106.7 16.52 106.86 16.76C107.02 17.01 107.82 16.7 108.1 16.53C108.17 16.49 108.25 16.48 108.33 16.51C108.41 16.53 108.47 16.58 108.51 16.64C108.53 16.68 108.54 16.72 108.55 16.75C108.56 16.79 108.55 16.83 108.54 16.87C108.53 16.91 108.52 16.94 108.49 16.98C108.47 17.01 108.44 17.03 108.4 17.05C108.02 17.28 107.58 17.41 107.14 17.44Z" fill="#30325B" fill-opacity="1.000000" fill-rule="nonzero"/>
	<path id="Vector" d="M106.5 7.57C106.35 7.7 106.26 7.88 106.23 8.07C106.1 8.76 106.1 9.45 106.23 10.14C106.41 11.49 106.68 12.82 107.04 14.14C107.46 15.89 107.93 17.63 108.43 19.35C108.75 20.45 111.63 19.8 112.07 19.35L112.66 23.84C112.66 23.84 114.13 23.9 116.2 22.29C118.27 20.67 118.12 20.1 118.12 20.1L116.74 15.08C116.74 15.08 114.84 15.54 113.19 13.54C112.92 13.22 112.72 12.67 112.41 12.42C112.09 12.17 111.54 12.14 111.21 11.69C111.06 11.49 110.95 11.25 110.91 11C110.86 10.74 110.88 10.48 110.95 10.24C110.98 10.13 111.02 10 110.95 9.91C110.9 9.88 110.83 9.85 110.77 9.84C110.59 9.8 110.42 9.72 110.27 9.61C110.11 9.49 109.99 9.35 109.89 9.19C109.8 9.03 109.74 8.85 109.71 8.67C109.69 8.48 109.7 8.29 109.75 8.11C109.03 8.28 108.37 7.67 107.88 7.1C108.03 7.28 106.75 7.42 106.74 7.43C106.65 7.46 106.57 7.51 106.5 7.57Z" fill="#FFFFFF" fill-opacity="1.000000" fill-rule="nonzero"/>
	<path id="Vector" d="M112.63 24.14L112.59 24.14C112.52 24.14 112.45 24.11 112.4 24.07C112.35 24.02 112.31 23.95 112.31 23.89L111.78 19.84C110.91 20.21 109.94 20.33 109 20.18C108.8 20.15 108.6 20.07 108.45 19.94C108.29 19.81 108.17 19.63 108.1 19.44C107.6 17.72 107.13 15.96 106.71 14.21L106.62 13.83C106.29 12.63 106.05 11.41 105.89 10.17C105.76 9.45 105.78 8.71 105.92 8C105.96 7.74 106.1 7.5 106.3 7.33C106.4 7.26 106.51 7.2 106.62 7.17L106.73 7.17C107.02 7.14 107.31 7.08 107.59 7.01C107.61 6.97 107.63 6.95 107.66 6.92C107.69 6.89 107.72 6.87 107.76 6.86C107.79 6.84 107.83 6.83 107.87 6.83C107.91 6.83 107.95 6.84 107.99 6.86C108.02 6.87 108.06 6.89 108.09 6.92C108.52 7.42 109.1 7.97 109.67 7.83C109.72 7.82 109.77 7.82 109.82 7.84C109.87 7.86 109.92 7.88 109.96 7.92C109.99 7.96 110.02 8.01 110.03 8.06C110.04 8.11 110.04 8.17 110.02 8.22C109.98 8.36 109.97 8.5 109.99 8.65C110.01 8.79 110.06 8.93 110.14 9.05C110.21 9.18 110.3 9.28 110.42 9.37C110.53 9.46 110.66 9.52 110.8 9.56C110.93 9.57 111.04 9.63 111.14 9.72C111.2 9.8 111.24 9.9 111.26 10C111.27 10.11 111.26 10.22 111.21 10.31C111.15 10.52 111.14 10.73 111.17 10.94C111.21 11.15 111.3 11.34 111.42 11.51C111.57 11.69 111.77 11.81 111.99 11.87C112.2 11.95 112.4 12.05 112.59 12.18C112.81 12.39 113 12.64 113.14 12.92C113.22 13.07 113.31 13.21 113.41 13.35C114.92 15.15 116.59 14.8 116.66 14.79C116.74 14.77 116.82 14.78 116.88 14.82C116.95 14.86 117 14.92 117.02 15L118.4 20.02C118.45 20.26 118.33 20.94 116.33 22.51C114.34 24.07 112.87 24.14 112.63 24.14ZM112.04 19.05C112.07 19.05 112.1 19.05 112.13 19.05C112.18 19.07 112.23 19.1 112.26 19.15C112.3 19.19 112.32 19.24 112.33 19.3L112.87 23.5C114.02 23.28 115.08 22.77 115.97 22.02C117.54 20.78 117.77 20.22 117.81 20.11L116.51 15.39C115.83 15.43 115.14 15.3 114.52 15.01C113.9 14.71 113.36 14.27 112.95 13.71C112.83 13.55 112.72 13.38 112.62 13.2C112.52 12.99 112.38 12.8 112.21 12.63C112.08 12.54 111.93 12.46 111.78 12.41C111.46 12.31 111.17 12.12 110.96 11.86C110.77 11.62 110.65 11.33 110.6 11.03C110.55 10.73 110.56 10.42 110.65 10.13L110.65 10.09C110.43 10.05 110.23 9.95 110.05 9.82C109.87 9.69 109.73 9.52 109.62 9.33C109.46 9.05 109.37 8.74 109.38 8.43C108.77 8.32 108.22 7.99 107.83 7.51C107.5 7.61 107.16 7.68 106.81 7.71C106.75 7.72 106.7 7.75 106.66 7.78C106.6 7.83 106.56 7.91 106.5 8.12C106.38 8.76 106.38 9.43 106.5 10.07C106.66 11.28 106.9 12.48 107.22 13.67L107.31 14.04C107.73 15.78 108.19 17.53 108.7 19.25C108.74 19.4 108.89 19.51 109.16 19.58C110.07 19.72 111.01 19.56 111.82 19.12C111.88 19.07 111.96 19.05 112.04 19.05L112.04 19.05Z" fill="#30325B" fill-opacity="1.000000" fill-rule="nonzero"/>
	<path id="Vector" d="M111.81 12.91C111.76 12.45 111.83 12 112.02 11.59C112.12 11.25 112.27 10.93 112.47 10.65C112.57 10.5 112.7 10.38 112.85 10.29C113 10.2 113.17 10.15 113.35 10.14C113.5 10.14 113.66 10.17 113.8 10.24C113.94 10.31 114.06 10.4 114.16 10.52C114.36 10.76 114.51 11.04 114.58 11.33C114.77 11.99 114.78 12.68 114.61 13.33C114.44 13.99 114.1 14.59 113.63 15.07L113.7 14.95L111.81 12.91Z" fill="#FFFFFF" fill-opacity="1.000000" fill-rule="nonzero"/>
	<path id="Vector" d="M113.63 15.36C113.57 15.36 113.5 15.34 113.45 15.3C113.39 15.26 113.35 15.19 113.34 15.12C113.32 15.05 113.34 14.98 113.37 14.91L113.43 14.82C113.85 14.37 114.15 13.82 114.3 13.22C114.45 12.62 114.44 11.99 114.28 11.4C114.21 11.14 114.09 10.9 113.92 10.7C113.85 10.61 113.76 10.54 113.65 10.49C113.55 10.45 113.44 10.42 113.32 10.42C113.2 10.43 113.07 10.47 112.96 10.54C112.85 10.61 112.75 10.7 112.68 10.81C112.5 11.07 112.37 11.36 112.28 11.67C112.1 12.03 112.03 12.43 112.08 12.82C112.09 12.9 112.08 12.98 112.03 13.05C111.99 13.11 111.92 13.16 111.84 13.18C111.81 13.19 111.77 13.19 111.73 13.18C111.69 13.18 111.65 13.16 111.62 13.14C111.59 13.12 111.56 13.09 111.54 13.06C111.51 13.03 111.5 12.99 111.49 12.95C111.42 12.45 111.5 11.93 111.71 11.47C111.82 11.11 111.98 10.76 112.2 10.45C112.33 10.27 112.5 10.13 112.69 10.02C112.88 9.92 113.09 9.86 113.31 9.85C113.51 9.85 113.71 9.89 113.89 9.97C114.07 10.06 114.23 10.18 114.36 10.33C114.59 10.6 114.75 10.92 114.84 11.26C115.04 11.96 115.05 12.71 114.88 13.42C114.7 14.12 114.34 14.77 113.84 15.3C113.78 15.35 113.71 15.37 113.63 15.36Z" fill="#30325B" fill-opacity="1.000000" fill-rule="nonzero"/>
	<path id="Vector" d="M112.04 19.35C112.83 18.88 113.47 18.18 113.88 17.35C113.88 17.35 114.4 20.04 112.3 21.36L112.04 19.35Z" fill="#30325B" fill-opacity="1.000000" fill-rule="nonzero"/>
	<path id="Vector" d="M112.3 21.66C112.26 21.66 112.21 21.66 112.17 21.66C112.12 21.63 112.08 21.6 112.06 21.56C112.03 21.52 112.01 21.47 112 21.42L111.74 19.42C111.73 19.36 111.74 19.3 111.77 19.25C111.8 19.2 111.84 19.16 111.89 19.13C112.62 18.68 113.21 18.04 113.6 17.28C113.62 17.22 113.66 17.16 113.72 17.13C113.77 17.09 113.84 17.08 113.91 17.09C113.97 17.09 114.03 17.12 114.08 17.16C114.13 17.21 114.16 17.27 114.17 17.33C114.17 17.45 114.71 20.24 112.46 21.64C112.41 21.66 112.35 21.66 112.3 21.66ZM112.36 19.5L112.53 20.81C112.87 20.5 113.14 20.12 113.33 19.7C113.52 19.28 113.62 18.82 113.63 18.36C113.26 18.8 112.84 19.18 112.36 19.5L112.36 19.5Z" fill="#30325B" fill-opacity="1.000000" fill-rule="nonzero"/>
	<path id="Vector" d="M107.65 12.16C107.74 12.5 107.71 12.8 107.58 12.84C107.44 12.88 107.26 12.63 107.17 12.29C107.08 11.95 107.11 11.64 107.24 11.61C107.38 11.57 107.56 11.82 107.65 12.16Z" fill="#30325B" fill-opacity="1.000000" fill-rule="evenodd"/>
	<path id="Vector" d="M108.73 18.13C108.59 18.13 108.45 18.11 108.32 18.07C108.24 18.05 108.17 17.99 108.13 17.92C108.09 17.85 108.08 17.76 108.11 17.68C108.13 17.61 108.18 17.54 108.26 17.5C108.33 17.46 108.41 17.45 108.49 17.47C108.54 17.47 109.5 17.75 110.2 16.35C110.23 16.28 110.29 16.22 110.37 16.2C110.44 16.17 110.53 16.18 110.6 16.21C110.63 16.23 110.66 16.25 110.69 16.28C110.72 16.31 110.74 16.35 110.75 16.39C110.76 16.42 110.77 16.46 110.76 16.5C110.76 16.54 110.75 16.58 110.73 16.61C110.58 17.03 110.31 17.4 109.96 17.67C109.6 17.94 109.17 18.1 108.73 18.13Z" fill="#30325B" fill-opacity="1.000000" fill-rule="nonzero"/>
	<path id="Vector" d="M110.39 32.21C110.39 32.21 94.72 42.79 92.5 42.67C90.28 42.55 87.04 40.91 86.96 42.07C86.87 43.22 90.17 44.22 90.17 44.22C90.17 44.22 85.58 44.78 85.73 46.12C85.87 47.46 87.5 49.01 89.42 48.79C91.34 48.56 92.7 47.59 94.41 47.28C96.13 46.97 114.05 38.21 114.05 38.21L110.39 32.21Z" fill="#FFFFFF" fill-opacity="1.000000" fill-rule="nonzero"/>
	<path id="Vector" d="M89.05 49.12C88.19 49.11 87.36 48.81 86.7 48.27C86.02 47.76 85.57 47.01 85.43 46.17C85.31 45.01 87.48 44.4 88.95 44.12C87.91 43.69 86.59 42.96 86.66 42.05C86.66 41.95 86.69 41.85 86.74 41.76C86.79 41.67 86.86 41.59 86.94 41.53C87.45 41.17 88.47 41.45 89.78 41.8C90.67 42.08 91.59 42.26 92.52 42.37C94.18 42.37 103.97 36.16 110.2 31.96C110.23 31.94 110.27 31.92 110.31 31.91C110.35 31.9 110.39 31.9 110.43 31.91C110.47 31.92 110.51 31.94 110.54 31.96C110.57 31.98 110.6 32.01 110.62 32.05L114.27 38.04C114.29 38.08 114.31 38.12 114.32 38.16C114.32 38.2 114.32 38.24 114.31 38.28C114.29 38.32 114.27 38.36 114.25 38.39C114.22 38.42 114.19 38.44 114.15 38.46C113.41 38.82 96.17 47.27 94.43 47.56C93.69 47.71 92.96 47.94 92.27 48.25C91.36 48.65 90.41 48.93 89.43 49.07C89.32 49.11 89.21 49.12 89.05 49.12ZM87.58 41.93C87.48 41.92 87.38 41.94 87.29 41.99C87.29 41.99 87.26 41.99 87.26 42.08C87.21 42.71 89.02 43.55 90.25 43.92C90.33 43.93 90.41 43.97 90.46 44.03C90.51 44.09 90.53 44.17 90.53 44.25C90.52 44.33 90.48 44.4 90.42 44.45C90.36 44.5 90.28 44.53 90.2 44.52C88.41 44.74 85.95 45.4 86.01 46.09C86.13 46.77 86.5 47.38 87.06 47.79C87.38 48.05 87.75 48.25 88.14 48.37C88.54 48.49 88.96 48.53 89.37 48.48C90.3 48.35 91.2 48.08 92.06 47.7C92.79 47.38 93.56 47.14 94.34 46.99C95.64 46.77 107.34 41.15 113.6 38.09L110.28 32.62C107.79 34.3 94.61 43.08 92.46 42.95C91.49 42.85 90.53 42.64 89.6 42.35C88.94 42.15 88.26 42.02 87.58 41.95L87.58 41.93Z" fill="#30325B" fill-opacity="1.000000" fill-rule="nonzero"/>
	<path id="Vector" d="M116.48 26.27L109.92 31.04L114.77 39.24L120.19 35.8L116.48 26.27Z" fill="#FF5A57" fill-opacity="1.000000" fill-rule="nonzero"/>
	<path id="Vector" d="M114.78 39.54L114.7 39.54C114.63 39.51 114.56 39.46 114.52 39.39L109.66 31.2C109.63 31.14 109.61 31.06 109.63 30.99C109.64 30.92 109.68 30.85 109.74 30.81L116.33 26.01C116.4 25.97 116.48 25.95 116.55 25.96C116.63 25.97 116.7 26.02 116.75 26.08C116.77 26.11 116.79 26.15 116.8 26.19C116.81 26.22 116.81 26.26 116.8 26.3C116.8 26.34 116.78 26.38 116.76 26.41C116.74 26.45 116.71 26.48 116.68 26.5L110.34 31.11L114.9 38.81L120.06 35.54C120.09 35.51 120.13 35.49 120.17 35.48C120.21 35.47 120.25 35.47 120.29 35.48C120.34 35.48 120.37 35.5 120.41 35.52C120.45 35.55 120.48 35.58 120.5 35.61C120.52 35.65 120.54 35.69 120.54 35.73C120.55 35.77 120.54 35.81 120.53 35.85C120.52 35.9 120.5 35.93 120.47 35.97C120.45 36 120.41 36.02 120.37 36.04L114.98 39.48C114.92 39.52 114.85 39.54 114.78 39.54Z" fill="#30325B" fill-opacity="1.000000" fill-rule="nonzero"/>
	<path id="Vector" d="M62.51 37.43C62.22 37.59 61.98 37.81 61.8 38.08C61.62 38.35 61.51 38.66 61.47 38.98C61.43 39.19 61.48 39.41 61.6 39.58C61.63 39.63 61.66 39.66 61.71 39.69C61.75 39.72 61.8 39.74 61.85 39.75C61.9 39.75 61.95 39.75 62 39.74C62.05 39.73 62.1 39.71 62.14 39.68C62.02 39.78 61.92 39.9 61.85 40.04C61.78 40.18 61.73 40.33 61.72 40.49C61.71 40.64 61.73 40.8 61.78 40.95C61.83 41.09 61.91 41.23 62.02 41.35C62.24 41.57 62.52 41.72 62.83 41.79C63.14 41.85 63.46 41.83 63.76 41.72C64.35 41.48 64.84 41.06 65.17 40.52C66 39.27 66.64 36.41 64.88 35.63C64.5 35.5 64.09 35.47 63.69 35.54C63.29 35.6 62.92 35.76 62.59 35.99C62.27 36.2 61.7 36.49 61.73 36.96C61.75 37.3 62.15 37.82 62.51 37.43Z" fill="#FFFFFF" fill-opacity="1.000000" fill-rule="nonzero"/>
	<path id="Vector" d="M63.15 42.11C62.9 42.12 62.64 42.06 62.41 41.96C62.17 41.86 61.96 41.71 61.79 41.51C61.65 41.35 61.55 41.16 61.49 40.95C61.42 40.75 61.41 40.53 61.43 40.32C61.45 40.17 61.49 40.03 61.55 39.9C61.48 39.85 61.41 39.79 61.36 39.73C61.19 39.49 61.13 39.21 61.18 38.92C61.23 38.44 61.44 37.98 61.78 37.62C61.59 37.44 61.48 37.2 61.46 36.94C61.42 36.34 61.97 36 62.34 35.74L62.45 35.67C62.82 35.41 63.25 35.24 63.69 35.17C64.14 35.1 64.6 35.14 65.02 35.28C65.32 35.41 65.58 35.6 65.78 35.84C65.99 36.08 66.14 36.37 66.22 36.68C66.49 38.04 66.23 39.45 65.47 40.61C65.11 41.21 64.56 41.67 63.9 41.93C63.67 42.03 63.41 42.1 63.15 42.11ZM62.27 39.95C62.14 40.07 62.05 40.24 62.03 40.42C62.02 40.55 62.03 40.68 62.06 40.8C62.1 40.92 62.16 41.04 62.24 41.14C62.42 41.32 62.65 41.44 62.91 41.49C63.16 41.54 63.42 41.52 63.66 41.42C64.19 41.21 64.63 40.83 64.92 40.35C65.57 39.33 65.81 38.1 65.6 36.91C65.54 36.69 65.44 36.48 65.29 36.3C65.15 36.13 64.96 35.99 64.75 35.89C64.42 35.79 64.06 35.77 63.71 35.83C63.36 35.89 63.04 36.03 62.75 36.24L62.63 36.32C62.37 36.48 62.03 36.7 62.03 36.92C62.05 37.04 62.11 37.15 62.21 37.23L62.36 37.14C62.43 37.1 62.5 37.09 62.57 37.11C62.64 37.12 62.7 37.16 62.75 37.22C62.79 37.27 62.82 37.34 62.82 37.41C62.82 37.48 62.79 37.55 62.75 37.6C62.67 37.69 62.57 37.76 62.45 37.8C62.27 37.95 62.11 38.13 62 38.34C61.88 38.54 61.81 38.77 61.79 39C61.76 39.13 61.79 39.27 61.85 39.39C61.87 39.4 61.88 39.41 61.9 39.42C61.92 39.43 61.94 39.44 61.96 39.43L61.99 39.43C62.05 39.39 62.13 39.37 62.2 39.38C62.28 39.39 62.35 39.43 62.39 39.49C62.44 39.55 62.46 39.63 62.46 39.71C62.45 39.78 62.41 39.85 62.36 39.9L62.27 39.95Z" fill="#30325B" fill-opacity="1.000000" fill-rule="nonzero"/>
	<path id="Vector" d="M0.3 124.6L46.03 124.6L46.03 141.75L0.3 141.75L0.3 124.6Z" fill="#FFFFFF" fill-opacity="1.000000" fill-rule="evenodd"/>
	<path id="Vector" d="M46.05 142.05L0.29 142.05C0.22 142.05 0.14 142.02 0.08 141.96C0.03 141.91 0 141.83 0 141.75L0 124.6C0 124.52 0.03 124.45 0.08 124.39C0.14 124.34 0.22 124.3 0.29 124.3L46.05 124.3C46.13 124.31 46.21 124.34 46.26 124.39C46.32 124.45 46.35 124.52 46.35 124.6L46.35 141.78C46.35 141.85 46.31 141.92 46.26 141.97C46.2 142.02 46.13 142.05 46.05 142.05ZM0.62 141.45L45.75 141.45L45.75 124.9L0.59 124.9L0.62 141.45Z" fill="#30325B" fill-opacity="1.000000" fill-rule="nonzero"/>
	<path id="Vector" d="M52.56 115.52L98.29 115.52L98.29 141.75L52.56 141.75L52.56 115.52Z" fill="#FFFFFF" fill-opacity="1.000000" fill-rule="evenodd"/>
	<path id="Vector" d="M98.29 142.05L52.56 142.05C52.48 142.05 52.4 142.02 52.34 141.96C52.29 141.91 52.26 141.83 52.26 141.75L52.26 115.52C52.26 115.44 52.29 115.36 52.34 115.3C52.4 115.25 52.48 115.22 52.56 115.22L98.29 115.22C98.37 115.22 98.45 115.25 98.5 115.3C98.56 115.36 98.59 115.44 98.59 115.52L98.59 141.78C98.58 141.85 98.55 141.92 98.49 141.97C98.44 142.02 98.37 142.05 98.29 142.05ZM52.86 141.45L97.99 141.45L97.99 115.82L52.86 115.82L52.86 141.45Z" fill="#30325B" fill-opacity="1.000000" fill-rule="nonzero"/>
	<path id="Vector" d="M104.82 104.65L150.55 104.65L150.55 141.75L104.82 141.75L104.82 104.65Z" fill="#FFFFFF" fill-opacity="1.000000" fill-rule="evenodd"/>
	<path id="Vector" d="M150.55 142.05L104.79 142.05C104.72 142.05 104.64 142.02 104.58 141.96C104.53 141.91 104.5 141.83 104.5 141.75L104.5 104.65C104.5 104.57 104.53 104.49 104.58 104.44C104.64 104.38 104.72 104.35 104.79 104.35L150.53 104.35C150.61 104.35 150.68 104.38 150.74 104.44C150.8 104.49 150.83 104.57 150.83 104.65L150.83 141.78C150.82 141.85 150.79 141.91 150.74 141.96C150.69 142.02 150.62 142.05 150.55 142.05ZM105.12 141.45L150.25 141.45L150.25 104.95L105.12 104.95L105.12 141.45Z" fill="#30325B" fill-opacity="1.000000" fill-rule="nonzero"/>
</svg>
