<svg width="180.088196" height="139.921082" viewBox="0 0 180.088 139.921" fill="none" xmlns="http://www.w3.org/2000/svg" xmlns:xlink="http://www.w3.org/1999/xlink">
	<desc>
			Created with Pixso.
	</desc>
	<defs/>
	<path id="Vector" d="M53.02 129.62C53.02 129.62 49.73 134.74 49.09 139.62L80.18 139.62C79.79 138.73 79.22 137.92 78.52 137.26C77.81 136.59 76.98 136.07 76.07 135.73C72.95 134.53 66.19 133.97 65.08 132.72C64.39 131.84 64.07 130.72 64.19 129.61L53.02 129.62Z" fill="#30325B" fill-opacity="1.000000" fill-rule="nonzero"/>
	<path id="Vector" d="M80.18 139.88L49.09 139.88C49.01 139.88 48.94 139.85 48.88 139.79C48.86 139.76 48.84 139.73 48.83 139.69C48.82 139.66 48.82 139.62 48.82 139.58C49.47 134.7 52.77 129.53 52.8 129.47C52.82 129.44 52.86 129.41 52.9 129.39C52.93 129.36 52.98 129.35 53.02 129.35L64.17 129.35C64.21 129.35 64.25 129.36 64.28 129.38C64.32 129.39 64.35 129.42 64.37 129.44C64.42 129.5 64.44 129.57 64.44 129.65C64.33 130.69 64.62 131.72 65.25 132.55C65.85 133.2 68.39 133.7 70.85 134.2C72.65 134.49 74.41 134.92 76.14 135.48C77.09 135.83 77.96 136.37 78.69 137.07C79.43 137.76 80.01 138.59 80.42 139.52C80.43 139.56 80.44 139.6 80.43 139.65C80.42 139.69 80.41 139.73 80.38 139.77C80.36 139.8 80.33 139.83 80.29 139.85C80.26 139.87 80.22 139.88 80.18 139.88ZM49.39 139.35L79.77 139.35C78.96 137.8 77.61 136.6 75.98 135.98C74.27 135.43 72.53 135.01 70.77 134.71C67.98 134.17 65.58 133.69 64.88 132.91C64.19 132.06 63.85 130.99 63.91 129.9L53.17 129.9C52.69 130.67 50.05 135.09 49.39 139.35Z" fill="#30325B" fill-opacity="1.000000" fill-rule="nonzero"/>
	<path id="Vector" d="M53.85 126.27L53.02 129.62L64.19 129.62L64.55 125.44L53.85 126.27Z" fill="#FFFFFF" fill-opacity="1.000000" fill-rule="nonzero"/>
	<path id="Vector" d="M64.17 129.92L53.02 129.92C52.98 129.92 52.93 129.91 52.89 129.89C52.85 129.87 52.82 129.84 52.79 129.8C52.76 129.77 52.74 129.73 52.73 129.68C52.72 129.64 52.72 129.59 52.73 129.55L53.56 126.2C53.57 126.13 53.61 126.08 53.65 126.04C53.7 126 53.76 125.97 53.82 125.97L64.52 125.14C64.57 125.14 64.61 125.15 64.65 125.16C64.69 125.18 64.73 125.2 64.76 125.23C64.79 125.26 64.81 125.3 64.83 125.34C64.85 125.38 64.85 125.43 64.85 125.47L64.49 129.64C64.49 129.72 64.45 129.79 64.39 129.85C64.33 129.9 64.25 129.92 64.17 129.92ZM53.39 129.32L63.9 129.32L64.2 125.77L54.07 126.55L53.39 129.32Z" fill="#30325B" fill-opacity="1.000000" fill-rule="nonzero"/>
	<path id="Vector" d="" fill="#FFFFFF" fill-opacity="1.000000" fill-rule="nonzero"/>
	<path id="Vector" d="M42.62 139.92C42.55 139.92 42.48 139.89 42.43 139.84C42.37 139.8 42.34 139.73 42.32 139.66L35.1 95.99C35.1 95.95 35.1 95.91 35.11 95.87C35.12 95.83 35.13 95.8 35.16 95.76C35.18 95.73 35.21 95.71 35.24 95.69C35.27 95.66 35.31 95.65 35.35 95.65C35.39 95.64 35.43 95.64 35.47 95.65C35.51 95.66 35.54 95.67 35.57 95.7C35.61 95.72 35.63 95.75 35.65 95.78C35.67 95.82 35.69 95.85 35.69 95.89L42.91 139.57C42.92 139.64 42.91 139.73 42.86 139.79C42.81 139.85 42.74 139.9 42.67 139.91L42.62 139.92Z" fill="#30325B" fill-opacity="1.000000" fill-rule="nonzero"/>
	<path id="Vector" d="" fill="#FFFFFF" fill-opacity="1.000000" fill-rule="nonzero"/>
	<path id="Vector" d="M20.11 139.92L20.06 139.92C20.02 139.91 19.98 139.9 19.95 139.88C19.92 139.85 19.89 139.83 19.86 139.79C19.84 139.76 19.82 139.72 19.82 139.69C19.81 139.65 19.81 139.61 19.81 139.57L27.16 95.9C27.18 95.82 27.22 95.75 27.29 95.7C27.35 95.66 27.43 95.64 27.51 95.65C27.55 95.66 27.59 95.67 27.62 95.69C27.66 95.71 27.69 95.74 27.71 95.77C27.73 95.8 27.75 95.84 27.76 95.88C27.77 95.92 27.77 95.96 27.76 95.99L20.4 139.66C20.39 139.73 20.36 139.8 20.3 139.84C20.25 139.89 20.18 139.92 20.11 139.92Z" fill="#30325B" fill-opacity="1.000000" fill-rule="nonzero"/>
	<path id="Vector" d="M63.12 86.56C63.12 86.56 68.57 80.11 71.73 82.57C74.89 85.03 65.38 127.42 65.38 127.42L52.68 127.42C52.68 127.42 53.97 101.16 55.5 96.14C57.02 91.13 63.12 86.56 63.12 86.56Z" fill="#30325B" fill-opacity="1.000000" fill-rule="nonzero"/>
	<path id="Vector" d="M65.38 127.7L52.68 127.7C52.64 127.7 52.61 127.69 52.57 127.68C52.54 127.66 52.51 127.64 52.49 127.62C52.46 127.59 52.44 127.56 52.43 127.53C52.42 127.49 52.41 127.46 52.42 127.42C52.46 126.35 53.73 101.07 55.24 96.08C56.76 91.1 62.46 86.74 62.94 86.38C63.36 85.88 68.64 79.84 71.89 82.37C75.15 84.9 66.6 123.13 65.62 127.48C65.61 127.54 65.58 127.59 65.53 127.63C65.49 127.67 65.44 127.69 65.38 127.7ZM52.97 127.17L65.17 127.17C68.97 110.19 73.8 84.51 71.58 82.79C68.66 80.51 63.4 86.68 63.34 86.74L63.3 86.79C63.24 86.83 57.25 91.37 55.77 96.24C54.33 100.87 53.1 124.33 52.96 127.16L52.97 127.17Z" fill="#30325B" fill-opacity="1.000000" fill-rule="nonzero"/>
	<path id="Vector" d="M34.49 125.76C33.59 126.78 32.94 127.99 32.59 129.31L43.8 129.31L45.25 125.76L34.49 125.76Z" fill="#FFFFFF" fill-opacity="1.000000" fill-rule="nonzero"/>
	<path id="Vector" d="M43.8 129.61L32.59 129.61C32.54 129.61 32.5 129.6 32.46 129.58C32.42 129.56 32.38 129.53 32.36 129.49C32.33 129.46 32.31 129.42 32.3 129.37C32.29 129.33 32.29 129.28 32.29 129.24C32.66 127.87 33.33 126.61 34.27 125.56C34.3 125.53 34.33 125.5 34.37 125.49C34.41 125.47 34.45 125.46 34.49 125.46L45.25 125.46C45.3 125.46 45.35 125.47 45.39 125.5C45.44 125.52 45.48 125.55 45.5 125.59C45.53 125.64 45.54 125.69 45.54 125.74C45.54 125.79 45.53 125.83 45.5 125.88L44.05 129.42C44.03 129.47 43.99 129.52 43.95 129.55C43.9 129.58 43.85 129.6 43.8 129.61ZM32.97 129L43.59 129L44.79 126.06L34.63 126.06C33.89 126.93 33.33 127.93 32.97 129L32.97 129Z" fill="#30325B" fill-opacity="1.000000" fill-rule="nonzero"/>
	<path id="Vector" d="M23.47 86.34C23.47 86.34 23.03 91.06 27.97 94.41C32.91 97.75 49.62 96 49.62 96L33.07 125.64L47.26 126.81C47.26 126.81 67.34 93.68 67.06 88.16C66.77 82.64 58.48 81.62 58.48 81.62L24.99 81.62L23.47 86.34Z" fill="#30325B" fill-opacity="1.000000" fill-rule="nonzero"/>
	<path id="Vector" d="M47.25 127.1L33.04 125.89C33 125.89 32.95 125.88 32.92 125.85C32.88 125.83 32.85 125.8 32.82 125.76C32.8 125.72 32.79 125.67 32.79 125.63C32.79 125.59 32.8 125.54 32.82 125.5L49.14 96.31C46.25 96.58 32.36 97.69 27.82 94.62C22.81 91.24 23.2 86.36 23.2 86.32C23.2 86.27 23.2 86.28 23.2 86.26L24.73 81.54C24.75 81.49 24.78 81.44 24.83 81.41C24.87 81.37 24.92 81.35 24.98 81.35L58.46 81.35C58.84 81.4 67 82.47 67.3 88.14C67.59 93.68 48.29 125.59 47.45 126.95C47.43 126.99 47.4 127.02 47.37 127.05C47.33 127.07 47.29 127.09 47.25 127.1ZM33.5 125.41L47.12 126.53C48.54 124.17 67.06 93.37 66.79 88.17C66.51 82.98 58.53 81.89 58.45 81.88L25.19 81.88L23.73 86.39C23.73 86.77 23.57 91.1 28.12 94.18C32.93 97.43 49.42 95.75 49.59 95.74C49.64 95.73 49.69 95.74 49.73 95.76C49.77 95.78 49.81 95.81 49.84 95.86C49.86 95.9 49.87 95.95 49.87 95.99C49.87 96.04 49.86 96.09 49.84 96.13L33.5 125.41Z" fill="#30325B" fill-opacity="1.000000" fill-rule="nonzero"/>
	<path id="Vector" d="M22.07 70.36C22.18 71.14 22.25 71.92 22.29 72.69C22.56 77.02 22.11 81.41 22.95 85.67C23.04 86.44 23.36 87.17 23.86 87.76C24.31 88.16 24.84 88.45 25.41 88.6C28.87 89.67 32.58 89.52 36.14 90.15C39.71 90.79 43.45 92.56 44.79 95.92C44.89 96.06 44.96 96.23 44.99 96.41C45.01 96.59 44.99 96.78 44.92 96.94C44.85 97.11 44.74 97.26 44.6 97.38C44.46 97.49 44.3 97.57 44.12 97.61C41.43 98.65 38.03 97.96 35.19 97.95C31.21 97.95 27.22 97.79 23.25 97.52C21.88 97.5 20.53 97.23 19.26 96.72C14.69 94.58 13.49 87.55 12.96 83.16C12.17 76.67 11.81 70.14 11.89 63.6C11.89 61.62 12.58 58.99 14.57 58.97C16.55 58.95 19.22 62.53 20.1 64.13C21.13 66.07 21.8 68.18 22.07 70.36Z" fill="#FFFFFF" fill-opacity="1.000000" fill-rule="nonzero"/>
	<path id="Vector" d="M40.36 98.47C39.45 98.47 38.52 98.41 37.61 98.35C36.69 98.29 35.96 98.24 35.2 98.23C31.23 98.23 27.21 98.07 23.24 97.8C21.83 97.78 20.44 97.5 19.14 96.97C14.59 94.84 13.27 88.08 12.67 83.18C11.88 76.68 11.53 70.13 11.6 63.58C11.6 61.32 12.42 58.68 14.58 58.65C16.91 58.65 19.6 62.59 20.36 63.96C21.4 65.94 22.06 68.1 22.32 70.32C22.42 71.06 22.5 71.85 22.55 72.67C22.65 74.21 22.65 75.78 22.65 77.31C22.58 80.08 22.76 82.86 23.21 85.59C23.29 86.31 23.58 86.98 24.04 87.54C24.46 87.9 24.97 88.15 25.5 88.28C27.61 88.85 29.76 89.2 31.94 89.32C33.34 89.45 34.79 89.58 36.19 89.83C38.3 90.21 43.41 91.54 45.07 95.78C45.18 96.01 45.23 96.26 45.23 96.51C45.23 96.77 45.18 97.02 45.07 97.25C44.85 97.54 44.55 97.75 44.2 97.85C42.97 98.29 41.67 98.5 40.36 98.47ZM14.59 59.25C12.78 59.25 12.23 61.99 12.18 63.59C12.1 70.11 12.46 76.63 13.25 83.11C13.85 87.87 15.09 94.42 19.38 96.43C20.62 96.93 21.94 97.18 23.27 97.2C27.23 97.47 31.24 97.62 35.19 97.63C35.98 97.63 36.79 97.69 37.65 97.74C39.86 97.89 42.12 98.04 44.02 97.31C44.24 97.24 44.44 97.11 44.58 96.94C44.64 96.79 44.67 96.63 44.65 96.47C44.64 96.31 44.59 96.15 44.51 96.01C42.94 92.05 38.1 90.79 36.09 90.44C34.71 90.19 33.28 90.06 31.88 89.93C29.66 89.81 27.46 89.45 25.32 88.87C24.69 88.72 24.11 88.42 23.62 88C23.07 87.37 22.72 86.58 22.62 85.75C22.17 82.97 21.98 80.15 22.06 77.33C22.06 75.81 22.06 74.25 21.96 72.72C21.91 71.92 21.84 71.15 21.74 70.42C21.49 68.27 20.84 66.19 19.84 64.27C18.98 62.68 16.46 59.25 14.59 59.25Z" fill="#30325B" fill-opacity="1.000000" fill-rule="nonzero"/>
	<path id="Vector" d="M82.95 76.18C84.67 76.6 86.2 77.59 87.28 78.98C87.35 79.06 87.41 79.16 87.45 79.26C87.48 79.37 87.5 79.48 87.49 79.59C87.42 79.92 87.02 80.05 86.68 80.08C85.59 80.12 84.5 80.04 83.42 79.86C81.11 79.64 78.77 79.97 76.46 79.68C74.47 79.42 76.74 76.33 77.76 75.89C79.17 75.3 81.56 75.81 82.95 76.18Z" fill="#FFFFFF" fill-opacity="1.000000" fill-rule="nonzero"/>
	<path id="Vector" d="M86.08 80.43C85.47 80.41 84.87 80.36 84.27 80.27C83.99 80.23 83.7 80.2 83.41 80.17C82.33 80.09 81.25 80.06 80.17 80.1C78.93 80.15 77.68 80.12 76.44 79.99C76.19 79.99 75.94 79.9 75.75 79.73C75.56 79.56 75.43 79.33 75.4 79.08C75.23 77.88 76.85 75.98 77.66 75.63C79.07 75.03 81.37 75.43 83.07 75.89C84.86 76.32 86.45 77.35 87.57 78.81C87.67 78.92 87.74 79.06 87.79 79.21C87.83 79.35 87.84 79.51 87.83 79.66C87.74 80.07 87.36 80.33 86.75 80.39C86.53 80.42 86.3 80.43 86.08 80.43ZM81.41 79.49C82.09 79.49 82.77 79.49 83.45 79.57L84.33 79.68C85.1 79.8 85.88 79.84 86.65 79.8C86.91 79.8 87.16 79.68 87.19 79.54C87.22 79.39 87.12 79.27 87.03 79.16C85.99 77.82 84.53 76.87 82.88 76.47C80.6 75.87 78.86 75.75 77.88 76.18C77.2 76.48 75.86 78.19 75.98 79C75.98 79.1 76.02 79.33 76.51 79.39C77.71 79.52 78.93 79.55 80.14 79.5L81.41 79.49Z" fill="#30325B" fill-opacity="1.000000" fill-rule="nonzero"/>
	<path id="Vector" d="M24.99 82.97C24.99 82.97 16.57 63.06 17.53 51.77C18.24 43.38 25.68 39.8 28.45 39.63C31 39.47 44.6 37.65 49.56 43.73C54.51 49.8 54.14 81.98 54.14 81.98L24.99 82.97Z" fill="#FF5A57" fill-opacity="1.000000" fill-rule="nonzero"/>
	<path id="Vector" d="M41.9 44.84L41.73 67.78L31.99 43.3L41.9 44.84Z" fill="#30325B" fill-opacity="1.000000" fill-rule="nonzero"/>
	<path id="Vector" d="M41.73 68.08C41.67 68.08 41.61 68.06 41.56 68.02C41.51 67.99 41.47 67.94 41.44 67.89L31.69 43.41C31.67 43.36 31.67 43.31 31.67 43.26C31.68 43.2 31.7 43.15 31.74 43.11C31.77 43.07 31.81 43.04 31.86 43.02C31.91 43 31.97 42.99 32.02 43L41.92 44.54C41.99 44.55 42.06 44.59 42.1 44.64C42.15 44.7 42.17 44.77 42.17 44.84L42 67.78C42 67.85 41.98 67.92 41.93 67.97C41.89 68.02 41.83 68.06 41.76 68.07L41.73 68.08ZM32.46 43.68L41.44 66.23L41.59 45.1L32.46 43.68Z" fill="#30325B" fill-opacity="1.000000" fill-rule="nonzero"/>
	<path id="Vector" d="M49.56 43.73C49.56 43.73 53.23 50.78 55.39 54.41C57.55 58.03 62.25 63.23 62.25 63.23C62.25 63.23 78.88 69.14 78.98 69.46C79.09 69.78 77.41 75.37 77.41 75.37C77.41 75.37 59.96 74.11 57.07 72.75C54.18 71.38 48.33 64.67 48.33 64.67L49.56 43.73Z" fill="#FF5A57" fill-opacity="1.000000" fill-rule="nonzero"/>
	<path id="Vector" d="M38.12 47.37L36.9 49.3L38.24 50.1L38.38 59.36L41.73 67.78L41.9 59.98L39.1 49.84L39.93 48.85L38.12 47.37Z" fill="#FFFFFF" fill-opacity="1.000000" fill-rule="nonzero"/>
	<path id="Vector" d="M41.73 68.08C41.67 68.08 41.61 68.06 41.56 68.02C41.51 67.99 41.47 67.94 41.44 67.89L38.09 59.46C38.09 59.43 38.09 59.39 38.09 59.36L37.96 50.27L36.76 49.56C36.72 49.54 36.69 49.51 36.67 49.48C36.65 49.45 36.63 49.41 36.62 49.37C36.61 49.33 36.61 49.29 36.61 49.25C36.62 49.21 36.63 49.17 36.66 49.14L37.86 47.21C37.88 47.17 37.91 47.14 37.95 47.12C37.98 47.1 38.02 47.08 38.06 47.07C38.11 47.07 38.15 47.07 38.19 47.08C38.23 47.09 38.27 47.11 38.3 47.14L40.11 48.63C40.14 48.65 40.16 48.68 40.18 48.72C40.2 48.75 40.21 48.79 40.22 48.83C40.22 48.87 40.21 48.91 40.2 48.95C40.19 48.99 40.17 49.02 40.14 49.05L39.42 49.91L42.17 59.9C42.17 59.93 42.17 59.96 42.17 59.99L42 67.81C42 67.88 41.97 67.94 41.93 67.99C41.89 68.05 41.82 68.08 41.76 68.1L41.73 68.08ZM38.68 59.3L41.46 66.29L41.59 60.02L38.82 49.91C38.8 49.87 38.8 49.82 38.81 49.77C38.82 49.72 38.84 49.67 38.88 49.64L39.48 48.9L38.17 47.82L37.29 49.2L38.36 49.84C38.41 49.87 38.44 49.9 38.47 49.95C38.5 49.99 38.51 50.04 38.51 50.09L38.68 59.3Z" fill="#30325B" fill-opacity="1.000000" fill-rule="nonzero"/>
	<path id="Vector" d="M31 19.49C31.35 19.35 31.73 19.26 32.11 19.22C33.62 19.04 33.64 19.37 34.81 18.39C36.58 16.99 38.73 16.17 40.99 16.04C45.32 15.75 48.48 17.92 47.5 22.65C47.02 24.54 46.15 26.31 44.96 27.85C42.5 31.24 39.04 34.32 34.86 34.64C33.66 34.73 31.3 34.64 30.4 33.62C29.13 32.18 28.25 30.44 27.84 28.56C27.44 26.68 27.52 24.73 28.08 22.89C28.32 22.1 28.7 21.37 29.22 20.73C29.69 20.17 30.31 19.75 31 19.49Z" fill="#FFFFFF" fill-opacity="1.000000" fill-rule="nonzero"/>
	<path id="Vector" d="M34.1 34.99C33 34.99 31.04 34.84 30.15 33.85C28.85 32.37 27.94 30.57 27.53 28.64C27.12 26.7 27.21 24.69 27.8 22.8C28.04 21.98 28.45 21.21 29 20.54C29.51 19.95 30.15 19.49 30.88 19.21C31.26 19.07 31.67 18.97 32.08 18.92C32.48 18.88 32.78 18.86 33.02 18.85C33.67 18.85 33.83 18.82 34.62 18.16C36.44 16.72 38.66 15.88 40.97 15.75C43.54 15.59 45.61 16.26 46.82 17.64C47.89 18.88 48.23 20.65 47.8 22.77C47.32 24.7 46.44 26.51 45.2 28.07C43.07 31.03 39.54 34.63 34.89 34.98C34.8 34.97 34.51 34.99 34.1 34.99ZM31.09 19.77C30.46 20.01 29.9 20.41 29.46 20.92C28.97 21.53 28.6 22.24 28.39 22.99C27.83 24.78 27.74 26.68 28.13 28.51C28.52 30.34 29.37 32.04 30.61 33.45C31.33 34.24 33.3 34.48 34.82 34.36C39.24 34.03 42.64 30.55 44.69 27.69C45.87 26.2 46.72 24.47 47.18 22.62C47.57 20.7 47.28 19.11 46.33 18.02C45.25 16.78 43.36 16.18 40.99 16.34C38.8 16.47 36.7 17.26 34.97 18.62C34.73 18.89 34.43 19.09 34.09 19.23C33.76 19.37 33.4 19.44 33.04 19.43C32.74 19.44 32.44 19.46 32.14 19.5C31.78 19.53 31.44 19.62 31.1 19.75L31.09 19.77Z" fill="#30325B" fill-opacity="1.000000" fill-rule="nonzero"/>
	<path id="Vector" d="M42.27 38.35L42.27 44.9C42.27 44.9 40.73 48.51 36.45 47.41C32.17 46.32 31.64 43.24 31.64 43.24L31.83 31.12C31.83 31.12 35.04 29.46 34.18 22.54C37.68 24.1 41.53 24.69 45.34 24.24C45.34 24.24 46.65 31.81 46.18 35.15C45.74 38.36 42.33 38.3 42.27 38.35Z" fill="#FFFFFF" fill-opacity="1.000000" fill-rule="nonzero"/>
	<path id="Vector" d="M38 47.92C37.45 47.91 36.91 47.84 36.38 47.71C31.96 46.58 31.37 43.43 31.35 43.3L31.54 31.12C31.54 31.07 31.55 31.02 31.58 30.97C31.61 30.92 31.65 30.88 31.69 30.86C31.69 30.86 34.7 29.17 33.88 22.57C33.88 22.52 33.89 22.47 33.91 22.42C33.93 22.37 33.96 22.32 34.01 22.29C34.06 22.26 34.11 22.25 34.17 22.25C34.22 22.25 34.28 22.26 34.32 22.29C37.77 23.81 41.55 24.38 45.29 23.95C45.37 23.94 45.45 23.96 45.51 24.01C45.57 24.05 45.61 24.12 45.62 24.19C45.68 24.51 46.94 31.86 46.48 35.19C46.21 37.17 44.82 38.39 42.56 38.65L42.56 44.92C42.57 44.96 42.57 45 42.56 45.04C42.15 45.9 41.5 46.62 40.69 47.13C39.88 47.64 38.95 47.91 38 47.92ZM32.14 31.3L31.95 43.25C31.95 43.31 32.5 46.09 36.53 47.12C40.28 48.07 41.76 45.28 41.94 44.83L41.94 38.35C41.94 38.31 41.95 38.26 41.97 38.22C41.99 38.18 42.02 38.15 42.06 38.12C42.14 38.06 42.24 38.03 42.33 38.04C44.4 37.85 45.62 36.84 45.87 35.09C46.26 32.2 45.26 25.94 45.06 24.55C41.48 24.92 37.87 24.4 34.54 23.04C35.12 28.87 32.79 30.86 32.14 31.3Z" fill="#30325B" fill-opacity="1.000000" fill-rule="nonzero"/>
	<path id="Vector" d="M34.36 30.94C34.22 30.35 33.89 29.82 33.43 29.43C32.98 29.09 32.47 28.83 31.93 28.66C31.64 28.53 31.34 28.47 31.03 28.48C30.81 28.52 30.61 28.59 30.42 28.7C29.96 28.92 29.58 29.3 29.37 29.78C29.25 30.17 29.23 30.58 29.31 30.98C29.35 31.43 29.46 31.86 29.62 32.28C29.79 32.7 30.05 33.07 30.37 33.39C30.69 33.71 31.07 33.96 31.49 34.12C31.9 34.29 32.35 34.37 32.8 34.37C33.25 34.36 33.69 34.27 34.11 34.09L34.36 30.94Z" fill="#FFFFFF" fill-opacity="1.000000" fill-rule="nonzero"/>
	<path id="Vector" d="M32.75 34.71C32.27 34.71 31.8 34.62 31.36 34.44C30.9 34.26 30.49 33.98 30.14 33.64C29.79 33.29 29.52 32.88 29.33 32.42C29.16 31.98 29.04 31.51 28.99 31.04C28.91 30.58 28.94 30.1 29.08 29.65C29.32 29.12 29.75 28.69 30.29 28.45C30.51 28.32 30.75 28.24 31.01 28.2C31.36 28.19 31.72 28.25 32.05 28.39C32.62 28.57 33.16 28.86 33.64 29.22C34.14 29.65 34.49 30.22 34.65 30.86C34.67 30.93 34.66 31.02 34.62 31.08C34.57 31.15 34.51 31.2 34.43 31.22C34.35 31.24 34.27 31.22 34.2 31.18C34.13 31.14 34.08 31.07 34.06 31C33.94 30.47 33.65 30 33.23 29.65C32.81 29.34 32.33 29.09 31.83 28.93C31.58 28.83 31.32 28.77 31.06 28.78C30.88 28.8 30.71 28.87 30.56 28.96C30.16 29.15 29.83 29.47 29.64 29.87C29.54 30.22 29.52 30.59 29.59 30.95C29.64 31.37 29.74 31.77 29.88 32.16C30.04 32.54 30.27 32.88 30.56 33.17C30.85 33.46 31.2 33.69 31.58 33.85C31.96 34 32.37 34.08 32.78 34.08C33.19 34.07 33.6 33.99 33.97 33.82C34.05 33.79 34.13 33.79 34.2 33.82C34.28 33.85 34.34 33.91 34.37 33.98C34.39 34.02 34.39 34.06 34.39 34.1C34.39 34.14 34.39 34.17 34.37 34.21C34.36 34.25 34.33 34.28 34.31 34.31C34.28 34.34 34.24 34.36 34.21 34.38C33.75 34.59 33.26 34.7 32.75 34.71Z" fill="#30325B" fill-opacity="1.000000" fill-rule="nonzero"/>
	<path id="Vector" d="M42.02 28.58C42.02 28.58 44.35 31.89 43.83 32.48C43.3 33.08 41.8 32.73 41.8 32.73L42.02 28.58Z" fill="#FFFFFF" fill-opacity="1.000000" fill-rule="nonzero"/>
	<path id="Vector" d="M42.72 33.13C42.39 33.13 42.06 33.09 41.73 33.02C41.65 33 41.58 32.96 41.54 32.89C41.5 32.82 41.48 32.73 41.5 32.65C41.52 32.57 41.57 32.5 41.64 32.46C41.71 32.42 41.79 32.4 41.87 32.42C42.39 32.54 43.31 32.61 43.6 32.27C43.74 31.98 42.89 30.32 41.8 28.74C41.76 28.67 41.74 28.6 41.76 28.52C41.78 28.45 41.82 28.38 41.88 28.33C41.95 28.29 42.02 28.27 42.1 28.28C42.18 28.3 42.25 28.34 42.29 28.4C43.21 29.7 44.7 32.01 44.1 32.67C43.91 32.84 43.7 32.97 43.46 33.05C43.22 33.13 42.97 33.16 42.72 33.13Z" fill="#30325B" fill-opacity="1.000000" fill-rule="nonzero"/>
	<path id="Vector" d="M40.22 27.07C40.53 27.09 40.75 27.46 40.73 27.89C40.7 28.32 40.43 28.65 40.13 28.64C39.82 28.62 39.59 28.25 39.62 27.82C39.65 27.39 39.92 27.06 40.22 27.07Z" fill="#30325B" fill-opacity="1.000000" fill-rule="evenodd"/>
	<path id="Vector" d="M45.51 27.84C45.54 28.27 45.31 28.64 45.01 28.66C44.7 28.68 44.43 28.35 44.4 27.92C44.37 27.49 44.59 27.12 44.9 27.1C45.2 27.08 45.47 27.41 45.51 27.84Z" fill="#30325B" fill-opacity="1.000000" fill-rule="evenodd"/>
	<path id="Vector" d="M42.13 35.12C40.84 35.12 39.15 34.92 38.03 34.02C37.98 33.96 37.95 33.89 37.95 33.82C37.94 33.74 37.97 33.67 38.01 33.61C38.06 33.56 38.13 33.52 38.2 33.51C38.28 33.49 38.35 33.51 38.41 33.55C40.18 34.97 43.83 34.4 43.83 34.39C43.91 34.38 43.99 34.4 44.05 34.45C44.12 34.5 44.16 34.57 44.17 34.65C44.19 34.73 44.17 34.81 44.12 34.87C44.07 34.94 44 34.98 43.92 35C43.33 35.08 42.73 35.12 42.13 35.12Z" fill="#30325B" fill-opacity="1.000000" fill-rule="nonzero"/>
	<path id="Vector" d="M46.32 32.02C45.46 32.02 44.63 31.75 43.93 31.27C43.23 30.78 42.7 30.08 42.41 29.28C42.11 28.48 42.08 27.6 42.3 26.78C42.52 25.96 42.99 25.22 43.64 24.67C44.29 24.12 45.1 23.78 45.95 23.71C46.8 23.63 47.66 23.82 48.4 24.25C49.14 24.67 49.73 25.32 50.09 26.09C50.45 26.86 50.57 27.73 50.42 28.57C50.25 29.54 49.74 30.41 48.99 31.04C48.24 31.67 47.3 32.02 46.32 32.02ZM46.32 24.3C45.4 24.29 44.51 24.64 43.84 25.27C43.18 25.91 42.78 26.77 42.74 27.69C42.69 28.61 43.01 29.51 43.61 30.21C44.21 30.9 45.06 31.33 45.98 31.41C46.89 31.5 47.81 31.22 48.53 30.65C49.24 30.07 49.71 29.24 49.83 28.33C49.96 27.42 49.72 26.5 49.18 25.75C48.63 25.01 47.82 24.51 46.92 24.35C46.72 24.31 46.52 24.3 46.32 24.3Z" fill="#30325B" fill-opacity="1.000000" fill-rule="nonzero"/>
	<path id="Vector" d="M38.23 31.7C37.99 31.7 37.74 31.68 37.5 31.64C36.69 31.5 35.94 31.12 35.35 30.55C34.75 29.98 34.34 29.25 34.16 28.44C33.98 27.64 34.05 26.8 34.34 26.04C34.64 25.27 35.16 24.61 35.83 24.13C36.37 23.76 36.98 23.51 37.63 23.42C38.28 23.32 38.94 23.38 39.56 23.59C40.18 23.8 40.74 24.15 41.2 24.62C41.65 25.09 42 25.65 42.19 26.28C42.39 26.9 42.44 27.56 42.34 28.21C42.23 28.85 41.98 29.46 41.59 29.99C41.2 30.52 40.7 30.95 40.12 31.25C39.54 31.54 38.89 31.7 38.24 31.7L38.23 31.7ZM38.23 23.98C37.34 23.98 36.49 24.32 35.83 24.92C35.18 25.52 34.78 26.35 34.7 27.24C34.63 28.12 34.88 29 35.43 29.71C35.97 30.41 36.75 30.89 37.63 31.04C38.54 31.16 39.46 30.92 40.2 30.38C40.94 29.83 41.44 29.02 41.6 28.11C41.76 27.21 41.55 26.28 41.04 25.52C40.52 24.75 39.73 24.22 38.83 24.03C38.63 23.99 38.42 23.98 38.21 23.98L38.23 23.98Z" fill="#30325B" fill-opacity="1.000000" fill-rule="nonzero"/>
	<path id="Vector" d="M42.27 38.35C42.27 38.35 38.2 39.3 35.8 37.93C35.8 37.93 38.45 43.41 42.27 42.84L42.27 38.35Z" fill="#30325B" fill-opacity="1.000000" fill-rule="nonzero"/>
	<path id="Vector" d="M41.7 43.18C38.05 43.18 35.63 38.27 35.53 38.05C35.5 37.99 35.49 37.93 35.5 37.87C35.52 37.8 35.55 37.75 35.59 37.7C35.64 37.66 35.7 37.63 35.76 37.62C35.83 37.61 35.89 37.63 35.95 37.66C38.21 38.96 42.17 38.07 42.2 38.06C42.25 38.05 42.29 38.05 42.34 38.06C42.38 38.07 42.42 38.09 42.46 38.12C42.49 38.14 42.52 38.18 42.54 38.22C42.56 38.26 42.57 38.31 42.57 38.35L42.57 42.84C42.57 42.91 42.54 42.98 42.5 43.03C42.45 43.09 42.39 43.12 42.32 43.13C42.11 43.16 41.91 43.18 41.7 43.18ZM36.51 38.56C37.36 39.96 39.41 42.77 41.97 42.57L41.97 38.72C41.03 38.89 38.51 39.28 36.51 38.56Z" fill="#30325B" fill-opacity="1.000000" fill-rule="nonzero"/>
	<path id="Vector" d="M21.7 43.09C16.66 46.28 10.04 77.02 14.33 80.33C21.05 85.51 39.93 75.27 39.93 75.27L38.03 66.25C38.03 66.25 22.99 66.66 22.79 63.58C22.58 60.49 31.53 46.21 30.35 44.08C29.18 41.95 21.7 43.09 21.7 43.09Z" fill="#FF5A57" fill-opacity="1.000000" fill-rule="nonzero"/>
	<path id="Vector" d="M28.42 80.45C28.35 80.45 28.29 80.43 28.23 80.39C28.18 80.35 28.14 80.3 28.13 80.23C28.11 80.16 28.12 80.07 28.16 80.01C28.2 79.94 28.26 79.88 28.34 79.86L36.6 77.54L36.6 70.36L23.43 69.02C23.39 69.01 23.35 69 23.31 68.98C23.27 68.96 23.24 68.93 23.21 68.9C23.19 68.86 23.17 68.82 23.16 68.78C23.16 68.74 23.16 68.7 23.16 68.66L28.16 46.21C28.17 46.17 28.18 46.14 28.21 46.1C28.23 46.07 28.26 46.04 28.29 46.02C28.33 46 28.36 45.98 28.4 45.98C28.44 45.97 28.48 45.97 28.52 45.98C28.56 45.99 28.6 46 28.63 46.03C28.67 46.05 28.7 46.08 28.72 46.11C28.74 46.15 28.75 46.19 28.76 46.23C28.77 46.27 28.77 46.31 28.76 46.35L23.83 68.45L36.93 69.79C37 69.8 37.07 69.83 37.12 69.89C37.17 69.95 37.2 70.02 37.2 70.09L37.2 77.77C37.2 77.84 37.18 77.9 37.14 77.95C37.1 78.01 37.04 78.04 36.98 78.06L28.5 80.47C28.47 80.47 28.44 80.46 28.42 80.45Z" fill="#30325B" fill-opacity="1.000000" fill-rule="nonzero"/>
	<path id="Vector" d="M60.57 76.39C60.43 76.69 59.96 76.6 59.67 76.46L55.38 74.5C56.36 74.98 57.28 75.59 58.11 76.3C58.27 76.44 58.45 76.63 58.4 76.84C58.32 77.2 57.8 77.13 57.46 76.97C55.81 76.18 54.23 75.24 52.75 74.17L56.07 76.71C56.07 76.78 56.05 76.84 56.03 76.91C56 76.97 55.96 77.03 55.91 77.07C55.87 77.12 55.81 77.16 55.75 77.18C55.68 77.21 55.62 77.22 55.55 77.22C55.27 77.2 55.01 77.11 54.78 76.95L51.1 74.77L53.41 76.39C53.78 76.64 54.19 77.04 54.02 77.45C53.84 77.86 53.1 77.79 52.62 77.57C50.71 76.75 48.72 76.14 46.68 75.77C45.97 75.53 45.23 75.38 44.48 75.31C43.34 75.46 42.21 75.71 41.11 76.05C39.71 76.37 38.3 76.69 36.9 77.02L36.9 71.12C39.31 71.25 41.73 71.13 44.12 70.74C45.94 70.3 47.81 70.09 49.69 70.1C52.17 70.22 54.62 70.78 56.91 71.75C57 71.78 57.08 71.84 57.15 71.91C57.37 72.22 56.85 72.51 56.47 72.51C55.48 72.54 54.48 72.41 53.53 72.14C55.89 73.02 58.13 74.21 60.18 75.68C60.4 75.86 60.66 76.13 60.57 76.39Z" fill="#FFFFFF" fill-opacity="1.000000" fill-rule="nonzero"/>
	<path id="Vector" d="M53.43 78.07C53.1 78.06 52.79 77.98 52.5 77.84C50.61 77.02 48.64 76.42 46.62 76.04C46.36 75.98 46.12 75.91 45.88 75.84C45.43 75.68 44.96 75.6 44.48 75.59C43.71 75.66 42.95 75.81 42.22 76.05C41.86 76.15 41.5 76.25 41.16 76.32L37 77.28C36.96 77.29 36.91 77.29 36.87 77.28C36.82 77.27 36.78 77.25 36.75 77.23C36.71 77.21 36.68 77.17 36.66 77.14C36.64 77.1 36.63 77.06 36.63 77.02L36.63 71.12C36.63 71.08 36.63 71.04 36.65 71.01C36.66 70.97 36.68 70.94 36.71 70.92C36.74 70.89 36.77 70.87 36.8 70.86C36.84 70.84 36.87 70.84 36.91 70.84C39.3 70.98 41.7 70.86 44.07 70.47L44.72 70.35C46.35 69.97 48.03 69.8 49.71 69.83C52.22 69.95 54.69 70.52 57.01 71.5C57.15 71.55 57.27 71.64 57.37 71.75C57.42 71.83 57.46 71.92 57.47 72.02C57.48 72.12 57.45 72.22 57.41 72.3C57.3 72.46 57.16 72.58 57 72.67C56.84 72.76 56.66 72.8 56.47 72.81C56.23 72.81 56 72.81 55.77 72.81C57.37 73.55 58.89 74.45 60.33 75.48C60.78 75.8 60.93 76.17 60.8 76.51C60.74 76.62 60.65 76.72 60.54 76.79C60.42 76.85 60.29 76.88 60.16 76.87C59.95 76.86 59.75 76.81 59.56 76.72L58.32 76.12C58.44 76.21 58.54 76.33 58.6 76.46C58.66 76.6 58.69 76.75 58.67 76.9C58.65 76.99 58.61 77.07 58.56 77.14C58.51 77.21 58.44 77.27 58.36 77.31C58.19 77.36 58.02 77.39 57.84 77.37C57.67 77.36 57.5 77.31 57.34 77.22C57.02 77.06 56.7 76.9 56.39 76.73C56.39 76.88 56.33 77.03 56.23 77.15C56.08 77.32 55.86 77.43 55.63 77.45C55.3 77.43 54.98 77.33 54.71 77.14L54.3 76.9C54.34 77 54.37 77.12 54.37 77.23C54.37 77.35 54.34 77.46 54.3 77.56C54.26 77.66 54.2 77.75 54.12 77.82C54.04 77.89 53.96 77.94 53.86 77.98C53.72 78.04 53.57 78.07 53.43 78.07ZM44.55 75.06C45.06 75.08 45.55 75.18 46.03 75.33C46.26 75.4 46.49 75.47 46.73 75.51C48.8 75.9 50.82 76.52 52.75 77.36C53.02 77.51 53.34 77.57 53.64 77.51C53.67 77.5 53.7 77.48 53.72 77.46C53.75 77.44 53.76 77.41 53.77 77.38C53.9 77.11 53.42 76.78 53.28 76.65L52.28 75.97L50.94 75.02C50.88 74.98 50.84 74.92 50.83 74.85C50.82 74.77 50.83 74.7 50.87 74.64C50.91 74.58 50.97 74.54 51.04 74.52C51.1 74.51 51.18 74.52 51.24 74.55L54.94 76.69C55.11 76.83 55.32 76.91 55.54 76.92C55.62 76.92 55.7 76.88 55.75 76.82L52.57 74.37C52.51 74.33 52.47 74.26 52.46 74.19C52.45 74.12 52.47 74.04 52.52 73.99C52.56 73.93 52.62 73.89 52.7 73.88C52.77 73.87 52.84 73.89 52.9 73.93C54.37 75.01 55.93 75.95 57.56 76.75C57.72 76.84 57.91 76.87 58.09 76.84C58.09 76.79 58.09 76.71 57.92 76.54C57.1 75.83 56.2 75.23 55.23 74.74C55.17 74.7 55.12 74.65 55.1 74.58C55.07 74.51 55.08 74.44 55.11 74.37C55.14 74.31 55.2 74.26 55.26 74.23C55.33 74.21 55.41 74.21 55.47 74.24L57.32 75.09L59.77 76.21C59.89 76.27 60.03 76.31 60.17 76.31C60.28 76.31 60.29 76.28 60.3 76.27C60.3 76.22 60.23 76.07 60.01 75.92C57.97 74.46 55.75 73.28 53.4 72.41C53.33 72.39 53.27 72.34 53.24 72.27C53.2 72.21 53.2 72.14 53.22 72.07C53.24 72 53.29 71.94 53.36 71.91C53.42 71.88 53.5 71.87 53.56 71.89C54.5 72.15 55.46 72.27 56.43 72.25C56.51 72.25 56.6 72.23 56.68 72.2C56.76 72.16 56.83 72.11 56.89 72.05L56.76 71.99C54.51 71.04 52.1 70.49 49.65 70.37C48.02 70.34 46.38 70.52 44.79 70.89L44.14 71.01C41.83 71.39 39.48 71.52 37.14 71.39L37.14 76.67C38.45 76.37 39.73 76.07 41.01 75.78C41.34 75.71 41.69 75.61 42.04 75.51C42.82 75.26 43.63 75.1 44.45 75.04L44.55 75.06Z" fill="#30325B" fill-opacity="1.000000" fill-rule="nonzero"/>
	<path id="Vector" d="M51.74 68.6C51.67 68.6 51.6 68.57 51.55 68.52C51.5 68.47 51.47 68.4 51.47 68.33C51.09 60.07 50.14 47.52 50.12 47.4C50.12 47.36 50.12 47.33 50.14 47.29C50.15 47.26 50.16 47.22 50.19 47.2C50.21 47.17 50.24 47.15 50.27 47.13C50.31 47.12 50.34 47.11 50.38 47.1C50.41 47.1 50.45 47.1 50.48 47.12C50.52 47.13 50.55 47.14 50.58 47.17C50.6 47.19 50.63 47.22 50.64 47.25C50.66 47.28 50.67 47.32 50.67 47.36C50.67 47.48 51.63 60.04 52.01 68.31C52.01 68.34 52.01 68.38 52 68.41C51.98 68.45 51.96 68.48 51.94 68.51C51.92 68.53 51.89 68.55 51.85 68.57C51.82 68.58 51.78 68.59 51.75 68.6L51.74 68.6Z" fill="#30325B" fill-opacity="1.000000" fill-rule="nonzero"/>
	<path id="Vector" d="M57.87 0.3L134.08 0.3L134.08 54.78L57.87 54.78L57.87 0.3Z" fill="#FFFFFF" fill-opacity="1.000000" fill-rule="evenodd"/>
	<path id="Vector" d="M134.08 55.08L57.86 55.08C57.79 55.08 57.71 55.05 57.65 54.99C57.6 54.94 57.56 54.86 57.56 54.78L57.56 0.3C57.56 0.22 57.6 0.14 57.65 0.08C57.71 0.03 57.79 0 57.86 0L134.08 0C134.16 0 134.24 0.03 134.29 0.08C134.35 0.14 134.38 0.22 134.38 0.3L134.38 54.78C134.38 54.86 134.35 54.94 134.29 54.99C134.24 55.05 134.16 55.08 134.08 55.08ZM58.17 54.48L133.78 54.48L133.78 0.6L58.16 0.6L58.17 54.48Z" fill="#30325B" fill-opacity="1.000000" fill-rule="nonzero"/>
	<path id="Vector" d="M116.22 37.15C116.16 37.15 116.1 37.13 116.05 37.09C116.01 37.05 115.97 37.01 115.95 36.95L105.9 9.01L94.85 30.56C94.83 30.6 94.79 30.64 94.75 30.67C94.71 30.7 94.66 30.71 94.61 30.72C94.56 30.72 94.51 30.71 94.46 30.69C94.42 30.67 94.38 30.64 94.35 30.6L83.38 16.3L76.49 27.35C76.45 27.42 76.38 27.46 76.3 27.48C76.23 27.5 76.15 27.49 76.08 27.45L70.27 23.95C70.23 23.93 70.2 23.91 70.18 23.87C70.15 23.84 70.14 23.81 70.13 23.77C70.12 23.73 70.12 23.69 70.12 23.65C70.13 23.61 70.14 23.57 70.17 23.54C70.21 23.47 70.27 23.42 70.35 23.4C70.43 23.38 70.51 23.4 70.57 23.44L76.13 26.78L83.1 15.62C83.12 15.57 83.16 15.54 83.2 15.52C83.24 15.49 83.29 15.48 83.34 15.47C83.39 15.47 83.44 15.48 83.48 15.5C83.53 15.52 83.56 15.55 83.59 15.59L94.5 29.86L105.68 8.12C105.7 8.06 105.75 8.02 105.8 7.99C105.85 7.96 105.91 7.95 105.97 7.95C106.03 7.95 106.08 7.97 106.13 8.01C106.18 8.05 106.21 8.1 106.23 8.15L116.25 36.06L121.17 25.66C121.21 25.59 121.27 25.54 121.34 25.52C121.42 25.49 121.5 25.5 121.56 25.53C121.63 25.57 121.69 25.62 121.71 25.69C121.74 25.76 121.74 25.84 121.71 25.91L116.51 36.98C116.48 37.03 116.44 37.08 116.39 37.11C116.34 37.14 116.28 37.15 116.22 37.15Z" fill="#D1D3D4" fill-opacity="1.000000" fill-rule="nonzero"/>
	<path id="Vector" d="M77.61 27.16C77.61 27.93 76.99 28.54 76.23 28.54C75.47 28.54 74.85 27.93 74.85 27.16C74.85 26.4 75.47 25.79 76.23 25.79C76.99 25.79 77.61 26.4 77.61 27.16Z" fill="#FFFFFF" fill-opacity="1.000000" fill-rule="evenodd"/>
	<path id="Vector" d="M76.2 28.84C75.87 28.84 75.55 28.74 75.27 28.56C75 28.38 74.78 28.11 74.65 27.81C74.53 27.5 74.49 27.16 74.56 26.84C74.62 26.51 74.78 26.21 75.02 25.98C75.25 25.74 75.55 25.58 75.88 25.52C76.2 25.45 76.54 25.49 76.85 25.61C77.15 25.74 77.42 25.96 77.6 26.23C77.78 26.51 77.88 26.83 77.88 27.16C77.88 27.61 77.7 28.04 77.39 28.35C77.08 28.66 76.65 28.84 76.2 28.84ZM76.2 26.09C75.99 26.09 75.78 26.15 75.61 26.27C75.43 26.39 75.29 26.56 75.21 26.75C75.13 26.95 75.11 27.17 75.15 27.37C75.19 27.58 75.29 27.78 75.44 27.93C75.59 28.08 75.79 28.18 75.99 28.22C76.2 28.26 76.42 28.24 76.62 28.16C76.81 28.08 76.98 27.94 77.1 27.76C77.22 27.59 77.28 27.38 77.28 27.16C77.28 26.88 77.17 26.61 76.97 26.4C76.76 26.2 76.49 26.09 76.2 26.09Z" fill="#D1D3D4" fill-opacity="1.000000" fill-rule="nonzero"/>
	<path id="Vector" d="M84.73 15.77C84.73 16.53 84.12 17.15 83.36 17.15C82.6 17.15 81.98 16.53 81.98 15.77C81.98 15.01 82.6 14.4 83.36 14.4C84.12 14.4 84.73 15.01 84.73 15.77Z" fill="#FFFFFF" fill-opacity="1.000000" fill-rule="evenodd"/>
	<path id="Vector" d="M83.36 17.45C83.02 17.45 82.7 17.35 82.42 17.17C82.15 16.98 81.93 16.72 81.81 16.41C81.68 16.11 81.65 15.77 81.71 15.44C81.78 15.12 81.94 14.82 82.17 14.59C82.4 14.35 82.7 14.19 83.03 14.13C83.35 14.06 83.69 14.09 84 14.22C84.31 14.35 84.57 14.56 84.75 14.84C84.94 15.12 85.03 15.44 85.03 15.77C85.03 16.22 84.86 16.64 84.54 16.96C84.23 17.27 83.8 17.45 83.36 17.45ZM83.36 14.7C83.14 14.7 82.94 14.76 82.76 14.88C82.58 15 82.44 15.16 82.36 15.36C82.28 15.56 82.26 15.77 82.3 15.98C82.34 16.19 82.44 16.38 82.6 16.53C82.75 16.68 82.94 16.79 83.15 16.83C83.36 16.87 83.57 16.85 83.77 16.77C83.97 16.69 84.13 16.55 84.25 16.37C84.37 16.19 84.43 15.99 84.43 15.77C84.43 15.49 84.32 15.21 84.12 15.01C83.92 14.81 83.64 14.7 83.36 14.7Z" fill="#D1D3D4" fill-opacity="1.000000" fill-rule="nonzero"/>
	<path id="Vector" d="M107.33 8.25C107.33 9.01 106.71 9.63 105.95 9.63C105.19 9.63 104.57 9.01 104.57 8.25C104.57 7.49 105.19 6.88 105.95 6.88C106.71 6.88 107.33 7.49 107.33 8.25Z" fill="#FFFFFF" fill-opacity="1.000000" fill-rule="evenodd"/>
	<path id="Vector" d="M105.95 9.93C105.62 9.93 105.29 9.83 105.02 9.64C104.74 9.46 104.52 9.19 104.4 8.89C104.27 8.58 104.24 8.24 104.3 7.92C104.37 7.59 104.53 7.29 104.76 7.06C105 6.82 105.3 6.66 105.63 6.6C105.95 6.54 106.29 6.57 106.6 6.7C106.9 6.83 107.16 7.04 107.35 7.32C107.53 7.6 107.63 7.92 107.63 8.25C107.63 8.7 107.45 9.12 107.13 9.44C106.82 9.75 106.39 9.93 105.95 9.93ZM105.95 7.18C105.74 7.18 105.53 7.24 105.35 7.36C105.17 7.48 105.04 7.64 104.95 7.84C104.87 8.04 104.85 8.25 104.89 8.46C104.93 8.67 105.04 8.86 105.19 9.01C105.34 9.16 105.53 9.27 105.74 9.31C105.95 9.35 106.16 9.33 106.36 9.25C106.56 9.17 106.73 9.03 106.84 8.85C106.96 8.67 107.03 8.47 107.03 8.25C107.03 7.97 106.91 7.69 106.71 7.49C106.51 7.29 106.23 7.18 105.95 7.18Z" fill="#D1D3D4" fill-opacity="1.000000" fill-rule="nonzero"/>
	<path id="Vector" d="M117.59 36.85C117.59 37.61 116.98 38.23 116.22 38.23C115.46 38.23 114.84 37.61 114.84 36.85C114.84 36.09 115.46 35.47 116.22 35.47C116.98 35.47 117.59 36.09 117.59 36.85Z" fill="#FFFFFF" fill-opacity="1.000000" fill-rule="evenodd"/>
	<path id="Vector" d="M116.22 38.53C115.88 38.53 115.56 38.43 115.28 38.24C115.01 38.06 114.79 37.79 114.66 37.48C114.54 37.18 114.51 36.84 114.57 36.51C114.64 36.19 114.8 35.89 115.04 35.65C115.28 35.42 115.58 35.26 115.9 35.2C116.23 35.14 116.57 35.17 116.88 35.3C117.18 35.44 117.44 35.65 117.62 35.93C117.81 36.21 117.9 36.54 117.9 36.87C117.89 37.31 117.71 37.73 117.4 38.04C117.08 38.35 116.66 38.53 116.22 38.53ZM116.22 35.77C116 35.77 115.8 35.83 115.62 35.95C115.44 36.07 115.31 36.24 115.22 36.43C115.14 36.63 115.12 36.84 115.16 37.05C115.2 37.26 115.3 37.45 115.45 37.6C115.6 37.75 115.79 37.86 115.99 37.9C116.2 37.95 116.42 37.93 116.61 37.85C116.81 37.77 116.98 37.64 117.1 37.46C117.22 37.29 117.29 37.08 117.29 36.87C117.3 36.73 117.27 36.59 117.22 36.45C117.17 36.32 117.09 36.2 116.99 36.09C116.89 35.99 116.77 35.91 116.63 35.86C116.5 35.8 116.36 35.77 116.22 35.77Z" fill="#D1D3D4" fill-opacity="1.000000" fill-rule="nonzero"/>
	<path id="Vector" d="M95.93 30.42C95.93 31.18 95.32 31.8 94.56 31.8C93.8 31.8 93.18 31.18 93.18 30.42C93.18 29.66 93.8 29.04 94.56 29.04C95.32 29.04 95.93 29.66 95.93 30.42Z" fill="#FFFFFF" fill-opacity="1.000000" fill-rule="evenodd"/>
	<path id="Vector" d="M94.56 32.1C94.22 32.1 93.9 32 93.62 31.81C93.35 31.63 93.13 31.37 93.01 31.06C92.88 30.75 92.85 30.42 92.91 30.09C92.98 29.77 93.14 29.47 93.37 29.23C93.6 29 93.9 28.84 94.23 28.77C94.55 28.71 94.89 28.74 95.2 28.87C95.51 29 95.77 29.21 95.95 29.49C96.14 29.76 96.23 30.09 96.23 30.42C96.23 30.86 96.06 31.29 95.74 31.6C95.43 31.92 95 32.09 94.56 32.1ZM94.56 29.34C94.34 29.34 94.14 29.4 93.96 29.52C93.78 29.64 93.64 29.81 93.56 30.01C93.48 30.2 93.46 30.42 93.5 30.63C93.54 30.84 93.64 31.03 93.8 31.18C93.95 31.33 94.14 31.43 94.35 31.47C94.56 31.52 94.77 31.49 94.97 31.41C95.17 31.33 95.33 31.19 95.45 31.02C95.57 30.84 95.63 30.63 95.63 30.42C95.63 30.28 95.61 30.14 95.55 30.01C95.5 29.88 95.42 29.76 95.32 29.66C95.22 29.56 95.1 29.48 94.97 29.42C94.84 29.37 94.7 29.34 94.56 29.34Z" fill="#D1D3D4" fill-opacity="1.000000" fill-rule="nonzero"/>
	<path id="Vector" d="M78.42 9.42L72.04 9.42C71.96 9.42 71.89 9.39 71.83 9.33C71.77 9.28 71.74 9.2 71.74 9.12C71.74 9.04 71.78 8.97 71.83 8.91C71.89 8.85 71.96 8.82 72.04 8.82L78.42 8.82C78.5 8.82 78.58 8.85 78.64 8.91C78.69 8.96 78.72 9.04 78.72 9.12C78.72 9.2 78.69 9.28 78.64 9.33C78.58 9.39 78.5 9.42 78.42 9.42Z" fill="#D1D3D4" fill-opacity="1.000000" fill-rule="nonzero"/>
	<path id="Vector" d="M78.42 11.07L72.04 11.07C71.96 11.07 71.89 11.04 71.83 10.98C71.78 10.93 71.74 10.85 71.74 10.77C71.74 10.69 71.77 10.62 71.83 10.56C71.89 10.5 71.96 10.47 72.04 10.47L78.42 10.47C78.5 10.47 78.58 10.5 78.64 10.56C78.69 10.62 78.72 10.69 78.72 10.77C78.72 10.85 78.69 10.93 78.64 10.99C78.58 11.04 78.5 11.07 78.42 11.07Z" fill="#D1D3D4" fill-opacity="1.000000" fill-rule="nonzero"/>
	<path id="Vector" d="M78.42 12.72L72.04 12.72C71.96 12.72 71.89 12.69 71.83 12.63C71.77 12.58 71.74 12.5 71.74 12.42C71.74 12.34 71.78 12.27 71.83 12.21C71.89 12.15 71.96 12.12 72.04 12.12L78.42 12.12C78.5 12.12 78.58 12.15 78.64 12.21C78.69 12.27 78.72 12.34 78.72 12.42C78.72 12.5 78.69 12.58 78.64 12.63C78.58 12.69 78.5 12.72 78.42 12.72Z" fill="#D1D3D4" fill-opacity="1.000000" fill-rule="nonzero"/>
	<path id="Vector" d="M76.2 14.38L72.06 14.38C71.98 14.38 71.91 14.34 71.85 14.29C71.79 14.23 71.76 14.16 71.76 14.08C71.76 14 71.79 13.92 71.85 13.86C71.9 13.81 71.98 13.78 72.06 13.78L76.2 13.78C76.28 13.78 76.36 13.81 76.42 13.86C76.47 13.92 76.51 14 76.51 14.08C76.5 14.16 76.47 14.23 76.42 14.29C76.36 14.34 76.28 14.38 76.2 14.38Z" fill="#D1D3D4" fill-opacity="1.000000" fill-rule="nonzero"/>
	<path id="Vector" d="M121.52 15.82L115.14 15.82C115.06 15.82 114.98 15.79 114.93 15.73C114.87 15.68 114.84 15.6 114.84 15.52C114.84 15.44 114.87 15.36 114.93 15.31C114.99 15.25 115.06 15.22 115.14 15.22L121.52 15.22C121.6 15.22 121.68 15.25 121.73 15.31C121.79 15.36 121.82 15.44 121.82 15.52C121.82 15.6 121.79 15.68 121.73 15.73C121.68 15.79 121.6 15.82 121.52 15.82Z" fill="#D1D3D4" fill-opacity="1.000000" fill-rule="nonzero"/>
	<path id="Vector" d="M121.52 17.45L115.14 17.45C115.06 17.45 114.98 17.42 114.93 17.36C114.87 17.31 114.84 17.23 114.84 17.15C114.84 17.07 114.87 16.99 114.93 16.94C114.98 16.88 115.06 16.85 115.14 16.85L121.52 16.85C121.6 16.85 121.68 16.88 121.73 16.94C121.79 16.99 121.82 17.07 121.82 17.15C121.82 17.23 121.79 17.31 121.73 17.36C121.68 17.42 121.6 17.45 121.52 17.45Z" fill="#D1D3D4" fill-opacity="1.000000" fill-rule="nonzero"/>
	<path id="Vector" d="M119.37 19.1L115.16 19.1C115.08 19.1 115.01 19.07 114.95 19.01C114.9 18.95 114.86 18.88 114.86 18.8C114.86 18.72 114.9 18.64 114.95 18.59C115.01 18.53 115.08 18.5 115.16 18.5L119.37 18.5C119.45 18.5 119.53 18.53 119.59 18.59C119.64 18.64 119.68 18.72 119.68 18.8C119.68 18.88 119.64 18.95 119.59 19.01C119.53 19.07 119.45 19.1 119.37 19.1Z" fill="#D1D3D4" fill-opacity="1.000000" fill-rule="nonzero"/>
	<path id="Vector" d="M123.29 42.2L68.66 42.2C68.58 42.2 68.5 42.16 68.44 42.11C68.39 42.05 68.36 41.98 68.36 41.9C68.36 41.82 68.39 41.74 68.44 41.68C68.5 41.63 68.58 41.59 68.66 41.59L123.29 41.59C123.37 41.59 123.45 41.63 123.5 41.68C123.56 41.74 123.59 41.82 123.59 41.9C123.59 41.98 123.56 42.05 123.5 42.11C123.45 42.16 123.37 42.2 123.29 42.2Z" fill="#D1D3D4" fill-opacity="1.000000" fill-rule="nonzero"/>
	<path id="Vector" d="M123.29 45.35L68.66 45.35C68.58 45.35 68.5 45.32 68.44 45.26C68.39 45.2 68.36 45.13 68.36 45.05C68.36 44.97 68.39 44.89 68.44 44.83C68.5 44.78 68.58 44.75 68.66 44.75L123.29 44.75C123.37 44.75 123.45 44.78 123.5 44.83C123.56 44.89 123.59 44.97 123.59 45.05C123.59 45.13 123.56 45.2 123.5 45.26C123.45 45.32 123.37 45.35 123.29 45.35Z" fill="#D1D3D4" fill-opacity="1.000000" fill-rule="nonzero"/>
	<path id="Vector" d="M114.28 48.51L68.66 48.51C68.58 48.51 68.5 48.47 68.44 48.42C68.39 48.36 68.36 48.28 68.36 48.2C68.36 48.12 68.39 48.05 68.44 47.99C68.5 47.94 68.58 47.9 68.66 47.9L114.28 47.9C114.36 47.9 114.44 47.94 114.49 47.99C114.55 48.05 114.58 48.12 114.58 48.2C114.58 48.28 114.55 48.36 114.49 48.42C114.44 48.47 114.36 48.51 114.28 48.51Z" fill="#D1D3D4" fill-opacity="1.000000" fill-rule="nonzero"/>
	<path id="Vector" d="" fill="#FFFFFF" fill-opacity="1.000000" fill-rule="nonzero"/>
	<path id="Vector" d="M139.1 139.92L139.05 139.92C138.97 139.9 138.9 139.86 138.86 139.79C138.81 139.73 138.79 139.65 138.8 139.57L146.02 95.9C146.03 95.86 146.04 95.82 146.06 95.79C146.08 95.75 146.11 95.73 146.14 95.7C146.17 95.68 146.21 95.66 146.25 95.65C146.28 95.65 146.33 95.64 146.36 95.65C146.4 95.66 146.44 95.67 146.48 95.69C146.51 95.71 146.54 95.74 146.56 95.77C146.58 95.8 146.6 95.84 146.61 95.88C146.62 95.92 146.62 95.96 146.61 95.99L139.39 139.67C139.38 139.74 139.34 139.8 139.29 139.84C139.24 139.89 139.17 139.91 139.1 139.92Z" fill="#30325B" fill-opacity="1.000000" fill-rule="nonzero"/>
	<path id="Vector" d="" fill="#FFFFFF" fill-opacity="1.000000" fill-rule="nonzero"/>
	<path id="Vector" d="M161.62 139.92C161.55 139.92 161.48 139.89 161.42 139.84C161.37 139.8 161.33 139.73 161.32 139.66L153.97 95.99C153.95 95.91 153.97 95.83 154.02 95.77C154.07 95.7 154.14 95.66 154.21 95.65C154.29 95.63 154.37 95.65 154.44 95.7C154.5 95.74 154.55 95.81 154.56 95.89L161.92 139.56C161.93 139.64 161.91 139.72 161.87 139.78C161.82 139.85 161.75 139.89 161.67 139.91L161.62 139.92Z" fill="#30325B" fill-opacity="1.000000" fill-rule="nonzero"/>
	<path id="Vector" d="M129.07 122.48C130.37 124.5 130.83 126.95 130.34 129.31C129.52 133.3 119.51 139.62 119.51 139.62L132.36 139.62C133.71 139.23 134.97 138.56 136.04 137.64C137.11 136.73 137.97 135.6 138.56 134.32C140.55 129.97 139.1 128.79 139.1 128.79L141.38 131.62L145.26 128.21L137.23 117L129.07 122.48Z" fill="#30325B" fill-opacity="1.000000" fill-rule="nonzero"/>
	<path id="Vector" d="M119.51 139.88C119.46 139.88 119.4 139.86 119.35 139.83C119.31 139.79 119.27 139.74 119.26 139.69C119.24 139.63 119.25 139.57 119.27 139.52C119.28 139.47 119.32 139.42 119.37 139.39C119.47 139.33 129.28 133.09 130.07 129.25C130.55 127.07 130.17 124.79 128.99 122.89C128.92 122.78 128.86 122.67 128.82 122.56C128.8 122.5 128.8 122.44 128.82 122.39C128.84 122.33 128.87 122.28 128.92 122.25L137.07 116.76C137.13 116.73 137.2 116.71 137.27 116.72C137.34 116.74 137.4 116.77 137.44 116.83L145.47 128.04C145.5 128.09 145.52 128.16 145.51 128.22C145.5 128.29 145.47 128.35 145.42 128.39L141.55 131.8C141.52 131.83 141.49 131.84 141.46 131.85C141.42 131.87 141.39 131.87 141.35 131.87C141.32 131.87 141.28 131.86 141.25 131.84C141.22 131.82 141.19 131.8 141.17 131.77L139.86 130.15C139.92 131.06 139.71 132.42 138.79 134.42C138.19 135.74 137.3 136.91 136.2 137.85C135.1 138.79 133.81 139.47 132.41 139.86L119.51 139.88ZM120.4 139.35L132.36 139.35C133.66 138.96 134.86 138.3 135.89 137.41C136.91 136.53 137.74 135.43 138.32 134.21C139.81 130.95 139.31 129.57 139.05 129.15L138.9 128.96C138.86 128.91 138.83 128.85 138.84 128.78C138.84 128.71 138.87 128.65 138.91 128.6C138.96 128.56 139.02 128.53 139.09 128.53C139.16 128.52 139.22 128.55 139.27 128.59C139.36 128.66 139.43 128.75 139.48 128.84L141.41 131.25L144.9 128.17L137.16 117.35L129.42 122.56L129.46 122.62C130.68 124.63 131.09 127.04 130.59 129.34C129.87 132.81 122.77 137.77 120.4 139.35L120.4 139.35Z" fill="#30325B" fill-opacity="1.000000" fill-rule="nonzero"/>
	<path id="Vector" d="M120.6 127.27L115.75 139.61L111.54 139.61L112.24 136.67C112.24 136.67 108.48 139.73 107.54 139.61C106.59 139.49 90.02 139.84 90.02 139.01C90.02 138.17 100.99 133.49 105.32 131.96C109.65 130.43 111.18 125.84 111.18 125.84L120.6 127.27Z" fill="#30325B" fill-opacity="1.000000" fill-rule="nonzero"/>
	<path id="Vector" d="M107.56 139.88L107.48 139.88C107.24 139.85 105.74 139.85 103.84 139.88C95.16 139.88 90.36 139.81 89.84 139.28C89.81 139.25 89.78 139.21 89.76 139.17C89.74 139.12 89.73 139.08 89.73 139.03C89.73 137.83 102.6 132.65 105.22 131.73C109.37 130.26 110.89 125.83 110.91 125.78C110.93 125.72 110.97 125.67 111.02 125.64C111.07 125.61 111.14 125.6 111.2 125.61L120.64 127.01C120.68 127.02 120.72 127.03 120.75 127.06C120.79 127.08 120.81 127.11 120.83 127.15C120.85 127.18 120.86 127.22 120.86 127.26C120.86 127.3 120.85 127.34 120.83 127.37L115.99 139.73C115.97 139.78 115.94 139.82 115.9 139.85C115.85 139.88 115.8 139.9 115.75 139.9L111.54 139.9C111.5 139.9 111.46 139.89 111.42 139.87C111.39 139.85 111.35 139.83 111.33 139.8C111.3 139.77 111.29 139.73 111.28 139.69C111.27 139.65 111.27 139.61 111.28 139.57L111.81 137.38C110.63 138.25 108.43 139.88 107.56 139.88ZM105.61 139.31C106.73 139.31 107.36 139.31 107.55 139.34C108.11 139.43 110.53 137.7 112.05 136.46C112.09 136.43 112.15 136.41 112.2 136.41C112.26 136.41 112.32 136.43 112.36 136.46C112.41 136.49 112.44 136.54 112.46 136.59C112.48 136.64 112.49 136.7 112.48 136.75L111.87 139.36L115.59 139.36L120.26 127.5L111.36 126.17C111 127.11 109.33 130.85 105.41 132.23C100.94 133.81 91.58 137.88 90.38 138.97C91.75 139.37 99.86 139.35 103.85 139.34L105.61 139.31Z" fill="#30325B" fill-opacity="1.000000" fill-rule="nonzero"/>
	<path id="Vector" d="M139.1 79.15C139.1 79.15 102.41 82.36 102.11 91.53C101.81 100.69 129.38 124.76 129.38 124.76L139.1 116.45C139.1 116.45 115.14 96.05 118.65 92.53C122.15 89 130.94 92.02 130.94 92.02L139.1 79.15Z" fill="#30325B" fill-opacity="1.000000" fill-rule="nonzero"/>
	<path id="Vector" d="M129.38 125.02C129.32 125.02 129.26 125 129.21 124.96C129.14 124.9 122.23 118.85 115.45 111.77C106.3 102.21 101.72 95.39 101.84 91.52C102.14 82.22 137.57 79.01 139.08 78.89C139.13 78.88 139.18 78.89 139.22 78.91C139.27 78.94 139.3 78.97 139.33 79.01C139.35 79.06 139.37 79.1 139.37 79.15C139.37 79.2 139.35 79.25 139.33 79.29L131.19 92.17C131.16 92.22 131.11 92.26 131.05 92.28C130.99 92.3 130.93 92.3 130.88 92.28C130.79 92.28 122.23 89.35 118.85 92.72C118.74 92.83 118.66 92.97 118.62 93.11C118.57 93.25 118.55 93.41 118.57 93.56C118.78 98.76 139.06 116.08 139.26 116.25C139.32 116.31 139.35 116.38 139.36 116.46C139.36 116.5 139.35 116.53 139.33 116.57C139.31 116.6 139.29 116.63 139.26 116.66L129.54 124.96C129.5 125 129.44 125.02 129.38 125.02ZM138.59 79.46C134.07 79.9 102.63 83.3 102.37 91.54C102.11 100.1 127.03 122.35 129.38 124.41L138.69 116.45C136.29 114.39 118.24 98.76 118.05 93.59C118.03 93.37 118.06 93.15 118.13 92.93C118.21 92.72 118.32 92.53 118.48 92.36C121.83 89.02 129.48 91.28 130.85 91.72L138.59 79.46Z" fill="#30325B" fill-opacity="1.000000" fill-rule="nonzero"/>
	<path id="Vector" d="M161.18 83.15C161.18 83.15 158.98 91.29 155.35 92.23C151.72 93.18 140.68 95.76 136.56 97.65C132.44 99.54 123.03 128.21 123.03 128.21L106.92 128.21C106.92 128.21 121.55 96.33 125.31 90.92C129.07 85.5 136.56 80.35 136.56 80.35L161.18 83.15Z" fill="#30325B" fill-opacity="1.000000" fill-rule="nonzero"/>
	<path id="Vector" d="M123.03 128.47L106.92 128.47C106.88 128.47 106.84 128.46 106.8 128.44C106.76 128.42 106.72 128.39 106.7 128.35C106.68 128.31 106.67 128.27 106.67 128.22C106.67 128.18 106.68 128.14 106.7 128.1C107.3 126.79 121.37 96.11 125.11 90.75C128.84 85.38 136.35 80.18 136.41 80.12C136.43 80.1 136.46 80.08 136.49 80.08C136.53 80.07 136.56 80.07 136.59 80.07L161.21 82.89C161.25 82.9 161.28 82.91 161.32 82.93C161.35 82.95 161.38 82.98 161.4 83.01C161.42 83.04 161.44 83.08 161.44 83.11C161.45 83.15 161.45 83.19 161.44 83.22C161.34 83.56 159.15 91.52 155.42 92.49L153.05 93.09C148.2 94.29 140.08 96.33 136.67 97.9C133.5 99.35 126.53 118.42 123.29 128.31C123.27 128.36 123.23 128.4 123.19 128.43C123.14 128.46 123.09 128.47 123.03 128.47ZM107.34 127.94L122.84 127.94C123.72 125.27 132.4 99.25 136.44 97.4C139.9 95.82 148.05 93.79 152.91 92.58L155.28 91.98C158.34 91.19 160.4 84.85 160.84 83.39L136.63 80.61C135.81 81.22 129 86.03 125.52 91.06C122.04 96.08 109 124.34 107.34 127.94Z" fill="#30325B" fill-opacity="1.000000" fill-rule="nonzero"/>
	<path id="Vector" d="M159.69 70.36C159.58 71.14 159.51 71.92 159.46 72.69C159.2 77.02 159.64 81.41 158.8 85.67C158.71 86.44 158.39 87.17 157.89 87.76C157.43 88.15 156.89 88.44 156.31 88.58C152.85 89.65 149.14 89.5 145.58 90.13C142.02 90.77 138.27 92.54 136.94 95.9C136.84 96.08 136.78 96.28 136.77 96.49C136.76 96.7 136.8 96.91 136.89 97.1C137.07 97.33 137.32 97.5 137.6 97.59C140.29 98.63 143.69 97.94 146.53 97.93C150.52 97.93 154.5 97.79 158.48 97.5C159.84 97.48 161.2 97.21 162.47 96.7C167.03 94.56 168.23 87.54 168.76 83.15C169.55 76.66 169.91 70.12 169.83 63.58C169.83 61.6 169.14 58.97 167.15 58.95C165.16 58.94 162.5 62.51 161.62 64.11C160.6 66.06 159.95 68.18 159.69 70.36Z" fill="#FFFFFF" fill-opacity="1.000000" fill-rule="nonzero"/>
	<path id="Vector" d="M141.37 98.47C140.05 98.51 138.73 98.3 137.49 97.86C137.15 97.76 136.84 97.55 136.63 97.26C136.52 97.03 136.46 96.78 136.46 96.53C136.46 96.27 136.52 96.02 136.63 95.8C138.32 91.58 143.4 90.23 145.5 89.85C146.91 89.59 148.35 89.47 149.76 89.34C151.93 89.22 154.09 88.87 156.19 88.3C156.73 88.17 157.23 87.92 157.65 87.55C158.11 87 158.4 86.33 158.48 85.61C158.93 82.87 159.11 80.09 159.03 77.31C159.03 75.79 159.03 74.22 159.13 72.67C159.18 71.86 159.26 71.07 159.36 70.33C159.63 68.09 160.3 65.93 161.35 63.94C162.11 62.56 164.8 58.63 167.14 58.63C169.29 58.63 170.09 61.29 170.15 63.56C170.22 70.12 169.86 76.67 169.06 83.19C168.46 88.08 167.15 94.84 162.59 96.98C161.29 97.51 159.9 97.79 158.5 97.8C154.53 98.08 150.5 98.23 146.53 98.24C145.76 98.24 144.96 98.3 144.13 98.35C143.29 98.41 142.27 98.47 141.37 98.47ZM159.98 70.41C159.88 71.13 159.81 71.9 159.76 72.7C159.67 74.23 159.66 75.8 159.66 77.31C159.74 80.12 159.55 82.94 159.1 85.73C159 86.56 158.65 87.34 158.1 87.98C157.61 88.4 157.03 88.71 156.4 88.87C154.25 89.45 152.05 89.81 149.83 89.93C148.45 90.06 147.01 90.19 145.62 90.44C143.62 90.79 138.78 92.05 137.2 96.01C137.12 96.15 137.07 96.31 137.06 96.47C137.05 96.63 137.07 96.79 137.13 96.94C137.28 97.11 137.47 97.24 137.7 97.31C139.59 98.04 141.86 97.91 144.06 97.74C144.92 97.69 145.73 97.64 146.52 97.63C150.48 97.63 154.49 97.47 158.44 97.2C159.77 97.18 161.09 96.92 162.32 96.43C166.61 94.42 167.87 87.87 168.45 83.11C169.24 76.63 169.6 70.11 169.52 63.59C169.52 61.99 168.97 59.27 167.12 59.25C165.23 59.25 162.72 62.68 161.86 64.25C160.85 66.17 160.21 68.26 159.96 70.41L159.98 70.41Z" fill="#30325B" fill-opacity="1.000000" fill-rule="nonzero"/>
	<path id="Vector" d="M148.31 25.52C148.31 25.52 143.78 38.47 141.77 41.16L153.52 45.56L155.72 24.66L148.31 25.52Z" fill="#FFFFFF" fill-opacity="1.000000" fill-rule="nonzero"/>
	<path id="Vector" d="M153.52 45.89C153.48 45.9 153.44 45.9 153.41 45.89L141.66 41.5C141.62 41.48 141.58 41.45 141.55 41.42C141.51 41.39 141.49 41.34 141.48 41.3C141.46 41.26 141.46 41.21 141.47 41.16C141.48 41.12 141.49 41.07 141.52 41.03C143.49 38.4 147.99 25.59 148.03 25.46C148.05 25.4 148.08 25.36 148.13 25.32C148.17 25.29 148.23 25.26 148.28 25.26L155.69 24.42C155.74 24.42 155.78 24.42 155.82 24.43C155.87 24.45 155.9 24.47 155.93 24.51C155.97 24.54 155.99 24.57 156.01 24.62C156.02 24.66 156.03 24.71 156.02 24.75L153.8 45.61C153.79 45.66 153.78 45.7 153.75 45.74C153.73 45.78 153.7 45.81 153.66 45.83C153.62 45.87 153.57 45.89 153.52 45.89ZM142.23 41.05L153.26 45.17L155.39 25.03L148.53 25.81C147.98 27.37 144.22 37.95 142.23 41.03L142.23 41.05Z" fill="#30325B" fill-opacity="1.000000" fill-rule="nonzero"/>
	<path id="Vector" d="M111.63 50.95C111.63 50.95 108.99 48.1 108.83 47.08C108.67 46.06 108.45 42.49 107.59 43.12C106.72 43.74 106.92 46.29 106.92 46.29C106.92 46.29 103.31 41.98 102.27 42.91C101.23 43.83 100.78 44.71 100.7 46.62C100.63 48.52 109.69 56.37 109.69 56.37L111.63 50.95Z" fill="#FFFFFF" fill-opacity="1.000000" fill-rule="nonzero"/>
	<path id="Vector" d="M109.69 56.67C109.62 56.67 109.55 56.65 109.49 56.6C108.55 55.78 100.33 48.57 100.4 46.6C100.48 44.64 100.91 43.7 102.08 42.68C102.26 42.53 102.49 42.46 102.73 42.48C103.84 42.57 105.67 44.43 106.6 45.49C106.6 44.63 106.76 43.36 107.41 42.89C107.49 42.83 107.59 42.78 107.7 42.77C107.81 42.75 107.91 42.77 108.01 42.81C108.57 43.06 108.79 44.18 109.04 46.32C109.08 46.62 109.11 46.88 109.14 47.06C109.25 47.74 110.86 49.7 111.86 50.77C111.89 50.8 111.91 50.83 111.93 50.87C111.94 50.91 111.95 50.95 111.95 50.99C111.95 51.03 111.94 51.07 111.93 51.1C111.91 51.14 111.89 51.17 111.86 51.2C111.81 51.26 111.73 51.29 111.65 51.29C111.57 51.29 111.5 51.26 111.44 51.2C111.16 50.9 108.73 48.25 108.56 47.17C108.53 46.98 108.5 46.71 108.46 46.4C108.38 45.7 108.13 43.56 107.79 43.39C107.26 43.8 107.19 45.4 107.25 46.32C107.26 46.39 107.24 46.45 107.21 46.5C107.18 46.56 107.13 46.6 107.07 46.62C107.01 46.65 106.94 46.65 106.88 46.64C106.82 46.62 106.76 46.59 106.72 46.54C105.96 45.62 103.72 43.21 102.71 43.13C102.68 43.13 102.64 43.13 102.6 43.14C102.56 43.15 102.53 43.16 102.5 43.19C101.47 44.09 101.1 44.99 101.03 46.68C100.99 47.95 106.45 53.19 109.92 56.2C109.98 56.25 110.02 56.33 110.02 56.41C110.03 56.49 110 56.56 109.95 56.63C109.91 56.65 109.87 56.67 109.83 56.68C109.78 56.69 109.73 56.68 109.69 56.67Z" fill="#30325B" fill-opacity="1.000000" fill-rule="nonzero"/>
	<path id="Vector" d="M106.68 50.22C106.62 50.22 106.56 50.2 106.51 50.17C106.46 50.14 106.42 50.1 106.4 50.05C106.11 49.42 105.99 48.73 106.04 48.05C106.09 47.36 106.31 46.7 106.68 46.12C106.72 46.05 106.79 46.01 106.87 45.99C106.95 45.98 107.03 46 107.1 46.05C107.16 46.09 107.21 46.16 107.22 46.24C107.23 46.32 107.22 46.4 107.17 46.47C106.86 46.96 106.68 47.52 106.64 48.1C106.6 48.69 106.7 49.27 106.95 49.8C106.98 49.87 106.98 49.95 106.95 50.03C106.93 50.1 106.87 50.16 106.8 50.2C106.76 50.21 106.72 50.22 106.68 50.22Z" fill="#30325B" fill-opacity="1.000000" fill-rule="nonzero"/>
	<path id="Vector" d="M164.92 79.15C164.54 80.35 163.33 81.13 161.61 81.62C161.35 82.6 161.18 83.15 161.18 83.15L132.67 79.89L138.2 60.96C138.2 60.96 134.47 66.35 129.65 68.75C124.84 71.16 107.31 54.97 107.31 54.97L111.63 48.96C116.83 52.63 122.52 55.57 128.53 57.68C136.9 50.01 141.8 44.82 144.17 44.73C150.6 44.49 155.96 44.16 161.16 47.57C163.92 49.37 164.26 48.31 164.9 52.33C165.16 54 165.3 55.69 165.31 57.38L165.31 57.46C165.79 63.98 166.28 74.87 164.92 79.15Z" fill="#FF5A57" fill-opacity="1.000000" fill-rule="nonzero"/>
	<path id="Vector" d="M158.13 47.06L161.18 47.56L155.81 54.36C151.77 59.45 146.9 65.58 146.62 65.79C146.35 66 145.46 57.74 144.82 51.5C144.45 47.75 144.17 44.75 144.17 44.75L149.59 45.65L150.56 41.4C150.56 41.4 146.64 41.44 146.59 38.48C146.58 36.93 146.72 35.38 146.99 33.85C147.42 31.29 148.63 28.62 149.39 26.11C150.12 26.01 150.85 26.04 151.57 26.18C151.57 26.18 153.14 26.41 152.82 25.91C153.05 25.96 156.86 27.05 161.17 27.93C160.37 31.76 159.74 36.1 159.67 36.55L158.13 47.06Z" fill="#FFFFFF" fill-opacity="1.000000" fill-rule="nonzero"/>
	<path id="Vector" d="M146.58 66.08C146.54 66.08 146.5 66.07 146.46 66.05C146.19 65.94 145.93 65.82 144.51 51.52C144.14 47.77 143.87 44.76 143.87 44.76C143.87 44.71 143.87 44.67 143.89 44.62C143.91 44.58 143.93 44.54 143.96 44.51C144 44.48 144.04 44.46 144.08 44.44C144.13 44.43 144.17 44.43 144.22 44.43L149.37 45.29L150.2 41.68C148.69 41.59 146.34 40.85 146.3 38.48C146.29 36.91 146.43 35.35 146.71 33.8C147.05 32.07 147.55 30.38 148.19 28.73C148.5 27.84 148.83 26.93 149.09 26.02C149.11 25.97 149.14 25.92 149.18 25.88C149.23 25.84 149.28 25.82 149.34 25.81C150.09 25.71 150.86 25.74 151.6 25.88C151.9 25.93 152.2 25.94 152.5 25.92C152.5 25.85 152.52 25.79 152.57 25.73C152.6 25.68 152.65 25.64 152.7 25.62C152.76 25.6 152.82 25.6 152.88 25.61L153.13 25.68C155.99 26.47 158.72 27.13 161.21 27.64C161.25 27.65 161.29 27.66 161.32 27.68C161.36 27.71 161.38 27.73 161.41 27.77C161.43 27.8 161.44 27.84 161.45 27.88C161.46 27.92 161.46 27.96 161.45 27.99C160.79 31.15 160.25 34.68 159.97 36.51L158.45 46.81L161.2 47.28C161.25 47.29 161.3 47.31 161.34 47.34C161.38 47.37 161.42 47.42 161.44 47.46C161.46 47.51 161.46 47.57 161.45 47.62C161.44 47.67 161.42 47.72 161.39 47.76L156.02 54.56C148.6 63.91 147 65.88 146.78 66.03C146.72 66.07 146.65 66.08 146.58 66.08ZM144.5 45.09C144.59 46.02 144.82 48.51 145.11 51.46C146.05 61.01 146.5 64.22 146.7 65.21C148.03 63.63 153.39 56.88 155.54 54.17L160.6 47.78L158.05 47.35C157.97 47.34 157.9 47.29 157.86 47.23C157.81 47.17 157.79 47.09 157.8 47.01L159.37 36.4C159.63 34.6 160.16 31.25 160.79 28.16C158.39 27.65 155.79 27.02 153.06 26.27L153.03 26.31C152.73 26.62 151.83 26.52 151.49 26.46C150.87 26.34 150.24 26.3 149.61 26.36C149.35 27.2 149.04 28.07 148.75 28.91C148.12 30.53 147.63 32.19 147.29 33.89C147.02 35.4 146.89 36.93 146.89 38.46C146.94 41.08 150.41 41.08 150.57 41.08C150.66 41.09 150.74 41.13 150.8 41.19C150.83 41.23 150.85 41.27 150.86 41.31C150.87 41.35 150.87 41.4 150.86 41.44L149.88 45.7C149.87 45.77 149.82 45.84 149.76 45.88C149.69 45.92 149.62 45.94 149.54 45.92L144.5 45.09Z" fill="#30325B" fill-opacity="1.000000" fill-rule="nonzero"/>
	<path id="Vector" d="M152.19 36.33C151.74 36.33 150.77 36.26 150.42 35.68C150.06 35.1 151.37 33.43 152.58 32.19C152.6 32.16 152.64 32.14 152.67 32.12C152.71 32.1 152.75 32.09 152.79 32.09C152.83 32.08 152.88 32.09 152.91 32.11C152.95 32.12 152.99 32.14 153.02 32.17C153.05 32.2 153.07 32.24 153.09 32.28C153.1 32.31 153.11 32.36 153.11 32.4C153.11 32.44 153.1 32.48 153.08 32.52C153.06 32.55 153.03 32.59 153 32.61C151.85 33.82 150.88 35.09 150.94 35.39C151.13 35.69 151.99 35.75 152.37 35.72C152.45 35.72 152.53 35.75 152.59 35.8C152.65 35.85 152.69 35.93 152.69 36.01C152.7 36.09 152.67 36.16 152.62 36.22C152.56 36.28 152.49 36.32 152.41 36.33L152.19 36.33Z" fill="#30325B" fill-opacity="1.000000" fill-rule="nonzero"/>
	<path id="Vector" d="M150.75 30.7C150.93 30.74 151.01 31.05 150.93 31.39C150.85 31.74 150.64 31.98 150.46 31.94C150.28 31.9 150.2 31.59 150.28 31.24C150.35 30.9 150.57 30.65 150.75 30.7Z" fill="#30325B" fill-opacity="1.000000" fill-rule="evenodd"/>
	<path id="Vector" d="M155.48 32.03C155.66 32.07 155.74 32.38 155.66 32.73C155.58 33.07 155.37 33.32 155.19 33.27C155.01 33.23 154.93 32.92 155.01 32.58C155.09 32.23 155.3 31.99 155.48 32.03Z" fill="#30325B" fill-opacity="1.000000" fill-rule="evenodd"/>
	<path id="Vector" d="M151.69 29.85L152.29 28.64L152.73 30.07L156.46 31.18L157.52 29.66L157.41 31.72L159.37 31.92C159.37 31.92 155.67 41.14 155.81 46.87C155.81 46.87 166.9 49.93 169.78 47.95C169.78 47.95 166.63 36.6 166.77 32.06C166.92 27.52 166.65 23.64 161.25 21.57C155.86 19.5 151.99 20.14 149.14 22.61C148.3 23.38 147.63 24.3 147.16 25.34C146.69 26.37 146.44 27.49 146.42 28.63C146.42 28.63 150.56 29.75 151.69 29.85Z" fill="#FFFFFF" fill-opacity="1.000000" fill-rule="nonzero"/>
	<path id="Vector" d="M166.46 48.9C162.16 48.9 156.08 47.25 155.74 47.15C155.68 47.13 155.62 47.1 155.58 47.05C155.54 47 155.52 46.93 155.52 46.87C155.39 41.73 158.25 33.97 158.95 32.18L157.41 32.02C157.33 32.01 157.26 31.97 157.21 31.92C157.16 31.86 157.13 31.78 157.14 31.71L157.19 30.7L156.76 31.34C156.73 31.39 156.68 31.44 156.62 31.46C156.56 31.48 156.49 31.48 156.43 31.47L152.7 30.36C152.65 30.35 152.61 30.32 152.57 30.29C152.54 30.25 152.51 30.21 152.5 30.16L152.27 29.43L151.98 29.99C151.95 30.04 151.91 30.08 151.86 30.11C151.81 30.14 151.75 30.15 151.69 30.15C150.54 30.04 146.53 28.98 146.36 28.95C146.3 28.93 146.25 28.89 146.21 28.84C146.17 28.79 146.14 28.73 146.14 28.67C146.15 27.49 146.41 26.32 146.9 25.24C147.38 24.16 148.09 23.19 148.97 22.4C152.08 19.69 156.26 19.32 161.39 21.31C166.92 23.45 167.25 27.46 167.1 32.08C166.96 36.54 170.07 47.77 170.11 47.89C170.13 47.95 170.13 48.01 170.11 48.07C170.09 48.13 170.05 48.18 170 48.22C169.2 48.72 167.94 48.9 166.46 48.9ZM156.12 46.63C157.64 47.03 166.69 49.32 169.44 47.83C168.99 46.19 166.34 36.31 166.48 32.07C166.62 27.52 166.32 23.87 161.15 21.84C156.17 19.91 152.31 20.24 149.34 22.82C147.77 24.26 146.83 26.27 146.72 28.4C147.55 28.61 150.39 29.35 151.54 29.51L152.07 28.49C152.09 28.44 152.14 28.4 152.19 28.37C152.24 28.34 152.3 28.33 152.36 28.33C152.42 28.34 152.47 28.36 152.52 28.4C152.57 28.44 152.6 28.49 152.62 28.54L153.02 29.81L156.38 30.81L157.29 29.45C157.32 29.39 157.38 29.35 157.44 29.33C157.5 29.31 157.57 29.31 157.63 29.33C157.7 29.35 157.75 29.39 157.79 29.44C157.83 29.5 157.84 29.56 157.84 29.63L157.74 31.44L159.42 31.61C159.47 31.61 159.51 31.63 159.55 31.65C159.59 31.68 159.63 31.71 159.65 31.75C159.67 31.8 159.68 31.84 159.68 31.89C159.68 31.93 159.67 31.98 159.65 32.02C159.62 32.12 156.08 41.02 156.12 46.64L156.12 46.63Z" fill="#30325B" fill-opacity="1.000000" fill-rule="nonzero"/>
	<path id="Vector" d="M151.48 38.39C149.73 38.39 148.48 36.88 148.4 36.82C148.38 36.79 148.36 36.75 148.35 36.72C148.33 36.68 148.33 36.64 148.33 36.6C148.33 36.56 148.35 36.52 148.36 36.49C148.38 36.45 148.41 36.42 148.44 36.39C148.47 36.37 148.5 36.35 148.54 36.34C148.58 36.32 148.62 36.32 148.65 36.32C148.69 36.33 148.73 36.34 148.77 36.35C148.8 36.37 148.83 36.4 148.86 36.43C148.86 36.43 150.01 37.79 151.48 37.79L151.52 37.79C152.41 37.79 153.24 37.28 154.02 36.28C154.07 36.22 154.14 36.18 154.22 36.18C154.29 36.17 154.37 36.19 154.43 36.24C154.49 36.28 154.53 36.35 154.54 36.43C154.56 36.5 154.54 36.58 154.5 36.64C153.6 37.79 152.6 38.37 151.52 38.39L151.48 38.39Z" fill="#30325B" fill-opacity="1.000000" fill-rule="nonzero"/>
	<path id="Vector" d="M150.6 41.38C150.6 41.38 153.7 41.31 155.02 40.5C155.02 40.5 153.12 44.55 149.61 45.82L150.6 41.38Z" fill="#30325B" fill-opacity="1.000000" fill-rule="nonzero"/>
	<path id="Vector" d="M149.59 46.12C149.55 46.12 149.51 46.11 149.48 46.1C149.45 46.08 149.42 46.06 149.39 46.04C149.35 46 149.32 45.96 149.31 45.91C149.29 45.86 149.29 45.8 149.3 45.75L150.32 41.32C150.33 41.25 150.37 41.19 150.42 41.15C150.47 41.11 150.53 41.09 150.6 41.08C150.63 41.08 153.64 41 154.87 40.24C154.92 40.21 154.99 40.19 155.06 40.2C155.12 40.21 155.18 40.23 155.23 40.28C155.28 40.32 155.31 40.38 155.32 40.44C155.33 40.5 155.32 40.57 155.3 40.63C155.22 40.79 153.3 44.8 149.69 46.1C149.66 46.11 149.62 46.12 149.59 46.12ZM150.85 41.67L150.01 45.32C152.18 44.32 153.66 42.25 154.34 41.11C153.2 41.44 152.03 41.64 150.84 41.68L150.85 41.67Z" fill="#30325B" fill-opacity="1.000000" fill-rule="nonzero"/>
	<path id="Vector" d="M155 82.45C149.87 82.37 144.75 81.94 139.68 81.16C139.62 81.15 139.56 81.12 139.51 81.07C139.46 81.03 139.44 80.97 139.43 80.9L138.83 75.26C138.82 75.19 138.84 75.12 138.88 75.06C138.92 75 138.97 74.95 139.04 74.94C139.64 74.77 153.54 71.02 155.77 71.16C155.82 71.16 155.87 71.15 155.91 71.13C155.96 71.11 156 71.08 156.03 71.04C157.3 69.84 157.3 62.09 157.19 59.21C157.19 59.13 157.22 59.06 157.28 59C157.34 58.94 157.41 58.91 157.49 58.91C157.57 58.91 157.65 58.94 157.7 59C157.76 59.06 157.79 59.13 157.79 59.21C157.83 60.29 158.14 69.86 156.45 71.49C156.35 71.59 156.24 71.67 156.12 71.72C155.99 71.76 155.86 71.79 155.73 71.78C154.07 71.66 144.49 74.1 139.45 75.46L140.02 80.63C141.88 80.91 154.65 82.76 161.58 81.35C161.61 81.34 161.65 81.34 161.69 81.35C161.73 81.35 161.77 81.37 161.8 81.39C161.83 81.41 161.86 81.44 161.89 81.47C161.91 81.51 161.92 81.54 161.93 81.58C161.94 81.62 161.94 81.66 161.93 81.7C161.92 81.74 161.91 81.78 161.89 81.81C161.87 81.84 161.84 81.87 161.81 81.89C161.77 81.91 161.74 81.93 161.7 81.94C159.49 82.33 157.24 82.5 155 82.45Z" fill="#30325B" fill-opacity="1.000000" fill-rule="nonzero"/>
	<path id="Vector" d="M155.81 54.36C151.77 59.45 146.9 65.58 146.62 65.79C146.35 66 145.46 57.74 144.82 51.5L155.81 54.36Z" fill="#30325B" fill-opacity="1.000000" fill-rule="nonzero"/>
	<path id="Vector" d="M146.58 66.07C146.54 66.08 146.5 66.08 146.46 66.07C146.19 65.95 145.93 65.85 144.52 51.54C144.51 51.49 144.52 51.45 144.53 51.4C144.55 51.36 144.58 51.32 144.62 51.28C144.66 51.25 144.7 51.23 144.75 51.22C144.79 51.21 144.84 51.21 144.89 51.22L155.86 54.09C155.91 54.11 155.95 54.13 155.99 54.17C156.03 54.2 156.06 54.24 156.07 54.29C156.09 54.34 156.09 54.39 156.08 54.44C156.07 54.49 156.05 54.53 156.02 54.57C148.6 63.92 147 65.89 146.78 66.04C146.72 66.07 146.65 66.08 146.58 66.07ZM145.18 51.91C146.09 61.14 146.53 64.26 146.73 65.24C148.01 63.73 152.99 57.46 155.29 54.56L145.18 51.91Z" fill="#30325B" fill-opacity="1.000000" fill-rule="nonzero"/>
	<path id="Vector" d="M138.85 75.31C138.85 75.31 133.55 74.87 131.16 75.98C128.78 77.1 126.3 78.48 126.85 79.38C127.4 80.28 139.96 80.88 139.96 80.88L138.85 75.31Z" fill="#FFFFFF" fill-opacity="1.000000" fill-rule="nonzero"/>
	<path id="Vector" d="M139.96 81.19C136.14 81 127.18 80.47 126.61 79.54C126.55 79.43 126.51 79.32 126.49 79.2C126.48 79.08 126.49 78.96 126.53 78.85C126.68 78.33 127.32 77.44 131.04 75.71C133.45 74.58 138.67 75 138.86 75.02C138.93 75.02 138.99 75.05 139.04 75.09C139.09 75.14 139.12 75.2 139.13 75.26L140.25 80.82C140.26 80.87 140.26 80.91 140.25 80.96C140.24 81 140.22 81.04 140.19 81.08C140.16 81.11 140.12 81.14 140.08 81.16C140.04 81.18 140 81.19 139.95 81.19L139.96 81.19ZM136.41 75.53C134.73 75.53 132.56 75.66 131.29 76.25C127.89 77.84 127.2 78.66 127.08 79.02C127.06 79.05 127.06 79.09 127.06 79.12C127.06 79.16 127.06 79.19 127.08 79.22C127.58 79.69 133.75 80.27 139.56 80.57L138.57 75.6C138.23 75.57 137.4 75.53 136.41 75.53Z" fill="#30325B" fill-opacity="1.000000" fill-rule="nonzero"/>
	<path id="Vector" d="M2.42 80.33L177.66 80.33L177.66 85.64L2.42 85.64L2.42 80.33Z" fill="#FFFFFF" fill-opacity="1.000000" fill-rule="evenodd"/>
	<path id="Vector" d="M177.66 85.94L2.42 85.94C2.34 85.94 2.26 85.91 2.21 85.86C2.15 85.8 2.12 85.72 2.12 85.64L2.12 80.33C2.12 80.25 2.15 80.17 2.21 80.12C2.26 80.06 2.34 80.03 2.42 80.03L177.66 80.03C177.74 80.03 177.82 80.06 177.87 80.12C177.93 80.17 177.96 80.25 177.96 80.33L177.96 85.64C177.96 85.72 177.93 85.8 177.87 85.86C177.82 85.91 177.74 85.94 177.66 85.94ZM2.72 85.34L177.36 85.34L177.36 80.63L2.72 80.63L2.72 85.34Z" fill="#30325B" fill-opacity="1.000000" fill-rule="nonzero"/>
	<path id="Vector" d="M52.77 80.11L58.77 60.08L83.93 60.08L78.59 79.94L52.77 80.11Z" fill="#FFFFFF" fill-opacity="1.000000" fill-rule="nonzero"/>
	<path id="Vector" d="M52.75 80.41C52.7 80.41 52.65 80.4 52.61 80.38C52.57 80.36 52.53 80.33 52.51 80.29C52.48 80.25 52.46 80.21 52.45 80.16C52.45 80.12 52.45 80.07 52.46 80.02L58.48 60C58.5 59.94 58.53 59.88 58.59 59.84C58.64 59.81 58.7 59.78 58.77 59.78L83.93 59.78C83.98 59.79 84.02 59.8 84.06 59.82C84.11 59.84 84.14 59.87 84.17 59.9C84.2 59.94 84.22 59.98 84.23 60.03C84.24 60.07 84.23 60.12 84.22 60.16L78.88 80.01C78.86 80.08 78.83 80.13 78.78 80.17C78.72 80.21 78.66 80.24 78.59 80.24L52.78 80.4L52.75 80.41ZM58.97 60.39L53.15 79.81L78.34 79.65L83.51 60.4L58.97 60.39Z" fill="#30325B" fill-opacity="1.000000" fill-rule="nonzero"/>
	<path id="Vector" d="M115.01 111.23L114.94 111.23C114.9 111.22 114.86 111.21 114.82 111.18C114.79 111.16 114.76 111.13 114.74 111.09C114.72 111.06 114.7 111.02 114.7 110.98C114.69 110.94 114.69 110.9 114.7 110.86C115.74 107.1 120.55 98.83 120.75 98.49C120.79 98.42 120.86 98.37 120.94 98.35C121.02 98.33 121.1 98.34 121.17 98.38C121.23 98.42 121.28 98.49 121.3 98.57C121.32 98.64 121.31 98.72 121.27 98.79C121.22 98.88 116.3 107.34 115.25 111.01C115.24 111.07 115.21 111.12 115.17 111.16C115.12 111.2 115.07 111.22 115.01 111.23Z" fill="#FFFFFF" fill-opacity="1.000000" fill-rule="nonzero"/>
	<path id="Vector" d="M71.71 67.16C72.45 68.08 71.93 69.73 70.54 70.85C69.15 71.98 67.43 72.15 66.69 71.24C65.95 70.32 66.47 68.67 67.86 67.55C69.25 66.42 70.97 66.25 71.71 67.16Z" fill="#FF5A57" fill-opacity="1.000000" fill-rule="evenodd"/>
	<path id="Vector" d="M55.24 113.98C55.19 113.98 55.14 113.97 55.09 113.95C55.06 113.93 55.03 113.9 55 113.87C54.98 113.84 54.96 113.81 54.95 113.77C54.94 113.73 54.93 113.69 54.94 113.65C54.94 113.61 54.95 113.57 54.97 113.54C60.02 104.34 67.33 90 66.76 88.28C66.75 88.24 66.74 88.2 66.75 88.16C66.75 88.12 66.76 88.08 66.78 88.05C66.79 88.01 66.82 87.98 66.85 87.95C66.88 87.93 66.92 87.91 66.95 87.9C67.03 87.87 67.11 87.88 67.18 87.92C67.25 87.95 67.31 88.01 67.33 88.09C68.16 90.65 56.8 111.49 55.5 113.85C55.47 113.9 55.43 113.93 55.39 113.95C55.34 113.98 55.29 113.99 55.24 113.98Z" fill="#FFFFFF" fill-opacity="1.000000" fill-rule="nonzero"/>
	<path id="Vector" d="M32.59 129.31C32.59 129.31 28.59 136.99 28.59 139.62L58.3 139.62C58.3 139.62 59.31 136.99 55.24 136.12C51.16 135.25 43.81 133.53 43.09 132.2C42.38 130.88 43.8 129.31 43.8 129.31L32.59 129.31Z" fill="#30325B" fill-opacity="1.000000" fill-rule="nonzero"/>
	<path id="Vector" d="M58.3 139.88L28.59 139.88C28.52 139.88 28.45 139.85 28.4 139.8C28.35 139.75 28.33 139.69 28.33 139.62C28.33 136.96 32.19 129.5 32.36 129.18C32.38 129.14 32.41 129.1 32.45 129.08C32.49 129.05 32.54 129.04 32.59 129.04L43.8 129.04C43.85 129.04 43.9 129.06 43.94 129.08C43.98 129.11 44.02 129.15 44.04 129.2C44.06 129.24 44.06 129.29 44.06 129.34C44.05 129.39 44.03 129.44 43.99 129.48C43.99 129.48 42.72 130.93 43.33 132.08C43.79 132.96 48.27 134.38 55.29 135.86C56.85 136.19 57.89 136.82 58.38 137.71C58.54 138.02 58.64 138.35 58.66 138.69C58.69 139.03 58.65 139.38 58.54 139.71C58.53 139.76 58.49 139.8 58.45 139.83C58.4 139.86 58.35 139.88 58.3 139.88ZM28.87 139.35L58.09 139.35C58.2 138.88 58.13 138.39 57.91 137.96C57.49 137.21 56.58 136.67 55.18 136.38C49.96 135.27 43.57 133.67 42.86 132.33C42.31 131.29 42.86 130.17 43.26 129.57L32.75 129.57C32.23 130.59 29.09 136.81 28.87 139.35Z" fill="#30325B" fill-opacity="1.000000" fill-rule="nonzero"/>
	<path id="Vector" d="M179.78 139.92L0.3 139.92C0.22 139.92 0.14 139.88 0.08 139.83C0.03 139.77 0 139.7 0 139.62C0 139.54 0.03 139.46 0.08 139.4C0.14 139.35 0.22 139.32 0.3 139.32L179.78 139.32C179.86 139.32 179.94 139.35 180 139.4C180.05 139.46 180.08 139.54 180.08 139.62C180.08 139.7 180.05 139.77 180 139.83C179.94 139.88 179.86 139.92 179.78 139.92Z" fill="#30325B" fill-opacity="1.000000" fill-rule="nonzero"/>
</svg>
