<svg width="57.036621" height="141.815033" viewBox="0 0 57.0366 141.815" fill="none" xmlns="http://www.w3.org/2000/svg" xmlns:xlink="http://www.w3.org/1999/xlink">
	<desc>
			Created with Pixso.
	</desc>
	<defs/>
	<path id="Vector" d="M22.21 126.45C31.55 127.89 38.67 131.91 38.13 135.43C37.59 138.96 29.58 140.64 20.25 139.2C10.91 137.76 3.79 133.74 4.33 130.22C4.87 126.7 12.88 125.01 22.21 126.45Z" fill="#D1D3D4" fill-opacity="1.000000" fill-rule="evenodd"/>
	<path id="Vector" d="M26.75 57.17C26.58 54.76 27.1 52.34 28.24 50.2C29.17 48.65 30.6 47.41 31.37 45.77C32.65 42.94 31.76 39.6 32.08 36.49C32.34 33.88 33.49 31.43 35.34 29.56C36.97 27.91 39.06 26.79 40.61 25.07C43.17 22.26 43.9 18.29 45.35 14.83C47.42 9.85 51 5.66 55.59 2.84C52.8 8.43 59.14 15.53 56.27 21.09C55.36 22.84 53.62 24.12 52.95 25.99C51.34 30.5 56.72 35.38 54.99 39.83C54.13 42.06 51.75 43.35 50.64 45.46C49.14 48.32 50.32 51.77 50.2 55C50.02 59.43 47.32 63.41 44.12 66.52C42.11 68.43 39.9 70.09 37.72 71.82C35.16 73.88 34.05 76.06 31.77 72.74C28.62 68.15 26.88 62.74 26.75 57.17Z" fill="#D1D3D4" fill-opacity="1.000000" fill-rule="nonzero"/>
	<path id="Vector" d="M23.87 59.71C24.7 56.28 25.29 52.55 23.87 49.32C22.28 45.65 18.34 43.06 17.87 39.07C17.57 36.51 18.89 33.85 18.38 31.28C17.87 28.71 15.76 26.97 14.03 25.08C10.05 20.71 7.69 15.11 7.33 9.21C4.65 12.37 2.49 15.94 0.93 19.77C-0.42 23.61 -0.46 28.26 1.85 31.68C2.53 32.47 3.07 33.36 3.47 34.33C4.26 36.89 2.08 39.22 0.97 41.61C0.31 42.98 0.03 44.51 0.17 46.03C0.31 47.55 0.86 49 1.76 50.22C4.03 53.05 8.41 54.15 9.52 57.6C9.8 58.88 9.93 60.2 9.91 61.51C10.15 63.79 11.06 65.95 12.54 67.7C14.01 69.46 15.97 70.74 18.17 71.37C20.86 72.02 20.81 70.96 21.28 68.7C21.98 65.67 23.14 62.74 23.87 59.71Z" fill="#D1D3D4" fill-opacity="1.000000" fill-rule="nonzero"/>
	<path id="Vector" d="M32.41 35.02C34.32 28.41 35.08 21.53 37.09 14.96C38.82 9.82 40.93 4.82 43.39 0L35.2 3.45C32.58 4.55 29.75 5.86 28.5 8.42C26.34 12.89 30.22 18.66 27.95 23.02C26.97 24.46 25.89 25.82 24.72 27.09C22.31 30.49 22.67 35.13 24 39.07C24.56 40.76 27.05 49.52 29.26 47.09C30.14 46.12 30.22 42.48 30.54 41.15C31.12 39.09 31.87 37.07 32.41 35.02Z" fill="#D1D3D4" fill-opacity="1.000000" fill-rule="nonzero"/>
	<path id="Vector" d="M27.94 122.68C29.57 111.88 34.69 73.88 34.74 73.5L33.33 73.3C33.33 73.69 28.21 111.71 26.55 122.46L27.94 122.68Z" fill="#D1D3D4" fill-opacity="1.000000" fill-rule="nonzero"/>
	<path id="Vector" d="M26.02 132.86L27.44 132.86C27.34 120.06 22 71.11 18.93 67.75L17.88 68.71C19.92 70.92 25.89 115.31 26.02 132.86Z" fill="#D1D3D4" fill-opacity="1.000000" fill-rule="nonzero"/>
	<path id="Vector" d="M23.24 130.42L24.66 130.36C23.38 102.74 29.3 44.76 29.35 44.18L27.94 44.04C27.89 44.62 22.01 102.66 23.24 130.42Z" fill="#D1D3D4" fill-opacity="1.000000" fill-rule="nonzero"/>
	<path id="Vector" d="M41.96 96.68L11.49 96.68L13.63 127.53C13.82 130.09 14.97 132.49 16.86 134.25C18.74 136 21.21 136.98 23.78 137L29.67 137C32.24 136.99 34.72 136 36.6 134.25C38.49 132.49 39.64 130.09 39.83 127.53L41.96 96.68Z" fill="#FFFFFF" fill-opacity="1.000000" fill-rule="nonzero"/>
	<path id="Vector" d="M29.67 137.64L23.78 137.64C21.04 137.63 18.41 136.59 16.41 134.72C14.4 132.85 13.18 130.3 12.99 127.57L10.85 96.73C10.85 96.64 10.86 96.55 10.89 96.47C10.92 96.38 10.97 96.31 11.03 96.24C11.09 96.18 11.16 96.13 11.24 96.09C11.32 96.05 11.41 96.04 11.49 96.04L41.96 96.04C42.05 96.04 42.13 96.05 42.22 96.09C42.3 96.13 42.37 96.18 42.43 96.24C42.49 96.31 42.54 96.38 42.56 96.47C42.59 96.55 42.6 96.64 42.6 96.73L40.47 127.57C40.28 130.3 39.05 132.85 37.05 134.72C35.05 136.59 32.41 137.63 29.67 137.64ZM12.18 97.32L14.27 127.48C14.44 129.88 15.52 132.14 17.28 133.78C19.04 135.43 21.37 136.35 23.78 136.36L29.67 136.36C32.08 136.35 34.41 135.43 36.17 133.78C37.94 132.14 39.02 129.88 39.19 127.48L41.28 97.32L12.18 97.32Z" fill="#D1D3D4" fill-opacity="1.000000" fill-rule="nonzero"/>
</svg>
