<svg width="143.787109" height="149.789062" viewBox="0 0 143.787 149.789" fill="none" xmlns="http://www.w3.org/2000/svg" xmlns:xlink="http://www.w3.org/1999/xlink">
	<desc>
			Created with Pixso.
	</desc>
	<defs/>
	<path id="Vector" d="M95.97 107.51C88.47 109.57 88.13 108.49 85.62 104.82C81.11 98.21 74.83 93.91 68.3 89.52C44.09 73.25 41.23 38.21 70.93 24.03C91.07 14.4 111.85 20.75 121.13 40.37C125.74 50.11 126.13 60.44 122.76 70.62C120.47 77.56 118.87 84.37 119.68 91.72C120.19 96.46 121.27 99.05 113.3 101.24C110.42 102.03 107.66 103.27 104.85 104.3C101.87 105.3 99 106.68 95.97 107.51Z" fill="#FFFFFF" fill-opacity="1.000000" fill-rule="nonzero"/>
	<path id="Vector" d="M96.06 107.84C88.88 109.81 88.03 109.04 85.59 105.44L85.29 104.99C80.73 98.3 74.29 93.98 68.07 89.79C55.36 81.24 48.09 67.26 49.11 53.29C50.06 40.4 57.73 29.83 70.74 23.6C81.03 18.69 91.85 17.82 101.21 21.13C110.05 24.24 117.07 30.84 121.43 40.13C125.95 49.7 126.54 60.66 123.07 70.66C121.08 76.67 119.16 83.84 120.01 91.61C120.06 92 120.1 92.37 120.15 92.75C120.65 96.77 120.98 99.44 113.36 101.53C111.4 102.1 109.48 102.78 107.6 103.56C106.71 103.91 105.82 104.25 104.93 104.58C103.92 104.95 102.93 105.34 101.93 105.74C100.02 106.56 98.06 107.26 96.06 107.84ZM78.85 21.39C76.18 22.13 73.58 23.11 71.08 24.31C58.33 30.41 50.79 40.73 49.83 53.38C48.85 67.07 55.98 80.79 68.47 89.18C74.74 93.41 81.24 97.77 85.89 104.59L86.19 105.04C88.38 108.27 88.91 109.03 95.82 107.14C97.8 106.55 99.75 105.86 101.65 105.06C102.65 104.66 103.65 104.25 104.66 103.88C105.55 103.56 106.44 103.21 107.32 102.86C109.23 102.08 111.17 101.39 113.15 100.81C120.13 98.9 119.88 96.88 119.38 92.86C119.34 92.49 119.29 92.09 119.25 91.71C118.38 83.8 120.32 76.52 122.34 70.44C125.78 60.07 125.23 50 120.73 40.47C116.43 31.39 109.58 24.95 100.93 21.87C93.79 19.45 86.08 19.28 78.85 21.39Z" fill="#D1D3D4" fill-opacity="1.000000" fill-rule="nonzero"/>
	<path id="Vector" d="M121.13 108.01L94.93 117.57C93.84 117.97 92.64 117.41 92.24 116.31L90.55 111.7C90.16 110.61 90.72 109.4 91.81 109.01L118 99.44C119.09 99.04 120.3 99.61 120.69 100.7L122.38 105.31C122.78 106.4 122.22 107.61 121.13 108.01Z" fill="#FFFFFF" fill-opacity="1.000000" fill-rule="evenodd"/>
	<path id="Vector" d="M94.86 118C94.26 118.16 93.62 118.09 93.07 117.81C92.51 117.52 92.08 117.03 91.87 116.45L90.19 111.84C90.08 111.53 90.03 111.21 90.04 110.88C90.06 110.55 90.14 110.23 90.28 109.93C90.42 109.64 90.61 109.37 90.85 109.15C91.09 108.93 91.38 108.76 91.68 108.65L117.87 99.1C118.5 98.87 119.18 98.91 119.78 99.19C120.38 99.47 120.84 99.97 121.06 100.59L122.75 105.2C122.86 105.51 122.91 105.83 122.89 106.16C122.88 106.49 122.8 106.81 122.66 107.1C122.52 107.4 122.33 107.67 122.08 107.89C121.84 108.11 121.56 108.28 121.25 108.39L95.06 117.94L94.86 118ZM118.26 99.77L118.12 99.8L91.93 109.35C91.72 109.43 91.52 109.55 91.36 109.7C91.19 109.86 91.06 110.04 90.96 110.25C90.87 110.45 90.81 110.67 90.8 110.9C90.79 111.13 90.83 111.35 90.9 111.56L92.59 116.17C92.74 116.6 93.07 116.95 93.48 117.14C93.89 117.34 94.37 117.36 94.8 117.2L120.99 107.65C121.2 107.57 121.39 107.45 121.56 107.3C121.73 107.15 121.86 106.96 121.96 106.76C122.05 106.55 122.11 106.33 122.12 106.11C122.13 105.88 122.09 105.65 122.02 105.44L120.33 100.83C120.18 100.43 119.88 100.1 119.5 99.9C119.12 99.7 118.67 99.65 118.26 99.77Z" fill="#D1D3D4" fill-opacity="1.000000" fill-rule="nonzero"/>
	<path id="Vector" d="M124.26 116.56L98.06 126.12C96.97 126.52 95.77 125.96 95.37 124.87L93.68 120.26C93.29 119.17 93.85 117.96 94.94 117.56L121.13 108C122.22 107.6 123.43 108.16 123.82 109.25L125.51 113.87C125.91 114.96 125.35 116.16 124.26 116.56Z" fill="#FFFFFF" fill-opacity="1.000000" fill-rule="evenodd"/>
	<path id="Vector" d="M97.99 126.56C97.39 126.72 96.75 126.66 96.2 126.37C95.64 126.08 95.22 125.6 95 125.01L93.32 120.39C93.21 120.09 93.16 119.76 93.17 119.43C93.19 119.11 93.27 118.79 93.41 118.49C93.55 118.2 93.74 117.93 93.98 117.71C94.22 117.49 94.51 117.32 94.81 117.21L121.01 107.66C121.31 107.55 121.64 107.5 121.97 107.51C122.29 107.53 122.61 107.61 122.91 107.75C123.21 107.89 123.47 108.08 123.69 108.32C123.91 108.56 124.08 108.85 124.19 109.15L125.88 113.77C125.99 114.08 126.04 114.4 126.03 114.73C126.01 115.06 125.93 115.38 125.79 115.68C125.65 115.97 125.46 116.24 125.22 116.46C124.97 116.68 124.69 116.85 124.39 116.96L98.19 126.51L98 126.57L97.99 126.56ZM121.39 108.33L121.25 108.37L95.06 117.92C94.63 118.08 94.28 118.4 94.09 118.81C93.9 119.23 93.88 119.7 94.04 120.13L95.72 124.74C95.88 125.17 96.2 125.52 96.61 125.71C97.03 125.9 97.5 125.92 97.93 125.77L124.12 116.21C124.33 116.14 124.52 116.02 124.69 115.86C124.86 115.71 124.99 115.53 125.09 115.32C125.18 115.12 125.24 114.89 125.24 114.67C125.25 114.44 125.22 114.22 125.14 114.01L123.45 109.39C123.3 108.99 123.01 108.66 122.62 108.46C122.24 108.27 121.8 108.22 121.39 108.33Z" fill="#D1D3D4" fill-opacity="1.000000" fill-rule="nonzero"/>
	<path id="Vector" d="M99.47 125.63C100.65 128.86 106.86 129.55 113.29 127.2C119.71 124.85 124.03 120.31 122.84 117.09L99.47 125.63Z" fill="#D1D3D4" fill-opacity="1.000000" fill-rule="nonzero"/>
	<path id="Vector" d="M111.39 128.21C105.44 129.84 100.25 128.89 99.11 125.76C99.08 125.66 99.08 125.56 99.12 125.47C99.17 125.38 99.24 125.31 99.34 125.27L122.72 116.76C122.81 116.73 122.92 116.74 123.01 116.78C123.1 116.82 123.17 116.9 123.21 116.99C124.48 120.47 120.18 125.13 113.42 127.57C112.74 127.81 112.06 128.03 111.39 128.21ZM99.97 125.81C100.61 127.04 102.18 127.85 104.43 128.1C107.4 128.34 110.38 127.9 113.15 126.82C119.14 124.63 123.24 120.56 122.58 117.56L99.97 125.81Z" fill="#D1D3D4" fill-opacity="1.000000" fill-rule="nonzero"/>
	<path id="Vector" d="M96.14 102.67C96.09 102.68 96.04 102.68 95.99 102.67C95.94 102.66 95.89 102.64 95.85 102.61C95.81 102.58 95.77 102.55 95.74 102.51C95.71 102.46 95.7 102.42 95.69 102.37C94.18 94.58 91.72 87.01 88.35 79.83C86.25 79.93 84.16 79.78 82.1 79.38C78.53 78.8 75.21 77.2 72.53 74.77C69.74 72.08 68.38 68.29 68.91 64.91C68.96 64.34 69.15 63.79 69.46 63.31C69.78 62.83 70.2 62.44 70.71 62.17C72.85 61.09 75.87 62.49 76.73 62.95C82.15 65.78 85.42 72.29 88.05 77.53L88.39 78.22L88.82 79.08C92.63 78.83 96.35 77.81 99.75 76.08C99.33 74.23 99.02 72.35 98.84 70.46C98.23 64.3 98.56 59.52 99.84 56.27C100.28 55.35 100.91 54.53 101.68 53.86C102.45 53.2 103.35 52.7 104.33 52.39C105.3 52.09 106.32 51.99 107.34 52.09C108.35 52.2 109.33 52.51 110.22 53.02C111.3 53.82 112.16 54.89 112.72 56.12C113.28 57.34 113.52 58.69 113.42 60.04C113.19 62.67 112.26 65.19 110.72 67.33C108.17 71.19 104.68 74.34 100.59 76.49C102.27 83.64 105.42 90.43 108.49 97.05L108.88 97.88C108.92 97.97 108.92 98.08 108.89 98.17C108.85 98.27 108.78 98.34 108.69 98.39C108.6 98.43 108.5 98.43 108.4 98.4C108.31 98.36 108.23 98.29 108.19 98.2L107.81 97.37C104.74 90.78 101.6 83.99 99.9 76.85C96.54 78.54 92.89 79.56 89.15 79.84C92.48 86.99 94.92 94.53 96.42 102.27C96.42 102.36 96.4 102.45 96.35 102.52C96.3 102.59 96.22 102.64 96.14 102.67ZM71.52 62.67C71.35 62.72 71.18 62.78 71.02 62.86C70.63 63.08 70.3 63.39 70.06 63.77C69.81 64.15 69.67 64.58 69.64 65.03C69.44 66.72 69.64 68.44 70.23 70.04C70.82 71.64 71.78 73.08 73.04 74.23C75.61 76.55 78.81 78.09 82.23 78.64C84.12 79.01 86.04 79.16 87.96 79.09C87.87 78.91 87.77 78.73 87.68 78.55L87.34 77.85C84.76 72.71 81.55 66.33 76.33 63.61C74.91 62.87 72.96 62.27 71.52 62.67ZM104.77 52.98L104.5 53.05C103.62 53.3 102.81 53.73 102.12 54.32C101.43 54.91 100.88 55.65 100.51 56.48C99.28 59.62 98.96 64.27 99.56 70.31C99.75 72.11 100.03 73.89 100.42 75.65C104.31 73.56 107.62 70.54 110.06 66.86C111.52 64.82 112.41 62.43 112.63 59.94C112.72 58.73 112.51 57.52 112.01 56.41C111.51 55.31 110.75 54.34 109.78 53.61C109.04 53.16 108.21 52.87 107.34 52.76C106.48 52.65 105.6 52.72 104.77 52.98Z" fill="#D1D3D4" fill-opacity="1.000000" fill-rule="nonzero"/>
	<path id="Vector" d="M19 26.37C7.91 32.09 2.22 43.11 6.29 50.99C8.65 55.56 13.77 58.08 19.86 58.24C22.6 60.92 27.42 63.69 35.82 64.41C32.82 62.56 30.31 60.03 28.5 57.02C30.3 56.47 32.05 55.76 33.73 54.89C44.8 49.18 50.51 38.15 46.44 30.27C42.38 22.39 30.09 20.65 19 26.37Z" fill="#FFFFFF" fill-opacity="1.000000" fill-rule="nonzero"/>
	<path id="Vector" d="M35.9 64.76C35.86 64.78 35.82 64.79 35.78 64.79C28.74 64.19 23.34 62.11 19.7 58.62C13.32 58.39 8.28 55.69 5.95 51.16C1.77 43.11 7.57 31.83 18.82 26.01C30.07 20.2 42.61 22.03 46.78 30.07C50.96 38.12 45.16 49.39 33.93 55.2C32.38 56 30.76 56.67 29.1 57.21C30.87 59.97 33.24 62.31 36.03 64.04C36.1 64.08 36.15 64.13 36.19 64.2C36.22 64.27 36.24 64.35 36.23 64.42C36.22 64.5 36.19 64.57 36.14 64.63C36.09 64.68 36.02 64.72 35.95 64.74L35.9 64.76ZM19.15 26.71C8.28 32.32 2.66 43.13 6.63 50.81C8.84 55.11 13.67 57.68 19.87 57.86C19.96 57.87 20.05 57.9 20.13 57.96C23.36 61.13 28.13 63.12 34.29 63.87C31.82 62.09 29.73 59.83 28.16 57.21C28.14 57.16 28.12 57.11 28.11 57.05C28.11 56.99 28.12 56.93 28.14 56.88C28.16 56.83 28.19 56.78 28.23 56.74C28.28 56.7 28.33 56.67 28.38 56.66C30.16 56.11 31.89 55.41 33.54 54.55C44.42 48.94 50.06 38.12 46.09 30.44C42.13 22.76 30.06 21.09 19.17 26.7L19.15 26.71Z" fill="#D1D3D4" fill-opacity="1.000000" fill-rule="nonzero"/>
	<path id="Vector" d="M43.04 71.21C42.95 71.24 42.84 71.22 42.75 71.17C42.67 71.12 42.6 71.04 42.58 70.94L41.52 67.11C41.5 67.01 41.51 66.91 41.56 66.82C41.61 66.73 41.69 66.67 41.79 66.64C41.89 66.61 41.99 66.63 42.08 66.68C42.17 66.73 42.23 66.81 42.26 66.91L43.31 70.74C43.33 70.84 43.32 70.94 43.27 71.03C43.22 71.12 43.14 71.18 43.04 71.21Z" fill="#D1D3D4" fill-opacity="1.000000" fill-rule="nonzero"/>
	<path id="Vector" d="M44.43 68.74L40.59 69.79C40.5 69.81 40.39 69.8 40.3 69.75C40.22 69.7 40.15 69.62 40.12 69.52C40.1 69.42 40.11 69.32 40.16 69.23C40.21 69.14 40.29 69.08 40.39 69.05L44.23 68C44.32 67.98 44.43 67.99 44.51 68.04C44.6 68.09 44.67 68.17 44.69 68.27C44.72 68.37 44.7 68.47 44.65 68.56C44.6 68.64 44.52 68.71 44.43 68.74Z" fill="#D1D3D4" fill-opacity="1.000000" fill-rule="nonzero"/>
	<path id="Vector" d="M93.41 9.76C93.31 9.79 93.21 9.77 93.12 9.72C93.03 9.67 92.97 9.59 92.94 9.49L91.89 5.66C91.87 5.57 91.88 5.46 91.93 5.38C91.98 5.29 92.06 5.22 92.16 5.2C92.26 5.17 92.36 5.18 92.45 5.23C92.54 5.28 92.6 5.37 92.63 5.46L93.68 9.29C93.71 9.39 93.69 9.49 93.64 9.58C93.59 9.67 93.51 9.73 93.41 9.76Z" fill="#D1D3D4" fill-opacity="1.000000" fill-rule="nonzero"/>
	<path id="Vector" d="M94.81 7.32L90.96 8.38C90.86 8.4 90.76 8.39 90.67 8.34C90.58 8.29 90.52 8.21 90.49 8.11C90.46 8.01 90.47 7.91 90.52 7.82C90.57 7.74 90.66 7.67 90.75 7.64L94.59 6.59C94.69 6.57 94.79 6.58 94.88 6.63C94.97 6.68 95.03 6.76 95.06 6.86C95.08 6.95 95.07 7.06 95.02 7.14C94.98 7.23 94.9 7.29 94.81 7.32Z" fill="#D1D3D4" fill-opacity="1.000000" fill-rule="nonzero"/>
	<path id="Vector" d="M20.35 48.55C20.19 48.59 20.03 48.61 19.86 48.62C19.14 48.71 18.4 48.63 17.71 48.38C17.03 48.13 16.4 47.73 15.9 47.2C15.71 47.68 15.42 48.12 15.06 48.5C14.69 48.87 14.26 49.16 13.78 49.36C13.68 49.4 13.58 49.4 13.48 49.36C13.39 49.32 13.32 49.24 13.28 49.15C13.24 49.06 13.24 48.95 13.28 48.86C13.32 48.76 13.39 48.69 13.49 48.65C13.93 48.46 14.33 48.18 14.66 47.82C14.98 47.46 15.21 47.03 15.35 46.56C14.93 46.02 14.64 45.4 14.49 44.74C14.34 44.08 14.34 43.39 14.48 42.73C14.49 42.67 14.53 42.61 14.57 42.56C14.62 42.51 14.68 42.47 14.74 42.45C14.81 42.44 14.87 42.44 14.94 42.45C15 42.47 15.06 42.5 15.11 42.54C15.6 43.03 15.95 43.63 16.13 44.29C16.32 44.94 16.34 45.64 16.19 46.3L16.21 46.37L16.32 46.5C16.73 47.02 17.27 47.41 17.88 47.65C18.49 47.89 19.16 47.97 19.81 47.87C20.46 47.77 21.07 47.5 21.59 47.09C22.1 46.68 22.5 46.14 22.74 45.53C22.98 45.04 23.12 44.52 23.18 43.98C22.85 43.66 22.63 43.25 22.53 42.8C22.44 42.36 22.47 41.89 22.64 41.47C22.67 41.4 22.71 41.35 22.77 41.31C22.83 41.27 22.9 41.25 22.97 41.24C23.04 41.24 23.11 41.26 23.17 41.29C23.23 41.32 23.28 41.37 23.31 41.43C23.72 42.13 23.91 42.92 23.89 43.73C24.11 43.95 24.38 44.11 24.68 44.2C24.98 44.28 25.3 44.28 25.6 44.21C25.93 44.1 26.23 43.91 26.46 43.65C26.7 43.39 26.86 43.08 26.93 42.74C27.04 42.36 27.05 41.96 26.98 41.58C26.73 41.24 26.54 40.85 26.42 40.45C26.39 40.36 26.4 40.27 26.43 40.2C26.46 40.12 26.52 40.05 26.6 40.01C26.67 39.97 26.76 39.95 26.85 39.96C26.93 39.98 27.01 40.02 27.07 40.08C27.36 40.42 27.57 40.82 27.68 41.24C27.98 41.62 28.36 41.92 28.78 42.14C29.16 42.36 29.58 42.49 30.01 42.53C30.44 42.57 30.88 42.52 31.29 42.38C31.7 42.24 32.07 42.02 32.39 41.72C32.7 41.42 32.95 41.06 33.12 40.66C33.24 40.38 33.33 40.1 33.38 39.8C33.14 39.64 32.91 39.46 32.7 39.26C32.47 39.02 32.32 38.73 32.26 38.4C32.21 38.08 32.25 37.75 32.39 37.45C32.48 37.3 32.61 37.19 32.78 37.13C32.94 37.07 33.12 37.07 33.28 37.12C33.44 37.19 33.58 37.29 33.69 37.42C33.81 37.54 33.89 37.69 33.94 37.85C34.13 38.33 34.21 38.85 34.18 39.37C34.55 39.56 34.96 39.64 35.37 39.59C35.78 39.55 36.17 39.37 36.48 39.1C38.08 37.81 38.7 34.61 37.67 32.89C37.65 32.84 37.63 32.8 37.62 32.75C37.62 32.7 37.62 32.65 37.63 32.6C37.64 32.55 37.66 32.5 37.69 32.46C37.72 32.42 37.76 32.39 37.81 32.36C37.89 32.31 38 32.3 38.09 32.32C38.19 32.35 38.27 32.41 38.32 32.5C39.55 34.53 38.85 38.17 36.95 39.7C36.56 40.03 36.09 40.25 35.58 40.33C35.07 40.41 34.55 40.35 34.08 40.14C34.01 40.41 33.92 40.68 33.8 40.93C33.59 41.43 33.28 41.87 32.89 42.24C32.5 42.6 32.03 42.88 31.53 43.05C31.02 43.23 30.48 43.29 29.95 43.25C29.41 43.2 28.9 43.04 28.43 42.78C28.19 42.65 27.97 42.51 27.77 42.34C27.75 42.52 27.71 42.7 27.67 42.88C27.56 43.33 27.35 43.75 27.05 44.09C26.74 44.44 26.35 44.7 25.92 44.86C25.57 44.97 25.2 45 24.84 44.94C24.48 44.89 24.14 44.75 23.84 44.55C23.75 45 23.6 45.43 23.4 45.84C23.12 46.49 22.7 47.06 22.18 47.53C21.65 48 21.03 48.35 20.35 48.55ZM15.11 43.81C15.14 44.35 15.28 44.88 15.53 45.37C15.52 44.82 15.38 44.28 15.11 43.81L15.11 43.81ZM33.03 37.9C32.99 37.99 32.97 38.08 32.99 38.17C32.99 38.39 33.07 38.59 33.21 38.76C33.27 38.82 33.34 38.88 33.41 38.93C33.37 38.68 33.31 38.43 33.21 38.2C33.14 37.96 33.04 37.92 33.02 37.91L33.03 37.9Z" fill="#D1D3D4" fill-opacity="1.000000" fill-rule="nonzero"/>
	<path id="Vector" d="M65.63 92.99C65.88 93.89 65.35 94.81 64.46 95.05C63.57 95.3 62.65 94.77 62.4 93.88C62.16 92.99 62.68 92.07 63.57 91.82C64.47 91.58 65.39 92.1 65.63 92.99Z" fill="#D1D3D4" fill-opacity="1.000000" fill-rule="evenodd"/>
</svg>
