<svg width="145" height="49" viewBox="0 0 145 49" fill="none" xmlns="http://www.w3.org/2000/svg">
<g clip-path="url(#clip0_99_3330)">
<path d="M84.4484 24.845C83.9777 24.8601 83.5066 24.8317 83.041 24.7602C82.4684 24.7098 81.9341 24.4505 81.5397 24.0316C81.1454 23.6127 80.9183 23.0633 80.9018 22.4878C80.8133 21.3728 80.8133 20.2525 80.9018 19.1374C80.9168 18.587 81.1392 18.0626 81.5244 17.6696C81.9095 17.2767 82.429 17.0443 82.9782 17.0192C83.8183 16.8624 84.6812 16.8754 85.5162 17.0575C86.0047 17.122 86.456 17.3535 86.7937 17.7128C87.1315 18.0721 87.3351 18.5372 87.3701 19.0294C87.6011 20.5132 87.5621 22.0267 87.2549 23.4966C86.8032 25.2053 85.7235 26.6799 84.2322 27.6251C84.1414 27.6786 84.0375 27.7055 83.9322 27.7026H81.9018C81.8051 27.6829 81.7119 27.6491 81.625 27.6023C81.6865 27.533 81.7329 27.4327 81.8098 27.3867C82.8014 26.8052 83.6565 26.0171 84.3173 25.0756L84.4484 24.845ZM82.8258 20.9553V22.1031C82.8182 22.2213 82.8339 22.3397 82.872 22.4518C82.9102 22.5639 82.97 22.6673 83.0481 22.7562C83.1261 22.8451 83.2209 22.9177 83.327 22.9699C83.4331 23.0221 83.5485 23.0528 83.6664 23.0604C83.7119 23.0639 83.7575 23.0639 83.803 23.0604C84.0587 23.0876 84.3165 23.0876 84.5722 23.0604C85.1184 22.9829 85.3874 22.76 85.4106 22.213C85.4409 21.3399 85.4409 20.4695 85.4106 19.6019C85.4197 19.4911 85.4047 19.3795 85.3667 19.275C85.3287 19.1704 85.2685 19.0754 85.1903 18.9963C85.1121 18.9173 85.0178 18.8561 84.9137 18.8171C84.8097 18.778 84.6985 18.762 84.5877 18.77C84.2967 18.7316 84.002 18.7316 83.711 18.77C83.507 18.77 83.3114 18.8512 83.1671 18.9957C83.0229 19.1402 82.9418 19.3361 82.9418 19.5404C82.874 20.0092 82.8353 20.4817 82.8258 20.9553Z" fill="black"/>
<path d="M76.4184 20.2621H74.4417C74.451 20.1081 74.4327 19.9537 74.3875 19.8062C74.3909 19.5407 74.295 19.2835 74.1185 19.0853C73.942 18.8871 73.6978 18.7623 73.434 18.7355C72.9032 18.6624 72.3649 18.6624 71.8341 18.7355C71.6946 18.7517 71.5597 18.7953 71.4371 18.8638C71.3145 18.9322 71.2065 19.0243 71.1194 19.1345C71.0323 19.2448 70.9677 19.3712 70.9294 19.5065C70.8911 19.6418 70.8797 19.7833 70.896 19.9229C70.896 19.9407 70.9001 19.958 70.9033 19.9753V24.7124C70.8864 24.8765 70.9051 25.0423 70.9581 25.1986C71.011 25.3548 71.097 25.4977 71.2102 25.6176C71.3234 25.7375 71.461 25.8316 71.6138 25.8934C71.7665 25.9551 71.9308 25.9831 72.0954 25.9755C72.5017 26.0223 72.912 26.0223 73.3184 25.9755C73.6176 25.9598 73.8994 25.8296 74.1055 25.6118C74.3117 25.3939 74.4263 25.105 74.4258 24.8049L74.4713 24.4125H76.4326C76.5497 25.0638 76.4262 25.7356 76.0852 26.3025C75.7441 26.8694 75.2089 27.2927 74.5792 27.4935C73.3479 27.848 72.0417 27.848 70.8104 27.4935C70.2553 27.3746 69.7595 27.0643 69.4095 26.6167C69.0595 26.169 68.8776 25.6125 68.8956 25.0442V19.5997C68.8733 18.9718 69.092 18.3592 69.5068 17.8879C69.9217 17.4166 70.5011 17.1224 71.1259 17.0657C72.142 16.8682 73.1866 16.8682 74.2027 17.0657C74.9159 17.1905 75.5505 17.5937 75.9669 18.1869C76.3833 18.78 76.5475 19.5144 76.4235 20.2288L76.4184 20.2621Z" fill="black"/>
<path d="M123.065 27.6794H122.15C122.1 27.6673 122.052 27.6436 122.012 27.6103C121.972 27.5769 121.94 27.5347 121.919 27.487C121.611 26.7167 121.312 26.0156 121.028 25.2762C121.011 25.1972 120.965 25.1274 120.9 25.0803C120.834 25.0332 120.753 25.0124 120.673 25.0219H115.474C115.399 25.0121 115.323 25.0303 115.261 25.0729C115.199 25.1155 115.154 25.1796 115.136 25.253C114.851 26.0233 114.544 26.724 114.259 27.4638C114.244 27.5339 114.204 27.5958 114.145 27.6372C114.087 27.6786 114.015 27.6964 113.944 27.6871H113.082C113.236 27.3175 113.367 26.971 113.513 26.6319C114.805 23.4635 116.087 20.3003 117.358 17.1423C117.443 16.9417 117.543 16.8496 117.768 16.8724C117.993 16.8952 118.399 16.7954 118.599 16.9267C118.799 17.058 118.853 17.4121 118.961 17.6966L122.976 27.4483C123.004 27.518 123.027 27.5951 123.065 27.6794ZM118.089 17.8972L115.558 24.1421H120.604L118.089 17.8972Z" fill="black"/>
<path d="M99.8997 18.2677L99.2843 18.9456C98.7162 18.2679 97.9255 17.8154 97.0541 17.6692C96.2582 17.4749 95.4193 17.5704 94.6873 17.9386C94.4053 18.0725 94.1625 18.2768 93.982 18.5317C93.8016 18.7867 93.6896 19.0838 93.6568 19.3946C93.6102 19.7205 93.6783 20.0524 93.8495 20.3335C94.0206 20.6146 94.2842 20.8272 94.5949 20.9348C95.3636 21.2662 96.2025 21.4741 97.0022 21.7668C97.6059 21.9621 98.1944 22.2015 98.7632 22.4829C99.2162 22.7092 99.5898 23.0682 99.834 23.5124C100.078 23.9565 100.182 24.4646 100.13 24.969C100.126 25.4723 99.9853 25.9649 99.7224 26.3938C99.4595 26.8227 99.0847 27.1717 98.6385 27.4032C97.8904 27.7774 97.0587 27.9525 96.2234 27.9114C94.9559 27.9331 93.7254 27.483 92.7701 26.6483C92.624 26.5175 92.4702 26.3944 92.2854 26.2481L92.9226 25.4777C93.1994 25.7088 93.4379 25.9554 93.6918 26.1555C94.2395 26.5741 94.8796 26.8548 95.5582 26.9738C96.2368 27.0928 96.9341 27.0466 97.5912 26.8393C97.8458 26.7792 98.0861 26.6695 98.2983 26.5165C98.5106 26.3634 98.6907 26.1699 98.8283 25.9472C98.9659 25.7244 99.0584 25.4766 99.1004 25.2181C99.1424 24.9595 99.1332 24.6952 99.0732 24.4402C99.0668 24.4129 99.06 24.386 99.0522 24.3591C98.9986 24.1331 98.8946 23.9222 98.7481 23.7421C98.6016 23.5621 98.4163 23.4175 98.2061 23.3193C97.6294 23.0495 97.0227 22.8261 96.4141 22.6105C95.8056 22.3949 95.0068 22.1943 94.33 21.9267C93.846 21.7775 93.4223 21.4772 93.1207 21.0699C92.8191 20.6625 92.6553 20.1693 92.6532 19.6622C92.6368 19.1409 92.7739 18.6264 93.0474 18.1826C93.3208 17.7389 93.7186 17.3855 94.1911 17.1664C95.1364 16.7204 96.1987 16.5867 97.2248 16.7847C98.2508 16.9826 99.1875 17.502 99.8997 18.2677Z" fill="black"/>
<path d="M138.263 17.7513V21.7335H144.032V22.5886H138.256V27.6798H137.332V16.8961H144.146V17.7203L138.263 17.7513Z" fill="black"/>
<path d="M133.432 16.8961V17.7426H127.564V21.7325H133.325V22.5877H127.55V27.6798H126.619V16.8961H133.432Z" fill="black"/>
<path d="M107.952 27.6798H106.991V17.7663H103.469V16.8961H111.437V17.7203H107.952V27.6798Z" fill="black"/>
<path d="M0.146853 17.6669C0.823672 16.9426 1.50823 16.2264 2.17731 15.5026L13.1757 3.68092C13.2981 3.5611 13.4534 3.48062 13.6218 3.44981L23.9894 1.82476C26.2966 1.49337 28.6729 1.08539 31.0266 0.723004C31.1515 0.707767 31.2782 0.723421 31.3957 0.76859L46.1009 6.11418C46.2357 6.16526 46.3568 6.24703 46.4546 6.35303C50.1262 10.5279 53.7923 14.7027 57.453 18.8776C57.5315 18.9668 57.5883 19.0731 57.619 19.188C57.6496 19.3029 57.6533 19.4234 57.6296 19.5399C57.3297 22.1892 57.0379 24.839 56.7375 27.4888C56.7165 27.6207 56.6579 27.7437 56.5686 27.843C55.1303 29.4685 53.677 31.0935 52.231 32.7204C52.1084 32.8671 52.0238 33.0419 51.9847 33.2291C51.6925 34.7694 51.4158 36.2563 51.1464 37.7661C51.1379 37.8419 51.1059 37.9132 51.0549 37.9699C51.0038 38.0265 50.9363 38.0657 50.8619 38.082C47.9489 39.114 45.04 40.1615 42.1228 41.163C42.0172 41.194 41.9216 41.2525 41.8459 41.3326C41.7702 41.4127 41.717 41.5114 41.6918 41.6188C40.9231 43.9294 40.1538 46.2401 39.4306 48.5051C39.4072 48.5788 39.3789 48.6508 39.3459 48.7207C38.7925 48.0584 38.2613 47.4189 37.7383 46.7798C36.0105 44.6848 34.2775 42.5922 32.5391 40.502C32.4285 40.3676 32.2893 40.2597 32.1317 40.1861C29.5473 38.969 26.9711 37.7365 24.3635 36.5659C23.6781 36.3093 22.9699 36.1185 22.2484 35.9961C20.2411 35.5338 18.2339 35.0949 16.2339 34.6327C16.0944 34.5785 15.9777 34.4779 15.9035 34.3478C14.9422 32.6156 13.9959 30.8834 13.0269 29.1562C12.9372 29.0012 12.7994 28.8796 12.6346 28.8098C9.78892 27.6596 6.94069 26.5144 4.08989 25.3742C3.99945 25.3427 3.91643 25.2929 3.84597 25.228C3.7755 25.1631 3.7191 25.0844 3.68024 24.9967C2.55206 22.6568 1.41629 20.3203 0.272935 17.9873C0.233765 17.9103 0.189986 17.8357 0.141846 17.764L0.146853 17.6669ZM50.5328 36.8152C50.5412 36.732 50.5646 36.6511 50.602 36.5763C50.825 35.383 51.048 34.1887 51.256 32.9948C51.3033 32.7355 51.4233 32.495 51.602 32.3015C52.8632 30.9076 54.1094 29.4977 55.3629 28.096L55.5627 27.8649L46.2411 27.0945L46.3872 26.3246L56.032 27.0945L56.8008 19.8617L46.2948 25.7931L45.9949 25.0997L55.5318 19.7081V19.6388L48.602 18.0138L48.7636 17.2434L56.7088 19.2076L46.4487 7.47622C46.5798 10.0567 46.6949 12.536 46.8178 15.0326H46.049L45.6876 7.76157H45.6262L40.1811 15.9725L39.5503 15.5568L45.1569 7.16124L37.1239 9.10127L36.9873 8.33091L44.7555 6.48249V6.41321L31.9578 1.79194L34.4493 7.0295L33.7575 7.32215L31.1658 1.93051L26.3434 10.2108L25.7449 9.73306L30.4749 1.56858L14.9158 4.00275L22.0299 10.0567L21.5224 10.6115L14.1384 4.33368V14.9857L13.3696 14.8161V4.68741H13.2695L1.42493 17.4581L11.1699 17.0023L11.3005 17.7722L1.24151 18.2499L4.13358 24.1963L11.686 18.3652L12.2627 18.8739L4.68477 24.7296L4.78446 24.8067C7.2766 25.8335 9.77374 26.8374 12.2759 27.8184C12.3973 27.8645 12.5314 27.8645 12.6528 27.8184C13.1216 27.6255 13.5836 27.4081 14.0524 27.2021L18.5671 25.1996L18.8516 25.8833L13.4675 28.2961L16.2981 33.5336L19.5516 26.6013L20.2594 26.8634L16.8985 34.0269L23.313 35.475L21.075 26.8561L21.775 26.5867L23.9898 34.9517L29.1131 25.8929L29.7667 26.2626L24.8892 34.8893L31.8495 32.6785L31.895 33.4488L24.5215 35.7595L32.5045 39.4873L33.2737 35.4668L33.966 35.8133C33.7197 37.1534 33.4653 38.4708 33.1968 39.7877C33.178 39.9339 33.2136 40.0819 33.2969 40.2034C34.5838 41.7438 35.8655 43.3024 37.1421 44.8789L39.0264 47.1896L39.1111 47.0045C39.7419 45.0788 40.3752 43.1557 41.0109 41.2354C41.0336 41.1685 41.0362 41.0963 41.0184 41.0278C41.0006 40.9594 40.9632 40.8976 40.9108 40.8503L38.696 38.252L36.4734 35.6255L37.0811 35.1865L37.2809 35.4181C38.6728 37.0509 40.0651 38.6837 41.4415 40.3247C41.488 40.4026 41.5627 40.4596 41.65 40.4839C41.7374 40.5082 41.8307 40.4981 41.9107 40.4555C43.2107 39.9778 44.5256 39.516 45.8333 39.0538L49.5788 37.6904L37.9268 33.9626L38.1115 33.2305L49.7636 36.9971C48.0945 34.0797 46.4719 31.2353 44.8333 28.3932L45.5101 28.0467L50.5328 36.8152Z" fill="#FF5A57"/>
<path d="M31.2644 25.7001C30.6833 25.7017 30.1148 25.5306 29.6308 25.2086C29.1468 24.8865 28.769 24.428 28.5452 23.8909C28.3214 23.3538 28.2617 22.7624 28.3736 22.1913C28.4854 21.6202 28.7639 21.0952 29.1737 20.6826C29.5835 20.27 30.1063 19.9884 30.6759 19.8734C31.2455 19.7583 31.8364 19.815 32.3738 20.0363C32.9113 20.2576 33.3711 20.6335 33.6952 21.1166C34.0193 21.5996 34.1931 22.168 34.1947 22.75V22.7577C34.1965 23.5359 33.8896 24.283 33.3416 24.8347C32.7935 25.3864 32.0492 25.6975 31.2721 25.6997L31.2644 25.7001Z" fill="#FF5A57"/>
<path d="M24.081 14.8244C23.6049 14.8228 23.1399 14.6798 22.745 14.4135C22.35 14.1472 22.0427 13.7697 21.862 13.3285C21.6813 12.8874 21.6353 12.4024 21.7298 11.9351C21.8242 11.4677 22.055 11.0389 22.3928 10.7029C22.7306 10.3669 23.1603 10.1387 23.6276 10.0473C24.0949 9.95587 24.5788 10.0053 25.018 10.1892C25.4573 10.3732 25.8322 10.6835 26.0954 11.0809C26.3585 11.4782 26.4982 11.9448 26.4965 12.4217C26.4965 12.4344 26.4965 12.4467 26.4965 12.46C26.4862 13.0933 26.2267 13.697 25.7744 14.1398C25.322 14.5825 24.7135 14.8286 24.081 14.8244Z" fill="#FF5A57"/>
<path d="M37.2714 32.8778C37.2713 33.3348 37.1359 33.7815 36.8823 34.1614C36.6287 34.5413 36.2684 34.8374 35.8468 35.0122C35.4252 35.187 34.9613 35.2327 34.5138 35.1435C34.0663 35.0543 33.6552 34.8342 33.3326 34.511C33.01 34.1879 32.7903 33.7762 32.7013 33.328C32.6123 32.8797 32.658 32.4152 32.8326 31.993C33.0073 31.5708 33.303 31.21 33.6824 30.9561C34.0618 30.7022 34.5079 30.5667 34.9642 30.5667C35.2672 30.5667 35.5673 30.6265 35.8472 30.7426C36.1272 30.8588 36.3815 31.029 36.5958 31.2436C36.81 31.4582 36.98 31.713 37.0959 31.9934C37.2118 32.2738 37.2714 32.5743 37.2714 32.8778Z" fill="#FF5A57"/>
<path d="M44.2086 27.7724C43.8233 27.7693 43.4549 27.6135 43.1841 27.339C42.9133 27.0646 42.7621 26.6938 42.7637 26.308C42.7652 25.9221 42.9193 25.5526 43.1923 25.2803C43.4653 25.008 43.8349 24.8551 44.2202 24.8551C44.6055 24.8551 44.975 25.008 45.248 25.2803C45.521 25.5526 45.6751 25.9221 45.6767 26.308C45.6782 26.6938 45.527 27.0646 45.2562 27.339C44.9854 27.6135 44.617 27.7693 44.2318 27.7724H44.2086Z" fill="#FF5A57"/>
<path d="M13.352 18.4369C13.0632 18.4354 12.7814 18.3482 12.5421 18.1864C12.3028 18.0247 12.1167 17.7956 12.0072 17.528C11.8978 17.2604 11.87 16.9663 11.9272 16.6829C11.9845 16.3995 12.1243 16.1394 12.329 15.9355C12.5337 15.7316 12.7941 15.5929 13.0774 15.5371C13.3607 15.4812 13.6542 15.5107 13.9208 15.6217C14.1874 15.7327 14.4152 15.9203 14.5754 16.1608C14.7357 16.4014 14.8212 16.684 14.8212 16.9732C14.8233 17.1634 14.7879 17.3521 14.7171 17.5286C14.6463 17.7051 14.5415 17.8659 14.4086 18.0018C14.2758 18.1377 14.1175 18.2461 13.9429 18.3207C13.7682 18.3954 13.5806 18.4349 13.3907 18.4369H13.352Z" fill="#FF5A57"/>
<path d="M33.4875 9.13233C33.4816 8.74646 33.6291 8.37405 33.8973 8.09701C34.1656 7.81997 34.5327 7.66097 34.918 7.65497H34.9567C35.3418 7.66176 35.7089 7.81974 35.9789 8.09491C36.2488 8.37008 36.4001 8.74041 36.4001 9.12618C36.4001 9.51194 36.2488 9.88227 35.9789 10.1574C35.7089 10.4326 35.3418 10.5906 34.9567 10.5974C34.5733 10.6035 34.2033 10.4568 33.9278 10.1897C33.6524 9.92259 33.4942 9.55684 33.4879 9.1729C33.4873 9.15861 33.4872 9.1451 33.4875 9.13233Z" fill="#FF5A57"/>
<path d="M40.1402 17.543C40.1524 17.8353 40.0779 18.1247 39.9259 18.3746C39.7739 18.6245 39.5513 18.8236 39.2863 18.9468C39.0213 19.07 38.7258 19.1117 38.4372 19.0666C38.1485 19.0216 37.8797 18.8918 37.6646 18.6938C37.4496 18.4957 37.2981 18.2382 37.2292 17.9539C37.1603 17.6696 37.1771 17.3712 37.2776 17.0964C37.378 16.8217 37.5576 16.583 37.7935 16.4104C38.0295 16.2379 38.3112 16.1393 38.6031 16.1272C38.6259 16.1272 38.6486 16.1272 38.6709 16.1272C39.0517 16.1251 39.4183 16.2718 39.6927 16.5362C39.9671 16.8006 40.1276 17.1618 40.1402 17.543Z" fill="#FF5A57"/>
<path d="M19.1976 24.722C19.1894 24.338 19.3339 23.9665 19.5991 23.6892C19.8644 23.4119 20.2288 23.2515 20.6122 23.2432H20.6514C21.041 23.2433 21.4145 23.3984 21.69 23.6744C21.9654 23.9503 22.1202 24.3245 22.1202 24.7147V24.7224C22.1202 25.1105 21.9662 25.4828 21.6922 25.7572C21.4181 26.0317 21.0464 26.1859 20.6589 26.1859C20.2713 26.1859 19.8996 26.0317 19.6256 25.7572C19.3516 25.4828 19.1976 25.1105 19.1976 24.7224V24.722Z" fill="#FF5A57"/>
<path d="M46.5395 15.7255C46.9237 15.7266 47.2919 15.8803 47.563 16.1529C47.8342 16.4256 47.9862 16.7949 47.9857 17.1797C47.9852 17.5646 47.8322 17.9335 47.5603 18.2054C47.2884 18.4774 46.9198 18.6301 46.5356 18.6301C46.1513 18.6301 45.7828 18.4774 45.5109 18.2054C45.239 17.9335 45.086 17.5646 45.0855 17.1797C45.0849 16.7949 45.237 16.4256 45.5081 16.1529C45.7793 15.8803 46.1475 15.7266 46.5317 15.7255H46.5395Z" fill="#FF5A57"/>
<path d="M33.9873 11.0884L34.7024 11.2962C33.9873 13.9305 33.3105 16.5571 32.6028 19.2068L31.8877 19.0218L33.9873 11.0884Z" fill="#FF5A57"/>
<path d="M42.0248 26.3165L34.7568 24.2292L34.9721 23.5131L42.1327 25.5698L42.0248 26.3165Z" fill="#FF5A57"/>
<path d="M21.8124 22.8735L21.1201 22.5886L23.2594 15.4562L24.0286 15.5638L21.8124 22.8735Z" fill="#FF5A57"/>
<path d="M15.5291 16.8962L15.3521 16.1258L21.1895 13.6228L21.5813 14.2774L15.5291 16.8962Z" fill="#FF5A57"/>
<path d="M14.7598 18.6912L15.2518 18.1132L19.6586 22.7887L19.0605 23.2601L14.7598 18.6912Z" fill="#FF5A57"/>
<path d="M42.2555 27.2563L42.6938 27.8722L37.4641 30.9532L36.9102 30.3989L42.2555 27.2563Z" fill="#FF5A57"/>
<path d="M27.227 12.0433L27.0654 11.314L32.7645 9.19574L32.926 9.9661L27.227 12.0433Z" fill="#FF5A57"/>
<path d="M39.448 19.5997L40.0852 19.2145L43.2772 24.329L42.6619 24.768L39.448 19.5997Z" fill="#FF5A57"/>
<path d="M25.6885 15.1248L26.2884 14.6689L29.4494 19.4133L28.8263 19.8372L25.6885 15.1248Z" fill="#FF5A57"/>
<path d="M45.6704 19.205L46.3932 19.3973C45.9781 21.0534 45.5702 22.7017 45.1551 24.3659L44.4319 24.1503L45.6704 19.205Z" fill="#FF5A57"/>
<path d="M38.2171 15.4252L37.5175 15.7178L35.7793 11.1504L36.4252 10.7342L38.2171 15.4252Z" fill="#FF5A57"/>
<path d="M22.6973 23.9516L27.466 23.0581L27.6121 23.828L22.8338 24.6914L22.6973 23.9516Z" fill="#FF5A57"/>
<path d="M33.9179 29.9135L33.2411 30.2522L32.0413 26.5006L32.749 26.2695L33.9179 29.9135Z" fill="#FF5A57"/>
<path d="M36.6791 18.4369L37.0942 19.0687L34.4715 20.748L33.9868 20.1317L36.6791 18.4369Z" fill="#FF5A57"/>
</g>
<defs>
<clipPath id="clip0_99_3330">
<rect width="144" height="48" fill="white" transform="translate(0.146484 0.715332)"/>
</clipPath>
</defs>
</svg>
