<svg width="182" height="61" viewBox="0 0 182 61" fill="none" xmlns="http://www.w3.org/2000/svg">
<path d="M106.506 30.6422C105.912 30.6611 105.319 30.6256 104.732 30.5362C104.01 30.4732 103.337 30.1492 102.84 29.6255C102.343 29.1019 102.056 28.4151 102.036 27.6958C101.924 26.302 101.924 24.9016 102.036 23.5078C102.054 22.8197 102.335 22.1642 102.82 21.673C103.306 21.1818 103.96 20.8914 104.653 20.8599C105.712 20.664 106.799 20.6802 107.852 20.9078C108.467 20.9885 109.036 21.2779 109.462 21.727C109.888 22.1761 110.144 22.7574 110.188 23.3727C110.48 25.2275 110.43 27.1193 110.043 28.9567C109.474 31.0926 108.113 32.9359 106.233 34.1174C106.119 34.1842 105.988 34.2178 105.855 34.2142H103.296C103.174 34.1896 103.057 34.1474 102.947 34.0889C103.025 34.0023 103.083 33.8769 103.18 33.8194C104.43 33.0925 105.508 32.1073 106.341 30.9305L106.506 30.6422ZM104.461 25.7801V27.2149C104.451 27.3625 104.471 27.5107 104.519 27.6507C104.567 27.7908 104.642 27.9201 104.741 28.0312C104.839 28.1423 104.959 28.2331 105.092 28.2983C105.226 28.3636 105.371 28.402 105.52 28.4114C105.577 28.4158 105.635 28.4158 105.692 28.4114C106.015 28.4455 106.34 28.4455 106.662 28.4114C107.35 28.3146 107.689 28.0359 107.719 27.3522C107.757 26.2608 107.757 25.1729 107.719 24.0884C107.73 23.9498 107.711 23.8104 107.663 23.6797C107.615 23.549 107.539 23.4302 107.441 23.3314C107.342 23.2326 107.223 23.1561 107.092 23.1073C106.961 23.0585 106.821 23.0384 106.681 23.0485C106.315 23.0004 105.943 23.0004 105.576 23.0485C105.319 23.0485 105.073 23.15 104.891 23.3306C104.709 23.5112 104.607 23.7561 104.607 24.0115C104.521 24.5975 104.473 25.1881 104.461 25.7801Z" fill="black"/>
<path d="M96.3846 24.9135H93.8931C93.9048 24.721 93.8817 24.528 93.8248 24.3437C93.8291 24.0118 93.7081 23.6903 93.4856 23.4426C93.2632 23.1948 92.9554 23.0388 92.6229 23.0052C91.9539 22.914 91.2754 22.914 90.6064 23.0052C90.4306 23.0255 90.2606 23.08 90.106 23.1656C89.9514 23.2512 89.8154 23.3662 89.7056 23.5041C89.5957 23.6419 89.5144 23.7999 89.4661 23.969C89.4178 24.1381 89.4035 24.315 89.424 24.4896C89.424 24.5118 89.4292 24.5334 89.4332 24.5551V30.4764C89.4119 30.6815 89.4355 30.8888 89.5022 31.0841C89.569 31.2794 89.6774 31.4581 89.82 31.608C89.9626 31.7578 90.1361 31.8754 90.3287 31.9526C90.5212 32.0298 90.7283 32.0648 90.9357 32.0553C91.4478 32.1138 91.965 32.1138 92.4772 32.0553C92.8544 32.0357 93.2096 31.8729 93.4694 31.6006C93.7291 31.3283 93.8736 30.9672 93.873 30.5921L93.9303 30.1015H96.4024C96.55 30.9157 96.3943 31.7554 95.9645 32.464C95.5347 33.1726 94.86 33.7018 94.0663 33.9527C92.5144 34.3959 90.8681 34.3959 89.3162 33.9527C88.6164 33.8042 87.9915 33.4163 87.5504 32.8567C87.1093 32.2972 86.88 31.6015 86.9027 30.8912V24.0856C86.8745 23.3007 87.1502 22.535 87.6731 21.9458C88.1959 21.3566 88.9262 20.9889 89.7137 20.9181C90.9945 20.6712 92.3111 20.6712 93.5919 20.9181C94.4908 21.074 95.2906 21.5781 95.8155 22.3195C96.3403 23.0609 96.5473 23.979 96.3909 24.8719L96.3846 24.9135Z" fill="black"/>
<path d="M155.179 34.1853H154.026C153.962 34.1701 153.903 34.1406 153.852 34.0989C153.802 34.0572 153.761 34.0044 153.735 33.9448C153.347 32.9819 152.969 32.1055 152.611 31.1813C152.59 31.0826 152.532 30.9952 152.45 30.9364C152.367 30.8776 152.265 30.8515 152.165 30.8634H145.611C145.517 30.8512 145.421 30.8739 145.343 30.9272C145.264 30.9804 145.208 31.0605 145.185 31.1522C144.827 32.1152 144.439 32.991 144.08 33.9158C144.061 34.0034 144.01 34.0808 143.936 34.1325C143.863 34.1842 143.772 34.2065 143.683 34.1949H142.597C142.791 33.7328 142.955 33.2998 143.14 32.8759C144.768 28.9154 146.384 24.9614 147.986 21.0139C148.093 20.7632 148.219 20.6481 148.503 20.6766C148.786 20.705 149.298 20.5803 149.55 20.7444C149.803 20.9085 149.87 21.3512 150.006 21.7068L155.066 33.8964C155.102 33.9836 155.131 34.0798 155.179 34.1853ZM148.907 21.9575L145.717 29.7637H152.077L148.907 21.9575Z" fill="black"/>
<path d="M125.981 22.4208L125.205 23.2681C124.489 22.421 123.492 21.8553 122.394 21.6727C121.391 21.4298 120.334 21.5492 119.411 22.0094C119.056 22.1768 118.749 22.4321 118.522 22.7508C118.295 23.0695 118.153 23.4409 118.112 23.8293C118.053 24.2367 118.139 24.6517 118.355 25.003C118.571 25.3543 118.903 25.6201 119.295 25.7547C120.263 26.1689 121.321 26.4288 122.329 26.7946C123.09 27.0388 123.831 27.3379 124.548 27.6897C125.119 27.9726 125.59 28.4214 125.898 28.9766C126.206 29.5317 126.336 30.1668 126.272 30.7974C126.267 31.4265 126.089 32.0422 125.757 32.5784C125.426 33.1146 124.954 33.5508 124.391 33.8401C123.448 34.3079 122.4 34.5267 121.347 34.4754C119.75 34.5025 118.199 33.9399 116.995 32.8965C116.81 32.733 116.617 32.5791 116.384 32.3962L117.187 31.4333C117.536 31.7221 117.836 32.0304 118.156 32.2805C118.847 32.8038 119.653 33.1546 120.509 33.3033C121.364 33.4521 122.243 33.3944 123.071 33.1352C123.392 33.0602 123.695 32.923 123.962 32.7317C124.23 32.5404 124.457 32.2985 124.63 32.0201C124.804 31.7416 124.92 31.4319 124.973 31.1087C125.026 30.7855 125.015 30.4551 124.939 30.1364C124.931 30.1022 124.922 30.0686 124.913 30.035C124.845 29.7525 124.714 29.4888 124.529 29.2638C124.345 29.0387 124.111 28.858 123.846 28.7353C123.119 28.398 122.355 28.1188 121.588 27.8492C120.821 27.5797 119.814 27.329 118.961 26.9946C118.351 26.8079 117.817 26.4327 117.436 25.9235C117.056 25.4142 116.85 24.7977 116.847 24.1638C116.827 23.5123 116.999 22.8691 117.344 22.3144C117.689 21.7597 118.19 21.318 118.786 21.0442C119.977 20.4867 121.316 20.3195 122.609 20.567C123.903 20.8144 125.083 21.4636 125.981 22.4208Z" fill="black"/>
<path d="M174.334 21.7745V26.7522H181.606V27.8212H174.326V34.1852H173.161V20.7056H181.75V21.7358L174.334 21.7745Z" fill="black"/>
<path d="M168.246 20.7056V21.7637H160.85V26.7511H168.11V27.82H160.831V34.1852H159.658V20.7056H168.246Z" fill="black"/>
<path d="M136.13 34.1852H134.919V21.7933H130.479V20.7056H140.522V21.7358H136.13V34.1852Z" fill="black"/>
<path d="M0.250147 21.6698C1.10322 20.7644 1.96605 19.8693 2.80937 18.9645L16.672 4.18738C16.8262 4.0376 17.022 3.937 17.2342 3.89849L30.3017 1.86718C33.2097 1.45294 36.2049 0.942969 39.1715 0.489982C39.3289 0.470936 39.4886 0.490503 39.6367 0.546965L58.1714 7.22895C58.3413 7.2928 58.4939 7.39502 58.6172 7.52752C63.2449 12.7461 67.8658 17.9646 72.4798 23.1832C72.5788 23.2948 72.6504 23.4276 72.689 23.5712C72.7276 23.7149 72.7322 23.8654 72.7024 24.0111C72.3243 27.3228 71.9566 30.635 71.5779 33.9472C71.5515 34.1121 71.4776 34.2658 71.3651 34.3899C69.5523 36.4218 67.7205 38.4532 65.8979 40.4868C65.7433 40.6702 65.6367 40.8886 65.5875 41.1227C65.2192 43.048 64.8704 44.9067 64.5308 46.7938C64.5201 46.8886 64.4798 46.9777 64.4155 47.0486C64.3511 47.1194 64.2661 47.1684 64.1722 47.1887C60.5006 48.4787 56.8342 49.7881 53.1574 51.0399C53.0242 51.0787 52.9037 51.1519 52.8083 51.252C52.7129 51.3521 52.6459 51.4755 52.6141 51.6097C51.6452 54.498 50.6756 57.3863 49.764 60.2176C49.7345 60.3097 49.6989 60.3997 49.6573 60.4871C48.9597 59.6592 48.2902 58.8598 47.6311 58.0609C45.4533 55.4422 43.2689 52.8264 41.0778 50.2137C40.9385 50.0457 40.763 49.9108 40.5644 49.8189C37.307 48.2975 34.0599 46.7568 30.7732 45.2936C29.9093 44.9729 29.0166 44.7344 28.1073 44.5813C25.5773 44.0035 23.0474 43.4548 20.5266 42.8771C20.3507 42.8094 20.2036 42.6836 20.1101 42.5209C18.8985 40.3557 17.7058 38.1905 16.4844 36.0315C16.3713 35.8377 16.1977 35.6857 15.9899 35.5985C12.4032 34.1607 8.81321 32.7292 5.22001 31.3039C5.10603 31.2646 5.00138 31.2024 4.91257 31.1212C4.82376 31.0401 4.75266 30.9417 4.70369 30.8321C3.28171 27.9072 1.85017 24.9866 0.409063 22.0704C0.359692 21.9741 0.304512 21.8809 0.243835 21.7912L0.250147 21.6698ZM63.7574 45.6052C63.768 45.5013 63.7975 45.4001 63.8446 45.3066C64.1257 43.8149 64.4069 42.3221 64.669 40.8298C64.7286 40.5056 64.8798 40.205 65.105 39.9631C66.6947 38.2207 68.2655 36.4583 69.8454 34.7062L70.0973 34.4173L58.3481 33.4543L58.5323 32.492L70.6887 33.4543L71.6577 24.4134L58.4158 31.8276L58.0378 30.9609L70.0582 24.2214V24.1348L61.3238 22.1035L61.5275 21.1405L71.5418 23.5957L58.6097 8.9315C58.7749 12.1571 58.9201 15.2562 59.075 18.377H58.106L57.6505 9.28819H57.5731L50.71 19.5519L49.9149 19.0323L56.9816 8.53777L46.8566 10.9628L46.6845 9.99987L56.4756 7.68934V7.60274L40.3452 1.82615L43.4856 8.3731L42.6136 8.73891L39.347 1.99937L33.2688 12.3497L32.5144 11.7526L38.4761 1.54695L18.8652 4.58966L27.8319 12.1571L27.1923 12.8506L17.8853 5.00333V18.3183L16.9164 18.1063V5.44549H16.7902L1.86106 21.4089L14.1437 20.8391L14.3084 21.8015L1.62987 22.3986L5.27508 29.8316L14.7943 22.5428L15.5212 23.1787L5.96982 30.4982L6.09546 30.5945C9.2366 31.8781 12.384 33.133 15.5378 34.3592C15.6908 34.4168 15.8598 34.4168 16.0128 34.3592C16.6037 34.1182 17.186 33.8464 17.7769 33.5888L23.4673 31.0857L23.8259 31.9404L17.0397 34.9563L20.6075 41.5033L24.7082 32.8378L25.6003 33.1655L21.3642 42.1198L29.4492 43.93L26.6283 33.1563L27.5107 32.8196L30.3022 43.2759L36.7597 31.9524L37.5835 32.4145L31.4358 43.1978L40.2087 40.4343L40.266 41.3973L30.9723 44.2856L41.0342 48.9454L42.0037 43.9198L42.8763 44.3528C42.566 46.028 42.2453 47.6747 41.9068 49.3209C41.8831 49.5036 41.928 49.6886 42.033 49.8405C43.655 51.766 45.2705 53.7142 46.8795 55.6849L49.2546 58.5732L49.3613 58.3419C50.1564 55.9347 50.9546 53.5309 51.7559 51.1305C51.7845 51.0468 51.7878 50.9566 51.7654 50.871C51.743 50.7854 51.6958 50.7083 51.6297 50.6491L48.8381 47.4012L46.0368 44.1181L46.8027 43.5694L47.0545 43.8588C48.8088 45.8998 50.5637 47.9408 52.2986 49.9921C52.3573 50.0894 52.4514 50.1607 52.5615 50.1911C52.6715 50.2215 52.7891 50.2088 52.8901 50.1556C54.5285 49.5585 56.1859 48.9813 57.8341 48.4035L62.555 46.6992L47.8686 42.0395L48.1015 41.1244L62.7879 45.8326C60.6842 42.1859 58.639 38.6304 56.5737 35.0777L57.4268 34.6447L63.7574 45.6052Z" fill="url(#paint0_linear_2845_379)"/>
<path d="M39.4715 31.711C38.7391 31.7129 38.0226 31.4991 37.4125 31.0965C36.8025 30.694 36.3263 30.1208 36.0442 29.4495C35.7622 28.7781 35.6869 28.0388 35.8279 27.325C35.9689 26.6111 36.3198 25.9548 36.8364 25.4391C37.3529 24.9234 38.0118 24.5714 38.7298 24.4276C39.4477 24.2838 40.1925 24.3547 40.8699 24.6313C41.5473 24.9079 42.1269 25.3778 42.5354 25.9816C42.9439 26.5853 43.163 27.2959 43.1649 28.0233V28.033C43.1672 29.0058 42.7804 29.9396 42.0897 30.6292C41.3989 31.3188 40.4607 31.7077 39.4813 31.7105L39.4715 31.711Z" fill="url(#paint1_linear_2845_379)"/>
<path d="M30.4175 18.1166C29.8174 18.1146 29.2314 17.9359 28.7335 17.603C28.2357 17.2702 27.8484 16.7982 27.6206 16.2468C27.3929 15.6953 27.3349 15.0892 27.454 14.505C27.573 13.9208 27.8639 13.3848 28.2896 12.9648C28.7154 12.5448 29.2571 12.2596 29.846 12.1453C30.435 12.031 31.0449 12.0927 31.5985 12.3227C32.1522 12.5527 32.6247 12.9405 32.9564 13.4372C33.2881 13.934 33.4641 14.5172 33.4621 15.1132C33.4621 15.1292 33.4621 15.1446 33.4621 15.1611C33.4491 15.9528 33.122 16.7074 32.5519 17.2608C31.9817 17.8143 31.2147 18.1218 30.4175 18.1166Z" fill="url(#paint2_linear_2845_379)"/>
<path d="M47.0429 40.6833C47.0428 41.2545 46.8722 41.8129 46.5526 42.2878C46.2329 42.7627 45.7787 43.1328 45.2473 43.3513C44.716 43.5698 44.1313 43.627 43.5672 43.5154C43.0032 43.4039 42.485 43.1288 42.0784 42.7248C41.6718 42.3209 41.3949 41.8062 41.2827 41.246C41.1705 40.6857 41.2282 40.105 41.4483 39.5773C41.6684 39.0496 42.0411 38.5985 42.5193 38.2812C42.9975 37.9638 43.5598 37.7944 44.1349 37.7944C44.5168 37.7944 44.895 37.8692 45.2479 38.0143C45.6007 38.1595 45.9213 38.3723 46.1914 38.6406C46.4614 38.9089 46.6756 39.2273 46.8217 39.5778C46.9678 39.9283 47.043 40.304 47.0429 40.6833Z" fill="url(#paint3_linear_2845_379)"/>
<path d="M55.7867 34.3014C55.3011 34.2976 54.8368 34.1028 54.4955 33.7597C54.1541 33.4166 53.9636 32.9532 53.9655 32.4709C53.9675 31.9885 54.1617 31.5266 54.5058 31.1863C54.8499 30.8459 55.3157 30.6548 55.8013 30.6548C56.2869 30.6548 56.7528 30.8459 57.0968 31.1863C57.4409 31.5266 57.6352 31.9885 57.6371 32.4709C57.639 32.9532 57.4485 33.4166 57.1072 33.7597C56.7658 34.1028 56.3015 34.2976 55.8159 34.3014H55.7867Z" fill="url(#paint4_linear_2845_379)"/>
<path d="M16.8945 22.6324C16.5306 22.6304 16.1754 22.5215 15.8738 22.3193C15.5721 22.1171 15.3376 21.8307 15.1996 21.4962C15.0617 21.1617 15.0266 20.7942 15.0988 20.4399C15.171 20.0856 15.3472 19.7605 15.6052 19.5056C15.8632 19.2507 16.1914 19.0774 16.5485 19.0076C16.9056 18.9378 17.2754 18.9746 17.6115 19.1133C17.9475 19.2521 18.2346 19.4866 18.4366 19.7873C18.6386 20.0879 18.7464 20.4413 18.7464 20.8027C18.749 21.0405 18.7044 21.2764 18.6152 21.497C18.5259 21.7176 18.3938 21.9186 18.2264 22.0885C18.059 22.2584 17.8595 22.3938 17.6393 22.4872C17.4192 22.5805 17.1827 22.6298 16.9433 22.6324H16.8945Z" fill="url(#paint5_linear_2845_379)"/>
<path d="M42.2737 11.0015C42.2663 10.5191 42.4522 10.0536 42.7903 9.70734C43.1284 9.36104 43.5912 9.16228 44.0768 9.15479H44.1256C44.611 9.16327 45.0737 9.36076 45.4139 9.70471C45.7542 10.0487 45.9449 10.5116 45.9449 10.9938C45.9449 11.476 45.7542 11.9389 45.4139 12.2829C45.0737 12.6268 44.611 12.8243 44.1256 12.8328C43.6424 12.8404 43.1759 12.6571 42.8287 12.3232C42.4816 11.9893 42.2821 11.5321 42.2743 11.0522C42.2735 11.0343 42.2733 11.0174 42.2737 11.0015Z" fill="url(#paint6_linear_2845_379)"/>
<path d="M50.6588 21.5144C50.6742 21.8798 50.5802 22.2416 50.3887 22.5539C50.1971 22.8663 49.9166 23.1152 49.5826 23.2692C49.2486 23.4232 48.8761 23.4753 48.5123 23.419C48.1485 23.3627 47.8096 23.2005 47.5386 22.9529C47.2675 22.7054 47.0765 22.3835 46.9897 22.0281C46.9029 21.6727 46.9241 21.2997 47.0507 20.9563C47.1773 20.6128 47.4037 20.3144 47.701 20.0987C47.9984 19.8831 48.3535 19.7599 48.7214 19.7447C48.7501 19.7447 48.7788 19.7447 48.8069 19.7447C49.2869 19.742 49.7489 19.9255 50.0947 20.256C50.4406 20.5865 50.643 21.038 50.6588 21.5144Z" fill="url(#paint7_linear_2845_379)"/>
<path d="M24.2622 30.4885C24.2519 30.0086 24.4339 29.5443 24.7683 29.1976C25.1027 28.851 25.562 28.6505 26.0452 28.6401H26.0946C26.5856 28.6403 27.0565 28.8341 27.4036 29.179C27.7508 29.524 27.9458 29.9917 27.9458 30.4794V30.4891C27.9458 30.9743 27.7518 31.4396 27.4064 31.7827C27.061 32.1257 26.5925 32.3185 26.104 32.3185C25.6155 32.3185 25.1471 32.1257 24.8017 31.7827C24.4562 31.4396 24.2622 30.9743 24.2622 30.4891V30.4885Z" fill="url(#paint8_linear_2845_379)"/>
<path d="M58.7242 19.2427C59.2085 19.244 59.6725 19.4361 60.0143 19.7769C60.3561 20.1178 60.5477 20.5794 60.5471 21.0605C60.5464 21.5415 60.3536 22.0026 60.0109 22.3425C59.6682 22.6825 59.2036 22.8734 58.7193 22.8734C58.235 22.8734 57.7704 22.6825 57.4277 22.3425C57.085 22.0026 56.8922 21.5415 56.8915 21.0605C56.8909 20.5794 57.0825 20.1178 57.4243 19.7769C57.7661 19.4361 58.2301 19.244 58.7144 19.2427H58.7242Z" fill="url(#paint9_linear_2845_379)"/>
<path d="M42.9039 13.4458L43.8052 13.7056C42.9039 16.9985 42.0509 20.2816 41.1588 23.5939L40.2575 23.3625L42.9039 13.4458Z" fill="url(#paint10_linear_2845_379)"/>
<path d="M53.0341 32.4813L43.8735 29.8722L44.1448 28.9771L53.1701 31.548L53.0341 32.4813Z" fill="url(#paint11_linear_2845_379)"/>
<path d="M27.5583 28.1775L26.6857 27.8213L29.3821 18.9058L30.3516 19.0402L27.5583 28.1775Z" fill="url(#paint12_linear_2845_379)"/>
<path d="M19.6385 20.7064L19.4153 19.7435L26.7729 16.6147L27.2668 17.433L19.6385 20.7064Z" fill="url(#paint13_linear_2845_379)"/>
<path d="M18.669 22.9496L19.2892 22.2271L24.8436 28.0714L24.0898 28.6606L18.669 22.9496Z" fill="url(#paint14_linear_2845_379)"/>
<path d="M53.3249 33.6567L53.8773 34.4265L47.2856 38.2778L46.5875 37.5849L53.3249 33.6567Z" fill="url(#paint15_linear_2845_379)"/>
<path d="M34.3828 14.6401L34.1791 13.7284L41.3623 11.0806L41.5659 12.0435L34.3828 14.6401Z" fill="url(#paint16_linear_2845_379)"/>
<path d="M49.7863 24.0855L50.5895 23.604L54.6128 29.9971L53.8371 30.5458L49.7863 24.0855Z" fill="url(#paint17_linear_2845_379)"/>
<path d="M32.4437 18.4912L33.1998 17.9214L37.184 23.8518L36.3987 24.3817L32.4437 18.4912Z" fill="url(#paint18_linear_2845_379)"/>
<path d="M57.6293 23.5923L58.5403 23.8327C58.0171 25.9028 57.5031 27.9632 56.9799 30.0435L56.0683 29.774L57.6293 23.5923Z" fill="url(#paint19_linear_2845_379)"/>
<path d="M48.2352 18.8672L47.3535 19.233L45.1625 13.5236L45.9766 13.0034L48.2352 18.8672Z" fill="url(#paint20_linear_2845_379)"/>
<path d="M28.6735 29.5255L34.6841 28.4087L34.8682 29.3711L28.8456 30.4503L28.6735 29.5255Z" fill="url(#paint21_linear_2845_379)"/>
<path d="M42.8158 36.9773L41.9628 37.4007L40.4505 32.7112L41.3426 32.4224L42.8158 36.9773Z" fill="url(#paint22_linear_2845_379)"/>
<path d="M51.5602 21.9204V20.9574L56.0482 20.7261L56.1159 21.689L51.5602 21.9204Z" fill="url(#paint23_linear_2845_379)"/>
<path d="M46.2967 22.6323L46.8199 23.4221L43.5143 25.5212L42.9034 24.7508L46.2967 22.6323Z" fill="url(#paint24_linear_2845_379)"/>
<defs>
<linearGradient id="paint0_linear_2845_379" x1="16.6238" y1="57.5469" x2="52.3851" y2="5.74014" gradientUnits="userSpaceOnUse">
<stop stop-color="#9929EA"/>
<stop offset="1" stop-color="#5808FB"/>
</linearGradient>
<linearGradient id="paint1_linear_2845_379" x1="16.0578" y1="56.9938" x2="61.1937" y2="11.5644" gradientUnits="userSpaceOnUse">
<stop stop-color="#9929EA"/>
<stop offset="1" stop-color="#5808FB"/>
</linearGradient>
<linearGradient id="paint2_linear_2845_379" x1="18.0542" y1="58.9761" x2="63.186" y2="13.5424" gradientUnits="userSpaceOnUse">
<stop stop-color="#9929EA"/>
<stop offset="1" stop-color="#5808FB"/>
</linearGradient>
<linearGradient id="paint3_linear_2845_379" x1="12.0244" y1="52.9868" x2="57.1617" y2="7.55277" gradientUnits="userSpaceOnUse">
<stop stop-color="#9929EA"/>
<stop offset="1" stop-color="#5808FB"/>
</linearGradient>
<linearGradient id="paint4_linear_2845_379" x1="22.2943" y1="62.6465" x2="67.0409" y2="17.5971" gradientUnits="userSpaceOnUse">
<stop stop-color="#9929EA"/>
<stop offset="1" stop-color="#5808FB"/>
</linearGradient>
<linearGradient id="paint5_linear_2845_379" x1="8.41934" y1="49.4141" x2="53.562" y2="3.97251" gradientUnits="userSpaceOnUse">
<stop stop-color="#9929EA"/>
<stop offset="1" stop-color="#5808FB"/>
</linearGradient>
<linearGradient id="paint6_linear_2845_379" x1="27.0998" y1="67.8302" x2="72.2281" y2="22.7901" gradientUnits="userSpaceOnUse">
<stop stop-color="#9929EA"/>
<stop offset="1" stop-color="#5808FB"/>
</linearGradient>
<linearGradient id="paint7_linear_2845_379" x1="23.9686" y1="64.8482" x2="69.0895" y2="19.4036" gradientUnits="userSpaceOnUse">
<stop stop-color="#9929EA"/>
<stop offset="1" stop-color="#5808FB"/>
</linearGradient>
<linearGradient id="paint8_linear_2845_379" x1="8.1477" y1="49.132" x2="53.5238" y2="3.94668" gradientUnits="userSpaceOnUse">
<stop stop-color="#9929EA"/>
<stop offset="1" stop-color="#5808FB"/>
</linearGradient>
<linearGradient id="paint9_linear_2845_379" x1="29.5517" y1="69.3976" x2="74.107" y2="24.545" gradientUnits="userSpaceOnUse">
<stop stop-color="#9929EA"/>
<stop offset="1" stop-color="#5808FB"/>
</linearGradient>
<linearGradient id="paint10_linear_2845_379" x1="22.1253" y1="63.0191" x2="72.3056" y2="56.9286" gradientUnits="userSpaceOnUse">
<stop stop-color="#9929EA"/>
<stop offset="1" stop-color="#5808FB"/>
</linearGradient>
<linearGradient id="paint11_linear_2845_379" x1="19.2375" y1="60.1544" x2="26.4779" y2="9.56171" gradientUnits="userSpaceOnUse">
<stop stop-color="#9929EA"/>
<stop offset="1" stop-color="#5808FB"/>
</linearGradient>
<linearGradient id="paint12_linear_2845_379" x1="12.8984" y1="53.8601" x2="64.1309" y2="45.9107" gradientUnits="userSpaceOnUse">
<stop stop-color="#9929EA"/>
<stop offset="1" stop-color="#5808FB"/>
</linearGradient>
<linearGradient id="paint13_linear_2845_379" x1="12.6474" y1="53.6119" x2="27.293" y2="0.0613217" gradientUnits="userSpaceOnUse">
<stop stop-color="#9929EA"/>
<stop offset="1" stop-color="#5808FB"/>
</linearGradient>
<linearGradient id="paint14_linear_2845_379" x1="8.48091" y1="49.4731" x2="55.693" y2="6.27322" gradientUnits="userSpaceOnUse">
<stop stop-color="#9929EA"/>
<stop offset="1" stop-color="#5808FB"/>
</linearGradient>
<linearGradient id="paint15_linear_2845_379" x1="17.4864" y1="58.4117" x2="39.5729" y2="3.83439" gradientUnits="userSpaceOnUse">
<stop stop-color="#9929EA"/>
<stop offset="1" stop-color="#5808FB"/>
</linearGradient>
<linearGradient id="paint16_linear_2845_379" x1="22.8995" y1="63.7577" x2="35.2657" y2="10.9223" gradientUnits="userSpaceOnUse">
<stop stop-color="#9929EA"/>
<stop offset="1" stop-color="#5808FB"/>
</linearGradient>
<linearGradient id="paint17_linear_2845_379" x1="22.9224" y1="63.8109" x2="77.4507" y2="37.6274" gradientUnits="userSpaceOnUse">
<stop stop-color="#9929EA"/>
<stop offset="1" stop-color="#5808FB"/>
</linearGradient>
<linearGradient id="paint18_linear_2845_379" x1="17.1891" y1="58.1176" x2="71.2956" y2="29.1914" gradientUnits="userSpaceOnUse">
<stop stop-color="#9929EA"/>
<stop offset="1" stop-color="#5808FB"/>
</linearGradient>
<linearGradient id="paint19_linear_2845_379" x1="25.5982" y1="66.4735" x2="76.5396" y2="59.0448" gradientUnits="userSpaceOnUse">
<stop stop-color="#9929EA"/>
<stop offset="1" stop-color="#5808FB"/>
</linearGradient>
<linearGradient id="paint20_linear_2845_379" x1="25.6603" y1="66.5279" x2="78.8952" y2="53.6681" gradientUnits="userSpaceOnUse">
<stop stop-color="#9929EA"/>
<stop offset="1" stop-color="#5808FB"/>
</linearGradient>
<linearGradient id="paint21_linear_2845_379" x1="11.508" y1="52.483" x2="16.9226" y2="2.96459" gradientUnits="userSpaceOnUse">
<stop stop-color="#9929EA"/>
<stop offset="1" stop-color="#5808FB"/>
</linearGradient>
<linearGradient id="paint22_linear_2845_379" x1="13.6892" y1="54.6455" x2="66.5942" y2="42.7863" gradientUnits="userSpaceOnUse">
<stop stop-color="#9929EA"/>
<stop offset="1" stop-color="#5808FB"/>
</linearGradient>
<linearGradient id="paint23_linear_2845_379" x1="26.609" y1="67.4833" x2="29.9336" y2="19.4348" gradientUnits="userSpaceOnUse">
<stop stop-color="#9929EA"/>
<stop offset="1" stop-color="#5808FB"/>
</linearGradient>
<linearGradient id="paint24_linear_2845_379" x1="20.7709" y1="61.6838" x2="50.2805" y2="7.81951" gradientUnits="userSpaceOnUse">
<stop stop-color="#9929EA"/>
<stop offset="1" stop-color="#5808FB"/>
</linearGradient>
</defs>
</svg>
