<svg width="24.000000" height="24.000000" viewBox="0 0 24 24" fill="none" xmlns="http://www.w3.org/2000/svg" xmlns:xlink="http://www.w3.org/1999/xlink">
	<desc>
			Created with Pixso.
	</desc>
	<defs/>
	<path id="Vector" d="M23.71 22.3L17.75 16.34C19.38 14.35 20.17 11.81 19.98 9.25C19.79 6.69 18.62 4.3 16.72 2.58C14.81 0.86 12.32 -0.07 9.75 0C7.19 0.06 4.74 1.11 2.93 2.93C1.11 4.74 0.06 7.19 0 9.75C-0.07 12.32 0.86 14.81 2.58 16.72C4.3 18.62 6.69 19.79 9.25 19.98C11.81 20.17 14.35 19.38 16.34 17.75L22.3 23.71C22.49 23.9 22.74 24 23 24C23.27 23.99 23.52 23.89 23.7 23.7C23.89 23.52 23.99 23.27 24 23C24 22.74 23.9 22.49 23.71 22.3ZM10.02 18.01C8.44 18.01 6.89 17.54 5.58 16.66C4.26 15.79 3.24 14.54 2.63 13.08C2.03 11.62 1.87 10.01 2.18 8.46C2.49 6.91 3.25 5.48 4.37 4.37C5.48 3.25 6.91 2.49 8.46 2.18C10.01 1.87 11.62 2.03 13.08 2.63C14.54 3.24 15.79 4.26 16.66 5.58C17.54 6.89 18.01 8.44 18.01 10.02C18.01 12.14 17.17 14.17 15.67 15.67C14.17 17.17 12.14 18.01 10.02 18.01Z" fill="#30325B" fill-opacity="1.000000" fill-rule="nonzero"/>
</svg>
