<svg width="65.502441" height="65.501953" viewBox="0 0 65.5024 65.502" fill="none" xmlns="http://www.w3.org/2000/svg" xmlns:xlink="http://www.w3.org/1999/xlink">
	<desc>
			Created with Pixso.
	</desc>
	<defs/>
	<path id="Ellipse 1" d="M5 32.75C5 17.42 17.42 5 32.75 5C48.07 5 60.5 17.42 60.5 32.75C60.5 48.07 48.07 60.5 32.75 60.5C17.42 60.5 5 48.07 5 32.75Z" fill="#FF5A57" fill-opacity="1.000000" fill-rule="evenodd"/>
	<path id="Ellipse 2" d="M0 32.75C0 14.66 14.66 0 32.75 0C50.83 0 65.5 14.66 65.5 32.75C65.5 50.83 50.83 65.5 32.75 65.5C14.66 65.5 0 50.83 0 32.75Z" fill="#FF5A57" fill-opacity="0.150000" fill-rule="evenodd"/>
	<path id="Polygon 1" d="M38.75 32.75L29.75 27.55L29.75 37.94L38.75 32.75Z" fill="#FFFFFF" fill-opacity="1.000000" fill-rule="evenodd"/>
</svg>
