<svg width="164.548889" height="134.343750" viewBox="0 0 164.549 134.344" fill="none" xmlns="http://www.w3.org/2000/svg" xmlns:xlink="http://www.w3.org/1999/xlink">
	<desc>
			Created with Pixso.
	</desc>
	<defs/>
	<path id="Vector" d="M164.31 117.39L1.51 117.39C1.47 117.4 1.43 117.41 1.38 117.4C1.34 117.39 1.3 117.37 1.26 117.34C1.23 117.32 1.2 117.28 1.18 117.24C1.16 117.2 1.15 117.16 1.15 117.11C1.15 117.07 1.16 117.03 1.18 116.99C1.2 116.95 1.23 116.91 1.26 116.88C1.3 116.86 1.34 116.84 1.38 116.83C1.43 116.82 1.47 116.83 1.51 116.84L164.34 116.84C164.4 116.86 164.45 116.89 164.49 116.94C164.52 116.99 164.54 117.05 164.54 117.11C164.54 117.18 164.52 117.24 164.49 117.29C164.45 117.34 164.4 117.37 164.34 117.39L164.31 117.39Z" fill="#D1D3D4" fill-opacity="1.000000" fill-rule="nonzero"/>
	<path id="Vector" d="M11 4.27L154.82 4.27L154.82 88.27L11 88.27L11 4.27Z" fill="#FFFFFF" fill-opacity="1.000000" fill-rule="evenodd"/>
	<path id="Vector" d="M154.83 88.56L11 88.56C10.96 88.56 10.93 88.55 10.89 88.54C10.86 88.52 10.82 88.5 10.8 88.48C10.77 88.45 10.75 88.42 10.74 88.38C10.72 88.35 10.71 88.31 10.71 88.27L10.71 4.27C10.71 4.19 10.74 4.12 10.8 4.07C10.85 4.01 10.93 3.98 11 3.98L154.83 3.98C154.86 3.98 154.9 3.99 154.94 4C154.97 4.02 155 4.04 155.03 4.07C155.05 4.09 155.08 4.13 155.09 4.16C155.1 4.2 155.11 4.23 155.11 4.27L155.11 88.27C155.11 88.35 155.08 88.42 155.03 88.47C154.97 88.53 154.9 88.56 154.83 88.56ZM11.29 88.01L154.53 88.01L154.53 4.56L11.28 4.56L11.29 88.01Z" fill="#D1D3D4" fill-opacity="1.000000" fill-rule="nonzero"/>
	<path id="Vector" d="M11 0.28L154.82 0.28L154.82 4.27L11 4.27L11 0.28Z" fill="#FFFFFF" fill-opacity="1.000000" fill-rule="evenodd"/>
	<path id="Vector" d="M154.83 4.56L11 4.56C10.93 4.56 10.85 4.53 10.8 4.47C10.74 4.42 10.71 4.35 10.71 4.27L10.71 0.28C10.71 0.21 10.74 0.13 10.8 0.08C10.85 0.03 10.93 0 11 0L154.83 0C154.86 0 154.9 0 154.94 0.02C154.97 0.03 155 0.05 155.03 0.08C155.05 0.11 155.08 0.14 155.09 0.17C155.1 0.21 155.11 0.25 155.11 0.28L155.11 4.27C155.11 4.35 155.08 4.42 155.03 4.47C154.97 4.53 154.9 4.56 154.83 4.56ZM11.29 4L154.53 4L154.53 0.57L11.28 0.57L11.29 4Z" fill="#D1D3D4" fill-opacity="1.000000" fill-rule="nonzero"/>
	<path id="Vector" d="M79.78 57.05L87.6 57.05L87.6 82.15L79.78 82.15L79.78 57.05Z" fill="#FFFFFF" fill-opacity="1.000000" fill-rule="evenodd"/>
	<path id="Vector" d="M87.6 82.43L79.78 82.43C79.75 82.43 79.71 82.42 79.67 82.41C79.64 82.4 79.61 82.38 79.58 82.35C79.55 82.32 79.53 82.29 79.52 82.26C79.5 82.22 79.5 82.18 79.5 82.15L79.5 57.05C79.5 56.97 79.53 56.9 79.58 56.84C79.63 56.79 79.71 56.76 79.78 56.76L87.6 56.76C87.68 56.76 87.75 56.79 87.81 56.84C87.86 56.9 87.89 56.97 87.89 57.05L87.89 82.15C87.89 82.18 87.88 82.22 87.87 82.26C87.86 82.29 87.83 82.32 87.81 82.35C87.78 82.38 87.75 82.4 87.71 82.41C87.68 82.42 87.64 82.43 87.6 82.43ZM80.07 81.88L87.32 81.88L87.32 57.33L80.06 57.33L80.07 81.88Z" fill="#D1D3D4" fill-opacity="1.000000" fill-rule="nonzero"/>
	<path id="Vector" d="M49.95 88.27C49.95 88.27 51.66 78.75 58.09 76.13C64.53 73.52 68.02 78.9 68.02 78.9C68.02 78.9 69.68 70.04 79.91 70.04C90.13 70.04 92.49 77.01 92.49 77.01C92.49 77.01 94.59 72.8 99.2 73.09C103.81 73.37 104.52 79.18 104.52 79.18C105.86 78.58 107.31 78.28 108.78 78.28C110.25 78.28 111.7 78.58 113.05 79.18C117.48 81.24 119.34 88.3 119.34 88.3L49.95 88.27Z" fill="#FFFFFF" fill-opacity="1.000000" fill-rule="nonzero"/>
	<path id="Vector" d="M119.34 88.56L49.95 88.56C49.9 88.56 49.86 88.55 49.82 88.53C49.78 88.51 49.75 88.49 49.72 88.45C49.67 88.39 49.65 88.3 49.66 88.22C49.73 87.82 51.48 78.51 57.97 75.87C59.65 75.11 61.54 74.93 63.33 75.36C65.13 75.79 66.73 76.81 67.88 78.25C68.48 76.25 71.12 69.75 79.9 69.75C88.52 69.75 91.7 74.73 92.52 76.39C93.26 75.26 95.44 72.57 99.21 72.81C103.3 73.06 104.47 77.43 104.75 78.75C106.09 78.21 107.53 77.94 108.98 77.96C110.43 77.99 111.86 78.31 113.18 78.91C117.68 80.99 119.55 87.92 119.63 88.21C119.64 88.25 119.64 88.3 119.63 88.34C119.62 88.38 119.6 88.42 119.58 88.45C119.55 88.49 119.51 88.52 119.47 88.54C119.43 88.55 119.39 88.56 119.34 88.56ZM50.29 88.01L118.97 88.01C118.52 86.56 116.63 81.15 112.94 79.43C111.63 78.86 110.21 78.56 108.78 78.56C107.35 78.56 105.94 78.86 104.63 79.43C104.59 79.46 104.54 79.47 104.5 79.47C104.45 79.47 104.41 79.46 104.37 79.43C104.33 79.41 104.29 79.38 104.27 79.34C104.24 79.31 104.23 79.26 104.22 79.22C104.22 79.16 103.49 73.68 99.17 73.4C94.85 73.11 92.75 77.12 92.73 77.16C92.71 77.21 92.67 77.25 92.62 77.28C92.57 77.3 92.51 77.32 92.46 77.31C92.4 77.31 92.35 77.29 92.3 77.26C92.26 77.22 92.22 77.18 92.21 77.12C92.18 77.05 89.76 70.35 79.89 70.35C75.76 70.35 72.55 71.79 70.36 74.64C69.37 75.92 68.67 77.4 68.28 78.97C68.27 79.02 68.25 79.08 68.21 79.12C68.17 79.16 68.12 79.18 68.06 79.19C68 79.21 67.95 79.2 67.89 79.18C67.84 79.16 67.79 79.12 67.76 79.07C66.73 77.58 65.2 76.49 63.45 76.01C61.7 75.52 59.84 75.67 58.18 76.42C52.66 78.65 50.68 86.28 50.29 87.98L50.29 88.01Z" fill="#D1D3D4" fill-opacity="1.000000" fill-rule="nonzero"/>
	<path id="Vector" d="M87.84 61.03L79.35 61.03L78.33 56.95L88.86 56.95L87.84 61.03Z" fill="#FFFFFF" fill-opacity="1.000000" fill-rule="nonzero"/>
	<path id="Vector" d="M87.81 61.32L79.35 61.32C79.28 61.32 79.22 61.3 79.17 61.26C79.12 61.22 79.08 61.16 79.07 61.1L78.05 57.03C78.04 56.98 78.04 56.94 78.05 56.9C78.06 56.85 78.07 56.81 78.1 56.78C78.13 56.74 78.16 56.72 78.2 56.7C78.24 56.68 78.28 56.67 78.33 56.67L88.85 56.67C88.89 56.67 88.94 56.68 88.98 56.7C89.01 56.72 89.05 56.74 89.08 56.78C89.1 56.81 89.12 56.85 89.13 56.9C89.14 56.94 89.14 56.98 89.13 57.03L88.11 61.1C88.09 61.17 88.05 61.22 88 61.26C87.95 61.3 87.88 61.32 87.81 61.32ZM79.55 60.76L87.59 60.76L88.47 57.26L78.69 57.26L79.55 60.76Z" fill="#D1D3D4" fill-opacity="1.000000" fill-rule="nonzero"/>
	<path id="Vector" d="M74.07 44.22C74.07 44.22 69.64 46.99 68.08 51.64C66.51 56.28 70.06 65.23 70.06 65.23L78.15 56.46L74.07 44.22Z" fill="#FFFFFF" fill-opacity="1.000000" fill-rule="nonzero"/>
	<path id="Vector" d="M70.06 65.52L70 65.52C69.96 65.51 69.91 65.49 69.88 65.46C69.84 65.43 69.81 65.39 69.79 65.34C69.64 64.97 66.25 56.23 67.81 51.55C69.37 46.87 73.74 44.1 73.9 43.98C73.94 43.96 73.98 43.95 74.02 43.95C74.07 43.95 74.11 43.96 74.15 43.98C74.19 44 74.23 44.02 74.26 44.05C74.29 44.08 74.31 44.12 74.32 44.16L78.4 56.37C78.42 56.42 78.42 56.47 78.41 56.52C78.4 56.57 78.37 56.62 78.34 56.65L70.24 65.43C70.22 65.45 70.19 65.48 70.16 65.49C70.13 65.51 70.09 65.52 70.06 65.52ZM73.94 44.67C72.92 45.39 69.62 47.94 68.36 51.73C67.06 55.65 69.51 62.87 70.17 64.7L77.84 56.39L73.94 44.67Z" fill="#D1D3D4" fill-opacity="1.000000" fill-rule="nonzero"/>
	<path id="Vector" d="M93.31 44.22C93.31 44.22 97.74 46.99 99.31 51.64C100.88 56.28 97.33 65.23 97.33 65.23L89.24 56.46L93.31 44.22Z" fill="#FFFFFF" fill-opacity="1.000000" fill-rule="nonzero"/>
	<path id="Vector" d="M97.33 65.52C97.29 65.52 97.26 65.51 97.22 65.5C97.18 65.48 97.15 65.46 97.12 65.43L89.03 56.66C88.99 56.62 88.97 56.57 88.96 56.52C88.95 56.47 88.95 56.42 88.97 56.37L93.04 44.13C93.06 44.09 93.08 44.06 93.11 44.02C93.14 43.99 93.18 43.97 93.22 43.96C93.26 43.94 93.3 43.93 93.34 43.93C93.38 43.93 93.43 43.94 93.46 43.96C93.65 44.07 98.02 46.85 99.58 51.53C101.15 56.21 97.74 64.95 97.6 65.32C97.58 65.36 97.55 65.4 97.51 65.43C97.48 65.46 97.43 65.49 97.38 65.49L97.33 65.52ZM89.58 56.39L97.25 64.7C97.92 62.86 100.36 55.64 99.06 51.73C97.8 47.94 94.5 45.39 93.49 44.67L89.58 56.39Z" fill="#D1D3D4" fill-opacity="1.000000" fill-rule="nonzero"/>
	<path id="Vector" d="M90.87 58.5C93.08 53.21 94.47 45.53 94.47 37C94.46 24.06 87.33 17.31 84.62 15.2C84.33 14.97 83.96 14.85 83.59 14.85C83.22 14.85 82.86 14.97 82.56 15.2C79.85 17.29 72.71 24.03 72.71 36.97C72.71 45.51 74.11 53.18 76.32 58.48C76.32 58.48 78.53 59.59 83.59 59.59C88.65 59.59 90.87 58.5 90.87 58.5Z" fill="#FFFFFF" fill-opacity="1.000000" fill-rule="nonzero"/>
	<path id="Vector" d="M83.59 59.9C78.52 59.9 76.28 58.79 76.19 58.75C76.13 58.72 76.08 58.67 76.06 58.61C73.75 53.07 72.43 45.21 72.43 37.01C72.43 24.1 79.4 17.32 82.4 15.01C82.74 14.75 83.17 14.6 83.6 14.6C84.04 14.6 84.46 14.75 84.81 15.01C87.8 17.32 94.78 24.09 94.78 37.01C94.78 45.24 93.45 53.11 91.15 58.61C91.12 58.67 91.07 58.72 91.02 58.75C90.9 58.8 88.67 59.9 83.59 59.9ZM76.54 58.28C77 58.48 79.23 59.32 83.59 59.32C87.95 59.32 90.18 58.48 90.64 58.28C92.89 52.85 94.18 45.09 94.18 37C94.18 24.33 87.37 17.71 84.45 15.45C84.2 15.26 83.9 15.16 83.59 15.16C83.28 15.16 82.98 15.26 82.74 15.45C79.81 17.71 73 24.31 73 37C73 45.11 74.29 52.86 76.54 58.28Z" fill="#D1D3D4" fill-opacity="1.000000" fill-rule="nonzero"/>
	<path id="Vector" d="M82.56 15.2C79.24 17.85 76.64 21.3 75 25.23L92.17 25.23C90.54 21.3 87.94 17.86 84.62 15.2C84.33 14.97 83.96 14.85 83.59 14.85C83.22 14.85 82.86 14.97 82.56 15.2Z" fill="#FFFFFF" fill-opacity="1.000000" fill-rule="nonzero"/>
	<path id="Vector" d="M92.18 25.54L75.02 25.54C74.97 25.54 74.92 25.53 74.88 25.5C74.84 25.48 74.8 25.45 74.78 25.41C74.75 25.37 74.74 25.32 74.73 25.28C74.73 25.23 74.73 25.18 74.75 25.14C76.4 21.17 79.03 17.68 82.39 15C82.73 14.73 83.16 14.59 83.59 14.59C84.03 14.59 84.45 14.73 84.8 15C88.16 17.68 90.8 21.16 92.45 25.14C92.47 25.18 92.47 25.23 92.47 25.28C92.46 25.32 92.45 25.37 92.42 25.41C92.4 25.45 92.36 25.48 92.32 25.5C92.28 25.53 92.23 25.54 92.18 25.54ZM75.43 24.98L91.75 24.98C90.13 21.26 87.62 17.99 84.45 15.46C84.2 15.28 83.9 15.18 83.59 15.18C83.28 15.18 82.98 15.28 82.74 15.46C79.56 17.99 77.05 21.25 75.43 24.97L75.43 24.98Z" fill="#D1D3D4" fill-opacity="1.000000" fill-rule="nonzero"/>
	<path id="Vector" d="M90.65 34.87C90.65 38.53 87.68 41.5 84.02 41.5C80.35 41.5 77.38 38.53 77.38 34.87C77.38 31.2 80.35 28.23 84.02 28.23C87.68 28.23 90.65 31.2 90.65 34.87Z" fill="#FFFFFF" fill-opacity="1.000000" fill-rule="evenodd"/>
	<path id="Vector" d="M84.02 41.79C82.65 41.79 81.31 41.38 80.17 40.62C79.03 39.86 78.14 38.78 77.62 37.51C77.1 36.25 76.96 34.86 77.23 33.51C77.49 32.17 78.15 30.94 79.12 29.97C80.09 29 81.32 28.34 82.67 28.07C84.01 27.81 85.4 27.94 86.66 28.47C87.93 28.99 89.01 29.88 89.77 31.02C90.53 32.16 90.94 33.49 90.94 34.86C90.94 36.7 90.21 38.46 88.91 39.76C87.61 41.05 85.85 41.78 84.02 41.79ZM84.02 28.49C82.76 28.49 81.53 28.87 80.49 29.57C79.44 30.26 78.63 31.26 78.15 32.42C77.67 33.58 77.54 34.86 77.79 36.09C78.03 37.32 78.64 38.45 79.53 39.34C80.41 40.23 81.55 40.83 82.78 41.08C84.01 41.32 85.29 41.2 86.45 40.71C87.61 40.23 88.6 39.42 89.3 38.37C90 37.33 90.37 36.1 90.37 34.84C90.36 33.16 89.69 31.56 88.5 30.37C87.31 29.19 85.69 28.52 84.02 28.52L84.02 28.49Z" fill="#D1D3D4" fill-opacity="1.000000" fill-rule="nonzero"/>
	<path id="Vector" d="M88.11 34.87C88.11 37.13 86.28 38.96 84.02 38.96C81.76 38.96 79.92 37.13 79.92 34.87C79.92 32.61 81.76 30.78 84.02 30.78C86.28 30.78 88.11 32.61 88.11 34.87Z" fill="#FFFFFF" fill-opacity="1.000000" fill-rule="evenodd"/>
	<path id="Vector" d="M84.02 39.25C83.15 39.25 82.3 38.99 81.58 38.51C80.86 38.03 80.3 37.35 79.97 36.55C79.64 35.74 79.55 34.86 79.72 34.01C79.89 33.16 80.31 32.38 80.92 31.77C81.53 31.16 82.31 30.74 83.16 30.57C84.01 30.4 84.89 30.49 85.69 30.82C86.49 31.15 87.18 31.71 87.66 32.44C88.14 33.16 88.4 34 88.4 34.87C88.4 36.03 87.93 37.15 87.11 37.97C86.29 38.79 85.18 39.25 84.02 39.25ZM84.02 31.06C83.26 31.06 82.52 31.29 81.9 31.71C81.27 32.13 80.78 32.72 80.49 33.42C80.21 34.11 80.13 34.88 80.28 35.62C80.43 36.36 80.79 37.04 81.32 37.57C81.86 38.1 82.54 38.47 83.28 38.61C84.01 38.76 84.78 38.68 85.48 38.39C86.17 38.1 86.77 37.61 87.19 36.99C87.6 36.36 87.83 35.62 87.83 34.87C87.82 33.86 87.42 32.89 86.71 32.18C85.99 31.46 85.02 31.06 84.02 31.06Z" fill="#D1D3D4" fill-opacity="1.000000" fill-rule="nonzero"/>
	<path id="Vector" d="M87.26 34.77C87.19 34.77 87.13 34.74 87.08 34.7C87.03 34.66 86.99 34.6 86.98 34.53C86.94 33.79 86.6 33.09 86.05 32.6C85.5 32.1 84.77 31.84 84.03 31.88C84 31.88 83.96 31.88 83.92 31.86C83.89 31.85 83.86 31.83 83.83 31.81C83.77 31.76 83.74 31.69 83.74 31.62C83.73 31.55 83.75 31.47 83.8 31.42C83.85 31.36 83.92 31.33 83.99 31.32C84.87 31.29 85.73 31.6 86.39 32.18C87.05 32.76 87.46 33.58 87.53 34.45C87.54 34.52 87.52 34.6 87.48 34.66C87.44 34.71 87.37 34.75 87.3 34.76L87.26 34.77Z" fill="#D1D3D4" fill-opacity="1.000000" fill-rule="nonzero"/>
	<path id="Vector" d="M82.58 32.27C82.53 32.27 82.49 32.26 82.45 32.24C82.41 32.23 82.38 32.2 82.35 32.17C82.31 32.11 82.29 32.03 82.3 31.96C82.31 31.89 82.35 31.82 82.4 31.78C82.64 31.6 82.92 31.49 83.21 31.44C83.25 31.44 83.29 31.44 83.32 31.45C83.36 31.46 83.39 31.47 83.42 31.5C83.45 31.52 83.47 31.55 83.49 31.58C83.51 31.61 83.52 31.65 83.52 31.68C83.53 31.76 83.51 31.83 83.47 31.89C83.42 31.94 83.36 31.98 83.28 31.99C83.08 32.02 82.89 32.1 82.73 32.22C82.69 32.25 82.63 32.27 82.58 32.27Z" fill="#D1D3D4" fill-opacity="1.000000" fill-rule="nonzero"/>
	<path id="Vector" d="M90.06 56.82C90.03 56.82 90 56.82 89.97 56.82C89.9 56.79 89.85 56.74 89.81 56.68C89.78 56.61 89.77 56.54 89.8 56.47C90.94 52.83 91.87 49.14 92.57 45.39C92.57 45.36 92.59 45.32 92.61 45.29C92.62 45.26 92.65 45.23 92.68 45.21C92.71 45.19 92.74 45.18 92.78 45.17C92.82 45.16 92.85 45.16 92.89 45.17C92.96 45.18 93.02 45.22 93.06 45.28C93.11 45.34 93.12 45.42 93.11 45.49C92.41 49.26 91.49 52.99 90.34 56.66C90.32 56.71 90.28 56.75 90.23 56.78C90.18 56.81 90.12 56.82 90.06 56.82Z" fill="#FFFFFF" fill-opacity="1.000000" fill-rule="nonzero"/>
	<path id="Vector" d="M84.64 67.12C84.57 67.12 84.5 67.09 84.45 67.04C84.39 66.99 84.36 66.92 84.36 66.84L84.36 61.59C84.36 61.52 84.39 61.45 84.45 61.39C84.5 61.34 84.57 61.31 84.64 61.31C84.71 61.31 84.79 61.34 84.84 61.39C84.89 61.45 84.92 61.52 84.92 61.59L84.92 66.84C84.92 66.92 84.89 66.99 84.84 67.04C84.79 67.09 84.71 67.12 84.64 67.12Z" fill="#D1D3D4" fill-opacity="1.000000" fill-rule="nonzero"/>
	<path id="Vector" d="M81.81 69.87C81.73 69.87 81.66 69.84 81.61 69.79C81.56 69.74 81.53 69.67 81.53 69.6L81.53 64.1C81.53 64.03 81.56 63.96 81.61 63.9C81.66 63.85 81.73 63.82 81.81 63.82C81.88 63.82 81.95 63.85 82 63.9C82.05 63.95 82.08 64.03 82.08 64.1L82.08 69.6C82.08 69.67 82.05 69.74 82 69.79C81.95 69.85 81.88 69.87 81.81 69.87Z" fill="#D1D3D4" fill-opacity="1.000000" fill-rule="nonzero"/>
	<path id="Vector" d="M64.89 83.42L64.84 83.42C64.81 83.41 64.77 83.4 64.74 83.38C64.71 83.36 64.68 83.33 64.66 83.3C64.64 83.27 64.63 83.24 64.62 83.2C64.61 83.17 64.61 83.13 64.62 83.09C64.62 82.98 65.18 80.26 67.58 79.01C69.33 78.09 71.56 78.22 74.23 79.37C74.27 79.38 74.3 79.4 74.33 79.43C74.36 79.46 74.38 79.49 74.4 79.52C74.42 79.56 74.42 79.6 74.42 79.64C74.42 79.67 74.42 79.71 74.4 79.75C74.38 79.78 74.36 79.82 74.33 79.84C74.3 79.87 74.27 79.89 74.23 79.9C74.2 79.91 74.16 79.92 74.12 79.91C74.08 79.91 74.04 79.9 74.01 79.88C71.51 78.77 69.44 78.66 67.85 79.49C65.7 80.6 65.18 83.18 65.17 83.21C65.16 83.27 65.12 83.32 65.07 83.36C65.02 83.4 64.96 83.42 64.89 83.42Z" fill="#D1D3D4" fill-opacity="1.000000" fill-rule="nonzero"/>
	<path id="Vector" d="M96.35 80.13C96.31 80.13 96.27 80.12 96.24 80.1C96.2 80.08 96.17 80.06 96.14 80.03C92.21 75.68 89.23 77.45 89.2 77.47C89.17 77.49 89.13 77.5 89.1 77.51C89.06 77.51 89.02 77.51 88.99 77.5C88.95 77.5 88.92 77.48 88.89 77.46C88.86 77.44 88.84 77.41 88.82 77.38C88.78 77.32 88.77 77.24 88.79 77.17C88.8 77.1 88.85 77.04 88.91 77C89.04 76.91 92.31 74.97 96.55 79.66C96.58 79.69 96.6 79.72 96.61 79.75C96.63 79.78 96.64 79.82 96.64 79.86C96.64 79.89 96.63 79.93 96.61 79.96C96.6 80 96.58 80.03 96.55 80.05C96.5 80.1 96.42 80.13 96.35 80.13Z" fill="#D1D3D4" fill-opacity="1.000000" fill-rule="nonzero"/>
	<path id="Vector" d="M115.39 24.45L99.7 24.45C99.63 24.45 99.56 24.42 99.5 24.36C99.45 24.31 99.42 24.24 99.42 24.17C99.42 24.1 99.45 24.03 99.5 23.97C99.56 23.92 99.63 23.89 99.7 23.89L115.39 23.89C115.47 23.89 115.54 23.92 115.59 23.97C115.64 24.03 115.67 24.1 115.67 24.17C115.67 24.24 115.64 24.31 115.59 24.36C115.54 24.42 115.47 24.45 115.39 24.45Z" fill="#D1D3D4" fill-opacity="1.000000" fill-rule="nonzero"/>
	<path id="Vector" d="M115.39 28.01L99.7 28.01C99.63 28.01 99.56 27.98 99.5 27.93C99.45 27.87 99.42 27.8 99.42 27.73C99.42 27.66 99.45 27.59 99.5 27.54C99.56 27.48 99.63 27.45 99.7 27.45L115.39 27.45C115.47 27.45 115.54 27.48 115.59 27.53C115.64 27.59 115.67 27.66 115.67 27.73C115.67 27.8 115.64 27.87 115.59 27.93C115.54 27.98 115.47 28.01 115.39 28.01Z" fill="#D1D3D4" fill-opacity="1.000000" fill-rule="nonzero"/>
	<path id="Vector" d="M115.39 31.57L99.7 31.57C99.63 31.57 99.56 31.54 99.5 31.49C99.45 31.44 99.42 31.37 99.42 31.3C99.42 31.22 99.45 31.15 99.5 31.1C99.56 31.05 99.63 31.02 99.7 31.02L115.39 31.02C115.47 31.02 115.54 31.05 115.59 31.1C115.64 31.15 115.67 31.22 115.67 31.3C115.67 31.37 115.64 31.44 115.59 31.49C115.54 31.54 115.47 31.57 115.39 31.57Z" fill="#D1D3D4" fill-opacity="1.000000" fill-rule="nonzero"/>
	<path id="Vector" d="M109.83 35.14L99.7 35.14C99.63 35.14 99.56 35.11 99.5 35.06C99.45 35.01 99.42 34.94 99.42 34.86C99.42 34.79 99.45 34.72 99.5 34.67C99.56 34.61 99.63 34.59 99.7 34.59L109.83 34.59C109.9 34.59 109.97 34.61 110.02 34.67C110.08 34.72 110.11 34.79 110.11 34.86C110.11 34.94 110.08 35.01 110.02 35.06C109.97 35.11 109.9 35.14 109.83 35.14Z" fill="#D1D3D4" fill-opacity="1.000000" fill-rule="nonzero"/>
	<path id="Vector" d="M86.26 69.17C86.19 69.16 86.12 69.13 86.06 69.08C86.01 69.03 85.98 68.96 85.98 68.89L85.98 66.6C85.98 66.53 86.01 66.46 86.06 66.41C86.11 66.35 86.18 66.32 86.26 66.32C86.33 66.32 86.4 66.35 86.45 66.41C86.51 66.46 86.54 66.53 86.54 66.6L86.54 68.89C86.54 68.96 86.51 69.03 86.45 69.08C86.4 69.14 86.33 69.17 86.26 69.17Z" fill="#D1D3D4" fill-opacity="1.000000" fill-rule="nonzero"/>
	<path id="Vector" d="M68.69 29.79L46.32 29.79C46.24 29.79 46.17 29.76 46.12 29.71C46.07 29.66 46.04 29.59 46.04 29.51L46.04 16.39C46.04 16.32 46.07 16.25 46.12 16.2C46.17 16.15 46.24 16.12 46.32 16.12C46.39 16.12 46.46 16.15 46.51 16.2C46.57 16.25 46.59 16.32 46.59 16.39L46.59 29.24L68.69 29.24C68.76 29.24 68.83 29.27 68.88 29.32C68.93 29.37 68.96 29.44 68.96 29.51C68.96 29.59 68.93 29.66 68.88 29.71C68.83 29.76 68.76 29.79 68.69 29.79Z" fill="#D1D3D4" fill-opacity="1.000000" fill-rule="nonzero"/>
	<path id="Vector" d="M48.75 27.77C48.72 27.77 48.7 27.77 48.67 27.77C48.6 27.75 48.54 27.7 48.51 27.64C48.47 27.57 48.46 27.5 48.48 27.43C48.54 27.23 49.97 22.67 53.33 21.78C55.21 21.28 55.71 22.22 56.2 23.12C56.68 24.01 57.08 24.74 58.6 24.81L58.7 24.81C61.86 24.81 64.34 17.82 64.36 17.74C64.38 17.67 64.44 17.62 64.5 17.59C64.54 17.57 64.57 17.56 64.61 17.56C64.64 17.56 64.68 17.56 64.72 17.57C64.75 17.59 64.78 17.6 64.81 17.63C64.84 17.65 64.86 17.68 64.87 17.71C64.89 17.75 64.9 17.78 64.9 17.82C64.9 17.86 64.9 17.89 64.89 17.93C64.78 18.24 62.25 25.37 58.7 25.37L58.58 25.37C56.74 25.28 56.17 24.26 55.71 23.38C55.25 22.51 54.92 21.93 53.49 22.31C50.43 23.12 49.06 27.54 49.04 27.59C49.02 27.64 48.98 27.69 48.92 27.73C48.87 27.76 48.81 27.77 48.75 27.77Z" fill="#D1D3D4" fill-opacity="1.000000" fill-rule="nonzero"/>
	<path id="Vector" d="M106.13 70.42C105.17 70.42 104.23 70.14 103.43 69.6C102.64 69.07 102.02 68.31 101.65 67.43C101.28 66.54 101.18 65.57 101.37 64.62C101.56 63.68 102.02 62.82 102.7 62.14C103.38 61.46 104.24 61 105.18 60.81C106.12 60.63 107.1 60.72 107.99 61.09C108.87 61.46 109.63 62.08 110.16 62.88C110.7 63.67 110.98 64.61 110.98 65.57C110.98 66.86 110.47 68.09 109.56 69C108.65 69.91 107.42 70.42 106.13 70.42ZM106.13 61.27C105.28 61.27 104.45 61.53 103.74 62C103.04 62.47 102.48 63.14 102.16 63.93C101.83 64.71 101.75 65.58 101.91 66.41C102.08 67.24 102.49 68.01 103.09 68.61C103.69 69.21 104.46 69.62 105.29 69.79C106.13 69.95 106.99 69.87 107.77 69.54C108.56 69.22 109.23 68.67 109.7 67.96C110.18 67.25 110.43 66.42 110.43 65.57C110.43 64.43 109.97 63.34 109.17 62.53C108.36 61.73 107.27 61.28 106.13 61.27Z" fill="#D1D3D4" fill-opacity="1.000000" fill-rule="nonzero"/>
	<path id="Vector" d="M109.9 68.43C109.85 68.43 109.79 68.42 109.75 68.38L105.97 65.8C105.94 65.77 105.91 65.74 105.88 65.7C105.86 65.66 105.85 65.62 105.85 65.57L105.85 61C105.85 60.92 105.88 60.85 105.94 60.8C105.99 60.75 106.06 60.72 106.13 60.72C106.2 60.72 106.27 60.75 106.33 60.8C106.38 60.85 106.41 60.92 106.41 61L106.41 65.43L110.06 67.93C110.11 67.96 110.15 68.01 110.17 68.07C110.18 68.12 110.18 68.19 110.17 68.24C110.15 68.3 110.11 68.35 110.07 68.38C110.02 68.42 109.96 68.43 109.9 68.43Z" fill="#D1D3D4" fill-opacity="1.000000" fill-rule="nonzero"/>
	<path id="Vector" d="M101.84 66.82C101.78 66.82 101.72 66.8 101.67 66.76C101.62 66.72 101.59 66.67 101.57 66.61C101.56 66.57 101.56 66.53 101.57 66.5C101.58 66.46 101.59 66.43 101.61 66.4C101.63 66.37 101.65 66.34 101.68 66.32C101.71 66.3 101.75 66.29 101.78 66.28L106.07 65.3C106.11 65.29 106.14 65.29 106.18 65.3C106.22 65.3 106.25 65.32 106.28 65.34C106.31 65.36 106.34 65.38 106.36 65.41C106.38 65.44 106.4 65.48 106.41 65.52C106.41 65.55 106.42 65.59 106.41 65.63C106.4 65.66 106.39 65.7 106.37 65.73C106.35 65.76 106.32 65.79 106.29 65.81C106.26 65.83 106.23 65.85 106.19 65.85L101.9 66.83L101.84 66.82Z" fill="#D1D3D4" fill-opacity="1.000000" fill-rule="nonzero"/>
	<path id="Vector" d="M62.73 66.34L56.18 66.34C56.11 66.34 56.04 66.31 55.98 66.25C55.93 66.2 55.9 66.13 55.9 66.06C55.9 65.99 55.93 65.92 55.98 65.86C56.04 65.81 56.11 65.78 56.18 65.78L62.73 65.78C62.8 65.78 62.87 65.81 62.92 65.86C62.97 65.92 63 65.99 63 66.06C63 66.13 62.97 66.2 62.92 66.25C62.87 66.31 62.8 66.34 62.73 66.34Z" fill="#D1D3D4" fill-opacity="1.000000" fill-rule="nonzero"/>
	<path id="Vector" d="M60.34 69.17L56.18 69.17C56.11 69.17 56.04 69.14 55.98 69.08C55.93 69.03 55.9 68.96 55.9 68.89C55.9 68.82 55.93 68.75 55.98 68.69C56.04 68.64 56.11 68.61 56.18 68.61L60.34 68.61C60.41 68.61 60.48 68.64 60.54 68.69C60.59 68.75 60.62 68.82 60.62 68.89C60.62 68.96 60.59 69.03 60.53 69.08C60.48 69.13 60.41 69.16 60.34 69.17Z" fill="#D1D3D4" fill-opacity="1.000000" fill-rule="nonzero"/>
	<path id="Vector" d="M126.74 29.55C126.39 29.29 126.12 28.96 125.95 28.57C125.78 28.18 125.71 27.75 125.76 27.33C125.32 27.43 124.87 27.38 124.47 27.19C124.07 27 123.74 26.68 123.54 26.29C123.16 25.48 123.05 24.57 123.24 23.69C122.56 23.37 122 22.85 121.62 22.2C121.23 21.56 121.05 20.82 121.09 20.07C121.12 19.32 121.38 18.6 121.82 18C122.26 17.39 122.87 16.93 123.57 16.67C123.46 16.62 123.35 16.53 123.27 16.43C123.19 16.33 123.13 16.21 123.11 16.08C122.61 14.42 123.6 12.56 125.11 11.73C125.89 11.35 126.74 11.14 127.61 11.11C128.47 11.09 129.33 11.25 130.13 11.58C130.09 11.36 130.11 11.13 130.19 10.92C130.27 10.71 130.41 10.53 130.59 10.4C130.95 10.13 131.37 9.96 131.82 9.89C134.04 9.4 136.36 9.57 138.49 10.37C139.51 10.75 140.62 11.52 140.54 12.58C141.2 12.47 141.88 12.56 142.49 12.84C143.1 13.12 143.61 13.58 143.95 14.16C144.3 14.74 144.46 15.41 144.41 16.08C144.37 16.75 144.12 17.39 143.71 17.92C144.21 18.4 144.57 19 144.75 19.67C144.94 20.33 144.94 21.04 144.76 21.7C144.58 22.37 144.22 22.98 143.72 23.46C143.22 23.94 142.61 24.28 141.93 24.44C142 24.19 142.39 24.41 142.49 24.65C143.15 26.31 141.93 28.26 140.39 29.19C138.84 30.12 136.59 30.29 135.3 29C135.31 29.43 135.17 29.85 134.91 30.19C134.65 30.53 134.28 30.77 133.86 30.88C133.02 31.06 132.15 31.04 131.32 30.8C130.49 30.63 129.75 30.18 128.95 30C128.14 29.82 127.46 30.07 126.74 29.55Z" fill="#FFFFFF" fill-opacity="1.000000" fill-rule="nonzero"/>
	<path id="Vector" d="M132.88 31.26C132.33 31.25 131.78 31.18 131.25 31.05C130.81 30.95 130.38 30.8 129.96 30.63C129.6 30.47 129.23 30.35 128.85 30.25C128.61 30.2 128.36 30.18 128.11 30.17C127.57 30.2 127.03 30.06 126.58 29.77C126.25 29.52 125.98 29.2 125.78 28.84C125.59 28.47 125.49 28.07 125.47 27.65C125.03 27.67 124.59 27.57 124.2 27.35C123.82 27.13 123.5 26.8 123.3 26.41C122.9 25.61 122.77 24.71 122.93 23.83C122.27 23.47 121.73 22.94 121.35 22.3C120.98 21.65 120.79 20.92 120.8 20.17C120.81 19.43 121.03 18.7 121.42 18.06C121.82 17.43 122.38 16.92 123.04 16.58C122.95 16.45 122.88 16.3 122.84 16.14C122.33 14.48 123.26 12.41 124.98 11.47C125.72 11.1 126.54 10.88 127.37 10.82C128.2 10.77 129.03 10.89 129.82 11.17C129.89 10.77 130.1 10.42 130.4 10.16C130.8 9.87 131.26 9.68 131.75 9.61C134.03 9.11 136.4 9.28 138.58 10.1C139.89 10.59 140.7 11.39 140.8 12.28C141.47 12.24 142.15 12.38 142.74 12.69C143.34 13.01 143.84 13.49 144.18 14.07C144.52 14.66 144.68 15.33 144.66 16C144.64 16.68 144.43 17.33 144.05 17.89C144.5 18.38 144.83 18.96 145 19.59C145.18 20.23 145.2 20.89 145.07 21.54C144.94 22.18 144.65 22.78 144.24 23.29C143.82 23.81 143.29 24.21 142.69 24.47C142.7 24.5 142.72 24.53 142.73 24.56C143.46 26.42 142.13 28.46 140.51 29.42C139.05 30.3 136.96 30.58 135.53 29.56C135.41 29.94 135.21 30.28 134.93 30.56C134.65 30.84 134.3 31.04 133.92 31.15C133.58 31.24 133.23 31.28 132.88 31.26ZM125.76 27.02C125.82 27.01 125.88 27.04 125.93 27.08C125.96 27.11 125.99 27.14 126.01 27.19C126.03 27.23 126.03 27.27 126.03 27.32C125.99 27.7 126.05 28.08 126.2 28.42C126.35 28.77 126.59 29.07 126.9 29.3C127.27 29.53 127.7 29.65 128.14 29.62C128.42 29.62 128.71 29.65 128.99 29.71C129.39 29.81 129.78 29.95 130.17 30.11C130.55 30.28 130.95 30.41 131.36 30.51C132.14 30.73 132.96 30.76 133.76 30.59C134.11 30.5 134.42 30.31 134.64 30.03C134.87 29.75 135 29.41 135 29.05C135 28.99 135.01 28.93 135.04 28.88C135.07 28.83 135.11 28.79 135.16 28.77C135.21 28.74 135.27 28.73 135.33 28.74C135.38 28.75 135.44 28.78 135.48 28.82C136.7 30.04 138.8 29.82 140.23 28.96C141.66 28.11 142.8 26.3 142.21 24.77C142.19 24.74 142.17 24.71 142.14 24.68L141.98 24.73C141.94 24.74 141.89 24.74 141.84 24.73C141.79 24.71 141.75 24.69 141.72 24.65C141.68 24.61 141.66 24.57 141.65 24.52C141.64 24.48 141.64 24.43 141.65 24.38C141.67 24.29 141.72 24.22 141.79 24.16C141.86 24.11 141.95 24.07 142.04 24.07C142.09 24.06 142.14 24.06 142.19 24.07C142.73 23.87 143.23 23.55 143.62 23.12C144.02 22.7 144.31 22.19 144.48 21.63C144.63 21.01 144.63 20.35 144.46 19.74C144.28 19.12 143.95 18.56 143.5 18.11C143.45 18.06 143.42 18 143.41 17.93C143.41 17.86 143.43 17.79 143.47 17.74C143.84 17.25 144.06 16.67 144.1 16.06C144.13 15.45 143.99 14.84 143.67 14.31C143.36 13.79 142.9 13.37 142.34 13.11C141.79 12.85 141.17 12.76 140.57 12.85C140.52 12.86 140.48 12.86 140.44 12.84C140.4 12.83 140.37 12.81 140.34 12.78C140.31 12.76 140.28 12.72 140.27 12.68C140.25 12.64 140.24 12.6 140.24 12.56C140.31 11.66 139.33 10.96 138.38 10.61C136.3 9.83 134.03 9.67 131.86 10.14C131.46 10.2 131.08 10.36 130.75 10.59C130.62 10.69 130.51 10.83 130.45 10.98C130.38 11.14 130.36 11.31 130.39 11.48C130.41 11.53 130.41 11.58 130.39 11.63C130.38 11.68 130.35 11.72 130.31 11.76C130.28 11.79 130.23 11.82 130.18 11.83C130.13 11.84 130.08 11.84 130.03 11.82C129.27 11.5 128.45 11.34 127.62 11.37C126.8 11.39 125.99 11.59 125.24 11.95C123.75 12.76 122.93 14.53 123.37 15.97C123.41 16.11 123.5 16.34 123.65 16.38C123.7 16.4 123.75 16.43 123.79 16.48C123.82 16.52 123.84 16.58 123.85 16.64C123.85 16.7 123.83 16.75 123.8 16.8C123.76 16.85 123.72 16.89 123.66 16.91C123.01 17.15 122.45 17.58 122.04 18.14C121.63 18.7 121.39 19.37 121.36 20.06C121.32 20.76 121.5 21.44 121.85 22.04C122.21 22.64 122.73 23.12 123.35 23.42C123.41 23.45 123.45 23.49 123.48 23.54C123.51 23.6 123.51 23.66 123.5 23.71C123.32 24.53 123.42 25.38 123.78 26.13C123.95 26.47 124.23 26.75 124.58 26.91C124.92 27.07 125.31 27.12 125.68 27.04C125.7 27.04 125.73 27.03 125.76 27.04L125.76 27.02Z" fill="#30325B" fill-opacity="1.000000" fill-rule="nonzero"/>
	<path id="Vector" d="M123.37 36.06C123.37 36.06 113.92 53.03 112.65 56C111.38 58.97 116.99 65.86 119.17 64.19C121.34 62.52 123.37 36.06 123.37 36.06Z" fill="#FF5A57" fill-opacity="1.000000" fill-rule="nonzero"/>
	<path id="Vector" d="M141.5 124.56C141.5 124.56 141.87 127.05 141.31 128.01C140.55 129.37 140.11 130.88 140.01 132.44C140.45 132.95 140.99 133.36 141.6 133.65C142.21 133.93 142.88 134.09 143.55 134.1C145.79 134.1 148.03 132.37 148.28 131.54C148.53 130.71 146.47 121.89 146.47 121.89L141.5 124.56Z" fill="#FFFFFF" fill-opacity="1.000000" fill-rule="nonzero"/>
	<path id="Vector" d="M143.55 134.34C142.84 134.33 142.13 134.17 141.49 133.86C140.84 133.56 140.27 133.12 139.81 132.58C139.79 132.55 139.77 132.52 139.76 132.49C139.75 132.46 139.75 132.43 139.76 132.39C139.86 130.81 140.32 129.27 141.1 127.88C141.52 127.16 141.35 125.26 141.25 124.6C141.24 124.55 141.25 124.49 141.27 124.45C141.3 124.4 141.33 124.36 141.38 124.34L146.36 121.65C146.4 121.63 146.44 121.62 146.48 121.62C146.52 121.62 146.56 121.63 146.59 121.65C146.63 121.67 146.66 121.69 146.68 121.72C146.71 121.75 146.72 121.79 146.74 121.82C147.08 123.31 148.79 130.76 148.53 131.61C148.28 132.46 145.91 134.34 143.55 134.34ZM140.27 132.34C140.69 132.8 141.19 133.17 141.76 133.42C142.32 133.68 142.93 133.82 143.55 133.83C145.69 133.83 147.83 132.17 148.04 131.45C148.18 130.97 147.27 126.41 146.3 122.25L141.77 124.7C141.85 125.3 142.04 127.26 141.53 128.14C140.81 129.43 140.38 130.86 140.27 132.34Z" fill="#30325B" fill-opacity="1.000000" fill-rule="nonzero"/>
	<path id="Vector" d="M126.08 64.08L136.87 67.14L139.36 35.1C139.36 35.1 130.44 32.92 128.29 33.95C126.14 34.97 126.08 64.08 126.08 64.08Z" fill="#30325B" fill-opacity="1.000000" fill-rule="nonzero"/>
	<path id="Vector" d="M136.87 67.42L136.79 67.42L126.03 64.34C125.97 64.33 125.92 64.29 125.88 64.24C125.84 64.2 125.82 64.14 125.82 64.08C125.82 59.19 125.98 34.72 128.18 33.7C130.38 32.68 139.08 34.74 139.45 34.81C139.51 34.82 139.57 34.86 139.61 34.92C139.64 34.97 139.66 35.04 139.66 35.1L137.16 67.14C137.16 67.18 137.14 67.22 137.12 67.26C137.1 67.29 137.08 67.33 137.04 67.35C136.99 67.39 136.93 67.42 136.87 67.42ZM126.34 63.87L136.6 66.78L139.05 35.31C136.43 34.69 130.03 33.42 128.38 34.2C127.14 34.81 126.39 49.9 126.36 63.87L126.34 63.87Z" fill="#30325B" fill-opacity="1.000000" fill-rule="nonzero"/>
	<path id="Vector" d="M129.68 118.79L129.68 126.29L126.19 127.32L126.28 125.78L124.7 127.41C124.7 127.41 115.34 129.13 115.39 127.85C115.44 126.56 116.39 125.87 117.57 125.23C118.84 124.54 122.17 122.61 122.17 122.61L122.67 117.11L129.68 118.79Z" fill="#FFFFFF" fill-opacity="1.000000" fill-rule="nonzero"/>
	<path id="Vector" d="M117.13 128.57C116.51 128.64 115.88 128.52 115.33 128.25C115.27 128.2 115.22 128.14 115.19 128.07C115.15 128 115.14 127.92 115.14 127.84C115.2 126.42 116.29 125.63 117.45 125.01C118.61 124.39 121.33 122.79 121.94 122.45L122.42 117.08C122.43 117.02 122.46 116.96 122.51 116.91C122.56 116.87 122.63 116.85 122.69 116.85C122.73 116.86 122.76 116.87 122.79 116.88C122.82 116.9 122.84 116.92 122.87 116.94C122.89 116.97 122.9 117 122.91 117.03C122.92 117.06 122.92 117.1 122.92 117.13L122.43 122.64C122.42 122.68 122.41 122.72 122.39 122.75C122.37 122.79 122.34 122.82 122.3 122.84C122.27 122.84 118.98 124.78 117.69 125.46C116.41 126.14 115.69 126.77 115.65 127.87C115.92 128.34 120 128.02 124.58 127.18L126.09 125.62C126.13 125.58 126.18 125.55 126.23 125.54C126.28 125.54 126.33 125.54 126.38 125.56C126.43 125.58 126.47 125.62 126.49 125.66C126.52 125.7 126.53 125.75 126.53 125.8L126.47 126.98L129.43 126.11L129.43 118.8C129.43 118.77 129.43 118.74 129.45 118.71C129.46 118.68 129.48 118.65 129.5 118.62C129.52 118.6 129.55 118.58 129.58 118.57C129.61 118.56 129.64 118.55 129.68 118.55C129.75 118.55 129.81 118.58 129.86 118.62C129.91 118.67 129.93 118.74 129.93 118.8L129.93 126.3C129.93 126.36 129.92 126.41 129.88 126.46C129.85 126.5 129.8 126.53 129.75 126.55L126.27 127.57C126.23 127.58 126.19 127.58 126.15 127.58C126.11 127.57 126.07 127.55 126.04 127.53C126.01 127.5 125.98 127.47 125.97 127.43C125.95 127.4 125.94 127.36 125.94 127.32L125.99 126.45L124.88 127.59C124.84 127.63 124.8 127.65 124.74 127.66C122.23 128.15 119.69 128.45 117.13 128.57Z" fill="#30325B" fill-opacity="1.000000" fill-rule="nonzero"/>
	<path id="Vector" d="M146.4 67.1L149.29 124.04C149.29 124.04 149.01 126.13 144.61 126.39C140.22 126.65 140.66 125.58 140.66 125.58L133.78 83.81L130.96 120.92L121.49 121.53L123.38 63.05L146.4 67.1Z" fill="#30325B" fill-opacity="1.000000" fill-rule="nonzero"/>
	<path id="Vector" d="M143.32 126.7C141.74 126.7 140.8 126.47 140.48 126.02C140.39 125.89 140.35 125.73 140.37 125.57L133.9 86.14L131.26 120.94C131.25 121 131.22 121.07 131.17 121.11C131.13 121.16 131.06 121.19 131 121.19L121.51 121.8C121.47 121.8 121.43 121.79 121.4 121.78C121.36 121.77 121.33 121.74 121.3 121.72C121.27 121.69 121.25 121.66 121.23 121.62C121.22 121.59 121.21 121.55 121.22 121.51L123.1 63.03C123.1 62.99 123.11 62.95 123.13 62.91C123.14 62.88 123.17 62.85 123.2 62.82C123.23 62.8 123.27 62.78 123.31 62.77C123.35 62.76 123.39 62.76 123.43 62.76L146.45 66.83C146.51 66.84 146.57 66.87 146.61 66.92C146.65 66.97 146.68 67.03 146.68 67.09L149.55 124.03C149.55 124.18 149.19 126.39 144.62 126.66C144.15 126.69 143.72 126.7 143.32 126.7ZM140.91 125.68L140.96 125.73C141.14 125.9 141.83 126.29 144.59 126.11C148.66 125.87 149.02 124.03 149.02 124L146.15 67.33L123.64 63.38L121.77 121.24L130.72 120.69L133.52 83.83C133.53 83.76 133.56 83.7 133.61 83.65C133.66 83.6 133.72 83.57 133.79 83.57C133.85 83.57 133.92 83.59 133.97 83.63C134.02 83.67 134.06 83.73 134.07 83.8L140.92 125.57C140.94 125.62 140.94 125.67 140.92 125.72L140.91 125.68Z" fill="#30325B" fill-opacity="1.000000" fill-rule="nonzero"/>
	<path id="Vector" d="M137.42 32.04C137.42 32.04 133.73 70.71 135.38 72.93C137.04 75.14 147.25 76.9 148.02 72.6C149.28 65.53 148.57 40.15 147.1 37.76C141.15 32.47 137.42 32.04 137.42 32.04Z" fill="#FF5A57" fill-opacity="1.000000" fill-rule="nonzero"/>
	<path id="Vector" d="M123.38 36.06C123.38 36.06 118.09 71.18 119.09 72.2C120.09 73.22 125.5 74.6 127 73.57C128.49 72.55 130.54 32.22 130.54 32.22C127.84 32.82 125.36 34.14 123.38 36.06Z" fill="#FF5A57" fill-opacity="1.000000" fill-rule="nonzero"/>
	<path id="Vector" d="M130.82 31.52L130.37 35.27C130.62 36.01 131.13 36.63 131.82 37.01C132.5 37.39 133.31 37.49 134.06 37.3C136.92 36.7 136.95 35.04 136.95 35.04C136.95 35.04 137.34 26.59 137.34 26.57C137.27 26.37 137.18 26.18 137.07 26.01C136.64 25.05 136.03 23.73 136.21 22.66C136.37 21.78 136.81 20.97 137.46 20.36C137.13 20.51 136.76 20.58 136.39 20.57C136.02 20.55 135.65 20.45 135.33 20.28C135 20.1 134.72 19.85 134.51 19.54C134.3 19.24 134.16 18.89 134.1 18.52C134.1 18.91 133.76 19.19 133.44 19.4C132.97 19.77 132.38 19.96 131.78 19.95C131 19.87 130.41 19.19 129.67 18.91C129.78 19.16 129.8 19.44 129.73 19.71C129.65 19.98 129.47 20.2 129.24 20.35C128.76 20.64 128.19 20.72 127.65 20.59C128 20.66 127.7 24.66 127.69 25.02C127.64 26.26 127.67 27.5 127.78 28.74C128.05 30.95 130.82 31.52 130.82 31.52Z" fill="#FFFFFF" fill-opacity="1.000000" fill-rule="nonzero"/>
	<path id="Vector" d="M133.23 37.66C130.85 37.66 130.1 35.38 130.09 35.36C130.08 35.32 130.08 35.28 130.09 35.24L130.51 31.73C129.79 31.52 127.74 30.76 127.5 28.71C127.4 27.56 127.36 26.4 127.41 25.24L127.41 24.95C127.41 24.89 127.41 24.74 127.41 24.52C127.57 21.83 127.52 20.99 127.44 20.77C127.4 20.74 127.37 20.7 127.35 20.65C127.33 20.6 127.33 20.55 127.34 20.5C127.35 20.46 127.36 20.43 127.38 20.4C127.4 20.37 127.42 20.34 127.45 20.32C127.48 20.3 127.52 20.29 127.55 20.28C127.59 20.27 127.63 20.27 127.66 20.28C128.13 20.4 128.63 20.33 129.05 20.09C129.23 19.98 129.37 19.81 129.43 19.6C129.49 19.4 129.48 19.18 129.39 18.98C129.37 18.93 129.36 18.88 129.36 18.82C129.37 18.76 129.39 18.71 129.43 18.67C129.47 18.62 129.52 18.59 129.57 18.58C129.63 18.57 129.69 18.57 129.74 18.59C130.05 18.73 130.35 18.89 130.62 19.09C130.96 19.36 131.36 19.55 131.78 19.64C132.32 19.65 132.84 19.47 133.26 19.15C133.62 18.92 133.81 18.71 133.81 18.51C133.82 18.44 133.84 18.37 133.89 18.32C133.94 18.27 134 18.24 134.07 18.23C134.14 18.23 134.21 18.25 134.27 18.29C134.32 18.33 134.36 18.4 134.37 18.46C134.41 18.79 134.53 19.1 134.72 19.38C134.91 19.65 135.15 19.88 135.44 20.04C135.73 20.2 136.05 20.29 136.38 20.31C136.71 20.32 137.04 20.26 137.34 20.13C137.4 20.1 137.47 20.09 137.53 20.11C137.6 20.13 137.65 20.17 137.69 20.23C137.72 20.28 137.74 20.35 137.73 20.41C137.72 20.48 137.69 20.54 137.64 20.58C137.02 21.14 136.61 21.89 136.47 22.72C136.31 23.66 136.86 24.93 137.26 25.81L137.31 25.91C137.33 25.96 137.36 26.01 137.39 26.06C137.51 26.22 137.58 26.41 137.61 26.61C137.61 26.61 137.61 26.61 137.22 35.1C137.22 35.17 137.15 36.98 134.11 37.61C133.82 37.66 133.52 37.68 133.23 37.66ZM130.64 35.24C130.86 35.9 131.33 36.46 131.95 36.79C132.56 37.12 133.28 37.21 133.96 37.03C136.54 36.47 136.63 35.09 136.63 35.03C136.64 34.97 137.02 26.68 137.02 26.56C137.02 26.56 136.93 26.39 136.88 26.31C136.84 26.25 136.8 26.18 136.77 26.11L136.72 26.01C136.3 25.03 135.71 23.71 135.9 22.6C136 21.96 136.25 21.35 136.63 20.82C136.12 20.85 135.61 20.74 135.15 20.5C134.65 20.22 134.25 19.78 134 19.26C133.87 19.39 133.71 19.51 133.55 19.62C133.02 20 132.37 20.2 131.71 20.17C131.2 20.08 130.72 19.86 130.31 19.55L130.02 19.36C130 19.59 129.93 19.81 129.82 20.01C129.7 20.21 129.54 20.39 129.35 20.52C128.95 20.77 128.48 20.89 128.01 20.85C128.08 22.07 128.06 23.3 127.95 24.52C127.95 24.73 127.95 24.88 127.95 24.93L127.95 25.22C127.91 26.35 127.94 27.49 128.04 28.62C128.28 30.66 130.81 31.22 130.86 31.22C130.93 31.24 130.99 31.28 131.03 31.34C131.07 31.39 131.09 31.46 131.08 31.53L130.64 35.24Z" fill="#30325B" fill-opacity="1.000000" fill-rule="nonzero"/>
	<path id="Vector" d="M130.3 24.64C130.3 24.64 128.64 26.81 128.99 27.23C129.34 27.65 130.32 27.46 130.32 27.46L130.3 24.64Z" fill="#FFFFFF" fill-opacity="1.000000" fill-rule="nonzero"/>
	<path id="Vector" d="M129.83 27.78C129.64 27.79 129.45 27.77 129.27 27.7C129.09 27.63 128.93 27.52 128.8 27.39C128.42 26.9 129.31 25.53 130.11 24.47C130.15 24.41 130.22 24.37 130.29 24.36C130.36 24.35 130.44 24.37 130.5 24.41C130.53 24.43 130.55 24.46 130.57 24.49C130.59 24.52 130.6 24.56 130.61 24.59C130.61 24.63 130.61 24.67 130.6 24.7C130.59 24.74 130.58 24.77 130.55 24.8C129.82 25.78 129.21 26.84 129.25 27.08C129.38 27.24 129.95 27.24 130.29 27.18C130.33 27.17 130.36 27.17 130.4 27.18C130.44 27.19 130.47 27.2 130.5 27.22C130.53 27.24 130.56 27.27 130.58 27.3C130.6 27.33 130.61 27.36 130.62 27.4C130.63 27.43 130.63 27.47 130.62 27.51C130.61 27.54 130.6 27.58 130.58 27.61C130.56 27.64 130.53 27.66 130.5 27.68C130.47 27.7 130.43 27.72 130.4 27.72C130.21 27.76 130.02 27.78 129.83 27.78Z" fill="#30325B" fill-opacity="1.000000" fill-rule="nonzero"/>
	<path id="Vector" d="M130.82 31.52C130.82 31.52 133.04 31.52 134.05 30.93C134.05 30.93 133.19 33.51 130.8 34.15L130.82 31.52Z" fill="#30325B" fill-opacity="1.000000" fill-rule="nonzero"/>
	<path id="Vector" d="M130.8 34.43C130.73 34.43 130.67 34.41 130.63 34.37C130.59 34.34 130.56 34.31 130.55 34.27C130.53 34.23 130.52 34.19 130.52 34.15L130.55 31.52C130.55 31.45 130.58 31.38 130.63 31.33C130.68 31.28 130.75 31.25 130.82 31.25C130.94 31.25 132.98 31.25 133.91 30.69C133.96 30.66 134.01 30.64 134.07 30.64C134.12 30.64 134.18 30.66 134.22 30.69C134.27 30.73 134.3 30.78 134.31 30.83C134.33 30.89 134.33 30.94 134.31 31C134.27 31.11 133.37 33.73 130.86 34.4L130.8 34.43ZM131.1 31.8L131.1 33.77C132.16 33.31 133.03 32.49 133.54 31.46C132.74 31.68 131.92 31.8 131.1 31.82L131.1 31.8Z" fill="#30325B" fill-opacity="1.000000" fill-rule="nonzero"/>
	<path id="Vector" d="M149.34 63.3L149.32 63.3C148.96 63.25 140.54 62.28 137.86 60.78C137.83 60.76 137.8 60.73 137.78 60.71C137.76 60.68 137.74 60.64 137.73 60.61C137.72 60.57 137.72 60.54 137.72 60.5C137.73 60.47 137.74 60.43 137.76 60.4C137.79 60.34 137.85 60.29 137.92 60.27C137.99 60.25 138.07 60.26 138.13 60.29C140.71 61.74 149.29 62.73 149.38 62.74C149.45 62.75 149.52 62.78 149.57 62.83C149.62 62.89 149.64 62.96 149.64 63.04C149.63 63.11 149.6 63.18 149.54 63.23C149.49 63.27 149.42 63.3 149.34 63.3Z" fill="#30325B" fill-opacity="1.000000" fill-rule="nonzero"/>
	<path id="Vector" d="M147.1 37.76C147.1 37.76 163.8 61.57 156.65 67.73C150.09 73.36 135.6 64.01 135.6 64.01L136.48 56.1C136.48 56.1 147.95 62.49 148.14 59.51C148.41 55.14 142.79 49.16 142.79 49.16C142.28 48.19 141.98 47.13 141.89 46.04C141.8 44.95 141.93 43.86 142.28 42.82C142.6 41.65 143.22 40.57 144.06 39.69C144.9 38.8 145.94 38.14 147.1 37.76Z" fill="#FF5A57" fill-opacity="1.000000" fill-rule="nonzero"/>
	<path id="Vector" d="M121.04 56.95C121.01 56.95 120.97 56.94 120.94 56.92C120.91 56.9 120.88 56.87 120.86 56.84C120.84 56.82 120.82 56.78 120.82 56.75C120.81 56.71 120.81 56.67 120.81 56.64C121.33 53.18 123.8 39.99 123.83 39.85C123.84 39.78 123.89 39.72 123.95 39.68C124.01 39.64 124.08 39.62 124.15 39.63C124.22 39.65 124.29 39.69 124.33 39.75C124.37 39.81 124.39 39.89 124.37 39.96C124.34 40.09 121.87 53.25 121.36 56.72C121.35 56.79 121.31 56.86 121.25 56.9C121.19 56.94 121.12 56.96 121.04 56.95Z" fill="#30325B" fill-opacity="1.000000" fill-rule="nonzero"/>
	<path id="Vector" d="M118.71 67.39L135.37 67.39C135.67 67.39 135.98 67.31 136.26 67.17C136.54 67.04 136.78 66.84 136.97 66.59C137.16 66.35 137.3 66.07 137.37 65.77C137.44 65.46 137.44 65.15 137.37 64.85L133.83 47.73C133.73 47.24 133.47 46.79 133.08 46.47C132.69 46.15 132.21 45.97 131.71 45.96L115.3 45.96C114.97 45.97 114.65 46.04 114.35 46.19C114.06 46.34 113.8 46.55 113.6 46.8C113.39 47.06 113.25 47.36 113.18 47.68C113.1 48 113.1 48.34 113.17 48.66L116.71 65.72C116.8 66.19 117.05 66.61 117.41 66.92C117.78 67.22 118.24 67.39 118.71 67.39Z" fill="#FFFFFF" fill-opacity="1.000000" fill-rule="nonzero"/>
	<path id="Vector" d="M135.37 67.64L118.71 67.64C118.18 67.64 117.66 67.45 117.25 67.11C116.84 66.76 116.56 66.29 116.46 65.77L112.93 48.71C112.85 48.34 112.86 47.96 112.95 47.6C113.03 47.23 113.2 46.89 113.44 46.6C113.66 46.32 113.95 46.1 114.27 45.94C114.59 45.79 114.94 45.71 115.3 45.71L131.71 45.71C132.27 45.71 132.81 45.91 133.24 46.27C133.67 46.63 133.97 47.13 134.08 47.68L137.62 64.79C137.69 65.14 137.69 65.5 137.61 65.85C137.52 66.19 137.36 66.52 137.14 66.8C136.92 67.06 136.65 67.27 136.35 67.42C136.04 67.57 135.71 67.64 135.37 67.64ZM115.3 46.22C115.02 46.22 114.74 46.28 114.49 46.4C114.23 46.52 114.01 46.7 113.83 46.92C113.65 47.15 113.51 47.42 113.44 47.7C113.37 47.99 113.37 48.29 113.42 48.58L116.96 65.65C117.04 66.06 117.25 66.43 117.57 66.69C117.89 66.96 118.3 67.11 118.71 67.12L135.37 67.12C135.63 67.12 135.89 67.05 136.13 66.94C136.37 66.83 136.58 66.66 136.74 66.45C136.92 66.23 137.05 65.98 137.11 65.71C137.18 65.43 137.19 65.15 137.13 64.87L133.58 47.76C133.5 47.32 133.26 46.93 132.92 46.64C132.58 46.36 132.15 46.2 131.71 46.19L115.3 46.22Z" fill="#30325B" fill-opacity="1.000000" fill-rule="nonzero"/>
	<path id="Vector" d="M138.79 58.8C138.89 58.2 138.84 57.59 138.66 57.01C138.48 56.62 138.23 56.27 137.92 55.97C137.4 55.42 136.85 54.9 136.26 54.41C135.71 53.98 135.08 53.56 134.42 53.7C134.62 54.7 135.18 55.58 136 56.19C135.73 55.87 135.38 55.64 134.98 55.52C134.72 55.43 134.36 55.44 134.25 55.71C134.22 55.79 134.21 55.88 134.22 55.97C134.23 56.06 134.26 56.15 134.31 56.22C134.62 56.91 135.09 57.51 135.69 57.96L135.05 57.55C134.89 57.43 134.7 57.35 134.5 57.31C134.4 57.3 134.3 57.31 134.21 57.36C134.12 57.41 134.05 57.48 134 57.57C133.96 57.72 133.98 57.88 134.05 58.02C134.21 58.42 134.49 58.76 134.84 59.01C134.61 58.81 134.33 58.68 134.04 58.62C133.89 58.59 133.73 58.63 133.6 58.71C133.47 58.79 133.38 58.91 133.33 59.06C133.32 59.23 133.35 59.39 133.43 59.54C133.91 60.49 135.04 60.59 135.6 61.39C136.01 61.98 135.82 62.62 136.66 62.98C138.77 63.85 138.68 60.06 138.79 58.8Z" fill="#FFFFFF" fill-opacity="1.000000" fill-rule="nonzero"/>
	<path id="Vector" d="M137.27 63.38C137.03 63.38 136.8 63.33 136.58 63.23C136.35 63.13 136.14 62.98 135.98 62.79C135.82 62.6 135.7 62.37 135.65 62.12C135.59 61.93 135.51 61.74 135.4 61.57C135.15 61.27 134.84 61.02 134.48 60.85C133.96 60.6 133.51 60.19 133.22 59.69C133.1 59.49 133.05 59.25 133.09 59.03C133.14 58.84 133.24 58.68 133.39 58.56C133.54 58.44 133.73 58.37 133.92 58.36C133.88 58.29 133.85 58.22 133.82 58.14C133.72 57.94 133.7 57.71 133.77 57.49C133.83 57.36 133.92 57.25 134.04 57.17C134.17 57.09 134.31 57.05 134.45 57.05C134.3 56.83 134.17 56.6 134.07 56.36C134 56.25 133.97 56.12 133.96 55.99C133.94 55.87 133.96 55.74 134 55.62C134.07 55.49 134.17 55.38 134.3 55.31C134.42 55.23 134.57 55.2 134.72 55.21C134.45 54.78 134.27 54.3 134.16 53.8C134.15 53.76 134.14 53.72 134.14 53.68C134.14 53.64 134.15 53.6 134.16 53.57C134.18 53.53 134.2 53.5 134.23 53.47C134.26 53.45 134.3 53.43 134.34 53.42C135.13 53.25 135.86 53.74 136.41 54.18C137.01 54.67 137.57 55.2 138.1 55.76C138.43 56.08 138.7 56.46 138.89 56.87C139.1 57.49 139.15 58.14 139.04 58.78C139.04 58.94 139.04 59.14 139 59.37C138.94 60.64 138.83 62.56 137.9 63.16C137.71 63.29 137.5 63.37 137.27 63.38ZM133.99 58.88C133.92 58.88 133.84 58.89 133.78 58.93C133.71 58.97 133.66 59.03 133.63 59.1C133.63 59.21 133.65 59.32 133.71 59.41C133.96 59.82 134.33 60.14 134.76 60.34C135.19 60.55 135.57 60.85 135.87 61.22C136.01 61.44 136.12 61.68 136.19 61.93C136.22 62.11 136.29 62.27 136.4 62.41C136.51 62.55 136.65 62.65 136.82 62.72C136.94 62.79 137.08 62.82 137.22 62.82C137.36 62.82 137.5 62.79 137.62 62.72C138.33 62.28 138.43 60.39 138.49 59.4C138.49 59.16 138.49 58.95 138.53 58.79C138.62 58.23 138.58 57.66 138.42 57.13C138.25 56.77 138.02 56.44 137.74 56.17C137.22 55.62 136.66 55.11 136.07 54.64C135.71 54.29 135.25 54.06 134.76 53.96C134.94 54.55 135.25 55.08 135.67 55.53C135.88 55.65 136.06 55.81 136.22 56C136.27 56.05 136.29 56.11 136.29 56.18C136.29 56.25 136.27 56.32 136.22 56.37C136.18 56.42 136.11 56.45 136.05 56.45C135.98 56.46 135.91 56.44 135.86 56.4C135.67 56.27 135.5 56.12 135.34 55.96C135.21 55.88 135.07 55.81 134.92 55.77C134.74 55.72 134.55 55.74 134.52 55.81C134.51 55.91 134.53 56.01 134.58 56.1C134.87 56.75 135.32 57.31 135.88 57.73C135.91 57.76 135.93 57.78 135.95 57.81C135.97 57.84 135.98 57.88 135.99 57.91C136 57.95 135.99 57.98 135.99 58.02C135.98 58.05 135.96 58.08 135.94 58.11C135.9 58.17 135.84 58.21 135.77 58.23C135.7 58.24 135.63 58.23 135.56 58.19L134.92 57.78C134.8 57.69 134.65 57.62 134.5 57.59C134.46 57.58 134.42 57.58 134.39 57.59C134.35 57.61 134.32 57.63 134.3 57.66C134.28 57.75 134.3 57.83 134.34 57.91C134.47 58.23 134.69 58.52 134.98 58.73L135.04 58.78C135.07 58.8 135.1 58.82 135.12 58.85C135.14 58.88 135.15 58.92 135.16 58.95C135.16 58.99 135.16 59.03 135.15 59.06C135.15 59.1 135.13 59.13 135.11 59.16C135.07 59.22 135 59.26 134.93 59.27C134.86 59.29 134.79 59.27 134.73 59.23L134.66 59.18C134.48 59.03 134.27 58.93 134.05 58.89L133.99 58.88Z" fill="#30325B" fill-opacity="1.000000" fill-rule="nonzero"/>
	<path id="Vector" d="M113.43 57.61C113.52 56.46 113.86 55.19 114.83 54.62C115.13 54.44 115.47 54.35 115.81 54.34C116.16 54.34 116.5 54.42 116.81 54.58C116.86 54.6 116.91 54.63 116.96 54.68C117 54.72 117.03 54.78 117.05 54.83C117.08 55.02 116.92 55.16 116.77 55.26C116.45 55.46 116.1 55.61 115.73 55.71C116.03 55.68 116.33 55.75 116.59 55.91C116.84 56.06 117.05 56.29 117.17 56.56C116.81 56.98 116.3 57.26 115.75 57.34C115.93 57.29 116.13 57.29 116.31 57.36C116.48 57.42 116.64 57.54 116.75 57.69C117.11 58.21 116.82 58.35 116.43 58.67C116.6 58.63 116.78 58.65 116.95 58.71C117.03 58.75 117.1 58.81 117.14 58.89C117.19 58.97 117.22 59.06 117.21 59.15C117.18 59.48 116.78 59.58 116.5 59.75C116.27 59.89 116.1 60.1 116.01 60.35C115.98 60.5 115.93 60.64 115.87 60.78C115.32 61.77 114.09 60.94 113.78 60.22C113.47 59.39 113.35 58.49 113.43 57.61Z" fill="#FFFFFF" fill-opacity="1.000000" fill-rule="nonzero"/>
	<path id="Vector" d="M115.15 61.51L115.08 61.51C114.75 61.47 114.43 61.34 114.16 61.13C113.89 60.93 113.68 60.67 113.53 60.36C113.2 59.48 113.07 58.53 113.16 57.59C113.23 56.48 113.56 55.05 114.69 54.38C115.03 54.18 115.42 54.08 115.81 54.07C116.2 54.06 116.59 54.15 116.93 54.34C117.03 54.38 117.11 54.44 117.18 54.51C117.24 54.59 117.29 54.68 117.32 54.78C117.35 54.93 117.32 55.23 116.92 55.49L116.67 55.64C117.01 55.82 117.27 56.1 117.42 56.45C117.44 56.5 117.45 56.55 117.44 56.6C117.43 56.65 117.41 56.7 117.38 56.74C117.2 56.96 116.98 57.15 116.74 57.29C116.83 57.36 116.91 57.45 116.98 57.55C117.28 57.97 117.23 58.26 117.07 58.48C117.2 58.54 117.31 58.64 117.39 58.76C117.46 58.89 117.5 59.04 117.49 59.18C117.45 59.59 117.09 59.77 116.83 59.9L116.64 60C116.47 60.1 116.34 60.26 116.28 60.45C116.26 60.5 116.25 60.54 116.24 60.58C116.21 60.7 116.17 60.81 116.11 60.92C116.02 61.1 115.88 61.24 115.71 61.35C115.54 61.45 115.35 61.51 115.15 61.51ZM113.71 57.64C113.63 58.49 113.74 59.34 114.04 60.14C114.14 60.36 114.29 60.54 114.48 60.68C114.67 60.82 114.89 60.92 115.12 60.96C115.23 60.96 115.33 60.93 115.42 60.88C115.51 60.82 115.59 60.74 115.63 60.64C115.66 60.58 115.69 60.5 115.7 60.43C115.7 60.38 115.73 60.33 115.75 60.27C115.86 59.96 116.07 59.69 116.36 59.52L116.58 59.4C116.79 59.3 116.93 59.22 116.94 59.13C116.95 59.03 116.89 59 116.82 58.97C116.71 58.93 116.59 58.92 116.47 58.94C116.42 58.95 116.35 58.94 116.3 58.91C116.25 58.88 116.21 58.84 116.18 58.78C116.16 58.73 116.15 58.66 116.17 58.61C116.18 58.55 116.21 58.49 116.26 58.46L116.36 58.37C116.7 58.11 116.7 58.11 116.52 57.86C116.35 57.6 116.16 57.57 115.79 57.62C115.75 57.62 115.71 57.62 115.68 57.61C115.64 57.6 115.61 57.59 115.58 57.56C115.55 57.54 115.53 57.51 115.51 57.48C115.49 57.45 115.48 57.41 115.48 57.38C115.47 57.3 115.49 57.23 115.53 57.17C115.58 57.11 115.64 57.08 115.72 57.07C116.14 57.01 116.52 56.81 116.82 56.51C116.72 56.33 116.56 56.18 116.37 56.08C116.18 55.98 115.97 55.94 115.76 55.96C115.69 55.97 115.62 55.95 115.56 55.91C115.51 55.87 115.47 55.8 115.46 55.74C115.44 55.67 115.46 55.6 115.49 55.54C115.53 55.48 115.59 55.43 115.66 55.42C115.99 55.33 116.32 55.19 116.61 55C116.72 54.93 116.76 54.88 116.77 54.86L116.67 54.79C116.41 54.66 116.11 54.59 115.81 54.59C115.52 54.6 115.23 54.68 114.97 54.83C114.04 55.38 113.77 56.64 113.71 57.6L113.71 57.64Z" fill="#30325B" fill-opacity="1.000000" fill-rule="nonzero"/>
	<path id="Vector" d="M127.86 25.66C127.46 25.66 127.06 25.54 126.72 25.32C126.39 25.09 126.12 24.77 125.97 24.4C125.81 24.02 125.77 23.61 125.85 23.21C125.93 22.82 126.13 22.45 126.41 22.17C126.7 21.88 127.06 21.68 127.46 21.6C127.86 21.53 128.27 21.57 128.64 21.72C129.02 21.88 129.34 22.14 129.57 22.48C129.79 22.81 129.91 23.21 129.91 23.61C129.91 24.16 129.69 24.68 129.31 25.06C128.92 25.45 128.4 25.66 127.86 25.66ZM127.86 22.12C127.57 22.12 127.28 22.21 127.03 22.37C126.78 22.54 126.59 22.77 126.48 23.04C126.37 23.32 126.34 23.62 126.39 23.91C126.45 24.2 126.59 24.46 126.8 24.67C127.01 24.88 127.28 25.02 127.57 25.08C127.86 25.14 128.16 25.11 128.43 25C128.71 24.88 128.94 24.69 129.1 24.45C129.27 24.2 129.36 23.91 129.36 23.61C129.36 23.22 129.2 22.84 128.92 22.56C128.64 22.28 128.26 22.12 127.86 22.12Z" fill="#30325B" fill-opacity="1.000000" fill-rule="nonzero"/>
	<path id="Vector" d="M132.42 25.66C132.02 25.66 131.62 25.54 131.29 25.32C130.95 25.09 130.69 24.77 130.53 24.4C130.38 24.02 130.34 23.61 130.41 23.21C130.49 22.82 130.69 22.45 130.98 22.17C131.26 21.88 131.63 21.68 132.02 21.6C132.42 21.53 132.83 21.57 133.21 21.72C133.58 21.88 133.9 22.14 134.13 22.48C134.35 22.81 134.47 23.21 134.47 23.61C134.47 24.16 134.26 24.68 133.87 25.06C133.49 25.45 132.97 25.66 132.42 25.66ZM132.42 22.12C132.13 22.12 131.84 22.21 131.59 22.37C131.35 22.54 131.16 22.77 131.04 23.04C130.93 23.32 130.9 23.62 130.96 23.91C131.02 24.2 131.16 24.46 131.37 24.67C131.58 24.88 131.84 25.02 132.13 25.08C132.42 25.14 132.72 25.11 133 25C133.27 24.88 133.5 24.69 133.67 24.45C133.83 24.2 133.92 23.91 133.92 23.61C133.92 23.22 133.76 22.84 133.48 22.56C133.2 22.28 132.82 22.12 132.42 22.12Z" fill="#30325B" fill-opacity="1.000000" fill-rule="nonzero"/>
	<path id="Vector" d="M130.59 29.05C129.88 29.03 129.19 28.86 128.55 28.54C128.49 28.5 128.44 28.44 128.42 28.37C128.41 28.3 128.41 28.23 128.45 28.16C128.48 28.1 128.54 28.05 128.61 28.03C128.69 28.01 128.76 28.02 128.82 28.06C128.93 28.11 131.39 29.46 132.9 27.18C132.94 27.12 133 27.08 133.08 27.06C133.15 27.05 133.22 27.06 133.28 27.1C133.35 27.14 133.39 27.2 133.41 27.28C133.42 27.35 133.41 27.42 133.37 27.49C133.08 27.97 132.67 28.36 132.19 28.64C131.7 28.91 131.15 29.05 130.59 29.05Z" fill="#30325B" fill-opacity="1.000000" fill-rule="nonzero"/>
	<path id="Vector" d="M130.65 23.89L129.63 23.89C129.56 23.89 129.49 23.86 129.44 23.81C129.39 23.76 129.36 23.69 129.36 23.61C129.36 23.54 129.39 23.47 129.44 23.42C129.49 23.37 129.56 23.34 129.63 23.34L130.65 23.34C130.73 23.34 130.8 23.37 130.85 23.42C130.9 23.47 130.93 23.54 130.93 23.61C130.93 23.69 130.9 23.76 130.85 23.81C130.8 23.86 130.73 23.89 130.65 23.89Z" fill="#30325B" fill-opacity="1.000000" fill-rule="nonzero"/>
	<path id="Vector" d="M138.28 25C138.26 25.01 138.24 25.01 138.21 25L134.13 23.89C134.05 23.87 133.99 23.83 133.95 23.76C133.91 23.69 133.9 23.62 133.92 23.54C133.94 23.47 133.99 23.41 134.05 23.37C134.12 23.33 134.2 23.32 134.27 23.34L138.36 24.45C138.43 24.47 138.49 24.51 138.52 24.58C138.56 24.64 138.57 24.71 138.55 24.78C138.54 24.84 138.5 24.9 138.46 24.94C138.41 24.98 138.35 25 138.28 25Z" fill="#30325B" fill-opacity="1.000000" fill-rule="nonzero"/>
	<path id="Vector" d="M136 25.39C136.11 24.99 136.34 24.64 136.66 24.39C136.91 24.18 137.19 24.03 137.5 23.94C137.81 23.86 138.14 23.84 138.46 23.89C138.77 24.02 139.03 24.26 139.2 24.56C139.36 24.86 139.42 25.21 139.36 25.55C139.32 26.01 139.15 26.45 138.87 26.82C138.6 27.19 138.23 27.48 137.8 27.66C137.52 27.76 137.23 27.81 136.93 27.79C136.63 27.77 136.34 27.7 136.07 27.56L136 25.39Z" fill="#FFFFFF" fill-opacity="1.000000" fill-rule="nonzero"/>
	<path id="Vector" d="M137.07 28.07C136.68 28.07 136.3 27.98 135.96 27.81C135.92 27.79 135.9 27.77 135.87 27.74C135.85 27.71 135.83 27.68 135.82 27.65C135.81 27.61 135.8 27.58 135.81 27.54C135.81 27.5 135.82 27.47 135.84 27.44C135.85 27.4 135.87 27.37 135.9 27.35C135.93 27.33 135.96 27.31 136 27.3C136.03 27.28 136.07 27.28 136.1 27.28C136.14 27.28 136.17 27.29 136.21 27.31C136.44 27.42 136.69 27.49 136.95 27.51C137.21 27.52 137.47 27.49 137.72 27.4C138.1 27.24 138.42 26.98 138.67 26.65C138.91 26.31 139.06 25.92 139.1 25.51C139.15 25.24 139.11 24.96 138.98 24.71C138.85 24.46 138.64 24.27 138.39 24.15C138.11 24.12 137.83 24.14 137.57 24.22C137.3 24.3 137.05 24.43 136.84 24.61C136.57 24.83 136.37 25.12 136.28 25.46C136.28 25.5 136.26 25.53 136.24 25.56C136.21 25.59 136.18 25.61 136.15 25.63C136.12 25.65 136.08 25.66 136.04 25.67C136.01 25.67 135.97 25.67 135.93 25.66C135.9 25.65 135.86 25.63 135.83 25.61C135.8 25.59 135.78 25.56 135.76 25.53C135.74 25.49 135.73 25.46 135.72 25.42C135.72 25.38 135.72 25.35 135.73 25.31C135.86 24.87 136.13 24.48 136.49 24.2C136.77 23.97 137.1 23.79 137.45 23.7C137.8 23.6 138.17 23.59 138.53 23.65C138.91 23.8 139.23 24.07 139.43 24.43C139.63 24.78 139.71 25.19 139.64 25.6C139.59 26.11 139.4 26.6 139.1 27.01C138.79 27.42 138.38 27.74 137.91 27.94C137.64 28.03 137.35 28.07 137.07 28.07Z" fill="#30325B" fill-opacity="1.000000" fill-rule="nonzero"/>
	<path id="Vector" d="M146.42 60.4C143.87 60.4 140.13 58.33 139.6 58.03C139.56 58.01 139.54 57.99 139.51 57.96C139.49 57.93 139.48 57.9 139.47 57.86C139.46 57.83 139.45 57.79 139.46 57.75C139.46 57.72 139.48 57.68 139.49 57.65C139.51 57.62 139.54 57.59 139.57 57.57C139.59 57.55 139.63 57.53 139.66 57.52C139.7 57.51 139.73 57.51 139.77 57.51C139.81 57.52 139.84 57.53 139.87 57.55C141.66 58.57 146.6 60.87 147.9 59.34C149.21 57.8 145.31 50.21 143.69 47.42C143.66 47.36 143.66 47.28 143.68 47.22C143.7 47.15 143.74 47.1 143.8 47.06C143.86 47.03 143.93 47.02 144 47.03C144.07 47.05 144.13 47.09 144.17 47.14C144.78 48.2 150.14 57.56 148.33 59.69C148.08 59.94 147.78 60.13 147.46 60.26C147.13 60.38 146.77 60.43 146.42 60.4Z" fill="#30325B" fill-opacity="1.000000" fill-rule="nonzero"/>
	<path id="Vector" d="M148.37 69.81L148.34 69.81C144.24 69.2 138.92 65.94 138.69 65.81C138.66 65.8 138.63 65.77 138.61 65.74C138.59 65.71 138.57 65.68 138.56 65.64C138.56 65.61 138.55 65.57 138.56 65.53C138.57 65.5 138.58 65.46 138.6 65.43C138.62 65.4 138.64 65.37 138.67 65.35C138.7 65.33 138.74 65.31 138.77 65.31C138.81 65.3 138.84 65.3 138.88 65.3C138.92 65.31 138.95 65.32 138.98 65.34C139.03 65.37 144.44 68.67 148.4 69.27C148.43 69.27 148.47 69.29 148.5 69.3C148.53 69.32 148.56 69.35 148.58 69.38C148.6 69.4 148.62 69.44 148.63 69.47C148.63 69.51 148.63 69.54 148.63 69.58C148.62 69.64 148.59 69.7 148.54 69.74C148.5 69.78 148.44 69.81 148.37 69.81Z" fill="#30325B" fill-opacity="1.000000" fill-rule="nonzero"/>
	<path id="Vector" d="M0.24 92.94L3.97 77.11L23.21 81.64L19.48 97.46L0.24 92.94Z" fill="#FFFFFF" fill-opacity="1.000000" fill-rule="evenodd"/>
	<path id="Vector" d="M19.49 97.72L19.43 97.72L0.19 93.19C0.16 93.18 0.13 93.17 0.1 93.15C0.07 93.13 0.05 93.11 0.03 93.08C0.01 93.05 0 93.02 0 92.99C-0.01 92.95 -0.01 92.92 0 92.89L3.72 77.06C3.74 77 3.78 76.94 3.84 76.91C3.89 76.87 3.96 76.86 4.03 76.88L23.27 81.41C23.3 81.41 23.33 81.43 23.36 81.44C23.39 81.46 23.41 81.49 23.43 81.52C23.46 81.57 23.47 81.64 23.46 81.71L19.73 97.53C19.72 97.6 19.68 97.65 19.62 97.69C19.58 97.71 19.54 97.72 19.49 97.72ZM0.55 92.74L19.3 97.17L22.91 81.84L4.16 77.41L0.55 92.74Z" fill="#30325B" fill-opacity="1.000000" fill-rule="nonzero"/>
	<path id="Vector" d="M15.66 74.06C15.66 74.06 15.34 82.23 14.5 81.74C13.39 81.1 13.85 79.21 13.85 79.21L10.09 78.42C10.09 78.42 11.69 73 11.79 72.82C11.9 72.63 15.66 74.06 15.66 74.06Z" fill="#FFFFFF" fill-opacity="1.000000" fill-rule="nonzero"/>
	<path id="Vector" d="M14.57 82.01C14.5 82.01 14.43 82 14.37 81.96C13.35 81.37 13.45 79.99 13.55 79.41L10.04 78.67C10.01 78.66 9.98 78.65 9.95 78.63C9.92 78.6 9.9 78.58 9.88 78.55C9.85 78.48 9.85 78.41 9.88 78.35C10.47 76.31 11.5 72.87 11.6 72.69C11.71 72.51 11.82 72.32 15.78 73.83C15.83 73.85 15.87 73.88 15.9 73.92C15.93 73.97 15.95 74.02 15.95 74.07C15.86 76.29 15.57 81.53 14.78 81.96C14.72 82 14.64 82.02 14.57 82.01ZM10.41 78.23L13.9 78.96C13.97 78.98 14.02 79.02 14.06 79.08C14.09 79.14 14.09 79.21 14.06 79.27C14.06 79.27 13.67 80.89 14.52 81.49C14.89 80.93 15.24 77.41 15.38 74.24C13.95 73.69 12.42 73.18 11.94 73.08C11.76 73.69 10.98 76.32 10.41 78.23Z" fill="#30325B" fill-opacity="1.000000" fill-rule="nonzero"/>
	<path id="Vector" d="M21.46 119.97C21.46 119.97 21.15 125.08 21.17 127.02C21.19 128.96 21.17 130.78 23.45 130.35C24.69 130.12 31.5 128.4 30.87 127.13C30.25 125.86 25.82 125.53 25.82 125.53L26.22 119.68L21.46 119.97Z" fill="#FFFFFF" fill-opacity="1.000000" fill-rule="nonzero"/>
	<path id="Vector" d="M22.84 130.68C22.43 130.7 22.02 130.57 21.7 130.31C20.94 129.69 20.93 128.43 20.92 127.11L20.92 127.03C20.92 125.1 21.21 120.01 21.21 119.95C21.21 119.92 21.22 119.89 21.23 119.86C21.25 119.83 21.27 119.8 21.29 119.78C21.32 119.76 21.35 119.74 21.38 119.73C21.41 119.72 21.44 119.72 21.47 119.72C21.51 119.72 21.54 119.73 21.57 119.74C21.6 119.75 21.63 119.77 21.65 119.8C21.67 119.82 21.69 119.85 21.7 119.88C21.71 119.92 21.72 119.95 21.71 119.98C21.71 120.03 21.41 125.11 21.42 127.02L21.42 127.1C21.42 128.31 21.42 129.45 22.02 129.92C22.22 130.06 22.45 130.14 22.69 130.17C22.93 130.21 23.17 130.19 23.4 130.12C25.01 129.82 30.14 128.39 30.63 127.41C30.65 127.39 30.65 127.36 30.65 127.34C30.65 127.31 30.65 127.28 30.63 127.26C30.22 126.44 27.45 125.93 25.79 125.81C25.73 125.8 25.67 125.77 25.62 125.72C25.58 125.67 25.56 125.6 25.56 125.54L25.96 119.69C25.97 119.62 26 119.56 26.05 119.52C26.09 119.47 26.16 119.45 26.23 119.45C26.29 119.46 26.35 119.49 26.4 119.54C26.44 119.59 26.47 119.66 26.46 119.72L26.08 125.32C27.11 125.42 30.51 125.82 31.07 127.04C31.11 127.13 31.14 127.23 31.14 127.34C31.14 127.44 31.11 127.54 31.07 127.64C30.31 129.14 23.53 130.6 23.47 130.61C23.26 130.65 23.05 130.67 22.84 130.68Z" fill="#30325B" fill-opacity="1.000000" fill-rule="nonzero"/>
	<path id="Vector" d="M37.38 120.58C37.38 120.58 37.07 125.69 37.09 127.63C37.1 129.57 37.09 131.39 39.36 130.96C40.6 130.73 47.95 129.55 47.33 128.28C46.7 127.02 41.74 126.14 41.74 126.14L42.14 120.29L37.38 120.58Z" fill="#FFFFFF" fill-opacity="1.000000" fill-rule="nonzero"/>
	<path id="Vector" d="M38.76 131.29C38.34 131.31 37.94 131.18 37.61 130.92C36.86 130.3 36.85 129.04 36.84 127.71L36.84 127.63C36.84 125.7 37.12 120.6 37.12 120.55C37.13 120.49 37.16 120.43 37.21 120.38C37.26 120.34 37.32 120.31 37.39 120.32C37.42 120.32 37.46 120.32 37.49 120.34C37.52 120.35 37.55 120.37 37.57 120.4C37.59 120.42 37.61 120.45 37.62 120.48C37.63 120.51 37.63 120.55 37.63 120.58C37.63 120.63 37.32 125.72 37.34 127.62L37.34 127.7C37.34 128.91 37.34 130.05 37.93 130.52C38.14 130.65 38.36 130.74 38.6 130.77C38.84 130.81 39.09 130.79 39.32 130.72L39.71 130.64C45.43 129.64 46.9 128.93 47.09 128.5C47.09 128.46 47.09 128.43 47.09 128.41C46.68 127.57 43.56 126.75 41.69 126.4C41.63 126.39 41.57 126.36 41.53 126.31C41.49 126.26 41.48 126.2 41.48 126.14L41.88 120.29C41.89 120.22 41.92 120.16 41.97 120.12C42.02 120.07 42.08 120.05 42.15 120.05C42.21 120.06 42.28 120.09 42.32 120.14C42.37 120.19 42.39 120.25 42.39 120.32L42.01 125.96C43.07 126.16 46.95 126.97 47.55 128.18C47.59 128.27 47.62 128.36 47.62 128.46C47.62 128.55 47.59 128.65 47.55 128.73C47.14 129.54 44.78 130.28 39.79 131.15L39.41 131.22C39.2 131.26 38.98 131.28 38.76 131.29Z" fill="#30325B" fill-opacity="1.000000" fill-rule="nonzero"/>
	<path id="Vector" d="M20.8 62.2C20.8 62.2 19.23 116.72 20.06 121.39C20.06 121.39 23.26 124.99 27.4 123.19L32.64 78.97L35.41 123.15C35.41 123.15 38.07 125.79 43.63 121.41L43.63 60.28L20.8 62.2Z" fill="#30325B" fill-opacity="1.000000" fill-rule="nonzero"/>
	<path id="Vector" d="M37.82 124.23C36.87 124.27 35.94 123.96 35.21 123.35C35.17 123.3 35.14 123.24 35.13 123.17L32.57 82.05L27.69 123.22C27.68 123.27 27.66 123.32 27.63 123.36C27.6 123.39 27.57 123.43 27.52 123.45C23.24 125.3 19.9 121.61 19.86 121.57C19.83 121.53 19.81 121.48 19.8 121.43C18.98 116.79 20.48 64.42 20.54 62.17C20.54 62.1 20.57 62.04 20.62 61.99C20.66 61.94 20.73 61.91 20.79 61.91L43.6 59.98C43.64 59.97 43.68 59.98 43.71 59.99C43.75 60 43.78 60.02 43.81 60.05C43.84 60.08 43.86 60.11 43.88 60.14C43.89 60.18 43.9 60.22 43.9 60.25L43.9 121.41C43.9 121.45 43.89 121.49 43.87 121.53C43.85 121.57 43.83 121.6 43.79 121.63C41.21 123.66 39.22 124.23 37.82 124.23ZM35.68 123.02C36.13 123.38 38.58 124.98 43.34 121.27L43.34 60.58L21.09 62.46C20.98 66.44 19.57 116.36 20.33 121.26C20.76 121.71 23.55 124.46 27.16 123L32.38 78.94C32.38 78.91 32.39 78.87 32.4 78.84C32.42 78.81 32.44 78.78 32.47 78.76C32.49 78.73 32.52 78.72 32.56 78.71C32.59 78.7 32.63 78.69 32.66 78.7C32.73 78.7 32.8 78.72 32.85 78.77C32.9 78.82 32.93 78.88 32.93 78.95L35.68 123.02Z" fill="#30325B" fill-opacity="1.000000" fill-rule="nonzero"/>
	<path id="Vector" d="M67.26 38.68C67.26 38.68 70.3 36.96 70.52 36.77C70.74 36.58 71.8 33.78 71.97 33.59C72.14 33.41 72.57 33.08 72.71 33.47C72.86 33.85 72.55 36.01 72.55 36.01C72.55 36.01 76.28 33.09 76.54 33.24C76.8 33.39 76.99 33.73 76.41 34.55C75.88 35.18 75.25 35.73 74.55 36.17C74.55 36.17 75.86 37.64 75.66 38.15C75.45 38.65 70.47 41.99 70.47 41.99L67.26 38.68Z" fill="#FFFFFF" fill-opacity="1.000000" fill-rule="nonzero"/>
	<path id="Vector" d="M70.5 42.26C70.46 42.26 70.41 42.25 70.38 42.23C70.34 42.21 70.31 42.18 70.29 42.15C70.27 42.12 70.25 42.09 70.25 42.05C70.24 42.02 70.24 41.99 70.25 41.96C70.25 41.92 70.26 41.89 70.28 41.86C70.3 41.83 70.33 41.81 70.35 41.79C72.71 40.21 75.26 38.39 75.45 38.06C75.51 37.88 74.99 37.06 74.34 36.35C74.32 36.32 74.3 36.29 74.29 36.25C74.28 36.22 74.27 36.18 74.28 36.14C74.28 36.11 74.3 36.07 74.32 36.04C74.34 36.01 74.36 35.98 74.4 35.97C75.07 35.54 75.67 35.02 76.18 34.41C76.51 33.94 76.53 33.72 76.51 33.62C76.5 33.58 76.48 33.55 76.45 33.52C75.13 34.33 73.87 35.23 72.68 36.21C72.64 36.24 72.59 36.25 72.54 36.25C72.49 36.25 72.44 36.24 72.4 36.21C72.35 36.18 72.32 36.15 72.29 36.1C72.27 36.06 72.26 36 72.27 35.95C72.42 35.16 72.48 34.35 72.45 33.54C72.42 33.54 72.27 33.61 72.14 33.75C72 33.89 71.8 34.49 71.58 35.02C71.03 36.38 70.81 36.82 70.66 36.95C70.51 37.08 67.89 38.61 67.34 38.88C67.28 38.91 67.22 38.92 67.15 38.9C67.09 38.88 67.04 38.84 67.01 38.78C66.98 38.72 66.97 38.66 66.98 38.59C67 38.53 67.04 38.48 67.09 38.44C68.25 37.79 70.15 36.7 70.31 36.56C70.6 35.99 70.86 35.42 71.09 34.82C71.26 34.33 71.48 33.86 71.74 33.41C71.84 33.3 72.2 32.96 72.54 33.02C72.63 33.04 72.7 33.09 72.77 33.15C72.83 33.2 72.88 33.28 72.91 33.36C72.98 34.05 72.96 34.74 72.83 35.41C76.24 32.79 76.47 32.93 76.63 33.02C76.72 33.07 76.8 33.14 76.86 33.22C76.92 33.3 76.96 33.4 76.98 33.5C77 33.72 76.97 33.93 76.9 34.14C76.83 34.34 76.72 34.53 76.57 34.69C76.1 35.28 75.54 35.8 74.91 36.21C75.38 36.77 76.08 37.72 75.9 38.23C75.71 38.73 72.14 41.18 70.61 42.2C70.58 42.23 70.54 42.25 70.5 42.26Z" fill="#30325B" fill-opacity="1.000000" fill-rule="nonzero"/>
	<path id="Vector" d="M41 35.6C41 35.6 35.62 33.84 21.46 36.56C19 37.03 17.87 59.96 19.73 73.75L44.53 73.55C44.53 73.55 48.63 37.52 41 35.6Z" fill="#FF5A57" fill-opacity="1.000000" fill-rule="nonzero"/>
	<path id="Vector" d="M20.53 33.25C20.53 33.25 15.16 50.41 14.82 51.94C14.47 53.46 10.84 73.67 10.84 73.67L16.47 75.57C16.47 75.57 24.65 56.67 24.13 51.37C23.61 46.06 20.53 33.25 20.53 33.25Z" fill="#FF5A57" fill-opacity="1.000000" fill-rule="nonzero"/>
	<path id="Vector" d="M40.54 35.62C44.85 36.03 53.83 46.44 54.56 46.14C55.29 45.83 68.59 36.72 68.59 36.72L72.8 41.33C72.8 41.33 59.91 56.28 57.29 57.87C53.26 60.28 36.14 49.31 36.14 49.31C36.14 49.31 36.22 35.2 40.54 35.62Z" fill="#FF5A57" fill-opacity="1.000000" fill-rule="nonzero"/>
	<path id="Vector" d="M13.86 79.3C13.86 79.3 12.12 78.35 12.89 76.74L13.86 79.3Z" fill="#FFFFFF" fill-opacity="1.000000" fill-rule="nonzero"/>
	<path id="Vector" d="M13.86 79.55C13.82 79.55 13.78 79.54 13.74 79.52C13.07 79.15 11.97 78.08 12.63 76.63C12.66 76.57 12.72 76.52 12.78 76.5C12.84 76.48 12.91 76.48 12.98 76.51C13.04 76.54 13.08 76.59 13.11 76.66C13.13 76.72 13.12 76.79 13.09 76.85C12.44 78.23 13.9 79.07 13.96 79.07C14.01 79.1 14.05 79.14 14.07 79.19C14.09 79.24 14.09 79.3 14.08 79.35C14.07 79.41 14.03 79.45 13.99 79.49C13.95 79.52 13.89 79.54 13.84 79.54L13.86 79.55Z" fill="#30325B" fill-opacity="1.000000" fill-rule="nonzero"/>
	<path id="Vector" d="M53.63 58.19L53.58 58.19C50.88 57.64 45.58 54.51 38.63 49.33L38.32 49.1C38.26 49.06 38.22 49 38.21 48.94C38.19 48.87 38.21 48.8 38.24 48.75C38.28 48.69 38.33 48.65 38.4 48.64C38.46 48.63 38.53 48.64 38.58 48.67C38.7 48.75 38.82 48.84 38.94 48.93C45.8 54.06 51.03 57.19 53.67 57.71C53.73 57.72 53.79 57.76 53.83 57.82C53.87 57.87 53.88 57.94 53.87 58.01C53.85 58.06 53.82 58.1 53.78 58.14C53.74 58.17 53.69 58.19 53.63 58.19Z" fill="#30325B" fill-opacity="1.000000" fill-rule="nonzero"/>
	<path id="Vector" d="M39.18 25.01C38.82 25.01 38.47 24.9 38.17 24.7C37.87 24.5 37.63 24.22 37.5 23.89C37.36 23.55 37.32 23.19 37.39 22.83C37.46 22.48 37.64 22.15 37.89 21.9C38.15 21.64 38.47 21.47 38.82 21.4C39.18 21.33 39.54 21.37 39.88 21.5C40.21 21.64 40.49 21.88 40.69 22.18C40.89 22.48 41 22.83 41 23.19C41 23.67 40.81 24.13 40.47 24.48C40.13 24.82 39.66 25.01 39.18 25.01ZM39.18 21.92C38.93 21.92 38.68 21.99 38.47 22.13C38.27 22.27 38.1 22.47 38.01 22.7C37.91 22.93 37.89 23.19 37.94 23.44C37.98 23.68 38.11 23.91 38.28 24.08C38.46 24.26 38.69 24.38 38.93 24.43C39.18 24.48 39.43 24.46 39.66 24.36C39.9 24.26 40.09 24.1 40.23 23.89C40.37 23.68 40.45 23.44 40.45 23.19C40.45 23.02 40.41 22.86 40.35 22.7C40.29 22.55 40.19 22.41 40.08 22.29C39.96 22.17 39.82 22.08 39.66 22.02C39.51 21.95 39.35 21.92 39.18 21.92Z" fill="#30325B" fill-opacity="1.000000" fill-rule="nonzero"/>
	<path id="Vector" d="M38.44 24.39C38.44 24.39 40.24 27.36 39.82 27.94C39.41 28.52 38.1 28.08 38.1 28.08L38.44 24.39Z" fill="#FFFFFF" fill-opacity="1.000000" fill-rule="nonzero"/>
	<path id="Vector" d="M39.04 28.49C38.69 28.49 38.34 28.43 38.01 28.32C37.94 28.29 37.88 28.24 37.84 28.17C37.81 28.1 37.8 28.02 37.83 27.95C37.85 27.88 37.9 27.81 37.97 27.78C38.04 27.75 38.12 27.74 38.19 27.76C38.55 27.89 39.37 28.04 39.59 27.73C39.74 27.46 39.09 25.95 38.2 24.49C38.19 24.45 38.17 24.42 38.17 24.39C38.16 24.35 38.16 24.31 38.17 24.28C38.18 24.24 38.19 24.21 38.21 24.18C38.24 24.15 38.26 24.13 38.29 24.11C38.32 24.09 38.36 24.08 38.39 24.07C38.43 24.06 38.47 24.07 38.5 24.07C38.54 24.08 38.57 24.1 38.6 24.12C38.63 24.14 38.66 24.17 38.68 24.2C39.23 25.14 40.52 27.39 40.04 28.07C39.92 28.22 39.77 28.33 39.59 28.41C39.42 28.48 39.23 28.51 39.04 28.49Z" fill="#30325B" fill-opacity="1.000000" fill-rule="nonzero"/>
	<path id="Vector" d="M38.18 20.56C39.36 21.59 38.92 23.68 38.86 25.04C38.77 26.96 38.64 28.88 38.46 30.8C38.35 32.01 35.2 31.91 34.65 31.53L35.32 34.57L28.44 33.56L28.86 29.6C28.86 29.6 28.42 24.06 29.75 21.64C30.13 20.94 30.71 20.37 31.4 19.97C32.1 19.58 32.89 19.39 33.69 19.43C33.69 19.43 37.02 19.54 38.18 20.56Z" fill="#FFFFFF" fill-opacity="1.000000" fill-rule="nonzero"/>
	<path id="Vector" d="M35.32 34.85L35.28 34.85L28.4 33.84C28.33 33.83 28.26 33.79 28.22 33.73C28.18 33.68 28.16 33.61 28.16 33.53L28.58 29.57C28.58 29.39 28.15 23.99 29.5 21.51C29.91 20.76 30.52 20.14 31.27 19.73C32.01 19.31 32.86 19.11 33.71 19.16C33.84 19.16 37.15 19.28 38.36 20.35C39.47 21.31 39.3 22.98 39.19 24.32C39.19 24.58 39.15 24.83 39.13 25.06C39.05 26.98 38.91 28.94 38.74 30.82C38.71 31.03 38.63 31.23 38.49 31.4C38.35 31.56 38.17 31.68 37.97 31.75C37.03 32.09 36.01 32.16 35.03 31.96L35.58 34.51C35.59 34.56 35.59 34.6 35.58 34.64C35.57 34.69 35.55 34.73 35.52 34.76C35.49 34.79 35.46 34.81 35.43 34.82C35.39 34.84 35.36 34.85 35.32 34.85ZM28.74 33.33L34.96 34.24L34.41 31.59C34.4 31.54 34.4 31.48 34.42 31.43C34.44 31.38 34.48 31.33 34.53 31.3C34.57 31.27 34.63 31.25 34.68 31.25C34.74 31.25 34.8 31.27 34.84 31.3C35.8 31.6 36.82 31.58 37.77 31.24C38.04 31.11 38.19 30.95 38.21 30.77C38.39 28.87 38.52 26.94 38.61 25.03C38.61 24.8 38.64 24.54 38.66 24.27C38.77 23.05 38.9 21.51 38.02 20.76C36.96 19.82 33.74 19.71 33.71 19.71C32.97 19.67 32.22 19.84 31.57 20.21C30.92 20.57 30.38 21.11 30.02 21.77C28.75 24.1 29.16 29.52 29.17 29.57L28.74 33.33Z" fill="#30325B" fill-opacity="1.000000" fill-rule="nonzero"/>
	<path id="Vector" d="M27.08 34.5L27.73 32.4L36.18 33.21L36.66 35.14C35.12 35.75 33.46 36 31.8 35.89C30.15 35.78 28.53 35.3 27.08 34.5Z" fill="#FFFFFF" fill-opacity="1.000000" fill-rule="nonzero"/>
	<path id="Vector" d="M32.64 36.2C30.66 36.19 28.7 35.69 26.96 34.74C26.9 34.71 26.86 34.66 26.83 34.6C26.81 34.54 26.8 34.48 26.82 34.41L27.45 32.32C27.47 32.25 27.51 32.2 27.56 32.17C27.62 32.13 27.68 32.12 27.74 32.12L36.21 32.92C36.27 32.93 36.32 32.95 36.36 32.99C36.41 33.03 36.44 33.08 36.45 33.13L36.94 35.06C36.95 35.12 36.95 35.18 36.92 35.24C36.89 35.3 36.84 35.35 36.79 35.37C35.48 35.93 34.07 36.21 32.64 36.2ZM27.45 34.36C28.81 35.07 30.31 35.49 31.84 35.6C33.38 35.71 34.92 35.49 36.37 34.98L35.99 33.47L27.96 32.69L27.45 34.36Z" fill="#30325B" fill-opacity="1.000000" fill-rule="nonzero"/>
	<path id="Vector" d="M31.22 30.09C31.22 33.36 34.5 39.95 31.69 42.54C29.04 44.98 24.49 45.62 21.08 45.24C16.09 44.69 13.47 41.24 15.54 36.38C16.54 34.01 18.31 32.06 19.77 29.94C21.07 28.08 22.15 26.08 23.01 23.98C23.74 22.2 24.28 20.1 25.27 18.44C27.45 14.77 31.3 13.33 35.36 14.51C37.1 15.02 40.44 17.11 39.62 19.38C39.42 19.93 38.74 20.77 38.2 20.54C38.04 21.61 37.35 22.13 36.51 22.81C35.63 23.46 34.71 24.07 33.76 24.62C33.11 25 32.55 25.51 32.1 26.11C31.6 26.93 31.32 27.86 31.27 28.82C31.23 29.24 31.21 29.67 31.22 30.09Z" fill="#FFFFFF" fill-opacity="1.000000" fill-rule="nonzero"/>
	<path id="Vector" d="M22.91 45.62C22.29 45.62 21.67 45.58 21.05 45.52C18.36 45.23 16.31 44.1 15.28 42.35C14.24 40.6 14.29 38.58 15.28 36.26C16.08 34.54 17.1 32.94 18.3 31.47C18.72 30.91 19.14 30.36 19.54 29.77C20.82 27.92 21.89 25.94 22.75 23.86C22.99 23.27 23.2 22.67 23.43 22.03C23.84 20.74 24.38 19.5 25.02 18.31C26.02 16.53 27.6 15.15 29.5 14.41C31.4 13.67 33.49 13.62 35.43 14.26C36.73 14.63 38.91 15.88 39.71 17.45C39.88 17.76 39.98 18.1 40.01 18.45C40.04 18.8 39.99 19.15 39.88 19.48C39.68 20.03 39.28 20.49 38.77 20.78C38.66 20.83 38.54 20.86 38.42 20.86C38.18 21.82 37.53 22.34 36.79 22.94L36.68 23.04C36.1 23.49 35.49 23.9 34.85 24.26C34.54 24.45 34.23 24.64 33.93 24.82C33.31 25.2 32.77 25.69 32.34 26.28C31.88 27.06 31.61 27.95 31.56 28.86C31.51 29.27 31.49 29.69 31.5 30.11C31.6 31.43 31.83 32.75 32.21 34.03C33 37.24 33.87 40.89 31.87 42.75C29.55 44.89 25.92 45.62 22.91 45.62ZM32.62 14.41C31.17 14.41 29.74 14.8 28.48 15.53C27.23 16.27 26.19 17.33 25.48 18.6C24.86 19.76 24.34 20.97 23.93 22.22C23.72 22.85 23.48 23.51 23.24 24.06C22.38 26.18 21.28 28.2 19.98 30.08C19.57 30.63 19.15 31.23 18.72 31.79C17.55 33.23 16.56 34.8 15.77 36.47C14.87 38.61 14.87 40.54 15.77 42.05C16.71 43.65 18.61 44.68 21.12 44.95C24.24 45.29 28.83 44.8 31.51 42.32C33.29 40.66 32.44 37.2 31.69 34.13C31.3 32.81 31.06 31.45 30.96 30.08C30.95 29.64 30.98 29.21 31.03 28.78C31.08 27.78 31.37 26.81 31.88 25.96C32.34 25.33 32.93 24.79 33.6 24.39C33.91 24.19 34.23 23.99 34.54 23.8C35.16 23.45 35.75 23.05 36.31 22.62L36.43 22.53C37.21 21.89 37.77 21.42 37.91 20.51C37.91 20.47 37.93 20.43 37.95 20.4C37.98 20.36 38.01 20.34 38.05 20.32C38.08 20.29 38.12 20.28 38.17 20.28C38.21 20.28 38.25 20.29 38.29 20.3C38.37 20.34 38.45 20.34 38.53 20.3C38.91 20.08 39.19 19.74 39.34 19.33C39.43 19.07 39.47 18.79 39.44 18.52C39.42 18.24 39.34 17.97 39.2 17.73C38.49 16.32 36.43 15.16 35.26 14.82C34.4 14.56 33.52 14.42 32.62 14.41Z" fill="#30325B" fill-opacity="1.000000" fill-rule="nonzero"/>
	<path id="Vector" d="M38.47 29.36C38.47 29.36 36.95 30.22 36.21 28.65L38.47 29.36Z" fill="#FFFFFF" fill-opacity="1.000000" fill-rule="nonzero"/>
	<path id="Vector" d="M37.55 29.87C37.38 29.87 37.2 29.85 37.04 29.8C36.79 29.71 36.57 29.58 36.39 29.4C36.2 29.22 36.06 29.01 35.96 28.77C35.95 28.74 35.94 28.7 35.93 28.67C35.93 28.63 35.94 28.59 35.95 28.56C35.96 28.52 35.98 28.49 36.01 28.46C36.03 28.44 36.06 28.42 36.09 28.4C36.13 28.38 36.16 28.38 36.2 28.37C36.24 28.37 36.27 28.38 36.31 28.39C36.34 28.4 36.37 28.42 36.4 28.45C36.43 28.47 36.45 28.5 36.47 28.53C36.53 28.7 36.63 28.85 36.75 28.98C36.88 29.11 37.03 29.2 37.2 29.27C37.58 29.36 37.98 29.31 38.33 29.12C38.36 29.1 38.4 29.09 38.44 29.09C38.47 29.08 38.51 29.09 38.54 29.1C38.58 29.11 38.61 29.12 38.64 29.15C38.67 29.17 38.69 29.2 38.71 29.23C38.73 29.26 38.74 29.3 38.74 29.33C38.75 29.37 38.75 29.4 38.74 29.44C38.73 29.47 38.71 29.51 38.69 29.53C38.66 29.56 38.64 29.58 38.6 29.6C38.28 29.77 37.92 29.87 37.55 29.87Z" fill="#30325B" fill-opacity="1.000000" fill-rule="nonzero"/>
	<path id="Vector" d="M30.52 25.53C30.5 25.53 30.47 25.53 30.45 25.53C30.38 25.51 30.32 25.46 30.28 25.4C30.25 25.33 30.24 25.26 30.26 25.19C30.56 24.15 30.78 24.14 30.91 24.12C31.04 24.11 37.39 23.33 40.69 22.93C40.76 22.92 40.84 22.94 40.89 22.98C40.95 23.03 40.99 23.09 41 23.17C41.01 23.24 40.99 23.31 40.94 23.37C40.9 23.43 40.83 23.47 40.76 23.48C39.83 23.59 32.01 24.58 31.04 24.67C30.94 24.88 30.85 25.11 30.79 25.34C30.77 25.39 30.74 25.44 30.69 25.48C30.64 25.51 30.58 25.53 30.52 25.53Z" fill="#30325B" fill-opacity="1.000000" fill-rule="nonzero"/>
	<path id="Vector" d="M34.71 25.48C34.67 25 34.5 24.54 34.22 24.14C34.05 23.81 33.82 23.51 33.56 23.24C33.42 23.11 33.26 23.01 33.09 22.95C32.91 22.89 32.72 22.87 32.54 22.89C32.38 22.92 32.22 22.99 32.09 23.08C31.96 23.18 31.84 23.3 31.76 23.44C31.6 23.73 31.51 24.06 31.48 24.39C31.42 25.11 31.55 25.83 31.86 26.49C32.17 27.14 32.65 27.7 33.24 28.12L33.14 28L34.71 25.48Z" fill="#FFFFFF" fill-opacity="1.000000" fill-rule="nonzero"/>
	<path id="Vector" d="M33.24 28.41C33.19 28.4 33.13 28.39 33.09 28.36C32.45 27.91 31.95 27.31 31.62 26.61C31.29 25.92 31.15 25.14 31.21 24.37C31.23 24 31.34 23.64 31.53 23.31C31.63 23.13 31.77 22.98 31.93 22.86C32.1 22.74 32.29 22.66 32.49 22.62C32.72 22.59 32.95 22.61 33.17 22.69C33.38 22.76 33.58 22.88 33.75 23.04C34.03 23.32 34.27 23.65 34.46 24C34.78 24.44 34.97 24.95 35.01 25.49C35.01 25.56 34.98 25.63 34.93 25.68C34.87 25.73 34.8 25.76 34.73 25.76C34.7 25.76 34.66 25.75 34.63 25.74C34.59 25.72 34.56 25.7 34.54 25.67C34.51 25.65 34.49 25.62 34.48 25.58C34.47 25.55 34.46 25.51 34.46 25.48C34.42 25.05 34.27 24.63 34.01 24.29C33.85 23.98 33.65 23.7 33.4 23.45C33.3 23.35 33.18 23.27 33.04 23.22C32.9 23.17 32.76 23.15 32.61 23.16C32.49 23.19 32.37 23.24 32.27 23.32C32.17 23.39 32.09 23.49 32.02 23.6C31.88 23.85 31.8 24.13 31.79 24.42C31.73 25.05 31.84 25.68 32.08 26.26C32.33 26.84 32.72 27.35 33.2 27.75C33.24 27.75 33.27 27.76 33.3 27.78C33.33 27.79 33.36 27.81 33.38 27.84L33.48 27.96C33.53 28.01 33.55 28.07 33.55 28.14C33.55 28.21 33.53 28.27 33.48 28.32C33.45 28.35 33.41 28.38 33.37 28.39C33.33 28.41 33.29 28.41 33.24 28.41Z" fill="#30325B" fill-opacity="1.000000" fill-rule="nonzero"/>
	<path id="Vector" d="M38.2 22.87C38.21 23.25 38.09 23.56 37.94 23.56C37.79 23.57 37.67 23.26 37.66 22.88C37.66 22.5 37.77 22.19 37.92 22.19C38.07 22.19 38.2 22.49 38.2 22.87Z" fill="#30325B" fill-opacity="1.000000" fill-rule="evenodd"/>
	<path id="Vector" d="M19.34 70.44C19.27 70.45 19.21 70.42 19.16 70.38C19.12 70.34 19.09 70.28 19.09 70.21C18.61 63.74 19.57 46.4 19.58 46.23C19.58 46.19 19.59 46.16 19.6 46.13C19.62 46.1 19.64 46.07 19.66 46.05C19.69 46.03 19.72 46.01 19.75 46C19.78 45.99 19.81 45.99 19.85 45.99C19.91 45.99 19.98 46.03 20.02 46.08C20.06 46.13 20.09 46.19 20.08 46.26C20.08 46.43 19.11 63.73 19.59 70.17C19.6 70.24 19.57 70.31 19.53 70.36C19.49 70.41 19.43 70.44 19.36 70.44L19.34 70.44Z" fill="#30325B" fill-opacity="1.000000" fill-rule="nonzero"/>
	<path id="Vector" d="M21.67 70.99C21.61 70.98 21.55 70.95 21.51 70.91C21.47 70.86 21.45 70.8 21.45 70.74C21.45 70.68 21.47 70.62 21.51 70.57C21.55 70.53 21.61 70.5 21.67 70.49L43.82 69.38C43.85 69.38 43.89 69.38 43.92 69.39C43.95 69.41 43.98 69.42 44.01 69.45C44.03 69.47 44.05 69.5 44.06 69.53C44.08 69.56 44.09 69.59 44.09 69.62C44.09 69.69 44.06 69.76 44.02 69.81C43.97 69.86 43.91 69.89 43.84 69.89L21.69 71L21.67 70.99Z" fill="#30325B" fill-opacity="1.000000" fill-rule="nonzero"/>
</svg>
