<svg width="380.104492" height="313.880035" viewBox="0 0 380.104 313.88" fill="none" xmlns="http://www.w3.org/2000/svg" xmlns:xlink="http://www.w3.org/1999/xlink">
	<desc>
			Created with Pixso.
	</desc>
	<defs/>
	<path id="Vector" d="M232.43 306.96C232.43 310.78 255.47 313.88 283.9 313.88C312.33 313.88 335.37 310.78 335.37 306.96C335.37 303.14 312.33 300.05 283.9 300.05C255.47 300.05 232.43 303.14 232.43 306.96Z" fill="#E6E7E8" fill-opacity="1.000000" fill-rule="evenodd"/>
	<path id="Vector" d="M8.89 306.96C8.89 310.78 31.93 313.88 60.36 313.88C88.78 313.88 111.83 310.78 111.83 306.96C111.83 303.14 88.78 300.05 60.36 300.05C31.93 300.05 8.89 303.14 8.89 306.96Z" fill="#E6E7E8" fill-opacity="1.000000" fill-rule="evenodd"/>
	<path id="Vector" d="M286.8 283.55C286.8 283.55 277.86 310.93 276.27 310.41C274.69 309.89 242.84 291.45 243.89 288.29C244.94 285.14 267.06 291.72 267.06 291.72L272.04 276.98L286.8 283.55Z" fill="#FFFFFF" fill-opacity="1.000000" fill-rule="nonzero"/>
	<path id="Vector" d="M276.24 311.11C276.39 311.12 276.53 311.08 276.66 311.01C278.64 310.02 284.83 291.63 287.39 283.78C287.42 283.69 287.44 283.6 287.43 283.5C287.42 283.41 287.4 283.32 287.36 283.23C287.32 283.15 287.26 283.08 287.19 283.01C287.12 282.96 287.03 282.91 286.94 282.88C286.76 282.83 286.57 282.85 286.41 282.93C286.24 283.02 286.12 283.17 286.06 283.34C282.25 295.01 277.57 307.87 276.14 309.63C271.81 307.77 244.69 291.2 244.5 288.45C244.88 287.33 254.5 288.73 266.79 292.39C266.96 292.44 267.15 292.42 267.31 292.33C267.47 292.25 267.6 292.11 267.66 291.94L272.65 277.2C272.71 277.02 272.7 276.83 272.62 276.66C272.54 276.5 272.39 276.37 272.22 276.3C272.04 276.25 271.85 276.26 271.68 276.35C271.51 276.43 271.38 276.58 271.32 276.75L266.54 290.78C246.58 284.9 243.54 286.86 243.16 287.97C242.88 288.8 242.3 290.51 258.59 300.83C266.61 305.9 275.01 310.65 275.91 310.97C276.01 311.04 276.12 311.09 276.24 311.11Z" fill="#30325B" fill-opacity="1.000000" fill-rule="nonzero"/>
	<path id="Vector" d="M324.71 237.75C324.71 237.75 343.14 238.01 343.66 239.59C344.18 241.16 349.72 270.44 344.71 268.03C339.71 265.62 331.56 249.07 331.56 249.07L322.34 247.66L324.71 237.75Z" fill="#FFFFFF" fill-opacity="1.000000" fill-rule="nonzero"/>
	<path id="Vector" d="M345.26 268.85C345.64 268.85 346.01 268.71 346.3 268.46C349.73 265.41 344.67 240.41 344.33 239.36C344.17 238.86 343.65 237.31 324.7 237.05C324.54 237.05 324.39 237.11 324.26 237.2C324.14 237.3 324.05 237.43 324 237.58L321.63 247.47C321.59 247.66 321.62 247.85 321.73 248.01C321.78 248.1 321.85 248.17 321.93 248.22C322.01 248.27 322.1 248.31 322.2 248.32L331.07 249.73C332.27 252.15 339.57 266.4 344.39 268.69C344.66 268.81 344.96 268.86 345.26 268.85ZM343.03 239.92C343.77 242.49 347.76 265.29 345.36 267.41C345.36 267.41 345.26 267.51 345.02 267.41C341.09 265.56 334.43 253.39 332.19 248.79C332.14 248.68 332.07 248.6 331.98 248.53C331.89 248.46 331.78 248.42 331.67 248.41L323.25 247L325.32 238.42C333.25 238.59 341.85 239.16 343.03 239.92Z" fill="#30325B" fill-opacity="1.000000" fill-rule="nonzero"/>
	<path id="Vector" d="M219.85 22.07L211.97 17.56C211.97 17.56 209.75 10.46 207.52 8.75C205.29 7.04 202.22 9.37 202.22 9.37C202.22 9.37 194.07 2.56 192.11 2.79C190.14 3.01 192.74 6.49 194.74 8.24L198.95 11.93C198.95 11.93 195.26 19.45 197.39 22.41C199.53 25.37 216.69 34.51 216.69 34.51L219.85 22.07Z" fill="#FFFFFF" fill-opacity="1.000000" fill-rule="nonzero"/>
	<path id="Vector" d="M216.72 35.2C216.82 35.21 216.92 35.21 217.02 35.2C217.11 35.15 217.2 35.09 217.26 35C217.33 34.92 217.38 34.83 217.41 34.72L220.52 22.3C220.56 22.15 220.55 22 220.49 21.86C220.43 21.72 220.33 21.6 220.2 21.53L212.56 17.16C212.08 15.76 210.12 9.93 208 8.24C205.88 6.56 203.36 7.89 202.3 8.54C199.98 6.62 194.04 1.93 192.08 2.14C191.8 2.16 191.53 2.26 191.3 2.43C191.08 2.6 190.91 2.83 190.82 3.1C190.28 4.79 193.24 7.88 194.31 8.83L198.12 12.17C197.27 14.02 194.8 20.03 196.86 22.89C198.92 25.75 214.63 34.25 216.4 35.19C216.5 35.22 216.61 35.22 216.72 35.2ZM219.04 22.42L216.23 33.46C211.03 30.66 199.55 24.19 198 21.99C196.44 19.79 198.64 14.22 199.61 12.17C199.68 12.03 199.7 11.87 199.67 11.72C199.64 11.57 199.56 11.43 199.44 11.33L195.24 7.66C193.34 5.99 192.01 3.88 192.15 3.45C193.23 3.35 198 6.73 201.8 9.9C201.92 10 202.08 10.05 202.23 10.05C202.39 10.05 202.54 10 202.67 9.9C202.67 9.9 205.38 7.89 207.11 9.27C208.85 10.64 210.69 15.83 211.32 17.68C211.38 17.85 211.49 18 211.64 18.09L219.04 22.42Z" fill="#30325B" fill-opacity="1.000000" fill-rule="nonzero"/>
	<path id="Vector" d="M315.32 68.27C309.15 71.72 220.14 19.76 220.14 19.76L206.89 33.48L297 98.75L315.32 68.27Z" fill="#FF5A57" fill-opacity="1.000000" fill-rule="nonzero"/>
	<path id="Vector" d="M285.33 67.4C285.33 67.4 338.27 67.4 351.92 78.27C362.03 86.32 363.94 142.45 363.94 142.45L262.85 134.57C262.85 134.57 257.04 75.4 285.33 67.4Z" fill="#FF5A57" fill-opacity="1.000000" fill-rule="nonzero"/>
	<path id="Vector" d="M277.65 100.18C277.82 100.18 277.98 100.11 278.1 99.99C278.22 99.87 278.29 99.7 278.29 99.53L278.29 72C278.29 71.83 278.22 71.67 278.1 71.55C277.98 71.42 277.82 71.36 277.65 71.36C277.47 71.36 277.31 71.42 277.19 71.55C277.07 71.67 277 71.83 277 72L277 99.53C277 99.7 277.07 99.87 277.19 99.99C277.31 100.11 277.47 100.18 277.65 100.18Z" fill="#30325B" fill-opacity="1.000000" fill-rule="nonzero"/>
	<path id="Vector" d="M163.02 215.73C163.89 215.04 195.28 211.83 197.23 212.43C199.18 213.04 207.04 238.98 206.89 241.2C206.64 245.63 189.3 227.87 189.3 227.87L163.02 233.15L163.02 215.73Z" fill="#FFFFFF" fill-opacity="1.000000" fill-rule="nonzero"/>
	<path id="Vector" d="M206.33 242.59C206.47 242.62 206.61 242.62 206.75 242.59C207.01 242.49 207.23 242.31 207.38 242.09C207.53 241.86 207.6 241.58 207.59 241.31C207.69 239.66 200.14 212.69 197.42 211.86C195.38 211.23 163.76 214.33 162.59 215.28C162.44 215.4 162.35 215.56 162.33 215.75C162.31 215.93 162.36 216.12 162.47 216.26C162.58 216.4 162.73 216.49 162.9 216.52C163.07 216.55 163.24 216.52 163.38 216.43C165.59 215.6 195.25 212.74 197.04 213.2C198.73 214.5 206.36 239.08 206.22 241.25C204.81 241.69 196.6 234.4 189.84 227.48C189.75 227.4 189.65 227.33 189.54 227.3C189.43 227.27 189.31 227.26 189.19 227.29L162.92 232.52C162.74 232.55 162.58 232.66 162.47 232.82C162.37 232.97 162.33 233.16 162.36 233.34C162.38 233.43 162.42 233.52 162.47 233.6C162.52 233.67 162.58 233.74 162.66 233.79C162.74 233.84 162.82 233.88 162.91 233.89C163 233.91 163.1 233.91 163.19 233.89L189.09 228.73C193.5 233.15 203.12 242.59 206.33 242.59Z" fill="#30325B" fill-opacity="1.000000" fill-rule="nonzero"/>
	<path id="Vector" d="M46.74 278.2C46.74 279.11 38.2 306.51 35.7 306.95C33.21 307.38 -1.97 296.29 0.93 294.32C3.84 292.36 19.76 293.81 19.76 293.81L28.24 271.01L46.74 278.2Z" fill="#FFFFFF" fill-opacity="1.000000" fill-rule="nonzero"/>
	<path id="Vector" d="M35.69 307.65L35.83 307.65C39.14 307.06 47.43 278.52 47.44 278.2C47.46 278.01 47.4 277.82 47.27 277.68C47.15 277.54 46.98 277.45 46.8 277.44C46.61 277.42 46.43 277.48 46.28 277.6C46.14 277.73 46.05 277.9 46.04 278.08C45.65 280.57 37.62 305.14 35.51 306.23C34.57 306.36 27.2 304.38 18.1 301.37C8.28 298.1 2.88 295.76 1.66 294.7C4.29 293.6 13.7 293.95 19.69 294.48C19.84 294.49 19.99 294.46 20.12 294.38C20.25 294.3 20.35 294.17 20.4 294.03L28.82 271.27C28.86 271.18 28.89 271.08 28.89 270.98C28.9 270.89 28.88 270.79 28.85 270.7C28.81 270.6 28.75 270.52 28.68 270.45C28.61 270.38 28.53 270.33 28.44 270.29C28.35 270.26 28.25 270.24 28.15 270.25C28.05 270.25 27.95 270.28 27.87 270.33C27.78 270.37 27.7 270.44 27.64 270.51C27.58 270.59 27.54 270.68 27.51 270.78L19.22 293.03C16.09 292.78 3.28 291.84 0.47 293.72C0.27 293.85 0.11 294.04 0.04 294.27C-0.03 294.5 -0.02 294.75 0.08 294.97C1.52 298.43 32.7 307.65 35.69 307.65Z" fill="#30325B" fill-opacity="1.000000" fill-rule="nonzero"/>
	<path id="Vector" d="M83.75 147.19C83.75 147.19 97.61 251.13 111.8 247.96C125.99 244.79 182.78 232.71 182.78 232.71L177.65 210.27C177.65 210.27 137.24 214.57 131.86 214.96C126.47 215.35 130.26 142.46 130.26 142.46L83.75 147.19Z" fill="#30325B" fill-opacity="1.000000" fill-rule="nonzero"/>
	<path id="Vector" d="M111.18 248.73C111.45 248.73 111.72 248.7 111.98 248.65C126.01 245.53 182.39 233.51 182.95 233.4C183.13 233.36 183.29 233.25 183.4 233.09C183.5 232.93 183.53 232.74 183.5 232.56L178.36 210.12C178.32 209.95 178.22 209.81 178.08 209.71C177.94 209.61 177.78 209.56 177.61 209.57C177.2 209.57 137.14 213.88 131.83 214.26C129.02 212.85 129.21 176.68 130.97 142.49C130.98 142.39 130.97 142.29 130.93 142.2C130.89 142.11 130.84 142.02 130.76 141.96C130.69 141.89 130.6 141.83 130.5 141.8C130.41 141.76 130.3 141.75 130.2 141.76L83.68 146.5C83.58 146.51 83.49 146.54 83.41 146.58C83.32 146.63 83.25 146.69 83.19 146.77C83.13 146.84 83.09 146.92 83.07 147.01C83.04 147.1 83.04 147.2 83.05 147.29C83.54 151.02 95.36 238.59 108.66 247.87C109.39 248.41 110.27 248.71 111.18 248.73ZM181.97 232.18C175.42 233.58 124.87 244.34 111.67 247.29C111.29 247.35 110.89 247.33 110.51 247.23C110.12 247.14 109.77 246.96 109.46 246.71C97.28 238.2 85.71 156.38 84.54 147.81L129.54 143.23C129.04 153.18 126.33 210.79 130.85 215.21C130.99 215.36 131.16 215.47 131.35 215.55C131.53 215.62 131.74 215.66 131.94 215.65C136.91 215.28 172.01 211.56 177.13 211.02L181.97 232.18Z" fill="#30325B" fill-opacity="1.000000" fill-rule="nonzero"/>
	<path id="Vector" d="M96.37 155.34L47.62 293.25L20.22 278.55L62.22 147.19L96.37 155.34Z" fill="#30325B" fill-opacity="1.000000" fill-rule="nonzero"/>
	<path id="Vector" d="M47.64 293.95C47.72 293.96 47.81 293.96 47.89 293.95C47.99 293.91 48.07 293.85 48.15 293.78C48.22 293.71 48.27 293.62 48.31 293.53L97.05 155.62C97.08 155.53 97.1 155.43 97.1 155.33C97.1 155.23 97.08 155.13 97.05 155.04C96.94 154.87 96.78 154.75 96.58 154.69L62.45 146.54C62.27 146.5 62.09 146.53 61.94 146.62C61.78 146.7 61.67 146.85 61.62 147.02L19.54 278.38C19.5 278.53 19.5 278.7 19.56 278.85C19.63 279 19.74 279.13 19.88 279.21L47.3 293.9C47.41 293.95 47.52 293.96 47.64 293.95ZM95.46 155.84L47.26 292.25L21.07 278.22L62.7 148.02L95.46 155.84Z" fill="#30325B" fill-opacity="1.000000" fill-rule="nonzero"/>
	<path id="Vector" d="M56.3 92.31L39.24 86.7C40.02 85.55 48.63 59.1 58.87 54.06C67.8 48.15 84.31 49.27 102.99 50.57C108.99 50.87 114.9 52.1 120.51 54.22C141.55 62.63 144.58 90.33 144.58 90.33L125.15 97.11C125.15 97.11 128.29 134.79 131.25 154.5C131.25 154.5 107.58 163.47 54.66 154.71C54.65 154.61 56.21 97.88 56.3 92.31Z" fill="#FF5A57" fill-opacity="1.000000" fill-rule="nonzero"/>
	<path id="Vector" d="M78.48 61.22L97.43 104.46L102.07 62.75L78.48 61.22Z" fill="#30325B" fill-opacity="1.000000" fill-rule="nonzero"/>
	<path id="Vector" d="M97.42 105.16L97.52 105.16C97.68 105.13 97.82 105.06 97.92 104.95C98.03 104.84 98.1 104.69 98.11 104.54L102.75 62.82C102.77 62.63 102.71 62.44 102.6 62.3C102.54 62.22 102.46 62.16 102.38 62.12C102.3 62.08 102.2 62.05 102.11 62.04L78.49 60.52C78.37 60.51 78.25 60.53 78.15 60.59C78.04 60.64 77.94 60.71 77.87 60.81C77.8 60.91 77.76 61.02 77.75 61.14C77.74 61.26 77.76 61.39 77.8 61.5L96.72 104.74C96.78 104.87 96.88 104.98 97.01 105.06C97.13 105.13 97.28 105.17 97.42 105.16ZM101.28 63.45L97.07 101.85L79.57 62.04L101.28 63.45Z" fill="#30325B" fill-opacity="1.000000" fill-rule="nonzero"/>
	<path id="Vector" d="M68.58 6.81C70.93 4.14 74.01 2.22 77.44 1.27C80.87 0.33 84.5 0.42 87.89 1.51C93.89 3.45 99.36 6.8 105.38 8.72C111.39 10.64 118.49 10.9 123.47 7.02C123.44 8.47 123.1 9.89 122.47 11.2C121.85 12.5 120.95 13.66 119.84 14.59C118.73 15.52 117.44 16.2 116.04 16.59C114.65 16.98 113.19 17.06 111.76 16.84C111.98 18.24 113.89 18.45 115.25 18.16C116.61 17.87 118.35 17.53 119.19 18.65C119.41 19.02 119.55 19.44 119.58 19.88C119.61 20.31 119.54 20.75 119.37 21.15C118.35 24.53 115.27 26.76 112.36 28.81C108.15 31.71 103.95 32.31 99.65 34.32C95.11 36.46 91.72 39.44 86.5 40.17C81.75 40.8 76.94 39.62 73.04 36.86C70.58 35.12 65.59 32.75 66.57 29.02C67.05 27.25 63.93 23.88 63.77 21.29C63.52 18.67 63.82 16.04 64.65 13.55C65.48 11.05 66.82 8.76 68.58 6.81Z" fill="#FFFFFF" fill-opacity="1.000000" fill-rule="nonzero"/>
	<path id="Vector" d="M84.1 41.01C84.96 41.01 85.81 40.95 86.65 40.82C90.01 40.2 93.21 38.91 96.06 37.04C97.31 36.31 98.62 35.64 100.02 34.91C101.56 34.2 103.15 33.59 104.76 33.07C107.61 32.21 110.33 30.96 112.82 29.34C116.06 27.09 119.05 24.79 120.1 21.32C120.3 20.81 120.38 20.26 120.33 19.72C120.28 19.17 120.1 18.65 119.81 18.19C119.4 17.73 118.88 17.39 118.3 17.21C117.71 17.03 117.09 17.01 116.5 17.16C117.88 16.71 119.17 16 120.29 15.06C121.5 14.09 122.48 12.85 123.16 11.44C123.83 10.04 124.18 8.5 124.17 6.94C124.17 6.81 124.13 6.68 124.06 6.58C123.99 6.47 123.9 6.38 123.78 6.32C123.66 6.27 123.53 6.25 123.4 6.26C123.27 6.28 123.15 6.33 123.05 6.41C117.14 10.99 108.87 9.04 105.59 7.99C102.62 7.02 99.71 5.87 96.88 4.54C94.03 3.16 91.1 1.95 88.1 0.92C84.59 -0.22 80.82 -0.31 77.26 0.67C73.7 1.64 70.5 3.64 68.06 6.41C66.24 8.42 64.85 10.79 63.99 13.37C63.13 15.94 62.82 18.67 63.06 21.37C63.34 22.87 63.9 24.3 64.72 25.58C65.38 26.79 66.12 28.16 65.94 28.82C64.99 32.44 68.66 34.81 71.34 36.53C71.82 36.84 72.28 37.14 72.67 37.42C76.02 39.75 80.01 41.01 84.1 41.01ZM117.31 18.57C117.56 18.54 117.8 18.57 118.03 18.65C118.26 18.74 118.47 18.88 118.63 19.06C118.77 19.35 118.85 19.67 118.87 19.99C118.88 20.31 118.82 20.64 118.7 20.94C117.79 23.98 115 26.11 111.97 28.22C109.58 29.76 106.97 30.96 104.24 31.76C102.58 32.32 100.95 32.95 99.36 33.67C97.96 34.34 96.56 35.07 95.31 35.85C92.61 37.64 89.58 38.87 86.4 39.46C81.84 40.06 77.21 38.92 73.44 36.28C73.04 35.99 72.56 35.68 72.04 35.35C69.59 33.77 66.54 31.81 67.24 29.18C67.55 27.98 66.79 26.56 65.84 24.98C65.16 23.82 64.7 22.54 64.47 21.22C64.24 18.71 64.53 16.19 65.33 13.8C66.13 11.41 67.41 9.21 69.09 7.35C71.36 4.78 74.32 2.93 77.62 2.02C80.92 1.12 84.41 1.2 87.66 2.26C90.61 3.26 93.49 4.45 96.29 5.82C99.17 7.21 102.13 8.42 105.15 9.46C111.91 11.62 118.21 11.25 122.68 8.48C122.3 10.69 121.13 12.69 119.39 14.09C118.38 14.99 117.18 15.64 115.88 16C114.59 16.37 113.23 16.43 111.9 16.2C111.79 16.18 111.68 16.18 111.57 16.21C111.46 16.24 111.36 16.3 111.28 16.38C111.2 16.45 111.13 16.55 111.09 16.66C111.06 16.77 111.05 16.88 111.07 17C111.12 17.28 111.23 17.55 111.39 17.8C111.55 18.04 111.75 18.24 112 18.4C113.03 18.98 114.25 19.14 115.41 18.85C116.03 18.69 116.67 18.6 117.31 18.57Z" fill="#30325B" fill-opacity="1.000000" fill-rule="nonzero"/>
	<path id="Vector" d="M98.66 49.42L102.05 62.75C102.05 62.75 98.28 71.44 89.28 69.76C80.27 68.07 78.48 61.34 78.46 61.34L76.95 47L76.01 38.17C75.77 37.27 75.66 36.33 75.69 35.4C76.25 33.39 78.76 32.3 79.49 30.22C80.95 26.06 80.75 21.5 78.94 17.49C82.7 20.52 87.02 23.6 91.84 23.28C90.87 22.26 89.99 21.15 89.22 19.97L98.66 23.34C99.88 23.74 101.14 24.04 102.42 24.23C103.82 24.5 103.27 23.62 104.34 25.33C106.98 29.53 107.34 36.8 106.81 41.64C106.05 48.51 98.66 49.42 98.66 49.42Z" fill="#FFFFFF" fill-opacity="1.000000" fill-rule="nonzero"/>
	<path id="Vector" d="M91.59 70.63C99.29 70.63 102.67 63.1 102.7 63.03C102.75 62.88 102.75 62.71 102.7 62.56L99.49 49.94C101.49 49.45 106.81 47.6 107.47 41.53C108.01 36.6 107.65 29.25 104.89 24.77L104.82 24.64C104.16 23.59 103.95 23.24 103.16 23.36C102.94 23.42 102.72 23.42 102.5 23.36C101.26 23.17 100.05 22.88 98.86 22.49L89.42 19.11C89.28 19.07 89.13 19.06 88.99 19.11C88.84 19.15 88.72 19.24 88.63 19.35C88.55 19.47 88.5 19.61 88.5 19.76C88.5 19.9 88.55 20.05 88.63 20.17C89.14 20.93 89.68 21.67 90.27 22.38C86.26 22.02 82.59 19.32 79.42 16.77C79.29 16.67 79.14 16.62 78.98 16.62C78.82 16.62 78.67 16.67 78.55 16.77C78.42 16.86 78.33 17 78.29 17.15C78.25 17.31 78.27 17.47 78.34 17.61C80.07 21.47 80.25 25.85 78.86 29.84C78.45 30.76 77.85 31.58 77.09 32.23C76.16 33.01 75.45 34.01 75.03 35.14C74.92 35.89 74.97 36.66 75.18 37.39C75.18 37.67 75.28 37.92 75.31 38.12L77.76 61.29C77.76 61.29 79.58 68.54 89.12 70.39C89.93 70.55 90.76 70.63 91.59 70.63ZM101.32 62.68C100.68 63.98 97.12 70.5 89.42 69.01C80.93 67.37 79.16 61.1 79.15 61.03L76.71 37.98C76.71 37.74 76.63 37.44 76.57 37.12C76.42 36.6 76.36 36.06 76.39 35.52C76.75 34.62 77.34 33.83 78.1 33.22C78.99 32.46 79.71 31.5 80.19 30.42C81.41 26.9 81.52 23.09 80.48 19.51C83.82 22.02 87.65 24.22 91.91 23.94C92.05 23.93 92.17 23.88 92.28 23.8C92.39 23.72 92.47 23.61 92.52 23.49C92.56 23.37 92.58 23.23 92.55 23.1C92.53 22.97 92.47 22.84 92.38 22.75C91.94 22.3 91.52 21.83 91.13 21.34L98.43 23.95C99.66 24.37 100.92 24.67 102.19 24.86C102.56 24.92 102.93 24.92 103.29 24.86L103.67 25.47L103.74 25.58C106.15 29.51 106.67 36.38 106.12 41.46C105.43 47.75 98.86 48.71 98.57 48.73C98.48 48.75 98.38 48.78 98.3 48.84C98.21 48.89 98.14 48.96 98.08 49.04C98.03 49.12 97.99 49.22 97.97 49.31C97.96 49.41 97.96 49.51 97.99 49.6L101.32 62.68Z" fill="#30325B" fill-opacity="1.000000" fill-rule="nonzero"/>
	<path id="Vector" d="M100.45 56.43C98.94 56.8 97.35 56.8 95.84 56.42C94.32 56.04 92.92 55.29 91.76 54.25C87.66 50.64 87.82 47.46 87.82 47.46C91.05 49.48 94.93 50.18 98.66 49.42L100.45 56.43Z" fill="#30325B" fill-opacity="1.000000" fill-rule="nonzero"/>
	<path id="Vector" d="M98.13 57.43C98.96 57.44 99.78 57.34 100.58 57.12C100.75 57.07 100.9 56.95 100.99 56.8C101.08 56.64 101.1 56.45 101.06 56.28L99.28 49.27C99.25 49.18 99.21 49.09 99.16 49.02C99.1 48.95 99.03 48.88 98.95 48.84C98.87 48.79 98.79 48.76 98.7 48.75C98.6 48.73 98.51 48.74 98.42 48.76C94.88 49.45 91.2 48.77 88.14 46.86C88.04 46.78 87.92 46.74 87.8 46.73C87.67 46.72 87.55 46.75 87.44 46.81C87.33 46.86 87.23 46.95 87.17 47.05C87.1 47.16 87.06 47.28 87.06 47.4C87.06 47.54 86.93 50.96 91.27 54.75C93.15 56.46 95.59 57.41 98.13 57.43ZM99.53 55.93C98.21 56.13 96.87 56.04 95.59 55.67C94.32 55.29 93.14 54.63 92.15 53.74C90.56 52.45 89.36 50.74 88.69 48.8C91.57 50.31 94.87 50.84 98.08 50.31L99.53 55.93Z" fill="#30325B" fill-opacity="1.000000" fill-rule="nonzero"/>
	<path id="Vector" d="M93.08 28.47C93.08 28.47 98.29 35.03 97.28 36.34C96.28 37.64 93.08 37.08 93.08 37.08L93.08 28.47Z" fill="#FFFFFF" fill-opacity="1.000000" fill-rule="nonzero"/>
	<path id="Vector" d="M94.58 37.91C95.17 37.96 95.77 37.89 96.33 37.7C96.89 37.51 97.41 37.2 97.85 36.8C98.95 35.4 96.16 31.19 93.64 28.06C93.58 27.99 93.51 27.93 93.43 27.88C93.35 27.84 93.26 27.81 93.17 27.8C93.08 27.79 92.99 27.8 92.9 27.82C92.81 27.85 92.73 27.89 92.66 27.95C92.51 28.07 92.42 28.23 92.4 28.42C92.38 28.6 92.43 28.79 92.55 28.93C94.97 31.99 96.93 35.28 96.75 35.94C96.22 36.63 94.17 36.55 93.29 36.39C93.1 36.36 92.92 36.41 92.77 36.52C92.61 36.62 92.51 36.78 92.47 36.97C92.46 37.06 92.46 37.15 92.48 37.24C92.5 37.33 92.54 37.42 92.59 37.49C92.65 37.57 92.71 37.63 92.79 37.68C92.87 37.73 92.96 37.77 93.05 37.78C93.56 37.86 94.07 37.9 94.58 37.91Z" fill="#30325B" fill-opacity="1.000000" fill-rule="nonzero"/>
	<path id="Vector" d="M86.3 28.43C86.29 29.33 86.8 30.06 87.44 30.06C88.07 30.06 88.59 29.34 88.6 28.44C88.6 27.54 88.09 26.81 87.45 26.81C86.82 26.8 86.3 27.53 86.3 28.43Z" fill="#30325B" fill-opacity="1.000000" fill-rule="evenodd"/>
	<path id="Vector" d="M97.85 26.06C97.24 26.24 96.96 27.09 97.22 27.95C97.48 28.81 98.19 29.36 98.8 29.17C99.4 28.99 99.68 28.14 99.42 27.28C99.16 26.42 98.46 25.87 97.85 26.06Z" fill="#30325B" fill-opacity="1.000000" fill-rule="evenodd"/>
	<path id="Vector" d="M94.07 43.11C97.56 42.96 100.92 41.78 103.74 39.73C103.82 39.68 103.88 39.61 103.94 39.53C103.99 39.45 104.02 39.36 104.04 39.26C104.05 39.17 104.05 39.07 104.02 38.98C104 38.88 103.96 38.8 103.9 38.72C103.84 38.65 103.77 38.58 103.68 38.54C103.6 38.49 103.51 38.46 103.41 38.45C103.32 38.44 103.22 38.45 103.13 38.48C103.04 38.51 102.95 38.56 102.88 38.62C102.56 38.87 94.9 44.68 88.28 39.77C88.21 39.71 88.12 39.65 88.03 39.62C87.94 39.59 87.84 39.58 87.74 39.59C87.64 39.6 87.55 39.63 87.46 39.68C87.37 39.73 87.3 39.79 87.24 39.87C87.18 39.95 87.14 40.04 87.12 40.14C87.1 40.23 87.1 40.33 87.12 40.43C87.14 40.53 87.18 40.62 87.24 40.7C87.29 40.78 87.37 40.84 87.45 40.89C89.36 42.34 91.68 43.12 94.07 43.11Z" fill="#30325B" fill-opacity="1.000000" fill-rule="nonzero"/>
	<path id="Vector" d="M79.56 34.19C79.02 33.67 78.39 33.26 77.7 32.98C77.01 32.71 76.26 32.58 75.52 32.59C74.77 32.63 74.05 32.87 73.44 33.31C72.82 33.74 72.35 34.34 72.07 35.03C71.87 35.85 71.89 36.71 72.11 37.52C72.34 38.33 72.77 39.07 73.36 39.67C74.2 40.64 75.24 41.42 76.41 41.96C77.57 42.5 78.83 42.79 80.12 42.82L79.56 34.19Z" fill="#FFFFFF" fill-opacity="1.000000" fill-rule="nonzero"/>
	<path id="Vector" d="M80.12 43.55C80.3 43.55 80.48 43.47 80.61 43.34C80.75 43.21 80.82 43.03 80.82 42.84C80.82 42.75 80.81 42.66 80.77 42.58C80.74 42.49 80.69 42.41 80.62 42.35C80.56 42.28 80.48 42.23 80.4 42.2C80.31 42.16 80.22 42.14 80.13 42.14C78.95 42.13 77.78 41.86 76.7 41.36C75.63 40.86 74.67 40.14 73.89 39.24C73.38 38.73 73.01 38.1 72.81 37.41C72.61 36.72 72.58 35.99 72.74 35.28C72.97 34.72 73.36 34.24 73.86 33.89C74.35 33.55 74.94 33.35 75.55 33.32C76.2 33.31 76.84 33.42 77.45 33.66C78.05 33.9 78.6 34.26 79.07 34.72C79.2 34.85 79.38 34.93 79.56 34.93C79.75 34.93 79.93 34.85 80.06 34.72C80.13 34.66 80.18 34.58 80.22 34.5C80.25 34.41 80.27 34.32 80.27 34.23C80.27 34.13 80.25 34.04 80.22 33.96C80.18 33.87 80.13 33.79 80.06 33.73C79.46 33.14 78.74 32.69 77.95 32.39C77.17 32.09 76.33 31.95 75.49 31.97C74.61 32.02 73.76 32.32 73.04 32.83C72.32 33.35 71.76 34.06 71.44 34.88C71.19 35.81 71.19 36.8 71.43 37.73C71.68 38.67 72.16 39.53 72.84 40.22C73.75 41.26 74.87 42.1 76.13 42.68C77.38 43.27 78.75 43.58 80.13 43.6L80.12 43.55Z" fill="#30325B" fill-opacity="1.000000" fill-rule="nonzero"/>
	<path id="Vector" d="M264.85 171.83C264.85 171.83 248.94 237.19 259.44 241.73C269.95 246.28 329.72 255.01 329.72 255.01L332.43 236.16C332.43 236.16 286.44 226.09 283.93 223.81C281.42 221.52 299.35 165.98 299.78 165.53C300.2 165.09 264.85 171.83 264.85 171.83Z" fill="#30325B" fill-opacity="1.000000" fill-rule="nonzero"/>
	<path id="Vector" d="M329.72 255.71C329.87 255.71 330.01 255.66 330.13 255.57C330.2 255.52 330.27 255.45 330.31 255.37C330.36 255.29 330.39 255.2 330.41 255.11L333.13 236.26C333.15 236.09 333.11 235.91 333.01 235.76C332.91 235.62 332.75 235.51 332.58 235.48C314.87 231.61 286.13 224.86 284.41 223.29C283 220.25 298.82 169.14 300.37 165.9C300.43 165.79 300.47 165.67 300.47 165.54C300.47 165.42 300.43 165.29 300.37 165.18C300.04 164.57 299.96 164.4 264.7 171.14C264.57 171.17 264.45 171.23 264.35 171.32C264.25 171.41 264.18 171.53 264.15 171.66C262.5 178.41 248.39 237.72 259.13 242.38C269.61 246.92 327.14 255.35 329.58 255.7L329.72 255.71ZM331.64 236.71L329.12 254.19C322.41 253.19 269.41 245.27 259.72 241.06C257.45 240.08 254.34 234.12 258.89 205.17C261.29 190.01 264.78 175.13 265.43 172.41C277.28 170.15 294.29 166.96 298.7 166.31C295.64 174.27 282.83 216 282.99 222.83C282.96 223.09 282.99 223.36 283.07 223.61C283.16 223.87 283.29 224.1 283.47 224.3C285.95 226.6 324.67 235.18 331.64 236.71Z" fill="#30325B" fill-opacity="1.000000" fill-rule="nonzero"/>
	<path id="Vector" d="M338.28 169.59L288.5 287.16L267.06 283.02L299.64 158.91L338.28 169.59Z" fill="#30325B" fill-opacity="1.000000" fill-rule="nonzero"/>
	<path id="Vector" d="M288.5 287.85C288.64 287.84 288.77 287.8 288.88 287.73C289 287.65 289.09 287.55 289.15 287.42L338.92 169.84C338.96 169.75 338.97 169.65 338.97 169.55C338.97 169.45 338.94 169.35 338.9 169.26C338.86 169.17 338.79 169.09 338.72 169.03C338.64 168.96 338.55 168.91 338.46 168.89L299.83 158.23C299.75 158.19 299.65 158.17 299.56 158.17C299.47 158.17 299.37 158.19 299.29 158.23C299.13 158.32 299.01 158.47 298.96 158.65L266.43 282.85C266.4 282.94 266.39 283.04 266.4 283.14C266.42 283.23 266.45 283.32 266.51 283.4C266.56 283.48 266.63 283.55 266.71 283.61C266.79 283.67 266.88 283.7 266.97 283.72L288.36 287.85L288.5 287.85ZM337.31 170.04L288.08 286.34L267.93 282.46L300.18 159.77L337.31 170.04Z" fill="#30325B" fill-opacity="1.000000" fill-rule="nonzero"/>
	<path id="Vector" d="M320.69 15.44C324.27 12.91 328.57 11.61 332.95 11.71C337.34 11.81 341.57 13.31 345.04 16C347.67 18.06 349.67 20.82 350.8 23.96C351.94 27.1 352.17 30.5 351.46 33.77C350.56 36.98 348.67 39.82 346.05 41.89C343.44 43.95 340.24 45.14 336.91 45.28C330.48 45.61 323.7 40.09 320.28 35.05C316.14 28.95 313.37 20.49 320.69 15.44Z" fill="#FFFFFF" fill-opacity="1.000000" fill-rule="nonzero"/>
	<path id="Vector" d="M336.37 46L336.96 46C340.43 45.86 343.78 44.62 346.5 42.47C349.23 40.31 351.21 37.34 352.15 33.99C352.87 30.6 352.63 27.06 351.45 23.79C350.27 20.52 348.2 17.65 345.47 15.5C341.89 12.69 337.49 11.12 332.94 11.02C328.39 10.92 323.93 12.28 320.23 14.92C311.31 21.02 316.92 31.3 319.72 35.4C323.18 40.6 329.83 46 336.37 46ZM332.62 12.34C336.98 12.35 341.2 13.83 344.6 16.55C347.12 18.53 349.03 21.18 350.13 24.19C351.22 27.21 351.45 30.46 350.79 33.6C349.93 36.67 348.13 39.39 345.63 41.36C343.13 43.33 340.07 44.46 336.89 44.58C331 44.85 324.35 39.81 320.86 34.65C318.29 30.85 313.17 21.46 321.08 16.03C324.47 13.68 328.5 12.41 332.62 12.4L332.62 12.34Z" fill="#30325B" fill-opacity="1.000000" fill-rule="nonzero"/>
	<path id="Vector" d="M333.63 26.13C335.95 28.16 337.71 30.76 338.75 33.68C339.78 36.59 340.04 39.71 339.52 42.76C339.33 44.45 338.54 46.01 337.31 47.18C334.83 49.2 331.07 48.02 328.4 46.25C324.1 43.24 320.55 39.27 318.04 34.65C316.17 31.4 313.35 24.06 318.4 22.26C323.45 20.45 329.93 22.93 333.63 26.13Z" fill="#30325B" fill-opacity="1.000000" fill-rule="nonzero"/>
	<path id="Vector" d="M334.14 48.93C335.45 48.96 336.73 48.54 337.76 47.72C339.14 46.46 340.01 44.73 340.21 42.87C340.76 39.71 340.48 36.45 339.41 33.43C338.34 30.4 336.51 27.7 334.1 25.58C330.24 22.26 323.34 19.73 318.16 21.58C317.49 21.8 316.88 22.16 316.37 22.65C315.86 23.13 315.47 23.73 315.22 24.39C313.82 28.37 317.04 34.29 317.43 34.95C319.99 39.66 323.61 43.71 328.01 46.78C329.81 48.06 331.93 48.81 334.14 48.93ZM321.99 22.38C326.1 22.52 330.05 24.02 333.21 26.66C335.43 28.62 337.12 31.12 338.1 33.92C339.08 36.71 339.33 39.71 338.82 42.63C338.66 44.16 337.97 45.57 336.86 46.63C334.66 48.41 331.25 47.29 328.77 45.66C324.55 42.71 321.08 38.83 318.63 34.3C317.38 32.11 315.51 27.68 316.52 24.93C316.69 24.46 316.97 24.03 317.34 23.68C317.7 23.33 318.14 23.07 318.63 22.93C319.71 22.55 320.85 22.37 321.99 22.38Z" fill="#30325B" fill-opacity="1.000000" fill-rule="nonzero"/>
	<path id="Vector" d="M307.69 65.93C308.79 67 309.96 68.01 311.18 68.94C313.6 70.36 316.33 71.14 319.13 71.21C321.94 71.28 324.71 70.64 327.2 69.35C339.05 63.25 338.77 49.39 336.31 38.12C335.32 33.53 331.96 23.97 325.78 28.75C327.59 27.35 320.17 22.7 319.03 22.27C311.15 19.06 302.78 23.67 298.16 30.08C295.43 33.75 293.12 37.7 291.26 41.88C289.44 46.48 291.43 52.79 294.07 56.7C296.1 59.73 298.93 62.16 302.23 63.71C303.76 64.43 305.72 64.61 307.14 65.49L307.69 65.93Z" fill="#FFFFFF" fill-opacity="1.000000" fill-rule="nonzero"/>
	<path id="Vector" d="M319.43 71.86C322.24 71.86 325.01 71.2 327.5 69.91C337.32 64.86 340.52 54.11 337 37.92C336.52 35.73 334.66 28.47 330.52 26.95C329.87 26.73 329.18 26.65 328.5 26.72C327.82 26.78 327.16 27 326.56 27.35C325.43 24.93 319.71 21.74 319.3 21.57C310.79 18.1 302.08 23.31 297.59 29.62C294.81 33.32 292.45 37.32 290.58 41.55C288.66 46.38 290.69 52.96 293.38 56.98C295.47 60.12 298.38 62.63 301.8 64.25C302.53 64.57 303.29 64.83 304.07 65.02C304.96 65.23 305.81 65.56 306.62 65.98C306.8 66.11 306.99 66.24 307.15 66.38C307.65 66.75 308.11 67.14 308.56 67.57C309.23 68.27 309.97 68.89 310.77 69.44C313.38 71.03 316.37 71.87 319.43 71.86ZM329 28.09C329.36 28.09 329.71 28.15 330.04 28.27C332.85 29.28 334.77 34.26 335.65 38.22C339.02 53.64 336.07 63.95 326.9 68.66C324.52 69.9 321.87 70.52 319.19 70.45C316.51 70.39 313.89 69.65 311.57 68.3C310.86 67.81 310.19 67.25 309.58 66.63C309.14 66.17 308.67 65.74 308.18 65.33C307.97 65.16 307.75 65 307.52 64.86C306.61 64.34 305.63 63.96 304.6 63.73C303.9 63.55 303.21 63.32 302.54 63.03C299.35 61.52 296.62 59.18 294.66 56.25C292.16 52.48 290.25 46.43 291.98 42.07C293.77 37.97 296.02 34.09 298.68 30.49C302.89 24.61 310.93 19.74 318.72 22.93C320.13 23.49 325.39 27.14 325.32 28.19C325.24 28.24 325.18 28.31 325.14 28.39C325.09 28.47 325.06 28.56 325.05 28.65C325.04 28.74 325.05 28.83 325.07 28.91C325.09 29 325.13 29.08 325.19 29.16C325.25 29.23 325.31 29.29 325.39 29.33C325.47 29.38 325.56 29.41 325.65 29.42C325.74 29.43 325.83 29.42 325.92 29.4C326 29.38 326.09 29.34 326.16 29.28C326.95 28.6 327.96 28.2 329 28.15L329 28.09Z" fill="#30325B" fill-opacity="1.000000" fill-rule="nonzero"/>
	<path id="Vector" d="M298.87 39.35C298.87 39.35 294.22 49.46 295.34 57.58C295.6 59.84 296.51 61.96 297.96 63.71C299.41 65.45 301.33 66.73 303.49 67.4L302.27 81.43C302.27 81.43 301.57 88.61 310.48 88.27C313.06 88.17 315.58 87.41 317.79 86.07C320 84.72 321.82 82.83 323.1 80.58L326.31 54.86C326.31 54.86 316.83 48.26 318.51 39.06C318.51 39.06 306.16 43.81 298.87 39.35Z" fill="#FFFFFF" fill-opacity="1.000000" fill-rule="nonzero"/>
	<path id="Vector" d="M309.9 88.99L310.53 88.99C313.24 88.89 315.87 88.09 318.18 86.68C320.49 85.27 322.4 83.28 323.72 80.92C323.72 80.85 323.72 80.77 323.72 80.7L326.96 54.95C326.98 54.82 326.96 54.69 326.91 54.57C326.85 54.46 326.77 54.36 326.66 54.29C326.58 54.29 317.59 47.82 319.16 39.18C319.18 39.06 319.17 38.93 319.12 38.82C319.08 38.7 319.01 38.59 318.92 38.51C318.82 38.43 318.71 38.38 318.58 38.37C318.46 38.35 318.34 38.36 318.22 38.4C318.09 38.4 306.09 42.93 299.19 38.75C299.1 38.71 299 38.69 298.91 38.69C298.81 38.69 298.72 38.71 298.63 38.75C298.53 38.78 298.44 38.82 298.37 38.89C298.29 38.96 298.23 39.04 298.19 39.13C298 39.55 293.47 49.52 294.6 57.72C294.88 60.01 295.79 62.18 297.22 63.98C298.65 65.79 300.55 67.17 302.71 67.96L301.53 81.45C301.47 82.41 301.6 83.38 301.91 84.29C302.23 85.2 302.72 86.04 303.35 86.76C304.23 87.56 305.26 88.18 306.39 88.57C307.52 88.95 308.72 89.09 309.9 88.99ZM322.41 80.39C321.2 82.5 319.46 84.27 317.38 85.53C315.29 86.79 312.91 87.49 310.48 87.58C309.4 87.73 308.31 87.64 307.27 87.32C306.23 87 305.27 86.46 304.46 85.73C303.46 84.57 302.96 83.06 303.06 81.52L304.28 67.5C304.29 67.33 304.24 67.17 304.15 67.03C304.05 66.9 303.91 66.8 303.75 66.76C301.71 66.13 299.9 64.92 298.55 63.27C297.19 61.63 296.35 59.62 296.13 57.5C295.2 50.89 298.29 42.77 299.29 40.38C305.57 43.6 314.62 41.15 317.74 40.14C317.01 48.16 323.97 53.95 325.65 55.23L322.41 80.39Z" fill="#30325B" fill-opacity="1.000000" fill-rule="nonzero"/>
	<path id="Vector" d="M321.6 52.62C321.6 52.62 326.8 43.25 331.15 49.81C335.5 56.38 327.78 62.44 323.49 61.54L321.6 52.62Z" fill="#FFFFFF" fill-opacity="1.000000" fill-rule="nonzero"/>
	<path id="Vector" d="M324.45 62.35C325.9 62.25 327.31 61.82 328.57 61.09C329.83 60.36 330.9 59.35 331.71 58.15C332.62 56.87 333.11 55.34 333.11 53.78C333.11 52.21 332.62 50.68 331.71 49.41C331.31 48.63 330.71 47.97 329.97 47.51C329.23 47.04 328.38 46.78 327.5 46.76C323.96 46.9 321.07 52.03 320.94 52.25C320.9 52.34 320.87 52.42 320.86 52.52C320.85 52.61 320.86 52.7 320.88 52.79C320.91 52.88 320.95 52.96 321.01 53.03C321.07 53.1 321.14 53.16 321.22 53.21C321.3 53.25 321.39 53.28 321.48 53.29C321.57 53.3 321.67 53.29 321.76 53.27C321.84 53.24 321.93 53.2 322 53.14C322.07 53.08 322.13 53.01 322.17 52.93C322.89 51.64 325.27 48.24 327.56 48.16C328.19 48.21 328.79 48.42 329.31 48.78C329.83 49.13 330.24 49.61 330.52 50.18C331.28 51.22 331.69 52.47 331.69 53.76C331.69 55.05 331.28 56.3 330.52 57.35C328.85 59.76 325.76 61.33 323.6 60.85C323.42 60.81 323.22 60.85 323.06 60.95C322.9 61.05 322.79 61.21 322.75 61.4C322.71 61.58 322.74 61.78 322.85 61.94C322.95 62.1 323.11 62.21 323.3 62.25C323.67 62.33 324.06 62.37 324.45 62.35Z" fill="#30325B" fill-opacity="1.000000" fill-rule="nonzero"/>
	<path id="Vector" d="M303.42 58.8C304.08 58.8 304.73 58.75 305.37 58.64C305.46 58.62 305.55 58.59 305.63 58.54C305.71 58.49 305.78 58.42 305.83 58.35C305.89 58.27 305.93 58.18 305.95 58.09C305.97 58 305.97 57.91 305.95 57.82C305.94 57.72 305.91 57.64 305.85 57.56C305.81 57.48 305.74 57.41 305.66 57.35C305.59 57.3 305.5 57.26 305.41 57.24C305.32 57.22 305.23 57.22 305.13 57.23C303.83 57.49 302.48 57.4 301.22 56.97C301.22 56.15 303.31 53.14 305.82 50.35C305.89 50.28 305.94 50.21 305.97 50.12C306.01 50.04 306.03 49.95 306.03 49.86C306.03 49.77 306.01 49.67 305.97 49.59C305.94 49.51 305.89 49.43 305.82 49.37C305.76 49.3 305.68 49.25 305.59 49.21C305.51 49.18 305.42 49.16 305.32 49.16C305.23 49.16 305.14 49.18 305.05 49.21C304.97 49.25 304.89 49.3 304.82 49.37C303.6 50.77 299.64 55.3 299.9 57.18C299.92 57.36 299.98 57.53 300.07 57.68C300.17 57.84 300.3 57.97 300.45 58.06C301.36 58.57 302.38 58.82 303.42 58.8Z" fill="#30325B" fill-opacity="1.000000" fill-rule="nonzero"/>
	<path id="Vector" d="M306.4 63.45C306.87 63.45 307.33 63.42 307.8 63.35C310.32 62.98 312.61 61.69 314.24 59.73C314.33 59.57 314.35 59.38 314.3 59.2C314.25 59.02 314.13 58.87 313.97 58.78C313.81 58.69 313.62 58.67 313.44 58.72C313.26 58.77 313.11 58.88 313.02 59.04C311.55 60.66 309.57 61.7 307.41 61.99C304.6 62.31 301.96 61.19 299.4 58.69C299.33 58.62 299.26 58.56 299.17 58.52C299.08 58.48 298.99 58.45 298.89 58.45C298.79 58.45 298.7 58.47 298.61 58.5C298.52 58.54 298.44 58.59 298.37 58.66C298.3 58.73 298.25 58.81 298.21 58.9C298.18 58.99 298.16 59.09 298.17 59.18C298.17 59.28 298.2 59.38 298.24 59.46C298.28 59.55 298.34 59.63 298.42 59.69C300.48 61.94 303.34 63.3 306.4 63.45Z" fill="#30325B" fill-opacity="1.000000" fill-rule="nonzero"/>
	<path id="Vector" d="M303.49 67.4C303.49 67.4 310.91 69 315.32 68.27C315.32 68.27 309.71 78.93 302.53 78.24L303.49 67.4Z" fill="#30325B" fill-opacity="1.000000" fill-rule="nonzero"/>
	<path id="Vector" d="M303.18 78.97C310.34 78.97 315.71 69.04 315.93 68.61C316 68.5 316.04 68.37 316.04 68.24C316.04 68.1 316 67.98 315.93 67.86C315.85 67.76 315.75 67.68 315.63 67.63C315.51 67.58 315.38 67.56 315.25 67.58C311.04 68.27 303.76 66.73 303.69 66.71C303.59 66.69 303.49 66.69 303.39 66.71C303.29 66.74 303.2 66.78 303.11 66.84C303.04 66.9 302.97 66.97 302.92 67.06C302.87 67.14 302.84 67.23 302.83 67.33L301.87 78.17C301.86 78.26 301.87 78.36 301.89 78.45C301.92 78.54 301.96 78.62 302.02 78.69C302.08 78.76 302.15 78.82 302.23 78.86C302.32 78.91 302.41 78.94 302.5 78.94L303.18 78.97ZM314 69.15C312.39 71.71 308.19 77.57 303.28 77.57L304.12 68.24C307.37 68.9 310.68 69.2 314 69.13L314 69.15Z" fill="#30325B" fill-opacity="1.000000" fill-rule="nonzero"/>
	<path id="Vector" d="M309.24 48.7C309.09 49.75 309.46 50.68 310.06 50.77C310.67 50.86 311.28 50.07 311.43 49.01C311.58 47.95 311.21 47.02 310.61 46.94C310 46.85 309.39 47.64 309.24 48.7Z" fill="#30325B" fill-opacity="1.000000" fill-rule="evenodd"/>
	<path id="Vector" d="M299.12 47.24C298.97 48.3 299.34 49.23 299.95 49.31C300.55 49.4 301.17 48.61 301.32 47.56C301.47 46.5 301.1 45.57 300.49 45.48C299.89 45.4 299.27 46.18 299.12 47.24Z" fill="#30325B" fill-opacity="1.000000" fill-rule="evenodd"/>
	<path id="Vector" d="M63.89 91.86L178.67 31.81C179.76 31.23 181 30.98 182.22 31.07C183.45 31.17 184.63 31.6 185.63 32.34C186.62 33.07 187.39 34.06 187.84 35.21C188.29 36.36 188.42 37.61 188.19 38.82L183.72 64.06L376 98.14C376.53 98.24 377.03 98.43 377.48 98.72C377.94 99.01 378.33 99.38 378.63 99.82C378.94 100.26 379.15 100.76 379.27 101.28C379.38 101.8 379.39 102.34 379.3 102.87L362.01 200.3C361.82 201.36 361.22 202.31 360.33 202.93C359.45 203.54 358.36 203.79 357.29 203.6L165 169.48L160.52 194.72C160.31 195.93 159.75 197.05 158.93 197.96C158.11 198.87 157.05 199.53 155.87 199.87C154.69 200.21 153.44 200.22 152.26 199.88C151.08 199.55 150.02 198.89 149.19 197.99L62.07 102.1C61.4 101.35 60.91 100.47 60.63 99.5C60.36 98.54 60.3 97.52 60.48 96.53C60.66 95.55 61.05 94.61 61.65 93.8C62.24 92.99 63.01 92.33 63.89 91.86Z" fill="#FFFFFF" fill-opacity="1.000000" fill-rule="nonzero"/>
	<path id="Vector" d="M358.01 204.37C358.98 204.36 359.93 204.06 360.73 203.5C361.24 203.14 361.68 202.69 362.02 202.16C362.36 201.63 362.59 201.04 362.69 200.43L380.03 102.98C380.14 102.37 380.12 101.73 379.99 101.12C379.85 100.51 379.6 99.93 379.24 99.42C378.88 98.9 378.42 98.47 377.89 98.13C377.36 97.79 376.77 97.57 376.16 97.46L184.53 63.45L188.88 38.89C189.11 37.55 188.97 36.18 188.46 34.92C187.95 33.66 187.1 32.57 186.01 31.77C184.91 30.97 183.61 30.49 182.26 30.39C180.91 30.29 179.55 30.56 178.35 31.19L63.56 91.26C62.57 91.77 61.72 92.51 61.06 93.4C60.4 94.3 59.96 95.34 59.77 96.43C59.57 97.53 59.63 98.65 59.94 99.72C60.25 100.79 60.8 101.77 61.55 102.59L148.62 198.48C149.53 199.48 150.71 200.21 152.02 200.57C153.33 200.94 154.71 200.94 156.01 200.56C157.32 200.18 158.49 199.45 159.4 198.44C160.31 197.43 160.92 196.18 161.15 194.85L165.52 170.29L357.17 204.29C357.44 204.34 357.73 204.37 358.01 204.37ZM181.74 31.74C182.99 31.75 184.19 32.15 185.19 32.89C186.09 33.53 186.78 34.41 187.19 35.43C187.6 36.45 187.71 37.57 187.51 38.65L183.02 63.9C182.99 64.08 183.03 64.27 183.14 64.42C183.25 64.57 183.41 64.67 183.59 64.71L375.82 98.83C376.7 99 377.48 99.5 377.99 100.23C378.52 100.95 378.75 101.84 378.62 102.72L361.33 200.15C361.17 201.03 360.67 201.81 359.94 202.32C359.21 202.84 358.3 203.04 357.42 202.88L165.14 168.76C164.96 168.73 164.77 168.77 164.62 168.88C164.47 168.98 164.36 169.14 164.32 169.32L159.85 194.57C159.66 195.65 159.17 196.65 158.44 197.47C157.7 198.29 156.75 198.88 155.7 199.19C154.64 199.49 153.52 199.49 152.47 199.19C151.41 198.89 150.46 198.3 149.72 197.48L62.6 101.59C62 100.93 61.56 100.14 61.31 99.27C61.06 98.41 61.02 97.51 61.17 96.62C61.33 95.74 61.69 94.91 62.22 94.18C62.75 93.46 63.43 92.87 64.23 92.45L179.01 32.42C179.85 31.97 180.79 31.74 181.74 31.74Z" fill="#30325B" fill-opacity="1.000000" fill-rule="nonzero"/>
	<path id="Vector" d="M184.07 55.76C185.61 55.24 187.18 54.78 188.76 54.36C189.73 54.01 190.79 53.98 191.79 54.25C193.19 54.79 193.9 56.46 194.41 57.93C195.15 60.19 195.92 62.6 195.28 64.95C194.34 68.29 190.78 70.12 187.44 71.03C185.8 71.55 184.07 71.71 182.37 71.48C172.46 69.69 177.48 57.98 184.07 55.76Z" fill="#FFFFFF" fill-opacity="1.000000" fill-rule="nonzero"/>
	<path id="Vector" d="M183.76 72.28C185.07 72.25 186.37 72.05 187.62 71.68C190.24 70.98 194.81 69.18 195.95 65.12C196.68 62.53 195.78 59.88 195.07 57.74C194.52 56.1 193.78 54.27 192.04 53.62C190.91 53.28 189.7 53.32 188.59 53.71C186.99 54.11 185.39 54.58 183.85 55.12C179.48 56.52 175.81 61.89 176.13 66.25C176.26 68.07 177.24 71.26 182.25 72.17C182.75 72.25 183.26 72.29 183.76 72.28ZM190.69 54.79C190.99 54.79 191.28 54.84 191.56 54.93C192.74 55.37 193.31 56.84 193.76 58.19C194.58 60.59 195.16 62.73 194.63 64.74C193.68 68.13 189.61 69.7 187.28 70.35C185.75 70.84 184.13 70.99 182.53 70.8C179.46 70.25 177.75 68.64 177.56 66.15C177.28 62.44 180.58 57.74 184.32 56.45C185.84 55.94 187.39 55.49 188.95 55.05C189.52 54.89 190.1 54.8 190.69 54.79Z" fill="#30325B" fill-opacity="1.000000" fill-rule="nonzero"/>
	<path id="Vector" d="M358.16 107.11C357.79 107.11 357.42 107.02 357.08 106.87C353.51 105.31 354.01 98.71 353.7 95.48C353.53 93.67 353.58 91.48 355.1 90.54C358.56 88.45 363.35 89.36 366.48 91.66C369.61 93.96 370.29 98.31 369.94 102.04C369.82 103.53 369.7 106.83 368.36 107.75C366.56 109.01 364.45 105.54 364.49 103.99L364.49 105.24C364.51 105.82 364.43 106.39 364.25 106.94C364.16 107.22 364.01 107.47 363.8 107.67C363.59 107.87 363.34 108.02 363.06 108.1C362.16 108.28 361.35 107.5 360.98 106.7C360.72 105.83 360.41 104.97 360.06 104.13C360.33 104.52 360.45 104.99 360.39 105.45C360.33 105.92 360.09 106.34 359.73 106.64C359.29 106.99 358.73 107.15 358.16 107.11Z" fill="#FFFFFF" fill-opacity="1.000000" fill-rule="nonzero"/>
	<path id="Vector" d="M362.78 108.83C362.92 108.85 363.06 108.85 363.2 108.83C363.59 108.73 363.96 108.53 364.26 108.25C364.56 107.97 364.78 107.62 364.91 107.23C364.91 107.23 364.91 107.13 364.91 107.08C365.27 107.64 365.75 108.12 366.31 108.48C366.69 108.72 367.14 108.83 367.58 108.8C368.03 108.77 368.46 108.61 368.81 108.33C370.28 107.3 370.5 104.48 370.64 102.62L370.64 102.11C370.97 98.59 370.64 93.82 366.89 91.1C363.84 88.85 358.74 87.53 354.74 89.94C352.79 91.12 352.81 93.7 352.97 95.55C352.97 96.14 353.06 96.83 353.1 97.57C353.24 101.16 353.45 106.07 356.77 107.53C357.22 107.72 357.69 107.82 358.18 107.82C358.92 107.85 359.64 107.62 360.22 107.16L360.39 106.92C360.57 107.43 360.89 107.88 361.31 108.22C361.73 108.55 362.24 108.77 362.78 108.83ZM363.81 103.98L363.81 105.21C363.83 105.72 363.76 106.22 363.62 106.7C363.57 106.87 363.48 107.02 363.36 107.14C363.24 107.27 363.09 107.36 362.93 107.42C362.45 107.51 361.91 106.97 361.65 106.38C361.52 106.05 361.41 105.71 361.32 105.37L361.11 104.67C361.03 104.29 360.86 103.94 360.62 103.64C360.5 103.52 360.34 103.44 360.18 103.42C360.01 103.41 359.84 103.45 359.7 103.55C359.56 103.65 359.46 103.79 359.42 103.95C359.38 104.12 359.4 104.29 359.48 104.44C359.58 104.63 359.67 104.82 359.73 105.02C359.75 105.09 359.75 105.16 359.73 105.23C359.71 105.55 359.56 105.85 359.31 106.07C359 106.32 358.6 106.44 358.2 106.41C357.93 106.4 357.65 106.34 357.39 106.24C354.87 105.13 354.68 100.73 354.59 97.5C354.59 96.73 354.59 96.01 354.47 95.41C354.25 93.08 354.6 91.73 355.55 91.2C358.85 89.21 363.38 90.23 366.16 92.28C369.31 94.62 369.63 98.87 369.35 102.1L369.35 102.62C369.24 103.92 369.03 106.64 368.11 107.29C367.98 107.38 367.82 107.43 367.66 107.43C367.51 107.43 367.35 107.38 367.22 107.29C366.7 106.92 366.27 106.44 365.94 105.89C365.62 105.35 365.41 104.74 365.33 104.11C365.33 103.92 365.26 103.74 365.14 103.61C365.01 103.48 364.84 103.4 364.66 103.39C364.47 103.39 364.29 103.46 364.15 103.59C364.02 103.72 363.94 103.89 363.93 104.08L363.81 103.98Z" fill="#30325B" fill-opacity="1.000000" fill-rule="nonzero"/>
	<path id="Vector" d="M42.03 87.16C42.03 87.16 33.42 128.55 43.61 131.24C57.45 134.97 114.96 120.86 114.96 120.86C114.96 120.86 129.96 124.55 132.59 120.6C135.21 116.64 132.59 111.12 131.27 110.78C129.95 110.44 118.65 109.66 118.65 109.66C118.65 109.66 127.85 102.88 124.96 102.37C122.07 101.85 111.79 105.26 111.79 105.26C111.79 105.26 55.46 109.46 55.98 106.55C56.5 103.63 59.11 92.66 59.11 92.66L42.03 87.16Z" fill="#FFFFFF" fill-opacity="1.000000" fill-rule="nonzero"/>
	<path id="Vector" d="M50.02 132.56C69.45 132.56 111.32 122.45 114.9 121.58C117.12 122.11 130.33 125.1 133.13 120.99C133.85 119.76 134.27 118.38 134.35 116.96C134.43 115.54 134.17 114.12 133.6 112.81C133.37 112.25 132.52 110.4 131.37 110.16C130.22 109.93 123.78 109.43 120.5 109.17C123.23 107.05 126.49 104.16 126.11 102.67C126.04 102.42 125.9 102.2 125.7 102.03C125.5 101.87 125.26 101.77 125 101.75C122.08 101.22 112.98 104.18 111.58 104.64C91.83 106.04 60.09 107.84 56.65 106.43C57.27 103.18 59.67 93 59.7 92.88C59.74 92.7 59.71 92.5 59.61 92.34C59.51 92.18 59.34 92.06 59.16 92.02C58.97 91.98 58.78 92.01 58.61 92.11C58.45 92.21 58.34 92.38 58.3 92.56C58.18 93.01 55.69 103.61 55.17 106.49C55.14 106.63 55.15 106.78 55.19 106.92C55.23 107.06 55.3 107.18 55.41 107.29C57.68 109.83 99.08 106.97 111.72 106.03L111.88 106.03C114.69 105.09 122.35 102.77 124.65 103.14C124.3 104.09 121.42 106.74 118.1 109.2C117.98 109.28 117.9 109.4 117.85 109.53C117.8 109.67 117.8 109.82 117.83 109.95C117.88 110.09 117.96 110.21 118.07 110.3C118.18 110.39 118.32 110.45 118.46 110.46C121.59 110.7 129.96 111.37 131.02 111.57C131.71 112.19 132.2 113.01 132.42 113.92C132.81 114.95 132.96 116.05 132.87 117.14C132.78 118.23 132.44 119.29 131.88 120.23C130.16 122.81 120.66 121.64 115.05 120.23C114.94 120.21 114.83 120.21 114.72 120.23C114.14 120.37 57.31 134.26 43.72 130.63C35.88 128.55 40.29 98.69 42.64 87.36C42.68 87.17 42.64 86.98 42.54 86.82C42.43 86.66 42.27 86.55 42.08 86.52C41.9 86.48 41.7 86.52 41.55 86.62C41.39 86.73 41.28 86.89 41.24 87.08C40.34 91.38 32.83 129.15 43.33 131.96C45.53 132.44 47.77 132.64 50.02 132.56Z" fill="#30325B" fill-opacity="1.000000" fill-rule="nonzero"/>
	<path id="Vector" d="" fill="#30325B" fill-opacity="1.000000" fill-rule="nonzero"/>
	<path id="Vector" d="M59.05 93.43C59.21 93.43 59.36 93.37 59.48 93.27C59.61 93.18 59.69 93.04 59.73 92.88L66.08 66C66.1 65.91 66.11 65.82 66.09 65.73C66.08 65.63 66.05 65.55 66 65.47C65.95 65.39 65.89 65.32 65.81 65.27C65.74 65.21 65.65 65.18 65.56 65.16C65.38 65.12 65.19 65.15 65.04 65.25C64.88 65.34 64.77 65.5 64.72 65.68L58.37 92.56C58.32 92.74 58.35 92.93 58.45 93.09C58.55 93.25 58.7 93.36 58.88 93.4L59.05 93.43Z" fill="#30325B" fill-opacity="1.000000" fill-rule="nonzero"/>
	<path id="Vector" d="M205.4 21.55C205.51 21.55 205.61 21.53 205.7 21.48C205.8 21.43 205.88 21.36 205.94 21.27C205.98 21.2 206.02 21.12 206.04 21.04C206.05 20.96 206.05 20.87 206.04 20.79C206.02 20.71 205.99 20.63 205.94 20.56C205.9 20.49 205.84 20.42 205.77 20.38C205.27 20.04 204.87 19.58 204.62 19.03C204.38 18.48 204.29 17.87 204.37 17.28C204.8 16.39 205.11 15.44 205.29 14.47C205.31 14.33 205.28 14.18 205.21 14.05C205.14 13.92 205.02 13.83 204.88 13.77C204.75 13.72 204.59 13.72 204.45 13.76C204.31 13.81 204.19 13.9 204.11 14.02C203.6 14.88 203.26 15.84 203.12 16.83C202.95 17.19 202.68 17.49 202.35 17.7C202.24 17.75 202.11 17.76 202 17.75C201.88 17.73 201.76 17.68 201.67 17.6C200.4 16.84 201.67 12.34 202.88 9.55C202.91 9.47 202.93 9.39 202.94 9.31C202.94 9.22 202.92 9.14 202.89 9.06C202.86 8.98 202.82 8.91 202.76 8.85C202.7 8.79 202.63 8.74 202.56 8.71C202.4 8.64 202.22 8.64 202.06 8.7C201.9 8.76 201.77 8.88 201.7 9.03C201.11 10.36 198.31 17.08 201.01 18.69C201.28 18.88 201.59 19 201.92 19.03C202.24 19.06 202.57 19 202.87 18.86C202.98 18.82 203.09 18.75 203.19 18.68C203.44 19.79 204.11 20.76 205.07 21.39C205.16 21.47 205.28 21.53 205.4 21.55Z" fill="#30325B" fill-opacity="1.000000" fill-rule="nonzero"/>
	<path id="Vector" d="M277.65 243.34C277.79 243.35 277.92 243.3 278.04 243.21C278.15 243.13 278.23 243 278.26 242.87L290.77 196.12C290.8 196.03 290.81 195.94 290.8 195.85C290.79 195.75 290.76 195.67 290.71 195.59C290.67 195.51 290.6 195.44 290.52 195.38C290.45 195.33 290.36 195.3 290.27 195.28C290.1 195.24 289.93 195.26 289.78 195.35C289.63 195.44 289.53 195.58 289.48 195.74L276.97 242.49C276.93 242.65 276.95 242.83 277.04 242.97C277.12 243.12 277.26 243.23 277.42 243.27L277.65 243.34Z" fill="#FFFFFF" fill-opacity="1.000000" fill-rule="nonzero"/>
</svg>
